solid OpenSCAD_Model
  facet normal 0 0 -1
    outer loop
      vertex 23.0056 0 0
      vertex 25.007 0 0
      vertex 24.6263 -1.91396 0
    endloop
  endfacet
  facet normal 0 0 -1
    outer loop
      vertex 22.4327 -1.76336 0
      vertex 24.6263 -1.91396 0
      vertex 23.5422 -3.53653 0
    endloop
  endfacet
  facet normal 0 0 -1
    outer loop
      vertex 25.007 0 0
      vertex 23.0056 0 0
      vertex 24.6263 1.91396 0
    endloop
  endfacet
  facet normal 0 0 -1
    outer loop
      vertex 22.4327 1.76336 0
      vertex 24.6263 1.91396 0
      vertex 23.0056 0 0
    endloop
  endfacet
  facet normal 0 0 -1
    outer loop
      vertex 24.6263 -1.91396 0
      vertex 22.4327 -1.76336 0
      vertex 23.0056 0 0
    endloop
  endfacet
  facet normal 0 0 -1
    outer loop
      vertex 20.9327 -2.85317 0
      vertex 23.5422 -3.53653 0
      vertex 21.9196 -4.6207 0
    endloop
  endfacet
  facet normal 0 0 -1
    outer loop
      vertex 23.5422 -3.53653 0
      vertex 20.9327 -2.85317 0
      vertex 22.4327 -1.76336 0
    endloop
  endfacet
  facet normal 0 0 -1
    outer loop
      vertex 21.9196 -4.6207 0
      vertex 19.0786 -2.85317 0
      vertex 20.9327 -2.85317 0
    endloop
  endfacet
  facet normal 0 0 -1
    outer loop
      vertex 6.71915 -1.97292 0
      vertex 17.0056 0 0
      vertex 17.5786 -1.76336 0
    endloop
  endfacet
  facet normal 0 0 -1
    outer loop
      vertex 5.89114 -3.78601 0
      vertex 17.5786 -1.76336 0
      vertex 19.0786 -2.85317 0
    endloop
  endfacet
  facet normal 0 0 -1
    outer loop
      vertex 3.09104 -9.51324 0
      vertex 19.0786 -2.85317 0
      vertex 21.9196 -4.6207 0
    endloop
  endfacet
  facet normal -0 0 -1
    outer loop
      vertex 17.0056 0 0
      vertex 6.71915 -1.97292 0
      vertex 7.00282 0 0
    endloop
  endfacet
  facet normal 0 0 -1
    outer loop
      vertex 17.5786 -1.76336 0
      vertex 5.89114 -3.78601 0
      vertex 6.71915 -1.97292 0
    endloop
  endfacet
  facet normal 0 0 -1
    outer loop
      vertex 19.0786 -2.85317 0
      vertex 3.09104 -9.51324 0
      vertex 5.89114 -3.78601 0
    endloop
  endfacet
  facet normal 0 0 -1
    outer loop
      vertex 5.89114 -3.78601 0
      vertex 3.09104 -9.51324 0
      vertex 4.58587 -5.29238 0
    endloop
  endfacet
  facet normal 0 0 -1
    outer loop
      vertex 3.09104 -9.51324 0
      vertex 2.90907 -6.36999 0
      vertex 4.58587 -5.29238 0
    endloop
  endfacet
  facet normal 0 0 -1
    outer loop
      vertex 0.996604 -6.93154 0
      vertex 3.09104 -9.51324 0
      vertex 1.04558 -9.94802 0
    endloop
  endfacet
  facet normal 0 0 -1
    outer loop
      vertex 3.09104 -9.51324 0
      vertex 0.996604 -6.93154 0
      vertex 2.90907 -6.36999 0
    endloop
  endfacet
  facet normal 0 0 -1
    outer loop
      vertex 1.04558 -9.94802 0
      vertex -0.996604 -6.93154 0
      vertex 0.996604 -6.93154 0
    endloop
  endfacet
  facet normal 0 0 -1
    outer loop
      vertex -1.04558 -9.94802 0
      vertex -0.996604 -6.93154 0
      vertex 1.04558 -9.94802 0
    endloop
  endfacet
  facet normal 0 0 -1
    outer loop
      vertex -3.09104 -9.51324 0
      vertex -0.996604 -6.93154 0
      vertex -1.04558 -9.94802 0
    endloop
  endfacet
  facet normal -0 0 -1
    outer loop
      vertex -0.996604 -6.93154 0
      vertex -3.09104 -9.51324 0
      vertex -2.90907 -6.36999 0
    endloop
  endfacet
  facet normal 0 0 -1
    outer loop
      vertex -5.00141 -8.66269 0
      vertex -2.90907 -6.36999 0
      vertex -3.09104 -9.51324 0
    endloop
  endfacet
  facet normal -0 0 -1
    outer loop
      vertex -2.90907 -6.36999 0
      vertex -5.00141 -8.66269 0
      vertex -4.58587 -5.29238 0
    endloop
  endfacet
  facet normal 0 0 -1
    outer loop
      vertex -6.69319 -7.43354 0
      vertex -4.58587 -5.29238 0
      vertex -5.00141 -8.66269 0
    endloop
  endfacet
  facet normal 0 0 -1
    outer loop
      vertex -8.09245 -5.87951 0
      vertex -4.58587 -5.29238 0
      vertex -6.69319 -7.43354 0
    endloop
  endfacet
  facet normal -0 0 -1
    outer loop
      vertex -4.58587 -5.29238 0
      vertex -8.09245 -5.87951 0
      vertex -5.89114 -3.78601 0
    endloop
  endfacet
  facet normal 0 0 -1
    outer loop
      vertex -9.13803 -4.06851 0
      vertex -5.89114 -3.78601 0
      vertex -8.09245 -5.87951 0
    endloop
  endfacet
  facet normal -0 0 -1
    outer loop
      vertex -5.89114 -3.78601 0
      vertex -9.13803 -4.06851 0
      vertex -6.71915 -1.97292 0
    endloop
  endfacet
  facet normal -0 0 -1
    outer loop
      vertex 24.6263 1.91396 0
      vertex 22.4327 1.76336 0
      vertex 23.5422 3.53653 0
    endloop
  endfacet
  facet normal 0 0 -1
    outer loop
      vertex 20.9327 2.85317 0
      vertex 23.5422 3.53653 0
      vertex 22.4327 1.76336 0
    endloop
  endfacet
  facet normal -0 0 -1
    outer loop
      vertex 23.5422 3.53653 0
      vertex 20.9327 2.85317 0
      vertex 21.9196 4.6207 0
    endloop
  endfacet
  facet normal 0 0 -1
    outer loop
      vertex 19.0786 2.85317 0
      vertex 21.9196 4.6207 0
      vertex 20.9327 2.85317 0
    endloop
  endfacet
  facet normal 0 0 -1
    outer loop
      vertex 6.71915 1.97292 0
      vertex 17.0056 0 0
      vertex 7.00282 0 0
    endloop
  endfacet
  facet normal 0 0 -1
    outer loop
      vertex 17.0056 0 0
      vertex 6.71915 1.97292 0
      vertex 17.5786 1.76336 0
    endloop
  endfacet
  facet normal 0 0 -1
    outer loop
      vertex 5.89114 3.78601 0
      vertex 17.5786 1.76336 0
      vertex 6.71915 1.97292 0
    endloop
  endfacet
  facet normal 0 0 -1
    outer loop
      vertex 17.5786 1.76336 0
      vertex 5.89114 3.78601 0
      vertex 19.0786 2.85317 0
    endloop
  endfacet
  facet normal 0 0 -1
    outer loop
      vertex 3.09104 9.51324 0
      vertex 19.0786 2.85317 0
      vertex 5.89114 3.78601 0
    endloop
  endfacet
  facet normal 0 0 -1
    outer loop
      vertex 3.09104 9.51324 0
      vertex 5.89114 3.78601 0
      vertex 4.58587 5.29238 0
    endloop
  endfacet
  facet normal 0 0 -1
    outer loop
      vertex 19.0786 2.85317 0
      vertex 3.09104 9.51324 0
      vertex 21.9196 4.6207 0
    endloop
  endfacet
  facet normal 0 0 -1
    outer loop
      vertex 2.90907 6.36999 0
      vertex 3.09104 9.51324 0
      vertex 4.58587 5.29238 0
    endloop
  endfacet
  facet normal 0 0 -1
    outer loop
      vertex 0.996604 6.93154 0
      vertex 3.09104 9.51324 0
      vertex 2.90907 6.36999 0
    endloop
  endfacet
  facet normal -0 0 -1
    outer loop
      vertex 3.09104 9.51324 0
      vertex 0.996604 6.93154 0
      vertex 1.04558 9.94802 0
    endloop
  endfacet
  facet normal 0 0 -1
    outer loop
      vertex -0.996604 6.93154 0
      vertex 1.04558 9.94802 0
      vertex 0.996604 6.93154 0
    endloop
  endfacet
  facet normal 0 0 -1
    outer loop
      vertex -0.996604 6.93154 0
      vertex -1.04558 9.94802 0
      vertex 1.04558 9.94802 0
    endloop
  endfacet
  facet normal 0 0 -1
    outer loop
      vertex -3.09104 9.51324 0
      vertex -0.996604 6.93154 0
      vertex -2.90907 6.36999 0
    endloop
  endfacet
  facet normal 0 0 -1
    outer loop
      vertex -0.996604 6.93154 0
      vertex -3.09104 9.51324 0
      vertex -1.04558 9.94802 0
    endloop
  endfacet
  facet normal 0 0 -1
    outer loop
      vertex -5.00141 8.66269 0
      vertex -2.90907 6.36999 0
      vertex -4.58587 5.29238 0
    endloop
  endfacet
  facet normal 0 0 -1
    outer loop
      vertex -2.90907 6.36999 0
      vertex -5.00141 8.66269 0
      vertex -3.09104 9.51324 0
    endloop
  endfacet
  facet normal 0 0 -1
    outer loop
      vertex -8.09245 5.87951 0
      vertex -4.58587 5.29238 0
      vertex -5.89114 3.78601 0
    endloop
  endfacet
  facet normal 0 0 -1
    outer loop
      vertex -4.58587 5.29238 0
      vertex -6.69319 7.43354 0
      vertex -5.00141 8.66269 0
    endloop
  endfacet
  facet normal 0 0 -1
    outer loop
      vertex -9.13803 4.06851 0
      vertex -5.89114 3.78601 0
      vertex -6.71915 1.97292 0
    endloop
  endfacet
  facet normal 0 0 -1
    outer loop
      vertex -9.78423 2.0797 0
      vertex -6.71915 1.97292 0
      vertex -7.00282 0 0
    endloop
  endfacet
  facet normal 0 0 -1
    outer loop
      vertex -9.78423 -2.0797 0
      vertex -6.71915 -1.97292 0
      vertex -9.13803 -4.06851 0
    endloop
  endfacet
  facet normal 0 0 -1
    outer loop
      vertex -4.58587 5.29238 0
      vertex -8.09245 5.87951 0
      vertex -6.69319 7.43354 0
    endloop
  endfacet
  facet normal -0 0 -1
    outer loop
      vertex -6.71915 -1.97292 0
      vertex -9.78423 -2.0797 0
      vertex -7.00282 0 0
    endloop
  endfacet
  facet normal 0 0 -1
    outer loop
      vertex -5.89114 3.78601 0
      vertex -9.13803 4.06851 0
      vertex -8.09245 5.87951 0
    endloop
  endfacet
  facet normal 0 0 -1
    outer loop
      vertex -10.0028 0 0
      vertex -7.00282 0 0
      vertex -9.78423 -2.0797 0
    endloop
  endfacet
  facet normal 0 0 -1
    outer loop
      vertex -6.71915 1.97292 0
      vertex -9.78423 2.0797 0
      vertex -9.13803 4.06851 0
    endloop
  endfacet
  facet normal 0 0 -1
    outer loop
      vertex -7.00282 0 0
      vertex -10.0028 0 0
      vertex -9.78423 2.0797 0
    endloop
  endfacet
  facet normal -0.951057 -0.309017 0
    outer loop
      vertex -9.13803 -4.06851 0
      vertex -9.78423 -2.0797 4
      vertex -9.78423 -2.0797 0
    endloop
  endfacet
  facet normal -0.951057 -0.309017 0
    outer loop
      vertex -9.78423 -2.0797 4
      vertex -9.13803 -4.06851 0
      vertex -9.13803 -4.06851 4
    endloop
  endfacet
  facet normal -0.994522 0.104529 0
    outer loop
      vertex -10.0028 0 0
      vertex -9.78423 2.0797 4
      vertex -9.78423 2.0797 0
    endloop
  endfacet
  facet normal -0.994522 0.104529 0
    outer loop
      vertex -9.78423 2.0797 4
      vertex -10.0028 0 0
      vertex -10.0028 0 4
    endloop
  endfacet
  facet normal 0.980785 0.19509 0
    outer loop
      vertex 25.007 0 2.4
      vertex 24.6263 1.91396 0
      vertex 24.6263 1.91396 2.4
    endloop
  endfacet
  facet normal 0.980785 0.19509 0
    outer loop
      vertex 24.6263 1.91396 0
      vertex 25.007 0 2.4
      vertex 25.007 0 0
    endloop
  endfacet
  facet normal -0.994522 -0.104529 0
    outer loop
      vertex -9.78423 -2.0797 0
      vertex -10.0028 0 4
      vertex -10.0028 0 0
    endloop
  endfacet
  facet normal -0.994522 -0.104529 0
    outer loop
      vertex -10.0028 0 4
      vertex -9.78423 -2.0797 0
      vertex -9.78423 -2.0797 4
    endloop
  endfacet
  facet normal 0 -1 0
    outer loop
      vertex -1.04558 -9.94802 0
      vertex 1.04558 -9.94802 4
      vertex -1.04558 -9.94802 4
    endloop
  endfacet
  facet normal 0 -1 -0
    outer loop
      vertex 1.04558 -9.94802 4
      vertex -1.04558 -9.94802 0
      vertex 1.04558 -9.94802 0
    endloop
  endfacet
  facet normal 0 1 -0
    outer loop
      vertex 1.04558 9.94802 0
      vertex -1.04558 9.94802 4
      vertex 1.04558 9.94802 4
    endloop
  endfacet
  facet normal 0 1 0
    outer loop
      vertex -1.04558 9.94802 4
      vertex 1.04558 9.94802 0
      vertex -1.04558 9.94802 0
    endloop
  endfacet
  facet normal -0.587786 -0.809017 0
    outer loop
      vertex -6.69319 -7.43354 0
      vertex -5.00141 -8.66269 4
      vertex -6.69319 -7.43354 4
    endloop
  endfacet
  facet normal -0.587786 -0.809017 -0
    outer loop
      vertex -5.00141 -8.66269 4
      vertex -6.69319 -7.43354 0
      vertex -5.00141 -8.66269 0
    endloop
  endfacet
  facet normal -0.743145 0.669131 0
    outer loop
      vertex -8.09245 5.87951 0
      vertex -6.69319 7.43354 4
      vertex -6.69319 7.43354 0
    endloop
  endfacet
  facet normal -0.743145 0.669131 0
    outer loop
      vertex -6.69319 7.43354 4
      vertex -8.09245 5.87951 0
      vertex -8.09245 5.87951 4
    endloop
  endfacet
  facet normal 0.55557 0.83147 -0
    outer loop
      vertex 23.5422 3.53653 0
      vertex 21.9196 4.6207 2.4
      vertex 23.5422 3.53653 2.4
    endloop
  endfacet
  facet normal 0.55557 0.83147 0
    outer loop
      vertex 21.9196 4.6207 2.4
      vertex 23.5422 3.53653 0
      vertex 21.9196 4.6207 0
    endloop
  endfacet
  facet normal 0.83147 0.55557 0
    outer loop
      vertex 24.6263 1.91396 2.4
      vertex 23.5422 3.53653 0
      vertex 23.5422 3.53653 2.4
    endloop
  endfacet
  facet normal 0.83147 0.55557 0
    outer loop
      vertex 23.5422 3.53653 0
      vertex 24.6263 1.91396 2.4
      vertex 24.6263 1.91396 0
    endloop
  endfacet
  facet normal 0.251495 0.967859 -0
    outer loop
      vertex 21.9196 4.6207 0
      vertex 3.09104 9.51324 2.4
      vertex 21.9196 4.6207 2.4
    endloop
  endfacet
  facet normal 0.251495 0.967859 0
    outer loop
      vertex 3.09104 9.51324 2.4
      vertex 21.9196 4.6207 0
      vertex 3.09104 9.51324 0
    endloop
  endfacet
  facet normal -0.866025 0.5 0
    outer loop
      vertex -9.13803 4.06851 0
      vertex -8.09245 5.87951 4
      vertex -8.09245 5.87951 0
    endloop
  endfacet
  facet normal -0.866025 0.5 0
    outer loop
      vertex -8.09245 5.87951 4
      vertex -9.13803 4.06851 0
      vertex -9.13803 4.06851 4
    endloop
  endfacet
  facet normal 0.207912 -0.978148 0
    outer loop
      vertex 1.04558 -9.94802 4
      vertex 3.09104 -9.51324 2.4
      vertex 3.09104 -9.51324 4
    endloop
  endfacet
  facet normal 0.207912 -0.978148 0
    outer loop
      vertex 1.04558 -9.94802 0
      vertex 3.09104 -9.51324 2.4
      vertex 1.04558 -9.94802 4
    endloop
  endfacet
  facet normal 0.207912 -0.978148 0
    outer loop
      vertex 3.09104 -9.51324 2.4
      vertex 1.04558 -9.94802 0
      vertex 3.09104 -9.51324 0
    endloop
  endfacet
  facet normal -0.866025 -0.5 0
    outer loop
      vertex -8.09245 -5.87951 0
      vertex -9.13803 -4.06851 4
      vertex -9.13803 -4.06851 0
    endloop
  endfacet
  facet normal -0.866025 -0.5 0
    outer loop
      vertex -9.13803 -4.06851 4
      vertex -8.09245 -5.87951 0
      vertex -8.09245 -5.87951 4
    endloop
  endfacet
  facet normal 0.207912 0.978148 -0
    outer loop
      vertex 3.09104 9.51324 2.4
      vertex 1.04558 9.94802 4
      vertex 3.09104 9.51324 4
    endloop
  endfacet
  facet normal 0.207912 0.978148 0
    outer loop
      vertex 1.04558 9.94802 0
      vertex 3.09104 9.51324 2.4
      vertex 3.09104 9.51324 0
    endloop
  endfacet
  facet normal 0.207912 0.978148 0
    outer loop
      vertex 3.09104 9.51324 2.4
      vertex 1.04558 9.94802 0
      vertex 1.04558 9.94802 4
    endloop
  endfacet
  facet normal -0.406736 0.913546 0
    outer loop
      vertex -3.09104 9.51324 0
      vertex -5.00141 8.66269 4
      vertex -3.09104 9.51324 4
    endloop
  endfacet
  facet normal -0.406736 0.913546 0
    outer loop
      vertex -5.00141 8.66269 4
      vertex -3.09104 9.51324 0
      vertex -5.00141 8.66269 0
    endloop
  endfacet
  facet normal -0.207912 0.978148 0
    outer loop
      vertex -1.04558 9.94802 0
      vertex -3.09104 9.51324 4
      vertex -1.04558 9.94802 4
    endloop
  endfacet
  facet normal -0.207912 0.978148 0
    outer loop
      vertex -3.09104 9.51324 4
      vertex -1.04558 9.94802 0
      vertex -3.09104 9.51324 0
    endloop
  endfacet
  facet normal -0.587786 0.809017 0
    outer loop
      vertex -5.00141 8.66269 0
      vertex -6.69319 7.43354 4
      vertex -5.00141 8.66269 4
    endloop
  endfacet
  facet normal -0.587786 0.809017 0
    outer loop
      vertex -6.69319 7.43354 4
      vertex -5.00141 8.66269 0
      vertex -6.69319 7.43354 0
    endloop
  endfacet
  facet normal -0.951057 0.309017 0
    outer loop
      vertex -9.78423 2.0797 0
      vertex -9.13803 4.06851 4
      vertex -9.13803 4.06851 0
    endloop
  endfacet
  facet normal -0.951057 0.309017 0
    outer loop
      vertex -9.13803 4.06851 4
      vertex -9.78423 2.0797 0
      vertex -9.78423 2.0797 4
    endloop
  endfacet
  facet normal 0 0 1
    outer loop
      vertex 15.8207 0.373992 2.4
      vertex 14.7327 -0.255096 2.4
      vertex 15.8207 -0.255096 2.4
    endloop
  endfacet
  facet normal -0 0 1
    outer loop
      vertex 14.4887 0.373992 2.4
      vertex 14.7327 -0.255096 2.4
      vertex 15.8207 0.373992 2.4
    endloop
  endfacet
  facet normal 0 0 1
    outer loop
      vertex 10.8927 -1.1201 2.4
      vertex 14.7327 -0.255096 2.4
      vertex 14.4887 0.373992 2.4
    endloop
  endfacet
  facet normal 0 0 1
    outer loop
      vertex 10.8927 -1.1201 2.4
      vertex 14.4887 0.373992 2.4
      vertex 10.8927 2.80299 2.4
    endloop
  endfacet
  facet normal 0 0 1
    outer loop
      vertex 14.7327 -0.255096 2.4
      vertex 10.8927 -1.1201 2.4
      vertex 14.7327 -1.1201 2.4
    endloop
  endfacet
  facet normal 0 0 1
    outer loop
      vertex 17.5786 1.76336 2.4
      vertex 15.8207 0.373992 2.4
      vertex 17.0056 0 2.4
    endloop
  endfacet
  facet normal 0 0 1
    outer loop
      vertex 15.8207 -0.255096 2.4
      vertex 17.0056 0 2.4
      vertex 15.8207 0.373992 2.4
    endloop
  endfacet
  facet normal 0 0 1
    outer loop
      vertex 17.0056 0 2.4
      vertex 15.8207 -0.255096 2.4
      vertex 16.9727 -1.1201 2.4
    endloop
  endfacet
  facet normal 0 0 1
    outer loop
      vertex 16.9727 -1.1201 2.4
      vertex 15.8207 -0.255096 2.4
      vertex 15.8207 -1.1201 2.4
    endloop
  endfacet
  facet normal 0 0 1
    outer loop
      vertex 23.0056 0 2.4
      vertex 25.007 0 2.4
      vertex 24.6263 1.91396 2.4
    endloop
  endfacet
  facet normal 0 0 1
    outer loop
      vertex 22.4327 1.76336 2.4
      vertex 24.6263 1.91396 2.4
      vertex 23.5422 3.53653 2.4
    endloop
  endfacet
  facet normal 0 0 1
    outer loop
      vertex 25.007 0 2.4
      vertex 23.0056 0 2.4
      vertex 24.6263 -1.91396 2.4
    endloop
  endfacet
  facet normal -0 0 1
    outer loop
      vertex 22.4327 -1.76336 2.4
      vertex 24.6263 -1.91396 2.4
      vertex 23.0056 0 2.4
    endloop
  endfacet
  facet normal 0 0 1
    outer loop
      vertex 24.6263 1.91396 2.4
      vertex 22.4327 1.76336 2.4
      vertex 23.0056 0 2.4
    endloop
  endfacet
  facet normal 0 0 1
    outer loop
      vertex 20.9327 2.85317 2.4
      vertex 23.5422 3.53653 2.4
      vertex 21.9196 4.6207 2.4
    endloop
  endfacet
  facet normal 0 0 1
    outer loop
      vertex 23.5422 3.53653 2.4
      vertex 20.9327 2.85317 2.4
      vertex 22.4327 1.76336 2.4
    endloop
  endfacet
  facet normal 0 0 1
    outer loop
      vertex 21.9196 4.6207 2.4
      vertex 19.0786 2.85317 2.4
      vertex 20.9327 2.85317 2.4
    endloop
  endfacet
  facet normal 0 0 1
    outer loop
      vertex 19.0786 2.85317 2.4
      vertex 16.9727 3.06299 2.4
      vertex 17.5786 1.76336 2.4
    endloop
  endfacet
  facet normal -0 0 1
    outer loop
      vertex 16.9727 3.06299 2.4
      vertex 19.0786 2.85317 2.4
      vertex 16.9727 4.54199 2.4
    endloop
  endfacet
  facet normal 0 0 1
    outer loop
      vertex 21.9196 4.6207 2.4
      vertex 16.9727 4.54199 2.4
      vertex 19.0786 2.85317 2.4
    endloop
  endfacet
  facet normal 0 0 1
    outer loop
      vertex 21.9196 4.6207 2.4
      vertex 15.8207 5.407 2.4
      vertex 16.9727 4.54199 2.4
    endloop
  endfacet
  facet normal 0 0 1
    outer loop
      vertex 14.7327 5.407 2.4
      vertex 10.8927 4.54199 2.4
      vertex 14.7327 4.54199 2.4
    endloop
  endfacet
  facet normal -0 0 1
    outer loop
      vertex 9.13803 4.06851 2.4
      vertex 10.8927 2.80299 2.4
      vertex 10.8927 4.54199 2.4
    endloop
  endfacet
  facet normal 0 -0 1
    outer loop
      vertex 10.0028 0 2.4
      vertex 10.8927 2.80299 2.4
      vertex 9.78423 2.0797 2.4
    endloop
  endfacet
  facet normal 0 0 1
    outer loop
      vertex 9.78423 -2.0797 2.4
      vertex 10.8927 -1.1201 2.4
      vertex 10.0028 0 2.4
    endloop
  endfacet
  facet normal 0 0 1
    outer loop
      vertex 10.8927 2.80299 2.4
      vertex 10.0028 0 2.4
      vertex 10.8927 -1.1201 2.4
    endloop
  endfacet
  facet normal 0 0 1
    outer loop
      vertex 10.8927 2.80299 2.4
      vertex 9.13803 4.06851 2.4
      vertex 9.78423 2.0797 2.4
    endloop
  endfacet
  facet normal 0 0 1
    outer loop
      vertex 10.8927 4.54199 2.4
      vertex 8.09245 5.87951 2.4
      vertex 9.13803 4.06851 2.4
    endloop
  endfacet
  facet normal 0 0 1
    outer loop
      vertex 14.7327 5.407 2.4
      vertex 8.09245 5.87951 2.4
      vertex 10.8927 4.54199 2.4
    endloop
  endfacet
  facet normal 0 0 1
    outer loop
      vertex 5.00141 8.66269 2.4
      vertex 14.7327 5.407 2.4
      vertex 15.8207 5.407 2.4
    endloop
  endfacet
  facet normal 0 0 1
    outer loop
      vertex 14.7327 5.407 2.4
      vertex 6.69319 7.43354 2.4
      vertex 8.09245 5.87951 2.4
    endloop
  endfacet
  facet normal 0 0 1
    outer loop
      vertex 5.00141 8.66269 2.4
      vertex 15.8207 5.407 2.4
      vertex 21.9196 4.6207 2.4
    endloop
  endfacet
  facet normal 0 0 1
    outer loop
      vertex 14.7327 5.407 2.4
      vertex 5.00141 8.66269 2.4
      vertex 6.69319 7.43354 2.4
    endloop
  endfacet
  facet normal -0 -0 1
    outer loop
      vertex 5.00141 8.66269 2.4
      vertex 21.9196 4.6207 2.4
      vertex 3.09104 9.51324 2.4
    endloop
  endfacet
  facet normal 0 0 1
    outer loop
      vertex 24.6263 -1.91396 2.4
      vertex 22.4327 -1.76336 2.4
      vertex 23.5422 -3.53653 2.4
    endloop
  endfacet
  facet normal -0 0 1
    outer loop
      vertex 20.9327 -2.85317 2.4
      vertex 23.5422 -3.53653 2.4
      vertex 22.4327 -1.76336 2.4
    endloop
  endfacet
  facet normal 0 0 1
    outer loop
      vertex 23.5422 -3.53653 2.4
      vertex 20.9327 -2.85317 2.4
      vertex 21.9196 -4.6207 2.4
    endloop
  endfacet
  facet normal -0 0 1
    outer loop
      vertex 19.0786 -2.85317 2.4
      vertex 21.9196 -4.6207 2.4
      vertex 20.9327 -2.85317 2.4
    endloop
  endfacet
  facet normal -0 0 1
    outer loop
      vertex 15.8207 3.06299 2.4
      vertex 17.5786 1.76336 2.4
      vertex 16.9727 3.06299 2.4
    endloop
  endfacet
  facet normal 0 0 1
    outer loop
      vertex 15.8207 0.373992 2.4
      vertex 17.5786 1.76336 2.4
      vertex 15.8207 3.06299 2.4
    endloop
  endfacet
  facet normal -0 0 1
    outer loop
      vertex 16.9727 -1.1201 2.4
      vertex 17.5786 -1.76336 2.4
      vertex 17.0056 0 2.4
    endloop
  endfacet
  facet normal 0 0 1
    outer loop
      vertex 16.9727 -2.59911 2.4
      vertex 17.5786 -1.76336 2.4
      vertex 16.9727 -1.1201 2.4
    endloop
  endfacet
  facet normal -0 0 1
    outer loop
      vertex 16.9727 -2.59911 2.4
      vertex 19.0786 -2.85317 2.4
      vertex 17.5786 -1.76336 2.4
    endloop
  endfacet
  facet normal 0 0 1
    outer loop
      vertex 15.8207 -5.2881 2.4
      vertex 19.0786 -2.85317 2.4
      vertex 16.9727 -2.59911 2.4
    endloop
  endfacet
  facet normal 0 0 1
    outer loop
      vertex 15.8207 -5.2881 2.4
      vertex 16.9727 -2.59911 2.4
      vertex 15.8207 -2.59911 2.4
    endloop
  endfacet
  facet normal 0 0 1
    outer loop
      vertex 19.0786 -2.85317 2.4
      vertex 15.8207 -5.2881 2.4
      vertex 21.9196 -4.6207 2.4
    endloop
  endfacet
  facet normal 0 0 1
    outer loop
      vertex 10.8927 -1.1201 2.4
      vertex 9.78423 -2.0797 2.4
      vertex 10.8927 -2.8591 2.4
    endloop
  endfacet
  facet normal 0 0 1
    outer loop
      vertex 9.13803 -4.06851 2.4
      vertex 10.8927 -2.8591 2.4
      vertex 9.78423 -2.0797 2.4
    endloop
  endfacet
  facet normal -0 0 1
    outer loop
      vertex 9.13803 -4.06851 2.4
      vertex 14.4887 -5.2881 2.4
      vertex 10.8927 -2.8591 2.4
    endloop
  endfacet
  facet normal 0 0 1
    outer loop
      vertex 8.09245 -5.87951 2.4
      vertex 14.4887 -5.2881 2.4
      vertex 9.13803 -4.06851 2.4
    endloop
  endfacet
  facet normal 0 0 1
    outer loop
      vertex 6.69319 -7.43354 2.4
      vertex 14.4887 -5.2881 2.4
      vertex 8.09245 -5.87951 2.4
    endloop
  endfacet
  facet normal 0 0 1
    outer loop
      vertex 5.00141 -8.66269 2.4
      vertex 14.4887 -5.2881 2.4
      vertex 6.69319 -7.43354 2.4
    endloop
  endfacet
  facet normal -0 0 1
    outer loop
      vertex 14.4887 -5.2881 2.4
      vertex 5.00141 -8.66269 2.4
      vertex 15.8207 -5.2881 2.4
    endloop
  endfacet
  facet normal -0 0 1
    outer loop
      vertex 15.8207 -5.2881 2.4
      vertex 5.00141 -8.66269 2.4
      vertex 21.9196 -4.6207 2.4
    endloop
  endfacet
  facet normal 0 0 1
    outer loop
      vertex 21.9196 -4.6207 2.4
      vertex 5.00141 -8.66269 2.4
      vertex 3.09104 -9.51324 2.4
    endloop
  endfacet
  facet normal 0 0 1
    outer loop
      vertex 16.9727 4.54199 2.4
      vertex 15.8207 5.407 2.4
      vertex 15.8207 4.54199 2.4
    endloop
  endfacet
  facet normal 0 0 1
    outer loop
      vertex 14.7327 -2.59911 2.4
      vertex 12.1847 -2.5991 2.4
      vertex 14.7327 -4.3131 2.4
    endloop
  endfacet
  facet normal 0 0 1
    outer loop
      vertex 14.7327 3.06299 2.4
      vertex 12.1847 3.06299 2.4
      vertex 14.7327 1.349 2.4
    endloop
  endfacet
  facet normal 0.251495 -0.967859 0
    outer loop
      vertex 3.09104 -9.51324 0
      vertex 21.9196 -4.6207 2.4
      vertex 3.09104 -9.51324 2.4
    endloop
  endfacet
  facet normal 0.251495 -0.967859 0
    outer loop
      vertex 21.9196 -4.6207 2.4
      vertex 3.09104 -9.51324 0
      vertex 21.9196 -4.6207 0
    endloop
  endfacet
  facet normal 0.55557 -0.83147 0
    outer loop
      vertex 21.9196 -4.6207 0
      vertex 23.5422 -3.53653 2.4
      vertex 21.9196 -4.6207 2.4
    endloop
  endfacet
  facet normal 0.55557 -0.83147 0
    outer loop
      vertex 23.5422 -3.53653 2.4
      vertex 21.9196 -4.6207 0
      vertex 23.5422 -3.53653 0
    endloop
  endfacet
  facet normal 0.980785 -0.19509 0
    outer loop
      vertex 24.6263 -1.91396 2.4
      vertex 25.007 0 0
      vertex 25.007 0 2.4
    endloop
  endfacet
  facet normal 0.980785 -0.19509 0
    outer loop
      vertex 25.007 0 0
      vertex 24.6263 -1.91396 2.4
      vertex 24.6263 -1.91396 0
    endloop
  endfacet
  facet normal -0.406736 -0.913546 0
    outer loop
      vertex -5.00141 -8.66269 0
      vertex -3.09104 -9.51324 4
      vertex -5.00141 -8.66269 4
    endloop
  endfacet
  facet normal -0.406736 -0.913546 -0
    outer loop
      vertex -3.09104 -9.51324 4
      vertex -5.00141 -8.66269 0
      vertex -3.09104 -9.51324 0
    endloop
  endfacet
  facet normal -0.743145 -0.669131 0
    outer loop
      vertex -6.69319 -7.43354 0
      vertex -8.09245 -5.87951 4
      vertex -8.09245 -5.87951 0
    endloop
  endfacet
  facet normal -0.743145 -0.669131 0
    outer loop
      vertex -8.09245 -5.87951 4
      vertex -6.69319 -7.43354 0
      vertex -6.69319 -7.43354 4
    endloop
  endfacet
  facet normal 0.83147 -0.55557 0
    outer loop
      vertex 23.5422 -3.53653 2.4
      vertex 24.6263 -1.91396 0
      vertex 24.6263 -1.91396 2.4
    endloop
  endfacet
  facet normal 0.83147 -0.55557 0
    outer loop
      vertex 24.6263 -1.91396 0
      vertex 23.5422 -3.53653 2.4
      vertex 23.5422 -3.53653 0
    endloop
  endfacet
  facet normal -0.207912 -0.978148 0
    outer loop
      vertex -3.09104 -9.51324 0
      vertex -1.04558 -9.94802 4
      vertex -3.09104 -9.51324 4
    endloop
  endfacet
  facet normal -0.207912 -0.978148 -0
    outer loop
      vertex -1.04558 -9.94802 4
      vertex -3.09104 -9.51324 0
      vertex -1.04558 -9.94802 0
    endloop
  endfacet
  facet normal 0.951057 0.309017 0
    outer loop
      vertex 9.78423 2.0797 4
      vertex 9.13803 4.06851 2.4
      vertex 9.13803 4.06851 4
    endloop
  endfacet
  facet normal 0.951057 0.309017 0
    outer loop
      vertex 9.13803 4.06851 2.4
      vertex 9.78423 2.0797 4
      vertex 9.78423 2.0797 2.4
    endloop
  endfacet
  facet normal 0.994522 0.104529 0
    outer loop
      vertex 10.0028 0 4
      vertex 9.78423 2.0797 2.4
      vertex 9.78423 2.0797 4
    endloop
  endfacet
  facet normal 0.994522 0.104529 0
    outer loop
      vertex 9.78423 2.0797 2.4
      vertex 10.0028 0 4
      vertex 10.0028 0 2.4
    endloop
  endfacet
  facet normal 0.587786 0.809017 -0
    outer loop
      vertex 6.69319 7.43354 2.4
      vertex 5.00141 8.66269 4
      vertex 6.69319 7.43354 4
    endloop
  endfacet
  facet normal 0.587786 0.809017 0
    outer loop
      vertex 5.00141 8.66269 4
      vertex 6.69319 7.43354 2.4
      vertex 5.00141 8.66269 2.4
    endloop
  endfacet
  facet normal 0.743145 -0.669131 0
    outer loop
      vertex 6.69319 -7.43354 4
      vertex 8.09245 -5.87951 2.4
      vertex 8.09245 -5.87951 4
    endloop
  endfacet
  facet normal 0.743145 -0.669131 0
    outer loop
      vertex 8.09245 -5.87951 2.4
      vertex 6.69319 -7.43354 4
      vertex 6.69319 -7.43354 2.4
    endloop
  endfacet
  facet normal 0.866025 -0.5 0
    outer loop
      vertex 8.09245 -5.87951 4
      vertex 9.13803 -4.06851 2.4
      vertex 9.13803 -4.06851 4
    endloop
  endfacet
  facet normal 0.866025 -0.5 0
    outer loop
      vertex 9.13803 -4.06851 2.4
      vertex 8.09245 -5.87951 4
      vertex 8.09245 -5.87951 2.4
    endloop
  endfacet
  facet normal 0.866025 0.5 0
    outer loop
      vertex 9.13803 4.06851 4
      vertex 8.09245 5.87951 2.4
      vertex 8.09245 5.87951 4
    endloop
  endfacet
  facet normal 0.866025 0.5 0
    outer loop
      vertex 8.09245 5.87951 2.4
      vertex 9.13803 4.06851 4
      vertex 9.13803 4.06851 2.4
    endloop
  endfacet
  facet normal 0.587786 -0.809017 0
    outer loop
      vertex 5.00141 -8.66269 2.4
      vertex 6.69319 -7.43354 4
      vertex 5.00141 -8.66269 4
    endloop
  endfacet
  facet normal 0.587786 -0.809017 0
    outer loop
      vertex 6.69319 -7.43354 4
      vertex 5.00141 -8.66269 2.4
      vertex 6.69319 -7.43354 2.4
    endloop
  endfacet
  facet normal 0.951057 -0.309017 0
    outer loop
      vertex 9.13803 -4.06851 4
      vertex 9.78423 -2.0797 2.4
      vertex 9.78423 -2.0797 4
    endloop
  endfacet
  facet normal 0.951057 -0.309017 0
    outer loop
      vertex 9.78423 -2.0797 2.4
      vertex 9.13803 -4.06851 4
      vertex 9.13803 -4.06851 2.4
    endloop
  endfacet
  facet normal 0 0 1
    outer loop
      vertex 7.00282 0 4
      vertex 10.0028 0 4
      vertex 9.78423 2.0797 4
    endloop
  endfacet
  facet normal 0 0 1
    outer loop
      vertex 6.71915 1.97292 4
      vertex 9.78423 2.0797 4
      vertex 9.13803 4.06851 4
    endloop
  endfacet
  facet normal 0 0 1
    outer loop
      vertex 10.0028 0 4
      vertex 7.00282 0 4
      vertex 9.78423 -2.0797 4
    endloop
  endfacet
  facet normal 0 0 1
    outer loop
      vertex 5.89114 3.78601 4
      vertex 9.13803 4.06851 4
      vertex 8.09245 5.87951 4
    endloop
  endfacet
  facet normal -0 0 1
    outer loop
      vertex 6.71915 -1.97292 4
      vertex 9.78423 -2.0797 4
      vertex 7.00282 0 4
    endloop
  endfacet
  facet normal 0 0 1
    outer loop
      vertex 9.78423 -2.0797 4
      vertex 6.71915 -1.97292 4
      vertex 9.13803 -4.06851 4
    endloop
  endfacet
  facet normal 0 0 1
    outer loop
      vertex 9.78423 2.0797 4
      vertex 6.71915 1.97292 4
      vertex 7.00282 0 4
    endloop
  endfacet
  facet normal 0 0 1
    outer loop
      vertex 4.58587 5.29238 4
      vertex 8.09245 5.87951 4
      vertex 6.69319 7.43354 4
    endloop
  endfacet
  facet normal 0 0 1
    outer loop
      vertex 9.13803 4.06851 4
      vertex 5.89114 3.78601 4
      vertex 6.71915 1.97292 4
    endloop
  endfacet
  facet normal 0 0 1
    outer loop
      vertex 4.58587 5.29238 4
      vertex 6.69319 7.43354 4
      vertex 5.00141 8.66269 4
    endloop
  endfacet
  facet normal 0 0 1
    outer loop
      vertex 8.09245 5.87951 4
      vertex 4.58587 5.29238 4
      vertex 5.89114 3.78601 4
    endloop
  endfacet
  facet normal 0 0 1
    outer loop
      vertex 2.90907 6.36999 4
      vertex 5.00141 8.66269 4
      vertex 3.09104 9.51324 4
    endloop
  endfacet
  facet normal 0 0 1
    outer loop
      vertex 5.00141 8.66269 4
      vertex 2.90907 6.36999 4
      vertex 4.58587 5.29238 4
    endloop
  endfacet
  facet normal 0 0 1
    outer loop
      vertex 0.996604 6.93154 4
      vertex 3.09104 9.51324 4
      vertex 1.04558 9.94802 4
    endloop
  endfacet
  facet normal 0 0 1
    outer loop
      vertex 3.09104 9.51324 4
      vertex 0.996604 6.93154 4
      vertex 2.90907 6.36999 4
    endloop
  endfacet
  facet normal 0 0 1
    outer loop
      vertex 1.04558 9.94802 4
      vertex -0.996604 6.93154 4
      vertex 0.996604 6.93154 4
    endloop
  endfacet
  facet normal -0 0 1
    outer loop
      vertex -1.04558 9.94802 4
      vertex -0.996604 6.93154 4
      vertex 1.04558 9.94802 4
    endloop
  endfacet
  facet normal -0 0 1
    outer loop
      vertex -3.09104 9.51324 4
      vertex -0.996604 6.93154 4
      vertex -1.04558 9.94802 4
    endloop
  endfacet
  facet normal 0 0 1
    outer loop
      vertex -0.996604 6.93154 4
      vertex -3.09104 9.51324 4
      vertex -2.90907 6.36999 4
    endloop
  endfacet
  facet normal -0 0 1
    outer loop
      vertex -5.00141 8.66269 4
      vertex -2.90907 6.36999 4
      vertex -3.09104 9.51324 4
    endloop
  endfacet
  facet normal 0 0 1
    outer loop
      vertex -2.90907 6.36999 4
      vertex -5.00141 8.66269 4
      vertex -4.58587 5.29238 4
    endloop
  endfacet
  facet normal -0 0 1
    outer loop
      vertex -6.69319 7.43354 4
      vertex -4.58587 5.29238 4
      vertex -5.00141 8.66269 4
    endloop
  endfacet
  facet normal -0 0 1
    outer loop
      vertex -8.09245 5.87951 4
      vertex -4.58587 5.29238 4
      vertex -6.69319 7.43354 4
    endloop
  endfacet
  facet normal 0 0 1
    outer loop
      vertex -4.58587 5.29238 4
      vertex -8.09245 5.87951 4
      vertex -5.89114 3.78601 4
    endloop
  endfacet
  facet normal -0 0 1
    outer loop
      vertex -9.13803 4.06851 4
      vertex -5.89114 3.78601 4
      vertex -8.09245 5.87951 4
    endloop
  endfacet
  facet normal 0 0 1
    outer loop
      vertex -5.89114 3.78601 4
      vertex -9.13803 4.06851 4
      vertex -6.71915 1.97292 4
    endloop
  endfacet
  facet normal -0 0 1
    outer loop
      vertex 5.89114 -3.78601 4
      vertex 9.13803 -4.06851 4
      vertex 6.71915 -1.97292 4
    endloop
  endfacet
  facet normal 0 0 1
    outer loop
      vertex 9.13803 -4.06851 4
      vertex 5.89114 -3.78601 4
      vertex 8.09245 -5.87951 4
    endloop
  endfacet
  facet normal -0 0 1
    outer loop
      vertex 4.58587 -5.29238 4
      vertex 8.09245 -5.87951 4
      vertex 5.89114 -3.78601 4
    endloop
  endfacet
  facet normal 0 0 1
    outer loop
      vertex 8.09245 -5.87951 4
      vertex 4.58587 -5.29238 4
      vertex 6.69319 -7.43354 4
    endloop
  endfacet
  facet normal 0 0 1
    outer loop
      vertex 6.69319 -7.43354 4
      vertex 4.58587 -5.29238 4
      vertex 5.00141 -8.66269 4
    endloop
  endfacet
  facet normal -0 0 1
    outer loop
      vertex 2.90907 -6.36999 4
      vertex 5.00141 -8.66269 4
      vertex 4.58587 -5.29238 4
    endloop
  endfacet
  facet normal 0 0 1
    outer loop
      vertex 5.00141 -8.66269 4
      vertex 2.90907 -6.36999 4
      vertex 3.09104 -9.51324 4
    endloop
  endfacet
  facet normal -0 0 1
    outer loop
      vertex 0.996604 -6.93154 4
      vertex 3.09104 -9.51324 4
      vertex 2.90907 -6.36999 4
    endloop
  endfacet
  facet normal 0 0 1
    outer loop
      vertex 3.09104 -9.51324 4
      vertex 0.996604 -6.93154 4
      vertex 1.04558 -9.94802 4
    endloop
  endfacet
  facet normal -0 0 1
    outer loop
      vertex -0.996604 -6.93154 4
      vertex 1.04558 -9.94802 4
      vertex 0.996604 -6.93154 4
    endloop
  endfacet
  facet normal 0 0 1
    outer loop
      vertex -0.996604 -6.93154 4
      vertex -1.04558 -9.94802 4
      vertex 1.04558 -9.94802 4
    endloop
  endfacet
  facet normal 0 0 1
    outer loop
      vertex -3.09104 -9.51324 4
      vertex -0.996604 -6.93154 4
      vertex -2.90907 -6.36999 4
    endloop
  endfacet
  facet normal 0 0 1
    outer loop
      vertex -0.996604 -6.93154 4
      vertex -3.09104 -9.51324 4
      vertex -1.04558 -9.94802 4
    endloop
  endfacet
  facet normal 0 0 1
    outer loop
      vertex -5.00141 -8.66269 4
      vertex -2.90907 -6.36999 4
      vertex -4.58587 -5.29238 4
    endloop
  endfacet
  facet normal 0 0 1
    outer loop
      vertex -2.90907 -6.36999 4
      vertex -5.00141 -8.66269 4
      vertex -3.09104 -9.51324 4
    endloop
  endfacet
  facet normal 0 0 1
    outer loop
      vertex -8.09245 -5.87951 4
      vertex -4.58587 -5.29238 4
      vertex -5.89114 -3.78601 4
    endloop
  endfacet
  facet normal 0 0 1
    outer loop
      vertex -4.58587 -5.29238 4
      vertex -6.69319 -7.43354 4
      vertex -5.00141 -8.66269 4
    endloop
  endfacet
  facet normal 0 0 1
    outer loop
      vertex -9.13803 -4.06851 4
      vertex -5.89114 -3.78601 4
      vertex -6.71915 -1.97292 4
    endloop
  endfacet
  facet normal 0 0 1
    outer loop
      vertex -9.78423 -2.0797 4
      vertex -6.71915 -1.97292 4
      vertex -7.00282 0 4
    endloop
  endfacet
  facet normal -0 0 1
    outer loop
      vertex -9.78423 2.0797 4
      vertex -6.71915 1.97292 4
      vertex -9.13803 4.06851 4
    endloop
  endfacet
  facet normal 0 0 1
    outer loop
      vertex -4.58587 -5.29238 4
      vertex -8.09245 -5.87951 4
      vertex -6.69319 -7.43354 4
    endloop
  endfacet
  facet normal 0 0 1
    outer loop
      vertex -6.71915 1.97292 4
      vertex -9.78423 2.0797 4
      vertex -7.00282 0 4
    endloop
  endfacet
  facet normal 0 0 1
    outer loop
      vertex -5.89114 -3.78601 4
      vertex -9.13803 -4.06851 4
      vertex -8.09245 -5.87951 4
    endloop
  endfacet
  facet normal 0 0 1
    outer loop
      vertex -10.0028 0 4
      vertex -7.00282 0 4
      vertex -9.78423 2.0797 4
    endloop
  endfacet
  facet normal 0 0 1
    outer loop
      vertex -6.71915 -1.97292 4
      vertex -9.78423 -2.0797 4
      vertex -9.13803 -4.06851 4
    endloop
  endfacet
  facet normal 0 0 1
    outer loop
      vertex -7.00282 0 4
      vertex -10.0028 0 4
      vertex -9.78423 -2.0797 4
    endloop
  endfacet
  facet normal 0.406736 0.913546 -0
    outer loop
      vertex 5.00141 8.66269 2.4
      vertex 3.09104 9.51324 4
      vertex 5.00141 8.66269 4
    endloop
  endfacet
  facet normal 0.406736 0.913546 0
    outer loop
      vertex 3.09104 9.51324 4
      vertex 5.00141 8.66269 2.4
      vertex 3.09104 9.51324 2.4
    endloop
  endfacet
  facet normal 0.406736 -0.913546 0
    outer loop
      vertex 3.09104 -9.51324 2.4
      vertex 5.00141 -8.66269 4
      vertex 3.09104 -9.51324 4
    endloop
  endfacet
  facet normal 0.406736 -0.913546 0
    outer loop
      vertex 5.00141 -8.66269 4
      vertex 3.09104 -9.51324 2.4
      vertex 5.00141 -8.66269 2.4
    endloop
  endfacet
  facet normal 0.994522 -0.104529 0
    outer loop
      vertex 9.78423 -2.0797 4
      vertex 10.0028 0 2.4
      vertex 10.0028 0 4
    endloop
  endfacet
  facet normal 0.994522 -0.104529 0
    outer loop
      vertex 10.0028 0 2.4
      vertex 9.78423 -2.0797 4
      vertex 9.78423 -2.0797 2.4
    endloop
  endfacet
  facet normal 0.743145 0.669131 0
    outer loop
      vertex 8.09245 5.87951 4
      vertex 6.69319 7.43354 2.4
      vertex 6.69319 7.43354 4
    endloop
  endfacet
  facet normal 0.743145 0.669131 0
    outer loop
      vertex 6.69319 7.43354 2.4
      vertex 8.09245 5.87951 4
      vertex 8.09245 5.87951 2.4
    endloop
  endfacet
  facet normal -0.989821 -0.142315 0
    outer loop
      vertex 7.00282 0 0
      vertex 6.71915 1.97292 4
      vertex 6.71915 1.97292 0
    endloop
  endfacet
  facet normal -0.989821 -0.142315 0
    outer loop
      vertex 6.71915 1.97292 4
      vertex 7.00282 0 0
      vertex 7.00282 0 4
    endloop
  endfacet
  facet normal 0.989821 -0.142315 0
    outer loop
      vertex -7.00282 0 4
      vertex -6.71915 1.97292 0
      vertex -6.71915 1.97292 4
    endloop
  endfacet
  facet normal 0.989821 -0.142315 0
    outer loop
      vertex -6.71915 1.97292 0
      vertex -7.00282 0 4
      vertex -7.00282 0 0
    endloop
  endfacet
  facet normal 0 -1 0
    outer loop
      vertex -0.996604 6.93154 0
      vertex 0.996604 6.93154 4
      vertex -0.996604 6.93154 4
    endloop
  endfacet
  facet normal 0 -1 -0
    outer loop
      vertex 0.996604 6.93154 4
      vertex -0.996604 6.93154 0
      vertex 0.996604 6.93154 0
    endloop
  endfacet
  facet normal -0.755749 -0.654861 0
    outer loop
      vertex 5.89114 3.78601 0
      vertex 4.58587 5.29238 4
      vertex 4.58587 5.29238 0
    endloop
  endfacet
  facet normal -0.755749 -0.654861 0
    outer loop
      vertex 4.58587 5.29238 4
      vertex 5.89114 3.78601 0
      vertex 5.89114 3.78601 4
    endloop
  endfacet
  facet normal -0.909632 -0.415415 0
    outer loop
      vertex 6.71915 1.97292 0
      vertex 5.89114 3.78601 4
      vertex 5.89114 3.78601 0
    endloop
  endfacet
  facet normal -0.909632 -0.415415 0
    outer loop
      vertex 5.89114 3.78601 4
      vertex 6.71915 1.97292 0
      vertex 6.71915 1.97292 4
    endloop
  endfacet
  facet normal 0.281733 -0.959493 0
    outer loop
      vertex -2.90907 6.36999 0
      vertex -0.996604 6.93154 4
      vertex -2.90907 6.36999 4
    endloop
  endfacet
  facet normal 0.281733 -0.959493 0
    outer loop
      vertex -0.996604 6.93154 4
      vertex -2.90907 6.36999 0
      vertex -0.996604 6.93154 0
    endloop
  endfacet
  facet normal 0.909632 -0.415415 0
    outer loop
      vertex -6.71915 1.97292 4
      vertex -5.89114 3.78601 0
      vertex -5.89114 3.78601 4
    endloop
  endfacet
  facet normal 0.909632 -0.415415 0
    outer loop
      vertex -5.89114 3.78601 0
      vertex -6.71915 1.97292 4
      vertex -6.71915 1.97292 0
    endloop
  endfacet
  facet normal -0.540641 -0.841253 0
    outer loop
      vertex 2.90907 6.36999 0
      vertex 4.58587 5.29238 4
      vertex 2.90907 6.36999 4
    endloop
  endfacet
  facet normal -0.540641 -0.841253 -0
    outer loop
      vertex 4.58587 5.29238 4
      vertex 2.90907 6.36999 0
      vertex 4.58587 5.29238 0
    endloop
  endfacet
  facet normal -0.281733 -0.959493 0
    outer loop
      vertex 0.996604 6.93154 0
      vertex 2.90907 6.36999 4
      vertex 0.996604 6.93154 4
    endloop
  endfacet
  facet normal -0.281733 -0.959493 -0
    outer loop
      vertex 2.90907 6.36999 4
      vertex 0.996604 6.93154 0
      vertex 2.90907 6.36999 0
    endloop
  endfacet
  facet normal 0.540641 -0.841253 0
    outer loop
      vertex -4.58587 5.29238 0
      vertex -2.90907 6.36999 4
      vertex -4.58587 5.29238 4
    endloop
  endfacet
  facet normal 0.540641 -0.841253 0
    outer loop
      vertex -2.90907 6.36999 4
      vertex -4.58587 5.29238 0
      vertex -2.90907 6.36999 0
    endloop
  endfacet
  facet normal 0.755749 -0.654861 0
    outer loop
      vertex -5.89114 3.78601 4
      vertex -4.58587 5.29238 0
      vertex -4.58587 5.29238 4
    endloop
  endfacet
  facet normal 0.755749 -0.654861 0
    outer loop
      vertex -4.58587 5.29238 0
      vertex -5.89114 3.78601 4
      vertex -5.89114 3.78601 0
    endloop
  endfacet
  facet normal -0.909632 0.415415 0
    outer loop
      vertex 5.89114 -3.78601 0
      vertex 6.71915 -1.97292 4
      vertex 6.71915 -1.97292 0
    endloop
  endfacet
  facet normal -0.909632 0.415415 0
    outer loop
      vertex 6.71915 -1.97292 4
      vertex 5.89114 -3.78601 0
      vertex 5.89114 -3.78601 4
    endloop
  endfacet
  facet normal 0.989821 0.142315 0
    outer loop
      vertex -6.71915 -1.97292 4
      vertex -7.00282 0 0
      vertex -7.00282 0 4
    endloop
  endfacet
  facet normal 0.989821 0.142315 0
    outer loop
      vertex -7.00282 0 0
      vertex -6.71915 -1.97292 4
      vertex -6.71915 -1.97292 0
    endloop
  endfacet
  facet normal -0.281733 0.959493 0
    outer loop
      vertex 2.90907 -6.36999 0
      vertex 0.996604 -6.93154 4
      vertex 2.90907 -6.36999 4
    endloop
  endfacet
  facet normal -0.281733 0.959493 0
    outer loop
      vertex 0.996604 -6.93154 4
      vertex 2.90907 -6.36999 0
      vertex 0.996604 -6.93154 0
    endloop
  endfacet
  facet normal -0.540641 0.841253 0
    outer loop
      vertex 4.58587 -5.29238 0
      vertex 2.90907 -6.36999 4
      vertex 4.58587 -5.29238 4
    endloop
  endfacet
  facet normal -0.540641 0.841253 0
    outer loop
      vertex 2.90907 -6.36999 4
      vertex 4.58587 -5.29238 0
      vertex 2.90907 -6.36999 0
    endloop
  endfacet
  facet normal -0.989821 0.142315 0
    outer loop
      vertex 6.71915 -1.97292 0
      vertex 7.00282 0 4
      vertex 7.00282 0 0
    endloop
  endfacet
  facet normal -0.989821 0.142315 0
    outer loop
      vertex 7.00282 0 4
      vertex 6.71915 -1.97292 0
      vertex 6.71915 -1.97292 4
    endloop
  endfacet
  facet normal 0.755749 0.654861 0
    outer loop
      vertex -4.58587 -5.29238 4
      vertex -5.89114 -3.78601 0
      vertex -5.89114 -3.78601 4
    endloop
  endfacet
  facet normal 0.755749 0.654861 0
    outer loop
      vertex -5.89114 -3.78601 0
      vertex -4.58587 -5.29238 4
      vertex -4.58587 -5.29238 0
    endloop
  endfacet
  facet normal 0.909632 0.415415 0
    outer loop
      vertex -5.89114 -3.78601 4
      vertex -6.71915 -1.97292 0
      vertex -6.71915 -1.97292 4
    endloop
  endfacet
  facet normal 0.909632 0.415415 0
    outer loop
      vertex -6.71915 -1.97292 0
      vertex -5.89114 -3.78601 4
      vertex -5.89114 -3.78601 0
    endloop
  endfacet
  facet normal 0 1 -0
    outer loop
      vertex 0.996604 -6.93154 0
      vertex -0.996604 -6.93154 4
      vertex 0.996604 -6.93154 4
    endloop
  endfacet
  facet normal 0 1 0
    outer loop
      vertex -0.996604 -6.93154 4
      vertex 0.996604 -6.93154 0
      vertex -0.996604 -6.93154 0
    endloop
  endfacet
  facet normal 0.281733 0.959493 -0
    outer loop
      vertex -0.996604 -6.93154 0
      vertex -2.90907 -6.36999 4
      vertex -0.996604 -6.93154 4
    endloop
  endfacet
  facet normal 0.281733 0.959493 0
    outer loop
      vertex -2.90907 -6.36999 4
      vertex -0.996604 -6.93154 0
      vertex -2.90907 -6.36999 0
    endloop
  endfacet
  facet normal -0.755749 0.654861 0
    outer loop
      vertex 4.58587 -5.29238 0
      vertex 5.89114 -3.78601 4
      vertex 5.89114 -3.78601 0
    endloop
  endfacet
  facet normal -0.755749 0.654861 0
    outer loop
      vertex 5.89114 -3.78601 4
      vertex 4.58587 -5.29238 0
      vertex 4.58587 -5.29238 4
    endloop
  endfacet
  facet normal 0.540641 0.841253 -0
    outer loop
      vertex -2.90907 -6.36999 0
      vertex -4.58587 -5.29238 4
      vertex -2.90907 -6.36999 4
    endloop
  endfacet
  facet normal 0.540641 0.841253 0
    outer loop
      vertex -4.58587 -5.29238 4
      vertex -2.90907 -6.36999 0
      vertex -4.58587 -5.29238 0
    endloop
  endfacet
  facet normal -0.951057 -0.309017 0
    outer loop
      vertex 23.0056 0 0
      vertex 22.4327 1.76336 2.4
      vertex 22.4327 1.76336 0
    endloop
  endfacet
  facet normal -0.951057 -0.309017 0
    outer loop
      vertex 22.4327 1.76336 2.4
      vertex 23.0056 0 0
      vertex 23.0056 0 2.4
    endloop
  endfacet
  facet normal 0.951057 -0.309017 0
    outer loop
      vertex 17.0056 0 2.4
      vertex 17.5786 1.76336 0
      vertex 17.5786 1.76336 2.4
    endloop
  endfacet
  facet normal 0.951057 -0.309017 0
    outer loop
      vertex 17.5786 1.76336 0
      vertex 17.0056 0 2.4
      vertex 17.0056 0 0
    endloop
  endfacet
  facet normal 0 1 -0
    outer loop
      vertex 20.9327 -2.85317 0
      vertex 19.0786 -2.85317 2.4
      vertex 20.9327 -2.85317 2.4
    endloop
  endfacet
  facet normal 0 1 0
    outer loop
      vertex 19.0786 -2.85317 2.4
      vertex 20.9327 -2.85317 0
      vertex 19.0786 -2.85317 0
    endloop
  endfacet
  facet normal 0 -1 0
    outer loop
      vertex 19.0786 2.85317 0
      vertex 20.9327 2.85317 2.4
      vertex 19.0786 2.85317 2.4
    endloop
  endfacet
  facet normal 0 -1 -0
    outer loop
      vertex 20.9327 2.85317 2.4
      vertex 19.0786 2.85317 0
      vertex 20.9327 2.85317 0
    endloop
  endfacet
  facet normal -0.587785 -0.809017 0
    outer loop
      vertex 20.9327 2.85317 0
      vertex 22.4327 1.76336 2.4
      vertex 20.9327 2.85317 2.4
    endloop
  endfacet
  facet normal -0.587785 -0.809017 -0
    outer loop
      vertex 22.4327 1.76336 2.4
      vertex 20.9327 2.85317 0
      vertex 22.4327 1.76336 0
    endloop
  endfacet
  facet normal 0.587785 -0.809017 0
    outer loop
      vertex 17.5786 1.76336 0
      vertex 19.0786 2.85317 2.4
      vertex 17.5786 1.76336 2.4
    endloop
  endfacet
  facet normal 0.587785 -0.809017 0
    outer loop
      vertex 19.0786 2.85317 2.4
      vertex 17.5786 1.76336 0
      vertex 19.0786 2.85317 0
    endloop
  endfacet
  facet normal -0.587785 0.809017 0
    outer loop
      vertex 22.4327 -1.76336 0
      vertex 20.9327 -2.85317 2.4
      vertex 22.4327 -1.76336 2.4
    endloop
  endfacet
  facet normal -0.587785 0.809017 0
    outer loop
      vertex 20.9327 -2.85317 2.4
      vertex 22.4327 -1.76336 0
      vertex 20.9327 -2.85317 0
    endloop
  endfacet
  facet normal -0.951057 0.309017 0
    outer loop
      vertex 22.4327 -1.76336 0
      vertex 23.0056 0 2.4
      vertex 23.0056 0 0
    endloop
  endfacet
  facet normal -0.951057 0.309017 0
    outer loop
      vertex 23.0056 0 2.4
      vertex 22.4327 -1.76336 0
      vertex 22.4327 -1.76336 2.4
    endloop
  endfacet
  facet normal 0.587785 0.809017 -0
    outer loop
      vertex 19.0786 -2.85317 0
      vertex 17.5786 -1.76336 2.4
      vertex 19.0786 -2.85317 2.4
    endloop
  endfacet
  facet normal 0.587785 0.809017 0
    outer loop
      vertex 17.5786 -1.76336 2.4
      vertex 19.0786 -2.85317 0
      vertex 17.5786 -1.76336 0
    endloop
  endfacet
  facet normal 0.951057 0.309017 0
    outer loop
      vertex 17.5786 -1.76336 2.4
      vertex 17.0056 0 0
      vertex 17.0056 0 2.4
    endloop
  endfacet
  facet normal 0.951057 0.309017 0
    outer loop
      vertex 17.0056 0 0
      vertex 17.5786 -1.76336 2.4
      vertex 17.5786 -1.76336 0
    endloop
  endfacet
  facet normal 0 0 1
    outer loop
      vertex 14.7327 -1.1201 1.6
      vertex 12.1847 -2.5991 1.6
      vertex 14.7327 -2.59911 1.6
    endloop
  endfacet
  facet normal 0 -0 1
    outer loop
      vertex 12.1847 -2.5991 1.6
      vertex 14.7327 -1.1201 1.6
      vertex 10.8927 -1.1201 1.6
    endloop
  endfacet
  facet normal 0 0 1
    outer loop
      vertex 14.7327 -1.1201 1.6
      vertex 15.8207 -1.1201 1.6
      vertex 15.8207 -0.255096 1.6
    endloop
  endfacet
  facet normal 0 0 1
    outer loop
      vertex 15.8207 -1.1201 1.6
      vertex 14.7327 -1.1201 1.6
      vertex 15.8207 -2.59911 1.6
    endloop
  endfacet
  facet normal 0 0 1
    outer loop
      vertex 14.7327 -1.1201 1.6
      vertex 15.8207 -0.255096 1.6
      vertex 14.7327 -0.255096 1.6
    endloop
  endfacet
  facet normal 0 0 1
    outer loop
      vertex 15.8207 -2.59911 1.6
      vertex 14.7327 -1.1201 1.6
      vertex 14.7327 -2.59911 1.6
    endloop
  endfacet
  facet normal 0 0 1
    outer loop
      vertex 14.7327 -4.3131 1.6
      vertex 15.8207 -2.59911 1.6
      vertex 14.7327 -2.59911 1.6
    endloop
  endfacet
  facet normal 0 0 1
    outer loop
      vertex 15.8207 -2.59911 1.6
      vertex 14.7327 -4.3131 1.6
      vertex 15.8207 -5.2881 1.6
    endloop
  endfacet
  facet normal 0 0 1
    outer loop
      vertex 14.7327 -4.3131 1.6
      vertex 14.4887 -5.2881 1.6
      vertex 15.8207 -5.2881 1.6
    endloop
  endfacet
  facet normal 0 0 1
    outer loop
      vertex 12.1847 -2.5991 1.6
      vertex 14.4887 -5.2881 1.6
      vertex 14.7327 -4.3131 1.6
    endloop
  endfacet
  facet normal 0 0 1
    outer loop
      vertex 10.8927 -2.8591 1.6
      vertex 12.1847 -2.5991 1.6
      vertex 10.8927 -1.1201 1.6
    endloop
  endfacet
  facet normal 0 0 1
    outer loop
      vertex 12.1847 -2.5991 1.6
      vertex 10.8927 -2.8591 1.6
      vertex 14.4887 -5.2881 1.6
    endloop
  endfacet
  facet normal -0 0 1
    outer loop
      vertex 15.8207 -1.1201 1.6
      vertex 16.9727 -2.59911 1.6
      vertex 16.9727 -1.1201 1.6
    endloop
  endfacet
  facet normal 0 0 1
    outer loop
      vertex 16.9727 -2.59911 1.6
      vertex 15.8207 -1.1201 1.6
      vertex 15.8207 -2.59911 1.6
    endloop
  endfacet
  facet normal 0 0 1
    outer loop
      vertex 14.7327 4.54199 1.6
      vertex 12.1847 3.06299 1.6
      vertex 14.7327 3.06299 1.6
    endloop
  endfacet
  facet normal 0 -0 1
    outer loop
      vertex 12.1847 3.06299 1.6
      vertex 14.7327 4.54199 1.6
      vertex 10.8927 4.54199 1.6
    endloop
  endfacet
  facet normal 0 0 1
    outer loop
      vertex 14.7327 4.54199 1.6
      vertex 15.8207 4.54199 1.6
      vertex 15.8207 5.407 1.6
    endloop
  endfacet
  facet normal 0 0 1
    outer loop
      vertex 15.8207 4.54199 1.6
      vertex 14.7327 4.54199 1.6
      vertex 15.8207 3.06299 1.6
    endloop
  endfacet
  facet normal 0 0 1
    outer loop
      vertex 14.7327 4.54199 1.6
      vertex 15.8207 5.407 1.6
      vertex 14.7327 5.407 1.6
    endloop
  endfacet
  facet normal 0 0 1
    outer loop
      vertex 15.8207 3.06299 1.6
      vertex 14.7327 4.54199 1.6
      vertex 14.7327 3.06299 1.6
    endloop
  endfacet
  facet normal 0 0 1
    outer loop
      vertex 14.7327 1.349 1.6
      vertex 15.8207 3.06299 1.6
      vertex 14.7327 3.06299 1.6
    endloop
  endfacet
  facet normal 0 0 1
    outer loop
      vertex 15.8207 3.06299 1.6
      vertex 14.7327 1.349 1.6
      vertex 15.8207 0.373992 1.6
    endloop
  endfacet
  facet normal 0 0 1
    outer loop
      vertex 14.7327 1.349 1.6
      vertex 14.4887 0.373992 1.6
      vertex 15.8207 0.373992 1.6
    endloop
  endfacet
  facet normal 0 0 1
    outer loop
      vertex 12.1847 3.06299 1.6
      vertex 14.4887 0.373992 1.6
      vertex 14.7327 1.349 1.6
    endloop
  endfacet
  facet normal 0 0 1
    outer loop
      vertex 10.8927 2.80299 1.6
      vertex 12.1847 3.06299 1.6
      vertex 10.8927 4.54199 1.6
    endloop
  endfacet
  facet normal 0 0 1
    outer loop
      vertex 12.1847 3.06299 1.6
      vertex 10.8927 2.80299 1.6
      vertex 14.4887 0.373992 1.6
    endloop
  endfacet
  facet normal 0 0 1
    outer loop
      vertex 15.8207 4.54199 1.6
      vertex 16.9727 3.06299 1.6
      vertex 16.9727 4.54199 1.6
    endloop
  endfacet
  facet normal 0 0 1
    outer loop
      vertex 16.9727 3.06299 1.6
      vertex 15.8207 4.54199 1.6
      vertex 15.8207 3.06299 1.6
    endloop
  endfacet
  facet normal -1 0 0
    outer loop
      vertex 15.8207 -1.1201 1.6
      vertex 15.8207 -0.255096 2.4
      vertex 15.8207 -0.255096 1.6
    endloop
  endfacet
  facet normal -1 -0 0
    outer loop
      vertex 15.8207 -0.255096 2.4
      vertex 15.8207 -1.1201 1.6
      vertex 15.8207 -1.1201 2.4
    endloop
  endfacet
  facet normal 0 -1 0
    outer loop
      vertex 14.7327 -0.255096 1.6
      vertex 15.8207 -0.255096 2.4
      vertex 14.7327 -0.255096 2.4
    endloop
  endfacet
  facet normal 0 -1 -0
    outer loop
      vertex 15.8207 -0.255096 2.4
      vertex 14.7327 -0.255096 1.6
      vertex 15.8207 -0.255096 1.6
    endloop
  endfacet
  facet normal 1 -0 0
    outer loop
      vertex 14.7327 -1.1201 2.4
      vertex 14.7327 -0.255096 1.6
      vertex 14.7327 -0.255096 2.4
    endloop
  endfacet
  facet normal 1 0 0
    outer loop
      vertex 14.7327 -0.255096 1.6
      vertex 14.7327 -1.1201 2.4
      vertex 14.7327 -1.1201 1.6
    endloop
  endfacet
  facet normal -2.48354e-07 -1 0
    outer loop
      vertex 10.8927 -1.1201 1.6
      vertex 14.7327 -1.1201 2.4
      vertex 10.8927 -1.1201 2.4
    endloop
  endfacet
  facet normal -2.48354e-07 -1 -0
    outer loop
      vertex 14.7327 -1.1201 2.4
      vertex 10.8927 -1.1201 1.6
      vertex 14.7327 -1.1201 1.6
    endloop
  endfacet
  facet normal 1 -0 0
    outer loop
      vertex 10.8927 -2.8591 2.4
      vertex 10.8927 -1.1201 1.6
      vertex 10.8927 -1.1201 2.4
    endloop
  endfacet
  facet normal 1 0 0
    outer loop
      vertex 10.8927 -1.1201 1.6
      vertex 10.8927 -2.8591 2.4
      vertex 10.8927 -2.8591 1.6
    endloop
  endfacet
  facet normal 0.559745 0.828665 -0
    outer loop
      vertex 14.4887 -5.2881 1.6
      vertex 10.8927 -2.8591 2.4
      vertex 14.4887 -5.2881 2.4
    endloop
  endfacet
  facet normal 0.559745 0.828665 0
    outer loop
      vertex 10.8927 -2.8591 2.4
      vertex 14.4887 -5.2881 1.6
      vertex 10.8927 -2.8591 1.6
    endloop
  endfacet
  facet normal 0 1 -0
    outer loop
      vertex 15.8207 -5.2881 1.6
      vertex 14.4887 -5.2881 2.4
      vertex 15.8207 -5.2881 2.4
    endloop
  endfacet
  facet normal 0 1 0
    outer loop
      vertex 14.4887 -5.2881 2.4
      vertex 15.8207 -5.2881 1.6
      vertex 14.4887 -5.2881 1.6
    endloop
  endfacet
  facet normal -1 0 0
    outer loop
      vertex 15.8207 -5.2881 1.6
      vertex 15.8207 -2.59911 2.4
      vertex 15.8207 -2.59911 1.6
    endloop
  endfacet
  facet normal -1 -0 0
    outer loop
      vertex 15.8207 -2.59911 2.4
      vertex 15.8207 -5.2881 1.6
      vertex 15.8207 -5.2881 2.4
    endloop
  endfacet
  facet normal 0 1 -0
    outer loop
      vertex 16.9727 -2.59911 1.6
      vertex 15.8207 -2.59911 2.4
      vertex 16.9727 -2.59911 2.4
    endloop
  endfacet
  facet normal 0 1 0
    outer loop
      vertex 15.8207 -2.59911 2.4
      vertex 16.9727 -2.59911 1.6
      vertex 15.8207 -2.59911 1.6
    endloop
  endfacet
  facet normal -1 0 0
    outer loop
      vertex 16.9727 -2.59911 1.6
      vertex 16.9727 -1.1201 2.4
      vertex 16.9727 -1.1201 1.6
    endloop
  endfacet
  facet normal -1 -0 0
    outer loop
      vertex 16.9727 -1.1201 2.4
      vertex 16.9727 -2.59911 1.6
      vertex 16.9727 -2.59911 2.4
    endloop
  endfacet
  facet normal 0 -1 0
    outer loop
      vertex 15.8207 -1.1201 1.6
      vertex 16.9727 -1.1201 2.4
      vertex 15.8207 -1.1201 2.4
    endloop
  endfacet
  facet normal 0 -1 -0
    outer loop
      vertex 16.9727 -1.1201 2.4
      vertex 15.8207 -1.1201 1.6
      vertex 16.9727 -1.1201 1.6
    endloop
  endfacet
  facet normal -0.558152 -0.829739 0
    outer loop
      vertex 12.1847 -2.5991 1.6
      vertex 14.7327 -4.3131 2.4
      vertex 12.1847 -2.5991 2.4
    endloop
  endfacet
  facet normal -0.558152 -0.829739 -0
    outer loop
      vertex 14.7327 -4.3131 2.4
      vertex 12.1847 -2.5991 1.6
      vertex 14.7327 -4.3131 1.6
    endloop
  endfacet
  facet normal 3.74285e-07 1 -0
    outer loop
      vertex 14.7327 -2.59911 1.6
      vertex 12.1847 -2.5991 2.4
      vertex 14.7327 -2.59911 2.4
    endloop
  endfacet
  facet normal 3.74285e-07 1 0
    outer loop
      vertex 12.1847 -2.5991 2.4
      vertex 14.7327 -2.59911 1.6
      vertex 12.1847 -2.5991 1.6
    endloop
  endfacet
  facet normal 1 -0 0
    outer loop
      vertex 14.7327 -4.3131 2.4
      vertex 14.7327 -2.59911 1.6
      vertex 14.7327 -2.59911 2.4
    endloop
  endfacet
  facet normal 1 0 0
    outer loop
      vertex 14.7327 -2.59911 1.6
      vertex 14.7327 -4.3131 2.4
      vertex 14.7327 -4.3131 1.6
    endloop
  endfacet
  facet normal -1 0 0
    outer loop
      vertex 15.8207 4.54199 1.6
      vertex 15.8207 5.407 2.4
      vertex 15.8207 5.407 1.6
    endloop
  endfacet
  facet normal -1 -0 0
    outer loop
      vertex 15.8207 5.407 2.4
      vertex 15.8207 4.54199 1.6
      vertex 15.8207 4.54199 2.4
    endloop
  endfacet
  facet normal 0 -1 0
    outer loop
      vertex 14.7327 5.407 1.6
      vertex 15.8207 5.407 2.4
      vertex 14.7327 5.407 2.4
    endloop
  endfacet
  facet normal 0 -1 -0
    outer loop
      vertex 15.8207 5.407 2.4
      vertex 14.7327 5.407 1.6
      vertex 15.8207 5.407 1.6
    endloop
  endfacet
  facet normal 1 -0 0
    outer loop
      vertex 14.7327 4.54199 2.4
      vertex 14.7327 5.407 1.6
      vertex 14.7327 5.407 2.4
    endloop
  endfacet
  facet normal 1 0 0
    outer loop
      vertex 14.7327 5.407 1.6
      vertex 14.7327 4.54199 2.4
      vertex 14.7327 4.54199 1.6
    endloop
  endfacet
  facet normal 0 -1 0
    outer loop
      vertex 10.8927 4.54199 1.6
      vertex 14.7327 4.54199 2.4
      vertex 10.8927 4.54199 2.4
    endloop
  endfacet
  facet normal 0 -1 -0
    outer loop
      vertex 14.7327 4.54199 2.4
      vertex 10.8927 4.54199 1.6
      vertex 14.7327 4.54199 1.6
    endloop
  endfacet
  facet normal 1 -0 0
    outer loop
      vertex 10.8927 2.80299 2.4
      vertex 10.8927 4.54199 1.6
      vertex 10.8927 4.54199 2.4
    endloop
  endfacet
  facet normal 1 0 0
    outer loop
      vertex 10.8927 4.54199 1.6
      vertex 10.8927 2.80299 2.4
      vertex 10.8927 2.80299 1.6
    endloop
  endfacet
  facet normal 0.559745 0.828665 -0
    outer loop
      vertex 14.4887 0.373992 1.6
      vertex 10.8927 2.80299 2.4
      vertex 14.4887 0.373992 2.4
    endloop
  endfacet
  facet normal 0.559745 0.828665 0
    outer loop
      vertex 10.8927 2.80299 2.4
      vertex 14.4887 0.373992 1.6
      vertex 10.8927 2.80299 1.6
    endloop
  endfacet
  facet normal 0 1 -0
    outer loop
      vertex 15.8207 0.373992 1.6
      vertex 14.4887 0.373992 2.4
      vertex 15.8207 0.373992 2.4
    endloop
  endfacet
  facet normal 0 1 0
    outer loop
      vertex 14.4887 0.373992 2.4
      vertex 15.8207 0.373992 1.6
      vertex 14.4887 0.373992 1.6
    endloop
  endfacet
  facet normal -1 0 0
    outer loop
      vertex 15.8207 0.373992 1.6
      vertex 15.8207 3.06299 2.4
      vertex 15.8207 3.06299 1.6
    endloop
  endfacet
  facet normal -1 -0 0
    outer loop
      vertex 15.8207 3.06299 2.4
      vertex 15.8207 0.373992 1.6
      vertex 15.8207 0.373992 2.4
    endloop
  endfacet
  facet normal 0 1 -0
    outer loop
      vertex 16.9727 3.06299 1.6
      vertex 15.8207 3.06299 2.4
      vertex 16.9727 3.06299 2.4
    endloop
  endfacet
  facet normal 0 1 0
    outer loop
      vertex 15.8207 3.06299 2.4
      vertex 16.9727 3.06299 1.6
      vertex 15.8207 3.06299 1.6
    endloop
  endfacet
  facet normal -1 0 0
    outer loop
      vertex 16.9727 3.06299 1.6
      vertex 16.9727 4.54199 2.4
      vertex 16.9727 4.54199 1.6
    endloop
  endfacet
  facet normal -1 -0 0
    outer loop
      vertex 16.9727 4.54199 2.4
      vertex 16.9727 3.06299 1.6
      vertex 16.9727 3.06299 2.4
    endloop
  endfacet
  facet normal -8.27836e-07 -1 0
    outer loop
      vertex 15.8207 4.54199 1.6
      vertex 16.9727 4.54199 2.4
      vertex 15.8207 4.54199 2.4
    endloop
  endfacet
  facet normal -8.27836e-07 -1 -0
    outer loop
      vertex 16.9727 4.54199 2.4
      vertex 15.8207 4.54199 1.6
      vertex 16.9727 4.54199 1.6
    endloop
  endfacet
  facet normal -0.558152 -0.829739 0
    outer loop
      vertex 12.1847 3.06299 1.6
      vertex 14.7327 1.349 2.4
      vertex 12.1847 3.06299 2.4
    endloop
  endfacet
  facet normal -0.558152 -0.829739 -0
    outer loop
      vertex 14.7327 1.349 2.4
      vertex 12.1847 3.06299 1.6
      vertex 14.7327 1.349 1.6
    endloop
  endfacet
  facet normal 0 1 -0
    outer loop
      vertex 14.7327 3.06299 1.6
      vertex 12.1847 3.06299 2.4
      vertex 14.7327 3.06299 2.4
    endloop
  endfacet
  facet normal 0 1 0
    outer loop
      vertex 12.1847 3.06299 2.4
      vertex 14.7327 3.06299 1.6
      vertex 12.1847 3.06299 1.6
    endloop
  endfacet
  facet normal 1 -0 0
    outer loop
      vertex 14.7327 1.349 2.4
      vertex 14.7327 3.06299 1.6
      vertex 14.7327 3.06299 2.4
    endloop
  endfacet
  facet normal 1 0 0
    outer loop
      vertex 14.7327 3.06299 1.6
      vertex 14.7327 1.349 2.4
      vertex 14.7327 1.349 1.6
    endloop
  endfacet
endsolid OpenSCAD_Model
