solid OpenSCAD_Model
  facet normal 0 0 -1
    outer loop
      vertex 23.3239 0 0
      vertex 25.4049 0 0
      vertex 25.0182 -1.94441 0
    endloop
  endfacet
  facet normal 0 0 -1
    outer loop
      vertex 22.751 -1.76336 0
      vertex 25.0182 -1.94441 0
      vertex 23.9167 -3.5928 0
    endloop
  endfacet
  facet normal 0 0 -1
    outer loop
      vertex 25.4049 0 0
      vertex 23.3239 0 0
      vertex 25.0182 1.94441 0
    endloop
  endfacet
  facet normal 0 0 -1
    outer loop
      vertex 22.751 1.76336 0
      vertex 25.0182 1.94441 0
      vertex 23.3239 0 0
    endloop
  endfacet
  facet normal 0 0 -1
    outer loop
      vertex 25.0182 -1.94441 0
      vertex 22.751 -1.76336 0
      vertex 23.3239 0 0
    endloop
  endfacet
  facet normal 0 0 -1
    outer loop
      vertex 21.251 -2.85317 0
      vertex 23.9167 -3.5928 0
      vertex 22.2684 -4.69422 0
    endloop
  endfacet
  facet normal 0 0 -1
    outer loop
      vertex 23.9167 -3.5928 0
      vertex 21.251 -2.85317 0
      vertex 22.751 -1.76336 0
    endloop
  endfacet
  facet normal 0 0 -1
    outer loop
      vertex 22.2684 -4.69422 0
      vertex 19.3969 -2.85317 0
      vertex 21.251 -2.85317 0
    endloop
  endfacet
  facet normal 0 0 -1
    outer loop
      vertex 6.89639 -1.93228 0
      vertex 17.3239 0 0
      vertex 17.8969 -1.76336 0
    endloop
  endfacet
  facet normal 0 0 -1
    outer loop
      vertex 6.11933 -3.72125 0
      vertex 17.8969 -1.76336 0
      vertex 19.3969 -2.85317 0
    endloop
  endfacet
  facet normal 0 0 -1
    outer loop
      vertex 3.14022 -9.66461 0
      vertex 19.3969 -2.85317 0
      vertex 22.2684 -4.69422 0
    endloop
  endfacet
  facet normal -0 0 -1
    outer loop
      vertex 17.3239 0 0
      vertex 6.89639 -1.93228 0
      vertex 7.16197 0 0
    endloop
  endfacet
  facet normal 0 0 -1
    outer loop
      vertex 17.8969 -1.76336 0
      vertex 6.11933 -3.72125 0
      vertex 6.89639 -1.93228 0
    endloop
  endfacet
  facet normal 0 0 -1
    outer loop
      vertex 19.3969 -2.85317 0
      vertex 4.88843 -5.23423 0
      vertex 6.11933 -3.72125 0
    endloop
  endfacet
  facet normal 0 0 -1
    outer loop
      vertex 19.3969 -2.85317 0
      vertex 3.14022 -9.66461 0
      vertex 4.88843 -5.23423 0
    endloop
  endfacet
  facet normal 0 0 -1
    outer loop
      vertex 4.88843 -5.23423 0
      vertex 3.14022 -9.66461 0
      vertex 3.29497 -6.35901 0
    endloop
  endfacet
  facet normal 0 0 -1
    outer loop
      vertex 3.14022 -9.66461 0
      vertex 1.45715 -7.01217 0
      vertex 3.29497 -6.35901 0
    endloop
  endfacet
  facet normal 0 0 -1
    outer loop
      vertex 1.06221 -10.1063 0
      vertex 1.45715 -7.01217 0
      vertex 3.14022 -9.66461 0
    endloop
  endfacet
  facet normal 0 0 -1
    outer loop
      vertex 1.06221 -10.1063 0
      vertex -0.48875 -7.14528 0
      vertex 1.45715 -7.01217 0
    endloop
  endfacet
  facet normal 0 0 -1
    outer loop
      vertex -1.06221 -10.1063 0
      vertex -0.48875 -7.14528 0
      vertex 1.06221 -10.1063 0
    endloop
  endfacet
  facet normal 0 0 -1
    outer loop
      vertex -1.06221 -10.1063 0
      vertex -2.3984 -6.74845 0
      vertex -0.48875 -7.14528 0
    endloop
  endfacet
  facet normal 0 0 -1
    outer loop
      vertex -3.14022 -9.66461 0
      vertex -2.3984 -6.74845 0
      vertex -1.06221 -10.1063 0
    endloop
  endfacet
  facet normal 0 0 -1
    outer loop
      vertex -5.08099 -8.80053 0
      vertex -2.3984 -6.74845 0
      vertex -3.14022 -9.66461 0
    endloop
  endfacet
  facet normal -0 0 -1
    outer loop
      vertex -2.3984 -6.74845 0
      vertex -5.08099 -8.80053 0
      vertex -4.13017 -5.85112 0
    endloop
  endfacet
  facet normal 0 0 -1
    outer loop
      vertex -6.79969 -7.55182 0
      vertex -4.13017 -5.85112 0
      vertex -5.08099 -8.80053 0
    endloop
  endfacet
  facet normal -0 0 -1
    outer loop
      vertex -4.13017 -5.85112 0
      vertex -6.79969 -7.55182 0
      vertex -5.55562 -4.51983 0
    endloop
  endfacet
  facet normal 0 0 -1
    outer loop
      vertex -8.22121 -5.97306 0
      vertex -5.55562 -4.51983 0
      vertex -6.79969 -7.55182 0
    endloop
  endfacet
  facet normal -0 0 -1
    outer loop
      vertex -5.55562 -4.51983 0
      vertex -8.22121 -5.97306 0
      vertex -6.56904 -2.85334 0
    endloop
  endfacet
  facet normal 0 0 -1
    outer loop
      vertex -9.93991 -2.11279 0
      vertex -6.56904 -2.85334 0
      vertex -9.28342 -4.13325 0
    endloop
  endfacet
  facet normal 0 0 -1
    outer loop
      vertex -9.28342 -4.13325 0
      vertex -6.56904 -2.85334 0
      vertex -8.22121 -5.97306 0
    endloop
  endfacet
  facet normal -0 0 -1
    outer loop
      vertex 25.0182 1.94441 0
      vertex 22.751 1.76336 0
      vertex 23.9167 3.5928 0
    endloop
  endfacet
  facet normal 0 0 -1
    outer loop
      vertex 21.251 2.85317 0
      vertex 23.9167 3.5928 0
      vertex 22.751 1.76336 0
    endloop
  endfacet
  facet normal -0 0 -1
    outer loop
      vertex 23.9167 3.5928 0
      vertex 21.251 2.85317 0
      vertex 22.2684 4.69422 0
    endloop
  endfacet
  facet normal 0 0 -1
    outer loop
      vertex 19.3969 2.85317 0
      vertex 22.2684 4.69422 0
      vertex 21.251 2.85317 0
    endloop
  endfacet
  facet normal 0 0 -1
    outer loop
      vertex 6.89639 1.93228 0
      vertex 17.3239 0 0
      vertex 7.16197 0 0
    endloop
  endfacet
  facet normal 0 0 -1
    outer loop
      vertex 17.3239 0 0
      vertex 6.89639 1.93228 0
      vertex 17.8969 1.76336 0
    endloop
  endfacet
  facet normal 0 0 -1
    outer loop
      vertex 6.11933 3.72125 0
      vertex 17.8969 1.76336 0
      vertex 6.89639 1.93228 0
    endloop
  endfacet
  facet normal 0 0 -1
    outer loop
      vertex 17.8969 1.76336 0
      vertex 6.11933 3.72125 0
      vertex 19.3969 2.85317 0
    endloop
  endfacet
  facet normal 0 0 -1
    outer loop
      vertex 4.88843 5.23423 0
      vertex 19.3969 2.85317 0
      vertex 6.11933 3.72125 0
    endloop
  endfacet
  facet normal 0 0 -1
    outer loop
      vertex 3.14022 9.66461 0
      vertex 19.3969 2.85317 0
      vertex 4.88843 5.23423 0
    endloop
  endfacet
  facet normal 0 0 -1
    outer loop
      vertex 3.14022 9.66461 0
      vertex 4.88843 5.23423 0
      vertex 3.29497 6.35901 0
    endloop
  endfacet
  facet normal 0 0 -1
    outer loop
      vertex 19.3969 2.85317 0
      vertex 3.14022 9.66461 0
      vertex 22.2684 4.69422 0
    endloop
  endfacet
  facet normal 0 0 -1
    outer loop
      vertex 1.45715 7.01217 0
      vertex 3.14022 9.66461 0
      vertex 3.29497 6.35901 0
    endloop
  endfacet
  facet normal 0 0 -1
    outer loop
      vertex 1.45715 7.01217 0
      vertex 1.06221 10.1063 0
      vertex 3.14022 9.66461 0
    endloop
  endfacet
  facet normal 0 0 -1
    outer loop
      vertex -0.48875 7.14528 0
      vertex 1.06221 10.1063 0
      vertex 1.45715 7.01217 0
    endloop
  endfacet
  facet normal 0 0 -1
    outer loop
      vertex -0.48875 7.14528 0
      vertex -1.06221 10.1063 0
      vertex 1.06221 10.1063 0
    endloop
  endfacet
  facet normal 0 0 -1
    outer loop
      vertex -2.3984 6.74845 0
      vertex -1.06221 10.1063 0
      vertex -0.48875 7.14528 0
    endloop
  endfacet
  facet normal 0 0 -1
    outer loop
      vertex -2.3984 6.74845 0
      vertex -3.14022 9.66461 0
      vertex -1.06221 10.1063 0
    endloop
  endfacet
  facet normal 0 0 -1
    outer loop
      vertex -5.08099 8.80053 0
      vertex -2.3984 6.74845 0
      vertex -4.13017 5.85112 0
    endloop
  endfacet
  facet normal 0 0 -1
    outer loop
      vertex -2.3984 6.74845 0
      vertex -5.08099 8.80053 0
      vertex -3.14022 9.66461 0
    endloop
  endfacet
  facet normal 0 0 -1
    outer loop
      vertex -6.79969 7.55182 0
      vertex -4.13017 5.85112 0
      vertex -5.55562 4.51983 0
    endloop
  endfacet
  facet normal 0 0 -1
    outer loop
      vertex -8.22121 5.97306 0
      vertex -5.55562 4.51983 0
      vertex -6.56904 2.85334 0
    endloop
  endfacet
  facet normal 0 0 -1
    outer loop
      vertex -4.13017 5.85112 0
      vertex -6.79969 7.55182 0
      vertex -5.08099 8.80053 0
    endloop
  endfacet
  facet normal 0 0 -1
    outer loop
      vertex -9.93991 2.11279 0
      vertex -6.56904 2.85334 0
      vertex -7.09527 0.975222 0
    endloop
  endfacet
  facet normal 0 0 -1
    outer loop
      vertex -6.56904 -2.85334 0
      vertex -9.93991 -2.11279 0
      vertex -7.09527 -0.975222 0
    endloop
  endfacet
  facet normal 0 0 -1
    outer loop
      vertex -5.55562 4.51983 0
      vertex -8.22121 5.97306 0
      vertex -6.79969 7.55182 0
    endloop
  endfacet
  facet normal 0 0 -1
    outer loop
      vertex -10.162 0 0
      vertex -7.09527 -0.975222 0
      vertex -9.93991 -2.11279 0
    endloop
  endfacet
  facet normal 0 0 -1
    outer loop
      vertex -6.56904 2.85334 0
      vertex -9.28342 4.13325 0
      vertex -8.22121 5.97306 0
    endloop
  endfacet
  facet normal 0 0 -1
    outer loop
      vertex -7.09527 -0.975222 0
      vertex -10.162 0 0
      vertex -7.09527 0.975222 0
    endloop
  endfacet
  facet normal -0 0 -1
    outer loop
      vertex -6.56904 2.85334 0
      vertex -9.93991 2.11279 0
      vertex -9.28342 4.13325 0
    endloop
  endfacet
  facet normal -0 0 -1
    outer loop
      vertex -7.09527 0.975222 0
      vertex -10.162 0 0
      vertex -9.93991 2.11279 0
    endloop
  endfacet
  facet normal -0.951057 -0.309017 0
    outer loop
      vertex -9.28342 -4.13325 0
      vertex -9.93991 -2.11279 4
      vertex -9.93991 -2.11279 0
    endloop
  endfacet
  facet normal -0.951057 -0.309017 0
    outer loop
      vertex -9.93991 -2.11279 4
      vertex -9.28342 -4.13325 0
      vertex -9.28342 -4.13325 4
    endloop
  endfacet
  facet normal -0.994522 0.104529 0
    outer loop
      vertex -10.162 0 0
      vertex -9.93991 2.11279 4
      vertex -9.93991 2.11279 0
    endloop
  endfacet
  facet normal -0.994522 0.104529 0
    outer loop
      vertex -9.93991 2.11279 4
      vertex -10.162 0 0
      vertex -10.162 0 4
    endloop
  endfacet
  facet normal 0.980785 0.19509 0
    outer loop
      vertex 25.4049 0 2.4
      vertex 25.0182 1.94441 0
      vertex 25.0182 1.94441 2.4
    endloop
  endfacet
  facet normal 0.980785 0.19509 0
    outer loop
      vertex 25.0182 1.94441 0
      vertex 25.4049 0 2.4
      vertex 25.4049 0 0
    endloop
  endfacet
  facet normal -0.994522 -0.104529 0
    outer loop
      vertex -9.93991 -2.11279 0
      vertex -10.162 0 4
      vertex -10.162 0 0
    endloop
  endfacet
  facet normal -0.994522 -0.104529 0
    outer loop
      vertex -10.162 0 4
      vertex -9.93991 -2.11279 0
      vertex -9.93991 -2.11279 4
    endloop
  endfacet
  facet normal 0 -1 0
    outer loop
      vertex -1.06221 -10.1063 0
      vertex 1.06221 -10.1063 4
      vertex -1.06221 -10.1063 4
    endloop
  endfacet
  facet normal 0 -1 -0
    outer loop
      vertex 1.06221 -10.1063 4
      vertex -1.06221 -10.1063 0
      vertex 1.06221 -10.1063 0
    endloop
  endfacet
  facet normal 0 1 -0
    outer loop
      vertex 1.06221 10.1063 0
      vertex -1.06221 10.1063 4
      vertex 1.06221 10.1063 4
    endloop
  endfacet
  facet normal 0 1 0
    outer loop
      vertex -1.06221 10.1063 4
      vertex 1.06221 10.1063 0
      vertex -1.06221 10.1063 0
    endloop
  endfacet
  facet normal -0.587785 0.809017 0
    outer loop
      vertex -5.08099 8.80053 0
      vertex -6.79969 7.55182 4
      vertex -5.08099 8.80053 4
    endloop
  endfacet
  facet normal -0.587785 0.809017 0
    outer loop
      vertex -6.79969 7.55182 4
      vertex -5.08099 8.80053 0
      vertex -6.79969 7.55182 0
    endloop
  endfacet
  facet normal 0.55557 0.83147 -0
    outer loop
      vertex 23.9167 3.5928 0
      vertex 22.2684 4.69422 2.4
      vertex 23.9167 3.5928 2.4
    endloop
  endfacet
  facet normal 0.55557 0.83147 0
    outer loop
      vertex 22.2684 4.69422 2.4
      vertex 23.9167 3.5928 0
      vertex 22.2684 4.69422 0
    endloop
  endfacet
  facet normal 0.83147 0.55557 0
    outer loop
      vertex 25.0182 1.94441 2.4
      vertex 23.9167 3.5928 0
      vertex 23.9167 3.5928 2.4
    endloop
  endfacet
  facet normal 0.83147 0.55557 0
    outer loop
      vertex 23.9167 3.5928 0
      vertex 25.0182 1.94441 2.4
      vertex 25.0182 1.94441 0
    endloop
  endfacet
  facet normal 0.251495 0.967859 -0
    outer loop
      vertex 22.2684 4.69422 0
      vertex 3.14022 9.66461 2.4
      vertex 22.2684 4.69422 2.4
    endloop
  endfacet
  facet normal 0.251495 0.967859 0
    outer loop
      vertex 3.14022 9.66461 2.4
      vertex 22.2684 4.69422 0
      vertex 3.14022 9.66461 0
    endloop
  endfacet
  facet normal -0.207911 0.978148 0
    outer loop
      vertex -1.06221 10.1063 0
      vertex -3.14022 9.66461 4
      vertex -1.06221 10.1063 4
    endloop
  endfacet
  facet normal -0.207911 0.978148 0
    outer loop
      vertex -3.14022 9.66461 4
      vertex -1.06221 10.1063 0
      vertex -3.14022 9.66461 0
    endloop
  endfacet
  facet normal 0.207911 -0.978148 0
    outer loop
      vertex 1.06221 -10.1063 4
      vertex 3.14022 -9.66461 2.4
      vertex 3.14022 -9.66461 4
    endloop
  endfacet
  facet normal 0.207911 -0.978148 0
    outer loop
      vertex 1.06221 -10.1063 0
      vertex 3.14022 -9.66461 2.4
      vertex 1.06221 -10.1063 4
    endloop
  endfacet
  facet normal 0.207911 -0.978148 0
    outer loop
      vertex 3.14022 -9.66461 2.4
      vertex 1.06221 -10.1063 0
      vertex 3.14022 -9.66461 0
    endloop
  endfacet
  facet normal -0.406737 -0.913545 0
    outer loop
      vertex -5.08099 -8.80053 0
      vertex -3.14022 -9.66461 4
      vertex -5.08099 -8.80053 4
    endloop
  endfacet
  facet normal -0.406737 -0.913545 -0
    outer loop
      vertex -3.14022 -9.66461 4
      vertex -5.08099 -8.80053 0
      vertex -3.14022 -9.66461 0
    endloop
  endfacet
  facet normal -0.866025 0.5 0
    outer loop
      vertex -9.28342 4.13325 0
      vertex -8.22121 5.97306 4
      vertex -8.22121 5.97306 0
    endloop
  endfacet
  facet normal -0.866025 0.5 0
    outer loop
      vertex -8.22121 5.97306 4
      vertex -9.28342 4.13325 0
      vertex -9.28342 4.13325 4
    endloop
  endfacet
  facet normal 0.207911 0.978148 -0
    outer loop
      vertex 3.14022 9.66461 2.4
      vertex 1.06221 10.1063 4
      vertex 3.14022 9.66461 4
    endloop
  endfacet
  facet normal 0.207911 0.978148 0
    outer loop
      vertex 1.06221 10.1063 0
      vertex 3.14022 9.66461 2.4
      vertex 3.14022 9.66461 0
    endloop
  endfacet
  facet normal 0.207911 0.978148 0
    outer loop
      vertex 3.14022 9.66461 2.4
      vertex 1.06221 10.1063 0
      vertex 1.06221 10.1063 4
    endloop
  endfacet
  facet normal -0.406737 0.913545 0
    outer loop
      vertex -3.14022 9.66461 0
      vertex -5.08099 8.80053 4
      vertex -3.14022 9.66461 4
    endloop
  endfacet
  facet normal -0.406737 0.913545 0
    outer loop
      vertex -5.08099 8.80053 4
      vertex -3.14022 9.66461 0
      vertex -5.08099 8.80053 0
    endloop
  endfacet
  facet normal -0.743145 0.66913 0
    outer loop
      vertex -8.22121 5.97306 0
      vertex -6.79969 7.55182 4
      vertex -6.79969 7.55182 0
    endloop
  endfacet
  facet normal -0.743145 0.66913 0
    outer loop
      vertex -6.79969 7.55182 4
      vertex -8.22121 5.97306 0
      vertex -8.22121 5.97306 4
    endloop
  endfacet
  facet normal -0.951057 0.309017 0
    outer loop
      vertex -9.93991 2.11279 0
      vertex -9.28342 4.13325 4
      vertex -9.28342 4.13325 0
    endloop
  endfacet
  facet normal -0.951057 0.309017 0
    outer loop
      vertex -9.28342 4.13325 4
      vertex -9.93991 2.11279 0
      vertex -9.93991 2.11279 4
    endloop
  endfacet
  facet normal 0 0 1
    outer loop
      vertex 16.173 2.42099 2.4
      vertex 14.125 2.42099 2.4
      vertex 16.157 2.15266 2.4
    endloop
  endfacet
  facet normal 0 0 1
    outer loop
      vertex 16.109 1.87298 2.4
      vertex 14.3897 1.16821 2.4
      vertex 14.509 0.881988 2.4
    endloop
  endfacet
  facet normal 0 0 1
    outer loop
      vertex 16.109 1.87298 2.4
      vertex 14.293 1.44154 2.4
      vertex 14.3897 1.16821 2.4
    endloop
  endfacet
  facet normal 0 0 1
    outer loop
      vertex 14.1555 2.77344 2.4
      vertex 14.399 3.31699 2.4
      vertex 14.2468 3.0721 2.4
    endloop
  endfacet
  facet normal 0 0 1
    outer loop
      vertex 16.109 1.87298 2.4
      vertex 14.219 1.702 2.4
      vertex 14.293 1.44154 2.4
    endloop
  endfacet
  facet normal 0 0 1
    outer loop
      vertex 16.109 1.87298 2.4
      vertex 14.1668 1.95166 2.4
      vertex 14.219 1.702 2.4
    endloop
  endfacet
  facet normal -0 -0 1
    outer loop
      vertex 14.1355 2.19133 2.4
      vertex 16.157 2.15266 2.4
      vertex 14.125 2.42099 2.4
    endloop
  endfacet
  facet normal 0 0 1
    outer loop
      vertex 16.157 2.15266 2.4
      vertex 14.1668 1.95166 2.4
      vertex 16.109 1.87298 2.4
    endloop
  endfacet
  facet normal 0 -0 1
    outer loop
      vertex 14.1668 1.95166 2.4
      vertex 16.157 2.15266 2.4
      vertex 14.1355 2.19133 2.4
    endloop
  endfacet
  facet normal 0 0 1
    outer loop
      vertex 13.099 3.54866 2.4
      vertex 12.205 2.129 2.4
      vertex 13.037 2.864 2.4
    endloop
  endfacet
  facet normal 0 0 1
    outer loop
      vertex 13.037 2.864 2.4
      vertex 12.205 2.129 2.4
      vertex 13.04 2.73555 2.4
    endloop
  endfacet
  facet normal 0 0 1
    outer loop
      vertex 13.04 2.73555 2.4
      vertex 12.205 2.129 2.4
      vertex 13.049 2.61021 2.4
    endloop
  endfacet
  facet normal 0 0 1
    outer loop
      vertex 13.049 2.61021 2.4
      vertex 12.205 2.129 2.4
      vertex 13.064 2.48799 2.4
    endloop
  endfacet
  facet normal 0 0 1
    outer loop
      vertex 13.064 2.48799 2.4
      vertex 12.205 2.129 2.4
      vertex 13.0845 2.3681 2.4
    endloop
  endfacet
  facet normal 0 0 1
    outer loop
      vertex 13.0845 2.3681 2.4
      vertex 12.205 2.129 2.4
      vertex 13.1098 2.24844 2.4
    endloop
  endfacet
  facet normal 0 0 1
    outer loop
      vertex 13.1098 2.24844 2.4
      vertex 12.205 2.129 2.4
      vertex 13.14 2.129 2.4
    endloop
  endfacet
  facet normal 0 0 1
    outer loop
      vertex 15.149 3.644 2.4
      vertex 14.1555 2.77344 2.4
      vertex 16.0503 3.0721 2.4
    endloop
  endfacet
  facet normal 0 0 1
    outer loop
      vertex 16.0503 3.0721 2.4
      vertex 14.1555 2.77344 2.4
      vertex 16.1423 2.77344 2.4
    endloop
  endfacet
  facet normal 0 0 1
    outer loop
      vertex 14.1555 2.77344 2.4
      vertex 15.149 3.644 2.4
      vertex 14.399 3.31699 2.4
    endloop
  endfacet
  facet normal 0 0 1
    outer loop
      vertex 16.1423 2.77344 2.4
      vertex 14.1555 2.77344 2.4
      vertex 16.173 2.42099 2.4
    endloop
  endfacet
  facet normal -0 0 1
    outer loop
      vertex 14.125 2.42099 2.4
      vertex 16.173 2.42099 2.4
      vertex 14.1555 2.77344 2.4
    endloop
  endfacet
  facet normal 0 0 1
    outer loop
      vertex 15.149 3.644 2.4
      vertex 16.0503 3.0721 2.4
      vertex 15.897 3.31699 2.4
    endloop
  endfacet
  facet normal 0 0 1
    outer loop
      vertex 16.109 1.87298 2.4
      vertex 14.509 0.881988 2.4
      vertex 16.029 1.58198 2.4
    endloop
  endfacet
  facet normal 0 0 1
    outer loop
      vertex 15.4419 3.60767 2.4
      vertex 15.897 3.31699 2.4
      vertex 15.6912 3.49866 2.4
    endloop
  endfacet
  facet normal 0 0 1
    outer loop
      vertex 16.029 1.58198 2.4
      vertex 14.509 0.881988 2.4
      vertex 15.917 1.28021 2.4
    endloop
  endfacet
  facet normal 0 0 1
    outer loop
      vertex 15.897 3.31699 2.4
      vertex 15.4419 3.60767 2.4
      vertex 15.149 3.644 2.4
    endloop
  endfacet
  facet normal -0 0 1
    outer loop
      vertex 15.597 0.641997 2.4
      vertex 15.981 -0.255096 2.4
      vertex 16.813 0.641997 2.4
    endloop
  endfacet
  facet normal -0 0 1
    outer loop
      vertex 14.8541 3.60767 2.4
      vertex 14.399 3.31699 2.4
      vertex 15.149 3.644 2.4
    endloop
  endfacet
  facet normal 0 0 1
    outer loop
      vertex 15.597 0.641997 2.4
      vertex 14.893 -0.255096 2.4
      vertex 15.981 -0.255096 2.4
    endloop
  endfacet
  facet normal 0 0 1
    outer loop
      vertex 15.773 0.966887 2.4
      vertex 14.509 0.881988 2.4
      vertex 15.597 0.641997 2.4
    endloop
  endfacet
  facet normal 0 0 1
    outer loop
      vertex 14.399 3.31699 2.4
      vertex 14.8541 3.60767 2.4
      vertex 14.6041 3.49866 2.4
    endloop
  endfacet
  facet normal 0 0 1
    outer loop
      vertex 15.597 0.641997 2.4
      vertex 14.509 0.881988 2.4
      vertex 14.893 -0.255096 2.4
    endloop
  endfacet
  facet normal 0 0 1
    outer loop
      vertex 15.917 1.28021 2.4
      vertex 14.509 0.881988 2.4
      vertex 15.773 0.966887 2.4
    endloop
  endfacet
  facet normal 0 0 1
    outer loop
      vertex 11.053 -1.1201 2.4
      vertex 14.893 -0.255096 2.4
      vertex 14.509 0.881988 2.4
    endloop
  endfacet
  facet normal 0 0 1
    outer loop
      vertex 11.053 -1.1201 2.4
      vertex 14.509 0.881988 2.4
      vertex 11.053 0.881989 2.4
    endloop
  endfacet
  facet normal 0 0 1
    outer loop
      vertex 14.893 -0.255096 2.4
      vertex 11.053 -1.1201 2.4
      vertex 14.893 -1.1201 2.4
    endloop
  endfacet
  facet normal 0 0 1
    outer loop
      vertex 17.8969 1.76336 2.4
      vertex 16.9509 0.975875 2.4
      vertex 17.3239 0 2.4
    endloop
  endfacet
  facet normal -0 0 1
    outer loop
      vertex 16.813 0.641997 2.4
      vertex 17.3239 0 2.4
      vertex 16.9509 0.975875 2.4
    endloop
  endfacet
  facet normal 0 0 1
    outer loop
      vertex 15.981 -0.255096 2.4
      vertex 17.3239 0 2.4
      vertex 16.813 0.641997 2.4
    endloop
  endfacet
  facet normal 0 0 1
    outer loop
      vertex 17.3239 0 2.4
      vertex 15.981 -0.255096 2.4
      vertex 17.133 -1.1201 2.4
    endloop
  endfacet
  facet normal 0 0 1
    outer loop
      vertex 17.133 -1.1201 2.4
      vertex 15.981 -0.255096 2.4
      vertex 15.981 -1.1201 2.4
    endloop
  endfacet
  facet normal 0 0 1
    outer loop
      vertex 23.3239 0 2.4
      vertex 25.4049 0 2.4
      vertex 25.0182 1.94441 2.4
    endloop
  endfacet
  facet normal 0 0 1
    outer loop
      vertex 22.751 1.76336 2.4
      vertex 25.0182 1.94441 2.4
      vertex 23.9167 3.5928 2.4
    endloop
  endfacet
  facet normal 0 0 1
    outer loop
      vertex 25.4049 0 2.4
      vertex 23.3239 0 2.4
      vertex 25.0182 -1.94441 2.4
    endloop
  endfacet
  facet normal -0 0 1
    outer loop
      vertex 22.751 -1.76336 2.4
      vertex 25.0182 -1.94441 2.4
      vertex 23.3239 0 2.4
    endloop
  endfacet
  facet normal 0 0 1
    outer loop
      vertex 25.0182 1.94441 2.4
      vertex 22.751 1.76336 2.4
      vertex 23.3239 0 2.4
    endloop
  endfacet
  facet normal 0 0 1
    outer loop
      vertex 21.251 2.85317 2.4
      vertex 23.9167 3.5928 2.4
      vertex 22.2684 4.69422 2.4
    endloop
  endfacet
  facet normal 0 0 1
    outer loop
      vertex 23.9167 3.5928 2.4
      vertex 21.251 2.85317 2.4
      vertex 22.751 1.76336 2.4
    endloop
  endfacet
  facet normal 0 0 1
    outer loop
      vertex 22.2684 4.69422 2.4
      vertex 19.3969 2.85317 2.4
      vertex 21.251 2.85317 2.4
    endloop
  endfacet
  facet normal -0 0 1
    outer loop
      vertex 17.2487 2.32611 2.4
      vertex 17.8969 1.76336 2.4
      vertex 17.261 2.66899 2.4
    endloop
  endfacet
  facet normal 0 0 1
    outer loop
      vertex 19.3969 2.85317 2.4
      vertex 17.261 2.66899 2.4
      vertex 17.8969 1.76336 2.4
    endloop
  endfacet
  facet normal -0 0 1
    outer loop
      vertex 16.701 4.53499 2.4
      vertex 19.3969 2.85317 2.4
      vertex 22.2684 4.69422 2.4
    endloop
  endfacet
  facet normal 0 0 1
    outer loop
      vertex 19.3969 2.85317 2.4
      vertex 17.1988 3.407 2.4
      vertex 17.261 2.66899 2.4
    endloop
  endfacet
  facet normal 0 0 1
    outer loop
      vertex 19.3969 2.85317 2.4
      vertex 17.0121 4.02899 2.4
      vertex 17.1988 3.407 2.4
    endloop
  endfacet
  facet normal 0 0 1
    outer loop
      vertex 19.3969 2.85317 2.4
      vertex 16.701 4.53499 2.4
      vertex 17.0121 4.02899 2.4
    endloop
  endfacet
  facet normal 0 0 1
    outer loop
      vertex 22.2684 4.69422 2.4
      vertex 16.2799 4.90887 2.4
      vertex 16.701 4.53499 2.4
    endloop
  endfacet
  facet normal 0 0 1
    outer loop
      vertex 22.2684 4.69422 2.4
      vertex 15.7632 5.13321 2.4
      vertex 16.2799 4.90887 2.4
    endloop
  endfacet
  facet normal 0 0 1
    outer loop
      vertex 5.08099 8.80053 2.4
      vertex 15.7632 5.13321 2.4
      vertex 22.2684 4.69422 2.4
    endloop
  endfacet
  facet normal 0 0 1
    outer loop
      vertex 12.205 2.129 2.4
      vertex 13.099 3.54866 2.4
      vertex 12.205 4.769 2.4
    endloop
  endfacet
  facet normal 0 0 1
    outer loop
      vertex 13.285 4.12399 2.4
      vertex 12.205 4.769 2.4
      vertex 13.099 3.54866 2.4
    endloop
  endfacet
  facet normal 0 0 1
    outer loop
      vertex 13.595 4.59 2.4
      vertex 12.205 4.769 2.4
      vertex 13.285 4.12399 2.4
    endloop
  endfacet
  facet normal 0 0 1
    outer loop
      vertex 14.0159 4.93332 2.4
      vertex 12.205 4.769 2.4
      vertex 13.595 4.59 2.4
    endloop
  endfacet
  facet normal 0 0 1
    outer loop
      vertex 14.5346 5.13933 2.4
      vertex 12.205 4.769 2.4
      vertex 14.0159 4.93332 2.4
    endloop
  endfacet
  facet normal 0 0 1
    outer loop
      vertex 6.79969 7.55182 2.4
      vertex 12.205 4.769 2.4
      vertex 14.5346 5.13933 2.4
    endloop
  endfacet
  facet normal 0 0 1
    outer loop
      vertex 6.79969 7.55182 2.4
      vertex 14.5346 5.13933 2.4
      vertex 15.151 5.20799 2.4
    endloop
  endfacet
  facet normal -0 0 1
    outer loop
      vertex 9.93991 2.11279 2.4
      vertex 11.053 0.881989 2.4
      vertex 11.053 4.769 2.4
    endloop
  endfacet
  facet normal 0 -0 1
    outer loop
      vertex 10.162 0 2.4
      vertex 11.053 0.881989 2.4
      vertex 9.93991 2.11279 2.4
    endloop
  endfacet
  facet normal 0 0 1
    outer loop
      vertex 9.93991 -2.11279 2.4
      vertex 11.053 -1.1201 2.4
      vertex 10.162 0 2.4
    endloop
  endfacet
  facet normal 0 0 1
    outer loop
      vertex 11.053 0.881989 2.4
      vertex 10.162 0 2.4
      vertex 11.053 -1.1201 2.4
    endloop
  endfacet
  facet normal 0 0 1
    outer loop
      vertex 11.053 4.769 2.4
      vertex 9.28342 4.13325 2.4
      vertex 9.93991 2.11279 2.4
    endloop
  endfacet
  facet normal 0 0 1
    outer loop
      vertex 11.053 4.769 2.4
      vertex 8.22121 5.97306 2.4
      vertex 9.28342 4.13325 2.4
    endloop
  endfacet
  facet normal -0 -0 1
    outer loop
      vertex 8.22121 5.97306 2.4
      vertex 12.205 4.769 2.4
      vertex 6.79969 7.55182 2.4
    endloop
  endfacet
  facet normal 0 0 1
    outer loop
      vertex 15.7632 5.13321 2.4
      vertex 5.08099 8.80053 2.4
      vertex 15.151 5.20799 2.4
    endloop
  endfacet
  facet normal 0 0 1
    outer loop
      vertex 12.205 4.769 2.4
      vertex 8.22121 5.97306 2.4
      vertex 11.053 4.769 2.4
    endloop
  endfacet
  facet normal 0 0 1
    outer loop
      vertex 15.151 5.20799 2.4
      vertex 5.08099 8.80053 2.4
      vertex 6.79969 7.55182 2.4
    endloop
  endfacet
  facet normal -0 -0 1
    outer loop
      vertex 5.08099 8.80053 2.4
      vertex 22.2684 4.69422 2.4
      vertex 3.14022 9.66461 2.4
    endloop
  endfacet
  facet normal 0 0 1
    outer loop
      vertex 25.0182 -1.94441 2.4
      vertex 22.751 -1.76336 2.4
      vertex 23.9167 -3.5928 2.4
    endloop
  endfacet
  facet normal -0 0 1
    outer loop
      vertex 21.251 -2.85317 2.4
      vertex 23.9167 -3.5928 2.4
      vertex 22.751 -1.76336 2.4
    endloop
  endfacet
  facet normal 0 0 1
    outer loop
      vertex 23.9167 -3.5928 2.4
      vertex 21.251 -2.85317 2.4
      vertex 22.2684 -4.69422 2.4
    endloop
  endfacet
  facet normal -0 0 1
    outer loop
      vertex 19.3969 -2.85317 2.4
      vertex 22.2684 -4.69422 2.4
      vertex 21.251 -2.85317 2.4
    endloop
  endfacet
  facet normal -0 0 1
    outer loop
      vertex 17.2117 1.98544 2.4
      vertex 17.8969 1.76336 2.4
      vertex 17.2487 2.32611 2.4
    endloop
  endfacet
  facet normal 0 0 1
    outer loop
      vertex 17.15 1.64699 2.4
      vertex 17.8969 1.76336 2.4
      vertex 17.2117 1.98544 2.4
    endloop
  endfacet
  facet normal 0 0 1
    outer loop
      vertex 17.0632 1.31088 2.4
      vertex 17.8969 1.76336 2.4
      vertex 17.15 1.64699 2.4
    endloop
  endfacet
  facet normal 0 0 1
    outer loop
      vertex 16.9509 0.975875 2.4
      vertex 17.8969 1.76336 2.4
      vertex 17.0632 1.31088 2.4
    endloop
  endfacet
  facet normal -0 0 1
    outer loop
      vertex 17.133 -1.1201 2.4
      vertex 17.8969 -1.76336 2.4
      vertex 17.3239 0 2.4
    endloop
  endfacet
  facet normal 0 0 1
    outer loop
      vertex 17.133 -2.59911 2.4
      vertex 17.8969 -1.76336 2.4
      vertex 17.133 -1.1201 2.4
    endloop
  endfacet
  facet normal -0 0 1
    outer loop
      vertex 17.133 -2.59911 2.4
      vertex 19.3969 -2.85317 2.4
      vertex 17.8969 -1.76336 2.4
    endloop
  endfacet
  facet normal 0 0 1
    outer loop
      vertex 15.981 -5.2881 2.4
      vertex 19.3969 -2.85317 2.4
      vertex 17.133 -2.59911 2.4
    endloop
  endfacet
  facet normal 0 0 1
    outer loop
      vertex 15.981 -5.2881 2.4
      vertex 17.133 -2.59911 2.4
      vertex 15.981 -2.59911 2.4
    endloop
  endfacet
  facet normal 0 0 1
    outer loop
      vertex 19.3969 -2.85317 2.4
      vertex 15.981 -5.2881 2.4
      vertex 22.2684 -4.69422 2.4
    endloop
  endfacet
  facet normal 0 0 1
    outer loop
      vertex 11.053 -1.1201 2.4
      vertex 9.93991 -2.11279 2.4
      vertex 11.053 -2.8591 2.4
    endloop
  endfacet
  facet normal 0 0 1
    outer loop
      vertex 9.28342 -4.13325 2.4
      vertex 11.053 -2.8591 2.4
      vertex 9.93991 -2.11279 2.4
    endloop
  endfacet
  facet normal 0 0 1
    outer loop
      vertex 11.053 -2.8591 2.4
      vertex 9.28342 -4.13325 2.4
      vertex 14.649 -5.2881 2.4
    endloop
  endfacet
  facet normal 0 0 1
    outer loop
      vertex 8.22121 -5.97306 2.4
      vertex 14.649 -5.2881 2.4
      vertex 9.28342 -4.13325 2.4
    endloop
  endfacet
  facet normal 0 0 1
    outer loop
      vertex 6.79969 -7.55182 2.4
      vertex 14.649 -5.2881 2.4
      vertex 8.22121 -5.97306 2.4
    endloop
  endfacet
  facet normal 0 0 1
    outer loop
      vertex 5.08099 -8.80053 2.4
      vertex 14.649 -5.2881 2.4
      vertex 6.79969 -7.55182 2.4
    endloop
  endfacet
  facet normal -0 0 1
    outer loop
      vertex 14.649 -5.2881 2.4
      vertex 5.08099 -8.80053 2.4
      vertex 15.981 -5.2881 2.4
    endloop
  endfacet
  facet normal -0 0 1
    outer loop
      vertex 15.981 -5.2881 2.4
      vertex 5.08099 -8.80053 2.4
      vertex 22.2684 -4.69422 2.4
    endloop
  endfacet
  facet normal 0 0 1
    outer loop
      vertex 22.2684 -4.69422 2.4
      vertex 5.08099 -8.80053 2.4
      vertex 3.14022 -9.66461 2.4
    endloop
  endfacet
  facet normal 0 0 1
    outer loop
      vertex 14.893 -2.59911 2.4
      vertex 12.345 -2.5991 2.4
      vertex 14.893 -4.3131 2.4
    endloop
  endfacet
  facet normal 0.251495 -0.967859 0
    outer loop
      vertex 3.14022 -9.66461 0
      vertex 22.2684 -4.69422 2.4
      vertex 3.14022 -9.66461 2.4
    endloop
  endfacet
  facet normal 0.251495 -0.967859 0
    outer loop
      vertex 22.2684 -4.69422 2.4
      vertex 3.14022 -9.66461 0
      vertex 22.2684 -4.69422 0
    endloop
  endfacet
  facet normal 0.55557 -0.83147 0
    outer loop
      vertex 22.2684 -4.69422 0
      vertex 23.9167 -3.5928 2.4
      vertex 22.2684 -4.69422 2.4
    endloop
  endfacet
  facet normal 0.55557 -0.83147 0
    outer loop
      vertex 23.9167 -3.5928 2.4
      vertex 22.2684 -4.69422 0
      vertex 23.9167 -3.5928 0
    endloop
  endfacet
  facet normal 0.980785 -0.19509 0
    outer loop
      vertex 25.0182 -1.94441 2.4
      vertex 25.4049 0 0
      vertex 25.4049 0 2.4
    endloop
  endfacet
  facet normal 0.980785 -0.19509 0
    outer loop
      vertex 25.4049 0 0
      vertex 25.0182 -1.94441 2.4
      vertex 25.0182 -1.94441 0
    endloop
  endfacet
  facet normal -0.207911 -0.978148 0
    outer loop
      vertex -3.14022 -9.66461 0
      vertex -1.06221 -10.1063 4
      vertex -3.14022 -9.66461 4
    endloop
  endfacet
  facet normal -0.207911 -0.978148 -0
    outer loop
      vertex -1.06221 -10.1063 4
      vertex -3.14022 -9.66461 0
      vertex -1.06221 -10.1063 0
    endloop
  endfacet
  facet normal -0.587785 -0.809017 0
    outer loop
      vertex -6.79969 -7.55182 0
      vertex -5.08099 -8.80053 4
      vertex -6.79969 -7.55182 4
    endloop
  endfacet
  facet normal -0.587785 -0.809017 -0
    outer loop
      vertex -5.08099 -8.80053 4
      vertex -6.79969 -7.55182 0
      vertex -5.08099 -8.80053 0
    endloop
  endfacet
  facet normal -0.866025 -0.5 0
    outer loop
      vertex -8.22121 -5.97306 0
      vertex -9.28342 -4.13325 4
      vertex -9.28342 -4.13325 0
    endloop
  endfacet
  facet normal -0.866025 -0.5 0
    outer loop
      vertex -9.28342 -4.13325 4
      vertex -8.22121 -5.97306 0
      vertex -8.22121 -5.97306 4
    endloop
  endfacet
  facet normal 0.83147 -0.55557 0
    outer loop
      vertex 23.9167 -3.5928 2.4
      vertex 25.0182 -1.94441 0
      vertex 25.0182 -1.94441 2.4
    endloop
  endfacet
  facet normal 0.83147 -0.55557 0
    outer loop
      vertex 25.0182 -1.94441 0
      vertex 23.9167 -3.5928 2.4
      vertex 23.9167 -3.5928 0
    endloop
  endfacet
  facet normal -0.743145 -0.66913 0
    outer loop
      vertex -6.79969 -7.55182 0
      vertex -8.22121 -5.97306 4
      vertex -8.22121 -5.97306 0
    endloop
  endfacet
  facet normal -0.743145 -0.66913 0
    outer loop
      vertex -8.22121 -5.97306 4
      vertex -6.79969 -7.55182 0
      vertex -6.79969 -7.55182 4
    endloop
  endfacet
  facet normal 0.994522 -0.104529 0
    outer loop
      vertex 9.93991 -2.11279 4
      vertex 10.162 0 2.4
      vertex 10.162 0 4
    endloop
  endfacet
  facet normal 0.994522 -0.104529 0
    outer loop
      vertex 10.162 0 2.4
      vertex 9.93991 -2.11279 4
      vertex 9.93991 -2.11279 2.4
    endloop
  endfacet
  facet normal 0.951057 0.309017 0
    outer loop
      vertex 9.93991 2.11279 4
      vertex 9.28342 4.13325 2.4
      vertex 9.28342 4.13325 4
    endloop
  endfacet
  facet normal 0.951057 0.309017 0
    outer loop
      vertex 9.28342 4.13325 2.4
      vertex 9.93991 2.11279 4
      vertex 9.93991 2.11279 2.4
    endloop
  endfacet
  facet normal 0.994522 0.104529 0
    outer loop
      vertex 10.162 0 4
      vertex 9.93991 2.11279 2.4
      vertex 9.93991 2.11279 4
    endloop
  endfacet
  facet normal 0.994522 0.104529 0
    outer loop
      vertex 9.93991 2.11279 2.4
      vertex 10.162 0 4
      vertex 10.162 0 2.4
    endloop
  endfacet
  facet normal 0.406737 0.913545 -0
    outer loop
      vertex 5.08099 8.80053 2.4
      vertex 3.14022 9.66461 4
      vertex 5.08099 8.80053 4
    endloop
  endfacet
  facet normal 0.406737 0.913545 0
    outer loop
      vertex 3.14022 9.66461 4
      vertex 5.08099 8.80053 2.4
      vertex 3.14022 9.66461 2.4
    endloop
  endfacet
  facet normal 0 0 1
    outer loop
      vertex 7.16197 0 4
      vertex 10.162 0 4
      vertex 9.93991 2.11279 4
    endloop
  endfacet
  facet normal 0 0 1
    outer loop
      vertex 6.89639 1.93228 4
      vertex 9.93991 2.11279 4
      vertex 9.28342 4.13325 4
    endloop
  endfacet
  facet normal 0 0 1
    outer loop
      vertex 10.162 0 4
      vertex 7.16197 0 4
      vertex 9.93991 -2.11279 4
    endloop
  endfacet
  facet normal 0 0 1
    outer loop
      vertex 6.11933 3.72125 4
      vertex 9.28342 4.13325 4
      vertex 8.22121 5.97306 4
    endloop
  endfacet
  facet normal -0 0 1
    outer loop
      vertex 6.89639 -1.93228 4
      vertex 9.93991 -2.11279 4
      vertex 7.16197 0 4
    endloop
  endfacet
  facet normal 0 0 1
    outer loop
      vertex 9.93991 -2.11279 4
      vertex 6.89639 -1.93228 4
      vertex 9.28342 -4.13325 4
    endloop
  endfacet
  facet normal 0 0 1
    outer loop
      vertex 9.93991 2.11279 4
      vertex 6.89639 1.93228 4
      vertex 7.16197 0 4
    endloop
  endfacet
  facet normal 0 0 1
    outer loop
      vertex 4.88843 5.23423 4
      vertex 8.22121 5.97306 4
      vertex 6.79969 7.55182 4
    endloop
  endfacet
  facet normal 0 0 1
    outer loop
      vertex 9.28342 4.13325 4
      vertex 6.11933 3.72125 4
      vertex 6.89639 1.93228 4
    endloop
  endfacet
  facet normal 0 0 1
    outer loop
      vertex 4.88843 5.23423 4
      vertex 6.79969 7.55182 4
      vertex 5.08099 8.80053 4
    endloop
  endfacet
  facet normal 0 0 1
    outer loop
      vertex 8.22121 5.97306 4
      vertex 4.88843 5.23423 4
      vertex 6.11933 3.72125 4
    endloop
  endfacet
  facet normal 0 0 1
    outer loop
      vertex 5.08099 8.80053 4
      vertex 3.29497 6.35901 4
      vertex 4.88843 5.23423 4
    endloop
  endfacet
  facet normal 0 0 1
    outer loop
      vertex 3.14022 9.66461 4
      vertex 3.29497 6.35901 4
      vertex 5.08099 8.80053 4
    endloop
  endfacet
  facet normal 0 0 1
    outer loop
      vertex 3.14022 9.66461 4
      vertex 1.45715 7.01217 4
      vertex 3.29497 6.35901 4
    endloop
  endfacet
  facet normal 0 0 1
    outer loop
      vertex 1.06221 10.1063 4
      vertex 1.45715 7.01217 4
      vertex 3.14022 9.66461 4
    endloop
  endfacet
  facet normal 0 0 1
    outer loop
      vertex 1.06221 10.1063 4
      vertex -0.48875 7.14528 4
      vertex 1.45715 7.01217 4
    endloop
  endfacet
  facet normal -0 0 1
    outer loop
      vertex -1.06221 10.1063 4
      vertex -0.48875 7.14528 4
      vertex 1.06221 10.1063 4
    endloop
  endfacet
  facet normal 0 0 1
    outer loop
      vertex -1.06221 10.1063 4
      vertex -2.3984 6.74845 4
      vertex -0.48875 7.14528 4
    endloop
  endfacet
  facet normal -0 0 1
    outer loop
      vertex -3.14022 9.66461 4
      vertex -2.3984 6.74845 4
      vertex -1.06221 10.1063 4
    endloop
  endfacet
  facet normal -0 0 1
    outer loop
      vertex -5.08099 8.80053 4
      vertex -2.3984 6.74845 4
      vertex -3.14022 9.66461 4
    endloop
  endfacet
  facet normal 0 0 1
    outer loop
      vertex -2.3984 6.74845 4
      vertex -5.08099 8.80053 4
      vertex -4.13017 5.85112 4
    endloop
  endfacet
  facet normal -0 0 1
    outer loop
      vertex -6.79969 7.55182 4
      vertex -4.13017 5.85112 4
      vertex -5.08099 8.80053 4
    endloop
  endfacet
  facet normal 0 0 1
    outer loop
      vertex -4.13017 5.85112 4
      vertex -6.79969 7.55182 4
      vertex -5.55562 4.51983 4
    endloop
  endfacet
  facet normal -0 0 1
    outer loop
      vertex -8.22121 5.97306 4
      vertex -5.55562 4.51983 4
      vertex -6.79969 7.55182 4
    endloop
  endfacet
  facet normal 0 0 1
    outer loop
      vertex -5.55562 4.51983 4
      vertex -8.22121 5.97306 4
      vertex -6.56904 2.85334 4
    endloop
  endfacet
  facet normal 0 0 1
    outer loop
      vertex -9.93991 2.11279 4
      vertex -6.56904 2.85334 4
      vertex -9.28342 4.13325 4
    endloop
  endfacet
  facet normal -0 0 1
    outer loop
      vertex -9.28342 4.13325 4
      vertex -6.56904 2.85334 4
      vertex -8.22121 5.97306 4
    endloop
  endfacet
  facet normal -0 0 1
    outer loop
      vertex 6.11933 -3.72125 4
      vertex 9.28342 -4.13325 4
      vertex 6.89639 -1.93228 4
    endloop
  endfacet
  facet normal 0 0 1
    outer loop
      vertex 9.28342 -4.13325 4
      vertex 6.11933 -3.72125 4
      vertex 8.22121 -5.97306 4
    endloop
  endfacet
  facet normal -0 0 1
    outer loop
      vertex 4.88843 -5.23423 4
      vertex 8.22121 -5.97306 4
      vertex 6.11933 -3.72125 4
    endloop
  endfacet
  facet normal 0 0 1
    outer loop
      vertex 8.22121 -5.97306 4
      vertex 4.88843 -5.23423 4
      vertex 6.79969 -7.55182 4
    endloop
  endfacet
  facet normal 0 0 1
    outer loop
      vertex 6.79969 -7.55182 4
      vertex 4.88843 -5.23423 4
      vertex 5.08099 -8.80053 4
    endloop
  endfacet
  facet normal -0 0 1
    outer loop
      vertex 3.29497 -6.35901 4
      vertex 5.08099 -8.80053 4
      vertex 4.88843 -5.23423 4
    endloop
  endfacet
  facet normal 0 0 1
    outer loop
      vertex 3.29497 -6.35901 4
      vertex 3.14022 -9.66461 4
      vertex 5.08099 -8.80053 4
    endloop
  endfacet
  facet normal -0 0 1
    outer loop
      vertex 1.45715 -7.01217 4
      vertex 3.14022 -9.66461 4
      vertex 3.29497 -6.35901 4
    endloop
  endfacet
  facet normal 0 0 1
    outer loop
      vertex 1.45715 -7.01217 4
      vertex 1.06221 -10.1063 4
      vertex 3.14022 -9.66461 4
    endloop
  endfacet
  facet normal -0 0 1
    outer loop
      vertex -0.48875 -7.14528 4
      vertex 1.06221 -10.1063 4
      vertex 1.45715 -7.01217 4
    endloop
  endfacet
  facet normal 0 0 1
    outer loop
      vertex -0.48875 -7.14528 4
      vertex -1.06221 -10.1063 4
      vertex 1.06221 -10.1063 4
    endloop
  endfacet
  facet normal 0 0 1
    outer loop
      vertex -2.3984 -6.74845 4
      vertex -1.06221 -10.1063 4
      vertex -0.48875 -7.14528 4
    endloop
  endfacet
  facet normal 0 0 1
    outer loop
      vertex -2.3984 -6.74845 4
      vertex -3.14022 -9.66461 4
      vertex -1.06221 -10.1063 4
    endloop
  endfacet
  facet normal 0 0 1
    outer loop
      vertex -5.08099 -8.80053 4
      vertex -2.3984 -6.74845 4
      vertex -4.13017 -5.85112 4
    endloop
  endfacet
  facet normal 0 0 1
    outer loop
      vertex -2.3984 -6.74845 4
      vertex -5.08099 -8.80053 4
      vertex -3.14022 -9.66461 4
    endloop
  endfacet
  facet normal 0 0 1
    outer loop
      vertex -6.79969 -7.55182 4
      vertex -4.13017 -5.85112 4
      vertex -5.55562 -4.51983 4
    endloop
  endfacet
  facet normal 0 0 1
    outer loop
      vertex -8.22121 -5.97306 4
      vertex -5.55562 -4.51983 4
      vertex -6.56904 -2.85334 4
    endloop
  endfacet
  facet normal 0 0 1
    outer loop
      vertex -4.13017 -5.85112 4
      vertex -6.79969 -7.55182 4
      vertex -5.08099 -8.80053 4
    endloop
  endfacet
  facet normal -0 0 1
    outer loop
      vertex -9.93991 -2.11279 4
      vertex -6.56904 -2.85334 4
      vertex -7.09527 -0.975222 4
    endloop
  endfacet
  facet normal 0 0 1
    outer loop
      vertex -6.56904 2.85334 4
      vertex -9.93991 2.11279 4
      vertex -7.09527 0.975222 4
    endloop
  endfacet
  facet normal 0 0 1
    outer loop
      vertex -5.55562 -4.51983 4
      vertex -8.22121 -5.97306 4
      vertex -6.79969 -7.55182 4
    endloop
  endfacet
  facet normal 0 0 1
    outer loop
      vertex -10.162 0 4
      vertex -7.09527 0.975222 4
      vertex -9.93991 2.11279 4
    endloop
  endfacet
  facet normal 0 0 1
    outer loop
      vertex -6.56904 -2.85334 4
      vertex -9.28342 -4.13325 4
      vertex -8.22121 -5.97306 4
    endloop
  endfacet
  facet normal 0 0 1
    outer loop
      vertex -7.09527 0.975222 4
      vertex -10.162 0 4
      vertex -7.09527 -0.975222 4
    endloop
  endfacet
  facet normal 0 0 1
    outer loop
      vertex -6.56904 -2.85334 4
      vertex -9.93991 -2.11279 4
      vertex -9.28342 -4.13325 4
    endloop
  endfacet
  facet normal 0 0 1
    outer loop
      vertex -7.09527 -0.975222 4
      vertex -10.162 0 4
      vertex -9.93991 -2.11279 4
    endloop
  endfacet
  facet normal 0.743145 0.66913 0
    outer loop
      vertex 8.22121 5.97306 4
      vertex 6.79969 7.55182 2.4
      vertex 6.79969 7.55182 4
    endloop
  endfacet
  facet normal 0.743145 0.66913 0
    outer loop
      vertex 6.79969 7.55182 2.4
      vertex 8.22121 5.97306 4
      vertex 8.22121 5.97306 2.4
    endloop
  endfacet
  facet normal 0.406737 -0.913545 0
    outer loop
      vertex 3.14022 -9.66461 2.4
      vertex 5.08099 -8.80053 4
      vertex 3.14022 -9.66461 4
    endloop
  endfacet
  facet normal 0.406737 -0.913545 0
    outer loop
      vertex 5.08099 -8.80053 4
      vertex 3.14022 -9.66461 2.4
      vertex 5.08099 -8.80053 2.4
    endloop
  endfacet
  facet normal 0.743145 -0.66913 0
    outer loop
      vertex 6.79969 -7.55182 4
      vertex 8.22121 -5.97306 2.4
      vertex 8.22121 -5.97306 4
    endloop
  endfacet
  facet normal 0.743145 -0.66913 0
    outer loop
      vertex 8.22121 -5.97306 2.4
      vertex 6.79969 -7.55182 4
      vertex 6.79969 -7.55182 2.4
    endloop
  endfacet
  facet normal 0.951057 -0.309017 0
    outer loop
      vertex 9.28342 -4.13325 4
      vertex 9.93991 -2.11279 2.4
      vertex 9.93991 -2.11279 4
    endloop
  endfacet
  facet normal 0.951057 -0.309017 0
    outer loop
      vertex 9.93991 -2.11279 2.4
      vertex 9.28342 -4.13325 4
      vertex 9.28342 -4.13325 2.4
    endloop
  endfacet
  facet normal 0.866025 0.5 0
    outer loop
      vertex 9.28342 4.13325 4
      vertex 8.22121 5.97306 2.4
      vertex 8.22121 5.97306 4
    endloop
  endfacet
  facet normal 0.866025 0.5 0
    outer loop
      vertex 8.22121 5.97306 2.4
      vertex 9.28342 4.13325 4
      vertex 9.28342 4.13325 2.4
    endloop
  endfacet
  facet normal 0.587785 -0.809017 0
    outer loop
      vertex 5.08099 -8.80053 2.4
      vertex 6.79969 -7.55182 4
      vertex 5.08099 -8.80053 4
    endloop
  endfacet
  facet normal 0.587785 -0.809017 0
    outer loop
      vertex 6.79969 -7.55182 4
      vertex 5.08099 -8.80053 2.4
      vertex 6.79969 -7.55182 2.4
    endloop
  endfacet
  facet normal 0.866025 -0.5 0
    outer loop
      vertex 8.22121 -5.97306 4
      vertex 9.28342 -4.13325 2.4
      vertex 9.28342 -4.13325 4
    endloop
  endfacet
  facet normal 0.866025 -0.5 0
    outer loop
      vertex 9.28342 -4.13325 2.4
      vertex 8.22121 -5.97306 4
      vertex 8.22121 -5.97306 2.4
    endloop
  endfacet
  facet normal 0.587785 0.809017 -0
    outer loop
      vertex 6.79969 7.55182 2.4
      vertex 5.08099 8.80053 4
      vertex 6.79969 7.55182 4
    endloop
  endfacet
  facet normal 0.587785 0.809017 0
    outer loop
      vertex 5.08099 8.80053 4
      vertex 6.79969 7.55182 2.4
      vertex 5.08099 8.80053 2.4
    endloop
  endfacet
  facet normal -0.990686 -0.136167 0
    outer loop
      vertex 7.16197 0 0
      vertex 6.89639 1.93228 4
      vertex 6.89639 1.93228 0
    endloop
  endfacet
  facet normal -0.990686 -0.136167 0
    outer loop
      vertex 6.89639 1.93228 4
      vertex 7.16197 0 0
      vertex 7.16197 0 4
    endloop
  endfacet
  facet normal 1 -0 0
    outer loop
      vertex -7.09527 -0.975222 4
      vertex -7.09527 0.975222 0
      vertex -7.09527 0.975222 4
    endloop
  endfacet
  facet normal 1 0 0
    outer loop
      vertex -7.09527 0.975222 0
      vertex -7.09527 -0.975222 4
      vertex -7.09527 -0.975222 0
    endloop
  endfacet
  facet normal -0.0682427 -0.997669 0
    outer loop
      vertex -0.48875 7.14528 0
      vertex 1.45715 7.01217 4
      vertex -0.48875 7.14528 4
    endloop
  endfacet
  facet normal -0.0682427 -0.997669 -0
    outer loop
      vertex 1.45715 7.01217 4
      vertex -0.48875 7.14528 0
      vertex 1.45715 7.01217 0
    endloop
  endfacet
  facet normal -0.0682427 0.997669 0
    outer loop
      vertex 1.45715 -7.01217 0
      vertex -0.48875 -7.14528 4
      vertex 1.45715 -7.01217 4
    endloop
  endfacet
  facet normal -0.0682427 0.997669 0
    outer loop
      vertex -0.48875 -7.14528 4
      vertex 1.45715 -7.01217 0
      vertex -0.48875 -7.14528 0
    endloop
  endfacet
  facet normal -0.775711 0.631088 0
    outer loop
      vertex 4.88843 -5.23423 0
      vertex 6.11933 -3.72125 4
      vertex 6.11933 -3.72125 0
    endloop
  endfacet
  facet normal -0.775711 0.631088 0
    outer loop
      vertex 6.11933 -3.72125 4
      vertex 4.88843 -5.23423 0
      vertex 4.88843 -5.23423 4
    endloop
  endfacet
  facet normal -0.775711 -0.631088 0
    outer loop
      vertex 6.11933 3.72125 0
      vertex 4.88843 5.23423 4
      vertex 4.88843 5.23423 0
    endloop
  endfacet
  facet normal -0.775711 -0.631088 0
    outer loop
      vertex 4.88843 5.23423 4
      vertex 6.11933 3.72125 0
      vertex 6.11933 3.72125 4
    endloop
  endfacet
  facet normal -0.917211 -0.398401 0
    outer loop
      vertex 6.89639 1.93228 0
      vertex 6.11933 3.72125 4
      vertex 6.11933 3.72125 0
    endloop
  endfacet
  facet normal -0.917211 -0.398401 0
    outer loop
      vertex 6.11933 3.72125 4
      vertex 6.89639 1.93228 0
      vertex 6.89639 1.93228 4
    endloop
  endfacet
  facet normal -0.57668 -0.81697 0
    outer loop
      vertex 3.29497 6.35901 0
      vertex 4.88843 5.23423 4
      vertex 3.29497 6.35901 4
    endloop
  endfacet
  facet normal -0.57668 -0.81697 -0
    outer loop
      vertex 4.88843 5.23423 4
      vertex 3.29497 6.35901 0
      vertex 4.88843 5.23423 0
    endloop
  endfacet
  facet normal 0.682553 -0.730836 0
    outer loop
      vertex -5.55562 4.51983 0
      vertex -4.13017 5.85112 4
      vertex -5.55562 4.51983 4
    endloop
  endfacet
  facet normal 0.682553 -0.730836 0
    outer loop
      vertex -4.13017 5.85112 4
      vertex -5.55562 4.51983 0
      vertex -4.13017 5.85112 0
    endloop
  endfacet
  facet normal 0.203456 -0.979084 0
    outer loop
      vertex -2.3984 6.74845 0
      vertex -0.48875 7.14528 4
      vertex -2.3984 6.74845 4
    endloop
  endfacet
  facet normal 0.203456 -0.979084 0
    outer loop
      vertex -0.48875 7.14528 4
      vertex -2.3984 6.74845 0
      vertex -0.48875 7.14528 0
    endloop
  endfacet
  facet normal -0.33488 -0.942261 0
    outer loop
      vertex 1.45715 7.01217 0
      vertex 3.29497 6.35901 4
      vertex 1.45715 7.01217 4
    endloop
  endfacet
  facet normal -0.33488 -0.942261 -0
    outer loop
      vertex 3.29497 6.35901 4
      vertex 1.45715 7.01217 0
      vertex 3.29497 6.35901 0
    endloop
  endfacet
  facet normal 0.854419 -0.519584 0
    outer loop
      vertex -6.56904 2.85334 4
      vertex -5.55562 4.51983 0
      vertex -5.55562 4.51983 4
    endloop
  endfacet
  facet normal 0.854419 -0.519584 0
    outer loop
      vertex -5.55562 4.51983 0
      vertex -6.56904 2.85334 4
      vertex -6.56904 2.85334 0
    endloop
  endfacet
  facet normal 0.962917 -0.269797 0
    outer loop
      vertex -7.09527 0.975222 4
      vertex -6.56904 2.85334 0
      vertex -6.56904 2.85334 4
    endloop
  endfacet
  facet normal 0.962917 -0.269797 0
    outer loop
      vertex -6.56904 2.85334 0
      vertex -7.09527 0.975222 4
      vertex -7.09527 0.975222 0
    endloop
  endfacet
  facet normal 0.460065 -0.887885 0
    outer loop
      vertex -4.13017 5.85112 0
      vertex -2.3984 6.74845 4
      vertex -4.13017 5.85112 4
    endloop
  endfacet
  facet normal 0.460065 -0.887885 0
    outer loop
      vertex -2.3984 6.74845 4
      vertex -4.13017 5.85112 0
      vertex -2.3984 6.74845 0
    endloop
  endfacet
  facet normal -0.990686 0.136167 0
    outer loop
      vertex 6.89639 -1.93228 0
      vertex 7.16197 0 4
      vertex 7.16197 0 0
    endloop
  endfacet
  facet normal -0.990686 0.136167 0
    outer loop
      vertex 7.16197 0 4
      vertex 6.89639 -1.93228 0
      vertex 6.89639 -1.93228 4
    endloop
  endfacet
  facet normal 0.962917 0.269797 0
    outer loop
      vertex -6.56904 -2.85334 4
      vertex -7.09527 -0.975222 0
      vertex -7.09527 -0.975222 4
    endloop
  endfacet
  facet normal 0.962917 0.269797 0
    outer loop
      vertex -7.09527 -0.975222 0
      vertex -6.56904 -2.85334 4
      vertex -6.56904 -2.85334 0
    endloop
  endfacet
  facet normal -0.33488 0.942261 0
    outer loop
      vertex 3.29497 -6.35901 0
      vertex 1.45715 -7.01217 4
      vertex 3.29497 -6.35901 4
    endloop
  endfacet
  facet normal -0.33488 0.942261 0
    outer loop
      vertex 1.45715 -7.01217 4
      vertex 3.29497 -6.35901 0
      vertex 1.45715 -7.01217 0
    endloop
  endfacet
  facet normal -0.917211 0.398401 0
    outer loop
      vertex 6.11933 -3.72125 0
      vertex 6.89639 -1.93228 4
      vertex 6.89639 -1.93228 0
    endloop
  endfacet
  facet normal -0.917211 0.398401 0
    outer loop
      vertex 6.89639 -1.93228 4
      vertex 6.11933 -3.72125 0
      vertex 6.11933 -3.72125 4
    endloop
  endfacet
  facet normal 0.460065 0.887885 -0
    outer loop
      vertex -2.3984 -6.74845 0
      vertex -4.13017 -5.85112 4
      vertex -2.3984 -6.74845 4
    endloop
  endfacet
  facet normal 0.460065 0.887885 0
    outer loop
      vertex -4.13017 -5.85112 4
      vertex -2.3984 -6.74845 0
      vertex -4.13017 -5.85112 0
    endloop
  endfacet
  facet normal 0.854419 0.519584 0
    outer loop
      vertex -5.55562 -4.51983 4
      vertex -6.56904 -2.85334 0
      vertex -6.56904 -2.85334 4
    endloop
  endfacet
  facet normal 0.854419 0.519584 0
    outer loop
      vertex -6.56904 -2.85334 0
      vertex -5.55562 -4.51983 4
      vertex -5.55562 -4.51983 0
    endloop
  endfacet
  facet normal 0.682553 0.730836 -0
    outer loop
      vertex -4.13017 -5.85112 0
      vertex -5.55562 -4.51983 4
      vertex -4.13017 -5.85112 4
    endloop
  endfacet
  facet normal 0.682553 0.730836 0
    outer loop
      vertex -5.55562 -4.51983 4
      vertex -4.13017 -5.85112 0
      vertex -5.55562 -4.51983 0
    endloop
  endfacet
  facet normal -0.57668 0.81697 0
    outer loop
      vertex 4.88843 -5.23423 0
      vertex 3.29497 -6.35901 4
      vertex 4.88843 -5.23423 4
    endloop
  endfacet
  facet normal -0.57668 0.81697 0
    outer loop
      vertex 3.29497 -6.35901 4
      vertex 4.88843 -5.23423 0
      vertex 3.29497 -6.35901 0
    endloop
  endfacet
  facet normal 0.203456 0.979084 -0
    outer loop
      vertex -0.48875 -7.14528 0
      vertex -2.3984 -6.74845 4
      vertex -0.48875 -7.14528 4
    endloop
  endfacet
  facet normal 0.203456 0.979084 0
    outer loop
      vertex -2.3984 -6.74845 4
      vertex -0.48875 -7.14528 0
      vertex -2.3984 -6.74845 0
    endloop
  endfacet
  facet normal -0.951057 -0.309017 0
    outer loop
      vertex 23.3239 0 0
      vertex 22.751 1.76336 2.4
      vertex 22.751 1.76336 0
    endloop
  endfacet
  facet normal -0.951057 -0.309017 0
    outer loop
      vertex 22.751 1.76336 2.4
      vertex 23.3239 0 0
      vertex 23.3239 0 2.4
    endloop
  endfacet
  facet normal 0.951057 -0.309017 0
    outer loop
      vertex 17.3239 0 2.4
      vertex 17.8969 1.76336 0
      vertex 17.8969 1.76336 2.4
    endloop
  endfacet
  facet normal 0.951057 -0.309017 0
    outer loop
      vertex 17.8969 1.76336 0
      vertex 17.3239 0 2.4
      vertex 17.3239 0 0
    endloop
  endfacet
  facet normal 0 -1 0
    outer loop
      vertex 19.3969 2.85317 0
      vertex 21.251 2.85317 2.4
      vertex 19.3969 2.85317 2.4
    endloop
  endfacet
  facet normal 0 -1 -0
    outer loop
      vertex 21.251 2.85317 2.4
      vertex 19.3969 2.85317 0
      vertex 21.251 2.85317 0
    endloop
  endfacet
  facet normal -0.587785 -0.809017 0
    outer loop
      vertex 21.251 2.85317 0
      vertex 22.751 1.76336 2.4
      vertex 21.251 2.85317 2.4
    endloop
  endfacet
  facet normal -0.587785 -0.809017 -0
    outer loop
      vertex 22.751 1.76336 2.4
      vertex 21.251 2.85317 0
      vertex 22.751 1.76336 0
    endloop
  endfacet
  facet normal 0.587785 -0.809017 0
    outer loop
      vertex 17.8969 1.76336 0
      vertex 19.3969 2.85317 2.4
      vertex 17.8969 1.76336 2.4
    endloop
  endfacet
  facet normal 0.587785 -0.809017 0
    outer loop
      vertex 19.3969 2.85317 2.4
      vertex 17.8969 1.76336 0
      vertex 19.3969 2.85317 0
    endloop
  endfacet
  facet normal -0.587785 0.809017 0
    outer loop
      vertex 22.751 -1.76336 0
      vertex 21.251 -2.85317 2.4
      vertex 22.751 -1.76336 2.4
    endloop
  endfacet
  facet normal -0.587785 0.809017 0
    outer loop
      vertex 21.251 -2.85317 2.4
      vertex 22.751 -1.76336 0
      vertex 21.251 -2.85317 0
    endloop
  endfacet
  facet normal -0.951057 0.309017 0
    outer loop
      vertex 22.751 -1.76336 0
      vertex 23.3239 0 2.4
      vertex 23.3239 0 0
    endloop
  endfacet
  facet normal -0.951057 0.309017 0
    outer loop
      vertex 23.3239 0 2.4
      vertex 22.751 -1.76336 0
      vertex 22.751 -1.76336 2.4
    endloop
  endfacet
  facet normal 0.951057 0.309017 0
    outer loop
      vertex 17.8969 -1.76336 2.4
      vertex 17.3239 0 0
      vertex 17.3239 0 2.4
    endloop
  endfacet
  facet normal 0.951057 0.309017 0
    outer loop
      vertex 17.3239 0 0
      vertex 17.8969 -1.76336 2.4
      vertex 17.8969 -1.76336 0
    endloop
  endfacet
  facet normal 0 1 -0
    outer loop
      vertex 21.251 -2.85317 0
      vertex 19.3969 -2.85317 2.4
      vertex 21.251 -2.85317 2.4
    endloop
  endfacet
  facet normal 0 1 0
    outer loop
      vertex 19.3969 -2.85317 2.4
      vertex 21.251 -2.85317 0
      vertex 19.3969 -2.85317 0
    endloop
  endfacet
  facet normal 0.587785 0.809017 -0
    outer loop
      vertex 19.3969 -2.85317 0
      vertex 17.8969 -1.76336 2.4
      vertex 19.3969 -2.85317 2.4
    endloop
  endfacet
  facet normal 0.587785 0.809017 0
    outer loop
      vertex 17.8969 -1.76336 2.4
      vertex 19.3969 -2.85317 0
      vertex 17.8969 -1.76336 0
    endloop
  endfacet
  facet normal 0 0 1
    outer loop
      vertex 14.893 -1.1201 1.6
      vertex 12.345 -2.5991 1.6
      vertex 14.893 -2.59911 1.6
    endloop
  endfacet
  facet normal 0 -0 1
    outer loop
      vertex 12.345 -2.5991 1.6
      vertex 14.893 -1.1201 1.6
      vertex 11.053 -1.1201 1.6
    endloop
  endfacet
  facet normal 0 0 1
    outer loop
      vertex 14.893 -1.1201 1.6
      vertex 15.981 -1.1201 1.6
      vertex 15.981 -0.255096 1.6
    endloop
  endfacet
  facet normal 0 0 1
    outer loop
      vertex 15.981 -1.1201 1.6
      vertex 14.893 -1.1201 1.6
      vertex 15.981 -2.59911 1.6
    endloop
  endfacet
  facet normal 0 0 1
    outer loop
      vertex 14.893 -1.1201 1.6
      vertex 15.981 -0.255096 1.6
      vertex 14.893 -0.255096 1.6
    endloop
  endfacet
  facet normal 0 0 1
    outer loop
      vertex 15.981 -2.59911 1.6
      vertex 14.893 -1.1201 1.6
      vertex 14.893 -2.59911 1.6
    endloop
  endfacet
  facet normal 0 0 1
    outer loop
      vertex 14.893 -4.3131 1.6
      vertex 15.981 -2.59911 1.6
      vertex 14.893 -2.59911 1.6
    endloop
  endfacet
  facet normal 0 0 1
    outer loop
      vertex 15.981 -2.59911 1.6
      vertex 14.893 -4.3131 1.6
      vertex 15.981 -5.2881 1.6
    endloop
  endfacet
  facet normal 0 0 1
    outer loop
      vertex 14.893 -4.3131 1.6
      vertex 14.649 -5.2881 1.6
      vertex 15.981 -5.2881 1.6
    endloop
  endfacet
  facet normal 0 0 1
    outer loop
      vertex 12.345 -2.5991 1.6
      vertex 14.649 -5.2881 1.6
      vertex 14.893 -4.3131 1.6
    endloop
  endfacet
  facet normal 0 0 1
    outer loop
      vertex 11.053 -2.8591 1.6
      vertex 12.345 -2.5991 1.6
      vertex 11.053 -1.1201 1.6
    endloop
  endfacet
  facet normal 0 0 1
    outer loop
      vertex 12.345 -2.5991 1.6
      vertex 11.053 -2.8591 1.6
      vertex 14.649 -5.2881 1.6
    endloop
  endfacet
  facet normal -0 0 1
    outer loop
      vertex 15.981 -1.1201 1.6
      vertex 17.133 -2.59911 1.6
      vertex 17.133 -1.1201 1.6
    endloop
  endfacet
  facet normal 0 0 1
    outer loop
      vertex 17.133 -2.59911 1.6
      vertex 15.981 -1.1201 1.6
      vertex 15.981 -2.59911 1.6
    endloop
  endfacet
  facet normal 0 0 1
    outer loop
      vertex 12.205 4.769 1.6
      vertex 11.053 4.769 1.6
      vertex 12.205 2.129 1.6
    endloop
  endfacet
  facet normal 0 0 1
    outer loop
      vertex 17.261 2.66899 1.6
      vertex 16.1423 2.77344 1.6
      vertex 16.173 2.42099 1.6
    endloop
  endfacet
  facet normal 0 0 1
    outer loop
      vertex 16.701 4.53499 1.6
      vertex 16.0503 3.0721 1.6
      vertex 16.1423 2.77344 1.6
    endloop
  endfacet
  facet normal 0 0 1
    outer loop
      vertex 16.701 4.53499 1.6
      vertex 15.897 3.31699 1.6
      vertex 16.0503 3.0721 1.6
    endloop
  endfacet
  facet normal 0 0 1
    outer loop
      vertex 15.4419 3.60767 1.6
      vertex 16.2799 4.90887 1.6
      vertex 15.7632 5.13321 1.6
    endloop
  endfacet
  facet normal 0 0 1
    outer loop
      vertex 16.701 4.53499 1.6
      vertex 15.6912 3.49866 1.6
      vertex 15.897 3.31699 1.6
    endloop
  endfacet
  facet normal 0 0 1
    outer loop
      vertex 16.2799 4.90887 1.6
      vertex 15.4419 3.60767 1.6
      vertex 15.6912 3.49866 1.6
    endloop
  endfacet
  facet normal 0 0 1
    outer loop
      vertex 15.149 3.644 1.6
      vertex 15.7632 5.13321 1.6
      vertex 15.151 5.20799 1.6
    endloop
  endfacet
  facet normal 0 0 1
    outer loop
      vertex 15.7632 5.13321 1.6
      vertex 15.149 3.644 1.6
      vertex 15.4419 3.60767 1.6
    endloop
  endfacet
  facet normal -0 0 1
    outer loop
      vertex 14.5346 5.13933 1.6
      vertex 15.149 3.644 1.6
      vertex 15.151 5.20799 1.6
    endloop
  endfacet
  facet normal 0 0 1
    outer loop
      vertex 15.149 3.644 1.6
      vertex 14.5346 5.13933 1.6
      vertex 14.8541 3.60767 1.6
    endloop
  endfacet
  facet normal -0 0 1
    outer loop
      vertex 14.0159 4.93332 1.6
      vertex 14.8541 3.60767 1.6
      vertex 14.5346 5.13933 1.6
    endloop
  endfacet
  facet normal 0 0 1
    outer loop
      vertex 14.8541 3.60767 1.6
      vertex 14.0159 4.93332 1.6
      vertex 14.6041 3.49866 1.6
    endloop
  endfacet
  facet normal -0 0 1
    outer loop
      vertex 13.595 4.59 1.6
      vertex 14.6041 3.49866 1.6
      vertex 14.0159 4.93332 1.6
    endloop
  endfacet
  facet normal -0 0 1
    outer loop
      vertex 13.285 4.12399 1.6
      vertex 14.6041 3.49866 1.6
      vertex 13.595 4.59 1.6
    endloop
  endfacet
  facet normal -0 0 1
    outer loop
      vertex 13.099 3.54866 1.6
      vertex 14.399 3.31699 1.6
      vertex 13.285 4.12399 1.6
    endloop
  endfacet
  facet normal 0 0 1
    outer loop
      vertex 14.6041 3.49866 1.6
      vertex 13.285 4.12399 1.6
      vertex 14.399 3.31699 1.6
    endloop
  endfacet
  facet normal -0 0 1
    outer loop
      vertex 16.173 2.42099 1.6
      vertex 17.2487 2.32611 1.6
      vertex 17.261 2.66899 1.6
    endloop
  endfacet
  facet normal -0 0 1
    outer loop
      vertex 16.1423 2.77344 1.6
      vertex 17.261 2.66899 1.6
      vertex 17.1988 3.407 1.6
    endloop
  endfacet
  facet normal 0 0 1
    outer loop
      vertex 16.157 2.15266 1.6
      vertex 17.2487 2.32611 1.6
      vertex 16.173 2.42099 1.6
    endloop
  endfacet
  facet normal 0 0 1
    outer loop
      vertex 17.2487 2.32611 1.6
      vertex 16.157 2.15266 1.6
      vertex 17.2117 1.98544 1.6
    endloop
  endfacet
  facet normal 0 0 1
    outer loop
      vertex 16.1423 2.77344 1.6
      vertex 17.1988 3.407 1.6
      vertex 17.0121 4.02899 1.6
    endloop
  endfacet
  facet normal 0 0 1
    outer loop
      vertex 16.109 1.87298 1.6
      vertex 17.2117 1.98544 1.6
      vertex 16.157 2.15266 1.6
    endloop
  endfacet
  facet normal 0 0 1
    outer loop
      vertex 17.2117 1.98544 1.6
      vertex 16.109 1.87298 1.6
      vertex 17.15 1.64699 1.6
    endloop
  endfacet
  facet normal 0 0 1
    outer loop
      vertex 16.1423 2.77344 1.6
      vertex 17.0121 4.02899 1.6
      vertex 16.701 4.53499 1.6
    endloop
  endfacet
  facet normal 0 0 1
    outer loop
      vertex 15.6912 3.49866 1.6
      vertex 16.701 4.53499 1.6
      vertex 16.2799 4.90887 1.6
    endloop
  endfacet
  facet normal 0 0 1
    outer loop
      vertex 17.15 1.64699 1.6
      vertex 16.109 1.87298 1.6
      vertex 17.0632 1.31088 1.6
    endloop
  endfacet
  facet normal -0 0 1
    outer loop
      vertex 16.029 1.58198 1.6
      vertex 17.0632 1.31088 1.6
      vertex 16.109 1.87298 1.6
    endloop
  endfacet
  facet normal 0 0 1
    outer loop
      vertex 17.0632 1.31088 1.6
      vertex 16.029 1.58198 1.6
      vertex 16.9509 0.975875 1.6
    endloop
  endfacet
  facet normal -0 0 1
    outer loop
      vertex 15.917 1.28021 1.6
      vertex 16.9509 0.975875 1.6
      vertex 16.029 1.58198 1.6
    endloop
  endfacet
  facet normal 0 0 1
    outer loop
      vertex 16.9509 0.975875 1.6
      vertex 15.917 1.28021 1.6
      vertex 16.813 0.641997 1.6
    endloop
  endfacet
  facet normal -0 0 1
    outer loop
      vertex 15.773 0.966887 1.6
      vertex 16.813 0.641997 1.6
      vertex 15.917 1.28021 1.6
    endloop
  endfacet
  facet normal 0 0 1
    outer loop
      vertex 16.813 0.641997 1.6
      vertex 15.773 0.966887 1.6
      vertex 15.597 0.641997 1.6
    endloop
  endfacet
  facet normal 0 0 1
    outer loop
      vertex 14.399 3.31699 1.6
      vertex 13.099 3.54866 1.6
      vertex 14.2468 3.0721 1.6
    endloop
  endfacet
  facet normal 0 0 1
    outer loop
      vertex 13.037 2.864 1.6
      vertex 14.2468 3.0721 1.6
      vertex 13.099 3.54866 1.6
    endloop
  endfacet
  facet normal 0 0 1
    outer loop
      vertex 14.2468 3.0721 1.6
      vertex 13.037 2.864 1.6
      vertex 14.1555 2.77344 1.6
    endloop
  endfacet
  facet normal 0 -0 1
    outer loop
      vertex 13.04 2.73555 1.6
      vertex 14.1555 2.77344 1.6
      vertex 13.037 2.864 1.6
    endloop
  endfacet
  facet normal 0 -0 1
    outer loop
      vertex 13.049 2.61021 1.6
      vertex 14.1555 2.77344 1.6
      vertex 13.04 2.73555 1.6
    endloop
  endfacet
  facet normal 0 0 1
    outer loop
      vertex 14.1555 2.77344 1.6
      vertex 13.049 2.61021 1.6
      vertex 14.125 2.42099 1.6
    endloop
  endfacet
  facet normal -0 -0 1
    outer loop
      vertex 13.064 2.48799 1.6
      vertex 14.125 2.42099 1.6
      vertex 13.049 2.61021 1.6
    endloop
  endfacet
  facet normal 0 -0 1
    outer loop
      vertex 13.0845 2.3681 1.6
      vertex 14.125 2.42099 1.6
      vertex 13.064 2.48799 1.6
    endloop
  endfacet
  facet normal 0 0 1
    outer loop
      vertex 11.053 0.881989 1.6
      vertex 14.3897 1.16821 1.6
      vertex 13.14 2.129 1.6
    endloop
  endfacet
  facet normal 0 0 1
    outer loop
      vertex 11.053 0.881989 1.6
      vertex 13.14 2.129 1.6
      vertex 12.205 2.129 1.6
    endloop
  endfacet
  facet normal 0 0 1
    outer loop
      vertex 14.3897 1.16821 1.6
      vertex 11.053 0.881989 1.6
      vertex 14.509 0.881988 1.6
    endloop
  endfacet
  facet normal 0 0 1
    outer loop
      vertex 11.053 0.881989 1.6
      vertex 12.205 2.129 1.6
      vertex 11.053 4.769 1.6
    endloop
  endfacet
  facet normal 0 0 1
    outer loop
      vertex 14.293 1.44154 1.6
      vertex 13.14 2.129 1.6
      vertex 14.3897 1.16821 1.6
    endloop
  endfacet
  facet normal 0 -0 1
    outer loop
      vertex 13.1098 2.24844 1.6
      vertex 14.125 2.42099 1.6
      vertex 13.0845 2.3681 1.6
    endloop
  endfacet
  facet normal 0 -0 1
    outer loop
      vertex 13.14 2.129 1.6
      vertex 14.125 2.42099 1.6
      vertex 13.1098 2.24844 1.6
    endloop
  endfacet
  facet normal 0 0 1
    outer loop
      vertex 14.219 1.702 1.6
      vertex 13.14 2.129 1.6
      vertex 14.293 1.44154 1.6
    endloop
  endfacet
  facet normal 0 0 1
    outer loop
      vertex 14.1668 1.95166 1.6
      vertex 13.14 2.129 1.6
      vertex 14.219 1.702 1.6
    endloop
  endfacet
  facet normal 0 0 1
    outer loop
      vertex 14.1355 2.19133 1.6
      vertex 13.14 2.129 1.6
      vertex 14.1668 1.95166 1.6
    endloop
  endfacet
  facet normal 0 0 1
    outer loop
      vertex 14.125 2.42099 1.6
      vertex 13.14 2.129 1.6
      vertex 14.1355 2.19133 1.6
    endloop
  endfacet
  facet normal -1 0 0
    outer loop
      vertex 15.981 -1.1201 1.6
      vertex 15.981 -0.255096 2.4
      vertex 15.981 -0.255096 1.6
    endloop
  endfacet
  facet normal -1 -0 0
    outer loop
      vertex 15.981 -0.255096 2.4
      vertex 15.981 -1.1201 1.6
      vertex 15.981 -1.1201 2.4
    endloop
  endfacet
  facet normal 0 -1 0
    outer loop
      vertex 14.893 -0.255096 1.6
      vertex 15.981 -0.255096 2.4
      vertex 14.893 -0.255096 2.4
    endloop
  endfacet
  facet normal 0 -1 -0
    outer loop
      vertex 15.981 -0.255096 2.4
      vertex 14.893 -0.255096 1.6
      vertex 15.981 -0.255096 1.6
    endloop
  endfacet
  facet normal 1 -0 0
    outer loop
      vertex 14.893 -1.1201 2.4
      vertex 14.893 -0.255096 1.6
      vertex 14.893 -0.255096 2.4
    endloop
  endfacet
  facet normal 1 0 0
    outer loop
      vertex 14.893 -0.255096 1.6
      vertex 14.893 -1.1201 2.4
      vertex 14.893 -1.1201 1.6
    endloop
  endfacet
  facet normal -2.48354e-07 -1 0
    outer loop
      vertex 11.053 -1.1201 1.6
      vertex 14.893 -1.1201 2.4
      vertex 11.053 -1.1201 2.4
    endloop
  endfacet
  facet normal -2.48354e-07 -1 -0
    outer loop
      vertex 14.893 -1.1201 2.4
      vertex 11.053 -1.1201 1.6
      vertex 14.893 -1.1201 1.6
    endloop
  endfacet
  facet normal 1 -0 0
    outer loop
      vertex 11.053 -2.8591 2.4
      vertex 11.053 -1.1201 1.6
      vertex 11.053 -1.1201 2.4
    endloop
  endfacet
  facet normal 1 0 0
    outer loop
      vertex 11.053 -1.1201 1.6
      vertex 11.053 -2.8591 2.4
      vertex 11.053 -2.8591 1.6
    endloop
  endfacet
  facet normal 0.559745 0.828665 -0
    outer loop
      vertex 14.649 -5.2881 1.6
      vertex 11.053 -2.8591 2.4
      vertex 14.649 -5.2881 2.4
    endloop
  endfacet
  facet normal 0.559745 0.828665 0
    outer loop
      vertex 11.053 -2.8591 2.4
      vertex 14.649 -5.2881 1.6
      vertex 11.053 -2.8591 1.6
    endloop
  endfacet
  facet normal 0 1 -0
    outer loop
      vertex 15.981 -5.2881 1.6
      vertex 14.649 -5.2881 2.4
      vertex 15.981 -5.2881 2.4
    endloop
  endfacet
  facet normal 0 1 0
    outer loop
      vertex 14.649 -5.2881 2.4
      vertex 15.981 -5.2881 1.6
      vertex 14.649 -5.2881 1.6
    endloop
  endfacet
  facet normal -1 0 0
    outer loop
      vertex 15.981 -5.2881 1.6
      vertex 15.981 -2.59911 2.4
      vertex 15.981 -2.59911 1.6
    endloop
  endfacet
  facet normal -1 -0 0
    outer loop
      vertex 15.981 -2.59911 2.4
      vertex 15.981 -5.2881 1.6
      vertex 15.981 -5.2881 2.4
    endloop
  endfacet
  facet normal 0 1 -0
    outer loop
      vertex 17.133 -2.59911 1.6
      vertex 15.981 -2.59911 2.4
      vertex 17.133 -2.59911 2.4
    endloop
  endfacet
  facet normal 0 1 0
    outer loop
      vertex 15.981 -2.59911 2.4
      vertex 17.133 -2.59911 1.6
      vertex 15.981 -2.59911 1.6
    endloop
  endfacet
  facet normal -1 0 0
    outer loop
      vertex 17.133 -2.59911 1.6
      vertex 17.133 -1.1201 2.4
      vertex 17.133 -1.1201 1.6
    endloop
  endfacet
  facet normal -1 -0 0
    outer loop
      vertex 17.133 -1.1201 2.4
      vertex 17.133 -2.59911 1.6
      vertex 17.133 -2.59911 2.4
    endloop
  endfacet
  facet normal 0 -1 0
    outer loop
      vertex 15.981 -1.1201 1.6
      vertex 17.133 -1.1201 2.4
      vertex 15.981 -1.1201 2.4
    endloop
  endfacet
  facet normal 0 -1 -0
    outer loop
      vertex 17.133 -1.1201 2.4
      vertex 15.981 -1.1201 1.6
      vertex 17.133 -1.1201 1.6
    endloop
  endfacet
  facet normal -0.558152 -0.829739 0
    outer loop
      vertex 12.345 -2.5991 1.6
      vertex 14.893 -4.3131 2.4
      vertex 12.345 -2.5991 2.4
    endloop
  endfacet
  facet normal -0.558152 -0.829739 -0
    outer loop
      vertex 14.893 -4.3131 2.4
      vertex 12.345 -2.5991 1.6
      vertex 14.893 -4.3131 1.6
    endloop
  endfacet
  facet normal 3.74285e-07 1 -0
    outer loop
      vertex 14.893 -2.59911 1.6
      vertex 12.345 -2.5991 2.4
      vertex 14.893 -2.59911 2.4
    endloop
  endfacet
  facet normal 3.74285e-07 1 0
    outer loop
      vertex 12.345 -2.5991 2.4
      vertex 14.893 -2.59911 1.6
      vertex 12.345 -2.5991 1.6
    endloop
  endfacet
  facet normal 1 -0 0
    outer loop
      vertex 14.893 -4.3131 2.4
      vertex 14.893 -2.59911 1.6
      vertex 14.893 -2.59911 2.4
    endloop
  endfacet
  facet normal 1 0 0
    outer loop
      vertex 14.893 -2.59911 1.6
      vertex 14.893 -4.3131 2.4
      vertex 14.893 -4.3131 1.6
    endloop
  endfacet
  facet normal -0.9578 -0.287436 0
    outer loop
      vertex 17.1988 3.407 1.6
      vertex 17.0121 4.02899 2.4
      vertex 17.0121 4.02899 1.6
    endloop
  endfacet
  facet normal -0.9578 -0.287436 0
    outer loop
      vertex 17.0121 4.02899 2.4
      vertex 17.1988 3.407 1.6
      vertex 17.1988 3.407 2.4
    endloop
  endfacet
  facet normal -0.851862 -0.523766 0
    outer loop
      vertex 17.0121 4.02899 1.6
      vertex 16.701 4.53499 2.4
      vertex 16.701 4.53499 1.6
    endloop
  endfacet
  facet normal -0.851862 -0.523766 0
    outer loop
      vertex 16.701 4.53499 2.4
      vertex 17.0121 4.02899 1.6
      vertex 17.0121 4.02899 2.4
    endloop
  endfacet
  facet normal -0.663932 -0.747793 0
    outer loop
      vertex 16.2799 4.90887 1.6
      vertex 16.701 4.53499 2.4
      vertex 16.2799 4.90887 2.4
    endloop
  endfacet
  facet normal -0.663932 -0.747793 -0
    outer loop
      vertex 16.701 4.53499 2.4
      vertex 16.2799 4.90887 1.6
      vertex 16.701 4.53499 1.6
    endloop
  endfacet
  facet normal -0.398278 -0.917265 0
    outer loop
      vertex 15.7632 5.13321 1.6
      vertex 16.2799 4.90887 2.4
      vertex 15.7632 5.13321 2.4
    endloop
  endfacet
  facet normal -0.398278 -0.917265 -0
    outer loop
      vertex 16.2799 4.90887 2.4
      vertex 15.7632 5.13321 1.6
      vertex 16.2799 4.90887 1.6
    endloop
  endfacet
  facet normal -0.121248 -0.992622 0
    outer loop
      vertex 15.151 5.20799 1.6
      vertex 15.7632 5.13321 2.4
      vertex 15.151 5.20799 2.4
    endloop
  endfacet
  facet normal -0.121248 -0.992622 -0
    outer loop
      vertex 15.7632 5.13321 2.4
      vertex 15.151 5.20799 1.6
      vertex 15.7632 5.13321 1.6
    endloop
  endfacet
  facet normal 0.110704 -0.993853 0
    outer loop
      vertex 14.5346 5.13933 1.6
      vertex 15.151 5.20799 2.4
      vertex 14.5346 5.13933 2.4
    endloop
  endfacet
  facet normal 0.110704 -0.993853 0
    outer loop
      vertex 15.151 5.20799 2.4
      vertex 14.5346 5.13933 1.6
      vertex 15.151 5.20799 1.6
    endloop
  endfacet
  facet normal 0.36915 -0.92937 0
    outer loop
      vertex 14.0159 4.93332 1.6
      vertex 14.5346 5.13933 2.4
      vertex 14.0159 4.93332 2.4
    endloop
  endfacet
  facet normal 0.36915 -0.92937 0
    outer loop
      vertex 14.5346 5.13933 2.4
      vertex 14.0159 4.93332 1.6
      vertex 14.5346 5.13933 1.6
    endloop
  endfacet
  facet normal 0.632081 -0.774903 0
    outer loop
      vertex 13.595 4.59 1.6
      vertex 14.0159 4.93332 2.4
      vertex 13.595 4.59 2.4
    endloop
  endfacet
  facet normal 0.632081 -0.774903 0
    outer loop
      vertex 14.0159 4.93332 2.4
      vertex 13.595 4.59 1.6
      vertex 14.0159 4.93332 1.6
    endloop
  endfacet
  facet normal 0.832604 -0.553869 0
    outer loop
      vertex 13.285 4.12399 2.4
      vertex 13.595 4.59 1.6
      vertex 13.595 4.59 2.4
    endloop
  endfacet
  facet normal 0.832604 -0.553869 0
    outer loop
      vertex 13.595 4.59 1.6
      vertex 13.285 4.12399 2.4
      vertex 13.285 4.12399 1.6
    endloop
  endfacet
  facet normal 0.951509 -0.307622 0
    outer loop
      vertex 13.099 3.54866 2.4
      vertex 13.285 4.12399 1.6
      vertex 13.285 4.12399 2.4
    endloop
  endfacet
  facet normal 0.951509 -0.307622 0
    outer loop
      vertex 13.285 4.12399 1.6
      vertex 13.099 3.54866 2.4
      vertex 13.099 3.54866 1.6
    endloop
  endfacet
  facet normal 0.995925 -0.0901815 0
    outer loop
      vertex 13.037 2.864 2.4
      vertex 13.099 3.54866 1.6
      vertex 13.099 3.54866 2.4
    endloop
  endfacet
  facet normal 0.995925 -0.0901815 0
    outer loop
      vertex 13.099 3.54866 1.6
      vertex 13.037 2.864 2.4
      vertex 13.037 2.864 1.6
    endloop
  endfacet
  facet normal 0.999726 0.0233958 0
    outer loop
      vertex 13.04 2.73555 2.4
      vertex 13.037 2.864 1.6
      vertex 13.037 2.864 2.4
    endloop
  endfacet
  facet normal 0.999726 0.0233958 0
    outer loop
      vertex 13.037 2.864 1.6
      vertex 13.04 2.73555 2.4
      vertex 13.04 2.73555 1.6
    endloop
  endfacet
  facet normal 0.997439 0.0715232 0
    outer loop
      vertex 13.049 2.61021 2.4
      vertex 13.04 2.73555 1.6
      vertex 13.04 2.73555 2.4
    endloop
  endfacet
  facet normal 0.997439 0.0715232 0
    outer loop
      vertex 13.04 2.73555 1.6
      vertex 13.049 2.61021 2.4
      vertex 13.049 2.61021 1.6
    endloop
  endfacet
  facet normal 0.992539 0.12193 0
    outer loop
      vertex 13.064 2.48799 2.4
      vertex 13.049 2.61021 1.6
      vertex 13.049 2.61021 2.4
    endloop
  endfacet
  facet normal 0.992539 0.12193 0
    outer loop
      vertex 13.049 2.61021 1.6
      vertex 13.064 2.48799 2.4
      vertex 13.064 2.48799 1.6
    endloop
  endfacet
  facet normal 0.985787 0.167999 0
    outer loop
      vertex 13.0845 2.3681 2.4
      vertex 13.064 2.48799 1.6
      vertex 13.064 2.48799 2.4
    endloop
  endfacet
  facet normal 0.985787 0.167999 0
    outer loop
      vertex 13.064 2.48799 1.6
      vertex 13.0845 2.3681 2.4
      vertex 13.0845 2.3681 1.6
    endloop
  endfacet
  facet normal 0.978296 0.207211 0
    outer loop
      vertex 13.1098 2.24844 2.4
      vertex 13.0845 2.3681 1.6
      vertex 13.0845 2.3681 2.4
    endloop
  endfacet
  facet normal 0.978296 0.207211 0
    outer loop
      vertex 13.0845 2.3681 1.6
      vertex 13.1098 2.24844 2.4
      vertex 13.1098 2.24844 1.6
    endloop
  endfacet
  facet normal 0.969469 0.245216 0
    outer loop
      vertex 13.14 2.129 2.4
      vertex 13.1098 2.24844 1.6
      vertex 13.1098 2.24844 2.4
    endloop
  endfacet
  facet normal 0.969469 0.245216 0
    outer loop
      vertex 13.1098 2.24844 1.6
      vertex 13.14 2.129 2.4
      vertex 13.14 2.129 1.6
    endloop
  endfacet
  facet normal 0 -1 0
    outer loop
      vertex 12.205 2.129 1.6
      vertex 13.14 2.129 2.4
      vertex 12.205 2.129 2.4
    endloop
  endfacet
  facet normal 0 -1 -0
    outer loop
      vertex 13.14 2.129 2.4
      vertex 12.205 2.129 1.6
      vertex 13.14 2.129 1.6
    endloop
  endfacet
  facet normal -1 0 0
    outer loop
      vertex 12.205 2.129 1.6
      vertex 12.205 4.769 2.4
      vertex 12.205 4.769 1.6
    endloop
  endfacet
  facet normal -1 -0 0
    outer loop
      vertex 12.205 4.769 2.4
      vertex 12.205 2.129 1.6
      vertex 12.205 2.129 2.4
    endloop
  endfacet
  facet normal 0 -1 0
    outer loop
      vertex 11.053 4.769 1.6
      vertex 12.205 4.769 2.4
      vertex 11.053 4.769 2.4
    endloop
  endfacet
  facet normal 0 -1 -0
    outer loop
      vertex 12.205 4.769 2.4
      vertex 11.053 4.769 1.6
      vertex 12.205 4.769 1.6
    endloop
  endfacet
  facet normal 1 -0 0
    outer loop
      vertex 11.053 0.881989 2.4
      vertex 11.053 4.769 1.6
      vertex 11.053 4.769 2.4
    endloop
  endfacet
  facet normal 1 0 0
    outer loop
      vertex 11.053 4.769 1.6
      vertex 11.053 0.881989 2.4
      vertex 11.053 0.881989 1.6
    endloop
  endfacet
  facet normal 2.75949e-07 1 -0
    outer loop
      vertex 14.509 0.881988 1.6
      vertex 11.053 0.881989 2.4
      vertex 14.509 0.881988 2.4
    endloop
  endfacet
  facet normal 2.75949e-07 1 0
    outer loop
      vertex 11.053 0.881989 2.4
      vertex 14.509 0.881988 1.6
      vertex 11.053 0.881989 1.6
    endloop
  endfacet
  facet normal -0.922987 -0.384831 0
    outer loop
      vertex 14.509 0.881988 1.6
      vertex 14.3897 1.16821 2.4
      vertex 14.3897 1.16821 1.6
    endloop
  endfacet
  facet normal -0.922987 -0.384831 0
    outer loop
      vertex 14.3897 1.16821 2.4
      vertex 14.509 0.881988 1.6
      vertex 14.509 0.881988 2.4
    endloop
  endfacet
  facet normal -0.942779 -0.333417 0
    outer loop
      vertex 14.3897 1.16821 1.6
      vertex 14.293 1.44154 2.4
      vertex 14.293 1.44154 1.6
    endloop
  endfacet
  facet normal -0.942779 -0.333417 0
    outer loop
      vertex 14.293 1.44154 2.4
      vertex 14.3897 1.16821 1.6
      vertex 14.3897 1.16821 2.4
    endloop
  endfacet
  facet normal -0.961952 -0.273217 0
    outer loop
      vertex 14.293 1.44154 1.6
      vertex 14.219 1.702 2.4
      vertex 14.219 1.702 1.6
    endloop
  endfacet
  facet normal -0.961952 -0.273217 0
    outer loop
      vertex 14.219 1.702 2.4
      vertex 14.293 1.44154 1.6
      vertex 14.293 1.44154 2.4
    endloop
  endfacet
  facet normal -0.97881 -0.204771 0
    outer loop
      vertex 14.219 1.702 1.6
      vertex 14.1668 1.95166 2.4
      vertex 14.1668 1.95166 1.6
    endloop
  endfacet
  facet normal -0.97881 -0.204771 0
    outer loop
      vertex 14.1668 1.95166 2.4
      vertex 14.219 1.702 1.6
      vertex 14.219 1.702 2.4
    endloop
  endfacet
  facet normal -0.991566 -0.129604 0
    outer loop
      vertex 14.1668 1.95166 1.6
      vertex 14.1355 2.19133 2.4
      vertex 14.1355 2.19133 1.6
    endloop
  endfacet
  facet normal -0.991566 -0.129604 0
    outer loop
      vertex 14.1355 2.19133 2.4
      vertex 14.1668 1.95166 1.6
      vertex 14.1668 1.95166 2.4
    endloop
  endfacet
  facet normal -0.998966 -0.0454649 0
    outer loop
      vertex 14.1355 2.19133 1.6
      vertex 14.125 2.42099 2.4
      vertex 14.125 2.42099 1.6
    endloop
  endfacet
  facet normal -0.998966 -0.0454649 0
    outer loop
      vertex 14.125 2.42099 2.4
      vertex 14.1355 2.19133 1.6
      vertex 14.1355 2.19133 2.4
    endloop
  endfacet
  facet normal -0.996291 0.0860507 0
    outer loop
      vertex 14.125 2.42099 1.6
      vertex 14.1555 2.77344 2.4
      vertex 14.1555 2.77344 1.6
    endloop
  endfacet
  facet normal -0.996291 0.0860507 0
    outer loop
      vertex 14.1555 2.77344 2.4
      vertex 14.125 2.42099 1.6
      vertex 14.125 2.42099 2.4
    endloop
  endfacet
  facet normal -0.956292 0.292413 0
    outer loop
      vertex 14.1555 2.77344 1.6
      vertex 14.2468 3.0721 2.4
      vertex 14.2468 3.0721 1.6
    endloop
  endfacet
  facet normal -0.956292 0.292413 0
    outer loop
      vertex 14.2468 3.0721 2.4
      vertex 14.1555 2.77344 1.6
      vertex 14.1555 2.77344 2.4
    endloop
  endfacet
  facet normal -0.849295 0.527919 0
    outer loop
      vertex 14.2468 3.0721 1.6
      vertex 14.399 3.31699 2.4
      vertex 14.399 3.31699 1.6
    endloop
  endfacet
  facet normal -0.849295 0.527919 0
    outer loop
      vertex 14.399 3.31699 2.4
      vertex 14.2468 3.0721 1.6
      vertex 14.2468 3.0721 2.4
    endloop
  endfacet
  facet normal -0.663042 0.748582 0
    outer loop
      vertex 14.6041 3.49866 1.6
      vertex 14.399 3.31699 2.4
      vertex 14.6041 3.49866 2.4
    endloop
  endfacet
  facet normal -0.663042 0.748582 0
    outer loop
      vertex 14.399 3.31699 2.4
      vertex 14.6041 3.49866 1.6
      vertex 14.399 3.31699 1.6
    endloop
  endfacet
  facet normal -0.399692 0.91665 0
    outer loop
      vertex 14.8541 3.60767 1.6
      vertex 14.6041 3.49866 2.4
      vertex 14.8541 3.60767 2.4
    endloop
  endfacet
  facet normal -0.399692 0.91665 0
    outer loop
      vertex 14.6041 3.49866 2.4
      vertex 14.8541 3.60767 1.6
      vertex 14.6041 3.49866 1.6
    endloop
  endfacet
  facet normal -0.122277 0.992496 0
    outer loop
      vertex 15.149 3.644 1.6
      vertex 14.8541 3.60767 2.4
      vertex 15.149 3.644 2.4
    endloop
  endfacet
  facet normal -0.122277 0.992496 0
    outer loop
      vertex 14.8541 3.60767 2.4
      vertex 15.149 3.644 1.6
      vertex 14.8541 3.60767 1.6
    endloop
  endfacet
  facet normal 0.123102 0.992394 -0
    outer loop
      vertex 15.4419 3.60767 1.6
      vertex 15.149 3.644 2.4
      vertex 15.4419 3.60767 2.4
    endloop
  endfacet
  facet normal 0.123102 0.992394 0
    outer loop
      vertex 15.149 3.644 2.4
      vertex 15.4419 3.60767 1.6
      vertex 15.149 3.644 1.6
    endloop
  endfacet
  facet normal 0.400595 0.916255 -0
    outer loop
      vertex 15.6912 3.49866 1.6
      vertex 15.4419 3.60767 2.4
      vertex 15.6912 3.49866 2.4
    endloop
  endfacet
  facet normal 0.400595 0.916255 0
    outer loop
      vertex 15.4419 3.60767 2.4
      vertex 15.6912 3.49866 1.6
      vertex 15.4419 3.60767 1.6
    endloop
  endfacet
  facet normal 0.661828 0.749656 -0
    outer loop
      vertex 15.897 3.31699 1.6
      vertex 15.6912 3.49866 2.4
      vertex 15.897 3.31699 2.4
    endloop
  endfacet
  facet normal 0.661828 0.749656 0
    outer loop
      vertex 15.6912 3.49866 2.4
      vertex 15.897 3.31699 1.6
      vertex 15.6912 3.49866 1.6
    endloop
  endfacet
  facet normal 0.847562 0.530697 0
    outer loop
      vertex 16.0503 3.0721 2.4
      vertex 15.897 3.31699 1.6
      vertex 15.897 3.31699 2.4
    endloop
  endfacet
  facet normal 0.847562 0.530697 0
    outer loop
      vertex 15.897 3.31699 1.6
      vertex 16.0503 3.0721 2.4
      vertex 16.0503 3.0721 1.6
    endloop
  endfacet
  facet normal 0.955689 0.294377 0
    outer loop
      vertex 16.1423 2.77344 2.4
      vertex 16.0503 3.0721 1.6
      vertex 16.0503 3.0721 2.4
    endloop
  endfacet
  facet normal 0.955689 0.294377 0
    outer loop
      vertex 16.0503 3.0721 1.6
      vertex 16.1423 2.77344 2.4
      vertex 16.1423 2.77344 1.6
    endloop
  endfacet
  facet normal 0.996235 0.0866929 0
    outer loop
      vertex 16.173 2.42099 2.4
      vertex 16.1423 2.77344 1.6
      vertex 16.1423 2.77344 2.4
    endloop
  endfacet
  facet normal 0.996235 0.0866929 0
    outer loop
      vertex 16.1423 2.77344 1.6
      vertex 16.173 2.42099 2.4
      vertex 16.173 2.42099 1.6
    endloop
  endfacet
  facet normal 0.998225 -0.0595473 0
    outer loop
      vertex 16.157 2.15266 2.4
      vertex 16.173 2.42099 1.6
      vertex 16.173 2.42099 2.4
    endloop
  endfacet
  facet normal 0.998225 -0.0595473 0
    outer loop
      vertex 16.173 2.42099 1.6
      vertex 16.157 2.15266 2.4
      vertex 16.157 2.15266 1.6
    endloop
  endfacet
  facet normal 0.985596 -0.169115 0
    outer loop
      vertex 16.109 1.87298 2.4
      vertex 16.157 2.15266 1.6
      vertex 16.157 2.15266 2.4
    endloop
  endfacet
  facet normal 0.985596 -0.169115 0
    outer loop
      vertex 16.157 2.15266 1.6
      vertex 16.109 1.87298 2.4
      vertex 16.109 1.87298 1.6
    endloop
  endfacet
  facet normal 0.964225 -0.265085 0
    outer loop
      vertex 16.029 1.58198 2.4
      vertex 16.109 1.87298 1.6
      vertex 16.109 1.87298 2.4
    endloop
  endfacet
  facet normal 0.964225 -0.265085 0
    outer loop
      vertex 16.109 1.87298 1.6
      vertex 16.029 1.58198 2.4
      vertex 16.029 1.58198 1.6
    endloop
  endfacet
  facet normal 0.937514 -0.347947 0
    outer loop
      vertex 15.917 1.28021 2.4
      vertex 16.029 1.58198 1.6
      vertex 16.029 1.58198 2.4
    endloop
  endfacet
  facet normal 0.937514 -0.347947 0
    outer loop
      vertex 16.029 1.58198 1.6
      vertex 15.917 1.28021 2.4
      vertex 15.917 1.28021 1.6
    endloop
  endfacet
  facet normal 0.908636 -0.41759 0
    outer loop
      vertex 15.773 0.966887 2.4
      vertex 15.917 1.28021 1.6
      vertex 15.917 1.28021 2.4
    endloop
  endfacet
  facet normal 0.908636 -0.41759 0
    outer loop
      vertex 15.917 1.28021 1.6
      vertex 15.773 0.966887 2.4
      vertex 15.773 0.966887 1.6
    endloop
  endfacet
  facet normal 0.87926 -0.476342 0
    outer loop
      vertex 15.597 0.641997 2.4
      vertex 15.773 0.966887 1.6
      vertex 15.773 0.966887 2.4
    endloop
  endfacet
  facet normal 0.87926 -0.476342 0
    outer loop
      vertex 15.773 0.966887 1.6
      vertex 15.597 0.641997 2.4
      vertex 15.597 0.641997 1.6
    endloop
  endfacet
  facet normal 0 1 -0
    outer loop
      vertex 16.813 0.641997 1.6
      vertex 15.597 0.641997 2.4
      vertex 16.813 0.641997 2.4
    endloop
  endfacet
  facet normal 0 1 0
    outer loop
      vertex 15.597 0.641997 2.4
      vertex 16.813 0.641997 1.6
      vertex 15.597 0.641997 1.6
    endloop
  endfacet
  facet normal -0.924273 0.381731 0
    outer loop
      vertex 16.813 0.641997 1.6
      vertex 16.9509 0.975875 2.4
      vertex 16.9509 0.975875 1.6
    endloop
  endfacet
  facet normal -0.924273 0.381731 0
    outer loop
      vertex 16.9509 0.975875 2.4
      vertex 16.813 0.641997 1.6
      vertex 16.813 0.641997 2.4
    endloop
  endfacet
  facet normal -0.948116 0.317924 0
    outer loop
      vertex 16.9509 0.975875 1.6
      vertex 17.0632 1.31088 2.4
      vertex 17.0632 1.31088 1.6
    endloop
  endfacet
  facet normal -0.948116 0.317924 0
    outer loop
      vertex 17.0632 1.31088 2.4
      vertex 16.9509 0.975875 1.6
      vertex 16.9509 0.975875 2.4
    endloop
  endfacet
  facet normal -0.96825 0.249986 0
    outer loop
      vertex 17.0632 1.31088 1.6
      vertex 17.15 1.64699 2.4
      vertex 17.15 1.64699 1.6
    endloop
  endfacet
  facet normal -0.96825 0.249986 0
    outer loop
      vertex 17.15 1.64699 2.4
      vertex 17.0632 1.31088 1.6
      vertex 17.0632 1.31088 2.4
    endloop
  endfacet
  facet normal -0.983807 0.179233 0
    outer loop
      vertex 17.15 1.64699 1.6
      vertex 17.2117 1.98544 2.4
      vertex 17.2117 1.98544 1.6
    endloop
  endfacet
  facet normal -0.983807 0.179233 0
    outer loop
      vertex 17.2117 1.98544 2.4
      vertex 17.15 1.64699 1.6
      vertex 17.15 1.64699 2.4
    endloop
  endfacet
  facet normal -0.994153 0.107983 0
    outer loop
      vertex 17.2117 1.98544 1.6
      vertex 17.2487 2.32611 2.4
      vertex 17.2487 2.32611 1.6
    endloop
  endfacet
  facet normal -0.994153 0.107983 0
    outer loop
      vertex 17.2487 2.32611 2.4
      vertex 17.2117 1.98544 1.6
      vertex 17.2117 1.98544 2.4
    endloop
  endfacet
  facet normal -0.999354 0.0359342 0
    outer loop
      vertex 17.2487 2.32611 1.6
      vertex 17.261 2.66899 2.4
      vertex 17.261 2.66899 1.6
    endloop
  endfacet
  facet normal -0.999354 0.0359342 0
    outer loop
      vertex 17.261 2.66899 2.4
      vertex 17.2487 2.32611 1.6
      vertex 17.2487 2.32611 2.4
    endloop
  endfacet
  facet normal -0.996464 -0.0840173 0
    outer loop
      vertex 17.261 2.66899 1.6
      vertex 17.1988 3.407 2.4
      vertex 17.1988 3.407 1.6
    endloop
  endfacet
  facet normal -0.996464 -0.0840173 0
    outer loop
      vertex 17.1988 3.407 2.4
      vertex 17.261 2.66899 1.6
      vertex 17.261 2.66899 2.4
    endloop
  endfacet
endsolid OpenSCAD_Model
