solid OpenSCAD_Model
  facet normal 0 0 -1
    outer loop
      vertex 23.9606 0 0
      vertex 26.2007 0 0
      vertex 25.8469 -1.89296 0
    endloop
  endfacet
  facet normal 0 0 -1
    outer loop
      vertex 23.3876 -1.76336 0
      vertex 25.8469 -1.89296 0
      vertex 24.8331 -3.53026 0
    endloop
  endfacet
  facet normal 0 0 -1
    outer loop
      vertex 26.2007 0 0
      vertex 23.9606 0 0
      vertex 25.8469 1.89296 0
    endloop
  endfacet
  facet normal 0 0 -1
    outer loop
      vertex 23.3876 1.76336 0
      vertex 25.8469 1.89296 0
      vertex 23.9606 0 0
    endloop
  endfacet
  facet normal 0 0 -1
    outer loop
      vertex 25.8469 -1.89296 0
      vertex 23.3876 -1.76336 0
      vertex 23.9606 0 0
    endloop
  endfacet
  facet normal 0 0 -1
    outer loop
      vertex 23.2963 -4.69078 0
      vertex 23.3876 -1.76336 0
      vertex 24.8331 -3.53026 0
    endloop
  endfacet
  facet normal 0 0 -1
    outer loop
      vertex 23.2963 -4.69078 0
      vertex 21.8876 -2.85317 0
      vertex 23.3876 -1.76336 0
    endloop
  endfacet
  facet normal 0 0 -1
    outer loop
      vertex 21.4441 -5.21779 0
      vertex 21.8876 -2.85317 0
      vertex 23.2963 -4.69078 0
    endloop
  endfacet
  facet normal 0 0 -1
    outer loop
      vertex 21.4441 -5.21779 0
      vertex 20.0335 -2.85317 0
      vertex 21.8876 -2.85317 0
    endloop
  endfacet
  facet normal 0 0 -1
    outer loop
      vertex 21.4441 -5.21779 0
      vertex 18.5335 -1.76336 0
      vertex 20.0335 -2.85317 0
    endloop
  endfacet
  facet normal 0 0 -1
    outer loop
      vertex 7.2254 -1.93604 0
      vertex 17.9606 0 0
      vertex 18.5335 -1.76336 0
    endloop
  endfacet
  facet normal 0 0 -1
    outer loop
      vertex 6.47811 -3.74014 0
      vertex 18.5335 -1.76336 0
      vertex 21.4441 -5.21779 0
    endloop
  endfacet
  facet normal -0 0 -1
    outer loop
      vertex 17.9606 0 0
      vertex 7.2254 -1.93604 0
      vertex 7.48028 0 0
    endloop
  endfacet
  facet normal 0 0 -1
    outer loop
      vertex 18.5335 -1.76336 0
      vertex 6.47811 -3.74014 0
      vertex 7.2254 -1.93604 0
    endloop
  endfacet
  facet normal -0 0 -1
    outer loop
      vertex 21.4441 -5.21779 0
      vertex 5.28936 -5.28936 0
      vertex 6.47811 -3.74014 0
    endloop
  endfacet
  facet normal 0 0 -1
    outer loop
      vertex 3.23858 -9.96734 0
      vertex 5.28936 -5.28936 0
      vertex 21.4441 -5.21779 0
    endloop
  endfacet
  facet normal 0 0 -1
    outer loop
      vertex 5.28936 -5.28936 0
      vertex 3.23858 -9.96734 0
      vertex 3.74014 -6.47811 0
    endloop
  endfacet
  facet normal 0 0 -1
    outer loop
      vertex 3.23858 -9.96734 0
      vertex 1.93604 -7.2254 0
      vertex 3.74014 -6.47811 0
    endloop
  endfacet
  facet normal 0 0 -1
    outer loop
      vertex 1.09549 -10.4229 0
      vertex 1.93604 -7.2254 0
      vertex 3.23858 -9.96734 0
    endloop
  endfacet
  facet normal 0 0 -1
    outer loop
      vertex 1.09549 -10.4229 0
      vertex 0 -7.48028 0
      vertex 1.93604 -7.2254 0
    endloop
  endfacet
  facet normal 0 0 -1
    outer loop
      vertex -1.09549 -10.4229 0
      vertex 0 -7.48028 0
      vertex 1.09549 -10.4229 0
    endloop
  endfacet
  facet normal 0 0 -1
    outer loop
      vertex -1.09549 -10.4229 0
      vertex -1.93604 -7.2254 0
      vertex 0 -7.48028 0
    endloop
  endfacet
  facet normal 0 0 -1
    outer loop
      vertex -3.23858 -9.96734 0
      vertex -1.93604 -7.2254 0
      vertex -1.09549 -10.4229 0
    endloop
  endfacet
  facet normal 0 0 -1
    outer loop
      vertex -3.23858 -9.96734 0
      vertex -3.74014 -6.47811 0
      vertex -1.93604 -7.2254 0
    endloop
  endfacet
  facet normal 0 0 -1
    outer loop
      vertex -5.24014 -9.07619 0
      vertex -3.74014 -6.47811 0
      vertex -3.23858 -9.96734 0
    endloop
  endfacet
  facet normal 0 0 -1
    outer loop
      vertex -7.01268 -7.78837 0
      vertex -3.74014 -6.47811 0
      vertex -5.24014 -9.07619 0
    endloop
  endfacet
  facet normal -0 0 -1
    outer loop
      vertex -3.74014 -6.47811 0
      vertex -7.01268 -7.78837 0
      vertex -5.28936 -5.28936 0
    endloop
  endfacet
  facet normal 0 0 -1
    outer loop
      vertex -8.47873 -6.16016 0
      vertex -5.28936 -5.28936 0
      vertex -7.01268 -7.78837 0
    endloop
  endfacet
  facet normal -0 0 -1
    outer loop
      vertex -5.28936 -5.28936 0
      vertex -8.47873 -6.16016 0
      vertex -6.47811 -3.74014 0
    endloop
  endfacet
  facet normal 0 0 -1
    outer loop
      vertex -9.57421 -4.26271 0
      vertex -6.47811 -3.74014 0
      vertex -8.47873 -6.16016 0
    endloop
  endfacet
  facet normal -0 0 -1
    outer loop
      vertex -6.47811 -3.74014 0
      vertex -9.57421 -4.26271 0
      vertex -7.2254 -1.93604 0
    endloop
  endfacet
  facet normal -0 0 -1
    outer loop
      vertex 25.8469 1.89296 0
      vertex 23.3876 1.76336 0
      vertex 24.8331 3.53026 0
    endloop
  endfacet
  facet normal 0 0 -1
    outer loop
      vertex 23.3876 1.76336 0
      vertex 23.2963 4.69078 0
      vertex 24.8331 3.53026 0
    endloop
  endfacet
  facet normal 0 0 -1
    outer loop
      vertex 21.8876 2.85317 0
      vertex 23.2963 4.69078 0
      vertex 23.3876 1.76336 0
    endloop
  endfacet
  facet normal 0 0 -1
    outer loop
      vertex 21.8876 2.85317 0
      vertex 21.4441 5.21779 0
      vertex 23.2963 4.69078 0
    endloop
  endfacet
  facet normal 0 0 -1
    outer loop
      vertex 20.0335 2.85317 0
      vertex 21.4441 5.21779 0
      vertex 21.8876 2.85317 0
    endloop
  endfacet
  facet normal 0 0 -1
    outer loop
      vertex 18.5335 1.76336 0
      vertex 21.4441 5.21779 0
      vertex 20.0335 2.85317 0
    endloop
  endfacet
  facet normal 0 0 -1
    outer loop
      vertex 7.2254 1.93604 0
      vertex 17.9606 0 0
      vertex 7.48028 0 0
    endloop
  endfacet
  facet normal 0 0 -1
    outer loop
      vertex 17.9606 0 0
      vertex 7.2254 1.93604 0
      vertex 18.5335 1.76336 0
    endloop
  endfacet
  facet normal 0 0 -1
    outer loop
      vertex 6.47811 3.74014 0
      vertex 18.5335 1.76336 0
      vertex 7.2254 1.93604 0
    endloop
  endfacet
  facet normal 0 0 -1
    outer loop
      vertex 18.5335 1.76336 0
      vertex 6.47811 3.74014 0
      vertex 21.4441 5.21779 0
    endloop
  endfacet
  facet normal 0 0 -1
    outer loop
      vertex 5.28936 5.28936 0
      vertex 21.4441 5.21779 0
      vertex 6.47811 3.74014 0
    endloop
  endfacet
  facet normal 0 0 -1
    outer loop
      vertex 3.23858 9.96734 0
      vertex 5.28936 5.28936 0
      vertex 3.74014 6.47811 0
    endloop
  endfacet
  facet normal 0 0 -1
    outer loop
      vertex 5.28936 5.28936 0
      vertex 3.23858 9.96734 0
      vertex 21.4441 5.21779 0
    endloop
  endfacet
  facet normal 0 0 -1
    outer loop
      vertex 1.93604 7.2254 0
      vertex 3.23858 9.96734 0
      vertex 3.74014 6.47811 0
    endloop
  endfacet
  facet normal 0 0 -1
    outer loop
      vertex 1.93604 7.2254 0
      vertex 1.09549 10.4229 0
      vertex 3.23858 9.96734 0
    endloop
  endfacet
  facet normal 0 0 -1
    outer loop
      vertex 0 7.48028 0
      vertex 1.09549 10.4229 0
      vertex 1.93604 7.2254 0
    endloop
  endfacet
  facet normal 0 0 -1
    outer loop
      vertex 0 7.48028 0
      vertex -1.09549 10.4229 0
      vertex 1.09549 10.4229 0
    endloop
  endfacet
  facet normal 0 0 -1
    outer loop
      vertex -1.93604 7.2254 0
      vertex -1.09549 10.4229 0
      vertex 0 7.48028 0
    endloop
  endfacet
  facet normal 0 0 -1
    outer loop
      vertex -1.93604 7.2254 0
      vertex -3.23858 9.96734 0
      vertex -1.09549 10.4229 0
    endloop
  endfacet
  facet normal 0 0 -1
    outer loop
      vertex -3.74014 6.47811 0
      vertex -3.23858 9.96734 0
      vertex -1.93604 7.2254 0
    endloop
  endfacet
  facet normal 0 0 -1
    outer loop
      vertex -3.74014 6.47811 0
      vertex -5.24014 9.07619 0
      vertex -3.23858 9.96734 0
    endloop
  endfacet
  facet normal 0 0 -1
    outer loop
      vertex -7.01268 7.78837 0
      vertex -3.74014 6.47811 0
      vertex -5.28936 5.28936 0
    endloop
  endfacet
  facet normal 0 0 -1
    outer loop
      vertex -8.47873 6.16016 0
      vertex -5.28936 5.28936 0
      vertex -6.47811 3.74014 0
    endloop
  endfacet
  facet normal 0 0 -1
    outer loop
      vertex -3.74014 6.47811 0
      vertex -7.01268 7.78837 0
      vertex -5.24014 9.07619 0
    endloop
  endfacet
  facet normal 0 0 -1
    outer loop
      vertex -9.57421 4.26271 0
      vertex -6.47811 3.74014 0
      vertex -7.2254 1.93604 0
    endloop
  endfacet
  facet normal 0 0 -1
    outer loop
      vertex -10.2513 2.17897 0
      vertex -7.2254 1.93604 0
      vertex -7.48028 0 0
    endloop
  endfacet
  facet normal 0 0 -1
    outer loop
      vertex -10.2513 -2.17897 0
      vertex -7.2254 -1.93604 0
      vertex -9.57421 -4.26271 0
    endloop
  endfacet
  facet normal 0 0 -1
    outer loop
      vertex -5.28936 5.28936 0
      vertex -8.47873 6.16016 0
      vertex -7.01268 7.78837 0
    endloop
  endfacet
  facet normal -0 0 -1
    outer loop
      vertex -7.2254 -1.93604 0
      vertex -10.2513 -2.17897 0
      vertex -7.48028 0 0
    endloop
  endfacet
  facet normal 0 0 -1
    outer loop
      vertex -6.47811 3.74014 0
      vertex -9.57421 4.26271 0
      vertex -8.47873 6.16016 0
    endloop
  endfacet
  facet normal 0 0 -1
    outer loop
      vertex -10.4803 0 0
      vertex -7.48028 0 0
      vertex -10.2513 -2.17897 0
    endloop
  endfacet
  facet normal 0 0 -1
    outer loop
      vertex -7.2254 1.93604 0
      vertex -10.2513 2.17897 0
      vertex -9.57421 4.26271 0
    endloop
  endfacet
  facet normal 0 0 -1
    outer loop
      vertex -7.48028 0 0
      vertex -10.4803 0 0
      vertex -10.2513 2.17897 0
    endloop
  endfacet
  facet normal -0.951056 0.309017 0
    outer loop
      vertex -10.2513 2.17897 0
      vertex -9.57421 4.26271 4
      vertex -9.57421 4.26271 0
    endloop
  endfacet
  facet normal -0.951056 0.309017 0
    outer loop
      vertex -9.57421 4.26271 4
      vertex -10.2513 2.17897 0
      vertex -10.2513 2.17897 4
    endloop
  endfacet
  facet normal -0.994522 0.104528 0
    outer loop
      vertex -10.4803 0 0
      vertex -10.2513 2.17897 4
      vertex -10.2513 2.17897 0
    endloop
  endfacet
  facet normal -0.994522 0.104528 0
    outer loop
      vertex -10.2513 2.17897 4
      vertex -10.4803 0 0
      vertex -10.4803 0 4
    endloop
  endfacet
  facet normal -0.994522 -0.104528 0
    outer loop
      vertex -10.2513 -2.17897 0
      vertex -10.4803 0 4
      vertex -10.4803 0 0
    endloop
  endfacet
  facet normal -0.994522 -0.104528 0
    outer loop
      vertex -10.4803 0 4
      vertex -10.2513 -2.17897 0
      vertex -10.2513 -2.17897 4
    endloop
  endfacet
  facet normal 0 0 1
    outer loop
      vertex 17.9606 0 2.4
      vertex 16.4891 -0.255096 2.4
      vertex 17.6411 -1.1201 2.4
    endloop
  endfacet
  facet normal 0 0 1
    outer loop
      vertex 17.6411 1.239 2.4
      vertex 15.4011 -0.255096 2.4
      vertex 16.4891 -0.255096 2.4
    endloop
  endfacet
  facet normal 0 0 1
    outer loop
      vertex 12.7132 3.478 2.4
      vertex 15.4011 -0.255096 2.4
      vertex 17.6411 1.239 2.4
    endloop
  endfacet
  facet normal -0 0 1
    outer loop
      vertex 12.7132 0.556992 2.4
      vertex 15.4011 -0.255096 2.4
      vertex 12.7132 3.478 2.4
    endloop
  endfacet
  facet normal 0 0 1
    outer loop
      vertex 15.4011 -0.255096 2.4
      vertex 12.7132 0.556992 2.4
      vertex 15.4011 -1.1201 2.4
    endloop
  endfacet
  facet normal 0 0 1
    outer loop
      vertex 11.5612 -1.1201 2.4
      vertex 12.7132 0.556992 2.4
      vertex 11.5612 0.556992 2.4
    endloop
  endfacet
  facet normal 0 0 1
    outer loop
      vertex 12.7132 0.556992 2.4
      vertex 11.5612 -1.1201 2.4
      vertex 15.4011 -1.1201 2.4
    endloop
  endfacet
  facet normal 0 0 1
    outer loop
      vertex 23.9606 0 2.4
      vertex 26.2007 0 2.4
      vertex 25.8469 1.89296 2.4
    endloop
  endfacet
  facet normal 0 0 1
    outer loop
      vertex 23.3876 1.76336 2.4
      vertex 25.8469 1.89296 2.4
      vertex 24.8331 3.53026 2.4
    endloop
  endfacet
  facet normal 0 0 1
    outer loop
      vertex 26.2007 0 2.4
      vertex 23.9606 0 2.4
      vertex 25.8469 -1.89296 2.4
    endloop
  endfacet
  facet normal -0 0 1
    outer loop
      vertex 23.3876 -1.76336 2.4
      vertex 25.8469 -1.89296 2.4
      vertex 23.9606 0 2.4
    endloop
  endfacet
  facet normal 0 0 1
    outer loop
      vertex 25.8469 1.89296 2.4
      vertex 23.3876 1.76336 2.4
      vertex 23.9606 0 2.4
    endloop
  endfacet
  facet normal 0 0 1
    outer loop
      vertex 23.2963 4.69078 2.4
      vertex 23.3876 1.76336 2.4
      vertex 24.8331 3.53026 2.4
    endloop
  endfacet
  facet normal 0 0 1
    outer loop
      vertex 23.2963 4.69078 2.4
      vertex 21.8876 2.85317 2.4
      vertex 23.3876 1.76336 2.4
    endloop
  endfacet
  facet normal 0 0 1
    outer loop
      vertex 21.4441 5.21779 2.4
      vertex 21.8876 2.85317 2.4
      vertex 23.2963 4.69078 2.4
    endloop
  endfacet
  facet normal 0 0 1
    outer loop
      vertex 21.4441 5.21779 2.4
      vertex 20.0335 2.85317 2.4
      vertex 21.8876 2.85317 2.4
    endloop
  endfacet
  facet normal 0 0 1
    outer loop
      vertex 17.6411 2.76298 2.4
      vertex 20.0335 2.85317 2.4
      vertex 21.4441 5.21779 2.4
    endloop
  endfacet
  facet normal 0 0 1
    outer loop
      vertex 17.6411 1.239 2.4
      vertex 18.5335 1.76336 2.4
      vertex 17.6411 2.76298 2.4
    endloop
  endfacet
  facet normal 0 0 1
    outer loop
      vertex 20.0335 2.85317 2.4
      vertex 17.6411 2.76298 2.4
      vertex 18.5335 1.76336 2.4
    endloop
  endfacet
  facet normal 0 0 1
    outer loop
      vertex 21.4441 5.21779 2.4
      vertex 12.4451 5.127 2.4
      vertex 17.6411 2.76298 2.4
    endloop
  endfacet
  facet normal 0 0 1
    outer loop
      vertex 7.01268 7.78837 2.4
      vertex 12.4451 5.127 2.4
      vertex 21.4441 5.21779 2.4
    endloop
  endfacet
  facet normal -0 0 1
    outer loop
      vertex 10.2513 2.17897 2.4
      vertex 11.5612 0.556992 2.4
      vertex 11.5612 5.127 2.4
    endloop
  endfacet
  facet normal 0 -0 1
    outer loop
      vertex 10.4803 0 2.4
      vertex 11.5612 0.556992 2.4
      vertex 10.2513 2.17897 2.4
    endloop
  endfacet
  facet normal 0 0 1
    outer loop
      vertex 10.2513 -2.17897 2.4
      vertex 11.5612 -1.1201 2.4
      vertex 10.4803 0 2.4
    endloop
  endfacet
  facet normal 0 0 1
    outer loop
      vertex 11.5612 0.556992 2.4
      vertex 10.4803 0 2.4
      vertex 11.5612 -1.1201 2.4
    endloop
  endfacet
  facet normal 0 0 1
    outer loop
      vertex 11.5612 5.127 2.4
      vertex 9.57421 4.26271 2.4
      vertex 10.2513 2.17897 2.4
    endloop
  endfacet
  facet normal 0 0 1
    outer loop
      vertex 11.5612 5.127 2.4
      vertex 8.47873 6.16016 2.4
      vertex 9.57421 4.26271 2.4
    endloop
  endfacet
  facet normal 0 0 1
    outer loop
      vertex 12.4451 5.127 2.4
      vertex 7.01268 7.78837 2.4
      vertex 11.5612 5.127 2.4
    endloop
  endfacet
  facet normal 0 0 1
    outer loop
      vertex 11.5612 5.127 2.4
      vertex 7.01268 7.78837 2.4
      vertex 8.47873 6.16016 2.4
    endloop
  endfacet
  facet normal 0 0 1
    outer loop
      vertex 21.4441 5.21779 2.4
      vertex 5.24014 9.07619 2.4
      vertex 7.01268 7.78837 2.4
    endloop
  endfacet
  facet normal -0 -0 1
    outer loop
      vertex 5.24014 9.07619 2.4
      vertex 21.4441 5.21779 2.4
      vertex 3.23858 9.96734 2.4
    endloop
  endfacet
  facet normal 0 0 1
    outer loop
      vertex 25.8469 -1.89296 2.4
      vertex 23.3876 -1.76336 2.4
      vertex 24.8331 -3.53026 2.4
    endloop
  endfacet
  facet normal 0 0 1
    outer loop
      vertex 23.3876 -1.76336 2.4
      vertex 23.2963 -4.69078 2.4
      vertex 24.8331 -3.53026 2.4
    endloop
  endfacet
  facet normal -0 0 1
    outer loop
      vertex 21.8876 -2.85317 2.4
      vertex 23.2963 -4.69078 2.4
      vertex 23.3876 -1.76336 2.4
    endloop
  endfacet
  facet normal 0 0 1
    outer loop
      vertex 21.8876 -2.85317 2.4
      vertex 21.4441 -5.21779 2.4
      vertex 23.2963 -4.69078 2.4
    endloop
  endfacet
  facet normal -0 0 1
    outer loop
      vertex 20.0335 -2.85317 2.4
      vertex 21.4441 -5.21779 2.4
      vertex 21.8876 -2.85317 2.4
    endloop
  endfacet
  facet normal -0 0 1
    outer loop
      vertex 17.6411 -2.59911 2.4
      vertex 20.0335 -2.85317 2.4
      vertex 18.5335 -1.76336 2.4
    endloop
  endfacet
  facet normal 0 0 1
    outer loop
      vertex 18.5335 1.76336 2.4
      vertex 17.6411 1.239 2.4
      vertex 17.9606 0 2.4
    endloop
  endfacet
  facet normal 0 0 1
    outer loop
      vertex 16.4891 -0.255096 2.4
      vertex 17.9606 0 2.4
      vertex 17.6411 1.239 2.4
    endloop
  endfacet
  facet normal -0 0 1
    outer loop
      vertex 17.6411 -1.1201 2.4
      vertex 18.5335 -1.76336 2.4
      vertex 17.9606 0 2.4
    endloop
  endfacet
  facet normal 0 0 1
    outer loop
      vertex 17.6411 -2.59911 2.4
      vertex 18.5335 -1.76336 2.4
      vertex 17.6411 -1.1201 2.4
    endloop
  endfacet
  facet normal 0 0 1
    outer loop
      vertex 16.4891 -5.2881 2.4
      vertex 20.0335 -2.85317 2.4
      vertex 17.6411 -2.59911 2.4
    endloop
  endfacet
  facet normal 0 0 1
    outer loop
      vertex 16.4891 -5.2881 2.4
      vertex 17.6411 -2.59911 2.4
      vertex 16.4891 -2.59911 2.4
    endloop
  endfacet
  facet normal 0 0 1
    outer loop
      vertex 20.0335 -2.85317 2.4
      vertex 16.4891 -5.2881 2.4
      vertex 21.4441 -5.21779 2.4
    endloop
  endfacet
  facet normal 0 0 1
    outer loop
      vertex 11.5612 -1.1201 2.4
      vertex 10.2513 -2.17897 2.4
      vertex 11.5612 -2.8591 2.4
    endloop
  endfacet
  facet normal 0 0 1
    outer loop
      vertex 9.57421 -4.26271 2.4
      vertex 11.5612 -2.8591 2.4
      vertex 10.2513 -2.17897 2.4
    endloop
  endfacet
  facet normal 0 0 1
    outer loop
      vertex 11.5612 -2.8591 2.4
      vertex 9.57421 -4.26271 2.4
      vertex 15.1571 -5.2881 2.4
    endloop
  endfacet
  facet normal 0 0 1
    outer loop
      vertex 8.47873 -6.16016 2.4
      vertex 15.1571 -5.2881 2.4
      vertex 9.57421 -4.26271 2.4
    endloop
  endfacet
  facet normal 0 0 1
    outer loop
      vertex 7.01268 -7.78837 2.4
      vertex 15.1571 -5.2881 2.4
      vertex 8.47873 -6.16016 2.4
    endloop
  endfacet
  facet normal -0 0 1
    outer loop
      vertex 15.1571 -5.2881 2.4
      vertex 7.01268 -7.78837 2.4
      vertex 16.4891 -5.2881 2.4
    endloop
  endfacet
  facet normal 0 0 1
    outer loop
      vertex 5.24014 -9.07619 2.4
      vertex 16.4891 -5.2881 2.4
      vertex 7.01268 -7.78837 2.4
    endloop
  endfacet
  facet normal -0 0 1
    outer loop
      vertex 16.4891 -5.2881 2.4
      vertex 5.24014 -9.07619 2.4
      vertex 21.4441 -5.21779 2.4
    endloop
  endfacet
  facet normal 0 0 1
    outer loop
      vertex 21.4441 -5.21779 2.4
      vertex 5.24014 -9.07619 2.4
      vertex 3.23858 -9.96734 2.4
    endloop
  endfacet
  facet normal 0 0 1
    outer loop
      vertex 17.6411 -1.1201 2.4
      vertex 16.4891 -0.255096 2.4
      vertex 16.4891 -1.1201 2.4
    endloop
  endfacet
  facet normal 0 0 1
    outer loop
      vertex 15.4011 -2.59911 2.4
      vertex 12.8532 -2.5991 2.4
      vertex 15.4011 -4.3131 2.4
    endloop
  endfacet
  facet normal 0.207912 0.978148 -0
    outer loop
      vertex 3.23858 9.96734 2.4
      vertex 1.09549 10.4229 4
      vertex 3.23858 9.96734 4
    endloop
  endfacet
  facet normal 0.207912 0.978148 0
    outer loop
      vertex 1.09549 10.4229 0
      vertex 3.23858 9.96734 2.4
      vertex 3.23858 9.96734 0
    endloop
  endfacet
  facet normal 0.207912 0.978148 0
    outer loop
      vertex 3.23858 9.96734 2.4
      vertex 1.09549 10.4229 0
      vertex 1.09549 10.4229 4
    endloop
  endfacet
  facet normal -0.587785 0.809017 0
    outer loop
      vertex -5.24014 9.07619 0
      vertex -7.01268 7.78837 4
      vertex -5.24014 9.07619 4
    endloop
  endfacet
  facet normal -0.587785 0.809017 0
    outer loop
      vertex -7.01268 7.78837 4
      vertex -5.24014 9.07619 0
      vertex -7.01268 7.78837 0
    endloop
  endfacet
  facet normal 0.207912 -0.978148 0
    outer loop
      vertex 1.09549 -10.4229 4
      vertex 3.23858 -9.96734 2.4
      vertex 3.23858 -9.96734 4
    endloop
  endfacet
  facet normal 0.207912 -0.978148 0
    outer loop
      vertex 1.09549 -10.4229 0
      vertex 3.23858 -9.96734 2.4
      vertex 1.09549 -10.4229 4
    endloop
  endfacet
  facet normal 0.207912 -0.978148 0
    outer loop
      vertex 3.23858 -9.96734 2.4
      vertex 1.09549 -10.4229 0
      vertex 3.23858 -9.96734 0
    endloop
  endfacet
  facet normal 0.982973 -0.18375 0
    outer loop
      vertex 25.8469 -1.89296 2.4
      vertex 26.2007 0 0
      vertex 26.2007 0 2.4
    endloop
  endfacet
  facet normal 0.982973 -0.18375 0
    outer loop
      vertex 26.2007 0 0
      vertex 25.8469 -1.89296 2.4
      vertex 25.8469 -1.89296 0
    endloop
  endfacet
  facet normal 0.602634 0.798018 -0
    outer loop
      vertex 24.8331 3.53026 0
      vertex 23.2963 4.69078 2.4
      vertex 24.8331 3.53026 2.4
    endloop
  endfacet
  facet normal 0.602634 0.798018 0
    outer loop
      vertex 23.2963 4.69078 2.4
      vertex 24.8331 3.53026 0
      vertex 23.2963 4.69078 0
    endloop
  endfacet
  facet normal -0.743145 0.669131 0
    outer loop
      vertex -8.47873 6.16016 0
      vertex -7.01268 7.78837 4
      vertex -7.01268 7.78837 0
    endloop
  endfacet
  facet normal -0.743145 0.669131 0
    outer loop
      vertex -7.01268 7.78837 4
      vertex -8.47873 6.16016 0
      vertex -8.47873 6.16016 4
    endloop
  endfacet
  facet normal 0.602634 -0.798018 0
    outer loop
      vertex 23.2963 -4.69078 0
      vertex 24.8331 -3.53026 2.4
      vertex 23.2963 -4.69078 2.4
    endloop
  endfacet
  facet normal 0.602634 -0.798018 0
    outer loop
      vertex 24.8331 -3.53026 2.4
      vertex 23.2963 -4.69078 0
      vertex 24.8331 -3.53026 0
    endloop
  endfacet
  facet normal -0.743145 -0.669131 0
    outer loop
      vertex -7.01268 -7.78837 0
      vertex -8.47873 -6.16016 4
      vertex -8.47873 -6.16016 0
    endloop
  endfacet
  facet normal -0.743145 -0.669131 0
    outer loop
      vertex -8.47873 -6.16016 4
      vertex -7.01268 -7.78837 0
      vertex -7.01268 -7.78837 4
    endloop
  endfacet
  facet normal -0.207912 -0.978148 0
    outer loop
      vertex -3.23858 -9.96734 0
      vertex -1.09549 -10.4229 4
      vertex -3.23858 -9.96734 4
    endloop
  endfacet
  facet normal -0.207912 -0.978148 -0
    outer loop
      vertex -1.09549 -10.4229 4
      vertex -3.23858 -9.96734 0
      vertex -1.09549 -10.4229 0
    endloop
  endfacet
  facet normal 0.850217 0.526432 0
    outer loop
      vertex 25.8469 1.89296 2.4
      vertex 24.8331 3.53026 0
      vertex 24.8331 3.53026 2.4
    endloop
  endfacet
  facet normal 0.850217 0.526432 0
    outer loop
      vertex 24.8331 3.53026 0
      vertex 25.8469 1.89296 2.4
      vertex 25.8469 1.89296 0
    endloop
  endfacet
  facet normal 0.982973 0.18375 0
    outer loop
      vertex 26.2007 0 2.4
      vertex 25.8469 1.89296 0
      vertex 25.8469 1.89296 2.4
    endloop
  endfacet
  facet normal 0.982973 0.18375 0
    outer loop
      vertex 25.8469 1.89296 0
      vertex 26.2007 0 2.4
      vertex 26.2007 0 0
    endloop
  endfacet
  facet normal 0.252437 0.967613 -0
    outer loop
      vertex 21.4441 5.21779 0
      vertex 3.23858 9.96734 2.4
      vertex 21.4441 5.21779 2.4
    endloop
  endfacet
  facet normal 0.252437 0.967613 0
    outer loop
      vertex 3.23858 9.96734 2.4
      vertex 21.4441 5.21779 0
      vertex 3.23858 9.96734 0
    endloop
  endfacet
  facet normal 0.273663 0.961826 -0
    outer loop
      vertex 23.2963 4.69078 0
      vertex 21.4441 5.21779 2.4
      vertex 23.2963 4.69078 2.4
    endloop
  endfacet
  facet normal 0.273663 0.961826 0
    outer loop
      vertex 21.4441 5.21779 2.4
      vertex 23.2963 4.69078 0
      vertex 21.4441 5.21779 0
    endloop
  endfacet
  facet normal -0.207912 0.978148 0
    outer loop
      vertex -1.09549 10.4229 0
      vertex -3.23858 9.96734 4
      vertex -1.09549 10.4229 4
    endloop
  endfacet
  facet normal -0.207912 0.978148 0
    outer loop
      vertex -3.23858 9.96734 4
      vertex -1.09549 10.4229 0
      vertex -3.23858 9.96734 0
    endloop
  endfacet
  facet normal 0 1 -0
    outer loop
      vertex 1.09549 10.4229 0
      vertex -1.09549 10.4229 4
      vertex 1.09549 10.4229 4
    endloop
  endfacet
  facet normal 0 1 0
    outer loop
      vertex -1.09549 10.4229 4
      vertex 1.09549 10.4229 0
      vertex -1.09549 10.4229 0
    endloop
  endfacet
  facet normal -0.406737 0.913545 0
    outer loop
      vertex -3.23858 9.96734 0
      vertex -5.24014 9.07619 4
      vertex -3.23858 9.96734 4
    endloop
  endfacet
  facet normal -0.406737 0.913545 0
    outer loop
      vertex -5.24014 9.07619 4
      vertex -3.23858 9.96734 0
      vertex -5.24014 9.07619 0
    endloop
  endfacet
  facet normal -0.866025 0.5 0
    outer loop
      vertex -9.57421 4.26271 0
      vertex -8.47873 6.16016 4
      vertex -8.47873 6.16016 0
    endloop
  endfacet
  facet normal -0.866025 0.5 0
    outer loop
      vertex -8.47873 6.16016 4
      vertex -9.57421 4.26271 0
      vertex -9.57421 4.26271 4
    endloop
  endfacet
  facet normal 0.850217 -0.526432 0
    outer loop
      vertex 24.8331 -3.53026 2.4
      vertex 25.8469 -1.89296 0
      vertex 25.8469 -1.89296 2.4
    endloop
  endfacet
  facet normal 0.850217 -0.526432 0
    outer loop
      vertex 25.8469 -1.89296 0
      vertex 24.8331 -3.53026 2.4
      vertex 24.8331 -3.53026 0
    endloop
  endfacet
  facet normal 0.273663 -0.961826 0
    outer loop
      vertex 21.4441 -5.21779 0
      vertex 23.2963 -4.69078 2.4
      vertex 21.4441 -5.21779 2.4
    endloop
  endfacet
  facet normal 0.273663 -0.961826 0
    outer loop
      vertex 23.2963 -4.69078 2.4
      vertex 21.4441 -5.21779 0
      vertex 23.2963 -4.69078 0
    endloop
  endfacet
  facet normal 0.252437 -0.967613 0
    outer loop
      vertex 3.23858 -9.96734 0
      vertex 21.4441 -5.21779 2.4
      vertex 3.23858 -9.96734 2.4
    endloop
  endfacet
  facet normal 0.252437 -0.967613 0
    outer loop
      vertex 21.4441 -5.21779 2.4
      vertex 3.23858 -9.96734 0
      vertex 21.4441 -5.21779 0
    endloop
  endfacet
  facet normal 0 -1 0
    outer loop
      vertex -1.09549 -10.4229 0
      vertex 1.09549 -10.4229 4
      vertex -1.09549 -10.4229 4
    endloop
  endfacet
  facet normal 0 -1 -0
    outer loop
      vertex 1.09549 -10.4229 4
      vertex -1.09549 -10.4229 0
      vertex 1.09549 -10.4229 0
    endloop
  endfacet
  facet normal -0.406737 -0.913545 0
    outer loop
      vertex -5.24014 -9.07619 0
      vertex -3.23858 -9.96734 4
      vertex -5.24014 -9.07619 4
    endloop
  endfacet
  facet normal -0.406737 -0.913545 -0
    outer loop
      vertex -3.23858 -9.96734 4
      vertex -5.24014 -9.07619 0
      vertex -3.23858 -9.96734 0
    endloop
  endfacet
  facet normal -0.587785 -0.809017 0
    outer loop
      vertex -7.01268 -7.78837 0
      vertex -5.24014 -9.07619 4
      vertex -7.01268 -7.78837 4
    endloop
  endfacet
  facet normal -0.587785 -0.809017 -0
    outer loop
      vertex -5.24014 -9.07619 4
      vertex -7.01268 -7.78837 0
      vertex -5.24014 -9.07619 0
    endloop
  endfacet
  facet normal -0.866025 -0.5 0
    outer loop
      vertex -8.47873 -6.16016 0
      vertex -9.57421 -4.26271 4
      vertex -9.57421 -4.26271 0
    endloop
  endfacet
  facet normal -0.866025 -0.5 0
    outer loop
      vertex -9.57421 -4.26271 4
      vertex -8.47873 -6.16016 0
      vertex -8.47873 -6.16016 4
    endloop
  endfacet
  facet normal -0.951056 -0.309017 0
    outer loop
      vertex -9.57421 -4.26271 0
      vertex -10.2513 -2.17897 4
      vertex -10.2513 -2.17897 0
    endloop
  endfacet
  facet normal -0.951056 -0.309017 0
    outer loop
      vertex -10.2513 -2.17897 4
      vertex -9.57421 -4.26271 0
      vertex -9.57421 -4.26271 4
    endloop
  endfacet
  facet normal 0.951056 0.309017 0
    outer loop
      vertex 10.2513 2.17897 4
      vertex 9.57421 4.26271 2.4
      vertex 9.57421 4.26271 4
    endloop
  endfacet
  facet normal 0.951056 0.309017 0
    outer loop
      vertex 9.57421 4.26271 2.4
      vertex 10.2513 2.17897 4
      vertex 10.2513 2.17897 2.4
    endloop
  endfacet
  facet normal 0.994522 0.104528 0
    outer loop
      vertex 10.4803 0 4
      vertex 10.2513 2.17897 2.4
      vertex 10.2513 2.17897 4
    endloop
  endfacet
  facet normal 0.994522 0.104528 0
    outer loop
      vertex 10.2513 2.17897 2.4
      vertex 10.4803 0 4
      vertex 10.4803 0 2.4
    endloop
  endfacet
  facet normal 0.406737 0.913545 -0
    outer loop
      vertex 5.24014 9.07619 2.4
      vertex 3.23858 9.96734 4
      vertex 5.24014 9.07619 4
    endloop
  endfacet
  facet normal 0.406737 0.913545 0
    outer loop
      vertex 3.23858 9.96734 4
      vertex 5.24014 9.07619 2.4
      vertex 3.23858 9.96734 2.4
    endloop
  endfacet
  facet normal 0.587785 -0.809017 0
    outer loop
      vertex 5.24014 -9.07619 2.4
      vertex 7.01268 -7.78837 4
      vertex 5.24014 -9.07619 4
    endloop
  endfacet
  facet normal 0.587785 -0.809017 0
    outer loop
      vertex 7.01268 -7.78837 4
      vertex 5.24014 -9.07619 2.4
      vertex 7.01268 -7.78837 2.4
    endloop
  endfacet
  facet normal 0.866025 -0.5 0
    outer loop
      vertex 8.47873 -6.16016 4
      vertex 9.57421 -4.26271 2.4
      vertex 9.57421 -4.26271 4
    endloop
  endfacet
  facet normal 0.866025 -0.5 0
    outer loop
      vertex 9.57421 -4.26271 2.4
      vertex 8.47873 -6.16016 4
      vertex 8.47873 -6.16016 2.4
    endloop
  endfacet
  facet normal 0.994522 -0.104528 0
    outer loop
      vertex 10.2513 -2.17897 4
      vertex 10.4803 0 2.4
      vertex 10.4803 0 4
    endloop
  endfacet
  facet normal 0.994522 -0.104528 0
    outer loop
      vertex 10.4803 0 2.4
      vertex 10.2513 -2.17897 4
      vertex 10.2513 -2.17897 2.4
    endloop
  endfacet
  facet normal 0 0 1
    outer loop
      vertex 7.48028 0 4
      vertex 10.4803 0 4
      vertex 10.2513 2.17897 4
    endloop
  endfacet
  facet normal 0 0 1
    outer loop
      vertex 7.2254 1.93604 4
      vertex 10.2513 2.17897 4
      vertex 9.57421 4.26271 4
    endloop
  endfacet
  facet normal 0 0 1
    outer loop
      vertex 10.4803 0 4
      vertex 7.48028 0 4
      vertex 10.2513 -2.17897 4
    endloop
  endfacet
  facet normal 0 0 1
    outer loop
      vertex 6.47811 3.74014 4
      vertex 9.57421 4.26271 4
      vertex 8.47873 6.16016 4
    endloop
  endfacet
  facet normal -0 0 1
    outer loop
      vertex 7.2254 -1.93604 4
      vertex 10.2513 -2.17897 4
      vertex 7.48028 0 4
    endloop
  endfacet
  facet normal 0 0 1
    outer loop
      vertex 10.2513 -2.17897 4
      vertex 7.2254 -1.93604 4
      vertex 9.57421 -4.26271 4
    endloop
  endfacet
  facet normal 0 0 1
    outer loop
      vertex 10.2513 2.17897 4
      vertex 7.2254 1.93604 4
      vertex 7.48028 0 4
    endloop
  endfacet
  facet normal 0 0 1
    outer loop
      vertex 5.28936 5.28936 4
      vertex 8.47873 6.16016 4
      vertex 7.01268 7.78837 4
    endloop
  endfacet
  facet normal 0 0 1
    outer loop
      vertex 9.57421 4.26271 4
      vertex 6.47811 3.74014 4
      vertex 7.2254 1.93604 4
    endloop
  endfacet
  facet normal 0 0 1
    outer loop
      vertex 8.47873 6.16016 4
      vertex 5.28936 5.28936 4
      vertex 6.47811 3.74014 4
    endloop
  endfacet
  facet normal 0 0 1
    outer loop
      vertex 3.74014 6.47811 4
      vertex 7.01268 7.78837 4
      vertex 5.24014 9.07619 4
    endloop
  endfacet
  facet normal 0 0 1
    outer loop
      vertex 7.01268 7.78837 4
      vertex 3.74014 6.47811 4
      vertex 5.28936 5.28936 4
    endloop
  endfacet
  facet normal 0 0 1
    outer loop
      vertex 3.23858 9.96734 4
      vertex 3.74014 6.47811 4
      vertex 5.24014 9.07619 4
    endloop
  endfacet
  facet normal 0 0 1
    outer loop
      vertex 3.23858 9.96734 4
      vertex 1.93604 7.2254 4
      vertex 3.74014 6.47811 4
    endloop
  endfacet
  facet normal 0 0 1
    outer loop
      vertex 1.09549 10.4229 4
      vertex 1.93604 7.2254 4
      vertex 3.23858 9.96734 4
    endloop
  endfacet
  facet normal 0 0 1
    outer loop
      vertex 1.09549 10.4229 4
      vertex 0 7.48028 4
      vertex 1.93604 7.2254 4
    endloop
  endfacet
  facet normal -0 0 1
    outer loop
      vertex -1.09549 10.4229 4
      vertex 0 7.48028 4
      vertex 1.09549 10.4229 4
    endloop
  endfacet
  facet normal 0 0 1
    outer loop
      vertex -1.09549 10.4229 4
      vertex -1.93604 7.2254 4
      vertex 0 7.48028 4
    endloop
  endfacet
  facet normal -0 0 1
    outer loop
      vertex -3.23858 9.96734 4
      vertex -1.93604 7.2254 4
      vertex -1.09549 10.4229 4
    endloop
  endfacet
  facet normal 0 0 1
    outer loop
      vertex -3.23858 9.96734 4
      vertex -3.74014 6.47811 4
      vertex -1.93604 7.2254 4
    endloop
  endfacet
  facet normal -0 0 1
    outer loop
      vertex -5.24014 9.07619 4
      vertex -3.74014 6.47811 4
      vertex -3.23858 9.96734 4
    endloop
  endfacet
  facet normal -0 0 1
    outer loop
      vertex -7.01268 7.78837 4
      vertex -3.74014 6.47811 4
      vertex -5.24014 9.07619 4
    endloop
  endfacet
  facet normal 0 0 1
    outer loop
      vertex -3.74014 6.47811 4
      vertex -7.01268 7.78837 4
      vertex -5.28936 5.28936 4
    endloop
  endfacet
  facet normal -0 0 1
    outer loop
      vertex -8.47873 6.16016 4
      vertex -5.28936 5.28936 4
      vertex -7.01268 7.78837 4
    endloop
  endfacet
  facet normal 0 0 1
    outer loop
      vertex -5.28936 5.28936 4
      vertex -8.47873 6.16016 4
      vertex -6.47811 3.74014 4
    endloop
  endfacet
  facet normal -0 0 1
    outer loop
      vertex -9.57421 4.26271 4
      vertex -6.47811 3.74014 4
      vertex -8.47873 6.16016 4
    endloop
  endfacet
  facet normal 0 0 1
    outer loop
      vertex -6.47811 3.74014 4
      vertex -9.57421 4.26271 4
      vertex -7.2254 1.93604 4
    endloop
  endfacet
  facet normal -0 0 1
    outer loop
      vertex 6.47811 -3.74014 4
      vertex 9.57421 -4.26271 4
      vertex 7.2254 -1.93604 4
    endloop
  endfacet
  facet normal 0 0 1
    outer loop
      vertex 9.57421 -4.26271 4
      vertex 6.47811 -3.74014 4
      vertex 8.47873 -6.16016 4
    endloop
  endfacet
  facet normal -0 0 1
    outer loop
      vertex 5.28936 -5.28936 4
      vertex 8.47873 -6.16016 4
      vertex 6.47811 -3.74014 4
    endloop
  endfacet
  facet normal 0 0 1
    outer loop
      vertex 8.47873 -6.16016 4
      vertex 5.28936 -5.28936 4
      vertex 7.01268 -7.78837 4
    endloop
  endfacet
  facet normal -0 0 1
    outer loop
      vertex 3.74014 -6.47811 4
      vertex 7.01268 -7.78837 4
      vertex 5.28936 -5.28936 4
    endloop
  endfacet
  facet normal 0 0 1
    outer loop
      vertex 7.01268 -7.78837 4
      vertex 3.74014 -6.47811 4
      vertex 5.24014 -9.07619 4
    endloop
  endfacet
  facet normal 0 0 1
    outer loop
      vertex 3.74014 -6.47811 4
      vertex 3.23858 -9.96734 4
      vertex 5.24014 -9.07619 4
    endloop
  endfacet
  facet normal -0 0 1
    outer loop
      vertex 1.93604 -7.2254 4
      vertex 3.23858 -9.96734 4
      vertex 3.74014 -6.47811 4
    endloop
  endfacet
  facet normal 0 0 1
    outer loop
      vertex 1.93604 -7.2254 4
      vertex 1.09549 -10.4229 4
      vertex 3.23858 -9.96734 4
    endloop
  endfacet
  facet normal -0 0 1
    outer loop
      vertex 0 -7.48028 4
      vertex 1.09549 -10.4229 4
      vertex 1.93604 -7.2254 4
    endloop
  endfacet
  facet normal 0 0 1
    outer loop
      vertex 0 -7.48028 4
      vertex -1.09549 -10.4229 4
      vertex 1.09549 -10.4229 4
    endloop
  endfacet
  facet normal 0 0 1
    outer loop
      vertex -1.93604 -7.2254 4
      vertex -1.09549 -10.4229 4
      vertex 0 -7.48028 4
    endloop
  endfacet
  facet normal 0 0 1
    outer loop
      vertex -1.93604 -7.2254 4
      vertex -3.23858 -9.96734 4
      vertex -1.09549 -10.4229 4
    endloop
  endfacet
  facet normal 0 0 1
    outer loop
      vertex -3.74014 -6.47811 4
      vertex -3.23858 -9.96734 4
      vertex -1.93604 -7.2254 4
    endloop
  endfacet
  facet normal 0 0 1
    outer loop
      vertex -3.74014 -6.47811 4
      vertex -5.24014 -9.07619 4
      vertex -3.23858 -9.96734 4
    endloop
  endfacet
  facet normal 0 0 1
    outer loop
      vertex -7.01268 -7.78837 4
      vertex -3.74014 -6.47811 4
      vertex -5.28936 -5.28936 4
    endloop
  endfacet
  facet normal 0 0 1
    outer loop
      vertex -8.47873 -6.16016 4
      vertex -5.28936 -5.28936 4
      vertex -6.47811 -3.74014 4
    endloop
  endfacet
  facet normal 0 0 1
    outer loop
      vertex -3.74014 -6.47811 4
      vertex -7.01268 -7.78837 4
      vertex -5.24014 -9.07619 4
    endloop
  endfacet
  facet normal 0 0 1
    outer loop
      vertex -9.57421 -4.26271 4
      vertex -6.47811 -3.74014 4
      vertex -7.2254 -1.93604 4
    endloop
  endfacet
  facet normal 0 0 1
    outer loop
      vertex -10.2513 -2.17897 4
      vertex -7.2254 -1.93604 4
      vertex -7.48028 0 4
    endloop
  endfacet
  facet normal -0 0 1
    outer loop
      vertex -10.2513 2.17897 4
      vertex -7.2254 1.93604 4
      vertex -9.57421 4.26271 4
    endloop
  endfacet
  facet normal 0 0 1
    outer loop
      vertex -5.28936 -5.28936 4
      vertex -8.47873 -6.16016 4
      vertex -7.01268 -7.78837 4
    endloop
  endfacet
  facet normal 0 0 1
    outer loop
      vertex -7.2254 1.93604 4
      vertex -10.2513 2.17897 4
      vertex -7.48028 0 4
    endloop
  endfacet
  facet normal 0 0 1
    outer loop
      vertex -6.47811 -3.74014 4
      vertex -9.57421 -4.26271 4
      vertex -8.47873 -6.16016 4
    endloop
  endfacet
  facet normal 0 0 1
    outer loop
      vertex -10.4803 0 4
      vertex -7.48028 0 4
      vertex -10.2513 2.17897 4
    endloop
  endfacet
  facet normal 0 0 1
    outer loop
      vertex -7.2254 -1.93604 4
      vertex -10.2513 -2.17897 4
      vertex -9.57421 -4.26271 4
    endloop
  endfacet
  facet normal 0 0 1
    outer loop
      vertex -7.48028 0 4
      vertex -10.4803 0 4
      vertex -10.2513 -2.17897 4
    endloop
  endfacet
  facet normal 0.866025 0.5 0
    outer loop
      vertex 9.57421 4.26271 4
      vertex 8.47873 6.16016 2.4
      vertex 8.47873 6.16016 4
    endloop
  endfacet
  facet normal 0.866025 0.5 0
    outer loop
      vertex 8.47873 6.16016 2.4
      vertex 9.57421 4.26271 4
      vertex 9.57421 4.26271 2.4
    endloop
  endfacet
  facet normal 0.743145 0.669131 0
    outer loop
      vertex 8.47873 6.16016 4
      vertex 7.01268 7.78837 2.4
      vertex 7.01268 7.78837 4
    endloop
  endfacet
  facet normal 0.743145 0.669131 0
    outer loop
      vertex 7.01268 7.78837 2.4
      vertex 8.47873 6.16016 4
      vertex 8.47873 6.16016 2.4
    endloop
  endfacet
  facet normal 0.406737 -0.913545 0
    outer loop
      vertex 3.23858 -9.96734 2.4
      vertex 5.24014 -9.07619 4
      vertex 3.23858 -9.96734 4
    endloop
  endfacet
  facet normal 0.406737 -0.913545 0
    outer loop
      vertex 5.24014 -9.07619 4
      vertex 3.23858 -9.96734 2.4
      vertex 5.24014 -9.07619 2.4
    endloop
  endfacet
  facet normal 0.743145 -0.669131 0
    outer loop
      vertex 7.01268 -7.78837 4
      vertex 8.47873 -6.16016 2.4
      vertex 8.47873 -6.16016 4
    endloop
  endfacet
  facet normal 0.743145 -0.669131 0
    outer loop
      vertex 8.47873 -6.16016 2.4
      vertex 7.01268 -7.78837 4
      vertex 7.01268 -7.78837 2.4
    endloop
  endfacet
  facet normal 0.951056 -0.309017 0
    outer loop
      vertex 9.57421 -4.26271 4
      vertex 10.2513 -2.17897 2.4
      vertex 10.2513 -2.17897 4
    endloop
  endfacet
  facet normal 0.951056 -0.309017 0
    outer loop
      vertex 10.2513 -2.17897 2.4
      vertex 9.57421 -4.26271 4
      vertex 9.57421 -4.26271 2.4
    endloop
  endfacet
  facet normal 0.587785 0.809017 -0
    outer loop
      vertex 7.01268 7.78837 2.4
      vertex 5.24014 9.07619 4
      vertex 7.01268 7.78837 4
    endloop
  endfacet
  facet normal 0.587785 0.809017 0
    outer loop
      vertex 5.24014 9.07619 4
      vertex 7.01268 7.78837 2.4
      vertex 5.24014 9.07619 2.4
    endloop
  endfacet
  facet normal -0.608761 -0.793353 0
    outer loop
      vertex 3.74014 6.47811 0
      vertex 5.28936 5.28936 4
      vertex 3.74014 6.47811 4
    endloop
  endfacet
  facet normal -0.608761 -0.793353 -0
    outer loop
      vertex 5.28936 5.28936 4
      vertex 3.74014 6.47811 0
      vertex 5.28936 5.28936 0
    endloop
  endfacet
  facet normal 0.92388 -0.382683 0
    outer loop
      vertex -7.2254 1.93604 4
      vertex -6.47811 3.74014 0
      vertex -6.47811 3.74014 4
    endloop
  endfacet
  facet normal 0.92388 -0.382683 0
    outer loop
      vertex -6.47811 3.74014 0
      vertex -7.2254 1.93604 4
      vertex -7.2254 1.93604 0
    endloop
  endfacet
  facet normal -0.991445 0.130526 0
    outer loop
      vertex 7.2254 -1.93604 0
      vertex 7.48028 0 4
      vertex 7.48028 0 0
    endloop
  endfacet
  facet normal -0.991445 0.130526 0
    outer loop
      vertex 7.48028 0 4
      vertex 7.2254 -1.93604 0
      vertex 7.2254 -1.93604 4
    endloop
  endfacet
  facet normal 0.382683 0.92388 -0
    outer loop
      vertex -1.93604 -7.2254 0
      vertex -3.74014 -6.47811 4
      vertex -1.93604 -7.2254 4
    endloop
  endfacet
  facet normal 0.382683 0.92388 0
    outer loop
      vertex -3.74014 -6.47811 4
      vertex -1.93604 -7.2254 0
      vertex -3.74014 -6.47811 0
    endloop
  endfacet
  facet normal -0.793353 -0.608761 0
    outer loop
      vertex 6.47811 3.74014 0
      vertex 5.28936 5.28936 4
      vertex 5.28936 5.28936 0
    endloop
  endfacet
  facet normal -0.793353 -0.608761 0
    outer loop
      vertex 5.28936 5.28936 4
      vertex 6.47811 3.74014 0
      vertex 6.47811 3.74014 4
    endloop
  endfacet
  facet normal -0.92388 -0.382683 0
    outer loop
      vertex 7.2254 1.93604 0
      vertex 6.47811 3.74014 4
      vertex 6.47811 3.74014 0
    endloop
  endfacet
  facet normal -0.92388 -0.382683 0
    outer loop
      vertex 6.47811 3.74014 4
      vertex 7.2254 1.93604 0
      vertex 7.2254 1.93604 4
    endloop
  endfacet
  facet normal 0.382683 -0.92388 0
    outer loop
      vertex -3.74014 6.47811 0
      vertex -1.93604 7.2254 4
      vertex -3.74014 6.47811 4
    endloop
  endfacet
  facet normal 0.382683 -0.92388 0
    outer loop
      vertex -1.93604 7.2254 4
      vertex -3.74014 6.47811 0
      vertex -1.93604 7.2254 0
    endloop
  endfacet
  facet normal 0.608761 -0.793353 0
    outer loop
      vertex -5.28936 5.28936 0
      vertex -3.74014 6.47811 4
      vertex -5.28936 5.28936 4
    endloop
  endfacet
  facet normal 0.608761 -0.793353 0
    outer loop
      vertex -3.74014 6.47811 4
      vertex -5.28936 5.28936 0
      vertex -3.74014 6.47811 0
    endloop
  endfacet
  facet normal -0.608761 0.793353 0
    outer loop
      vertex 5.28936 -5.28936 0
      vertex 3.74014 -6.47811 4
      vertex 5.28936 -5.28936 4
    endloop
  endfacet
  facet normal -0.608761 0.793353 0
    outer loop
      vertex 3.74014 -6.47811 4
      vertex 5.28936 -5.28936 0
      vertex 3.74014 -6.47811 0
    endloop
  endfacet
  facet normal 0.608761 0.793353 -0
    outer loop
      vertex -3.74014 -6.47811 0
      vertex -5.28936 -5.28936 4
      vertex -3.74014 -6.47811 4
    endloop
  endfacet
  facet normal 0.608761 0.793353 0
    outer loop
      vertex -5.28936 -5.28936 4
      vertex -3.74014 -6.47811 0
      vertex -5.28936 -5.28936 0
    endloop
  endfacet
  facet normal -0.130526 -0.991445 0
    outer loop
      vertex 0 7.48028 0
      vertex 1.93604 7.2254 4
      vertex 0 7.48028 4
    endloop
  endfacet
  facet normal -0.130526 -0.991445 -0
    outer loop
      vertex 1.93604 7.2254 4
      vertex 0 7.48028 0
      vertex 1.93604 7.2254 0
    endloop
  endfacet
  facet normal -0.382683 -0.92388 0
    outer loop
      vertex 1.93604 7.2254 0
      vertex 3.74014 6.47811 4
      vertex 1.93604 7.2254 4
    endloop
  endfacet
  facet normal -0.382683 -0.92388 -0
    outer loop
      vertex 3.74014 6.47811 4
      vertex 1.93604 7.2254 0
      vertex 3.74014 6.47811 0
    endloop
  endfacet
  facet normal 0.991445 -0.130526 0
    outer loop
      vertex -7.48028 0 4
      vertex -7.2254 1.93604 0
      vertex -7.2254 1.93604 4
    endloop
  endfacet
  facet normal 0.991445 -0.130526 0
    outer loop
      vertex -7.2254 1.93604 0
      vertex -7.48028 0 4
      vertex -7.48028 0 0
    endloop
  endfacet
  facet normal 0.793353 -0.608761 0
    outer loop
      vertex -6.47811 3.74014 4
      vertex -5.28936 5.28936 0
      vertex -5.28936 5.28936 4
    endloop
  endfacet
  facet normal 0.793353 -0.608761 0
    outer loop
      vertex -5.28936 5.28936 0
      vertex -6.47811 3.74014 4
      vertex -6.47811 3.74014 0
    endloop
  endfacet
  facet normal 0.130526 -0.991445 0
    outer loop
      vertex -1.93604 7.2254 0
      vertex 0 7.48028 4
      vertex -1.93604 7.2254 4
    endloop
  endfacet
  facet normal 0.130526 -0.991445 0
    outer loop
      vertex 0 7.48028 4
      vertex -1.93604 7.2254 0
      vertex 0 7.48028 0
    endloop
  endfacet
  facet normal -0.991445 -0.130526 0
    outer loop
      vertex 7.48028 0 0
      vertex 7.2254 1.93604 4
      vertex 7.2254 1.93604 0
    endloop
  endfacet
  facet normal -0.991445 -0.130526 0
    outer loop
      vertex 7.2254 1.93604 4
      vertex 7.48028 0 0
      vertex 7.48028 0 4
    endloop
  endfacet
  facet normal -0.130526 0.991445 0
    outer loop
      vertex 1.93604 -7.2254 0
      vertex 0 -7.48028 4
      vertex 1.93604 -7.2254 4
    endloop
  endfacet
  facet normal -0.130526 0.991445 0
    outer loop
      vertex 0 -7.48028 4
      vertex 1.93604 -7.2254 0
      vertex 0 -7.48028 0
    endloop
  endfacet
  facet normal -0.793353 0.608761 0
    outer loop
      vertex 5.28936 -5.28936 0
      vertex 6.47811 -3.74014 4
      vertex 6.47811 -3.74014 0
    endloop
  endfacet
  facet normal -0.793353 0.608761 0
    outer loop
      vertex 6.47811 -3.74014 4
      vertex 5.28936 -5.28936 0
      vertex 5.28936 -5.28936 4
    endloop
  endfacet
  facet normal -0.92388 0.382683 0
    outer loop
      vertex 6.47811 -3.74014 0
      vertex 7.2254 -1.93604 4
      vertex 7.2254 -1.93604 0
    endloop
  endfacet
  facet normal -0.92388 0.382683 0
    outer loop
      vertex 7.2254 -1.93604 4
      vertex 6.47811 -3.74014 0
      vertex 6.47811 -3.74014 4
    endloop
  endfacet
  facet normal -0.382683 0.92388 0
    outer loop
      vertex 3.74014 -6.47811 0
      vertex 1.93604 -7.2254 4
      vertex 3.74014 -6.47811 4
    endloop
  endfacet
  facet normal -0.382683 0.92388 0
    outer loop
      vertex 1.93604 -7.2254 4
      vertex 3.74014 -6.47811 0
      vertex 1.93604 -7.2254 0
    endloop
  endfacet
  facet normal 0.130526 0.991445 -0
    outer loop
      vertex 0 -7.48028 0
      vertex -1.93604 -7.2254 4
      vertex 0 -7.48028 4
    endloop
  endfacet
  facet normal 0.130526 0.991445 0
    outer loop
      vertex -1.93604 -7.2254 4
      vertex 0 -7.48028 0
      vertex -1.93604 -7.2254 0
    endloop
  endfacet
  facet normal 0.793353 0.608761 0
    outer loop
      vertex -5.28936 -5.28936 4
      vertex -6.47811 -3.74014 0
      vertex -6.47811 -3.74014 4
    endloop
  endfacet
  facet normal 0.793353 0.608761 0
    outer loop
      vertex -6.47811 -3.74014 0
      vertex -5.28936 -5.28936 4
      vertex -5.28936 -5.28936 0
    endloop
  endfacet
  facet normal 0.991445 0.130526 0
    outer loop
      vertex -7.2254 -1.93604 4
      vertex -7.48028 0 0
      vertex -7.48028 0 4
    endloop
  endfacet
  facet normal 0.991445 0.130526 0
    outer loop
      vertex -7.48028 0 0
      vertex -7.2254 -1.93604 4
      vertex -7.2254 -1.93604 0
    endloop
  endfacet
  facet normal 0.92388 0.382683 0
    outer loop
      vertex -6.47811 -3.74014 4
      vertex -7.2254 -1.93604 0
      vertex -7.2254 -1.93604 4
    endloop
  endfacet
  facet normal 0.92388 0.382683 0
    outer loop
      vertex -7.2254 -1.93604 0
      vertex -6.47811 -3.74014 4
      vertex -6.47811 -3.74014 0
    endloop
  endfacet
  facet normal -0.951057 -0.309017 0
    outer loop
      vertex 23.9606 0 0
      vertex 23.3876 1.76336 2.4
      vertex 23.3876 1.76336 0
    endloop
  endfacet
  facet normal -0.951057 -0.309017 0
    outer loop
      vertex 23.3876 1.76336 2.4
      vertex 23.9606 0 0
      vertex 23.9606 0 2.4
    endloop
  endfacet
  facet normal 0.951057 0.309017 0
    outer loop
      vertex 18.5335 -1.76336 2.4
      vertex 17.9606 0 0
      vertex 17.9606 0 2.4
    endloop
  endfacet
  facet normal 0.951057 0.309017 0
    outer loop
      vertex 17.9606 0 0
      vertex 18.5335 -1.76336 2.4
      vertex 18.5335 -1.76336 0
    endloop
  endfacet
  facet normal 0 -1 0
    outer loop
      vertex 20.0335 2.85317 0
      vertex 21.8876 2.85317 2.4
      vertex 20.0335 2.85317 2.4
    endloop
  endfacet
  facet normal 0 -1 -0
    outer loop
      vertex 21.8876 2.85317 2.4
      vertex 20.0335 2.85317 0
      vertex 21.8876 2.85317 0
    endloop
  endfacet
  facet normal -0.587785 -0.809017 0
    outer loop
      vertex 21.8876 2.85317 0
      vertex 23.3876 1.76336 2.4
      vertex 21.8876 2.85317 2.4
    endloop
  endfacet
  facet normal -0.587785 -0.809017 -0
    outer loop
      vertex 23.3876 1.76336 2.4
      vertex 21.8876 2.85317 0
      vertex 23.3876 1.76336 0
    endloop
  endfacet
  facet normal 0.587785 -0.809017 0
    outer loop
      vertex 18.5335 1.76336 0
      vertex 20.0335 2.85317 2.4
      vertex 18.5335 1.76336 2.4
    endloop
  endfacet
  facet normal 0.587785 -0.809017 0
    outer loop
      vertex 20.0335 2.85317 2.4
      vertex 18.5335 1.76336 0
      vertex 20.0335 2.85317 0
    endloop
  endfacet
  facet normal -0.587785 0.809017 0
    outer loop
      vertex 23.3876 -1.76336 0
      vertex 21.8876 -2.85317 2.4
      vertex 23.3876 -1.76336 2.4
    endloop
  endfacet
  facet normal -0.587785 0.809017 0
    outer loop
      vertex 21.8876 -2.85317 2.4
      vertex 23.3876 -1.76336 0
      vertex 21.8876 -2.85317 0
    endloop
  endfacet
  facet normal 0.587785 0.809017 -0
    outer loop
      vertex 20.0335 -2.85317 0
      vertex 18.5335 -1.76336 2.4
      vertex 20.0335 -2.85317 2.4
    endloop
  endfacet
  facet normal 0.587785 0.809017 0
    outer loop
      vertex 18.5335 -1.76336 2.4
      vertex 20.0335 -2.85317 0
      vertex 18.5335 -1.76336 0
    endloop
  endfacet
  facet normal 0.951057 -0.309017 0
    outer loop
      vertex 17.9606 0 2.4
      vertex 18.5335 1.76336 0
      vertex 18.5335 1.76336 2.4
    endloop
  endfacet
  facet normal 0.951057 -0.309017 0
    outer loop
      vertex 18.5335 1.76336 0
      vertex 17.9606 0 2.4
      vertex 17.9606 0 0
    endloop
  endfacet
  facet normal 0 1 -0
    outer loop
      vertex 21.8876 -2.85317 0
      vertex 20.0335 -2.85317 2.4
      vertex 21.8876 -2.85317 2.4
    endloop
  endfacet
  facet normal 0 1 0
    outer loop
      vertex 20.0335 -2.85317 2.4
      vertex 21.8876 -2.85317 0
      vertex 20.0335 -2.85317 0
    endloop
  endfacet
  facet normal -0.951057 0.309017 0
    outer loop
      vertex 23.3876 -1.76336 0
      vertex 23.9606 0 2.4
      vertex 23.9606 0 0
    endloop
  endfacet
  facet normal -0.951057 0.309017 0
    outer loop
      vertex 23.9606 0 2.4
      vertex 23.3876 -1.76336 0
      vertex 23.3876 -1.76336 2.4
    endloop
  endfacet
  facet normal 0 0 1
    outer loop
      vertex 15.4011 -1.1201 1.6
      vertex 12.8532 -2.5991 1.6
      vertex 15.4011 -2.59911 1.6
    endloop
  endfacet
  facet normal 0 -0 1
    outer loop
      vertex 12.8532 -2.5991 1.6
      vertex 15.4011 -1.1201 1.6
      vertex 11.5612 -1.1201 1.6
    endloop
  endfacet
  facet normal 0 0 1
    outer loop
      vertex 15.4011 -1.1201 1.6
      vertex 16.4891 -1.1201 1.6
      vertex 16.4891 -0.255096 1.6
    endloop
  endfacet
  facet normal 0 0 1
    outer loop
      vertex 16.4891 -1.1201 1.6
      vertex 15.4011 -1.1201 1.6
      vertex 16.4891 -2.59911 1.6
    endloop
  endfacet
  facet normal 0 0 1
    outer loop
      vertex 15.4011 -1.1201 1.6
      vertex 16.4891 -0.255096 1.6
      vertex 15.4011 -0.255096 1.6
    endloop
  endfacet
  facet normal 0 0 1
    outer loop
      vertex 16.4891 -2.59911 1.6
      vertex 15.4011 -1.1201 1.6
      vertex 15.4011 -2.59911 1.6
    endloop
  endfacet
  facet normal 0 0 1
    outer loop
      vertex 15.4011 -4.3131 1.6
      vertex 16.4891 -2.59911 1.6
      vertex 15.4011 -2.59911 1.6
    endloop
  endfacet
  facet normal 0 0 1
    outer loop
      vertex 16.4891 -2.59911 1.6
      vertex 15.4011 -4.3131 1.6
      vertex 16.4891 -5.2881 1.6
    endloop
  endfacet
  facet normal 0 0 1
    outer loop
      vertex 15.4011 -4.3131 1.6
      vertex 15.1571 -5.2881 1.6
      vertex 16.4891 -5.2881 1.6
    endloop
  endfacet
  facet normal 0 0 1
    outer loop
      vertex 12.8532 -2.5991 1.6
      vertex 15.1571 -5.2881 1.6
      vertex 15.4011 -4.3131 1.6
    endloop
  endfacet
  facet normal 0 0 1
    outer loop
      vertex 11.5612 -2.8591 1.6
      vertex 12.8532 -2.5991 1.6
      vertex 11.5612 -1.1201 1.6
    endloop
  endfacet
  facet normal 0 0 1
    outer loop
      vertex 12.8532 -2.5991 1.6
      vertex 11.5612 -2.8591 1.6
      vertex 15.1571 -5.2881 1.6
    endloop
  endfacet
  facet normal -0 0 1
    outer loop
      vertex 16.4891 -1.1201 1.6
      vertex 17.6411 -2.59911 1.6
      vertex 17.6411 -1.1201 1.6
    endloop
  endfacet
  facet normal 0 0 1
    outer loop
      vertex 17.6411 -2.59911 1.6
      vertex 16.4891 -1.1201 1.6
      vertex 16.4891 -2.59911 1.6
    endloop
  endfacet
  facet normal 0 0 1
    outer loop
      vertex 17.6411 2.76298 1.6
      vertex 12.7132 3.478 1.6
      vertex 17.6411 1.239 1.6
    endloop
  endfacet
  facet normal 0 0 1
    outer loop
      vertex 12.4451 5.127 1.6
      vertex 12.7132 3.478 1.6
      vertex 17.6411 2.76298 1.6
    endloop
  endfacet
  facet normal -0 0 1
    outer loop
      vertex 11.5612 5.127 1.6
      vertex 12.7132 3.478 1.6
      vertex 12.4451 5.127 1.6
    endloop
  endfacet
  facet normal 0 0 1
    outer loop
      vertex 12.7132 3.478 1.6
      vertex 11.5612 5.127 1.6
      vertex 11.5612 0.556992 1.6
    endloop
  endfacet
  facet normal 0 0 1
    outer loop
      vertex 12.7132 3.478 1.6
      vertex 11.5612 0.556992 1.6
      vertex 12.7132 0.556992 1.6
    endloop
  endfacet
  facet normal -1 0 0
    outer loop
      vertex 16.4891 -1.1201 1.6
      vertex 16.4891 -0.255096 2.4
      vertex 16.4891 -0.255096 1.6
    endloop
  endfacet
  facet normal -1 -0 0
    outer loop
      vertex 16.4891 -0.255096 2.4
      vertex 16.4891 -1.1201 1.6
      vertex 16.4891 -1.1201 2.4
    endloop
  endfacet
  facet normal 0 -1 0
    outer loop
      vertex 15.4011 -0.255096 1.6
      vertex 16.4891 -0.255096 2.4
      vertex 15.4011 -0.255096 2.4
    endloop
  endfacet
  facet normal 0 -1 -0
    outer loop
      vertex 16.4891 -0.255096 2.4
      vertex 15.4011 -0.255096 1.6
      vertex 16.4891 -0.255096 1.6
    endloop
  endfacet
  facet normal 1 -0 0
    outer loop
      vertex 15.4011 -1.1201 2.4
      vertex 15.4011 -0.255096 1.6
      vertex 15.4011 -0.255096 2.4
    endloop
  endfacet
  facet normal 1 0 0
    outer loop
      vertex 15.4011 -0.255096 1.6
      vertex 15.4011 -1.1201 2.4
      vertex 15.4011 -1.1201 1.6
    endloop
  endfacet
  facet normal -2.48354e-07 -1 0
    outer loop
      vertex 11.5612 -1.1201 1.6
      vertex 15.4011 -1.1201 2.4
      vertex 11.5612 -1.1201 2.4
    endloop
  endfacet
  facet normal -2.48354e-07 -1 -0
    outer loop
      vertex 15.4011 -1.1201 2.4
      vertex 11.5612 -1.1201 1.6
      vertex 15.4011 -1.1201 1.6
    endloop
  endfacet
  facet normal 1 -0 0
    outer loop
      vertex 11.5612 -2.8591 2.4
      vertex 11.5612 -1.1201 1.6
      vertex 11.5612 -1.1201 2.4
    endloop
  endfacet
  facet normal 1 0 0
    outer loop
      vertex 11.5612 -1.1201 1.6
      vertex 11.5612 -2.8591 2.4
      vertex 11.5612 -2.8591 1.6
    endloop
  endfacet
  facet normal 0.559745 0.828665 -0
    outer loop
      vertex 15.1571 -5.2881 1.6
      vertex 11.5612 -2.8591 2.4
      vertex 15.1571 -5.2881 2.4
    endloop
  endfacet
  facet normal 0.559745 0.828665 0
    outer loop
      vertex 11.5612 -2.8591 2.4
      vertex 15.1571 -5.2881 1.6
      vertex 11.5612 -2.8591 1.6
    endloop
  endfacet
  facet normal 0 1 -0
    outer loop
      vertex 16.4891 -5.2881 1.6
      vertex 15.1571 -5.2881 2.4
      vertex 16.4891 -5.2881 2.4
    endloop
  endfacet
  facet normal 0 1 0
    outer loop
      vertex 15.1571 -5.2881 2.4
      vertex 16.4891 -5.2881 1.6
      vertex 15.1571 -5.2881 1.6
    endloop
  endfacet
  facet normal -1 0 0
    outer loop
      vertex 16.4891 -5.2881 1.6
      vertex 16.4891 -2.59911 2.4
      vertex 16.4891 -2.59911 1.6
    endloop
  endfacet
  facet normal -1 -0 0
    outer loop
      vertex 16.4891 -2.59911 2.4
      vertex 16.4891 -5.2881 1.6
      vertex 16.4891 -5.2881 2.4
    endloop
  endfacet
  facet normal 0 1 -0
    outer loop
      vertex 17.6411 -2.59911 1.6
      vertex 16.4891 -2.59911 2.4
      vertex 17.6411 -2.59911 2.4
    endloop
  endfacet
  facet normal 0 1 0
    outer loop
      vertex 16.4891 -2.59911 2.4
      vertex 17.6411 -2.59911 1.6
      vertex 16.4891 -2.59911 1.6
    endloop
  endfacet
  facet normal -1 0 0
    outer loop
      vertex 17.6411 -2.59911 1.6
      vertex 17.6411 -1.1201 2.4
      vertex 17.6411 -1.1201 1.6
    endloop
  endfacet
  facet normal -1 -0 0
    outer loop
      vertex 17.6411 -1.1201 2.4
      vertex 17.6411 -2.59911 1.6
      vertex 17.6411 -2.59911 2.4
    endloop
  endfacet
  facet normal 0 -1 0
    outer loop
      vertex 16.4891 -1.1201 1.6
      vertex 17.6411 -1.1201 2.4
      vertex 16.4891 -1.1201 2.4
    endloop
  endfacet
  facet normal 0 -1 -0
    outer loop
      vertex 17.6411 -1.1201 2.4
      vertex 16.4891 -1.1201 1.6
      vertex 17.6411 -1.1201 1.6
    endloop
  endfacet
  facet normal -0.558152 -0.829739 0
    outer loop
      vertex 12.8532 -2.5991 1.6
      vertex 15.4011 -4.3131 2.4
      vertex 12.8532 -2.5991 2.4
    endloop
  endfacet
  facet normal -0.558152 -0.829739 -0
    outer loop
      vertex 15.4011 -4.3131 2.4
      vertex 12.8532 -2.5991 1.6
      vertex 15.4011 -4.3131 1.6
    endloop
  endfacet
  facet normal 3.74285e-07 1 -0
    outer loop
      vertex 15.4011 -2.59911 1.6
      vertex 12.8532 -2.5991 2.4
      vertex 15.4011 -2.59911 2.4
    endloop
  endfacet
  facet normal 3.74285e-07 1 0
    outer loop
      vertex 12.8532 -2.5991 2.4
      vertex 15.4011 -2.59911 1.6
      vertex 12.8532 -2.5991 1.6
    endloop
  endfacet
  facet normal 1 -0 0
    outer loop
      vertex 15.4011 -4.3131 2.4
      vertex 15.4011 -2.59911 1.6
      vertex 15.4011 -2.59911 2.4
    endloop
  endfacet
  facet normal 1 0 0
    outer loop
      vertex 15.4011 -2.59911 1.6
      vertex 15.4011 -4.3131 2.4
      vertex 15.4011 -4.3131 1.6
    endloop
  endfacet
  facet normal 0 -1 0
    outer loop
      vertex 11.5612 5.127 1.6
      vertex 12.4451 5.127 2.4
      vertex 11.5612 5.127 2.4
    endloop
  endfacet
  facet normal 0 -1 -0
    outer loop
      vertex 12.4451 5.127 2.4
      vertex 11.5612 5.127 1.6
      vertex 12.4451 5.127 1.6
    endloop
  endfacet
  facet normal 1 -0 0
    outer loop
      vertex 11.5612 0.556992 2.4
      vertex 11.5612 5.127 1.6
      vertex 11.5612 5.127 2.4
    endloop
  endfacet
  facet normal 1 0 0
    outer loop
      vertex 11.5612 5.127 1.6
      vertex 11.5612 0.556992 2.4
      vertex 11.5612 0.556992 1.6
    endloop
  endfacet
  facet normal 0 1 -0
    outer loop
      vertex 12.7132 0.556992 1.6
      vertex 11.5612 0.556992 2.4
      vertex 12.7132 0.556992 2.4
    endloop
  endfacet
  facet normal 0 1 0
    outer loop
      vertex 11.5612 0.556992 2.4
      vertex 12.7132 0.556992 1.6
      vertex 11.5612 0.556992 1.6
    endloop
  endfacet
  facet normal -1 0 0
    outer loop
      vertex 12.7132 0.556992 1.6
      vertex 12.7132 3.478 2.4
      vertex 12.7132 3.478 1.6
    endloop
  endfacet
  facet normal -1 -0 0
    outer loop
      vertex 12.7132 3.478 2.4
      vertex 12.7132 0.556992 1.6
      vertex 12.7132 0.556992 2.4
    endloop
  endfacet
  facet normal 0.41365 0.910436 -0
    outer loop
      vertex 17.6411 1.239 1.6
      vertex 12.7132 3.478 2.4
      vertex 17.6411 1.239 2.4
    endloop
  endfacet
  facet normal 0.41365 0.910436 0
    outer loop
      vertex 12.7132 3.478 2.4
      vertex 17.6411 1.239 1.6
      vertex 12.7132 3.478 1.6
    endloop
  endfacet
  facet normal -1 0 0
    outer loop
      vertex 17.6411 1.239 1.6
      vertex 17.6411 2.76298 2.4
      vertex 17.6411 2.76298 1.6
    endloop
  endfacet
  facet normal -1 -0 0
    outer loop
      vertex 17.6411 2.76298 2.4
      vertex 17.6411 1.239 1.6
      vertex 17.6411 1.239 2.4
    endloop
  endfacet
  facet normal -0.414122 -0.910221 0
    outer loop
      vertex 12.4451 5.127 1.6
      vertex 17.6411 2.76298 2.4
      vertex 12.4451 5.127 2.4
    endloop
  endfacet
  facet normal -0.414122 -0.910221 -0
    outer loop
      vertex 17.6411 2.76298 2.4
      vertex 12.4451 5.127 1.6
      vertex 17.6411 2.76298 1.6
    endloop
  endfacet
endsolid OpenSCAD_Model
