solid OpenSCAD_Model
  facet normal 0 0 -1
    outer loop
      vertex 25.2338 0 0
      vertex 27.7923 0 0
      vertex 27.457 -1.9011 0
    endloop
  endfacet
  facet normal 0 0 -1
    outer loop
      vertex 24.6609 -1.76336 0
      vertex 27.457 -1.9011 0
      vertex 26.4918 -3.5729 0
    endloop
  endfacet
  facet normal 0 0 -1
    outer loop
      vertex 27.7923 0 0
      vertex 25.2338 0 0
      vertex 27.457 1.9011 0
    endloop
  endfacet
  facet normal 0 0 -1
    outer loop
      vertex 24.6609 1.76336 0
      vertex 27.457 1.9011 0
      vertex 25.2338 0 0
    endloop
  endfacet
  facet normal 0 0 -1
    outer loop
      vertex 24.6609 -1.76336 0
      vertex 26.4918 -3.5729 0
      vertex 25.013 -4.81376 0
    endloop
  endfacet
  facet normal 0 0 -1
    outer loop
      vertex 27.457 -1.9011 0
      vertex 24.6609 -1.76336 0
      vertex 25.2338 0 0
    endloop
  endfacet
  facet normal 0 0 -1
    outer loop
      vertex 23.1609 -2.85317 0
      vertex 25.013 -4.81376 0
      vertex 23.199 -5.474 0
    endloop
  endfacet
  facet normal 0 0 -1
    outer loop
      vertex 25.013 -4.81376 0
      vertex 23.1609 -2.85317 0
      vertex 24.6609 -1.76336 0
    endloop
  endfacet
  facet normal 0 0 -1
    outer loop
      vertex 23.199 -5.474 0
      vertex 21.3068 -2.85317 0
      vertex 23.1609 -2.85317 0
    endloop
  endfacet
  facet normal 0 0 -1
    outer loop
      vertex 23.199 -5.474 0
      vertex 19.8068 -1.76336 0
      vertex 21.3068 -2.85317 0
    endloop
  endfacet
  facet normal 0 0 -1
    outer loop
      vertex 7.88104 -1.9425 0
      vertex 19.2338 0 0
      vertex 19.8068 -1.76336 0
    endloop
  endfacet
  facet normal 0 0 -1
    outer loop
      vertex 7.18716 -3.77211 0
      vertex 19.8068 -1.76336 0
      vertex 23.199 -5.474 0
    endloop
  endfacet
  facet normal -0 0 -1
    outer loop
      vertex 19.2338 0 0
      vertex 7.88104 -1.9425 0
      vertex 8.1169 0 0
    endloop
  endfacet
  facet normal 0 0 -1
    outer loop
      vertex 19.8068 -1.76336 0
      vertex 7.18716 -3.77211 0
      vertex 7.88104 -1.9425 0
    endloop
  endfacet
  facet normal 0 0 -1
    outer loop
      vertex 23.199 -5.474 0
      vertex 6.07559 -5.3825 0
      vertex 7.18716 -3.77211 0
    endloop
  endfacet
  facet normal 0 0 -1
    outer loop
      vertex 3.43531 -10.5728 0
      vertex 6.07559 -5.3825 0
      vertex 23.199 -5.474 0
    endloop
  endfacet
  facet normal 0 0 -1
    outer loop
      vertex 6.07559 -5.3825 0
      vertex 3.43531 -10.5728 0
      vertex 4.61093 -6.68008 0
    endloop
  endfacet
  facet normal 0 0 -1
    outer loop
      vertex 3.43531 -10.5728 0
      vertex 2.87829 -7.58943 0
      vertex 4.61093 -6.68008 0
    endloop
  endfacet
  facet normal 0 0 -1
    outer loop
      vertex 0.978384 -8.05772 0
      vertex 3.43531 -10.5728 0
      vertex 1.16203 -11.056 0
    endloop
  endfacet
  facet normal 0 0 -1
    outer loop
      vertex 3.43531 -10.5728 0
      vertex 0.978384 -8.05772 0
      vertex 2.87829 -7.58943 0
    endloop
  endfacet
  facet normal 0 0 -1
    outer loop
      vertex 1.16203 -11.056 0
      vertex -0.978384 -8.05772 0
      vertex 0.978384 -8.05772 0
    endloop
  endfacet
  facet normal 0 0 -1
    outer loop
      vertex -1.16203 -11.056 0
      vertex -0.978384 -8.05772 0
      vertex 1.16203 -11.056 0
    endloop
  endfacet
  facet normal 0 0 -1
    outer loop
      vertex -3.43531 -10.5728 0
      vertex -0.978384 -8.05772 0
      vertex -1.16203 -11.056 0
    endloop
  endfacet
  facet normal -0 0 -1
    outer loop
      vertex -0.978384 -8.05772 0
      vertex -3.43531 -10.5728 0
      vertex -2.87829 -7.58943 0
    endloop
  endfacet
  facet normal 0 0 -1
    outer loop
      vertex -5.55845 -9.62752 0
      vertex -2.87829 -7.58943 0
      vertex -3.43531 -10.5728 0
    endloop
  endfacet
  facet normal -0 0 -1
    outer loop
      vertex -2.87829 -7.58943 0
      vertex -5.55845 -9.62752 0
      vertex -4.61093 -6.68008 0
    endloop
  endfacet
  facet normal 0 0 -1
    outer loop
      vertex -7.43866 -8.26147 0
      vertex -4.61093 -6.68008 0
      vertex -5.55845 -9.62752 0
    endloop
  endfacet
  facet normal -0 0 -1
    outer loop
      vertex -4.61093 -6.68008 0
      vertex -7.43866 -8.26147 0
      vertex -6.07559 -5.3825 0
    endloop
  endfacet
  facet normal 0 0 -1
    outer loop
      vertex -8.99376 -6.53435 0
      vertex -6.07559 -5.3825 0
      vertex -7.43866 -8.26147 0
    endloop
  endfacet
  facet normal -0 0 -1
    outer loop
      vertex -6.07559 -5.3825 0
      vertex -8.99376 -6.53435 0
      vertex -7.18716 -3.77211 0
    endloop
  endfacet
  facet normal 0 0 -1
    outer loop
      vertex -10.1558 -4.52165 0
      vertex -7.18716 -3.77211 0
      vertex -8.99376 -6.53435 0
    endloop
  endfacet
  facet normal -0 0 -1
    outer loop
      vertex -7.18716 -3.77211 0
      vertex -10.1558 -4.52165 0
      vertex -7.88104 -1.9425 0
    endloop
  endfacet
  facet normal -0 0 -1
    outer loop
      vertex 27.457 1.9011 0
      vertex 24.6609 1.76336 0
      vertex 26.4918 3.5729 0
    endloop
  endfacet
  facet normal -0 0 -1
    outer loop
      vertex 26.4918 3.5729 0
      vertex 24.6609 1.76336 0
      vertex 25.013 4.81376 0
    endloop
  endfacet
  facet normal 0 0 -1
    outer loop
      vertex 23.1609 2.85317 0
      vertex 25.013 4.81376 0
      vertex 24.6609 1.76336 0
    endloop
  endfacet
  facet normal -0 0 -1
    outer loop
      vertex 25.013 4.81376 0
      vertex 23.1609 2.85317 0
      vertex 23.199 5.474 0
    endloop
  endfacet
  facet normal 0 0 -1
    outer loop
      vertex 21.3068 2.85317 0
      vertex 23.199 5.474 0
      vertex 23.1609 2.85317 0
    endloop
  endfacet
  facet normal 0 0 -1
    outer loop
      vertex 19.8068 1.76336 0
      vertex 23.199 5.474 0
      vertex 21.3068 2.85317 0
    endloop
  endfacet
  facet normal 0 0 -1
    outer loop
      vertex 7.88104 1.9425 0
      vertex 19.2338 0 0
      vertex 8.1169 0 0
    endloop
  endfacet
  facet normal 0 0 -1
    outer loop
      vertex 19.2338 0 0
      vertex 7.88104 1.9425 0
      vertex 19.8068 1.76336 0
    endloop
  endfacet
  facet normal 0 0 -1
    outer loop
      vertex 7.18716 3.77211 0
      vertex 19.8068 1.76336 0
      vertex 7.88104 1.9425 0
    endloop
  endfacet
  facet normal 0 0 -1
    outer loop
      vertex 19.8068 1.76336 0
      vertex 7.18716 3.77211 0
      vertex 23.199 5.474 0
    endloop
  endfacet
  facet normal 0 0 -1
    outer loop
      vertex 6.07559 5.3825 0
      vertex 23.199 5.474 0
      vertex 7.18716 3.77211 0
    endloop
  endfacet
  facet normal 0 0 -1
    outer loop
      vertex 3.43531 10.5728 0
      vertex 6.07559 5.3825 0
      vertex 4.61093 6.68008 0
    endloop
  endfacet
  facet normal 0 0 -1
    outer loop
      vertex 6.07559 5.3825 0
      vertex 3.43531 10.5728 0
      vertex 23.199 5.474 0
    endloop
  endfacet
  facet normal 0 0 -1
    outer loop
      vertex 2.87829 7.58943 0
      vertex 3.43531 10.5728 0
      vertex 4.61093 6.68008 0
    endloop
  endfacet
  facet normal 0 0 -1
    outer loop
      vertex 0.978384 8.05772 0
      vertex 3.43531 10.5728 0
      vertex 2.87829 7.58943 0
    endloop
  endfacet
  facet normal -0 0 -1
    outer loop
      vertex 3.43531 10.5728 0
      vertex 0.978384 8.05772 0
      vertex 1.16203 11.056 0
    endloop
  endfacet
  facet normal 0 0 -1
    outer loop
      vertex -0.978384 8.05772 0
      vertex 1.16203 11.056 0
      vertex 0.978384 8.05772 0
    endloop
  endfacet
  facet normal 0 0 -1
    outer loop
      vertex -0.978384 8.05772 0
      vertex -1.16203 11.056 0
      vertex 1.16203 11.056 0
    endloop
  endfacet
  facet normal 0 0 -1
    outer loop
      vertex -3.43531 10.5728 0
      vertex -0.978384 8.05772 0
      vertex -2.87829 7.58943 0
    endloop
  endfacet
  facet normal 0 0 -1
    outer loop
      vertex -0.978384 8.05772 0
      vertex -3.43531 10.5728 0
      vertex -1.16203 11.056 0
    endloop
  endfacet
  facet normal 0 0 -1
    outer loop
      vertex -5.55845 9.62752 0
      vertex -2.87829 7.58943 0
      vertex -4.61093 6.68008 0
    endloop
  endfacet
  facet normal 0 0 -1
    outer loop
      vertex -2.87829 7.58943 0
      vertex -5.55845 9.62752 0
      vertex -3.43531 10.5728 0
    endloop
  endfacet
  facet normal 0 0 -1
    outer loop
      vertex -7.43866 8.26147 0
      vertex -4.61093 6.68008 0
      vertex -6.07559 5.3825 0
    endloop
  endfacet
  facet normal 0 0 -1
    outer loop
      vertex -8.99376 6.53435 0
      vertex -6.07559 5.3825 0
      vertex -7.18716 3.77211 0
    endloop
  endfacet
  facet normal 0 0 -1
    outer loop
      vertex -4.61093 6.68008 0
      vertex -7.43866 8.26147 0
      vertex -5.55845 9.62752 0
    endloop
  endfacet
  facet normal 0 0 -1
    outer loop
      vertex -10.1558 4.52165 0
      vertex -7.18716 3.77211 0
      vertex -7.88104 1.9425 0
    endloop
  endfacet
  facet normal 0 0 -1
    outer loop
      vertex -10.874 2.31133 0
      vertex -7.88104 1.9425 0
      vertex -8.1169 0 0
    endloop
  endfacet
  facet normal 0 0 -1
    outer loop
      vertex -10.874 -2.31133 0
      vertex -7.88104 -1.9425 0
      vertex -10.1558 -4.52165 0
    endloop
  endfacet
  facet normal 0 0 -1
    outer loop
      vertex -6.07559 5.3825 0
      vertex -8.99376 6.53435 0
      vertex -7.43866 8.26147 0
    endloop
  endfacet
  facet normal -0 0 -1
    outer loop
      vertex -7.88104 -1.9425 0
      vertex -10.874 -2.31133 0
      vertex -8.1169 0 0
    endloop
  endfacet
  facet normal 0 0 -1
    outer loop
      vertex -7.18716 3.77211 0
      vertex -10.1558 4.52165 0
      vertex -8.99376 6.53435 0
    endloop
  endfacet
  facet normal 0 0 -1
    outer loop
      vertex -11.1169 0 0
      vertex -8.1169 0 0
      vertex -10.874 -2.31133 0
    endloop
  endfacet
  facet normal 0 0 -1
    outer loop
      vertex -7.88104 1.9425 0
      vertex -10.874 2.31133 0
      vertex -10.1558 4.52165 0
    endloop
  endfacet
  facet normal 0 0 -1
    outer loop
      vertex -8.1169 0 0
      vertex -11.1169 0 0
      vertex -10.874 2.31133 0
    endloop
  endfacet
  facet normal -0.951056 -0.309017 0
    outer loop
      vertex -10.1558 -4.52165 0
      vertex -10.874 -2.31133 4
      vertex -10.874 -2.31133 0
    endloop
  endfacet
  facet normal -0.951056 -0.309017 0
    outer loop
      vertex -10.874 -2.31133 4
      vertex -10.1558 -4.52165 0
      vertex -10.1558 -4.52165 4
    endloop
  endfacet
  facet normal -0.994522 0.104528 0
    outer loop
      vertex -11.1169 0 0
      vertex -10.874 2.31133 4
      vertex -10.874 2.31133 0
    endloop
  endfacet
  facet normal -0.994522 0.104528 0
    outer loop
      vertex -10.874 2.31133 4
      vertex -11.1169 0 0
      vertex -11.1169 0 4
    endloop
  endfacet
  facet normal 0.984808 0.173649 0
    outer loop
      vertex 27.7923 0 2.4
      vertex 27.457 1.9011 0
      vertex 27.457 1.9011 2.4
    endloop
  endfacet
  facet normal 0.984808 0.173649 0
    outer loop
      vertex 27.457 1.9011 0
      vertex 27.7923 0 2.4
      vertex 27.7923 0 0
    endloop
  endfacet
  facet normal -0.994522 -0.104528 0
    outer loop
      vertex -10.874 -2.31133 0
      vertex -11.1169 0 4
      vertex -11.1169 0 0
    endloop
  endfacet
  facet normal -0.994522 -0.104528 0
    outer loop
      vertex -11.1169 0 4
      vertex -10.874 -2.31133 0
      vertex -10.874 -2.31133 4
    endloop
  endfacet
  facet normal 0 -1 0
    outer loop
      vertex -1.16203 -11.056 0
      vertex 1.16203 -11.056 4
      vertex -1.16203 -11.056 4
    endloop
  endfacet
  facet normal 0 -1 -0
    outer loop
      vertex 1.16203 -11.056 4
      vertex -1.16203 -11.056 0
      vertex 1.16203 -11.056 0
    endloop
  endfacet
  facet normal 0 1 -0
    outer loop
      vertex 1.16203 11.056 0
      vertex -1.16203 11.056 4
      vertex 1.16203 11.056 4
    endloop
  endfacet
  facet normal 0 1 0
    outer loop
      vertex -1.16203 11.056 4
      vertex 1.16203 11.056 0
      vertex -1.16203 11.056 0
    endloop
  endfacet
  facet normal -0.587785 0.809017 0
    outer loop
      vertex -5.55845 9.62752 0
      vertex -7.43866 8.26147 4
      vertex -5.55845 9.62752 4
    endloop
  endfacet
  facet normal -0.587785 0.809017 0
    outer loop
      vertex -7.43866 8.26147 4
      vertex -5.55845 9.62752 0
      vertex -7.43866 8.26147 0
    endloop
  endfacet
  facet normal 0.34202 0.939693 -0
    outer loop
      vertex 25.013 4.81376 0
      vertex 23.199 5.474 2.4
      vertex 25.013 4.81376 2.4
    endloop
  endfacet
  facet normal 0.34202 0.939693 0
    outer loop
      vertex 23.199 5.474 2.4
      vertex 25.013 4.81376 0
      vertex 23.199 5.474 0
    endloop
  endfacet
  facet normal 0.249808 0.968295 -0
    outer loop
      vertex 23.199 5.474 0
      vertex 3.43531 10.5728 2.4
      vertex 23.199 5.474 2.4
    endloop
  endfacet
  facet normal 0.249808 0.968295 0
    outer loop
      vertex 3.43531 10.5728 2.4
      vertex 23.199 5.474 0
      vertex 3.43531 10.5728 0
    endloop
  endfacet
  facet normal -0.406736 -0.913546 0
    outer loop
      vertex -5.55845 -9.62752 0
      vertex -3.43531 -10.5728 4
      vertex -5.55845 -9.62752 4
    endloop
  endfacet
  facet normal -0.406736 -0.913546 -0
    outer loop
      vertex -3.43531 -10.5728 4
      vertex -5.55845 -9.62752 0
      vertex -3.43531 -10.5728 0
    endloop
  endfacet
  facet normal -0.866025 0.5 0
    outer loop
      vertex -10.1558 4.52165 0
      vertex -8.99376 6.53435 4
      vertex -8.99376 6.53435 0
    endloop
  endfacet
  facet normal -0.866025 0.5 0
    outer loop
      vertex -8.99376 6.53435 4
      vertex -10.1558 4.52165 0
      vertex -10.1558 4.52165 4
    endloop
  endfacet
  facet normal 0.642788 0.766044 -0
    outer loop
      vertex 26.4918 3.5729 0
      vertex 25.013 4.81376 2.4
      vertex 26.4918 3.5729 2.4
    endloop
  endfacet
  facet normal 0.642788 0.766044 0
    outer loop
      vertex 25.013 4.81376 2.4
      vertex 26.4918 3.5729 0
      vertex 25.013 4.81376 0
    endloop
  endfacet
  facet normal 0.866026 0.5 0
    outer loop
      vertex 27.457 1.9011 2.4
      vertex 26.4918 3.5729 0
      vertex 26.4918 3.5729 2.4
    endloop
  endfacet
  facet normal 0.866026 0.5 0
    outer loop
      vertex 26.4918 3.5729 0
      vertex 27.457 1.9011 2.4
      vertex 27.457 1.9011 0
    endloop
  endfacet
  facet normal 0.207912 0.978148 -0
    outer loop
      vertex 3.43531 10.5728 2.4
      vertex 1.16203 11.056 4
      vertex 3.43531 10.5728 4
    endloop
  endfacet
  facet normal 0.207912 0.978148 0
    outer loop
      vertex 1.16203 11.056 0
      vertex 3.43531 10.5728 2.4
      vertex 3.43531 10.5728 0
    endloop
  endfacet
  facet normal 0.207912 0.978148 0
    outer loop
      vertex 3.43531 10.5728 2.4
      vertex 1.16203 11.056 0
      vertex 1.16203 11.056 4
    endloop
  endfacet
  facet normal -0.406736 0.913546 0
    outer loop
      vertex -3.43531 10.5728 0
      vertex -5.55845 9.62752 4
      vertex -3.43531 10.5728 4
    endloop
  endfacet
  facet normal -0.406736 0.913546 0
    outer loop
      vertex -5.55845 9.62752 4
      vertex -3.43531 10.5728 0
      vertex -5.55845 9.62752 0
    endloop
  endfacet
  facet normal -0.207912 0.978148 0
    outer loop
      vertex -1.16203 11.056 0
      vertex -3.43531 10.5728 4
      vertex -1.16203 11.056 4
    endloop
  endfacet
  facet normal -0.207912 0.978148 0
    outer loop
      vertex -3.43531 10.5728 4
      vertex -1.16203 11.056 0
      vertex -3.43531 10.5728 0
    endloop
  endfacet
  facet normal -0.743145 0.669131 0
    outer loop
      vertex -8.99376 6.53435 0
      vertex -7.43866 8.26147 4
      vertex -7.43866 8.26147 0
    endloop
  endfacet
  facet normal -0.743145 0.669131 0
    outer loop
      vertex -7.43866 8.26147 4
      vertex -8.99376 6.53435 0
      vertex -8.99376 6.53435 4
    endloop
  endfacet
  facet normal -0.951056 0.309017 0
    outer loop
      vertex -10.874 2.31133 0
      vertex -10.1558 4.52165 4
      vertex -10.1558 4.52165 0
    endloop
  endfacet
  facet normal -0.951056 0.309017 0
    outer loop
      vertex -10.1558 4.52165 4
      vertex -10.874 2.31133 0
      vertex -10.874 2.31133 4
    endloop
  endfacet
  facet normal -0 0 1
    outer loop
      vertex 12.7099 0.937988 2.4
      vertex 13.5419 -0.893096 2.4
      vertex 13.7979 0.937988 2.4
    endloop
  endfacet
  facet normal 0 0 1
    outer loop
      vertex 12.7099 0.937988 2.4
      vertex 12.3899 -0.893096 2.4
      vertex 13.5419 -0.893096 2.4
    endloop
  endfacet
  facet normal -0 0 1
    outer loop
      vertex 10.874 2.31133 2.4
      vertex 12.7099 0.937988 2.4
      vertex 12.3899 2.34799 2.4
    endloop
  endfacet
  facet normal 0 0 1
    outer loop
      vertex 17.5099 -3.2411 2.4
      vertex 15.4619 -3.2411 2.4
      vertex 17.4939 -3.50943 2.4
    endloop
  endfacet
  facet normal 0 0 1
    outer loop
      vertex 17.4459 -3.78911 2.4
      vertex 15.7266 -4.49388 2.4
      vertex 15.8459 -4.78011 2.4
    endloop
  endfacet
  facet normal 0 0 1
    outer loop
      vertex 17.4459 -3.78911 2.4
      vertex 15.6299 -4.22055 2.4
      vertex 15.7266 -4.49388 2.4
    endloop
  endfacet
  facet normal 0 0 1
    outer loop
      vertex 15.4924 -2.88866 2.4
      vertex 15.7359 -2.34511 2.4
      vertex 15.5837 -2.59 2.4
    endloop
  endfacet
  facet normal 0 0 1
    outer loop
      vertex 17.4459 -3.78911 2.4
      vertex 15.5559 -3.9601 2.4
      vertex 15.6299 -4.22055 2.4
    endloop
  endfacet
  facet normal 0 0 1
    outer loop
      vertex 17.4459 -3.78911 2.4
      vertex 15.5037 -3.71043 2.4
      vertex 15.5559 -3.9601 2.4
    endloop
  endfacet
  facet normal -0 -0 1
    outer loop
      vertex 15.4724 -3.47076 2.4
      vertex 17.4939 -3.50943 2.4
      vertex 15.4619 -3.2411 2.4
    endloop
  endfacet
  facet normal 0 0 1
    outer loop
      vertex 17.4939 -3.50943 2.4
      vertex 15.5037 -3.71043 2.4
      vertex 17.4459 -3.78911 2.4
    endloop
  endfacet
  facet normal 0 -0 1
    outer loop
      vertex 15.5037 -3.71043 2.4
      vertex 17.4939 -3.50943 2.4
      vertex 15.4724 -3.47076 2.4
    endloop
  endfacet
  facet normal 0 0 1
    outer loop
      vertex 13.5419 -3.5331 2.4
      vertex 14.4359 -2.11343 2.4
      vertex 13.5419 -0.893096 2.4
    endloop
  endfacet
  facet normal 0 0 1
    outer loop
      vertex 14.4359 -2.11343 2.4
      vertex 13.5419 -3.5331 2.4
      vertex 14.3739 -2.79809 2.4
    endloop
  endfacet
  facet normal 0 0 1
    outer loop
      vertex 14.3739 -2.79809 2.4
      vertex 13.5419 -3.5331 2.4
      vertex 14.3769 -2.92654 2.4
    endloop
  endfacet
  facet normal 0 0 1
    outer loop
      vertex 14.3769 -2.92654 2.4
      vertex 13.5419 -3.5331 2.4
      vertex 14.3859 -3.05188 2.4
    endloop
  endfacet
  facet normal 0 0 1
    outer loop
      vertex 14.3859 -3.05188 2.4
      vertex 13.5419 -3.5331 2.4
      vertex 14.4009 -3.1741 2.4
    endloop
  endfacet
  facet normal 0 0 1
    outer loop
      vertex 14.4009 -3.1741 2.4
      vertex 13.5419 -3.5331 2.4
      vertex 14.4214 -3.29399 2.4
    endloop
  endfacet
  facet normal 0 0 1
    outer loop
      vertex 14.4214 -3.29399 2.4
      vertex 13.5419 -3.5331 2.4
      vertex 14.4467 -3.41365 2.4
    endloop
  endfacet
  facet normal 0 0 1
    outer loop
      vertex 14.4467 -3.41365 2.4
      vertex 13.5419 -3.5331 2.4
      vertex 14.4769 -3.5331 2.4
    endloop
  endfacet
  facet normal 0 0 1
    outer loop
      vertex 16.4859 -2.0181 2.4
      vertex 15.4924 -2.88866 2.4
      vertex 17.3872 -2.59 2.4
    endloop
  endfacet
  facet normal 0 0 1
    outer loop
      vertex 17.3872 -2.59 2.4
      vertex 15.4924 -2.88866 2.4
      vertex 17.4792 -2.88866 2.4
    endloop
  endfacet
  facet normal 0 0 1
    outer loop
      vertex 15.4924 -2.88866 2.4
      vertex 16.4859 -2.0181 2.4
      vertex 15.7359 -2.34511 2.4
    endloop
  endfacet
  facet normal 0 0 1
    outer loop
      vertex 17.4792 -2.88866 2.4
      vertex 15.4924 -2.88866 2.4
      vertex 17.5099 -3.2411 2.4
    endloop
  endfacet
  facet normal 0 0 1
    outer loop
      vertex 15.4619 -3.2411 2.4
      vertex 17.5099 -3.2411 2.4
      vertex 15.4924 -2.88866 2.4
    endloop
  endfacet
  facet normal 0 0 1
    outer loop
      vertex 16.4859 -2.0181 2.4
      vertex 17.3872 -2.59 2.4
      vertex 17.2339 -2.34511 2.4
    endloop
  endfacet
  facet normal 0 0 1
    outer loop
      vertex 17.4459 -3.78911 2.4
      vertex 15.8459 -4.78011 2.4
      vertex 17.3659 -4.08011 2.4
    endloop
  endfacet
  facet normal 0 0 1
    outer loop
      vertex 16.7788 -2.05443 2.4
      vertex 17.2339 -2.34511 2.4
      vertex 17.0281 -2.16344 2.4
    endloop
  endfacet
  facet normal 0 0 1
    outer loop
      vertex 17.3659 -4.08011 2.4
      vertex 15.8459 -4.78011 2.4
      vertex 17.2539 -4.38188 2.4
    endloop
  endfacet
  facet normal 0 0 1
    outer loop
      vertex 17.2339 -2.34511 2.4
      vertex 16.7788 -2.05443 2.4
      vertex 16.4859 -2.0181 2.4
    endloop
  endfacet
  facet normal 0 0 1
    outer loop
      vertex 13.7979 0.937988 2.4
      vertex 17.3819 0.97499 2.4
      vertex 17.3819 2.35599 2.4
    endloop
  endfacet
  facet normal 0 0 1
    outer loop
      vertex 17.3819 0.97499 2.4
      vertex 16.4879 -0.454102 2.4
      vertex 17.1001 -0.528885 2.4
    endloop
  endfacet
  facet normal 0 0 1
    outer loop
      vertex 17.3819 0.97499 2.4
      vertex 15.8715 -0.522766 2.4
      vertex 16.4879 -0.454102 2.4
    endloop
  endfacet
  facet normal 0 0 1
    outer loop
      vertex 17.3819 0.97499 2.4
      vertex 13.7979 0.937988 2.4
      vertex 15.8715 -0.522766 2.4
    endloop
  endfacet
  facet normal 0 0 1
    outer loop
      vertex 15.8715 -0.522766 2.4
      vertex 13.7979 0.937988 2.4
      vertex 15.3528 -0.728775 2.4
    endloop
  endfacet
  facet normal 0 0 1
    outer loop
      vertex 14.6219 -1.5381 2.4
      vertex 13.5419 -0.893096 2.4
      vertex 14.4359 -2.11343 2.4
    endloop
  endfacet
  facet normal 0 0 1
    outer loop
      vertex 14.9319 -1.0721 2.4
      vertex 13.5419 -0.893096 2.4
      vertex 14.6219 -1.5381 2.4
    endloop
  endfacet
  facet normal -0 0 1
    outer loop
      vertex 13.5419 -0.893096 2.4
      vertex 14.9319 -1.0721 2.4
      vertex 13.7979 0.937988 2.4
    endloop
  endfacet
  facet normal 0 0 1
    outer loop
      vertex 15.3528 -0.728775 2.4
      vertex 13.7979 0.937988 2.4
      vertex 14.9319 -1.0721 2.4
    endloop
  endfacet
  facet normal 0 -0 1
    outer loop
      vertex 13.7979 0.937988 2.4
      vertex 17.3819 2.35599 2.4
      vertex 13.4779 2.35599 2.4
    endloop
  endfacet
  facet normal 0 0 1
    outer loop
      vertex 25.2338 0 2.4
      vertex 27.7923 0 2.4
      vertex 27.457 1.9011 2.4
    endloop
  endfacet
  facet normal 0 0 1
    outer loop
      vertex 24.6609 1.76336 2.4
      vertex 27.457 1.9011 2.4
      vertex 26.4918 3.5729 2.4
    endloop
  endfacet
  facet normal 0 0 1
    outer loop
      vertex 27.7923 0 2.4
      vertex 25.2338 0 2.4
      vertex 27.457 -1.9011 2.4
    endloop
  endfacet
  facet normal -0 0 1
    outer loop
      vertex 24.6609 -1.76336 2.4
      vertex 27.457 -1.9011 2.4
      vertex 25.2338 0 2.4
    endloop
  endfacet
  facet normal 0 0 1
    outer loop
      vertex 24.6609 1.76336 2.4
      vertex 26.4918 3.5729 2.4
      vertex 25.013 4.81376 2.4
    endloop
  endfacet
  facet normal 0 0 1
    outer loop
      vertex 27.457 1.9011 2.4
      vertex 24.6609 1.76336 2.4
      vertex 25.2338 0 2.4
    endloop
  endfacet
  facet normal 0 0 1
    outer loop
      vertex 23.1609 2.85317 2.4
      vertex 25.013 4.81376 2.4
      vertex 23.199 5.474 2.4
    endloop
  endfacet
  facet normal 0 0 1
    outer loop
      vertex 25.013 4.81376 2.4
      vertex 23.1609 2.85317 2.4
      vertex 24.6609 1.76336 2.4
    endloop
  endfacet
  facet normal 0 0 1
    outer loop
      vertex 23.199 5.474 2.4
      vertex 21.3068 2.85317 2.4
      vertex 23.1609 2.85317 2.4
    endloop
  endfacet
  facet normal -0 0 1
    outer loop
      vertex 18.4699 5.21599 2.4
      vertex 21.3068 2.85317 2.4
      vertex 23.199 5.474 2.4
    endloop
  endfacet
  facet normal 0 0 1
    outer loop
      vertex 19.8068 -1.76336 2.4
      vertex 18.5357 -2.2551 2.4
      vertex 18.5979 -2.9931 2.4
    endloop
  endfacet
  facet normal 0 0 1
    outer loop
      vertex 19.8068 1.76336 2.4
      vertex 18.4699 0.97499 2.4
      vertex 19.2338 0 2.4
    endloop
  endfacet
  facet normal 0 0 1
    outer loop
      vertex 18.4699 0.97499 2.4
      vertex 19.8068 1.76336 2.4
      vertex 18.4699 5.21599 2.4
    endloop
  endfacet
  facet normal 0 0 1
    outer loop
      vertex 21.3068 2.85317 2.4
      vertex 18.4699 5.21599 2.4
      vertex 19.8068 1.76336 2.4
    endloop
  endfacet
  facet normal 0 0 1
    outer loop
      vertex 5.55845 9.62752 2.4
      vertex 18.4699 5.21599 2.4
      vertex 23.199 5.474 2.4
    endloop
  endfacet
  facet normal 0 0 1
    outer loop
      vertex 17.3819 5.21599 2.4
      vertex 12.3899 3.83499 2.4
      vertex 17.3819 3.83499 2.4
    endloop
  endfacet
  facet normal 0 0 1
    outer loop
      vertex 10.874 2.31133 2.4
      vertex 12.3899 2.34799 2.4
      vertex 12.3899 3.83499 2.4
    endloop
  endfacet
  facet normal 0 0 1
    outer loop
      vertex 12.7099 0.937988 2.4
      vertex 10.874 2.31133 2.4
      vertex 11.1169 0 2.4
    endloop
  endfacet
  facet normal 0 0 1
    outer loop
      vertex 10.874 -2.31133 2.4
      vertex 12.3899 -0.893096 2.4
      vertex 11.1169 0 2.4
    endloop
  endfacet
  facet normal 0 0 1
    outer loop
      vertex 12.7099 0.937988 2.4
      vertex 11.1169 0 2.4
      vertex 12.3899 -0.893096 2.4
    endloop
  endfacet
  facet normal 0 0 1
    outer loop
      vertex 12.3899 3.83499 2.4
      vertex 10.1558 4.52165 2.4
      vertex 10.874 2.31133 2.4
    endloop
  endfacet
  facet normal 0 0 1
    outer loop
      vertex 8.99376 6.53435 2.4
      vertex 12.3899 3.83499 2.4
      vertex 17.3819 5.21599 2.4
    endloop
  endfacet
  facet normal 0 0 1
    outer loop
      vertex 12.3899 3.83499 2.4
      vertex 8.99376 6.53435 2.4
      vertex 10.1558 4.52165 2.4
    endloop
  endfacet
  facet normal 0 0 1
    outer loop
      vertex 18.4699 5.21599 2.4
      vertex 5.55845 9.62752 2.4
      vertex 17.3819 5.21599 2.4
    endloop
  endfacet
  facet normal 0 0 1
    outer loop
      vertex 17.3819 5.21599 2.4
      vertex 7.43866 8.26147 2.4
      vertex 8.99376 6.53435 2.4
    endloop
  endfacet
  facet normal 0 0 1
    outer loop
      vertex 17.3819 5.21599 2.4
      vertex 5.55845 9.62752 2.4
      vertex 7.43866 8.26147 2.4
    endloop
  endfacet
  facet normal -0 -0 1
    outer loop
      vertex 5.55845 9.62752 2.4
      vertex 23.199 5.474 2.4
      vertex 3.43531 10.5728 2.4
    endloop
  endfacet
  facet normal 0 0 1
    outer loop
      vertex 27.457 -1.9011 2.4
      vertex 24.6609 -1.76336 2.4
      vertex 26.4918 -3.5729 2.4
    endloop
  endfacet
  facet normal 0 0 1
    outer loop
      vertex 26.4918 -3.5729 2.4
      vertex 24.6609 -1.76336 2.4
      vertex 25.013 -4.81376 2.4
    endloop
  endfacet
  facet normal -0 0 1
    outer loop
      vertex 23.1609 -2.85317 2.4
      vertex 25.013 -4.81376 2.4
      vertex 24.6609 -1.76336 2.4
    endloop
  endfacet
  facet normal 0 0 1
    outer loop
      vertex 25.013 -4.81376 2.4
      vertex 23.1609 -2.85317 2.4
      vertex 23.199 -5.474 2.4
    endloop
  endfacet
  facet normal -0 0 1
    outer loop
      vertex 21.3068 -2.85317 2.4
      vertex 23.199 -5.474 2.4
      vertex 23.1609 -2.85317 2.4
    endloop
  endfacet
  facet normal 0 0 1
    outer loop
      vertex 18.5979 -2.9931 2.4
      vertex 21.3068 -2.85317 2.4
      vertex 19.8068 -1.76336 2.4
    endloop
  endfacet
  facet normal -0 0 1
    outer loop
      vertex 18.349 -1.6331 2.4
      vertex 19.8068 -1.76336 2.4
      vertex 19.2338 0 2.4
    endloop
  endfacet
  facet normal 0 0 1
    outer loop
      vertex 21.3068 -2.85317 2.4
      vertex 18.5979 -2.9931 2.4
      vertex 18.5856 -3.33598 2.4
    endloop
  endfacet
  facet normal 0 0 1
    outer loop
      vertex 21.3068 -2.85317 2.4
      vertex 18.5856 -3.33598 2.4
      vertex 18.5486 -3.67665 2.4
    endloop
  endfacet
  facet normal 0 0 1
    outer loop
      vertex 18.4869 -4.01511 2.4
      vertex 21.3068 -2.85317 2.4
      vertex 18.5486 -3.67665 2.4
    endloop
  endfacet
  facet normal 0 0 1
    outer loop
      vertex 18.4001 -4.35121 2.4
      vertex 21.3068 -2.85317 2.4
      vertex 18.4869 -4.01511 2.4
    endloop
  endfacet
  facet normal 0 0 1
    outer loop
      vertex 21.3068 -2.85317 2.4
      vertex 18.4001 -4.35121 2.4
      vertex 23.199 -5.474 2.4
    endloop
  endfacet
  facet normal -0 0 1
    outer loop
      vertex 18.2878 -4.68622 2.4
      vertex 23.199 -5.474 2.4
      vertex 18.4001 -4.35121 2.4
    endloop
  endfacet
  facet normal -0 0 1
    outer loop
      vertex 18.1499 -5.0201 2.4
      vertex 23.199 -5.474 2.4
      vertex 18.2878 -4.68622 2.4
    endloop
  endfacet
  facet normal 0 0 1
    outer loop
      vertex 7.43866 -8.26147 2.4
      vertex 18.1499 -5.0201 2.4
      vertex 16.9339 -5.0201 2.4
    endloop
  endfacet
  facet normal -0 0 1
    outer loop
      vertex 16.191 -2.05443 2.4
      vertex 15.7359 -2.34511 2.4
      vertex 16.4859 -2.0181 2.4
    endloop
  endfacet
  facet normal 0 0 1
    outer loop
      vertex 15.7359 -2.34511 2.4
      vertex 16.191 -2.05443 2.4
      vertex 15.941 -2.16344 2.4
    endloop
  endfacet
  facet normal 0 0 1
    outer loop
      vertex 17.2539 -4.38188 2.4
      vertex 15.8459 -4.78011 2.4
      vertex 17.1099 -4.69521 2.4
    endloop
  endfacet
  facet normal 0 0 1
    outer loop
      vertex 17.1099 -4.69521 2.4
      vertex 15.8459 -4.78011 2.4
      vertex 16.9339 -5.0201 2.4
    endloop
  endfacet
  facet normal 0 0 1
    outer loop
      vertex 8.99376 -6.53435 2.4
      vertex 15.8459 -4.78011 2.4
      vertex 12.3899 -4.7801 2.4
    endloop
  endfacet
  facet normal 0 0 1
    outer loop
      vertex 7.43866 -8.26147 2.4
      vertex 15.8459 -4.78011 2.4
      vertex 8.99376 -6.53435 2.4
    endloop
  endfacet
  facet normal 0 0 1
    outer loop
      vertex 12.3899 -0.893096 2.4
      vertex 10.874 -2.31133 2.4
      vertex 12.3899 -4.7801 2.4
    endloop
  endfacet
  facet normal -0 0 1
    outer loop
      vertex 10.1558 -4.52165 2.4
      vertex 12.3899 -4.7801 2.4
      vertex 10.874 -2.31133 2.4
    endloop
  endfacet
  facet normal 0 0 1
    outer loop
      vertex 8.99376 -6.53435 2.4
      vertex 12.3899 -4.7801 2.4
      vertex 10.1558 -4.52165 2.4
    endloop
  endfacet
  facet normal 0 0 1
    outer loop
      vertex 15.8459 -4.78011 2.4
      vertex 7.43866 -8.26147 2.4
      vertex 16.9339 -5.0201 2.4
    endloop
  endfacet
  facet normal 0 0 1
    outer loop
      vertex 5.55845 -9.62752 2.4
      vertex 18.1499 -5.0201 2.4
      vertex 7.43866 -8.26147 2.4
    endloop
  endfacet
  facet normal 0 0 1
    outer loop
      vertex 18.1499 -5.0201 2.4
      vertex 5.55845 -9.62752 2.4
      vertex 23.199 -5.474 2.4
    endloop
  endfacet
  facet normal 0 0 1
    outer loop
      vertex 23.199 -5.474 2.4
      vertex 5.55845 -9.62752 2.4
      vertex 3.43531 -10.5728 2.4
    endloop
  endfacet
  facet normal 0 0 1
    outer loop
      vertex 17.6168 -0.75322 2.4
      vertex 19.2338 0 2.4
      vertex 18.4699 0.97499 2.4
    endloop
  endfacet
  facet normal 0 0 1
    outer loop
      vertex 19.8068 -1.76336 2.4
      vertex 18.349 -1.6331 2.4
      vertex 18.5357 -2.2551 2.4
    endloop
  endfacet
  facet normal 0 0 1
    outer loop
      vertex 19.2338 0 2.4
      vertex 18.0379 -1.12711 2.4
      vertex 18.349 -1.6331 2.4
    endloop
  endfacet
  facet normal 0 0 1
    outer loop
      vertex 19.2338 0 2.4
      vertex 17.6168 -0.75322 2.4
      vertex 18.0379 -1.12711 2.4
    endloop
  endfacet
  facet normal -0 0 1
    outer loop
      vertex 17.3819 0.97499 2.4
      vertex 17.6168 -0.75322 2.4
      vertex 18.4699 0.97499 2.4
    endloop
  endfacet
  facet normal 0 0 1
    outer loop
      vertex 17.6168 -0.75322 2.4
      vertex 17.3819 0.97499 2.4
      vertex 17.1001 -0.528885 2.4
    endloop
  endfacet
  facet normal 0.207912 -0.978148 0
    outer loop
      vertex 1.16203 -11.056 4
      vertex 3.43531 -10.5728 2.4
      vertex 3.43531 -10.5728 4
    endloop
  endfacet
  facet normal 0.207912 -0.978148 0
    outer loop
      vertex 1.16203 -11.056 0
      vertex 3.43531 -10.5728 2.4
      vertex 1.16203 -11.056 4
    endloop
  endfacet
  facet normal 0.207912 -0.978148 0
    outer loop
      vertex 3.43531 -10.5728 2.4
      vertex 1.16203 -11.056 0
      vertex 3.43531 -10.5728 0
    endloop
  endfacet
  facet normal 0.34202 -0.939693 0
    outer loop
      vertex 23.199 -5.474 0
      vertex 25.013 -4.81376 2.4
      vertex 23.199 -5.474 2.4
    endloop
  endfacet
  facet normal 0.34202 -0.939693 0
    outer loop
      vertex 25.013 -4.81376 2.4
      vertex 23.199 -5.474 0
      vertex 25.013 -4.81376 0
    endloop
  endfacet
  facet normal 0.642788 -0.766044 0
    outer loop
      vertex 25.013 -4.81376 0
      vertex 26.4918 -3.5729 2.4
      vertex 25.013 -4.81376 2.4
    endloop
  endfacet
  facet normal 0.642788 -0.766044 0
    outer loop
      vertex 26.4918 -3.5729 2.4
      vertex 25.013 -4.81376 0
      vertex 26.4918 -3.5729 0
    endloop
  endfacet
  facet normal 0.984808 -0.173649 0
    outer loop
      vertex 27.457 -1.9011 2.4
      vertex 27.7923 0 0
      vertex 27.7923 0 2.4
    endloop
  endfacet
  facet normal 0.984808 -0.173649 0
    outer loop
      vertex 27.7923 0 0
      vertex 27.457 -1.9011 2.4
      vertex 27.457 -1.9011 0
    endloop
  endfacet
  facet normal -0.207912 -0.978148 0
    outer loop
      vertex -3.43531 -10.5728 0
      vertex -1.16203 -11.056 4
      vertex -3.43531 -10.5728 4
    endloop
  endfacet
  facet normal -0.207912 -0.978148 -0
    outer loop
      vertex -1.16203 -11.056 4
      vertex -3.43531 -10.5728 0
      vertex -1.16203 -11.056 0
    endloop
  endfacet
  facet normal -0.587785 -0.809017 0
    outer loop
      vertex -7.43866 -8.26147 0
      vertex -5.55845 -9.62752 4
      vertex -7.43866 -8.26147 4
    endloop
  endfacet
  facet normal -0.587785 -0.809017 -0
    outer loop
      vertex -5.55845 -9.62752 4
      vertex -7.43866 -8.26147 0
      vertex -5.55845 -9.62752 0
    endloop
  endfacet
  facet normal -0.866025 -0.5 0
    outer loop
      vertex -8.99376 -6.53435 0
      vertex -10.1558 -4.52165 4
      vertex -10.1558 -4.52165 0
    endloop
  endfacet
  facet normal -0.866025 -0.5 0
    outer loop
      vertex -10.1558 -4.52165 4
      vertex -8.99376 -6.53435 0
      vertex -8.99376 -6.53435 4
    endloop
  endfacet
  facet normal 0.249808 -0.968295 0
    outer loop
      vertex 3.43531 -10.5728 0
      vertex 23.199 -5.474 2.4
      vertex 3.43531 -10.5728 2.4
    endloop
  endfacet
  facet normal 0.249808 -0.968295 0
    outer loop
      vertex 23.199 -5.474 2.4
      vertex 3.43531 -10.5728 0
      vertex 23.199 -5.474 0
    endloop
  endfacet
  facet normal 0.866026 -0.5 0
    outer loop
      vertex 26.4918 -3.5729 2.4
      vertex 27.457 -1.9011 0
      vertex 27.457 -1.9011 2.4
    endloop
  endfacet
  facet normal 0.866026 -0.5 0
    outer loop
      vertex 27.457 -1.9011 0
      vertex 26.4918 -3.5729 2.4
      vertex 26.4918 -3.5729 0
    endloop
  endfacet
  facet normal -0.743145 -0.669131 0
    outer loop
      vertex -7.43866 -8.26147 0
      vertex -8.99376 -6.53435 4
      vertex -8.99376 -6.53435 0
    endloop
  endfacet
  facet normal -0.743145 -0.669131 0
    outer loop
      vertex -8.99376 -6.53435 4
      vertex -7.43866 -8.26147 0
      vertex -7.43866 -8.26147 4
    endloop
  endfacet
  facet normal 0.994522 -0.104528 0
    outer loop
      vertex 10.874 -2.31133 4
      vertex 11.1169 0 2.4
      vertex 11.1169 0 4
    endloop
  endfacet
  facet normal 0.994522 -0.104528 0
    outer loop
      vertex 11.1169 0 2.4
      vertex 10.874 -2.31133 4
      vertex 10.874 -2.31133 2.4
    endloop
  endfacet
  facet normal 0.951056 0.309017 0
    outer loop
      vertex 10.874 2.31133 4
      vertex 10.1558 4.52165 2.4
      vertex 10.1558 4.52165 4
    endloop
  endfacet
  facet normal 0.951056 0.309017 0
    outer loop
      vertex 10.1558 4.52165 2.4
      vertex 10.874 2.31133 4
      vertex 10.874 2.31133 2.4
    endloop
  endfacet
  facet normal 0.994522 0.104528 0
    outer loop
      vertex 11.1169 0 4
      vertex 10.874 2.31133 2.4
      vertex 10.874 2.31133 4
    endloop
  endfacet
  facet normal 0.994522 0.104528 0
    outer loop
      vertex 10.874 2.31133 2.4
      vertex 11.1169 0 4
      vertex 11.1169 0 2.4
    endloop
  endfacet
  facet normal 0.587785 0.809017 -0
    outer loop
      vertex 7.43866 8.26147 2.4
      vertex 5.55845 9.62752 4
      vertex 7.43866 8.26147 4
    endloop
  endfacet
  facet normal 0.587785 0.809017 0
    outer loop
      vertex 5.55845 9.62752 4
      vertex 7.43866 8.26147 2.4
      vertex 5.55845 9.62752 2.4
    endloop
  endfacet
  facet normal 0.866025 0.5 0
    outer loop
      vertex 10.1558 4.52165 4
      vertex 8.99376 6.53435 2.4
      vertex 8.99376 6.53435 4
    endloop
  endfacet
  facet normal 0.866025 0.5 0
    outer loop
      vertex 8.99376 6.53435 2.4
      vertex 10.1558 4.52165 4
      vertex 10.1558 4.52165 2.4
    endloop
  endfacet
  facet normal 0.587785 -0.809017 0
    outer loop
      vertex 5.55845 -9.62752 2.4
      vertex 7.43866 -8.26147 4
      vertex 5.55845 -9.62752 4
    endloop
  endfacet
  facet normal 0.587785 -0.809017 0
    outer loop
      vertex 7.43866 -8.26147 4
      vertex 5.55845 -9.62752 2.4
      vertex 7.43866 -8.26147 2.4
    endloop
  endfacet
  facet normal 0.743145 -0.669131 0
    outer loop
      vertex 7.43866 -8.26147 4
      vertex 8.99376 -6.53435 2.4
      vertex 8.99376 -6.53435 4
    endloop
  endfacet
  facet normal 0.743145 -0.669131 0
    outer loop
      vertex 8.99376 -6.53435 2.4
      vertex 7.43866 -8.26147 4
      vertex 7.43866 -8.26147 2.4
    endloop
  endfacet
  facet normal 0.951056 -0.309017 0
    outer loop
      vertex 10.1558 -4.52165 4
      vertex 10.874 -2.31133 2.4
      vertex 10.874 -2.31133 4
    endloop
  endfacet
  facet normal 0.951056 -0.309017 0
    outer loop
      vertex 10.874 -2.31133 2.4
      vertex 10.1558 -4.52165 4
      vertex 10.1558 -4.52165 2.4
    endloop
  endfacet
  facet normal 0 0 1
    outer loop
      vertex 8.1169 0 4
      vertex 11.1169 0 4
      vertex 10.874 2.31133 4
    endloop
  endfacet
  facet normal 0 0 1
    outer loop
      vertex 7.88104 1.9425 4
      vertex 10.874 2.31133 4
      vertex 10.1558 4.52165 4
    endloop
  endfacet
  facet normal 0 0 1
    outer loop
      vertex 11.1169 0 4
      vertex 8.1169 0 4
      vertex 10.874 -2.31133 4
    endloop
  endfacet
  facet normal 0 0 1
    outer loop
      vertex 7.18716 3.77211 4
      vertex 10.1558 4.52165 4
      vertex 8.99376 6.53435 4
    endloop
  endfacet
  facet normal -0 0 1
    outer loop
      vertex 7.88104 -1.9425 4
      vertex 10.874 -2.31133 4
      vertex 8.1169 0 4
    endloop
  endfacet
  facet normal 0 0 1
    outer loop
      vertex 10.874 -2.31133 4
      vertex 7.88104 -1.9425 4
      vertex 10.1558 -4.52165 4
    endloop
  endfacet
  facet normal 0 0 1
    outer loop
      vertex 10.874 2.31133 4
      vertex 7.88104 1.9425 4
      vertex 8.1169 0 4
    endloop
  endfacet
  facet normal 0 0 1
    outer loop
      vertex 6.07559 5.3825 4
      vertex 8.99376 6.53435 4
      vertex 7.43866 8.26147 4
    endloop
  endfacet
  facet normal 0 0 1
    outer loop
      vertex 10.1558 4.52165 4
      vertex 7.18716 3.77211 4
      vertex 7.88104 1.9425 4
    endloop
  endfacet
  facet normal 0 0 1
    outer loop
      vertex 8.99376 6.53435 4
      vertex 6.07559 5.3825 4
      vertex 7.18716 3.77211 4
    endloop
  endfacet
  facet normal 0 0 1
    outer loop
      vertex 4.61093 6.68008 4
      vertex 7.43866 8.26147 4
      vertex 5.55845 9.62752 4
    endloop
  endfacet
  facet normal 0 0 1
    outer loop
      vertex 7.43866 8.26147 4
      vertex 4.61093 6.68008 4
      vertex 6.07559 5.3825 4
    endloop
  endfacet
  facet normal 0 0 1
    outer loop
      vertex 2.87829 7.58943 4
      vertex 5.55845 9.62752 4
      vertex 3.43531 10.5728 4
    endloop
  endfacet
  facet normal 0 0 1
    outer loop
      vertex 5.55845 9.62752 4
      vertex 2.87829 7.58943 4
      vertex 4.61093 6.68008 4
    endloop
  endfacet
  facet normal 0 0 1
    outer loop
      vertex 0.978384 8.05772 4
      vertex 3.43531 10.5728 4
      vertex 1.16203 11.056 4
    endloop
  endfacet
  facet normal 0 0 1
    outer loop
      vertex 3.43531 10.5728 4
      vertex 0.978384 8.05772 4
      vertex 2.87829 7.58943 4
    endloop
  endfacet
  facet normal 0 0 1
    outer loop
      vertex 1.16203 11.056 4
      vertex -0.978384 8.05772 4
      vertex 0.978384 8.05772 4
    endloop
  endfacet
  facet normal -0 0 1
    outer loop
      vertex -1.16203 11.056 4
      vertex -0.978384 8.05772 4
      vertex 1.16203 11.056 4
    endloop
  endfacet
  facet normal -0 0 1
    outer loop
      vertex -3.43531 10.5728 4
      vertex -0.978384 8.05772 4
      vertex -1.16203 11.056 4
    endloop
  endfacet
  facet normal 0 0 1
    outer loop
      vertex -0.978384 8.05772 4
      vertex -3.43531 10.5728 4
      vertex -2.87829 7.58943 4
    endloop
  endfacet
  facet normal -0 0 1
    outer loop
      vertex -5.55845 9.62752 4
      vertex -2.87829 7.58943 4
      vertex -3.43531 10.5728 4
    endloop
  endfacet
  facet normal 0 0 1
    outer loop
      vertex -2.87829 7.58943 4
      vertex -5.55845 9.62752 4
      vertex -4.61093 6.68008 4
    endloop
  endfacet
  facet normal -0 0 1
    outer loop
      vertex -7.43866 8.26147 4
      vertex -4.61093 6.68008 4
      vertex -5.55845 9.62752 4
    endloop
  endfacet
  facet normal 0 0 1
    outer loop
      vertex -4.61093 6.68008 4
      vertex -7.43866 8.26147 4
      vertex -6.07559 5.3825 4
    endloop
  endfacet
  facet normal -0 0 1
    outer loop
      vertex -8.99376 6.53435 4
      vertex -6.07559 5.3825 4
      vertex -7.43866 8.26147 4
    endloop
  endfacet
  facet normal 0 0 1
    outer loop
      vertex -6.07559 5.3825 4
      vertex -8.99376 6.53435 4
      vertex -7.18716 3.77211 4
    endloop
  endfacet
  facet normal -0 0 1
    outer loop
      vertex -10.1558 4.52165 4
      vertex -7.18716 3.77211 4
      vertex -8.99376 6.53435 4
    endloop
  endfacet
  facet normal 0 0 1
    outer loop
      vertex -7.18716 3.77211 4
      vertex -10.1558 4.52165 4
      vertex -7.88104 1.9425 4
    endloop
  endfacet
  facet normal -0 0 1
    outer loop
      vertex 7.18716 -3.77211 4
      vertex 10.1558 -4.52165 4
      vertex 7.88104 -1.9425 4
    endloop
  endfacet
  facet normal 0 0 1
    outer loop
      vertex 10.1558 -4.52165 4
      vertex 7.18716 -3.77211 4
      vertex 8.99376 -6.53435 4
    endloop
  endfacet
  facet normal -0 0 1
    outer loop
      vertex 6.07559 -5.3825 4
      vertex 8.99376 -6.53435 4
      vertex 7.18716 -3.77211 4
    endloop
  endfacet
  facet normal 0 0 1
    outer loop
      vertex 8.99376 -6.53435 4
      vertex 6.07559 -5.3825 4
      vertex 7.43866 -8.26147 4
    endloop
  endfacet
  facet normal -0 0 1
    outer loop
      vertex 4.61093 -6.68008 4
      vertex 7.43866 -8.26147 4
      vertex 6.07559 -5.3825 4
    endloop
  endfacet
  facet normal 0 0 1
    outer loop
      vertex 7.43866 -8.26147 4
      vertex 4.61093 -6.68008 4
      vertex 5.55845 -9.62752 4
    endloop
  endfacet
  facet normal -0 0 1
    outer loop
      vertex 2.87829 -7.58943 4
      vertex 5.55845 -9.62752 4
      vertex 4.61093 -6.68008 4
    endloop
  endfacet
  facet normal 0 0 1
    outer loop
      vertex 5.55845 -9.62752 4
      vertex 2.87829 -7.58943 4
      vertex 3.43531 -10.5728 4
    endloop
  endfacet
  facet normal -0 0 1
    outer loop
      vertex 0.978384 -8.05772 4
      vertex 3.43531 -10.5728 4
      vertex 2.87829 -7.58943 4
    endloop
  endfacet
  facet normal 0 0 1
    outer loop
      vertex 3.43531 -10.5728 4
      vertex 0.978384 -8.05772 4
      vertex 1.16203 -11.056 4
    endloop
  endfacet
  facet normal -0 0 1
    outer loop
      vertex -0.978384 -8.05772 4
      vertex 1.16203 -11.056 4
      vertex 0.978384 -8.05772 4
    endloop
  endfacet
  facet normal 0 0 1
    outer loop
      vertex -0.978384 -8.05772 4
      vertex -1.16203 -11.056 4
      vertex 1.16203 -11.056 4
    endloop
  endfacet
  facet normal 0 0 1
    outer loop
      vertex -3.43531 -10.5728 4
      vertex -0.978384 -8.05772 4
      vertex -2.87829 -7.58943 4
    endloop
  endfacet
  facet normal 0 0 1
    outer loop
      vertex -0.978384 -8.05772 4
      vertex -3.43531 -10.5728 4
      vertex -1.16203 -11.056 4
    endloop
  endfacet
  facet normal 0 0 1
    outer loop
      vertex -5.55845 -9.62752 4
      vertex -2.87829 -7.58943 4
      vertex -4.61093 -6.68008 4
    endloop
  endfacet
  facet normal 0 0 1
    outer loop
      vertex -2.87829 -7.58943 4
      vertex -5.55845 -9.62752 4
      vertex -3.43531 -10.5728 4
    endloop
  endfacet
  facet normal 0 0 1
    outer loop
      vertex -7.43866 -8.26147 4
      vertex -4.61093 -6.68008 4
      vertex -6.07559 -5.3825 4
    endloop
  endfacet
  facet normal 0 0 1
    outer loop
      vertex -8.99376 -6.53435 4
      vertex -6.07559 -5.3825 4
      vertex -7.18716 -3.77211 4
    endloop
  endfacet
  facet normal 0 0 1
    outer loop
      vertex -4.61093 -6.68008 4
      vertex -7.43866 -8.26147 4
      vertex -5.55845 -9.62752 4
    endloop
  endfacet
  facet normal 0 0 1
    outer loop
      vertex -10.1558 -4.52165 4
      vertex -7.18716 -3.77211 4
      vertex -7.88104 -1.9425 4
    endloop
  endfacet
  facet normal 0 0 1
    outer loop
      vertex -10.874 -2.31133 4
      vertex -7.88104 -1.9425 4
      vertex -8.1169 0 4
    endloop
  endfacet
  facet normal -0 0 1
    outer loop
      vertex -10.874 2.31133 4
      vertex -7.88104 1.9425 4
      vertex -10.1558 4.52165 4
    endloop
  endfacet
  facet normal 0 0 1
    outer loop
      vertex -6.07559 -5.3825 4
      vertex -8.99376 -6.53435 4
      vertex -7.43866 -8.26147 4
    endloop
  endfacet
  facet normal 0 0 1
    outer loop
      vertex -7.88104 1.9425 4
      vertex -10.874 2.31133 4
      vertex -8.1169 0 4
    endloop
  endfacet
  facet normal 0 0 1
    outer loop
      vertex -7.18716 -3.77211 4
      vertex -10.1558 -4.52165 4
      vertex -8.99376 -6.53435 4
    endloop
  endfacet
  facet normal 0 0 1
    outer loop
      vertex -11.1169 0 4
      vertex -8.1169 0 4
      vertex -10.874 2.31133 4
    endloop
  endfacet
  facet normal 0 0 1
    outer loop
      vertex -7.88104 -1.9425 4
      vertex -10.874 -2.31133 4
      vertex -10.1558 -4.52165 4
    endloop
  endfacet
  facet normal 0 0 1
    outer loop
      vertex -8.1169 0 4
      vertex -11.1169 0 4
      vertex -10.874 -2.31133 4
    endloop
  endfacet
  facet normal 0.406736 0.913546 -0
    outer loop
      vertex 5.55845 9.62752 2.4
      vertex 3.43531 10.5728 4
      vertex 5.55845 9.62752 4
    endloop
  endfacet
  facet normal 0.406736 0.913546 0
    outer loop
      vertex 3.43531 10.5728 4
      vertex 5.55845 9.62752 2.4
      vertex 3.43531 10.5728 2.4
    endloop
  endfacet
  facet normal 0.743145 0.669131 0
    outer loop
      vertex 8.99376 6.53435 4
      vertex 7.43866 8.26147 2.4
      vertex 7.43866 8.26147 4
    endloop
  endfacet
  facet normal 0.743145 0.669131 0
    outer loop
      vertex 7.43866 8.26147 2.4
      vertex 8.99376 6.53435 4
      vertex 8.99376 6.53435 2.4
    endloop
  endfacet
  facet normal 0.406736 -0.913546 0
    outer loop
      vertex 3.43531 -10.5728 2.4
      vertex 5.55845 -9.62752 4
      vertex 3.43531 -10.5728 4
    endloop
  endfacet
  facet normal 0.406736 -0.913546 0
    outer loop
      vertex 5.55845 -9.62752 4
      vertex 3.43531 -10.5728 2.4
      vertex 5.55845 -9.62752 2.4
    endloop
  endfacet
  facet normal 0.866025 -0.5 0
    outer loop
      vertex 8.99376 -6.53435 4
      vertex 10.1558 -4.52165 2.4
      vertex 10.1558 -4.52165 4
    endloop
  endfacet
  facet normal 0.866025 -0.5 0
    outer loop
      vertex 10.1558 -4.52165 2.4
      vertex 8.99376 -6.53435 4
      vertex 8.99376 -6.53435 2.4
    endloop
  endfacet
  facet normal -0.822984 -0.568065 0
    outer loop
      vertex 7.18716 3.77211 0
      vertex 6.07559 5.3825 4
      vertex 6.07559 5.3825 0
    endloop
  endfacet
  facet normal -0.822984 -0.568065 0
    outer loop
      vertex 6.07559 5.3825 4
      vertex 7.18716 3.77211 0
      vertex 7.18716 3.77211 4
    endloop
  endfacet
  facet normal 0.992709 -0.120536 0
    outer loop
      vertex -8.1169 0 4
      vertex -7.88104 1.9425 0
      vertex -7.88104 1.9425 4
    endloop
  endfacet
  facet normal 0.992709 -0.120536 0
    outer loop
      vertex -7.88104 1.9425 0
      vertex -8.1169 0 4
      vertex -8.1169 0 0
    endloop
  endfacet
  facet normal 0.992709 0.120536 0
    outer loop
      vertex -7.88104 -1.9425 4
      vertex -8.1169 0 0
      vertex -8.1169 0 4
    endloop
  endfacet
  facet normal 0.992709 0.120536 0
    outer loop
      vertex -8.1169 0 0
      vertex -7.88104 -1.9425 4
      vertex -7.88104 -1.9425 0
    endloop
  endfacet
  facet normal 0 -1 0
    outer loop
      vertex -0.978384 8.05772 0
      vertex 0.978384 8.05772 4
      vertex -0.978384 8.05772 4
    endloop
  endfacet
  facet normal 0 -1 -0
    outer loop
      vertex 0.978384 8.05772 4
      vertex -0.978384 8.05772 0
      vertex 0.978384 8.05772 0
    endloop
  endfacet
  facet normal -0.992709 0.120536 0
    outer loop
      vertex 7.88104 -1.9425 0
      vertex 8.1169 0 4
      vertex 8.1169 0 0
    endloop
  endfacet
  facet normal -0.992709 0.120536 0
    outer loop
      vertex 8.1169 0 4
      vertex 7.88104 -1.9425 0
      vertex 7.88104 -1.9425 4
    endloop
  endfacet
  facet normal -0.663123 -0.748511 0
    outer loop
      vertex 4.61093 6.68008 0
      vertex 6.07559 5.3825 4
      vertex 4.61093 6.68008 4
    endloop
  endfacet
  facet normal -0.663123 -0.748511 -0
    outer loop
      vertex 6.07559 5.3825 4
      vertex 4.61093 6.68008 0
      vertex 6.07559 5.3825 0
    endloop
  endfacet
  facet normal -0.239316 -0.970942 0
    outer loop
      vertex 0.978384 8.05772 0
      vertex 2.87829 7.58943 4
      vertex 0.978384 8.05772 4
    endloop
  endfacet
  facet normal -0.239316 -0.970942 -0
    outer loop
      vertex 2.87829 7.58943 4
      vertex 0.978384 8.05772 0
      vertex 2.87829 7.58943 0
    endloop
  endfacet
  facet normal 0.464723 -0.885456 0
    outer loop
      vertex -4.61093 6.68008 0
      vertex -2.87829 7.58943 4
      vertex -4.61093 6.68008 4
    endloop
  endfacet
  facet normal 0.464723 -0.885456 0
    outer loop
      vertex -2.87829 7.58943 4
      vertex -4.61093 6.68008 0
      vertex -2.87829 7.58943 0
    endloop
  endfacet
  facet normal 0.935016 -0.354605 0
    outer loop
      vertex -7.88104 1.9425 4
      vertex -7.18716 3.77211 0
      vertex -7.18716 3.77211 4
    endloop
  endfacet
  facet normal 0.935016 -0.354605 0
    outer loop
      vertex -7.18716 3.77211 0
      vertex -7.88104 1.9425 4
      vertex -7.88104 1.9425 0
    endloop
  endfacet
  facet normal 0.663123 -0.748511 0
    outer loop
      vertex -6.07559 5.3825 0
      vertex -4.61093 6.68008 4
      vertex -6.07559 5.3825 4
    endloop
  endfacet
  facet normal 0.663123 -0.748511 0
    outer loop
      vertex -4.61093 6.68008 4
      vertex -6.07559 5.3825 0
      vertex -4.61093 6.68008 0
    endloop
  endfacet
  facet normal -0.239316 0.970942 0
    outer loop
      vertex 2.87829 -7.58943 0
      vertex 0.978384 -8.05772 4
      vertex 2.87829 -7.58943 4
    endloop
  endfacet
  facet normal -0.239316 0.970942 0
    outer loop
      vertex 0.978384 -8.05772 4
      vertex 2.87829 -7.58943 0
      vertex 0.978384 -8.05772 0
    endloop
  endfacet
  facet normal -0.464723 -0.885456 0
    outer loop
      vertex 2.87829 7.58943 0
      vertex 4.61093 6.68008 4
      vertex 2.87829 7.58943 4
    endloop
  endfacet
  facet normal -0.464723 -0.885456 -0
    outer loop
      vertex 4.61093 6.68008 4
      vertex 2.87829 7.58943 0
      vertex 4.61093 6.68008 0
    endloop
  endfacet
  facet normal 0.822984 -0.568065 0
    outer loop
      vertex -7.18716 3.77211 4
      vertex -6.07559 5.3825 0
      vertex -6.07559 5.3825 4
    endloop
  endfacet
  facet normal 0.822984 -0.568065 0
    outer loop
      vertex -6.07559 5.3825 0
      vertex -7.18716 3.77211 4
      vertex -7.18716 3.77211 0
    endloop
  endfacet
  facet normal 0.239316 -0.970942 0
    outer loop
      vertex -2.87829 7.58943 0
      vertex -0.978384 8.05772 4
      vertex -2.87829 7.58943 4
    endloop
  endfacet
  facet normal 0.239316 -0.970942 0
    outer loop
      vertex -0.978384 8.05772 4
      vertex -2.87829 7.58943 0
      vertex -0.978384 8.05772 0
    endloop
  endfacet
  facet normal -0.992709 -0.120536 0
    outer loop
      vertex 8.1169 0 0
      vertex 7.88104 1.9425 4
      vertex 7.88104 1.9425 0
    endloop
  endfacet
  facet normal -0.992709 -0.120536 0
    outer loop
      vertex 7.88104 1.9425 4
      vertex 8.1169 0 0
      vertex 8.1169 0 4
    endloop
  endfacet
  facet normal 0.663123 0.748511 -0
    outer loop
      vertex -4.61093 -6.68008 0
      vertex -6.07559 -5.3825 4
      vertex -4.61093 -6.68008 4
    endloop
  endfacet
  facet normal 0.663123 0.748511 0
    outer loop
      vertex -6.07559 -5.3825 4
      vertex -4.61093 -6.68008 0
      vertex -6.07559 -5.3825 0
    endloop
  endfacet
  facet normal 0.935016 0.354605 0
    outer loop
      vertex -7.18716 -3.77211 4
      vertex -7.88104 -1.9425 0
      vertex -7.88104 -1.9425 4
    endloop
  endfacet
  facet normal 0.935016 0.354605 0
    outer loop
      vertex -7.88104 -1.9425 0
      vertex -7.18716 -3.77211 4
      vertex -7.18716 -3.77211 0
    endloop
  endfacet
  facet normal -0.935016 0.354605 0
    outer loop
      vertex 7.18716 -3.77211 0
      vertex 7.88104 -1.9425 4
      vertex 7.88104 -1.9425 0
    endloop
  endfacet
  facet normal -0.935016 0.354605 0
    outer loop
      vertex 7.88104 -1.9425 4
      vertex 7.18716 -3.77211 0
      vertex 7.18716 -3.77211 4
    endloop
  endfacet
  facet normal -0.663123 0.748511 0
    outer loop
      vertex 6.07559 -5.3825 0
      vertex 4.61093 -6.68008 4
      vertex 6.07559 -5.3825 4
    endloop
  endfacet
  facet normal -0.663123 0.748511 0
    outer loop
      vertex 4.61093 -6.68008 4
      vertex 6.07559 -5.3825 0
      vertex 4.61093 -6.68008 0
    endloop
  endfacet
  facet normal -0.935016 -0.354605 0
    outer loop
      vertex 7.88104 1.9425 0
      vertex 7.18716 3.77211 4
      vertex 7.18716 3.77211 0
    endloop
  endfacet
  facet normal -0.935016 -0.354605 0
    outer loop
      vertex 7.18716 3.77211 4
      vertex 7.88104 1.9425 0
      vertex 7.88104 1.9425 4
    endloop
  endfacet
  facet normal 0.822984 0.568065 0
    outer loop
      vertex -6.07559 -5.3825 4
      vertex -7.18716 -3.77211 0
      vertex -7.18716 -3.77211 4
    endloop
  endfacet
  facet normal 0.822984 0.568065 0
    outer loop
      vertex -7.18716 -3.77211 0
      vertex -6.07559 -5.3825 4
      vertex -6.07559 -5.3825 0
    endloop
  endfacet
  facet normal -0.822984 0.568065 0
    outer loop
      vertex 6.07559 -5.3825 0
      vertex 7.18716 -3.77211 4
      vertex 7.18716 -3.77211 0
    endloop
  endfacet
  facet normal -0.822984 0.568065 0
    outer loop
      vertex 7.18716 -3.77211 4
      vertex 6.07559 -5.3825 0
      vertex 6.07559 -5.3825 4
    endloop
  endfacet
  facet normal -0.464723 0.885456 0
    outer loop
      vertex 4.61093 -6.68008 0
      vertex 2.87829 -7.58943 4
      vertex 4.61093 -6.68008 4
    endloop
  endfacet
  facet normal -0.464723 0.885456 0
    outer loop
      vertex 2.87829 -7.58943 4
      vertex 4.61093 -6.68008 0
      vertex 2.87829 -7.58943 0
    endloop
  endfacet
  facet normal 0.464723 0.885456 -0
    outer loop
      vertex -2.87829 -7.58943 0
      vertex -4.61093 -6.68008 4
      vertex -2.87829 -7.58943 4
    endloop
  endfacet
  facet normal 0.464723 0.885456 0
    outer loop
      vertex -4.61093 -6.68008 4
      vertex -2.87829 -7.58943 0
      vertex -4.61093 -6.68008 0
    endloop
  endfacet
  facet normal 0 1 -0
    outer loop
      vertex 0.978384 -8.05772 0
      vertex -0.978384 -8.05772 4
      vertex 0.978384 -8.05772 4
    endloop
  endfacet
  facet normal 0 1 0
    outer loop
      vertex -0.978384 -8.05772 4
      vertex 0.978384 -8.05772 0
      vertex -0.978384 -8.05772 0
    endloop
  endfacet
  facet normal 0.239316 0.970942 -0
    outer loop
      vertex -0.978384 -8.05772 0
      vertex -2.87829 -7.58943 4
      vertex -0.978384 -8.05772 4
    endloop
  endfacet
  facet normal 0.239316 0.970942 0
    outer loop
      vertex -2.87829 -7.58943 4
      vertex -0.978384 -8.05772 0
      vertex -2.87829 -7.58943 0
    endloop
  endfacet
  facet normal -0.951057 -0.309017 0
    outer loop
      vertex 25.2338 0 0
      vertex 24.6609 1.76336 2.4
      vertex 24.6609 1.76336 0
    endloop
  endfacet
  facet normal -0.951057 -0.309017 0
    outer loop
      vertex 24.6609 1.76336 2.4
      vertex 25.2338 0 0
      vertex 25.2338 0 2.4
    endloop
  endfacet
  facet normal 0.951056 -0.309018 0
    outer loop
      vertex 19.2338 0 2.4
      vertex 19.8068 1.76336 0
      vertex 19.8068 1.76336 2.4
    endloop
  endfacet
  facet normal 0.951056 -0.309018 0
    outer loop
      vertex 19.8068 1.76336 0
      vertex 19.2338 0 2.4
      vertex 19.2338 0 0
    endloop
  endfacet
  facet normal 0 -1 0
    outer loop
      vertex 21.3068 2.85317 0
      vertex 23.1609 2.85317 2.4
      vertex 21.3068 2.85317 2.4
    endloop
  endfacet
  facet normal 0 -1 -0
    outer loop
      vertex 23.1609 2.85317 2.4
      vertex 21.3068 2.85317 0
      vertex 23.1609 2.85317 0
    endloop
  endfacet
  facet normal -0.587785 -0.809017 0
    outer loop
      vertex 23.1609 2.85317 0
      vertex 24.6609 1.76336 2.4
      vertex 23.1609 2.85317 2.4
    endloop
  endfacet
  facet normal -0.587785 -0.809017 -0
    outer loop
      vertex 24.6609 1.76336 2.4
      vertex 23.1609 2.85317 0
      vertex 24.6609 1.76336 0
    endloop
  endfacet
  facet normal 0.587785 -0.809017 0
    outer loop
      vertex 19.8068 1.76336 0
      vertex 21.3068 2.85317 2.4
      vertex 19.8068 1.76336 2.4
    endloop
  endfacet
  facet normal 0.587785 -0.809017 0
    outer loop
      vertex 21.3068 2.85317 2.4
      vertex 19.8068 1.76336 0
      vertex 21.3068 2.85317 0
    endloop
  endfacet
  facet normal -0.951057 0.309017 0
    outer loop
      vertex 24.6609 -1.76336 0
      vertex 25.2338 0 2.4
      vertex 25.2338 0 0
    endloop
  endfacet
  facet normal -0.951057 0.309017 0
    outer loop
      vertex 25.2338 0 2.4
      vertex 24.6609 -1.76336 0
      vertex 24.6609 -1.76336 2.4
    endloop
  endfacet
  facet normal 0.951056 0.309018 0
    outer loop
      vertex 19.8068 -1.76336 2.4
      vertex 19.2338 0 0
      vertex 19.2338 0 2.4
    endloop
  endfacet
  facet normal 0.951056 0.309018 0
    outer loop
      vertex 19.2338 0 0
      vertex 19.8068 -1.76336 2.4
      vertex 19.8068 -1.76336 0
    endloop
  endfacet
  facet normal 0 1 -0
    outer loop
      vertex 23.1609 -2.85317 0
      vertex 21.3068 -2.85317 2.4
      vertex 23.1609 -2.85317 2.4
    endloop
  endfacet
  facet normal 0 1 0
    outer loop
      vertex 21.3068 -2.85317 2.4
      vertex 23.1609 -2.85317 0
      vertex 21.3068 -2.85317 0
    endloop
  endfacet
  facet normal -0.587785 0.809017 0
    outer loop
      vertex 24.6609 -1.76336 0
      vertex 23.1609 -2.85317 2.4
      vertex 24.6609 -1.76336 2.4
    endloop
  endfacet
  facet normal -0.587785 0.809017 0
    outer loop
      vertex 23.1609 -2.85317 2.4
      vertex 24.6609 -1.76336 0
      vertex 23.1609 -2.85317 0
    endloop
  endfacet
  facet normal 0.587785 0.809017 -0
    outer loop
      vertex 21.3068 -2.85317 0
      vertex 19.8068 -1.76336 2.4
      vertex 21.3068 -2.85317 2.4
    endloop
  endfacet
  facet normal 0.587785 0.809017 0
    outer loop
      vertex 19.8068 -1.76336 2.4
      vertex 21.3068 -2.85317 0
      vertex 19.8068 -1.76336 0
    endloop
  endfacet
  facet normal 0 0 1
    outer loop
      vertex 13.5419 -0.893096 1.6
      vertex 12.3899 -0.893096 1.6
      vertex 13.5419 -3.5331 1.6
    endloop
  endfacet
  facet normal 0 0 1
    outer loop
      vertex 18.5979 -2.9931 1.6
      vertex 17.4792 -2.88866 1.6
      vertex 17.5099 -3.2411 1.6
    endloop
  endfacet
  facet normal 0 0 1
    outer loop
      vertex 18.0379 -1.12711 1.6
      vertex 17.3872 -2.59 1.6
      vertex 17.4792 -2.88866 1.6
    endloop
  endfacet
  facet normal 0 0 1
    outer loop
      vertex 18.0379 -1.12711 1.6
      vertex 17.2339 -2.34511 1.6
      vertex 17.3872 -2.59 1.6
    endloop
  endfacet
  facet normal 0 0 1
    outer loop
      vertex 16.7788 -2.05443 1.6
      vertex 17.6168 -0.75322 1.6
      vertex 17.1001 -0.528885 1.6
    endloop
  endfacet
  facet normal 0 0 1
    outer loop
      vertex 18.0379 -1.12711 1.6
      vertex 17.0281 -2.16344 1.6
      vertex 17.2339 -2.34511 1.6
    endloop
  endfacet
  facet normal 0 0 1
    outer loop
      vertex 17.6168 -0.75322 1.6
      vertex 16.7788 -2.05443 1.6
      vertex 17.0281 -2.16344 1.6
    endloop
  endfacet
  facet normal 0 0 1
    outer loop
      vertex 16.4859 -2.0181 1.6
      vertex 17.1001 -0.528885 1.6
      vertex 16.4879 -0.454102 1.6
    endloop
  endfacet
  facet normal 0 0 1
    outer loop
      vertex 17.1001 -0.528885 1.6
      vertex 16.4859 -2.0181 1.6
      vertex 16.7788 -2.05443 1.6
    endloop
  endfacet
  facet normal -0 0 1
    outer loop
      vertex 15.8715 -0.522766 1.6
      vertex 16.4859 -2.0181 1.6
      vertex 16.4879 -0.454102 1.6
    endloop
  endfacet
  facet normal 0 0 1
    outer loop
      vertex 16.4859 -2.0181 1.6
      vertex 15.8715 -0.522766 1.6
      vertex 16.191 -2.05443 1.6
    endloop
  endfacet
  facet normal -0 0 1
    outer loop
      vertex 15.3528 -0.728775 1.6
      vertex 16.191 -2.05443 1.6
      vertex 15.8715 -0.522766 1.6
    endloop
  endfacet
  facet normal 0 0 1
    outer loop
      vertex 16.191 -2.05443 1.6
      vertex 15.3528 -0.728775 1.6
      vertex 15.941 -2.16344 1.6
    endloop
  endfacet
  facet normal -0 0 1
    outer loop
      vertex 14.9319 -1.0721 1.6
      vertex 15.941 -2.16344 1.6
      vertex 15.3528 -0.728775 1.6
    endloop
  endfacet
  facet normal -0 0 1
    outer loop
      vertex 14.6219 -1.5381 1.6
      vertex 15.941 -2.16344 1.6
      vertex 14.9319 -1.0721 1.6
    endloop
  endfacet
  facet normal -0 0 1
    outer loop
      vertex 14.4359 -2.11343 1.6
      vertex 15.7359 -2.34511 1.6
      vertex 14.6219 -1.5381 1.6
    endloop
  endfacet
  facet normal 0 0 1
    outer loop
      vertex 15.941 -2.16344 1.6
      vertex 14.6219 -1.5381 1.6
      vertex 15.7359 -2.34511 1.6
    endloop
  endfacet
  facet normal -0 0 1
    outer loop
      vertex 17.5099 -3.2411 1.6
      vertex 18.5856 -3.33598 1.6
      vertex 18.5979 -2.9931 1.6
    endloop
  endfacet
  facet normal -0 0 1
    outer loop
      vertex 17.4792 -2.88866 1.6
      vertex 18.5979 -2.9931 1.6
      vertex 18.5357 -2.2551 1.6
    endloop
  endfacet
  facet normal 0 0 1
    outer loop
      vertex 17.4939 -3.50943 1.6
      vertex 18.5856 -3.33598 1.6
      vertex 17.5099 -3.2411 1.6
    endloop
  endfacet
  facet normal 0 0 1
    outer loop
      vertex 18.5856 -3.33598 1.6
      vertex 17.4939 -3.50943 1.6
      vertex 18.5486 -3.67665 1.6
    endloop
  endfacet
  facet normal 0 0 1
    outer loop
      vertex 17.4792 -2.88866 1.6
      vertex 18.5357 -2.2551 1.6
      vertex 18.349 -1.6331 1.6
    endloop
  endfacet
  facet normal 0 0 1
    outer loop
      vertex 17.4459 -3.78911 1.6
      vertex 18.5486 -3.67665 1.6
      vertex 17.4939 -3.50943 1.6
    endloop
  endfacet
  facet normal 0 0 1
    outer loop
      vertex 18.5486 -3.67665 1.6
      vertex 17.4459 -3.78911 1.6
      vertex 18.4869 -4.01511 1.6
    endloop
  endfacet
  facet normal 0 0 1
    outer loop
      vertex 17.4792 -2.88866 1.6
      vertex 18.349 -1.6331 1.6
      vertex 18.0379 -1.12711 1.6
    endloop
  endfacet
  facet normal 0 0 1
    outer loop
      vertex 17.0281 -2.16344 1.6
      vertex 18.0379 -1.12711 1.6
      vertex 17.6168 -0.75322 1.6
    endloop
  endfacet
  facet normal 0 0 1
    outer loop
      vertex 18.4869 -4.01511 1.6
      vertex 17.4459 -3.78911 1.6
      vertex 18.4001 -4.35121 1.6
    endloop
  endfacet
  facet normal -0 0 1
    outer loop
      vertex 17.3659 -4.08011 1.6
      vertex 18.4001 -4.35121 1.6
      vertex 17.4459 -3.78911 1.6
    endloop
  endfacet
  facet normal 0 0 1
    outer loop
      vertex 18.4001 -4.35121 1.6
      vertex 17.3659 -4.08011 1.6
      vertex 18.2878 -4.68622 1.6
    endloop
  endfacet
  facet normal -0 0 1
    outer loop
      vertex 17.2539 -4.38188 1.6
      vertex 18.2878 -4.68622 1.6
      vertex 17.3659 -4.08011 1.6
    endloop
  endfacet
  facet normal 0 0 1
    outer loop
      vertex 18.2878 -4.68622 1.6
      vertex 17.2539 -4.38188 1.6
      vertex 18.1499 -5.0201 1.6
    endloop
  endfacet
  facet normal -0 0 1
    outer loop
      vertex 17.1099 -4.69521 1.6
      vertex 18.1499 -5.0201 1.6
      vertex 17.2539 -4.38188 1.6
    endloop
  endfacet
  facet normal 0 0 1
    outer loop
      vertex 18.1499 -5.0201 1.6
      vertex 17.1099 -4.69521 1.6
      vertex 16.9339 -5.0201 1.6
    endloop
  endfacet
  facet normal 0 0 1
    outer loop
      vertex 15.7359 -2.34511 1.6
      vertex 14.4359 -2.11343 1.6
      vertex 15.5837 -2.59 1.6
    endloop
  endfacet
  facet normal 0 0 1
    outer loop
      vertex 14.3739 -2.79809 1.6
      vertex 15.5837 -2.59 1.6
      vertex 14.4359 -2.11343 1.6
    endloop
  endfacet
  facet normal 0 0 1
    outer loop
      vertex 15.5837 -2.59 1.6
      vertex 14.3739 -2.79809 1.6
      vertex 15.4924 -2.88866 1.6
    endloop
  endfacet
  facet normal 0 -0 1
    outer loop
      vertex 14.3769 -2.92654 1.6
      vertex 15.4924 -2.88866 1.6
      vertex 14.3739 -2.79809 1.6
    endloop
  endfacet
  facet normal 0 -0 1
    outer loop
      vertex 14.3859 -3.05188 1.6
      vertex 15.4924 -2.88866 1.6
      vertex 14.3769 -2.92654 1.6
    endloop
  endfacet
  facet normal 0 0 1
    outer loop
      vertex 15.4924 -2.88866 1.6
      vertex 14.3859 -3.05188 1.6
      vertex 15.4619 -3.2411 1.6
    endloop
  endfacet
  facet normal -0 -0 1
    outer loop
      vertex 14.4009 -3.1741 1.6
      vertex 15.4619 -3.2411 1.6
      vertex 14.3859 -3.05188 1.6
    endloop
  endfacet
  facet normal 0 -0 1
    outer loop
      vertex 14.4214 -3.29399 1.6
      vertex 15.4619 -3.2411 1.6
      vertex 14.4009 -3.1741 1.6
    endloop
  endfacet
  facet normal 0 0 1
    outer loop
      vertex 12.3899 -4.7801 1.6
      vertex 15.7266 -4.49388 1.6
      vertex 14.4769 -3.5331 1.6
    endloop
  endfacet
  facet normal 0 0 1
    outer loop
      vertex 12.3899 -4.7801 1.6
      vertex 14.4769 -3.5331 1.6
      vertex 13.5419 -3.5331 1.6
    endloop
  endfacet
  facet normal 0 0 1
    outer loop
      vertex 15.7266 -4.49388 1.6
      vertex 12.3899 -4.7801 1.6
      vertex 15.8459 -4.78011 1.6
    endloop
  endfacet
  facet normal 0 0 1
    outer loop
      vertex 12.3899 -4.7801 1.6
      vertex 13.5419 -3.5331 1.6
      vertex 12.3899 -0.893096 1.6
    endloop
  endfacet
  facet normal 0 0 1
    outer loop
      vertex 15.6299 -4.22055 1.6
      vertex 14.4769 -3.5331 1.6
      vertex 15.7266 -4.49388 1.6
    endloop
  endfacet
  facet normal 0 -0 1
    outer loop
      vertex 14.4467 -3.41365 1.6
      vertex 15.4619 -3.2411 1.6
      vertex 14.4214 -3.29399 1.6
    endloop
  endfacet
  facet normal 0 -0 1
    outer loop
      vertex 14.4769 -3.5331 1.6
      vertex 15.4619 -3.2411 1.6
      vertex 14.4467 -3.41365 1.6
    endloop
  endfacet
  facet normal 0 0 1
    outer loop
      vertex 15.5559 -3.9601 1.6
      vertex 14.4769 -3.5331 1.6
      vertex 15.6299 -4.22055 1.6
    endloop
  endfacet
  facet normal 0 0 1
    outer loop
      vertex 15.5037 -3.71043 1.6
      vertex 14.4769 -3.5331 1.6
      vertex 15.5559 -3.9601 1.6
    endloop
  endfacet
  facet normal 0 0 1
    outer loop
      vertex 15.4724 -3.47076 1.6
      vertex 14.4769 -3.5331 1.6
      vertex 15.5037 -3.71043 1.6
    endloop
  endfacet
  facet normal 0 0 1
    outer loop
      vertex 15.4619 -3.2411 1.6
      vertex 14.4769 -3.5331 1.6
      vertex 15.4724 -3.47076 1.6
    endloop
  endfacet
  facet normal 0 0 1
    outer loop
      vertex 17.3819 3.83499 1.6
      vertex 13.4779 2.35599 1.6
      vertex 17.3819 2.35599 1.6
    endloop
  endfacet
  facet normal 0 0 1
    outer loop
      vertex 12.3899 3.83499 1.6
      vertex 13.4779 2.35599 1.6
      vertex 17.3819 3.83499 1.6
    endloop
  endfacet
  facet normal 0 0 1
    outer loop
      vertex 12.3899 2.34799 1.6
      vertex 13.4779 2.35599 1.6
      vertex 12.3899 3.83499 1.6
    endloop
  endfacet
  facet normal 0 0 1
    outer loop
      vertex 13.4779 2.35599 1.6
      vertex 12.3899 2.34799 1.6
      vertex 12.7099 0.937988 1.6
    endloop
  endfacet
  facet normal 0 0 1
    outer loop
      vertex 17.3819 3.83499 1.6
      vertex 18.4699 5.21599 1.6
      vertex 17.3819 5.21599 1.6
    endloop
  endfacet
  facet normal 0 0 1
    outer loop
      vertex 18.4699 5.21599 1.6
      vertex 17.3819 3.83499 1.6
      vertex 18.4699 0.97499 1.6
    endloop
  endfacet
  facet normal -0 0 1
    outer loop
      vertex 17.3819 2.35599 1.6
      vertex 18.4699 0.97499 1.6
      vertex 17.3819 3.83499 1.6
    endloop
  endfacet
  facet normal 0 0 1
    outer loop
      vertex 18.4699 0.97499 1.6
      vertex 17.3819 2.35599 1.6
      vertex 17.3819 0.97499 1.6
    endloop
  endfacet
  facet normal 0 0 1
    outer loop
      vertex 13.7979 0.937988 1.6
      vertex 13.4779 2.35599 1.6
      vertex 12.7099 0.937988 1.6
    endloop
  endfacet
  facet normal -0.9578 -0.287436 0
    outer loop
      vertex 18.5357 -2.2551 1.6
      vertex 18.349 -1.6331 2.4
      vertex 18.349 -1.6331 1.6
    endloop
  endfacet
  facet normal -0.9578 -0.287436 0
    outer loop
      vertex 18.349 -1.6331 2.4
      vertex 18.5357 -2.2551 1.6
      vertex 18.5357 -2.2551 2.4
    endloop
  endfacet
  facet normal -0.851862 -0.523766 0
    outer loop
      vertex 18.349 -1.6331 1.6
      vertex 18.0379 -1.12711 2.4
      vertex 18.0379 -1.12711 1.6
    endloop
  endfacet
  facet normal -0.851862 -0.523766 0
    outer loop
      vertex 18.0379 -1.12711 2.4
      vertex 18.349 -1.6331 1.6
      vertex 18.349 -1.6331 2.4
    endloop
  endfacet
  facet normal -0.663932 -0.747793 0
    outer loop
      vertex 17.6168 -0.75322 1.6
      vertex 18.0379 -1.12711 2.4
      vertex 17.6168 -0.75322 2.4
    endloop
  endfacet
  facet normal -0.663932 -0.747793 -0
    outer loop
      vertex 18.0379 -1.12711 2.4
      vertex 17.6168 -0.75322 1.6
      vertex 18.0379 -1.12711 1.6
    endloop
  endfacet
  facet normal -0.398276 -0.917265 0
    outer loop
      vertex 17.1001 -0.528885 1.6
      vertex 17.6168 -0.75322 2.4
      vertex 17.1001 -0.528885 2.4
    endloop
  endfacet
  facet normal -0.398276 -0.917265 -0
    outer loop
      vertex 17.6168 -0.75322 2.4
      vertex 17.1001 -0.528885 1.6
      vertex 17.6168 -0.75322 1.6
    endloop
  endfacet
  facet normal -0.121248 -0.992622 0
    outer loop
      vertex 16.4879 -0.454102 1.6
      vertex 17.1001 -0.528885 2.4
      vertex 16.4879 -0.454102 2.4
    endloop
  endfacet
  facet normal -0.121248 -0.992622 -0
    outer loop
      vertex 17.1001 -0.528885 2.4
      vertex 16.4879 -0.454102 1.6
      vertex 17.1001 -0.528885 1.6
    endloop
  endfacet
  facet normal 0.110704 -0.993853 0
    outer loop
      vertex 15.8715 -0.522766 1.6
      vertex 16.4879 -0.454102 2.4
      vertex 15.8715 -0.522766 2.4
    endloop
  endfacet
  facet normal 0.110704 -0.993853 0
    outer loop
      vertex 16.4879 -0.454102 2.4
      vertex 15.8715 -0.522766 1.6
      vertex 16.4879 -0.454102 1.6
    endloop
  endfacet
  facet normal 0.36915 -0.92937 0
    outer loop
      vertex 15.3528 -0.728775 1.6
      vertex 15.8715 -0.522766 2.4
      vertex 15.3528 -0.728775 2.4
    endloop
  endfacet
  facet normal 0.36915 -0.92937 0
    outer loop
      vertex 15.8715 -0.522766 2.4
      vertex 15.3528 -0.728775 1.6
      vertex 15.8715 -0.522766 1.6
    endloop
  endfacet
  facet normal 0.63208 -0.774904 0
    outer loop
      vertex 14.9319 -1.0721 1.6
      vertex 15.3528 -0.728775 2.4
      vertex 14.9319 -1.0721 2.4
    endloop
  endfacet
  facet normal 0.63208 -0.774904 0
    outer loop
      vertex 15.3528 -0.728775 2.4
      vertex 14.9319 -1.0721 1.6
      vertex 15.3528 -0.728775 1.6
    endloop
  endfacet
  facet normal 0.832604 -0.553869 0
    outer loop
      vertex 14.6219 -1.5381 2.4
      vertex 14.9319 -1.0721 1.6
      vertex 14.9319 -1.0721 2.4
    endloop
  endfacet
  facet normal 0.832604 -0.553869 0
    outer loop
      vertex 14.9319 -1.0721 1.6
      vertex 14.6219 -1.5381 2.4
      vertex 14.6219 -1.5381 1.6
    endloop
  endfacet
  facet normal 0.951509 -0.307622 0
    outer loop
      vertex 14.4359 -2.11343 2.4
      vertex 14.6219 -1.5381 1.6
      vertex 14.6219 -1.5381 2.4
    endloop
  endfacet
  facet normal 0.951509 -0.307622 0
    outer loop
      vertex 14.6219 -1.5381 1.6
      vertex 14.4359 -2.11343 2.4
      vertex 14.4359 -2.11343 1.6
    endloop
  endfacet
  facet normal 0.995925 -0.0901815 0
    outer loop
      vertex 14.3739 -2.79809 2.4
      vertex 14.4359 -2.11343 1.6
      vertex 14.4359 -2.11343 2.4
    endloop
  endfacet
  facet normal 0.995925 -0.0901815 0
    outer loop
      vertex 14.4359 -2.11343 1.6
      vertex 14.3739 -2.79809 2.4
      vertex 14.3739 -2.79809 1.6
    endloop
  endfacet
  facet normal 0.999726 0.0233958 0
    outer loop
      vertex 14.3769 -2.92654 2.4
      vertex 14.3739 -2.79809 1.6
      vertex 14.3739 -2.79809 2.4
    endloop
  endfacet
  facet normal 0.999726 0.0233958 0
    outer loop
      vertex 14.3739 -2.79809 1.6
      vertex 14.3769 -2.92654 2.4
      vertex 14.3769 -2.92654 1.6
    endloop
  endfacet
  facet normal 0.997439 0.0715232 0
    outer loop
      vertex 14.3859 -3.05188 2.4
      vertex 14.3769 -2.92654 1.6
      vertex 14.3769 -2.92654 2.4
    endloop
  endfacet
  facet normal 0.997439 0.0715232 0
    outer loop
      vertex 14.3769 -2.92654 1.6
      vertex 14.3859 -3.05188 2.4
      vertex 14.3859 -3.05188 1.6
    endloop
  endfacet
  facet normal 0.992539 0.12193 0
    outer loop
      vertex 14.4009 -3.1741 2.4
      vertex 14.3859 -3.05188 1.6
      vertex 14.3859 -3.05188 2.4
    endloop
  endfacet
  facet normal 0.992539 0.12193 0
    outer loop
      vertex 14.3859 -3.05188 1.6
      vertex 14.4009 -3.1741 2.4
      vertex 14.4009 -3.1741 1.6
    endloop
  endfacet
  facet normal 0.985787 0.167999 0
    outer loop
      vertex 14.4214 -3.29399 2.4
      vertex 14.4009 -3.1741 1.6
      vertex 14.4009 -3.1741 2.4
    endloop
  endfacet
  facet normal 0.985787 0.167999 0
    outer loop
      vertex 14.4009 -3.1741 1.6
      vertex 14.4214 -3.29399 2.4
      vertex 14.4214 -3.29399 1.6
    endloop
  endfacet
  facet normal 0.978296 0.207211 0
    outer loop
      vertex 14.4467 -3.41365 2.4
      vertex 14.4214 -3.29399 1.6
      vertex 14.4214 -3.29399 2.4
    endloop
  endfacet
  facet normal 0.978296 0.207211 0
    outer loop
      vertex 14.4214 -3.29399 1.6
      vertex 14.4467 -3.41365 2.4
      vertex 14.4467 -3.41365 1.6
    endloop
  endfacet
  facet normal 0.969469 0.245216 0
    outer loop
      vertex 14.4769 -3.5331 2.4
      vertex 14.4467 -3.41365 1.6
      vertex 14.4467 -3.41365 2.4
    endloop
  endfacet
  facet normal 0.969469 0.245216 0
    outer loop
      vertex 14.4467 -3.41365 1.6
      vertex 14.4769 -3.5331 2.4
      vertex 14.4769 -3.5331 1.6
    endloop
  endfacet
  facet normal 0 -1 0
    outer loop
      vertex 13.5419 -3.5331 1.6
      vertex 14.4769 -3.5331 2.4
      vertex 13.5419 -3.5331 2.4
    endloop
  endfacet
  facet normal 0 -1 -0
    outer loop
      vertex 14.4769 -3.5331 2.4
      vertex 13.5419 -3.5331 1.6
      vertex 14.4769 -3.5331 1.6
    endloop
  endfacet
  facet normal -1 0 0
    outer loop
      vertex 13.5419 -3.5331 1.6
      vertex 13.5419 -0.893096 2.4
      vertex 13.5419 -0.893096 1.6
    endloop
  endfacet
  facet normal -1 -0 0
    outer loop
      vertex 13.5419 -0.893096 2.4
      vertex 13.5419 -3.5331 1.6
      vertex 13.5419 -3.5331 2.4
    endloop
  endfacet
  facet normal 0 -1 0
    outer loop
      vertex 12.3899 -0.893096 1.6
      vertex 13.5419 -0.893096 2.4
      vertex 12.3899 -0.893096 2.4
    endloop
  endfacet
  facet normal 0 -1 -0
    outer loop
      vertex 13.5419 -0.893096 2.4
      vertex 12.3899 -0.893096 1.6
      vertex 13.5419 -0.893096 1.6
    endloop
  endfacet
  facet normal 1 -0 0
    outer loop
      vertex 12.3899 -4.7801 2.4
      vertex 12.3899 -0.893096 1.6
      vertex 12.3899 -0.893096 2.4
    endloop
  endfacet
  facet normal 1 0 0
    outer loop
      vertex 12.3899 -0.893096 1.6
      vertex 12.3899 -4.7801 2.4
      vertex 12.3899 -4.7801 1.6
    endloop
  endfacet
  facet normal 2.75949e-07 1 -0
    outer loop
      vertex 15.8459 -4.78011 1.6
      vertex 12.3899 -4.7801 2.4
      vertex 15.8459 -4.78011 2.4
    endloop
  endfacet
  facet normal 2.75949e-07 1 0
    outer loop
      vertex 12.3899 -4.7801 2.4
      vertex 15.8459 -4.78011 1.6
      vertex 12.3899 -4.7801 1.6
    endloop
  endfacet
  facet normal -0.922987 -0.384832 0
    outer loop
      vertex 15.8459 -4.78011 1.6
      vertex 15.7266 -4.49388 2.4
      vertex 15.7266 -4.49388 1.6
    endloop
  endfacet
  facet normal -0.922987 -0.384832 0
    outer loop
      vertex 15.7266 -4.49388 2.4
      vertex 15.8459 -4.78011 1.6
      vertex 15.8459 -4.78011 2.4
    endloop
  endfacet
  facet normal -0.942779 -0.333417 0
    outer loop
      vertex 15.7266 -4.49388 1.6
      vertex 15.6299 -4.22055 2.4
      vertex 15.6299 -4.22055 1.6
    endloop
  endfacet
  facet normal -0.942779 -0.333417 0
    outer loop
      vertex 15.6299 -4.22055 2.4
      vertex 15.7266 -4.49388 1.6
      vertex 15.7266 -4.49388 2.4
    endloop
  endfacet
  facet normal -0.961952 -0.273217 0
    outer loop
      vertex 15.6299 -4.22055 1.6
      vertex 15.5559 -3.9601 2.4
      vertex 15.5559 -3.9601 1.6
    endloop
  endfacet
  facet normal -0.961952 -0.273217 0
    outer loop
      vertex 15.5559 -3.9601 2.4
      vertex 15.6299 -4.22055 1.6
      vertex 15.6299 -4.22055 2.4
    endloop
  endfacet
  facet normal -0.97881 -0.204771 0
    outer loop
      vertex 15.5559 -3.9601 1.6
      vertex 15.5037 -3.71043 2.4
      vertex 15.5037 -3.71043 1.6
    endloop
  endfacet
  facet normal -0.97881 -0.204771 0
    outer loop
      vertex 15.5037 -3.71043 2.4
      vertex 15.5559 -3.9601 1.6
      vertex 15.5559 -3.9601 2.4
    endloop
  endfacet
  facet normal -0.991566 -0.129604 0
    outer loop
      vertex 15.5037 -3.71043 1.6
      vertex 15.4724 -3.47076 2.4
      vertex 15.4724 -3.47076 1.6
    endloop
  endfacet
  facet normal -0.991566 -0.129604 0
    outer loop
      vertex 15.4724 -3.47076 2.4
      vertex 15.5037 -3.71043 1.6
      vertex 15.5037 -3.71043 2.4
    endloop
  endfacet
  facet normal -0.998966 -0.0454649 0
    outer loop
      vertex 15.4724 -3.47076 1.6
      vertex 15.4619 -3.2411 2.4
      vertex 15.4619 -3.2411 1.6
    endloop
  endfacet
  facet normal -0.998966 -0.0454649 0
    outer loop
      vertex 15.4619 -3.2411 2.4
      vertex 15.4724 -3.47076 1.6
      vertex 15.4724 -3.47076 2.4
    endloop
  endfacet
  facet normal -0.996291 0.0860507 0
    outer loop
      vertex 15.4619 -3.2411 1.6
      vertex 15.4924 -2.88866 2.4
      vertex 15.4924 -2.88866 1.6
    endloop
  endfacet
  facet normal -0.996291 0.0860507 0
    outer loop
      vertex 15.4924 -2.88866 2.4
      vertex 15.4619 -3.2411 1.6
      vertex 15.4619 -3.2411 2.4
    endloop
  endfacet
  facet normal -0.956292 0.292413 0
    outer loop
      vertex 15.4924 -2.88866 1.6
      vertex 15.5837 -2.59 2.4
      vertex 15.5837 -2.59 1.6
    endloop
  endfacet
  facet normal -0.956292 0.292413 0
    outer loop
      vertex 15.5837 -2.59 2.4
      vertex 15.4924 -2.88866 1.6
      vertex 15.4924 -2.88866 2.4
    endloop
  endfacet
  facet normal -0.849295 0.527919 0
    outer loop
      vertex 15.5837 -2.59 1.6
      vertex 15.7359 -2.34511 2.4
      vertex 15.7359 -2.34511 1.6
    endloop
  endfacet
  facet normal -0.849295 0.527919 0
    outer loop
      vertex 15.7359 -2.34511 2.4
      vertex 15.5837 -2.59 1.6
      vertex 15.5837 -2.59 2.4
    endloop
  endfacet
  facet normal -0.663042 0.748582 0
    outer loop
      vertex 15.941 -2.16344 1.6
      vertex 15.7359 -2.34511 2.4
      vertex 15.941 -2.16344 2.4
    endloop
  endfacet
  facet normal -0.663042 0.748582 0
    outer loop
      vertex 15.7359 -2.34511 2.4
      vertex 15.941 -2.16344 1.6
      vertex 15.7359 -2.34511 1.6
    endloop
  endfacet
  facet normal -0.39969 0.91665 0
    outer loop
      vertex 16.191 -2.05443 1.6
      vertex 15.941 -2.16344 2.4
      vertex 16.191 -2.05443 2.4
    endloop
  endfacet
  facet normal -0.39969 0.91665 0
    outer loop
      vertex 15.941 -2.16344 2.4
      vertex 16.191 -2.05443 1.6
      vertex 15.941 -2.16344 1.6
    endloop
  endfacet
  facet normal -0.122277 0.992496 0
    outer loop
      vertex 16.4859 -2.0181 1.6
      vertex 16.191 -2.05443 2.4
      vertex 16.4859 -2.0181 2.4
    endloop
  endfacet
  facet normal -0.122277 0.992496 0
    outer loop
      vertex 16.191 -2.05443 2.4
      vertex 16.4859 -2.0181 1.6
      vertex 16.191 -2.05443 1.6
    endloop
  endfacet
  facet normal 0.123099 0.992394 -0
    outer loop
      vertex 16.7788 -2.05443 1.6
      vertex 16.4859 -2.0181 2.4
      vertex 16.7788 -2.05443 2.4
    endloop
  endfacet
  facet normal 0.123099 0.992394 0
    outer loop
      vertex 16.4859 -2.0181 2.4
      vertex 16.7788 -2.05443 1.6
      vertex 16.4859 -2.0181 1.6
    endloop
  endfacet
  facet normal 0.400595 0.916255 -0
    outer loop
      vertex 17.0281 -2.16344 1.6
      vertex 16.7788 -2.05443 2.4
      vertex 17.0281 -2.16344 2.4
    endloop
  endfacet
  facet normal 0.400595 0.916255 0
    outer loop
      vertex 16.7788 -2.05443 2.4
      vertex 17.0281 -2.16344 1.6
      vertex 16.7788 -2.05443 1.6
    endloop
  endfacet
  facet normal 0.661828 0.749656 -0
    outer loop
      vertex 17.2339 -2.34511 1.6
      vertex 17.0281 -2.16344 2.4
      vertex 17.2339 -2.34511 2.4
    endloop
  endfacet
  facet normal 0.661828 0.749656 0
    outer loop
      vertex 17.0281 -2.16344 2.4
      vertex 17.2339 -2.34511 1.6
      vertex 17.0281 -2.16344 1.6
    endloop
  endfacet
  facet normal 0.847562 0.530697 0
    outer loop
      vertex 17.3872 -2.59 2.4
      vertex 17.2339 -2.34511 1.6
      vertex 17.2339 -2.34511 2.4
    endloop
  endfacet
  facet normal 0.847562 0.530697 0
    outer loop
      vertex 17.2339 -2.34511 1.6
      vertex 17.3872 -2.59 2.4
      vertex 17.3872 -2.59 1.6
    endloop
  endfacet
  facet normal 0.955689 0.294377 0
    outer loop
      vertex 17.4792 -2.88866 2.4
      vertex 17.3872 -2.59 1.6
      vertex 17.3872 -2.59 2.4
    endloop
  endfacet
  facet normal 0.955689 0.294377 0
    outer loop
      vertex 17.3872 -2.59 1.6
      vertex 17.4792 -2.88866 2.4
      vertex 17.4792 -2.88866 1.6
    endloop
  endfacet
  facet normal 0.996235 0.0866929 0
    outer loop
      vertex 17.5099 -3.2411 2.4
      vertex 17.4792 -2.88866 1.6
      vertex 17.4792 -2.88866 2.4
    endloop
  endfacet
  facet normal 0.996235 0.0866929 0
    outer loop
      vertex 17.4792 -2.88866 1.6
      vertex 17.5099 -3.2411 2.4
      vertex 17.5099 -3.2411 1.6
    endloop
  endfacet
  facet normal 0.998225 -0.0595473 0
    outer loop
      vertex 17.4939 -3.50943 2.4
      vertex 17.5099 -3.2411 1.6
      vertex 17.5099 -3.2411 2.4
    endloop
  endfacet
  facet normal 0.998225 -0.0595473 0
    outer loop
      vertex 17.5099 -3.2411 1.6
      vertex 17.4939 -3.50943 2.4
      vertex 17.4939 -3.50943 1.6
    endloop
  endfacet
  facet normal 0.985596 -0.169115 0
    outer loop
      vertex 17.4459 -3.78911 2.4
      vertex 17.4939 -3.50943 1.6
      vertex 17.4939 -3.50943 2.4
    endloop
  endfacet
  facet normal 0.985596 -0.169115 0
    outer loop
      vertex 17.4939 -3.50943 1.6
      vertex 17.4459 -3.78911 2.4
      vertex 17.4459 -3.78911 1.6
    endloop
  endfacet
  facet normal 0.964225 -0.265085 0
    outer loop
      vertex 17.3659 -4.08011 2.4
      vertex 17.4459 -3.78911 1.6
      vertex 17.4459 -3.78911 2.4
    endloop
  endfacet
  facet normal 0.964225 -0.265085 0
    outer loop
      vertex 17.4459 -3.78911 1.6
      vertex 17.3659 -4.08011 2.4
      vertex 17.3659 -4.08011 1.6
    endloop
  endfacet
  facet normal 0.937514 -0.347947 0
    outer loop
      vertex 17.2539 -4.38188 2.4
      vertex 17.3659 -4.08011 1.6
      vertex 17.3659 -4.08011 2.4
    endloop
  endfacet
  facet normal 0.937514 -0.347947 0
    outer loop
      vertex 17.3659 -4.08011 1.6
      vertex 17.2539 -4.38188 2.4
      vertex 17.2539 -4.38188 1.6
    endloop
  endfacet
  facet normal 0.908636 -0.41759 0
    outer loop
      vertex 17.1099 -4.69521 2.4
      vertex 17.2539 -4.38188 1.6
      vertex 17.2539 -4.38188 2.4
    endloop
  endfacet
  facet normal 0.908636 -0.41759 0
    outer loop
      vertex 17.2539 -4.38188 1.6
      vertex 17.1099 -4.69521 2.4
      vertex 17.1099 -4.69521 1.6
    endloop
  endfacet
  facet normal 0.87926 -0.476342 0
    outer loop
      vertex 16.9339 -5.0201 2.4
      vertex 17.1099 -4.69521 1.6
      vertex 17.1099 -4.69521 2.4
    endloop
  endfacet
  facet normal 0.87926 -0.476342 0
    outer loop
      vertex 17.1099 -4.69521 1.6
      vertex 16.9339 -5.0201 2.4
      vertex 16.9339 -5.0201 1.6
    endloop
  endfacet
  facet normal 0 1 -0
    outer loop
      vertex 18.1499 -5.0201 1.6
      vertex 16.9339 -5.0201 2.4
      vertex 18.1499 -5.0201 2.4
    endloop
  endfacet
  facet normal 0 1 0
    outer loop
      vertex 16.9339 -5.0201 2.4
      vertex 18.1499 -5.0201 1.6
      vertex 16.9339 -5.0201 1.6
    endloop
  endfacet
  facet normal -0.924273 0.381731 0
    outer loop
      vertex 18.1499 -5.0201 1.6
      vertex 18.2878 -4.68622 2.4
      vertex 18.2878 -4.68622 1.6
    endloop
  endfacet
  facet normal -0.924273 0.381731 0
    outer loop
      vertex 18.2878 -4.68622 2.4
      vertex 18.1499 -5.0201 1.6
      vertex 18.1499 -5.0201 2.4
    endloop
  endfacet
  facet normal -0.948116 0.317924 0
    outer loop
      vertex 18.2878 -4.68622 1.6
      vertex 18.4001 -4.35121 2.4
      vertex 18.4001 -4.35121 1.6
    endloop
  endfacet
  facet normal -0.948116 0.317924 0
    outer loop
      vertex 18.4001 -4.35121 2.4
      vertex 18.2878 -4.68622 1.6
      vertex 18.2878 -4.68622 2.4
    endloop
  endfacet
  facet normal -0.96825 0.249986 0
    outer loop
      vertex 18.4001 -4.35121 1.6
      vertex 18.4869 -4.01511 2.4
      vertex 18.4869 -4.01511 1.6
    endloop
  endfacet
  facet normal -0.96825 0.249986 0
    outer loop
      vertex 18.4869 -4.01511 2.4
      vertex 18.4001 -4.35121 1.6
      vertex 18.4001 -4.35121 2.4
    endloop
  endfacet
  facet normal -0.983807 0.179233 0
    outer loop
      vertex 18.4869 -4.01511 1.6
      vertex 18.5486 -3.67665 2.4
      vertex 18.5486 -3.67665 1.6
    endloop
  endfacet
  facet normal -0.983807 0.179233 0
    outer loop
      vertex 18.5486 -3.67665 2.4
      vertex 18.4869 -4.01511 1.6
      vertex 18.4869 -4.01511 2.4
    endloop
  endfacet
  facet normal -0.994153 0.107983 0
    outer loop
      vertex 18.5486 -3.67665 1.6
      vertex 18.5856 -3.33598 2.4
      vertex 18.5856 -3.33598 1.6
    endloop
  endfacet
  facet normal -0.994153 0.107983 0
    outer loop
      vertex 18.5856 -3.33598 2.4
      vertex 18.5486 -3.67665 1.6
      vertex 18.5486 -3.67665 2.4
    endloop
  endfacet
  facet normal -0.999354 0.0359342 0
    outer loop
      vertex 18.5856 -3.33598 1.6
      vertex 18.5979 -2.9931 2.4
      vertex 18.5979 -2.9931 1.6
    endloop
  endfacet
  facet normal -0.999354 0.0359342 0
    outer loop
      vertex 18.5979 -2.9931 2.4
      vertex 18.5856 -3.33598 1.6
      vertex 18.5856 -3.33598 2.4
    endloop
  endfacet
  facet normal -0.996464 -0.0840173 0
    outer loop
      vertex 18.5979 -2.9931 1.6
      vertex 18.5357 -2.2551 2.4
      vertex 18.5357 -2.2551 1.6
    endloop
  endfacet
  facet normal -0.996464 -0.0840173 0
    outer loop
      vertex 18.5357 -2.2551 2.4
      vertex 18.5979 -2.9931 1.6
      vertex 18.5979 -2.9931 2.4
    endloop
  endfacet
  facet normal 1 -0 0
    outer loop
      vertex 17.3819 3.83499 2.4
      vertex 17.3819 5.21599 1.6
      vertex 17.3819 5.21599 2.4
    endloop
  endfacet
  facet normal 1 0 0
    outer loop
      vertex 17.3819 5.21599 1.6
      vertex 17.3819 3.83499 2.4
      vertex 17.3819 3.83499 1.6
    endloop
  endfacet
  facet normal -1.91041e-07 -1 0
    outer loop
      vertex 12.3899 3.83499 1.6
      vertex 17.3819 3.83499 2.4
      vertex 12.3899 3.83499 2.4
    endloop
  endfacet
  facet normal -1.91041e-07 -1 -0
    outer loop
      vertex 17.3819 3.83499 2.4
      vertex 12.3899 3.83499 1.6
      vertex 17.3819 3.83499 1.6
    endloop
  endfacet
  facet normal 1 -0 0
    outer loop
      vertex 12.3899 2.34799 2.4
      vertex 12.3899 3.83499 1.6
      vertex 12.3899 3.83499 2.4
    endloop
  endfacet
  facet normal 1 0 0
    outer loop
      vertex 12.3899 3.83499 1.6
      vertex 12.3899 2.34799 2.4
      vertex 12.3899 2.34799 1.6
    endloop
  endfacet
  facet normal 0.975202 0.221316 0
    outer loop
      vertex 12.7099 0.937988 2.4
      vertex 12.3899 2.34799 1.6
      vertex 12.3899 2.34799 2.4
    endloop
  endfacet
  facet normal 0.975202 0.221316 0
    outer loop
      vertex 12.3899 2.34799 1.6
      vertex 12.7099 0.937988 2.4
      vertex 12.7099 0.937988 1.6
    endloop
  endfacet
  facet normal 0 1 -0
    outer loop
      vertex 13.7979 0.937988 1.6
      vertex 12.7099 0.937988 2.4
      vertex 13.7979 0.937988 2.4
    endloop
  endfacet
  facet normal 0 1 0
    outer loop
      vertex 12.7099 0.937988 2.4
      vertex 13.7979 0.937988 1.6
      vertex 12.7099 0.937988 1.6
    endloop
  endfacet
  facet normal -0.975471 -0.220129 0
    outer loop
      vertex 13.7979 0.937988 1.6
      vertex 13.4779 2.35599 2.4
      vertex 13.4779 2.35599 1.6
    endloop
  endfacet
  facet normal -0.975471 -0.220129 0
    outer loop
      vertex 13.4779 2.35599 2.4
      vertex 13.7979 0.937988 1.6
      vertex 13.7979 0.937988 2.4
    endloop
  endfacet
  facet normal 2.44283e-07 1 -0
    outer loop
      vertex 17.3819 2.35599 1.6
      vertex 13.4779 2.35599 2.4
      vertex 17.3819 2.35599 2.4
    endloop
  endfacet
  facet normal 2.44283e-07 1 0
    outer loop
      vertex 13.4779 2.35599 2.4
      vertex 17.3819 2.35599 1.6
      vertex 13.4779 2.35599 1.6
    endloop
  endfacet
  facet normal 1 -0 0
    outer loop
      vertex 17.3819 0.97499 2.4
      vertex 17.3819 2.35599 1.6
      vertex 17.3819 2.35599 2.4
    endloop
  endfacet
  facet normal 1 0 0
    outer loop
      vertex 17.3819 2.35599 1.6
      vertex 17.3819 0.97499 2.4
      vertex 17.3819 0.97499 1.6
    endloop
  endfacet
  facet normal 0 1 -0
    outer loop
      vertex 18.4699 0.97499 1.6
      vertex 17.3819 0.97499 2.4
      vertex 18.4699 0.97499 2.4
    endloop
  endfacet
  facet normal 0 1 0
    outer loop
      vertex 17.3819 0.97499 2.4
      vertex 18.4699 0.97499 1.6
      vertex 17.3819 0.97499 1.6
    endloop
  endfacet
  facet normal -1 0 0
    outer loop
      vertex 18.4699 0.97499 1.6
      vertex 18.4699 5.21599 2.4
      vertex 18.4699 5.21599 1.6
    endloop
  endfacet
  facet normal -1 -0 0
    outer loop
      vertex 18.4699 5.21599 2.4
      vertex 18.4699 0.97499 1.6
      vertex 18.4699 0.97499 2.4
    endloop
  endfacet
  facet normal -8.76529e-07 -1 0
    outer loop
      vertex 17.3819 5.21599 1.6
      vertex 18.4699 5.21599 2.4
      vertex 17.3819 5.21599 2.4
    endloop
  endfacet
  facet normal -8.76529e-07 -1 -0
    outer loop
      vertex 18.4699 5.21599 2.4
      vertex 17.3819 5.21599 1.6
      vertex 18.4699 5.21599 1.6
    endloop
  endfacet
endsolid OpenSCAD_Model
