solid OpenSCAD_Model
  facet normal -0.866025 0.5 0
    outer loop
      vertex -11.0282 4.91006 0
      vertex -9.76632 7.09564 4
      vertex -9.76632 7.09564 0
    endloop
  endfacet
  facet normal -0.866025 0.5 0
    outer loop
      vertex -9.76632 7.09564 4
      vertex -11.0282 4.91006 0
      vertex -11.0282 4.91006 4
    endloop
  endfacet
  facet normal -0.994522 0.104529 0
    outer loop
      vertex -12.0718 0 0
      vertex -11.808 2.50987 4
      vertex -11.808 2.50987 0
    endloop
  endfacet
  facet normal -0.994522 0.104529 0
    outer loop
      vertex -11.808 2.50987 4
      vertex -12.0718 0 0
      vertex -12.0718 0 4
    endloop
  endfacet
  facet normal -0.994522 -0.104529 0
    outer loop
      vertex -11.808 -2.50987 0
      vertex -12.0718 0 4
      vertex -12.0718 0 0
    endloop
  endfacet
  facet normal -0.994522 -0.104529 0
    outer loop
      vertex -12.0718 0 4
      vertex -11.808 -2.50987 0
      vertex -11.808 -2.50987 4
    endloop
  endfacet
  facet normal -0.951057 0.309017 0
    outer loop
      vertex -11.808 2.50987 0
      vertex -11.0282 4.91006 4
      vertex -11.0282 4.91006 0
    endloop
  endfacet
  facet normal -0.951057 0.309017 0
    outer loop
      vertex -11.0282 4.91006 4
      vertex -11.808 2.50987 0
      vertex -11.808 2.50987 4
    endloop
  endfacet
  facet normal 0 0 -1
    outer loop
      vertex 27.1437 0 0
      vertex 30.1796 0 0
      vertex 29.8525 -1.95986 0
    endloop
  endfacet
  facet normal 0 0 -1
    outer loop
      vertex 26.5707 -1.76336 0
      vertex 29.8525 -1.95986 0
      vertex 28.9068 -3.70734 0
    endloop
  endfacet
  facet normal 0 0 -1
    outer loop
      vertex 30.1796 0 0
      vertex 27.1437 0 0
      vertex 29.8525 1.95986 0
    endloop
  endfacet
  facet normal 0 0 -1
    outer loop
      vertex 26.5707 -1.76336 0
      vertex 28.9068 -3.70734 0
      vertex 27.445 -5.05307 0
    endloop
  endfacet
  facet normal 0 0 -1
    outer loop
      vertex 26.5707 1.76336 0
      vertex 29.8525 1.95986 0
      vertex 27.1437 0 0
    endloop
  endfacet
  facet normal -0 0 -1
    outer loop
      vertex 29.8525 1.95986 0
      vertex 26.5707 1.76336 0
      vertex 28.9068 3.70734 0
    endloop
  endfacet
  facet normal 0 0 -1
    outer loop
      vertex 29.8525 -1.95986 0
      vertex 26.5707 -1.76336 0
      vertex 27.1437 0 0
    endloop
  endfacet
  facet normal 0 0 -1
    outer loop
      vertex 25.0707 -2.85317 0
      vertex 27.445 -5.05307 0
      vertex 25.6254 -5.85122 0
    endloop
  endfacet
  facet normal 0 0 -1
    outer loop
      vertex 27.445 -5.05307 0
      vertex 25.0707 -2.85317 0
      vertex 26.5707 -1.76336 0
    endloop
  endfacet
  facet normal 0 0 -1
    outer loop
      vertex 25.6254 -5.85122 0
      vertex 23.2166 -2.85317 0
      vertex 25.0707 -2.85317 0
    endloop
  endfacet
  facet normal 0 0 -1
    outer loop
      vertex 25.6254 -5.85122 0
      vertex 21.7166 -1.76336 0
      vertex 23.2166 -2.85317 0
    endloop
  endfacet
  facet normal 0 0 -1
    outer loop
      vertex 8.85974 -1.95018 0
      vertex 21.1437 0 0
      vertex 21.7166 -1.76336 0
    endloop
  endfacet
  facet normal 0 0 -1
    outer loop
      vertex 7.22202 -5.49004 0
      vertex 21.7166 -1.76336 0
      vertex 25.6254 -5.85122 0
    endloop
  endfacet
  facet normal -0 0 -1
    outer loop
      vertex 21.1437 0 0
      vertex 8.85974 -1.95018 0
      vertex 9.07183 0 0
    endloop
  endfacet
  facet normal 0 0 -1
    outer loop
      vertex 21.7166 -1.76336 0
      vertex 8.23337 -3.80916 0
      vertex 8.85974 -1.95018 0
    endloop
  endfacet
  facet normal 0 0 -1
    outer loop
      vertex 21.7166 -1.76336 0
      vertex 7.22202 -5.49004 0
      vertex 8.23337 -3.80916 0
    endloop
  endfacet
  facet normal 0 0 -1
    outer loop
      vertex 3.7304 -11.481 0
      vertex 7.22202 -5.49004 0
      vertex 25.6254 -5.85122 0
    endloop
  endfacet
  facet normal 0 0 -1
    outer loop
      vertex 7.22202 -5.49004 0
      vertex 3.7304 -11.481 0
      vertex 5.87298 -6.91421 0
    endloop
  endfacet
  facet normal 0 0 -1
    outer loop
      vertex 5.87298 -6.91421 0
      vertex 3.7304 -11.481 0
      vertex 4.24932 -8.01507 0
    endloop
  endfacet
  facet normal 0 0 -1
    outer loop
      vertex 3.7304 -11.481 0
      vertex 2.42697 -8.74116 0
      vertex 4.24932 -8.01507 0
    endloop
  endfacet
  facet normal 0 0 -1
    outer loop
      vertex 1.26185 -12.0057 0
      vertex 2.42697 -8.74116 0
      vertex 3.7304 -11.481 0
    endloop
  endfacet
  facet normal 0 0 -1
    outer loop
      vertex 1.26185 -12.0057 0
      vertex 0.491138 -9.05853 0
      vertex 2.42697 -8.74116 0
    endloop
  endfacet
  facet normal 0 0 -1
    outer loop
      vertex -1.26185 -12.0057 0
      vertex 0.491138 -9.05853 0
      vertex 1.26185 -12.0057 0
    endloop
  endfacet
  facet normal 0 0 -1
    outer loop
      vertex -1.26185 -12.0057 0
      vertex -1.46766 -8.95232 0
      vertex 0.491138 -9.05853 0
    endloop
  endfacet
  facet normal 0 0 -1
    outer loop
      vertex -3.7304 -11.481 0
      vertex -1.46766 -8.95232 0
      vertex -1.26185 -12.0057 0
    endloop
  endfacet
  facet normal -0 0 -1
    outer loop
      vertex -1.46766 -8.95232 0
      vertex -3.7304 -11.481 0
      vertex -3.35783 -8.42752 0
    endloop
  endfacet
  facet normal 0 0 -1
    outer loop
      vertex -6.03592 -10.4545 0
      vertex -3.35783 -8.42752 0
      vertex -3.7304 -11.481 0
    endloop
  endfacet
  facet normal -0 0 -1
    outer loop
      vertex -3.35783 -8.42752 0
      vertex -6.03592 -10.4545 0
      vertex -5.09099 -7.50865 0
    endloop
  endfacet
  facet normal 0 0 -1
    outer loop
      vertex -8.07763 -8.97112 0
      vertex -5.09099 -7.50865 0
      vertex -6.03592 -10.4545 0
    endloop
  endfacet
  facet normal -0 0 -1
    outer loop
      vertex -5.09099 -7.50865 0
      vertex -8.07763 -8.97112 0
      vertex -6.58611 -6.23869 0
    endloop
  endfacet
  facet normal 0 0 -1
    outer loop
      vertex -9.76632 -7.09564 0
      vertex -6.58611 -6.23869 0
      vertex -8.07763 -8.97112 0
    endloop
  endfacet
  facet normal -0 0 -1
    outer loop
      vertex -6.58611 -6.23869 0
      vertex -9.76632 -7.09564 0
      vertex -7.77326 -4.67702 0
    endloop
  endfacet
  facet normal 0 0 -1
    outer loop
      vertex -11.0282 -4.91006 0
      vertex -7.77326 -4.67702 0
      vertex -9.76632 -7.09564 0
    endloop
  endfacet
  facet normal 0 0 -1
    outer loop
      vertex -11.808 -2.50987 0
      vertex -8.59695 -2.89665 0
      vertex -11.0282 -4.91006 0
    endloop
  endfacet
  facet normal -0 0 -1
    outer loop
      vertex -7.77326 -4.67702 0
      vertex -11.0282 -4.91006 0
      vertex -8.59695 -2.89665 0
    endloop
  endfacet
  facet normal -0 0 -1
    outer loop
      vertex 28.9068 3.70734 0
      vertex 26.5707 1.76336 0
      vertex 27.445 5.05307 0
    endloop
  endfacet
  facet normal 0 0 -1
    outer loop
      vertex 25.0707 2.85317 0
      vertex 27.445 5.05307 0
      vertex 26.5707 1.76336 0
    endloop
  endfacet
  facet normal -0 0 -1
    outer loop
      vertex 27.445 5.05307 0
      vertex 25.0707 2.85317 0
      vertex 25.6254 5.85122 0
    endloop
  endfacet
  facet normal 0 0 -1
    outer loop
      vertex 23.2166 2.85317 0
      vertex 25.6254 5.85122 0
      vertex 25.0707 2.85317 0
    endloop
  endfacet
  facet normal 0 0 -1
    outer loop
      vertex 21.7166 1.76336 0
      vertex 25.6254 5.85122 0
      vertex 23.2166 2.85317 0
    endloop
  endfacet
  facet normal 0 0 -1
    outer loop
      vertex 8.85974 1.95018 0
      vertex 21.1437 0 0
      vertex 9.07183 0 0
    endloop
  endfacet
  facet normal 0 0 -1
    outer loop
      vertex 21.1437 0 0
      vertex 8.85974 1.95018 0
      vertex 21.7166 1.76336 0
    endloop
  endfacet
  facet normal 0 0 -1
    outer loop
      vertex 8.23337 3.80916 0
      vertex 21.7166 1.76336 0
      vertex 8.85974 1.95018 0
    endloop
  endfacet
  facet normal 0 0 -1
    outer loop
      vertex 7.22202 5.49004 0
      vertex 21.7166 1.76336 0
      vertex 8.23337 3.80916 0
    endloop
  endfacet
  facet normal 0 0 -1
    outer loop
      vertex 21.7166 1.76336 0
      vertex 7.22202 5.49004 0
      vertex 25.6254 5.85122 0
    endloop
  endfacet
  facet normal 0 0 -1
    outer loop
      vertex 3.7304 11.481 0
      vertex 7.22202 5.49004 0
      vertex 5.87298 6.91421 0
    endloop
  endfacet
  facet normal 0 0 -1
    outer loop
      vertex 3.7304 11.481 0
      vertex 5.87298 6.91421 0
      vertex 4.24932 8.01507 0
    endloop
  endfacet
  facet normal 0 0 -1
    outer loop
      vertex 7.22202 5.49004 0
      vertex 3.7304 11.481 0
      vertex 25.6254 5.85122 0
    endloop
  endfacet
  facet normal 0 0 -1
    outer loop
      vertex 2.42697 8.74116 0
      vertex 3.7304 11.481 0
      vertex 4.24932 8.01507 0
    endloop
  endfacet
  facet normal 0 0 -1
    outer loop
      vertex 2.42697 8.74116 0
      vertex 1.26185 12.0057 0
      vertex 3.7304 11.481 0
    endloop
  endfacet
  facet normal 0 0 -1
    outer loop
      vertex 0.491138 9.05853 0
      vertex 1.26185 12.0057 0
      vertex 2.42697 8.74116 0
    endloop
  endfacet
  facet normal 0 0 -1
    outer loop
      vertex 0.491138 9.05853 0
      vertex -1.26185 12.0057 0
      vertex 1.26185 12.0057 0
    endloop
  endfacet
  facet normal 0 0 -1
    outer loop
      vertex -1.46766 8.95232 0
      vertex -1.26185 12.0057 0
      vertex 0.491138 9.05853 0
    endloop
  endfacet
  facet normal 0 0 -1
    outer loop
      vertex -3.7304 11.481 0
      vertex -1.46766 8.95232 0
      vertex -3.35783 8.42752 0
    endloop
  endfacet
  facet normal 0 0 -1
    outer loop
      vertex -1.46766 8.95232 0
      vertex -3.7304 11.481 0
      vertex -1.26185 12.0057 0
    endloop
  endfacet
  facet normal 0 0 -1
    outer loop
      vertex -6.03592 10.4545 0
      vertex -3.35783 8.42752 0
      vertex -5.09099 7.50865 0
    endloop
  endfacet
  facet normal 0 0 -1
    outer loop
      vertex -3.35783 8.42752 0
      vertex -6.03592 10.4545 0
      vertex -3.7304 11.481 0
    endloop
  endfacet
  facet normal 0 0 -1
    outer loop
      vertex -8.07763 8.97112 0
      vertex -5.09099 7.50865 0
      vertex -6.58611 6.23869 0
    endloop
  endfacet
  facet normal 0 0 -1
    outer loop
      vertex -9.76632 7.09564 0
      vertex -6.58611 6.23869 0
      vertex -7.77326 4.67702 0
    endloop
  endfacet
  facet normal 0 0 -1
    outer loop
      vertex -5.09099 7.50865 0
      vertex -8.07763 8.97112 0
      vertex -6.03592 10.4545 0
    endloop
  endfacet
  facet normal 0 0 -1
    outer loop
      vertex -11.0282 4.91006 0
      vertex -7.77326 4.67702 0
      vertex -8.59695 2.89665 0
    endloop
  endfacet
  facet normal 0 0 -1
    outer loop
      vertex -11.808 2.50987 0
      vertex -8.59695 2.89665 0
      vertex -9.01865 0.980837 0
    endloop
  endfacet
  facet normal 0 0 -1
    outer loop
      vertex -6.58611 6.23869 0
      vertex -9.76632 7.09564 0
      vertex -8.07763 8.97112 0
    endloop
  endfacet
  facet normal 0 0 -1
    outer loop
      vertex -8.59695 -2.89665 0
      vertex -11.808 -2.50987 0
      vertex -9.01865 -0.980837 0
    endloop
  endfacet
  facet normal 0 0 -1
    outer loop
      vertex -12.0718 0 0
      vertex -9.01865 -0.980837 0
      vertex -11.808 -2.50987 0
    endloop
  endfacet
  facet normal 0 0 -1
    outer loop
      vertex -7.77326 4.67702 0
      vertex -11.0282 4.91006 0
      vertex -9.76632 7.09564 0
    endloop
  endfacet
  facet normal 0 0 -1
    outer loop
      vertex -9.01865 -0.980837 0
      vertex -12.0718 0 0
      vertex -9.01865 0.980837 0
    endloop
  endfacet
  facet normal -0 0 -1
    outer loop
      vertex -8.59695 2.89665 0
      vertex -11.808 2.50987 0
      vertex -11.0282 4.91006 0
    endloop
  endfacet
  facet normal -0 0 -1
    outer loop
      vertex -9.01865 0.980837 0
      vertex -12.0718 0 0
      vertex -11.808 2.50987 0
    endloop
  endfacet
  facet normal -0 0 1
    outer loop
      vertex 13.7268 0.556992 2.4
      vertex 14.8788 -0.893096 2.4
      vertex 14.8788 0.556992 2.4
    endloop
  endfacet
  facet normal 0 0 1
    outer loop
      vertex 14.8788 -0.893096 2.4
      vertex 13.7268 0.556992 2.4
      vertex 13.7268 -0.893096 2.4
    endloop
  endfacet
  facet normal 0 0 1
    outer loop
      vertex 18.8468 -3.2411 2.4
      vertex 16.7988 -3.2411 2.4
      vertex 18.8308 -3.50943 2.4
    endloop
  endfacet
  facet normal 0 0 1
    outer loop
      vertex 18.7828 -3.78911 2.4
      vertex 17.0635 -4.49388 2.4
      vertex 17.1828 -4.78011 2.4
    endloop
  endfacet
  facet normal 0 0 1
    outer loop
      vertex 18.7828 -3.78911 2.4
      vertex 16.9668 -4.22055 2.4
      vertex 17.0635 -4.49388 2.4
    endloop
  endfacet
  facet normal 0 0 1
    outer loop
      vertex 16.8293 -2.88866 2.4
      vertex 17.0728 -2.34511 2.4
      vertex 16.9206 -2.59 2.4
    endloop
  endfacet
  facet normal 0 0 1
    outer loop
      vertex 18.7828 -3.78911 2.4
      vertex 16.8928 -3.9601 2.4
      vertex 16.9668 -4.22055 2.4
    endloop
  endfacet
  facet normal 0 0 1
    outer loop
      vertex 18.7828 -3.78911 2.4
      vertex 16.8406 -3.71043 2.4
      vertex 16.8928 -3.9601 2.4
    endloop
  endfacet
  facet normal -0 -0 1
    outer loop
      vertex 16.8093 -3.47076 2.4
      vertex 18.8308 -3.50943 2.4
      vertex 16.7988 -3.2411 2.4
    endloop
  endfacet
  facet normal 0 0 1
    outer loop
      vertex 18.8308 -3.50943 2.4
      vertex 16.8406 -3.71043 2.4
      vertex 18.7828 -3.78911 2.4
    endloop
  endfacet
  facet normal 0 -0 1
    outer loop
      vertex 16.8406 -3.71043 2.4
      vertex 18.8308 -3.50943 2.4
      vertex 16.8093 -3.47076 2.4
    endloop
  endfacet
  facet normal 0 0 1
    outer loop
      vertex 17.8228 -2.0181 2.4
      vertex 16.8293 -2.88866 2.4
      vertex 18.7241 -2.59 2.4
    endloop
  endfacet
  facet normal 0 0 1
    outer loop
      vertex 18.7241 -2.59 2.4
      vertex 16.8293 -2.88866 2.4
      vertex 18.8161 -2.88866 2.4
    endloop
  endfacet
  facet normal 0 0 1
    outer loop
      vertex 16.8293 -2.88866 2.4
      vertex 17.8228 -2.0181 2.4
      vertex 17.0728 -2.34511 2.4
    endloop
  endfacet
  facet normal 0 0 1
    outer loop
      vertex 18.8161 -2.88866 2.4
      vertex 16.8293 -2.88866 2.4
      vertex 18.8468 -3.2411 2.4
    endloop
  endfacet
  facet normal 0 0 1
    outer loop
      vertex 16.7988 -3.2411 2.4
      vertex 18.8468 -3.2411 2.4
      vertex 16.8293 -2.88866 2.4
    endloop
  endfacet
  facet normal 0 0 1
    outer loop
      vertex 17.8228 -2.0181 2.4
      vertex 18.7241 -2.59 2.4
      vertex 18.5708 -2.34511 2.4
    endloop
  endfacet
  facet normal 0 0 1
    outer loop
      vertex 18.7828 -3.78911 2.4
      vertex 17.1828 -4.78011 2.4
      vertex 18.7028 -4.08011 2.4
    endloop
  endfacet
  facet normal 0 0 1
    outer loop
      vertex 18.1157 -2.05443 2.4
      vertex 18.5708 -2.34511 2.4
      vertex 18.365 -2.16344 2.4
    endloop
  endfacet
  facet normal 0 0 1
    outer loop
      vertex 18.7028 -4.08011 2.4
      vertex 17.1828 -4.78011 2.4
      vertex 18.5908 -4.38188 2.4
    endloop
  endfacet
  facet normal 0 0 1
    outer loop
      vertex 18.5708 -2.34511 2.4
      vertex 18.1157 -2.05443 2.4
      vertex 17.8228 -2.0181 2.4
    endloop
  endfacet
  facet normal 0 0 1
    outer loop
      vertex 27.1437 0 2.4
      vertex 30.1796 0 2.4
      vertex 29.8525 1.95986 2.4
    endloop
  endfacet
  facet normal 0 0 1
    outer loop
      vertex 26.5707 1.76336 2.4
      vertex 29.8525 1.95986 2.4
      vertex 28.9068 3.70734 2.4
    endloop
  endfacet
  facet normal 0 0 1
    outer loop
      vertex 30.1796 0 2.4
      vertex 27.1437 0 2.4
      vertex 29.8525 -1.95986 2.4
    endloop
  endfacet
  facet normal 0 0 1
    outer loop
      vertex 26.5707 1.76336 2.4
      vertex 28.9068 3.70734 2.4
      vertex 27.445 5.05307 2.4
    endloop
  endfacet
  facet normal -0 0 1
    outer loop
      vertex 26.5707 -1.76336 2.4
      vertex 29.8525 -1.95986 2.4
      vertex 27.1437 0 2.4
    endloop
  endfacet
  facet normal 0 0 1
    outer loop
      vertex 29.8525 -1.95986 2.4
      vertex 26.5707 -1.76336 2.4
      vertex 28.9068 -3.70734 2.4
    endloop
  endfacet
  facet normal 0 0 1
    outer loop
      vertex 29.8525 1.95986 2.4
      vertex 26.5707 1.76336 2.4
      vertex 27.1437 0 2.4
    endloop
  endfacet
  facet normal 0 0 1
    outer loop
      vertex 25.0707 2.85317 2.4
      vertex 27.445 5.05307 2.4
      vertex 25.6254 5.85122 2.4
    endloop
  endfacet
  facet normal 0 0 1
    outer loop
      vertex 27.445 5.05307 2.4
      vertex 25.0707 2.85317 2.4
      vertex 26.5707 1.76336 2.4
    endloop
  endfacet
  facet normal 0 0 1
    outer loop
      vertex 25.6254 5.85122 2.4
      vertex 23.2166 2.85317 2.4
      vertex 25.0707 2.85317 2.4
    endloop
  endfacet
  facet normal 0 0 1
    outer loop
      vertex 19.8068 2.76298 2.4
      vertex 23.2166 2.85317 2.4
      vertex 25.6254 5.85122 2.4
    endloop
  endfacet
  facet normal -0 0 1
    outer loop
      vertex 19.8068 1.239 2.4
      vertex 21.1437 0 2.4
      vertex 21.7166 1.76336 2.4
    endloop
  endfacet
  facet normal 0 0 1
    outer loop
      vertex 21.1437 0 2.4
      vertex 19.8726 -2.2551 2.4
      vertex 19.9348 -2.9931 2.4
    endloop
  endfacet
  facet normal 0 0 1
    outer loop
      vertex 19.8068 1.239 2.4
      vertex 21.7166 1.76336 2.4
      vertex 19.8068 2.76298 2.4
    endloop
  endfacet
  facet normal 0 0 1
    outer loop
      vertex 23.2166 2.85317 2.4
      vertex 19.8068 2.76298 2.4
      vertex 21.7166 1.76336 2.4
    endloop
  endfacet
  facet normal 0 0 1
    outer loop
      vertex 25.6254 5.85122 2.4
      vertex 14.6108 5.127 2.4
      vertex 19.8068 2.76298 2.4
    endloop
  endfacet
  facet normal 0 0 1
    outer loop
      vertex 8.07763 8.97112 2.4
      vertex 14.6108 5.127 2.4
      vertex 25.6254 5.85122 2.4
    endloop
  endfacet
  facet normal -0 0 1
    outer loop
      vertex 11.808 2.50987 2.4
      vertex 13.7268 0.556992 2.4
      vertex 13.7268 5.127 2.4
    endloop
  endfacet
  facet normal 0 -0 1
    outer loop
      vertex 12.0718 0 2.4
      vertex 13.7268 0.556992 2.4
      vertex 11.808 2.50987 2.4
    endloop
  endfacet
  facet normal 0 0 1
    outer loop
      vertex 11.808 -2.50987 2.4
      vertex 13.7268 -0.893096 2.4
      vertex 12.0718 0 2.4
    endloop
  endfacet
  facet normal 0 0 1
    outer loop
      vertex 13.7268 0.556992 2.4
      vertex 12.0718 0 2.4
      vertex 13.7268 -0.893096 2.4
    endloop
  endfacet
  facet normal 0 0 1
    outer loop
      vertex 13.7268 5.127 2.4
      vertex 11.0282 4.91006 2.4
      vertex 11.808 2.50987 2.4
    endloop
  endfacet
  facet normal 0 0 1
    outer loop
      vertex 13.7268 5.127 2.4
      vertex 9.76632 7.09564 2.4
      vertex 11.0282 4.91006 2.4
    endloop
  endfacet
  facet normal -0 -0 1
    outer loop
      vertex 9.76632 7.09564 2.4
      vertex 14.6108 5.127 2.4
      vertex 8.07763 8.97112 2.4
    endloop
  endfacet
  facet normal 0 0 1
    outer loop
      vertex 14.6108 5.127 2.4
      vertex 9.76632 7.09564 2.4
      vertex 13.7268 5.127 2.4
    endloop
  endfacet
  facet normal 0 0 1
    outer loop
      vertex 25.6254 5.85122 2.4
      vertex 6.03592 10.4545 2.4
      vertex 8.07763 8.97112 2.4
    endloop
  endfacet
  facet normal -0 -0 1
    outer loop
      vertex 6.03592 10.4545 2.4
      vertex 25.6254 5.85122 2.4
      vertex 3.7304 11.481 2.4
    endloop
  endfacet
  facet normal 0 0 1
    outer loop
      vertex 28.9068 -3.70734 2.4
      vertex 26.5707 -1.76336 2.4
      vertex 27.445 -5.05307 2.4
    endloop
  endfacet
  facet normal -0 0 1
    outer loop
      vertex 25.0707 -2.85317 2.4
      vertex 27.445 -5.05307 2.4
      vertex 26.5707 -1.76336 2.4
    endloop
  endfacet
  facet normal 0 0 1
    outer loop
      vertex 27.445 -5.05307 2.4
      vertex 25.0707 -2.85317 2.4
      vertex 25.6254 -5.85122 2.4
    endloop
  endfacet
  facet normal -0 0 1
    outer loop
      vertex 23.2166 -2.85317 2.4
      vertex 25.6254 -5.85122 2.4
      vertex 25.0707 -2.85317 2.4
    endloop
  endfacet
  facet normal 0 0 1
    outer loop
      vertex 19.9225 -3.33598 2.4
      vertex 23.2166 -2.85317 2.4
      vertex 21.7166 -1.76336 2.4
    endloop
  endfacet
  facet normal 0 0 1
    outer loop
      vertex 19.9348 -2.9931 2.4
      vertex 21.7166 -1.76336 2.4
      vertex 21.1437 0 2.4
    endloop
  endfacet
  facet normal 0 0 1
    outer loop
      vertex 19.9225 -3.33598 2.4
      vertex 21.7166 -1.76336 2.4
      vertex 19.9348 -2.9931 2.4
    endloop
  endfacet
  facet normal 0 0 1
    outer loop
      vertex 23.2166 -2.85317 2.4
      vertex 19.9225 -3.33598 2.4
      vertex 19.8855 -3.67665 2.4
    endloop
  endfacet
  facet normal 0 0 1
    outer loop
      vertex 23.2166 -2.85317 2.4
      vertex 19.8855 -3.67665 2.4
      vertex 19.8238 -4.01511 2.4
    endloop
  endfacet
  facet normal 0 0 1
    outer loop
      vertex 19.737 -4.35121 2.4
      vertex 23.2166 -2.85317 2.4
      vertex 19.8238 -4.01511 2.4
    endloop
  endfacet
  facet normal 0 0 1
    outer loop
      vertex 19.6247 -4.68622 2.4
      vertex 23.2166 -2.85317 2.4
      vertex 19.737 -4.35121 2.4
    endloop
  endfacet
  facet normal 0 0 1
    outer loop
      vertex 23.2166 -2.85317 2.4
      vertex 19.6247 -4.68622 2.4
      vertex 25.6254 -5.85122 2.4
    endloop
  endfacet
  facet normal -0 0 1
    outer loop
      vertex 19.4868 -5.0201 2.4
      vertex 25.6254 -5.85122 2.4
      vertex 19.6247 -4.68622 2.4
    endloop
  endfacet
  facet normal 0 0 1
    outer loop
      vertex 8.07763 -8.97112 2.4
      vertex 19.4868 -5.0201 2.4
      vertex 18.2708 -5.0201 2.4
    endloop
  endfacet
  facet normal -0 0 1
    outer loop
      vertex 17.5279 -2.05443 2.4
      vertex 17.0728 -2.34511 2.4
      vertex 17.8228 -2.0181 2.4
    endloop
  endfacet
  facet normal 0 0 1
    outer loop
      vertex 17.0728 -2.34511 2.4
      vertex 17.5279 -2.05443 2.4
      vertex 17.2779 -2.16344 2.4
    endloop
  endfacet
  facet normal 0 0 1
    outer loop
      vertex 18.5908 -4.38188 2.4
      vertex 17.1828 -4.78011 2.4
      vertex 18.4468 -4.69521 2.4
    endloop
  endfacet
  facet normal 0 0 1
    outer loop
      vertex 18.4468 -4.69521 2.4
      vertex 17.1828 -4.78011 2.4
      vertex 18.2708 -5.0201 2.4
    endloop
  endfacet
  facet normal 0 0 1
    outer loop
      vertex 9.76632 -7.09564 2.4
      vertex 17.1828 -4.78011 2.4
      vertex 13.7268 -4.7801 2.4
    endloop
  endfacet
  facet normal 0 0 1
    outer loop
      vertex 17.1828 -4.78011 2.4
      vertex 9.76632 -7.09564 2.4
      vertex 18.2708 -5.0201 2.4
    endloop
  endfacet
  facet normal 0 0 1
    outer loop
      vertex 13.7268 -0.893096 2.4
      vertex 11.808 -2.50987 2.4
      vertex 13.7268 -4.7801 2.4
    endloop
  endfacet
  facet normal 0 0 1
    outer loop
      vertex 11.0282 -4.91006 2.4
      vertex 13.7268 -4.7801 2.4
      vertex 11.808 -2.50987 2.4
    endloop
  endfacet
  facet normal 0 0 1
    outer loop
      vertex 9.76632 -7.09564 2.4
      vertex 13.7268 -4.7801 2.4
      vertex 11.0282 -4.91006 2.4
    endloop
  endfacet
  facet normal 0 0 1
    outer loop
      vertex 18.2708 -5.0201 2.4
      vertex 9.76632 -7.09564 2.4
      vertex 8.07763 -8.97112 2.4
    endloop
  endfacet
  facet normal 0 0 1
    outer loop
      vertex 19.4868 -5.0201 2.4
      vertex 8.07763 -8.97112 2.4
      vertex 25.6254 -5.85122 2.4
    endloop
  endfacet
  facet normal 0 0 1
    outer loop
      vertex 6.03592 -10.4545 2.4
      vertex 25.6254 -5.85122 2.4
      vertex 8.07763 -8.97112 2.4
    endloop
  endfacet
  facet normal 0 0 1
    outer loop
      vertex 25.6254 -5.85122 2.4
      vertex 6.03592 -10.4545 2.4
      vertex 3.7304 -11.481 2.4
    endloop
  endfacet
  facet normal 0 0 1
    outer loop
      vertex 18.9537 -0.75322 2.4
      vertex 21.1437 0 2.4
      vertex 19.8068 1.239 2.4
    endloop
  endfacet
  facet normal 0 0 1
    outer loop
      vertex 21.1437 0 2.4
      vertex 19.6859 -1.6331 2.4
      vertex 19.8726 -2.2551 2.4
    endloop
  endfacet
  facet normal 0 0 1
    outer loop
      vertex 21.1437 0 2.4
      vertex 19.3748 -1.12711 2.4
      vertex 19.6859 -1.6331 2.4
    endloop
  endfacet
  facet normal 0 0 1
    outer loop
      vertex 21.1437 0 2.4
      vertex 18.9537 -0.75322 2.4
      vertex 19.3748 -1.12711 2.4
    endloop
  endfacet
  facet normal 0 0 1
    outer loop
      vertex 19.8068 1.239 2.4
      vertex 18.437 -0.528885 2.4
      vertex 18.9537 -0.75322 2.4
    endloop
  endfacet
  facet normal 0 0 1
    outer loop
      vertex 19.8068 1.239 2.4
      vertex 17.8248 -0.454102 2.4
      vertex 18.437 -0.528885 2.4
    endloop
  endfacet
  facet normal 0 0 1
    outer loop
      vertex 14.8788 3.478 2.4
      vertex 17.8248 -0.454102 2.4
      vertex 19.8068 1.239 2.4
    endloop
  endfacet
  facet normal 0 0 1
    outer loop
      vertex 17.8248 -0.454102 2.4
      vertex 14.8788 3.478 2.4
      vertex 17.2084 -0.522766 2.4
    endloop
  endfacet
  facet normal 0 0 1
    outer loop
      vertex 16.2688 -1.0721 2.4
      vertex 14.8788 -0.893096 2.4
      vertex 15.9588 -1.5381 2.4
    endloop
  endfacet
  facet normal -0 0 1
    outer loop
      vertex 14.8788 -0.893096 2.4
      vertex 16.2688 -1.0721 2.4
      vertex 14.8788 0.556992 2.4
    endloop
  endfacet
  facet normal 0 0 1
    outer loop
      vertex 16.6897 -0.728775 2.4
      vertex 14.8788 0.556992 2.4
      vertex 16.2688 -1.0721 2.4
    endloop
  endfacet
  facet normal 0 0 1
    outer loop
      vertex 17.2084 -0.522766 2.4
      vertex 14.8788 0.556992 2.4
      vertex 16.6897 -0.728775 2.4
    endloop
  endfacet
  facet normal 0 0 1
    outer loop
      vertex 17.2084 -0.522766 2.4
      vertex 14.8788 3.478 2.4
      vertex 14.8788 0.556992 2.4
    endloop
  endfacet
  facet normal 0 0 1
    outer loop
      vertex 15.9588 -1.5381 2.4
      vertex 14.8788 -0.893096 2.4
      vertex 15.7728 -2.11343 2.4
    endloop
  endfacet
  facet normal 0 0 1
    outer loop
      vertex 14.8788 -3.5331 2.4
      vertex 15.7728 -2.11343 2.4
      vertex 14.8788 -0.893096 2.4
    endloop
  endfacet
  facet normal 0 0 1
    outer loop
      vertex 15.7728 -2.11343 2.4
      vertex 14.8788 -3.5331 2.4
      vertex 15.7108 -2.79809 2.4
    endloop
  endfacet
  facet normal 0 0 1
    outer loop
      vertex 15.7108 -2.79809 2.4
      vertex 14.8788 -3.5331 2.4
      vertex 15.7138 -2.92654 2.4
    endloop
  endfacet
  facet normal 0 0 1
    outer loop
      vertex 15.7138 -2.92654 2.4
      vertex 14.8788 -3.5331 2.4
      vertex 15.7228 -3.05188 2.4
    endloop
  endfacet
  facet normal 0 0 1
    outer loop
      vertex 15.7228 -3.05188 2.4
      vertex 14.8788 -3.5331 2.4
      vertex 15.7378 -3.1741 2.4
    endloop
  endfacet
  facet normal 0 0 1
    outer loop
      vertex 15.7378 -3.1741 2.4
      vertex 14.8788 -3.5331 2.4
      vertex 15.7583 -3.29399 2.4
    endloop
  endfacet
  facet normal 0 0 1
    outer loop
      vertex 15.7583 -3.29399 2.4
      vertex 14.8788 -3.5331 2.4
      vertex 15.7836 -3.41365 2.4
    endloop
  endfacet
  facet normal 0 0 1
    outer loop
      vertex 15.7836 -3.41365 2.4
      vertex 14.8788 -3.5331 2.4
      vertex 15.8138 -3.5331 2.4
    endloop
  endfacet
  facet normal 0.207911 0.978148 -0
    outer loop
      vertex 3.7304 11.481 2.4
      vertex 1.26185 12.0057 4
      vertex 3.7304 11.481 4
    endloop
  endfacet
  facet normal 0.207911 0.978148 0
    outer loop
      vertex 1.26185 12.0057 0
      vertex 3.7304 11.481 2.4
      vertex 3.7304 11.481 0
    endloop
  endfacet
  facet normal 0.207911 0.978148 0
    outer loop
      vertex 3.7304 11.481 2.4
      vertex 1.26185 12.0057 0
      vertex 1.26185 12.0057 4
    endloop
  endfacet
  facet normal 0.986361 -0.164595 0
    outer loop
      vertex 29.8525 -1.95986 2.4
      vertex 30.1796 0 0
      vertex 30.1796 0 2.4
    endloop
  endfacet
  facet normal 0.986361 -0.164595 0
    outer loop
      vertex 30.1796 0 0
      vertex 29.8525 -1.95986 2.4
      vertex 29.8525 -1.95986 0
    endloop
  endfacet
  facet normal 0.207911 -0.978148 0
    outer loop
      vertex 1.26185 -12.0057 4
      vertex 3.7304 -11.481 2.4
      vertex 3.7304 -11.481 4
    endloop
  endfacet
  facet normal 0.207911 -0.978148 0
    outer loop
      vertex 1.26185 -12.0057 0
      vertex 3.7304 -11.481 2.4
      vertex 1.26185 -12.0057 4
    endloop
  endfacet
  facet normal 0.207911 -0.978148 0
    outer loop
      vertex 3.7304 -11.481 2.4
      vertex 1.26185 -12.0057 0
      vertex 3.7304 -11.481 0
    endloop
  endfacet
  facet normal 0 -1 0
    outer loop
      vertex -1.26185 -12.0057 0
      vertex 1.26185 -12.0057 4
      vertex -1.26185 -12.0057 4
    endloop
  endfacet
  facet normal 0 -1 -0
    outer loop
      vertex 1.26185 -12.0057 4
      vertex -1.26185 -12.0057 0
      vertex 1.26185 -12.0057 0
    endloop
  endfacet
  facet normal 0.677282 0.735724 -0
    outer loop
      vertex 28.9068 3.70734 0
      vertex 27.445 5.05307 2.4
      vertex 28.9068 3.70734 2.4
    endloop
  endfacet
  facet normal 0.677282 0.735724 0
    outer loop
      vertex 27.445 5.05307 2.4
      vertex 28.9068 3.70734 0
      vertex 27.445 5.05307 0
    endloop
  endfacet
  facet normal 0.401695 0.915773 -0
    outer loop
      vertex 27.445 5.05307 0
      vertex 25.6254 5.85122 2.4
      vertex 27.445 5.05307 2.4
    endloop
  endfacet
  facet normal 0.401695 0.915773 0
    outer loop
      vertex 25.6254 5.85122 2.4
      vertex 27.445 5.05307 0
      vertex 25.6254 5.85122 0
    endloop
  endfacet
  facet normal -0.406737 0.913545 0
    outer loop
      vertex -3.7304 11.481 0
      vertex -6.03592 10.4545 4
      vertex -3.7304 11.481 4
    endloop
  endfacet
  facet normal -0.406737 0.913545 0
    outer loop
      vertex -6.03592 10.4545 4
      vertex -3.7304 11.481 0
      vertex -6.03592 10.4545 0
    endloop
  endfacet
  facet normal 0.249026 0.968497 -0
    outer loop
      vertex 25.6254 5.85122 0
      vertex 3.7304 11.481 2.4
      vertex 25.6254 5.85122 2.4
    endloop
  endfacet
  facet normal 0.249026 0.968497 0
    outer loop
      vertex 3.7304 11.481 2.4
      vertex 25.6254 5.85122 0
      vertex 3.7304 11.481 0
    endloop
  endfacet
  facet normal -0.743145 0.66913 0
    outer loop
      vertex -9.76632 7.09564 0
      vertex -8.07763 8.97112 4
      vertex -8.07763 8.97112 0
    endloop
  endfacet
  facet normal -0.743145 0.66913 0
    outer loop
      vertex -8.07763 8.97112 4
      vertex -9.76632 7.09564 0
      vertex -9.76632 7.09564 4
    endloop
  endfacet
  facet normal 0.879474 -0.475947 0
    outer loop
      vertex 28.9068 -3.70734 2.4
      vertex 29.8525 -1.95986 0
      vertex 29.8525 -1.95986 2.4
    endloop
  endfacet
  facet normal 0.879474 -0.475947 0
    outer loop
      vertex 29.8525 -1.95986 0
      vertex 28.9068 -3.70734 2.4
      vertex 28.9068 -3.70734 0
    endloop
  endfacet
  facet normal -0.587785 -0.809017 0
    outer loop
      vertex -8.07763 -8.97112 0
      vertex -6.03592 -10.4545 4
      vertex -8.07763 -8.97112 4
    endloop
  endfacet
  facet normal -0.587785 -0.809017 -0
    outer loop
      vertex -6.03592 -10.4545 4
      vertex -8.07763 -8.97112 0
      vertex -6.03592 -10.4545 0
    endloop
  endfacet
  facet normal 0.249026 -0.968497 0
    outer loop
      vertex 3.7304 -11.481 0
      vertex 25.6254 -5.85122 2.4
      vertex 3.7304 -11.481 2.4
    endloop
  endfacet
  facet normal 0.249026 -0.968497 0
    outer loop
      vertex 25.6254 -5.85122 2.4
      vertex 3.7304 -11.481 0
      vertex 25.6254 -5.85122 0
    endloop
  endfacet
  facet normal -0.587785 0.809017 0
    outer loop
      vertex -6.03592 10.4545 0
      vertex -8.07763 8.97112 4
      vertex -6.03592 10.4545 4
    endloop
  endfacet
  facet normal -0.587785 0.809017 0
    outer loop
      vertex -8.07763 8.97112 4
      vertex -6.03592 10.4545 0
      vertex -8.07763 8.97112 0
    endloop
  endfacet
  facet normal -0.207911 0.978148 0
    outer loop
      vertex -1.26185 12.0057 0
      vertex -3.7304 11.481 4
      vertex -1.26185 12.0057 4
    endloop
  endfacet
  facet normal -0.207911 0.978148 0
    outer loop
      vertex -3.7304 11.481 4
      vertex -1.26185 12.0057 0
      vertex -3.7304 11.481 0
    endloop
  endfacet
  facet normal 0 1 -0
    outer loop
      vertex 1.26185 12.0057 0
      vertex -1.26185 12.0057 4
      vertex 1.26185 12.0057 4
    endloop
  endfacet
  facet normal 0 1 0
    outer loop
      vertex -1.26185 12.0057 4
      vertex 1.26185 12.0057 0
      vertex -1.26185 12.0057 0
    endloop
  endfacet
  facet normal 0.677282 -0.735724 0
    outer loop
      vertex 27.445 -5.05307 0
      vertex 28.9068 -3.70734 2.4
      vertex 27.445 -5.05307 2.4
    endloop
  endfacet
  facet normal 0.677282 -0.735724 0
    outer loop
      vertex 28.9068 -3.70734 2.4
      vertex 27.445 -5.05307 0
      vertex 28.9068 -3.70734 0
    endloop
  endfacet
  facet normal 0.401695 -0.915773 0
    outer loop
      vertex 25.6254 -5.85122 0
      vertex 27.445 -5.05307 2.4
      vertex 25.6254 -5.85122 2.4
    endloop
  endfacet
  facet normal 0.401695 -0.915773 0
    outer loop
      vertex 27.445 -5.05307 2.4
      vertex 25.6254 -5.85122 0
      vertex 27.445 -5.05307 0
    endloop
  endfacet
  facet normal -0.207911 -0.978148 0
    outer loop
      vertex -3.7304 -11.481 0
      vertex -1.26185 -12.0057 4
      vertex -3.7304 -11.481 4
    endloop
  endfacet
  facet normal -0.207911 -0.978148 -0
    outer loop
      vertex -1.26185 -12.0057 4
      vertex -3.7304 -11.481 0
      vertex -1.26185 -12.0057 0
    endloop
  endfacet
  facet normal -0.951057 -0.309017 0
    outer loop
      vertex -11.0282 -4.91006 0
      vertex -11.808 -2.50987 4
      vertex -11.808 -2.50987 0
    endloop
  endfacet
  facet normal -0.951057 -0.309017 0
    outer loop
      vertex -11.808 -2.50987 4
      vertex -11.0282 -4.91006 0
      vertex -11.0282 -4.91006 4
    endloop
  endfacet
  facet normal 0.879474 0.475947 0
    outer loop
      vertex 29.8525 1.95986 2.4
      vertex 28.9068 3.70734 0
      vertex 28.9068 3.70734 2.4
    endloop
  endfacet
  facet normal 0.879474 0.475947 0
    outer loop
      vertex 28.9068 3.70734 0
      vertex 29.8525 1.95986 2.4
      vertex 29.8525 1.95986 0
    endloop
  endfacet
  facet normal 0.986361 0.164595 0
    outer loop
      vertex 30.1796 0 2.4
      vertex 29.8525 1.95986 0
      vertex 29.8525 1.95986 2.4
    endloop
  endfacet
  facet normal 0.986361 0.164595 0
    outer loop
      vertex 29.8525 1.95986 0
      vertex 30.1796 0 2.4
      vertex 30.1796 0 0
    endloop
  endfacet
  facet normal -0.866025 -0.5 0
    outer loop
      vertex -9.76632 -7.09564 0
      vertex -11.0282 -4.91006 4
      vertex -11.0282 -4.91006 0
    endloop
  endfacet
  facet normal -0.866025 -0.5 0
    outer loop
      vertex -11.0282 -4.91006 4
      vertex -9.76632 -7.09564 0
      vertex -9.76632 -7.09564 4
    endloop
  endfacet
  facet normal -0.743145 -0.66913 0
    outer loop
      vertex -8.07763 -8.97112 0
      vertex -9.76632 -7.09564 4
      vertex -9.76632 -7.09564 0
    endloop
  endfacet
  facet normal -0.743145 -0.66913 0
    outer loop
      vertex -9.76632 -7.09564 4
      vertex -8.07763 -8.97112 0
      vertex -8.07763 -8.97112 4
    endloop
  endfacet
  facet normal -0.406737 -0.913545 0
    outer loop
      vertex -6.03592 -10.4545 0
      vertex -3.7304 -11.481 4
      vertex -6.03592 -10.4545 4
    endloop
  endfacet
  facet normal -0.406737 -0.913545 -0
    outer loop
      vertex -3.7304 -11.481 4
      vertex -6.03592 -10.4545 0
      vertex -3.7304 -11.481 0
    endloop
  endfacet
  facet normal 0.994522 -0.104529 0
    outer loop
      vertex 11.808 -2.50987 4
      vertex 12.0718 0 2.4
      vertex 12.0718 0 4
    endloop
  endfacet
  facet normal 0.994522 -0.104529 0
    outer loop
      vertex 12.0718 0 2.4
      vertex 11.808 -2.50987 4
      vertex 11.808 -2.50987 2.4
    endloop
  endfacet
  facet normal 0.994522 0.104529 0
    outer loop
      vertex 12.0718 0 4
      vertex 11.808 2.50987 2.4
      vertex 11.808 2.50987 4
    endloop
  endfacet
  facet normal 0.994522 0.104529 0
    outer loop
      vertex 11.808 2.50987 2.4
      vertex 12.0718 0 4
      vertex 12.0718 0 2.4
    endloop
  endfacet
  facet normal 0 0 1
    outer loop
      vertex 9.07183 0 4
      vertex 12.0718 0 4
      vertex 11.808 2.50987 4
    endloop
  endfacet
  facet normal 0 0 1
    outer loop
      vertex 8.85974 1.95018 4
      vertex 11.808 2.50987 4
      vertex 11.0282 4.91006 4
    endloop
  endfacet
  facet normal 0 0 1
    outer loop
      vertex 12.0718 0 4
      vertex 9.07183 0 4
      vertex 11.808 -2.50987 4
    endloop
  endfacet
  facet normal 0 0 1
    outer loop
      vertex 8.23337 3.80916 4
      vertex 11.0282 4.91006 4
      vertex 9.76632 7.09564 4
    endloop
  endfacet
  facet normal -0 0 1
    outer loop
      vertex 8.85974 -1.95018 4
      vertex 11.808 -2.50987 4
      vertex 9.07183 0 4
    endloop
  endfacet
  facet normal 0 0 1
    outer loop
      vertex 11.808 -2.50987 4
      vertex 8.85974 -1.95018 4
      vertex 11.0282 -4.91006 4
    endloop
  endfacet
  facet normal 0 0 1
    outer loop
      vertex 11.808 2.50987 4
      vertex 8.85974 1.95018 4
      vertex 9.07183 0 4
    endloop
  endfacet
  facet normal 0 0 1
    outer loop
      vertex 11.0282 4.91006 4
      vertex 8.23337 3.80916 4
      vertex 8.85974 1.95018 4
    endloop
  endfacet
  facet normal 0 0 1
    outer loop
      vertex 7.22202 5.49004 4
      vertex 9.76632 7.09564 4
      vertex 8.07763 8.97112 4
    endloop
  endfacet
  facet normal 0 0 1
    outer loop
      vertex 9.76632 7.09564 4
      vertex 7.22202 5.49004 4
      vertex 8.23337 3.80916 4
    endloop
  endfacet
  facet normal 0 0 1
    outer loop
      vertex 5.87298 6.91421 4
      vertex 8.07763 8.97112 4
      vertex 6.03592 10.4545 4
    endloop
  endfacet
  facet normal 0 0 1
    outer loop
      vertex 8.07763 8.97112 4
      vertex 5.87298 6.91421 4
      vertex 7.22202 5.49004 4
    endloop
  endfacet
  facet normal 0 0 1
    outer loop
      vertex 6.03592 10.4545 4
      vertex 4.24932 8.01507 4
      vertex 5.87298 6.91421 4
    endloop
  endfacet
  facet normal 0 0 1
    outer loop
      vertex 3.7304 11.481 4
      vertex 4.24932 8.01507 4
      vertex 6.03592 10.4545 4
    endloop
  endfacet
  facet normal 0 0 1
    outer loop
      vertex 3.7304 11.481 4
      vertex 2.42697 8.74116 4
      vertex 4.24932 8.01507 4
    endloop
  endfacet
  facet normal 0 0 1
    outer loop
      vertex 1.26185 12.0057 4
      vertex 2.42697 8.74116 4
      vertex 3.7304 11.481 4
    endloop
  endfacet
  facet normal 0 0 1
    outer loop
      vertex 1.26185 12.0057 4
      vertex 0.491138 9.05853 4
      vertex 2.42697 8.74116 4
    endloop
  endfacet
  facet normal -0 0 1
    outer loop
      vertex -1.26185 12.0057 4
      vertex 0.491138 9.05853 4
      vertex 1.26185 12.0057 4
    endloop
  endfacet
  facet normal 0 0 1
    outer loop
      vertex -1.26185 12.0057 4
      vertex -1.46766 8.95232 4
      vertex 0.491138 9.05853 4
    endloop
  endfacet
  facet normal -0 0 1
    outer loop
      vertex -3.7304 11.481 4
      vertex -1.46766 8.95232 4
      vertex -1.26185 12.0057 4
    endloop
  endfacet
  facet normal 0 0 1
    outer loop
      vertex -1.46766 8.95232 4
      vertex -3.7304 11.481 4
      vertex -3.35783 8.42752 4
    endloop
  endfacet
  facet normal -0 0 1
    outer loop
      vertex -6.03592 10.4545 4
      vertex -3.35783 8.42752 4
      vertex -3.7304 11.481 4
    endloop
  endfacet
  facet normal 0 0 1
    outer loop
      vertex -3.35783 8.42752 4
      vertex -6.03592 10.4545 4
      vertex -5.09099 7.50865 4
    endloop
  endfacet
  facet normal -0 0 1
    outer loop
      vertex -8.07763 8.97112 4
      vertex -5.09099 7.50865 4
      vertex -6.03592 10.4545 4
    endloop
  endfacet
  facet normal 0 0 1
    outer loop
      vertex -5.09099 7.50865 4
      vertex -8.07763 8.97112 4
      vertex -6.58611 6.23869 4
    endloop
  endfacet
  facet normal -0 0 1
    outer loop
      vertex -9.76632 7.09564 4
      vertex -6.58611 6.23869 4
      vertex -8.07763 8.97112 4
    endloop
  endfacet
  facet normal 0 0 1
    outer loop
      vertex -6.58611 6.23869 4
      vertex -9.76632 7.09564 4
      vertex -7.77326 4.67702 4
    endloop
  endfacet
  facet normal -0 0 1
    outer loop
      vertex -11.0282 4.91006 4
      vertex -7.77326 4.67702 4
      vertex -9.76632 7.09564 4
    endloop
  endfacet
  facet normal 0 0 1
    outer loop
      vertex -11.808 2.50987 4
      vertex -8.59695 2.89665 4
      vertex -11.0282 4.91006 4
    endloop
  endfacet
  facet normal 0 0 1
    outer loop
      vertex -7.77326 4.67702 4
      vertex -11.0282 4.91006 4
      vertex -8.59695 2.89665 4
    endloop
  endfacet
  facet normal -0 0 1
    outer loop
      vertex 8.23337 -3.80916 4
      vertex 11.0282 -4.91006 4
      vertex 8.85974 -1.95018 4
    endloop
  endfacet
  facet normal 0 0 1
    outer loop
      vertex 11.0282 -4.91006 4
      vertex 8.23337 -3.80916 4
      vertex 9.76632 -7.09564 4
    endloop
  endfacet
  facet normal -0 0 1
    outer loop
      vertex 7.22202 -5.49004 4
      vertex 9.76632 -7.09564 4
      vertex 8.23337 -3.80916 4
    endloop
  endfacet
  facet normal 0 0 1
    outer loop
      vertex 9.76632 -7.09564 4
      vertex 7.22202 -5.49004 4
      vertex 8.07763 -8.97112 4
    endloop
  endfacet
  facet normal -0 0 1
    outer loop
      vertex 5.87298 -6.91421 4
      vertex 8.07763 -8.97112 4
      vertex 7.22202 -5.49004 4
    endloop
  endfacet
  facet normal 0 0 1
    outer loop
      vertex 8.07763 -8.97112 4
      vertex 5.87298 -6.91421 4
      vertex 6.03592 -10.4545 4
    endloop
  endfacet
  facet normal -0 0 1
    outer loop
      vertex 4.24932 -8.01507 4
      vertex 6.03592 -10.4545 4
      vertex 5.87298 -6.91421 4
    endloop
  endfacet
  facet normal 0 0 1
    outer loop
      vertex 4.24932 -8.01507 4
      vertex 3.7304 -11.481 4
      vertex 6.03592 -10.4545 4
    endloop
  endfacet
  facet normal -0 0 1
    outer loop
      vertex 2.42697 -8.74116 4
      vertex 3.7304 -11.481 4
      vertex 4.24932 -8.01507 4
    endloop
  endfacet
  facet normal 0 0 1
    outer loop
      vertex 2.42697 -8.74116 4
      vertex 1.26185 -12.0057 4
      vertex 3.7304 -11.481 4
    endloop
  endfacet
  facet normal -0 0 1
    outer loop
      vertex 0.491138 -9.05853 4
      vertex 1.26185 -12.0057 4
      vertex 2.42697 -8.74116 4
    endloop
  endfacet
  facet normal 0 0 1
    outer loop
      vertex 0.491138 -9.05853 4
      vertex -1.26185 -12.0057 4
      vertex 1.26185 -12.0057 4
    endloop
  endfacet
  facet normal 0 0 1
    outer loop
      vertex -1.46766 -8.95232 4
      vertex -1.26185 -12.0057 4
      vertex 0.491138 -9.05853 4
    endloop
  endfacet
  facet normal 0 0 1
    outer loop
      vertex -3.7304 -11.481 4
      vertex -1.46766 -8.95232 4
      vertex -3.35783 -8.42752 4
    endloop
  endfacet
  facet normal 0 0 1
    outer loop
      vertex -1.46766 -8.95232 4
      vertex -3.7304 -11.481 4
      vertex -1.26185 -12.0057 4
    endloop
  endfacet
  facet normal 0 0 1
    outer loop
      vertex -6.03592 -10.4545 4
      vertex -3.35783 -8.42752 4
      vertex -5.09099 -7.50865 4
    endloop
  endfacet
  facet normal 0 0 1
    outer loop
      vertex -3.35783 -8.42752 4
      vertex -6.03592 -10.4545 4
      vertex -3.7304 -11.481 4
    endloop
  endfacet
  facet normal 0 0 1
    outer loop
      vertex -8.07763 -8.97112 4
      vertex -5.09099 -7.50865 4
      vertex -6.58611 -6.23869 4
    endloop
  endfacet
  facet normal 0 0 1
    outer loop
      vertex -9.76632 -7.09564 4
      vertex -6.58611 -6.23869 4
      vertex -7.77326 -4.67702 4
    endloop
  endfacet
  facet normal 0 0 1
    outer loop
      vertex -5.09099 -7.50865 4
      vertex -8.07763 -8.97112 4
      vertex -6.03592 -10.4545 4
    endloop
  endfacet
  facet normal 0 0 1
    outer loop
      vertex -11.0282 -4.91006 4
      vertex -7.77326 -4.67702 4
      vertex -8.59695 -2.89665 4
    endloop
  endfacet
  facet normal -0 0 1
    outer loop
      vertex -11.808 -2.50987 4
      vertex -8.59695 -2.89665 4
      vertex -9.01865 -0.980837 4
    endloop
  endfacet
  facet normal 0 0 1
    outer loop
      vertex -6.58611 -6.23869 4
      vertex -9.76632 -7.09564 4
      vertex -8.07763 -8.97112 4
    endloop
  endfacet
  facet normal 0 0 1
    outer loop
      vertex -8.59695 2.89665 4
      vertex -11.808 2.50987 4
      vertex -9.01865 0.980837 4
    endloop
  endfacet
  facet normal 0 0 1
    outer loop
      vertex -12.0718 0 4
      vertex -9.01865 0.980837 4
      vertex -11.808 2.50987 4
    endloop
  endfacet
  facet normal 0 0 1
    outer loop
      vertex -7.77326 -4.67702 4
      vertex -11.0282 -4.91006 4
      vertex -9.76632 -7.09564 4
    endloop
  endfacet
  facet normal 0 0 1
    outer loop
      vertex -9.01865 0.980837 4
      vertex -12.0718 0 4
      vertex -9.01865 -0.980837 4
    endloop
  endfacet
  facet normal 0 0 1
    outer loop
      vertex -8.59695 -2.89665 4
      vertex -11.808 -2.50987 4
      vertex -11.0282 -4.91006 4
    endloop
  endfacet
  facet normal 0 0 1
    outer loop
      vertex -9.01865 -0.980837 4
      vertex -12.0718 0 4
      vertex -11.808 -2.50987 4
    endloop
  endfacet
  facet normal 0.406737 -0.913545 0
    outer loop
      vertex 3.7304 -11.481 2.4
      vertex 6.03592 -10.4545 4
      vertex 3.7304 -11.481 4
    endloop
  endfacet
  facet normal 0.406737 -0.913545 0
    outer loop
      vertex 6.03592 -10.4545 4
      vertex 3.7304 -11.481 2.4
      vertex 6.03592 -10.4545 2.4
    endloop
  endfacet
  facet normal 0.743145 -0.66913 0
    outer loop
      vertex 8.07763 -8.97112 4
      vertex 9.76632 -7.09564 2.4
      vertex 9.76632 -7.09564 4
    endloop
  endfacet
  facet normal 0.743145 -0.66913 0
    outer loop
      vertex 9.76632 -7.09564 2.4
      vertex 8.07763 -8.97112 4
      vertex 8.07763 -8.97112 2.4
    endloop
  endfacet
  facet normal 0.866025 -0.5 0
    outer loop
      vertex 9.76632 -7.09564 4
      vertex 11.0282 -4.91006 2.4
      vertex 11.0282 -4.91006 4
    endloop
  endfacet
  facet normal 0.866025 -0.5 0
    outer loop
      vertex 11.0282 -4.91006 2.4
      vertex 9.76632 -7.09564 4
      vertex 9.76632 -7.09564 2.4
    endloop
  endfacet
  facet normal 0.951057 -0.309017 0
    outer loop
      vertex 11.0282 -4.91006 4
      vertex 11.808 -2.50987 2.4
      vertex 11.808 -2.50987 4
    endloop
  endfacet
  facet normal 0.951057 -0.309017 0
    outer loop
      vertex 11.808 -2.50987 2.4
      vertex 11.0282 -4.91006 4
      vertex 11.0282 -4.91006 2.4
    endloop
  endfacet
  facet normal 0.743145 0.66913 0
    outer loop
      vertex 9.76632 7.09564 4
      vertex 8.07763 8.97112 2.4
      vertex 8.07763 8.97112 4
    endloop
  endfacet
  facet normal 0.743145 0.66913 0
    outer loop
      vertex 8.07763 8.97112 2.4
      vertex 9.76632 7.09564 4
      vertex 9.76632 7.09564 2.4
    endloop
  endfacet
  facet normal 0.587785 -0.809017 0
    outer loop
      vertex 6.03592 -10.4545 2.4
      vertex 8.07763 -8.97112 4
      vertex 6.03592 -10.4545 4
    endloop
  endfacet
  facet normal 0.587785 -0.809017 0
    outer loop
      vertex 8.07763 -8.97112 4
      vertex 6.03592 -10.4545 2.4
      vertex 8.07763 -8.97112 2.4
    endloop
  endfacet
  facet normal 0.587785 0.809017 -0
    outer loop
      vertex 8.07763 8.97112 2.4
      vertex 6.03592 10.4545 4
      vertex 8.07763 8.97112 4
    endloop
  endfacet
  facet normal 0.587785 0.809017 0
    outer loop
      vertex 6.03592 10.4545 4
      vertex 8.07763 8.97112 2.4
      vertex 6.03592 10.4545 2.4
    endloop
  endfacet
  facet normal 0.406737 0.913545 -0
    outer loop
      vertex 6.03592 10.4545 2.4
      vertex 3.7304 11.481 4
      vertex 6.03592 10.4545 4
    endloop
  endfacet
  facet normal 0.406737 0.913545 0
    outer loop
      vertex 3.7304 11.481 4
      vertex 6.03592 10.4545 2.4
      vertex 3.7304 11.481 2.4
    endloop
  endfacet
  facet normal 0.951057 0.309017 0
    outer loop
      vertex 11.808 2.50987 4
      vertex 11.0282 4.91006 2.4
      vertex 11.0282 4.91006 4
    endloop
  endfacet
  facet normal 0.951057 0.309017 0
    outer loop
      vertex 11.0282 4.91006 2.4
      vertex 11.808 2.50987 4
      vertex 11.808 2.50987 2.4
    endloop
  endfacet
  facet normal 0.866025 0.5 0
    outer loop
      vertex 11.0282 4.91006 4
      vertex 9.76632 7.09564 2.4
      vertex 9.76632 7.09564 4
    endloop
  endfacet
  facet normal 0.866025 0.5 0
    outer loop
      vertex 9.76632 7.09564 2.4
      vertex 11.0282 4.91006 4
      vertex 11.0282 4.91006 2.4
    endloop
  endfacet
  facet normal 1 -0 0
    outer loop
      vertex -9.01865 -0.980837 4
      vertex -9.01865 0.980837 0
      vertex -9.01865 0.980837 4
    endloop
  endfacet
  facet normal 1 0 0
    outer loop
      vertex -9.01865 0.980837 0
      vertex -9.01865 -0.980837 4
      vertex -9.01865 -0.980837 0
    endloop
  endfacet
  facet normal -0.561187 -0.827689 0
    outer loop
      vertex 4.24932 8.01507 0
      vertex 5.87298 6.91421 4
      vertex 4.24932 8.01507 4
    endloop
  endfacet
  facet normal -0.561187 -0.827689 -0
    outer loop
      vertex 5.87298 6.91421 4
      vertex 4.24932 8.01507 0
      vertex 5.87298 6.91421 0
    endloop
  endfacet
  facet normal -0.994138 0.108119 0
    outer loop
      vertex 8.85974 -1.95018 0
      vertex 9.07183 0 4
      vertex 9.07183 0 0
    endloop
  endfacet
  facet normal -0.994138 0.108119 0
    outer loop
      vertex 9.07183 0 4
      vertex 8.85974 -1.95018 0
      vertex 8.85974 -1.95018 4
    endloop
  endfacet
  facet normal 0.267529 0.96355 -0
    outer loop
      vertex -1.46766 -8.95232 0
      vertex -3.35783 -8.42752 4
      vertex -1.46766 -8.95232 4
    endloop
  endfacet
  facet normal 0.267529 0.96355 0
    outer loop
      vertex -3.35783 -8.42752 4
      vertex -1.46766 -8.95232 0
      vertex -3.35783 -8.42752 0
    endloop
  endfacet
  facet normal -0.947653 -0.319301 0
    outer loop
      vertex 8.85974 1.95018 0
      vertex 8.23337 3.80916 4
      vertex 8.23337 3.80916 0
    endloop
  endfacet
  facet normal -0.947653 -0.319301 0
    outer loop
      vertex 8.23337 3.80916 4
      vertex 8.85974 1.95018 0
      vertex 8.85974 1.95018 4
    endloop
  endfacet
  facet normal 0.468409 -0.883512 0
    outer loop
      vertex -5.09099 7.50865 0
      vertex -3.35783 8.42752 4
      vertex -5.09099 7.50865 4
    endloop
  endfacet
  facet normal 0.468409 -0.883512 0
    outer loop
      vertex -3.35783 8.42752 4
      vertex -5.09099 7.50865 0
      vertex -3.35783 8.42752 0
    endloop
  endfacet
  facet normal 0.976621 -0.214971 0
    outer loop
      vertex -9.01865 0.980837 4
      vertex -8.59695 2.89665 0
      vertex -8.59695 2.89665 4
    endloop
  endfacet
  facet normal 0.976621 -0.214971 0
    outer loop
      vertex -8.59695 2.89665 0
      vertex -9.01865 0.980837 4
      vertex -9.01865 0.980837 0
    endloop
  endfacet
  facet normal -0.856857 -0.515554 0
    outer loop
      vertex 8.23337 3.80916 0
      vertex 7.22202 5.49004 4
      vertex 7.22202 5.49004 0
    endloop
  endfacet
  facet normal -0.856857 -0.515554 0
    outer loop
      vertex 7.22202 5.49004 4
      vertex 8.23337 3.80916 0
      vertex 8.23337 3.80916 4
    endloop
  endfacet
  facet normal -0.725996 -0.687699 0
    outer loop
      vertex 7.22202 5.49004 0
      vertex 5.87298 6.91421 4
      vertex 5.87298 6.91421 0
    endloop
  endfacet
  facet normal -0.725996 -0.687699 0
    outer loop
      vertex 5.87298 6.91421 4
      vertex 7.22202 5.49004 0
      vertex 7.22202 5.49004 4
    endloop
  endfacet
  facet normal -0.370138 -0.928977 0
    outer loop
      vertex 2.42697 8.74116 0
      vertex 4.24932 8.01507 4
      vertex 2.42697 8.74116 4
    endloop
  endfacet
  facet normal -0.370138 -0.928977 -0
    outer loop
      vertex 4.24932 8.01507 4
      vertex 2.42697 8.74116 0
      vertex 4.24932 8.01507 0
    endloop
  endfacet
  facet normal 0.054139 -0.998533 0
    outer loop
      vertex -1.46766 8.95232 0
      vertex 0.491138 9.05853 4
      vertex -1.46766 8.95232 4
    endloop
  endfacet
  facet normal 0.054139 -0.998533 0
    outer loop
      vertex 0.491138 9.05853 4
      vertex -1.46766 8.95232 0
      vertex 0.491138 9.05853 0
    endloop
  endfacet
  facet normal 0.907575 -0.419889 0
    outer loop
      vertex -8.59695 2.89665 4
      vertex -7.77326 4.67702 0
      vertex -7.77326 4.67702 4
    endloop
  endfacet
  facet normal 0.907575 -0.419889 0
    outer loop
      vertex -7.77326 4.67702 0
      vertex -8.59695 2.89665 4
      vertex -8.59695 2.89665 0
    endloop
  endfacet
  facet normal 0.647386 -0.762162 0
    outer loop
      vertex -6.58611 6.23869 0
      vertex -5.09099 7.50865 4
      vertex -6.58611 6.23869 4
    endloop
  endfacet
  facet normal 0.647386 -0.762162 0
    outer loop
      vertex -5.09099 7.50865 4
      vertex -6.58611 6.23869 0
      vertex -5.09099 7.50865 0
    endloop
  endfacet
  facet normal 0.267529 -0.96355 0
    outer loop
      vertex -3.35783 8.42752 0
      vertex -1.46766 8.95232 4
      vertex -3.35783 8.42752 4
    endloop
  endfacet
  facet normal 0.267529 -0.96355 0
    outer loop
      vertex -1.46766 8.95232 4
      vertex -3.35783 8.42752 0
      vertex -1.46766 8.95232 0
    endloop
  endfacet
  facet normal 0.796093 -0.605174 0
    outer loop
      vertex -7.77326 4.67702 4
      vertex -6.58611 6.23869 0
      vertex -6.58611 6.23869 4
    endloop
  endfacet
  facet normal 0.796093 -0.605174 0
    outer loop
      vertex -6.58611 6.23869 0
      vertex -7.77326 4.67702 4
      vertex -7.77326 4.67702 0
    endloop
  endfacet
  facet normal -0.994138 -0.108119 0
    outer loop
      vertex 9.07183 0 0
      vertex 8.85974 1.95018 4
      vertex 8.85974 1.95018 0
    endloop
  endfacet
  facet normal -0.994138 -0.108119 0
    outer loop
      vertex 8.85974 1.95018 4
      vertex 9.07183 0 0
      vertex 9.07183 0 4
    endloop
  endfacet
  facet normal -0.161782 0.986827 0
    outer loop
      vertex 2.42697 -8.74116 0
      vertex 0.491138 -9.05853 4
      vertex 2.42697 -8.74116 4
    endloop
  endfacet
  facet normal -0.161782 0.986827 0
    outer loop
      vertex 0.491138 -9.05853 4
      vertex 2.42697 -8.74116 0
      vertex 0.491138 -9.05853 0
    endloop
  endfacet
  facet normal -0.856857 0.515554 0
    outer loop
      vertex 7.22202 -5.49004 0
      vertex 8.23337 -3.80916 4
      vertex 8.23337 -3.80916 0
    endloop
  endfacet
  facet normal -0.856857 0.515554 0
    outer loop
      vertex 8.23337 -3.80916 4
      vertex 7.22202 -5.49004 0
      vertex 7.22202 -5.49004 4
    endloop
  endfacet
  facet normal -0.947653 0.319301 0
    outer loop
      vertex 8.23337 -3.80916 0
      vertex 8.85974 -1.95018 4
      vertex 8.85974 -1.95018 0
    endloop
  endfacet
  facet normal -0.947653 0.319301 0
    outer loop
      vertex 8.85974 -1.95018 4
      vertex 8.23337 -3.80916 0
      vertex 8.23337 -3.80916 4
    endloop
  endfacet
  facet normal -0.370138 0.928977 0
    outer loop
      vertex 4.24932 -8.01507 0
      vertex 2.42697 -8.74116 4
      vertex 4.24932 -8.01507 4
    endloop
  endfacet
  facet normal -0.370138 0.928977 0
    outer loop
      vertex 2.42697 -8.74116 4
      vertex 4.24932 -8.01507 0
      vertex 2.42697 -8.74116 0
    endloop
  endfacet
  facet normal -0.561187 0.827689 0
    outer loop
      vertex 5.87298 -6.91421 0
      vertex 4.24932 -8.01507 4
      vertex 5.87298 -6.91421 4
    endloop
  endfacet
  facet normal -0.561187 0.827689 0
    outer loop
      vertex 4.24932 -8.01507 4
      vertex 5.87298 -6.91421 0
      vertex 4.24932 -8.01507 0
    endloop
  endfacet
  facet normal 0.054139 0.998533 -0
    outer loop
      vertex 0.491138 -9.05853 0
      vertex -1.46766 -8.95232 4
      vertex 0.491138 -9.05853 4
    endloop
  endfacet
  facet normal 0.054139 0.998533 0
    outer loop
      vertex -1.46766 -8.95232 4
      vertex 0.491138 -9.05853 0
      vertex -1.46766 -8.95232 0
    endloop
  endfacet
  facet normal 0.647386 0.762162 -0
    outer loop
      vertex -5.09099 -7.50865 0
      vertex -6.58611 -6.23869 4
      vertex -5.09099 -7.50865 4
    endloop
  endfacet
  facet normal 0.647386 0.762162 0
    outer loop
      vertex -6.58611 -6.23869 4
      vertex -5.09099 -7.50865 0
      vertex -6.58611 -6.23869 0
    endloop
  endfacet
  facet normal 0.907575 0.419889 0
    outer loop
      vertex -7.77326 -4.67702 4
      vertex -8.59695 -2.89665 0
      vertex -8.59695 -2.89665 4
    endloop
  endfacet
  facet normal 0.907575 0.419889 0
    outer loop
      vertex -8.59695 -2.89665 0
      vertex -7.77326 -4.67702 4
      vertex -7.77326 -4.67702 0
    endloop
  endfacet
  facet normal 0.796093 0.605174 0
    outer loop
      vertex -6.58611 -6.23869 4
      vertex -7.77326 -4.67702 0
      vertex -7.77326 -4.67702 4
    endloop
  endfacet
  facet normal 0.796093 0.605174 0
    outer loop
      vertex -7.77326 -4.67702 0
      vertex -6.58611 -6.23869 4
      vertex -6.58611 -6.23869 0
    endloop
  endfacet
  facet normal 0.976621 0.214971 0
    outer loop
      vertex -8.59695 -2.89665 4
      vertex -9.01865 -0.980837 0
      vertex -9.01865 -0.980837 4
    endloop
  endfacet
  facet normal 0.976621 0.214971 0
    outer loop
      vertex -9.01865 -0.980837 0
      vertex -8.59695 -2.89665 4
      vertex -8.59695 -2.89665 0
    endloop
  endfacet
  facet normal -0.161782 -0.986827 0
    outer loop
      vertex 0.491138 9.05853 0
      vertex 2.42697 8.74116 4
      vertex 0.491138 9.05853 4
    endloop
  endfacet
  facet normal -0.161782 -0.986827 -0
    outer loop
      vertex 2.42697 8.74116 4
      vertex 0.491138 9.05853 0
      vertex 2.42697 8.74116 0
    endloop
  endfacet
  facet normal -0.725996 0.687699 0
    outer loop
      vertex 5.87298 -6.91421 0
      vertex 7.22202 -5.49004 4
      vertex 7.22202 -5.49004 0
    endloop
  endfacet
  facet normal -0.725996 0.687699 0
    outer loop
      vertex 7.22202 -5.49004 4
      vertex 5.87298 -6.91421 0
      vertex 5.87298 -6.91421 4
    endloop
  endfacet
  facet normal 0.468409 0.883512 -0
    outer loop
      vertex -3.35783 -8.42752 0
      vertex -5.09099 -7.50865 4
      vertex -3.35783 -8.42752 4
    endloop
  endfacet
  facet normal 0.468409 0.883512 0
    outer loop
      vertex -5.09099 -7.50865 4
      vertex -3.35783 -8.42752 0
      vertex -5.09099 -7.50865 0
    endloop
  endfacet
  facet normal -0.951056 -0.309018 0
    outer loop
      vertex 27.1437 0 0
      vertex 26.5707 1.76336 2.4
      vertex 26.5707 1.76336 0
    endloop
  endfacet
  facet normal -0.951056 -0.309018 0
    outer loop
      vertex 26.5707 1.76336 2.4
      vertex 27.1437 0 0
      vertex 27.1437 0 2.4
    endloop
  endfacet
  facet normal 0 -1 0
    outer loop
      vertex 23.2166 2.85317 0
      vertex 25.0707 2.85317 2.4
      vertex 23.2166 2.85317 2.4
    endloop
  endfacet
  facet normal 0 -1 -0
    outer loop
      vertex 25.0707 2.85317 2.4
      vertex 23.2166 2.85317 0
      vertex 25.0707 2.85317 0
    endloop
  endfacet
  facet normal -0.587785 -0.809017 0
    outer loop
      vertex 25.0707 2.85317 0
      vertex 26.5707 1.76336 2.4
      vertex 25.0707 2.85317 2.4
    endloop
  endfacet
  facet normal -0.587785 -0.809017 -0
    outer loop
      vertex 26.5707 1.76336 2.4
      vertex 25.0707 2.85317 0
      vertex 26.5707 1.76336 0
    endloop
  endfacet
  facet normal 0.951057 0.309017 0
    outer loop
      vertex 21.7166 -1.76336 2.4
      vertex 21.1437 0 0
      vertex 21.1437 0 2.4
    endloop
  endfacet
  facet normal 0.951057 0.309017 0
    outer loop
      vertex 21.1437 0 0
      vertex 21.7166 -1.76336 2.4
      vertex 21.7166 -1.76336 0
    endloop
  endfacet
  facet normal 0.587785 -0.809017 0
    outer loop
      vertex 21.7166 1.76336 0
      vertex 23.2166 2.85317 2.4
      vertex 21.7166 1.76336 2.4
    endloop
  endfacet
  facet normal 0.587785 -0.809017 0
    outer loop
      vertex 23.2166 2.85317 2.4
      vertex 21.7166 1.76336 0
      vertex 23.2166 2.85317 0
    endloop
  endfacet
  facet normal -0.951056 0.309018 0
    outer loop
      vertex 26.5707 -1.76336 0
      vertex 27.1437 0 2.4
      vertex 27.1437 0 0
    endloop
  endfacet
  facet normal -0.951056 0.309018 0
    outer loop
      vertex 27.1437 0 2.4
      vertex 26.5707 -1.76336 0
      vertex 26.5707 -1.76336 2.4
    endloop
  endfacet
  facet normal -0.587785 0.809017 0
    outer loop
      vertex 26.5707 -1.76336 0
      vertex 25.0707 -2.85317 2.4
      vertex 26.5707 -1.76336 2.4
    endloop
  endfacet
  facet normal -0.587785 0.809017 0
    outer loop
      vertex 25.0707 -2.85317 2.4
      vertex 26.5707 -1.76336 0
      vertex 25.0707 -2.85317 0
    endloop
  endfacet
  facet normal 0.587785 0.809017 -0
    outer loop
      vertex 23.2166 -2.85317 0
      vertex 21.7166 -1.76336 2.4
      vertex 23.2166 -2.85317 2.4
    endloop
  endfacet
  facet normal 0.587785 0.809017 0
    outer loop
      vertex 21.7166 -1.76336 2.4
      vertex 23.2166 -2.85317 0
      vertex 21.7166 -1.76336 0
    endloop
  endfacet
  facet normal 0 1 -0
    outer loop
      vertex 25.0707 -2.85317 0
      vertex 23.2166 -2.85317 2.4
      vertex 25.0707 -2.85317 2.4
    endloop
  endfacet
  facet normal 0 1 0
    outer loop
      vertex 23.2166 -2.85317 2.4
      vertex 25.0707 -2.85317 0
      vertex 23.2166 -2.85317 0
    endloop
  endfacet
  facet normal 0.951057 -0.309017 0
    outer loop
      vertex 21.1437 0 2.4
      vertex 21.7166 1.76336 0
      vertex 21.7166 1.76336 2.4
    endloop
  endfacet
  facet normal 0.951057 -0.309017 0
    outer loop
      vertex 21.7166 1.76336 0
      vertex 21.1437 0 2.4
      vertex 21.1437 0 0
    endloop
  endfacet
  facet normal 0 0 1
    outer loop
      vertex 14.8788 -0.893096 1.6
      vertex 13.7268 -0.893096 1.6
      vertex 14.8788 -3.5331 1.6
    endloop
  endfacet
  facet normal 0 0 1
    outer loop
      vertex 19.9348 -2.9931 1.6
      vertex 18.8161 -2.88866 1.6
      vertex 18.8468 -3.2411 1.6
    endloop
  endfacet
  facet normal 0 0 1
    outer loop
      vertex 19.3748 -1.12711 1.6
      vertex 18.7241 -2.59 1.6
      vertex 18.8161 -2.88866 1.6
    endloop
  endfacet
  facet normal 0 0 1
    outer loop
      vertex 19.3748 -1.12711 1.6
      vertex 18.5708 -2.34511 1.6
      vertex 18.7241 -2.59 1.6
    endloop
  endfacet
  facet normal 0 0 1
    outer loop
      vertex 18.1157 -2.05443 1.6
      vertex 18.9537 -0.75322 1.6
      vertex 18.437 -0.528885 1.6
    endloop
  endfacet
  facet normal 0 0 1
    outer loop
      vertex 19.3748 -1.12711 1.6
      vertex 18.365 -2.16344 1.6
      vertex 18.5708 -2.34511 1.6
    endloop
  endfacet
  facet normal 0 0 1
    outer loop
      vertex 18.9537 -0.75322 1.6
      vertex 18.1157 -2.05443 1.6
      vertex 18.365 -2.16344 1.6
    endloop
  endfacet
  facet normal 0 0 1
    outer loop
      vertex 17.8228 -2.0181 1.6
      vertex 18.437 -0.528885 1.6
      vertex 17.8248 -0.454102 1.6
    endloop
  endfacet
  facet normal 0 0 1
    outer loop
      vertex 18.437 -0.528885 1.6
      vertex 17.8228 -2.0181 1.6
      vertex 18.1157 -2.05443 1.6
    endloop
  endfacet
  facet normal -0 0 1
    outer loop
      vertex 17.2084 -0.522766 1.6
      vertex 17.8228 -2.0181 1.6
      vertex 17.8248 -0.454102 1.6
    endloop
  endfacet
  facet normal 0 0 1
    outer loop
      vertex 17.8228 -2.0181 1.6
      vertex 17.2084 -0.522766 1.6
      vertex 17.5279 -2.05443 1.6
    endloop
  endfacet
  facet normal -0 0 1
    outer loop
      vertex 16.6897 -0.728775 1.6
      vertex 17.5279 -2.05443 1.6
      vertex 17.2084 -0.522766 1.6
    endloop
  endfacet
  facet normal 0 0 1
    outer loop
      vertex 17.5279 -2.05443 1.6
      vertex 16.6897 -0.728775 1.6
      vertex 17.2779 -2.16344 1.6
    endloop
  endfacet
  facet normal -0 0 1
    outer loop
      vertex 16.2688 -1.0721 1.6
      vertex 17.2779 -2.16344 1.6
      vertex 16.6897 -0.728775 1.6
    endloop
  endfacet
  facet normal -0 0 1
    outer loop
      vertex 15.9588 -1.5381 1.6
      vertex 17.2779 -2.16344 1.6
      vertex 16.2688 -1.0721 1.6
    endloop
  endfacet
  facet normal -0 0 1
    outer loop
      vertex 15.7728 -2.11343 1.6
      vertex 17.0728 -2.34511 1.6
      vertex 15.9588 -1.5381 1.6
    endloop
  endfacet
  facet normal 0 0 1
    outer loop
      vertex 17.2779 -2.16344 1.6
      vertex 15.9588 -1.5381 1.6
      vertex 17.0728 -2.34511 1.6
    endloop
  endfacet
  facet normal -0 0 1
    outer loop
      vertex 18.8468 -3.2411 1.6
      vertex 19.9225 -3.33598 1.6
      vertex 19.9348 -2.9931 1.6
    endloop
  endfacet
  facet normal -0 0 1
    outer loop
      vertex 18.8161 -2.88866 1.6
      vertex 19.9348 -2.9931 1.6
      vertex 19.8726 -2.2551 1.6
    endloop
  endfacet
  facet normal 0 0 1
    outer loop
      vertex 18.8308 -3.50943 1.6
      vertex 19.9225 -3.33598 1.6
      vertex 18.8468 -3.2411 1.6
    endloop
  endfacet
  facet normal 0 0 1
    outer loop
      vertex 19.9225 -3.33598 1.6
      vertex 18.8308 -3.50943 1.6
      vertex 19.8855 -3.67665 1.6
    endloop
  endfacet
  facet normal 0 0 1
    outer loop
      vertex 18.8161 -2.88866 1.6
      vertex 19.8726 -2.2551 1.6
      vertex 19.6859 -1.6331 1.6
    endloop
  endfacet
  facet normal 0 0 1
    outer loop
      vertex 18.7828 -3.78911 1.6
      vertex 19.8855 -3.67665 1.6
      vertex 18.8308 -3.50943 1.6
    endloop
  endfacet
  facet normal 0 0 1
    outer loop
      vertex 19.8855 -3.67665 1.6
      vertex 18.7828 -3.78911 1.6
      vertex 19.8238 -4.01511 1.6
    endloop
  endfacet
  facet normal 0 0 1
    outer loop
      vertex 18.8161 -2.88866 1.6
      vertex 19.6859 -1.6331 1.6
      vertex 19.3748 -1.12711 1.6
    endloop
  endfacet
  facet normal 0 0 1
    outer loop
      vertex 18.365 -2.16344 1.6
      vertex 19.3748 -1.12711 1.6
      vertex 18.9537 -0.75322 1.6
    endloop
  endfacet
  facet normal 0 0 1
    outer loop
      vertex 19.8238 -4.01511 1.6
      vertex 18.7828 -3.78911 1.6
      vertex 19.737 -4.35121 1.6
    endloop
  endfacet
  facet normal -0 0 1
    outer loop
      vertex 18.7028 -4.08011 1.6
      vertex 19.737 -4.35121 1.6
      vertex 18.7828 -3.78911 1.6
    endloop
  endfacet
  facet normal 0 0 1
    outer loop
      vertex 19.737 -4.35121 1.6
      vertex 18.7028 -4.08011 1.6
      vertex 19.6247 -4.68622 1.6
    endloop
  endfacet
  facet normal -0 0 1
    outer loop
      vertex 18.5908 -4.38188 1.6
      vertex 19.6247 -4.68622 1.6
      vertex 18.7028 -4.08011 1.6
    endloop
  endfacet
  facet normal 0 0 1
    outer loop
      vertex 19.6247 -4.68622 1.6
      vertex 18.5908 -4.38188 1.6
      vertex 19.4868 -5.0201 1.6
    endloop
  endfacet
  facet normal -0 0 1
    outer loop
      vertex 18.4468 -4.69521 1.6
      vertex 19.4868 -5.0201 1.6
      vertex 18.5908 -4.38188 1.6
    endloop
  endfacet
  facet normal 0 0 1
    outer loop
      vertex 19.4868 -5.0201 1.6
      vertex 18.4468 -4.69521 1.6
      vertex 18.2708 -5.0201 1.6
    endloop
  endfacet
  facet normal 0 0 1
    outer loop
      vertex 17.0728 -2.34511 1.6
      vertex 15.7728 -2.11343 1.6
      vertex 16.9206 -2.59 1.6
    endloop
  endfacet
  facet normal 0 0 1
    outer loop
      vertex 15.7108 -2.79809 1.6
      vertex 16.9206 -2.59 1.6
      vertex 15.7728 -2.11343 1.6
    endloop
  endfacet
  facet normal 0 0 1
    outer loop
      vertex 16.9206 -2.59 1.6
      vertex 15.7108 -2.79809 1.6
      vertex 16.8293 -2.88866 1.6
    endloop
  endfacet
  facet normal 0 -0 1
    outer loop
      vertex 15.7138 -2.92654 1.6
      vertex 16.8293 -2.88866 1.6
      vertex 15.7108 -2.79809 1.6
    endloop
  endfacet
  facet normal 0 -0 1
    outer loop
      vertex 15.7228 -3.05188 1.6
      vertex 16.8293 -2.88866 1.6
      vertex 15.7138 -2.92654 1.6
    endloop
  endfacet
  facet normal 0 0 1
    outer loop
      vertex 16.8293 -2.88866 1.6
      vertex 15.7228 -3.05188 1.6
      vertex 16.7988 -3.2411 1.6
    endloop
  endfacet
  facet normal -0 -0 1
    outer loop
      vertex 15.7378 -3.1741 1.6
      vertex 16.7988 -3.2411 1.6
      vertex 15.7228 -3.05188 1.6
    endloop
  endfacet
  facet normal 0 -0 1
    outer loop
      vertex 15.7583 -3.29399 1.6
      vertex 16.7988 -3.2411 1.6
      vertex 15.7378 -3.1741 1.6
    endloop
  endfacet
  facet normal 0 0 1
    outer loop
      vertex 13.7268 -4.7801 1.6
      vertex 17.0635 -4.49388 1.6
      vertex 15.8138 -3.5331 1.6
    endloop
  endfacet
  facet normal 0 0 1
    outer loop
      vertex 13.7268 -4.7801 1.6
      vertex 15.8138 -3.5331 1.6
      vertex 14.8788 -3.5331 1.6
    endloop
  endfacet
  facet normal 0 0 1
    outer loop
      vertex 17.0635 -4.49388 1.6
      vertex 13.7268 -4.7801 1.6
      vertex 17.1828 -4.78011 1.6
    endloop
  endfacet
  facet normal 0 0 1
    outer loop
      vertex 13.7268 -4.7801 1.6
      vertex 14.8788 -3.5331 1.6
      vertex 13.7268 -0.893096 1.6
    endloop
  endfacet
  facet normal 0 0 1
    outer loop
      vertex 16.9668 -4.22055 1.6
      vertex 15.8138 -3.5331 1.6
      vertex 17.0635 -4.49388 1.6
    endloop
  endfacet
  facet normal 0 -0 1
    outer loop
      vertex 15.7836 -3.41365 1.6
      vertex 16.7988 -3.2411 1.6
      vertex 15.7583 -3.29399 1.6
    endloop
  endfacet
  facet normal 0 -0 1
    outer loop
      vertex 15.8138 -3.5331 1.6
      vertex 16.7988 -3.2411 1.6
      vertex 15.7836 -3.41365 1.6
    endloop
  endfacet
  facet normal 0 0 1
    outer loop
      vertex 16.8928 -3.9601 1.6
      vertex 15.8138 -3.5331 1.6
      vertex 16.9668 -4.22055 1.6
    endloop
  endfacet
  facet normal 0 0 1
    outer loop
      vertex 16.8406 -3.71043 1.6
      vertex 15.8138 -3.5331 1.6
      vertex 16.8928 -3.9601 1.6
    endloop
  endfacet
  facet normal 0 0 1
    outer loop
      vertex 16.8093 -3.47076 1.6
      vertex 15.8138 -3.5331 1.6
      vertex 16.8406 -3.71043 1.6
    endloop
  endfacet
  facet normal 0 0 1
    outer loop
      vertex 16.7988 -3.2411 1.6
      vertex 15.8138 -3.5331 1.6
      vertex 16.8093 -3.47076 1.6
    endloop
  endfacet
  facet normal 0 0 1
    outer loop
      vertex 19.8068 2.76298 1.6
      vertex 14.8788 3.478 1.6
      vertex 19.8068 1.239 1.6
    endloop
  endfacet
  facet normal 0 0 1
    outer loop
      vertex 14.6108 5.127 1.6
      vertex 14.8788 3.478 1.6
      vertex 19.8068 2.76298 1.6
    endloop
  endfacet
  facet normal -0 0 1
    outer loop
      vertex 13.7268 5.127 1.6
      vertex 14.8788 3.478 1.6
      vertex 14.6108 5.127 1.6
    endloop
  endfacet
  facet normal 0 0 1
    outer loop
      vertex 14.8788 3.478 1.6
      vertex 13.7268 5.127 1.6
      vertex 13.7268 0.556992 1.6
    endloop
  endfacet
  facet normal 0 0 1
    outer loop
      vertex 14.8788 3.478 1.6
      vertex 13.7268 0.556992 1.6
      vertex 14.8788 0.556992 1.6
    endloop
  endfacet
  facet normal -0.9578 -0.287436 0
    outer loop
      vertex 19.8726 -2.2551 1.6
      vertex 19.6859 -1.6331 2.4
      vertex 19.6859 -1.6331 1.6
    endloop
  endfacet
  facet normal -0.9578 -0.287436 0
    outer loop
      vertex 19.6859 -1.6331 2.4
      vertex 19.8726 -2.2551 1.6
      vertex 19.8726 -2.2551 2.4
    endloop
  endfacet
  facet normal -0.851862 -0.523766 0
    outer loop
      vertex 19.6859 -1.6331 1.6
      vertex 19.3748 -1.12711 2.4
      vertex 19.3748 -1.12711 1.6
    endloop
  endfacet
  facet normal -0.851862 -0.523766 0
    outer loop
      vertex 19.3748 -1.12711 2.4
      vertex 19.6859 -1.6331 1.6
      vertex 19.6859 -1.6331 2.4
    endloop
  endfacet
  facet normal -0.663932 -0.747793 0
    outer loop
      vertex 18.9537 -0.75322 1.6
      vertex 19.3748 -1.12711 2.4
      vertex 18.9537 -0.75322 2.4
    endloop
  endfacet
  facet normal -0.663932 -0.747793 -0
    outer loop
      vertex 19.3748 -1.12711 2.4
      vertex 18.9537 -0.75322 1.6
      vertex 19.3748 -1.12711 1.6
    endloop
  endfacet
  facet normal -0.398276 -0.917265 0
    outer loop
      vertex 18.437 -0.528885 1.6
      vertex 18.9537 -0.75322 2.4
      vertex 18.437 -0.528885 2.4
    endloop
  endfacet
  facet normal -0.398276 -0.917265 -0
    outer loop
      vertex 18.9537 -0.75322 2.4
      vertex 18.437 -0.528885 1.6
      vertex 18.9537 -0.75322 1.6
    endloop
  endfacet
  facet normal -0.121248 -0.992622 0
    outer loop
      vertex 17.8248 -0.454102 1.6
      vertex 18.437 -0.528885 2.4
      vertex 17.8248 -0.454102 2.4
    endloop
  endfacet
  facet normal -0.121248 -0.992622 -0
    outer loop
      vertex 18.437 -0.528885 2.4
      vertex 17.8248 -0.454102 1.6
      vertex 18.437 -0.528885 1.6
    endloop
  endfacet
  facet normal 0.110704 -0.993853 0
    outer loop
      vertex 17.2084 -0.522766 1.6
      vertex 17.8248 -0.454102 2.4
      vertex 17.2084 -0.522766 2.4
    endloop
  endfacet
  facet normal 0.110704 -0.993853 0
    outer loop
      vertex 17.8248 -0.454102 2.4
      vertex 17.2084 -0.522766 1.6
      vertex 17.8248 -0.454102 1.6
    endloop
  endfacet
  facet normal 0.36915 -0.92937 0
    outer loop
      vertex 16.6897 -0.728775 1.6
      vertex 17.2084 -0.522766 2.4
      vertex 16.6897 -0.728775 2.4
    endloop
  endfacet
  facet normal 0.36915 -0.92937 0
    outer loop
      vertex 17.2084 -0.522766 2.4
      vertex 16.6897 -0.728775 1.6
      vertex 17.2084 -0.522766 1.6
    endloop
  endfacet
  facet normal 0.63208 -0.774904 0
    outer loop
      vertex 16.2688 -1.0721 1.6
      vertex 16.6897 -0.728775 2.4
      vertex 16.2688 -1.0721 2.4
    endloop
  endfacet
  facet normal 0.63208 -0.774904 0
    outer loop
      vertex 16.6897 -0.728775 2.4
      vertex 16.2688 -1.0721 1.6
      vertex 16.6897 -0.728775 1.6
    endloop
  endfacet
  facet normal 0.832604 -0.553869 0
    outer loop
      vertex 15.9588 -1.5381 2.4
      vertex 16.2688 -1.0721 1.6
      vertex 16.2688 -1.0721 2.4
    endloop
  endfacet
  facet normal 0.832604 -0.553869 0
    outer loop
      vertex 16.2688 -1.0721 1.6
      vertex 15.9588 -1.5381 2.4
      vertex 15.9588 -1.5381 1.6
    endloop
  endfacet
  facet normal 0.951509 -0.307622 0
    outer loop
      vertex 15.7728 -2.11343 2.4
      vertex 15.9588 -1.5381 1.6
      vertex 15.9588 -1.5381 2.4
    endloop
  endfacet
  facet normal 0.951509 -0.307622 0
    outer loop
      vertex 15.9588 -1.5381 1.6
      vertex 15.7728 -2.11343 2.4
      vertex 15.7728 -2.11343 1.6
    endloop
  endfacet
  facet normal 0.995925 -0.0901815 0
    outer loop
      vertex 15.7108 -2.79809 2.4
      vertex 15.7728 -2.11343 1.6
      vertex 15.7728 -2.11343 2.4
    endloop
  endfacet
  facet normal 0.995925 -0.0901815 0
    outer loop
      vertex 15.7728 -2.11343 1.6
      vertex 15.7108 -2.79809 2.4
      vertex 15.7108 -2.79809 1.6
    endloop
  endfacet
  facet normal 0.999726 0.0233958 0
    outer loop
      vertex 15.7138 -2.92654 2.4
      vertex 15.7108 -2.79809 1.6
      vertex 15.7108 -2.79809 2.4
    endloop
  endfacet
  facet normal 0.999726 0.0233958 0
    outer loop
      vertex 15.7108 -2.79809 1.6
      vertex 15.7138 -2.92654 2.4
      vertex 15.7138 -2.92654 1.6
    endloop
  endfacet
  facet normal 0.997439 0.0715232 0
    outer loop
      vertex 15.7228 -3.05188 2.4
      vertex 15.7138 -2.92654 1.6
      vertex 15.7138 -2.92654 2.4
    endloop
  endfacet
  facet normal 0.997439 0.0715232 0
    outer loop
      vertex 15.7138 -2.92654 1.6
      vertex 15.7228 -3.05188 2.4
      vertex 15.7228 -3.05188 1.6
    endloop
  endfacet
  facet normal 0.992539 0.12193 0
    outer loop
      vertex 15.7378 -3.1741 2.4
      vertex 15.7228 -3.05188 1.6
      vertex 15.7228 -3.05188 2.4
    endloop
  endfacet
  facet normal 0.992539 0.12193 0
    outer loop
      vertex 15.7228 -3.05188 1.6
      vertex 15.7378 -3.1741 2.4
      vertex 15.7378 -3.1741 1.6
    endloop
  endfacet
  facet normal 0.985787 0.167999 0
    outer loop
      vertex 15.7583 -3.29399 2.4
      vertex 15.7378 -3.1741 1.6
      vertex 15.7378 -3.1741 2.4
    endloop
  endfacet
  facet normal 0.985787 0.167999 0
    outer loop
      vertex 15.7378 -3.1741 1.6
      vertex 15.7583 -3.29399 2.4
      vertex 15.7583 -3.29399 1.6
    endloop
  endfacet
  facet normal 0.978296 0.207211 0
    outer loop
      vertex 15.7836 -3.41365 2.4
      vertex 15.7583 -3.29399 1.6
      vertex 15.7583 -3.29399 2.4
    endloop
  endfacet
  facet normal 0.978296 0.207211 0
    outer loop
      vertex 15.7583 -3.29399 1.6
      vertex 15.7836 -3.41365 2.4
      vertex 15.7836 -3.41365 1.6
    endloop
  endfacet
  facet normal 0.969469 0.245216 0
    outer loop
      vertex 15.8138 -3.5331 2.4
      vertex 15.7836 -3.41365 1.6
      vertex 15.7836 -3.41365 2.4
    endloop
  endfacet
  facet normal 0.969469 0.245216 0
    outer loop
      vertex 15.7836 -3.41365 1.6
      vertex 15.8138 -3.5331 2.4
      vertex 15.8138 -3.5331 1.6
    endloop
  endfacet
  facet normal 0 -1 0
    outer loop
      vertex 14.8788 -3.5331 1.6
      vertex 15.8138 -3.5331 2.4
      vertex 14.8788 -3.5331 2.4
    endloop
  endfacet
  facet normal 0 -1 -0
    outer loop
      vertex 15.8138 -3.5331 2.4
      vertex 14.8788 -3.5331 1.6
      vertex 15.8138 -3.5331 1.6
    endloop
  endfacet
  facet normal -1 0 0
    outer loop
      vertex 14.8788 -3.5331 1.6
      vertex 14.8788 -0.893096 2.4
      vertex 14.8788 -0.893096 1.6
    endloop
  endfacet
  facet normal -1 -0 0
    outer loop
      vertex 14.8788 -0.893096 2.4
      vertex 14.8788 -3.5331 1.6
      vertex 14.8788 -3.5331 2.4
    endloop
  endfacet
  facet normal 0 -1 0
    outer loop
      vertex 13.7268 -0.893096 1.6
      vertex 14.8788 -0.893096 2.4
      vertex 13.7268 -0.893096 2.4
    endloop
  endfacet
  facet normal 0 -1 -0
    outer loop
      vertex 14.8788 -0.893096 2.4
      vertex 13.7268 -0.893096 1.6
      vertex 14.8788 -0.893096 1.6
    endloop
  endfacet
  facet normal 1 -0 0
    outer loop
      vertex 13.7268 -4.7801 2.4
      vertex 13.7268 -0.893096 1.6
      vertex 13.7268 -0.893096 2.4
    endloop
  endfacet
  facet normal 1 0 0
    outer loop
      vertex 13.7268 -0.893096 1.6
      vertex 13.7268 -4.7801 2.4
      vertex 13.7268 -4.7801 1.6
    endloop
  endfacet
  facet normal 2.75949e-07 1 -0
    outer loop
      vertex 17.1828 -4.78011 1.6
      vertex 13.7268 -4.7801 2.4
      vertex 17.1828 -4.78011 2.4
    endloop
  endfacet
  facet normal 2.75949e-07 1 0
    outer loop
      vertex 13.7268 -4.7801 2.4
      vertex 17.1828 -4.78011 1.6
      vertex 13.7268 -4.7801 1.6
    endloop
  endfacet
  facet normal -0.922987 -0.384832 0
    outer loop
      vertex 17.1828 -4.78011 1.6
      vertex 17.0635 -4.49388 2.4
      vertex 17.0635 -4.49388 1.6
    endloop
  endfacet
  facet normal -0.922987 -0.384832 0
    outer loop
      vertex 17.0635 -4.49388 2.4
      vertex 17.1828 -4.78011 1.6
      vertex 17.1828 -4.78011 2.4
    endloop
  endfacet
  facet normal -0.942779 -0.333417 0
    outer loop
      vertex 17.0635 -4.49388 1.6
      vertex 16.9668 -4.22055 2.4
      vertex 16.9668 -4.22055 1.6
    endloop
  endfacet
  facet normal -0.942779 -0.333417 0
    outer loop
      vertex 16.9668 -4.22055 2.4
      vertex 17.0635 -4.49388 1.6
      vertex 17.0635 -4.49388 2.4
    endloop
  endfacet
  facet normal -0.961952 -0.273217 0
    outer loop
      vertex 16.9668 -4.22055 1.6
      vertex 16.8928 -3.9601 2.4
      vertex 16.8928 -3.9601 1.6
    endloop
  endfacet
  facet normal -0.961952 -0.273217 0
    outer loop
      vertex 16.8928 -3.9601 2.4
      vertex 16.9668 -4.22055 1.6
      vertex 16.9668 -4.22055 2.4
    endloop
  endfacet
  facet normal -0.97881 -0.204771 0
    outer loop
      vertex 16.8928 -3.9601 1.6
      vertex 16.8406 -3.71043 2.4
      vertex 16.8406 -3.71043 1.6
    endloop
  endfacet
  facet normal -0.97881 -0.204771 0
    outer loop
      vertex 16.8406 -3.71043 2.4
      vertex 16.8928 -3.9601 1.6
      vertex 16.8928 -3.9601 2.4
    endloop
  endfacet
  facet normal -0.991566 -0.129604 0
    outer loop
      vertex 16.8406 -3.71043 1.6
      vertex 16.8093 -3.47076 2.4
      vertex 16.8093 -3.47076 1.6
    endloop
  endfacet
  facet normal -0.991566 -0.129604 0
    outer loop
      vertex 16.8093 -3.47076 2.4
      vertex 16.8406 -3.71043 1.6
      vertex 16.8406 -3.71043 2.4
    endloop
  endfacet
  facet normal -0.998966 -0.0454649 0
    outer loop
      vertex 16.8093 -3.47076 1.6
      vertex 16.7988 -3.2411 2.4
      vertex 16.7988 -3.2411 1.6
    endloop
  endfacet
  facet normal -0.998966 -0.0454649 0
    outer loop
      vertex 16.7988 -3.2411 2.4
      vertex 16.8093 -3.47076 1.6
      vertex 16.8093 -3.47076 2.4
    endloop
  endfacet
  facet normal -0.996291 0.0860507 0
    outer loop
      vertex 16.7988 -3.2411 1.6
      vertex 16.8293 -2.88866 2.4
      vertex 16.8293 -2.88866 1.6
    endloop
  endfacet
  facet normal -0.996291 0.0860507 0
    outer loop
      vertex 16.8293 -2.88866 2.4
      vertex 16.7988 -3.2411 1.6
      vertex 16.7988 -3.2411 2.4
    endloop
  endfacet
  facet normal -0.956292 0.292413 0
    outer loop
      vertex 16.8293 -2.88866 1.6
      vertex 16.9206 -2.59 2.4
      vertex 16.9206 -2.59 1.6
    endloop
  endfacet
  facet normal -0.956292 0.292413 0
    outer loop
      vertex 16.9206 -2.59 2.4
      vertex 16.8293 -2.88866 1.6
      vertex 16.8293 -2.88866 2.4
    endloop
  endfacet
  facet normal -0.849295 0.527919 0
    outer loop
      vertex 16.9206 -2.59 1.6
      vertex 17.0728 -2.34511 2.4
      vertex 17.0728 -2.34511 1.6
    endloop
  endfacet
  facet normal -0.849295 0.527919 0
    outer loop
      vertex 17.0728 -2.34511 2.4
      vertex 16.9206 -2.59 1.6
      vertex 16.9206 -2.59 2.4
    endloop
  endfacet
  facet normal -0.663042 0.748582 0
    outer loop
      vertex 17.2779 -2.16344 1.6
      vertex 17.0728 -2.34511 2.4
      vertex 17.2779 -2.16344 2.4
    endloop
  endfacet
  facet normal -0.663042 0.748582 0
    outer loop
      vertex 17.0728 -2.34511 2.4
      vertex 17.2779 -2.16344 1.6
      vertex 17.0728 -2.34511 1.6
    endloop
  endfacet
  facet normal -0.399692 0.91665 0
    outer loop
      vertex 17.5279 -2.05443 1.6
      vertex 17.2779 -2.16344 2.4
      vertex 17.5279 -2.05443 2.4
    endloop
  endfacet
  facet normal -0.399692 0.91665 0
    outer loop
      vertex 17.2779 -2.16344 2.4
      vertex 17.5279 -2.05443 1.6
      vertex 17.2779 -2.16344 1.6
    endloop
  endfacet
  facet normal -0.122277 0.992496 0
    outer loop
      vertex 17.8228 -2.0181 1.6
      vertex 17.5279 -2.05443 2.4
      vertex 17.8228 -2.0181 2.4
    endloop
  endfacet
  facet normal -0.122277 0.992496 0
    outer loop
      vertex 17.5279 -2.05443 2.4
      vertex 17.8228 -2.0181 1.6
      vertex 17.5279 -2.05443 1.6
    endloop
  endfacet
  facet normal 0.123099 0.992394 -0
    outer loop
      vertex 18.1157 -2.05443 1.6
      vertex 17.8228 -2.0181 2.4
      vertex 18.1157 -2.05443 2.4
    endloop
  endfacet
  facet normal 0.123099 0.992394 0
    outer loop
      vertex 17.8228 -2.0181 2.4
      vertex 18.1157 -2.05443 1.6
      vertex 17.8228 -2.0181 1.6
    endloop
  endfacet
  facet normal 0.400595 0.916255 -0
    outer loop
      vertex 18.365 -2.16344 1.6
      vertex 18.1157 -2.05443 2.4
      vertex 18.365 -2.16344 2.4
    endloop
  endfacet
  facet normal 0.400595 0.916255 0
    outer loop
      vertex 18.1157 -2.05443 2.4
      vertex 18.365 -2.16344 1.6
      vertex 18.1157 -2.05443 1.6
    endloop
  endfacet
  facet normal 0.661828 0.749656 -0
    outer loop
      vertex 18.5708 -2.34511 1.6
      vertex 18.365 -2.16344 2.4
      vertex 18.5708 -2.34511 2.4
    endloop
  endfacet
  facet normal 0.661828 0.749656 0
    outer loop
      vertex 18.365 -2.16344 2.4
      vertex 18.5708 -2.34511 1.6
      vertex 18.365 -2.16344 1.6
    endloop
  endfacet
  facet normal 0.847562 0.530697 0
    outer loop
      vertex 18.7241 -2.59 2.4
      vertex 18.5708 -2.34511 1.6
      vertex 18.5708 -2.34511 2.4
    endloop
  endfacet
  facet normal 0.847562 0.530697 0
    outer loop
      vertex 18.5708 -2.34511 1.6
      vertex 18.7241 -2.59 2.4
      vertex 18.7241 -2.59 1.6
    endloop
  endfacet
  facet normal 0.955689 0.294377 0
    outer loop
      vertex 18.8161 -2.88866 2.4
      vertex 18.7241 -2.59 1.6
      vertex 18.7241 -2.59 2.4
    endloop
  endfacet
  facet normal 0.955689 0.294377 0
    outer loop
      vertex 18.7241 -2.59 1.6
      vertex 18.8161 -2.88866 2.4
      vertex 18.8161 -2.88866 1.6
    endloop
  endfacet
  facet normal 0.996235 0.0866929 0
    outer loop
      vertex 18.8468 -3.2411 2.4
      vertex 18.8161 -2.88866 1.6
      vertex 18.8161 -2.88866 2.4
    endloop
  endfacet
  facet normal 0.996235 0.0866929 0
    outer loop
      vertex 18.8161 -2.88866 1.6
      vertex 18.8468 -3.2411 2.4
      vertex 18.8468 -3.2411 1.6
    endloop
  endfacet
  facet normal 0.998225 -0.0595473 0
    outer loop
      vertex 18.8308 -3.50943 2.4
      vertex 18.8468 -3.2411 1.6
      vertex 18.8468 -3.2411 2.4
    endloop
  endfacet
  facet normal 0.998225 -0.0595473 0
    outer loop
      vertex 18.8468 -3.2411 1.6
      vertex 18.8308 -3.50943 2.4
      vertex 18.8308 -3.50943 1.6
    endloop
  endfacet
  facet normal 0.985596 -0.169115 0
    outer loop
      vertex 18.7828 -3.78911 2.4
      vertex 18.8308 -3.50943 1.6
      vertex 18.8308 -3.50943 2.4
    endloop
  endfacet
  facet normal 0.985596 -0.169115 0
    outer loop
      vertex 18.8308 -3.50943 1.6
      vertex 18.7828 -3.78911 2.4
      vertex 18.7828 -3.78911 1.6
    endloop
  endfacet
  facet normal 0.964225 -0.265085 0
    outer loop
      vertex 18.7028 -4.08011 2.4
      vertex 18.7828 -3.78911 1.6
      vertex 18.7828 -3.78911 2.4
    endloop
  endfacet
  facet normal 0.964225 -0.265085 0
    outer loop
      vertex 18.7828 -3.78911 1.6
      vertex 18.7028 -4.08011 2.4
      vertex 18.7028 -4.08011 1.6
    endloop
  endfacet
  facet normal 0.937514 -0.347947 0
    outer loop
      vertex 18.5908 -4.38188 2.4
      vertex 18.7028 -4.08011 1.6
      vertex 18.7028 -4.08011 2.4
    endloop
  endfacet
  facet normal 0.937514 -0.347947 0
    outer loop
      vertex 18.7028 -4.08011 1.6
      vertex 18.5908 -4.38188 2.4
      vertex 18.5908 -4.38188 1.6
    endloop
  endfacet
  facet normal 0.908636 -0.41759 0
    outer loop
      vertex 18.4468 -4.69521 2.4
      vertex 18.5908 -4.38188 1.6
      vertex 18.5908 -4.38188 2.4
    endloop
  endfacet
  facet normal 0.908636 -0.41759 0
    outer loop
      vertex 18.5908 -4.38188 1.6
      vertex 18.4468 -4.69521 2.4
      vertex 18.4468 -4.69521 1.6
    endloop
  endfacet
  facet normal 0.87926 -0.476342 0
    outer loop
      vertex 18.2708 -5.0201 2.4
      vertex 18.4468 -4.69521 1.6
      vertex 18.4468 -4.69521 2.4
    endloop
  endfacet
  facet normal 0.87926 -0.476342 0
    outer loop
      vertex 18.4468 -4.69521 1.6
      vertex 18.2708 -5.0201 2.4
      vertex 18.2708 -5.0201 1.6
    endloop
  endfacet
  facet normal 0 1 -0
    outer loop
      vertex 19.4868 -5.0201 1.6
      vertex 18.2708 -5.0201 2.4
      vertex 19.4868 -5.0201 2.4
    endloop
  endfacet
  facet normal 0 1 0
    outer loop
      vertex 18.2708 -5.0201 2.4
      vertex 19.4868 -5.0201 1.6
      vertex 18.2708 -5.0201 1.6
    endloop
  endfacet
  facet normal -0.924273 0.381731 0
    outer loop
      vertex 19.4868 -5.0201 1.6
      vertex 19.6247 -4.68622 2.4
      vertex 19.6247 -4.68622 1.6
    endloop
  endfacet
  facet normal -0.924273 0.381731 0
    outer loop
      vertex 19.6247 -4.68622 2.4
      vertex 19.4868 -5.0201 1.6
      vertex 19.4868 -5.0201 2.4
    endloop
  endfacet
  facet normal -0.948116 0.317924 0
    outer loop
      vertex 19.6247 -4.68622 1.6
      vertex 19.737 -4.35121 2.4
      vertex 19.737 -4.35121 1.6
    endloop
  endfacet
  facet normal -0.948116 0.317924 0
    outer loop
      vertex 19.737 -4.35121 2.4
      vertex 19.6247 -4.68622 1.6
      vertex 19.6247 -4.68622 2.4
    endloop
  endfacet
  facet normal -0.96825 0.249986 0
    outer loop
      vertex 19.737 -4.35121 1.6
      vertex 19.8238 -4.01511 2.4
      vertex 19.8238 -4.01511 1.6
    endloop
  endfacet
  facet normal -0.96825 0.249986 0
    outer loop
      vertex 19.8238 -4.01511 2.4
      vertex 19.737 -4.35121 1.6
      vertex 19.737 -4.35121 2.4
    endloop
  endfacet
  facet normal -0.983807 0.179233 0
    outer loop
      vertex 19.8238 -4.01511 1.6
      vertex 19.8855 -3.67665 2.4
      vertex 19.8855 -3.67665 1.6
    endloop
  endfacet
  facet normal -0.983807 0.179233 0
    outer loop
      vertex 19.8855 -3.67665 2.4
      vertex 19.8238 -4.01511 1.6
      vertex 19.8238 -4.01511 2.4
    endloop
  endfacet
  facet normal -0.994153 0.107983 0
    outer loop
      vertex 19.8855 -3.67665 1.6
      vertex 19.9225 -3.33598 2.4
      vertex 19.9225 -3.33598 1.6
    endloop
  endfacet
  facet normal -0.994153 0.107983 0
    outer loop
      vertex 19.9225 -3.33598 2.4
      vertex 19.8855 -3.67665 1.6
      vertex 19.8855 -3.67665 2.4
    endloop
  endfacet
  facet normal -0.999354 0.0359342 0
    outer loop
      vertex 19.9225 -3.33598 1.6
      vertex 19.9348 -2.9931 2.4
      vertex 19.9348 -2.9931 1.6
    endloop
  endfacet
  facet normal -0.999354 0.0359342 0
    outer loop
      vertex 19.9348 -2.9931 2.4
      vertex 19.9225 -3.33598 1.6
      vertex 19.9225 -3.33598 2.4
    endloop
  endfacet
  facet normal -0.996464 -0.0840173 0
    outer loop
      vertex 19.9348 -2.9931 1.6
      vertex 19.8726 -2.2551 2.4
      vertex 19.8726 -2.2551 1.6
    endloop
  endfacet
  facet normal -0.996464 -0.0840173 0
    outer loop
      vertex 19.8726 -2.2551 2.4
      vertex 19.9348 -2.9931 1.6
      vertex 19.9348 -2.9931 2.4
    endloop
  endfacet
  facet normal 0 -1 0
    outer loop
      vertex 13.7268 5.127 1.6
      vertex 14.6108 5.127 2.4
      vertex 13.7268 5.127 2.4
    endloop
  endfacet
  facet normal 0 -1 -0
    outer loop
      vertex 14.6108 5.127 2.4
      vertex 13.7268 5.127 1.6
      vertex 14.6108 5.127 1.6
    endloop
  endfacet
  facet normal 1 -0 0
    outer loop
      vertex 13.7268 0.556992 2.4
      vertex 13.7268 5.127 1.6
      vertex 13.7268 5.127 2.4
    endloop
  endfacet
  facet normal 1 0 0
    outer loop
      vertex 13.7268 5.127 1.6
      vertex 13.7268 0.556992 2.4
      vertex 13.7268 0.556992 1.6
    endloop
  endfacet
  facet normal 0 1 -0
    outer loop
      vertex 14.8788 0.556992 1.6
      vertex 13.7268 0.556992 2.4
      vertex 14.8788 0.556992 2.4
    endloop
  endfacet
  facet normal 0 1 0
    outer loop
      vertex 13.7268 0.556992 2.4
      vertex 14.8788 0.556992 1.6
      vertex 13.7268 0.556992 1.6
    endloop
  endfacet
  facet normal -1 0 0
    outer loop
      vertex 14.8788 0.556992 1.6
      vertex 14.8788 3.478 2.4
      vertex 14.8788 3.478 1.6
    endloop
  endfacet
  facet normal -1 -0 0
    outer loop
      vertex 14.8788 3.478 2.4
      vertex 14.8788 0.556992 1.6
      vertex 14.8788 0.556992 2.4
    endloop
  endfacet
  facet normal 0.41365 0.910436 -0
    outer loop
      vertex 19.8068 1.239 1.6
      vertex 14.8788 3.478 2.4
      vertex 19.8068 1.239 2.4
    endloop
  endfacet
  facet normal 0.41365 0.910436 0
    outer loop
      vertex 14.8788 3.478 2.4
      vertex 19.8068 1.239 1.6
      vertex 14.8788 3.478 1.6
    endloop
  endfacet
  facet normal -1 0 0
    outer loop
      vertex 19.8068 1.239 1.6
      vertex 19.8068 2.76298 2.4
      vertex 19.8068 2.76298 1.6
    endloop
  endfacet
  facet normal -1 -0 0
    outer loop
      vertex 19.8068 2.76298 2.4
      vertex 19.8068 1.239 1.6
      vertex 19.8068 1.239 2.4
    endloop
  endfacet
  facet normal -0.414122 -0.910221 0
    outer loop
      vertex 14.6108 5.127 1.6
      vertex 19.8068 2.76298 2.4
      vertex 14.6108 5.127 2.4
    endloop
  endfacet
  facet normal -0.414122 -0.910221 -0
    outer loop
      vertex 19.8068 2.76298 2.4
      vertex 14.6108 5.127 1.6
      vertex 19.8068 2.76298 1.6
    endloop
  endfacet
endsolid OpenSCAD_Model
