solid OpenSCAD_Model
  facet normal 0 0 -1
    outer loop
      vertex 31.6 0 0
      vertex 35.75 0 0
      vertex 35.4849 -1.92905 0
    endloop
  endfacet
  facet normal 0 0 -1
    outer loop
      vertex 31.0271 -1.76336 0
      vertex 35.4849 -1.92905 0
      vertex 34.7091 -3.71502 0
    endloop
  endfacet
  facet normal 0 0 -1
    outer loop
      vertex 35.75 0 0
      vertex 31.6 0 0
      vertex 35.4849 1.92905 0
    endloop
  endfacet
  facet normal 0 0 -1
    outer loop
      vertex 31.0271 -1.76336 0
      vertex 34.7091 -3.71502 0
      vertex 33.4803 -5.22548 0
    endloop
  endfacet
  facet normal 0 0 -1
    outer loop
      vertex 31.0271 1.76336 0
      vertex 35.4849 1.92905 0
      vertex 31.6 0 0
    endloop
  endfacet
  facet normal 0 0 -1
    outer loop
      vertex 29.5271 -2.85317 0
      vertex 33.4803 -5.22548 0
      vertex 31.8895 -6.34838 0
    endloop
  endfacet
  facet normal -0 0 -1
    outer loop
      vertex 35.4849 1.92905 0
      vertex 31.0271 1.76336 0
      vertex 34.7091 3.71502 0
    endloop
  endfacet
  facet normal -0 0 -1
    outer loop
      vertex 34.7091 3.71502 0
      vertex 31.0271 1.76336 0
      vertex 33.4803 5.22548 0
    endloop
  endfacet
  facet normal 0 0 -1
    outer loop
      vertex 35.4849 -1.92905 0
      vertex 31.0271 -1.76336 0
      vertex 31.6 0 0
    endloop
  endfacet
  facet normal 0 0 -1
    outer loop
      vertex 29.5271 -2.85317 0
      vertex 31.8895 -6.34838 0
      vertex 30.0547 -7.00045 0
    endloop
  endfacet
  facet normal 0 0 -1
    outer loop
      vertex 33.4803 -5.22548 0
      vertex 29.5271 -2.85317 0
      vertex 31.0271 -1.76336 0
    endloop
  endfacet
  facet normal 0 0 -1
    outer loop
      vertex 30.0547 -7.00045 0
      vertex 27.673 -2.85317 0
      vertex 29.5271 -2.85317 0
    endloop
  endfacet
  facet normal 0 0 -1
    outer loop
      vertex 30.0547 -7.00045 0
      vertex 26.173 -1.76336 0
      vertex 27.673 -2.85317 0
    endloop
  endfacet
  facet normal 0 0 -1
    outer loop
      vertex 11.0531 -2.3494 0
      vertex 25.6 0 0
      vertex 26.173 -1.76336 0
    endloop
  endfacet
  facet normal 0 0 -1
    outer loop
      vertex 10.3231 -4.59612 0
      vertex 26.173 -1.76336 0
      vertex 30.0547 -7.00045 0
    endloop
  endfacet
  facet normal -0 0 -1
    outer loop
      vertex 25.6 0 0
      vertex 11.0531 -2.3494 0
      vertex 11.3 0 0
    endloop
  endfacet
  facet normal 0 0 -1
    outer loop
      vertex 26.173 -1.76336 0
      vertex 10.3231 -4.59612 0
      vertex 11.0531 -2.3494 0
    endloop
  endfacet
  facet normal 0 0 -1
    outer loop
      vertex 30.0547 -7.00045 0
      vertex 9.14189 -6.64197 0
      vertex 10.3231 -4.59612 0
    endloop
  endfacet
  facet normal -0 0 -1
    outer loop
      vertex 30.0547 -7.00045 0
      vertex 7.56118 -8.39754 0
      vertex 9.14189 -6.64197 0
    endloop
  endfacet
  facet normal 0 0 -1
    outer loop
      vertex 4.41894 -13.6001 0
      vertex 7.56118 -8.39754 0
      vertex 30.0547 -7.00045 0
    endloop
  endfacet
  facet normal 0 0 -1
    outer loop
      vertex 7.56118 -8.39754 0
      vertex 4.41894 -13.6001 0
      vertex 5.65 -9.78609 0
    endloop
  endfacet
  facet normal 0 0 -1
    outer loop
      vertex 4.41894 -13.6001 0
      vertex 3.49189 -10.7469 0
      vertex 5.65 -9.78609 0
    endloop
  endfacet
  facet normal 0 0 -1
    outer loop
      vertex 1.49476 -14.2217 0
      vertex 3.49189 -10.7469 0
      vertex 4.41894 -13.6001 0
    endloop
  endfacet
  facet normal 0 0 -1
    outer loop
      vertex 1.49476 -14.2217 0
      vertex 1.18117 -11.2381 0
      vertex 3.49189 -10.7469 0
    endloop
  endfacet
  facet normal 0 0 -1
    outer loop
      vertex 1.49476 -14.2217 0
      vertex -1.18117 -11.2381 0
      vertex 1.18117 -11.2381 0
    endloop
  endfacet
  facet normal 0 0 -1
    outer loop
      vertex -1.49476 -14.2217 0
      vertex -1.18117 -11.2381 0
      vertex 1.49476 -14.2217 0
    endloop
  endfacet
  facet normal 0 0 -1
    outer loop
      vertex -1.49476 -14.2217 0
      vertex -3.49189 -10.7469 0
      vertex -1.18117 -11.2381 0
    endloop
  endfacet
  facet normal 0 0 -1
    outer loop
      vertex -4.41894 -13.6001 0
      vertex -3.49189 -10.7469 0
      vertex -1.49476 -14.2217 0
    endloop
  endfacet
  facet normal 0 0 -1
    outer loop
      vertex -4.41894 -13.6001 0
      vertex -5.65 -9.78609 0
      vertex -3.49189 -10.7469 0
    endloop
  endfacet
  facet normal 0 0 -1
    outer loop
      vertex -7.15 -12.3842 0
      vertex -5.65 -9.78609 0
      vertex -4.41894 -13.6001 0
    endloop
  endfacet
  facet normal 0 0 -1
    outer loop
      vertex -7.15 -12.3842 0
      vertex -7.56118 -8.39754 0
      vertex -5.65 -9.78609 0
    endloop
  endfacet
  facet normal 0 0 -1
    outer loop
      vertex -9.56857 -10.627 0
      vertex -7.56118 -8.39754 0
      vertex -7.15 -12.3842 0
    endloop
  endfacet
  facet normal -0 0 -1
    outer loop
      vertex -7.56118 -8.39754 0
      vertex -9.56857 -10.627 0
      vertex -9.14189 -6.64197 0
    endloop
  endfacet
  facet normal 0 0 -1
    outer loop
      vertex -11.5689 -8.40533 0
      vertex -9.14189 -6.64197 0
      vertex -9.56857 -10.627 0
    endloop
  endfacet
  facet normal -0 0 -1
    outer loop
      vertex -9.14189 -6.64197 0
      vertex -11.5689 -8.40533 0
      vertex -10.3231 -4.59612 0
    endloop
  endfacet
  facet normal -0 0 -1
    outer loop
      vertex -10.3231 -4.59612 0
      vertex -13.0637 -5.81633 0
      vertex -11.0531 -2.3494 0
    endloop
  endfacet
  facet normal 0 0 -1
    outer loop
      vertex -13.0637 -5.81633 0
      vertex -10.3231 -4.59612 0
      vertex -11.5689 -8.40533 0
    endloop
  endfacet
  facet normal 0 0 -1
    outer loop
      vertex 29.5271 2.85317 0
      vertex 33.4803 5.22548 0
      vertex 31.0271 1.76336 0
    endloop
  endfacet
  facet normal -0 0 -1
    outer loop
      vertex 33.4803 5.22548 0
      vertex 29.5271 2.85317 0
      vertex 31.8895 6.34838 0
    endloop
  endfacet
  facet normal -0 0 -1
    outer loop
      vertex 31.8895 6.34838 0
      vertex 29.5271 2.85317 0
      vertex 30.0547 7.00045 0
    endloop
  endfacet
  facet normal 0 0 -1
    outer loop
      vertex 27.673 2.85317 0
      vertex 30.0547 7.00045 0
      vertex 29.5271 2.85317 0
    endloop
  endfacet
  facet normal 0 0 -1
    outer loop
      vertex 26.173 1.76336 0
      vertex 30.0547 7.00045 0
      vertex 27.673 2.85317 0
    endloop
  endfacet
  facet normal 0 0 -1
    outer loop
      vertex 11.0531 2.3494 0
      vertex 25.6 0 0
      vertex 11.3 0 0
    endloop
  endfacet
  facet normal 0 0 -1
    outer loop
      vertex 25.6 0 0
      vertex 11.0531 2.3494 0
      vertex 26.173 1.76336 0
    endloop
  endfacet
  facet normal 0 0 -1
    outer loop
      vertex 10.3231 4.59612 0
      vertex 26.173 1.76336 0
      vertex 11.0531 2.3494 0
    endloop
  endfacet
  facet normal 0 0 -1
    outer loop
      vertex 26.173 1.76336 0
      vertex 10.3231 4.59612 0
      vertex 30.0547 7.00045 0
    endloop
  endfacet
  facet normal 0 0 -1
    outer loop
      vertex 9.14189 6.64197 0
      vertex 30.0547 7.00045 0
      vertex 10.3231 4.59612 0
    endloop
  endfacet
  facet normal 0 0 -1
    outer loop
      vertex 7.56118 8.39754 0
      vertex 30.0547 7.00045 0
      vertex 9.14189 6.64197 0
    endloop
  endfacet
  facet normal 0 0 -1
    outer loop
      vertex 4.41894 13.6001 0
      vertex 7.56118 8.39754 0
      vertex 5.65 9.78609 0
    endloop
  endfacet
  facet normal 0 0 -1
    outer loop
      vertex 7.56118 8.39754 0
      vertex 4.41894 13.6001 0
      vertex 30.0547 7.00045 0
    endloop
  endfacet
  facet normal 0 0 -1
    outer loop
      vertex 3.49189 10.7469 0
      vertex 4.41894 13.6001 0
      vertex 5.65 9.78609 0
    endloop
  endfacet
  facet normal 0 0 -1
    outer loop
      vertex 3.49189 10.7469 0
      vertex 1.49476 14.2217 0
      vertex 4.41894 13.6001 0
    endloop
  endfacet
  facet normal 0 0 -1
    outer loop
      vertex 1.18117 11.2381 0
      vertex 1.49476 14.2217 0
      vertex 3.49189 10.7469 0
    endloop
  endfacet
  facet normal 0 0 -1
    outer loop
      vertex -1.18117 11.2381 0
      vertex 1.49476 14.2217 0
      vertex 1.18117 11.2381 0
    endloop
  endfacet
  facet normal 0 0 -1
    outer loop
      vertex -1.18117 11.2381 0
      vertex -1.49476 14.2217 0
      vertex 1.49476 14.2217 0
    endloop
  endfacet
  facet normal 0 0 -1
    outer loop
      vertex -3.49189 10.7469 0
      vertex -1.49476 14.2217 0
      vertex -1.18117 11.2381 0
    endloop
  endfacet
  facet normal 0 0 -1
    outer loop
      vertex -3.49189 10.7469 0
      vertex -4.41894 13.6001 0
      vertex -1.49476 14.2217 0
    endloop
  endfacet
  facet normal 0 0 -1
    outer loop
      vertex -5.65 9.78609 0
      vertex -4.41894 13.6001 0
      vertex -3.49189 10.7469 0
    endloop
  endfacet
  facet normal 0 0 -1
    outer loop
      vertex -5.65 9.78609 0
      vertex -7.15 12.3842 0
      vertex -4.41894 13.6001 0
    endloop
  endfacet
  facet normal 0 0 -1
    outer loop
      vertex -7.56118 8.39754 0
      vertex -7.15 12.3842 0
      vertex -5.65 9.78609 0
    endloop
  endfacet
  facet normal 0 0 -1
    outer loop
      vertex -9.56857 10.627 0
      vertex -7.56118 8.39754 0
      vertex -9.14189 6.64197 0
    endloop
  endfacet
  facet normal 0 0 -1
    outer loop
      vertex -7.56118 8.39754 0
      vertex -9.56857 10.627 0
      vertex -7.15 12.3842 0
    endloop
  endfacet
  facet normal 0 0 -1
    outer loop
      vertex -11.5689 8.40533 0
      vertex -9.14189 6.64197 0
      vertex -10.3231 4.59612 0
    endloop
  endfacet
  facet normal 0 0 -1
    outer loop
      vertex -13.0637 5.81633 0
      vertex -10.3231 4.59612 0
      vertex -11.0531 2.3494 0
    endloop
  endfacet
  facet normal 0 0 -1
    outer loop
      vertex -9.14189 6.64197 0
      vertex -11.5689 8.40533 0
      vertex -9.56857 10.627 0
    endloop
  endfacet
  facet normal 0 0 -1
    outer loop
      vertex -13.9875 2.97314 0
      vertex -11.0531 2.3494 0
      vertex -11.3 0 0
    endloop
  endfacet
  facet normal 0 0 -1
    outer loop
      vertex -13.9875 -2.97314 0
      vertex -11.0531 -2.3494 0
      vertex -13.0637 -5.81633 0
    endloop
  endfacet
  facet normal -0 0 -1
    outer loop
      vertex -11.0531 -2.3494 0
      vertex -13.9875 -2.97314 0
      vertex -11.3 0 0
    endloop
  endfacet
  facet normal 0 0 -1
    outer loop
      vertex -10.3231 4.59612 0
      vertex -13.0637 5.81633 0
      vertex -11.5689 8.40533 0
    endloop
  endfacet
  facet normal 0 0 -1
    outer loop
      vertex -14.3 0 0
      vertex -11.3 0 0
      vertex -13.9875 -2.97314 0
    endloop
  endfacet
  facet normal 0 0 -1
    outer loop
      vertex -11.0531 2.3494 0
      vertex -13.9875 2.97314 0
      vertex -13.0637 5.81633 0
    endloop
  endfacet
  facet normal 0 0 -1
    outer loop
      vertex -11.3 0 0
      vertex -14.3 0 0
      vertex -13.9875 2.97314 0
    endloop
  endfacet
  facet normal -0.951057 0.309017 0
    outer loop
      vertex -13.9875 2.97314 0
      vertex -13.0637 5.81633 4
      vertex -13.0637 5.81633 0
    endloop
  endfacet
  facet normal -0.951057 0.309017 0
    outer loop
      vertex -13.0637 5.81633 4
      vertex -13.9875 2.97314 0
      vertex -13.9875 2.97314 4
    endloop
  endfacet
  facet normal -0.994522 0.104529 0
    outer loop
      vertex -14.3 0 0
      vertex -13.9875 2.97314 4
      vertex -13.9875 2.97314 0
    endloop
  endfacet
  facet normal -0.994522 0.104529 0
    outer loop
      vertex -13.9875 2.97314 4
      vertex -14.3 0 0
      vertex -14.3 0 4
    endloop
  endfacet
  facet normal -0.994522 -0.104529 0
    outer loop
      vertex -13.9875 -2.97314 0
      vertex -14.3 0 4
      vertex -14.3 0 0
    endloop
  endfacet
  facet normal -0.994522 -0.104529 0
    outer loop
      vertex -14.3 0 4
      vertex -13.9875 -2.97314 0
      vertex -13.9875 -2.97314 4
    endloop
  endfacet
  facet normal 0 0 1
    outer loop
      vertex 21.9007 2.35599 2.4
      vertex 18.3168 0.937988 2.4
      vertex 21.9007 0.97499 2.4
    endloop
  endfacet
  facet normal 0 -0 1
    outer loop
      vertex 18.3168 0.937988 2.4
      vertex 21.9007 2.35599 2.4
      vertex 17.9968 2.35599 2.4
    endloop
  endfacet
  facet normal -0 0 1
    outer loop
      vertex 21.9007 0.97499 2.4
      vertex 22.9888 -2.89911 2.4
      vertex 22.9888 0.97499 2.4
    endloop
  endfacet
  facet normal 0 0 1
    outer loop
      vertex 17.7928 -0.535094 2.4
      vertex 21.9007 0.97499 2.4
      vertex 18.3168 0.937988 2.4
    endloop
  endfacet
  facet normal 0 0 1
    outer loop
      vertex 21.9007 0.97499 2.4
      vertex 17.7928 -0.535094 2.4
      vertex 22.9888 -2.89911 2.4
    endloop
  endfacet
  facet normal -0 0 1
    outer loop
      vertex 17.2288 0.937988 2.4
      vertex 17.7928 -0.535094 2.4
      vertex 18.3168 0.937988 2.4
    endloop
  endfacet
  facet normal 0 0 1
    outer loop
      vertex 17.2288 0.937988 2.4
      vertex 16.9088 -0.535094 2.4
      vertex 17.7928 -0.535094 2.4
    endloop
  endfacet
  facet normal 0 0 1
    outer loop
      vertex 14.3 0 2.4
      vertex 17.2288 0.937988 2.4
      vertex 16.9088 2.34799 2.4
    endloop
  endfacet
  facet normal 0 0 1
    outer loop
      vertex 31.6 0 2.4
      vertex 35.75 0 2.4
      vertex 35.4849 1.92905 2.4
    endloop
  endfacet
  facet normal 0 0 1
    outer loop
      vertex 31.0271 1.76336 2.4
      vertex 35.4849 1.92905 2.4
      vertex 34.7091 3.71502 2.4
    endloop
  endfacet
  facet normal 0 0 1
    outer loop
      vertex 35.75 0 2.4
      vertex 31.6 0 2.4
      vertex 35.4849 -1.92905 2.4
    endloop
  endfacet
  facet normal 0 0 1
    outer loop
      vertex 31.0271 1.76336 2.4
      vertex 34.7091 3.71502 2.4
      vertex 33.4803 5.22548 2.4
    endloop
  endfacet
  facet normal -0 0 1
    outer loop
      vertex 31.0271 -1.76336 2.4
      vertex 35.4849 -1.92905 2.4
      vertex 31.6 0 2.4
    endloop
  endfacet
  facet normal 0 0 1
    outer loop
      vertex 29.5271 2.85317 2.4
      vertex 33.4803 5.22548 2.4
      vertex 31.8895 6.34838 2.4
    endloop
  endfacet
  facet normal 0 0 1
    outer loop
      vertex 35.4849 -1.92905 2.4
      vertex 31.0271 -1.76336 2.4
      vertex 34.7091 -3.71502 2.4
    endloop
  endfacet
  facet normal 0 0 1
    outer loop
      vertex 34.7091 -3.71502 2.4
      vertex 31.0271 -1.76336 2.4
      vertex 33.4803 -5.22548 2.4
    endloop
  endfacet
  facet normal 0 0 1
    outer loop
      vertex 35.4849 1.92905 2.4
      vertex 31.0271 1.76336 2.4
      vertex 31.6 0 2.4
    endloop
  endfacet
  facet normal 0 0 1
    outer loop
      vertex 29.5271 2.85317 2.4
      vertex 31.8895 6.34838 2.4
      vertex 30.0547 7.00045 2.4
    endloop
  endfacet
  facet normal 0 0 1
    outer loop
      vertex 33.4803 5.22548 2.4
      vertex 29.5271 2.85317 2.4
      vertex 31.0271 1.76336 2.4
    endloop
  endfacet
  facet normal 0 0 1
    outer loop
      vertex 30.0547 7.00045 2.4
      vertex 27.673 2.85317 2.4
      vertex 29.5271 2.85317 2.4
    endloop
  endfacet
  facet normal -0 0 1
    outer loop
      vertex 22.9888 5.21599 2.4
      vertex 27.673 2.85317 2.4
      vertex 30.0547 7.00045 2.4
    endloop
  endfacet
  facet normal 0 0 1
    outer loop
      vertex 22.9888 0.97499 2.4
      vertex 26.173 1.76336 2.4
      vertex 22.9888 5.21599 2.4
    endloop
  endfacet
  facet normal 0 0 1
    outer loop
      vertex 27.673 2.85317 2.4
      vertex 22.9888 5.21599 2.4
      vertex 26.173 1.76336 2.4
    endloop
  endfacet
  facet normal 0 0 1
    outer loop
      vertex 30.0547 7.00045 2.4
      vertex 21.9007 5.21599 2.4
      vertex 22.9888 5.21599 2.4
    endloop
  endfacet
  facet normal 0 0 1
    outer loop
      vertex 21.9007 5.21599 2.4
      vertex 16.9088 3.83499 2.4
      vertex 21.9007 3.83499 2.4
    endloop
  endfacet
  facet normal -0 0 1
    outer loop
      vertex 13.9875 2.97314 2.4
      vertex 16.9088 2.34799 2.4
      vertex 16.9088 3.83499 2.4
    endloop
  endfacet
  facet normal 0 0 1
    outer loop
      vertex 17.2288 0.937988 2.4
      vertex 14.3 0 2.4
      vertex 16.9088 -0.535094 2.4
    endloop
  endfacet
  facet normal 0 0 1
    outer loop
      vertex 13.9875 -2.97314 2.4
      vertex 16.9088 -0.535094 2.4
      vertex 14.3 0 2.4
    endloop
  endfacet
  facet normal 0 0 1
    outer loop
      vertex 16.9088 2.34799 2.4
      vertex 13.9875 2.97314 2.4
      vertex 14.3 0 2.4
    endloop
  endfacet
  facet normal 0 0 1
    outer loop
      vertex 16.9088 3.83499 2.4
      vertex 13.0637 5.81633 2.4
      vertex 13.9875 2.97314 2.4
    endloop
  endfacet
  facet normal 0 0 1
    outer loop
      vertex 21.9007 5.21599 2.4
      vertex 13.0637 5.81633 2.4
      vertex 16.9088 3.83499 2.4
    endloop
  endfacet
  facet normal 0 0 1
    outer loop
      vertex 9.56857 10.627 2.4
      vertex 21.9007 5.21599 2.4
      vertex 30.0547 7.00045 2.4
    endloop
  endfacet
  facet normal 0 0 1
    outer loop
      vertex 21.9007 5.21599 2.4
      vertex 11.5689 8.40533 2.4
      vertex 13.0637 5.81633 2.4
    endloop
  endfacet
  facet normal 0 0 1
    outer loop
      vertex 21.9007 5.21599 2.4
      vertex 9.56857 10.627 2.4
      vertex 11.5689 8.40533 2.4
    endloop
  endfacet
  facet normal 0 0 1
    outer loop
      vertex 30.0547 7.00045 2.4
      vertex 7.15 12.3842 2.4
      vertex 9.56857 10.627 2.4
    endloop
  endfacet
  facet normal -0 -0 1
    outer loop
      vertex 7.15 12.3842 2.4
      vertex 30.0547 7.00045 2.4
      vertex 4.41894 13.6001 2.4
    endloop
  endfacet
  facet normal -0 0 1
    outer loop
      vertex 29.5271 -2.85317 2.4
      vertex 33.4803 -5.22548 2.4
      vertex 31.0271 -1.76336 2.4
    endloop
  endfacet
  facet normal 0 0 1
    outer loop
      vertex 33.4803 -5.22548 2.4
      vertex 29.5271 -2.85317 2.4
      vertex 31.8895 -6.34838 2.4
    endloop
  endfacet
  facet normal 0 0 1
    outer loop
      vertex 31.8895 -6.34838 2.4
      vertex 29.5271 -2.85317 2.4
      vertex 30.0547 -7.00045 2.4
    endloop
  endfacet
  facet normal -0 0 1
    outer loop
      vertex 27.673 -2.85317 2.4
      vertex 30.0547 -7.00045 2.4
      vertex 29.5271 -2.85317 2.4
    endloop
  endfacet
  facet normal 0 0 1
    outer loop
      vertex 22.9888 -4.4231 2.4
      vertex 27.673 -2.85317 2.4
      vertex 26.173 -1.76336 2.4
    endloop
  endfacet
  facet normal 0 0 1
    outer loop
      vertex 26.173 1.76336 2.4
      vertex 22.9888 0.97499 2.4
      vertex 25.6 0 2.4
    endloop
  endfacet
  facet normal 0 0 1
    outer loop
      vertex 22.9888 -2.89911 2.4
      vertex 25.6 0 2.4
      vertex 22.9888 0.97499 2.4
    endloop
  endfacet
  facet normal 0 0 1
    outer loop
      vertex 25.6 0 2.4
      vertex 22.9888 -2.89911 2.4
      vertex 26.173 -1.76336 2.4
    endloop
  endfacet
  facet normal 0 0 1
    outer loop
      vertex 22.9888 -4.4231 2.4
      vertex 26.173 -1.76336 2.4
      vertex 22.9888 -2.89911 2.4
    endloop
  endfacet
  facet normal 0 0 1
    outer loop
      vertex 27.673 -2.85317 2.4
      vertex 22.9888 -4.4231 2.4
      vertex 30.0547 -7.00045 2.4
    endloop
  endfacet
  facet normal 0 0 1
    outer loop
      vertex 18.0608 -5.1051 2.4
      vertex 22.9888 -4.4231 2.4
      vertex 18.0608 -2.1841 2.4
    endloop
  endfacet
  facet normal -0 0 1
    outer loop
      vertex 18.0608 -5.1051 2.4
      vertex 30.0547 -7.00045 2.4
      vertex 22.9888 -4.4231 2.4
    endloop
  endfacet
  facet normal 0 0 1
    outer loop
      vertex 11.5689 -8.40533 2.4
      vertex 18.0608 -5.1051 2.4
      vertex 16.9088 -5.1051 2.4
    endloop
  endfacet
  facet normal 0 0 1
    outer loop
      vertex 16.9088 -0.535094 2.4
      vertex 13.9875 -2.97314 2.4
      vertex 16.9088 -5.1051 2.4
    endloop
  endfacet
  facet normal 0 0 1
    outer loop
      vertex 13.0637 -5.81633 2.4
      vertex 16.9088 -5.1051 2.4
      vertex 13.9875 -2.97314 2.4
    endloop
  endfacet
  facet normal 0 0 1
    outer loop
      vertex 11.5689 -8.40533 2.4
      vertex 16.9088 -5.1051 2.4
      vertex 13.0637 -5.81633 2.4
    endloop
  endfacet
  facet normal 0 0 1
    outer loop
      vertex 9.56857 -10.627 2.4
      vertex 18.0608 -5.1051 2.4
      vertex 11.5689 -8.40533 2.4
    endloop
  endfacet
  facet normal 0 0 1
    outer loop
      vertex 18.0608 -5.1051 2.4
      vertex 9.56857 -10.627 2.4
      vertex 30.0547 -7.00045 2.4
    endloop
  endfacet
  facet normal 0 0 1
    outer loop
      vertex 7.15 -12.3842 2.4
      vertex 30.0547 -7.00045 2.4
      vertex 9.56857 -10.627 2.4
    endloop
  endfacet
  facet normal 0 0 1
    outer loop
      vertex 30.0547 -7.00045 2.4
      vertex 7.15 -12.3842 2.4
      vertex 4.41894 -13.6001 2.4
    endloop
  endfacet
  facet normal 0.207912 0.978148 -0
    outer loop
      vertex 4.41894 13.6001 2.4
      vertex 1.49476 14.2217 4
      vertex 4.41894 13.6001 4
    endloop
  endfacet
  facet normal 0.207912 0.978148 0
    outer loop
      vertex 1.49476 14.2217 0
      vertex 4.41894 13.6001 2.4
      vertex 4.41894 13.6001 0
    endloop
  endfacet
  facet normal 0.207912 0.978148 0
    outer loop
      vertex 4.41894 13.6001 2.4
      vertex 1.49476 14.2217 0
      vertex 1.49476 14.2217 4
    endloop
  endfacet
  facet normal -0.587785 0.809017 0
    outer loop
      vertex -7.15 12.3842 0
      vertex -9.56857 10.627 4
      vertex -7.15 12.3842 4
    endloop
  endfacet
  facet normal -0.587785 0.809017 0
    outer loop
      vertex -9.56857 10.627 4
      vertex -7.15 12.3842 0
      vertex -9.56857 10.627 0
    endloop
  endfacet
  facet normal 0.207912 -0.978148 0
    outer loop
      vertex 1.49476 -14.2217 4
      vertex 4.41894 -13.6001 2.4
      vertex 4.41894 -13.6001 4
    endloop
  endfacet
  facet normal 0.207912 -0.978148 0
    outer loop
      vertex 1.49476 -14.2217 0
      vertex 4.41894 -13.6001 2.4
      vertex 1.49476 -14.2217 4
    endloop
  endfacet
  facet normal 0.207912 -0.978148 0
    outer loop
      vertex 4.41894 -13.6001 2.4
      vertex 1.49476 -14.2217 0
      vertex 4.41894 -13.6001 0
    endloop
  endfacet
  facet normal 0.990686 -0.136166 0
    outer loop
      vertex 35.4849 -1.92905 2.4
      vertex 35.75 0 0
      vertex 35.75 0 2.4
    endloop
  endfacet
  facet normal 0.990686 -0.136166 0
    outer loop
      vertex 35.75 0 0
      vertex 35.4849 -1.92905 2.4
      vertex 35.4849 -1.92905 0
    endloop
  endfacet
  facet normal 0.57668 0.81697 -0
    outer loop
      vertex 33.4803 5.22548 0
      vertex 31.8895 6.34838 2.4
      vertex 33.4803 5.22548 2.4
    endloop
  endfacet
  facet normal 0.57668 0.81697 0
    outer loop
      vertex 31.8895 6.34838 2.4
      vertex 33.4803 5.22548 0
      vertex 31.8895 6.34838 0
    endloop
  endfacet
  facet normal 0.33488 0.942261 -0
    outer loop
      vertex 31.8895 6.34838 0
      vertex 30.0547 7.00045 2.4
      vertex 31.8895 6.34838 2.4
    endloop
  endfacet
  facet normal 0.33488 0.942261 0
    outer loop
      vertex 30.0547 7.00045 2.4
      vertex 31.8895 6.34838 0
      vertex 30.0547 7.00045 0
    endloop
  endfacet
  facet normal -0.587785 -0.809017 0
    outer loop
      vertex -9.56857 -10.627 0
      vertex -7.15 -12.3842 4
      vertex -9.56857 -10.627 4
    endloop
  endfacet
  facet normal -0.587785 -0.809017 -0
    outer loop
      vertex -7.15 -12.3842 4
      vertex -9.56857 -10.627 0
      vertex -7.15 -12.3842 0
    endloop
  endfacet
  facet normal -0.207912 -0.978148 0
    outer loop
      vertex -4.41894 -13.6001 0
      vertex -1.49476 -14.2217 4
      vertex -4.41894 -13.6001 4
    endloop
  endfacet
  facet normal -0.207912 -0.978148 -0
    outer loop
      vertex -1.49476 -14.2217 4
      vertex -4.41894 -13.6001 0
      vertex -1.49476 -14.2217 0
    endloop
  endfacet
  facet normal -0.951057 -0.309017 0
    outer loop
      vertex -13.0637 -5.81633 0
      vertex -13.9875 -2.97314 4
      vertex -13.9875 -2.97314 0
    endloop
  endfacet
  facet normal -0.951057 -0.309017 0
    outer loop
      vertex -13.9875 -2.97314 4
      vertex -13.0637 -5.81633 0
      vertex -13.0637 -5.81633 4
    endloop
  endfacet
  facet normal 0.917211 0.398401 0
    outer loop
      vertex 35.4849 1.92905 2.4
      vertex 34.7091 3.71502 0
      vertex 34.7091 3.71502 2.4
    endloop
  endfacet
  facet normal 0.917211 0.398401 0
    outer loop
      vertex 34.7091 3.71502 0
      vertex 35.4849 1.92905 2.4
      vertex 35.4849 1.92905 0
    endloop
  endfacet
  facet normal 0.990686 0.136166 0
    outer loop
      vertex 35.75 0 2.4
      vertex 35.4849 1.92905 0
      vertex 35.4849 1.92905 2.4
    endloop
  endfacet
  facet normal 0.990686 0.136166 0
    outer loop
      vertex 35.4849 1.92905 0
      vertex 35.75 0 2.4
      vertex 35.75 0 0
    endloop
  endfacet
  facet normal 0.775711 0.631088 0
    outer loop
      vertex 34.7091 3.71502 2.4
      vertex 33.4803 5.22548 0
      vertex 33.4803 5.22548 2.4
    endloop
  endfacet
  facet normal 0.775711 0.631088 0
    outer loop
      vertex 33.4803 5.22548 0
      vertex 34.7091 3.71502 2.4
      vertex 34.7091 3.71502 0
    endloop
  endfacet
  facet normal 0.24931 0.968424 -0
    outer loop
      vertex 30.0547 7.00045 0
      vertex 4.41894 13.6001 2.4
      vertex 30.0547 7.00045 2.4
    endloop
  endfacet
  facet normal 0.24931 0.968424 0
    outer loop
      vertex 4.41894 13.6001 2.4
      vertex 30.0547 7.00045 0
      vertex 4.41894 13.6001 0
    endloop
  endfacet
  facet normal -0.207912 0.978148 0
    outer loop
      vertex -1.49476 14.2217 0
      vertex -4.41894 13.6001 4
      vertex -1.49476 14.2217 4
    endloop
  endfacet
  facet normal -0.207912 0.978148 0
    outer loop
      vertex -4.41894 13.6001 4
      vertex -1.49476 14.2217 0
      vertex -4.41894 13.6001 0
    endloop
  endfacet
  facet normal 0 1 -0
    outer loop
      vertex 1.49476 14.2217 0
      vertex -1.49476 14.2217 4
      vertex 1.49476 14.2217 4
    endloop
  endfacet
  facet normal 0 1 0
    outer loop
      vertex -1.49476 14.2217 4
      vertex 1.49476 14.2217 0
      vertex -1.49476 14.2217 0
    endloop
  endfacet
  facet normal -0.406736 0.913546 0
    outer loop
      vertex -4.41894 13.6001 0
      vertex -7.15 12.3842 4
      vertex -4.41894 13.6001 4
    endloop
  endfacet
  facet normal -0.406736 0.913546 0
    outer loop
      vertex -7.15 12.3842 4
      vertex -4.41894 13.6001 0
      vertex -7.15 12.3842 0
    endloop
  endfacet
  facet normal -0.743145 0.66913 0
    outer loop
      vertex -11.5689 8.40533 0
      vertex -9.56857 10.627 4
      vertex -9.56857 10.627 0
    endloop
  endfacet
  facet normal -0.743145 0.66913 0
    outer loop
      vertex -9.56857 10.627 4
      vertex -11.5689 8.40533 0
      vertex -11.5689 8.40533 4
    endloop
  endfacet
  facet normal -0.866025 0.5 0
    outer loop
      vertex -13.0637 5.81633 0
      vertex -11.5689 8.40533 4
      vertex -11.5689 8.40533 0
    endloop
  endfacet
  facet normal -0.866025 0.5 0
    outer loop
      vertex -11.5689 8.40533 4
      vertex -13.0637 5.81633 0
      vertex -13.0637 5.81633 4
    endloop
  endfacet
  facet normal 0.917211 -0.398401 0
    outer loop
      vertex 34.7091 -3.71502 2.4
      vertex 35.4849 -1.92905 0
      vertex 35.4849 -1.92905 2.4
    endloop
  endfacet
  facet normal 0.917211 -0.398401 0
    outer loop
      vertex 35.4849 -1.92905 0
      vertex 34.7091 -3.71502 2.4
      vertex 34.7091 -3.71502 0
    endloop
  endfacet
  facet normal 0.33488 -0.942261 0
    outer loop
      vertex 30.0547 -7.00045 0
      vertex 31.8895 -6.34838 2.4
      vertex 30.0547 -7.00045 2.4
    endloop
  endfacet
  facet normal 0.33488 -0.942261 0
    outer loop
      vertex 31.8895 -6.34838 2.4
      vertex 30.0547 -7.00045 0
      vertex 31.8895 -6.34838 0
    endloop
  endfacet
  facet normal 0 -1 0
    outer loop
      vertex -1.49476 -14.2217 0
      vertex 1.49476 -14.2217 4
      vertex -1.49476 -14.2217 4
    endloop
  endfacet
  facet normal 0 -1 -0
    outer loop
      vertex 1.49476 -14.2217 4
      vertex -1.49476 -14.2217 0
      vertex 1.49476 -14.2217 0
    endloop
  endfacet
  facet normal -0.866025 -0.5 0
    outer loop
      vertex -11.5689 -8.40533 0
      vertex -13.0637 -5.81633 4
      vertex -13.0637 -5.81633 0
    endloop
  endfacet
  facet normal -0.866025 -0.5 0
    outer loop
      vertex -13.0637 -5.81633 4
      vertex -11.5689 -8.40533 0
      vertex -11.5689 -8.40533 4
    endloop
  endfacet
  facet normal -0.743145 -0.66913 0
    outer loop
      vertex -9.56857 -10.627 0
      vertex -11.5689 -8.40533 4
      vertex -11.5689 -8.40533 0
    endloop
  endfacet
  facet normal -0.743145 -0.66913 0
    outer loop
      vertex -11.5689 -8.40533 4
      vertex -9.56857 -10.627 0
      vertex -9.56857 -10.627 4
    endloop
  endfacet
  facet normal 0.775711 -0.631088 0
    outer loop
      vertex 33.4803 -5.22548 2.4
      vertex 34.7091 -3.71502 0
      vertex 34.7091 -3.71502 2.4
    endloop
  endfacet
  facet normal 0.775711 -0.631088 0
    outer loop
      vertex 34.7091 -3.71502 0
      vertex 33.4803 -5.22548 2.4
      vertex 33.4803 -5.22548 0
    endloop
  endfacet
  facet normal 0.57668 -0.81697 0
    outer loop
      vertex 31.8895 -6.34838 0
      vertex 33.4803 -5.22548 2.4
      vertex 31.8895 -6.34838 2.4
    endloop
  endfacet
  facet normal 0.57668 -0.81697 0
    outer loop
      vertex 33.4803 -5.22548 2.4
      vertex 31.8895 -6.34838 0
      vertex 33.4803 -5.22548 0
    endloop
  endfacet
  facet normal 0.24931 -0.968424 0
    outer loop
      vertex 4.41894 -13.6001 0
      vertex 30.0547 -7.00045 2.4
      vertex 4.41894 -13.6001 2.4
    endloop
  endfacet
  facet normal 0.24931 -0.968424 0
    outer loop
      vertex 30.0547 -7.00045 2.4
      vertex 4.41894 -13.6001 0
      vertex 30.0547 -7.00045 0
    endloop
  endfacet
  facet normal -0.406736 -0.913546 0
    outer loop
      vertex -7.15 -12.3842 0
      vertex -4.41894 -13.6001 4
      vertex -7.15 -12.3842 4
    endloop
  endfacet
  facet normal -0.406736 -0.913546 -0
    outer loop
      vertex -4.41894 -13.6001 4
      vertex -7.15 -12.3842 0
      vertex -4.41894 -13.6001 0
    endloop
  endfacet
  facet normal 0.994522 -0.104529 0
    outer loop
      vertex 13.9875 -2.97314 4
      vertex 14.3 0 2.4
      vertex 14.3 0 4
    endloop
  endfacet
  facet normal 0.994522 -0.104529 0
    outer loop
      vertex 14.3 0 2.4
      vertex 13.9875 -2.97314 4
      vertex 13.9875 -2.97314 2.4
    endloop
  endfacet
  facet normal 0.951057 0.309017 0
    outer loop
      vertex 13.9875 2.97314 4
      vertex 13.0637 5.81633 2.4
      vertex 13.0637 5.81633 4
    endloop
  endfacet
  facet normal 0.951057 0.309017 0
    outer loop
      vertex 13.0637 5.81633 2.4
      vertex 13.9875 2.97314 4
      vertex 13.9875 2.97314 2.4
    endloop
  endfacet
  facet normal 0.994522 0.104529 0
    outer loop
      vertex 14.3 0 4
      vertex 13.9875 2.97314 2.4
      vertex 13.9875 2.97314 4
    endloop
  endfacet
  facet normal 0.994522 0.104529 0
    outer loop
      vertex 13.9875 2.97314 2.4
      vertex 14.3 0 4
      vertex 14.3 0 2.4
    endloop
  endfacet
  facet normal 0.587785 0.809017 -0
    outer loop
      vertex 9.56857 10.627 2.4
      vertex 7.15 12.3842 4
      vertex 9.56857 10.627 4
    endloop
  endfacet
  facet normal 0.587785 0.809017 0
    outer loop
      vertex 7.15 12.3842 4
      vertex 9.56857 10.627 2.4
      vertex 7.15 12.3842 2.4
    endloop
  endfacet
  facet normal 0 0 1
    outer loop
      vertex 11.3 0 4
      vertex 14.3 0 4
      vertex 13.9875 2.97314 4
    endloop
  endfacet
  facet normal 0 0 1
    outer loop
      vertex 11.0531 2.3494 4
      vertex 13.9875 2.97314 4
      vertex 13.0637 5.81633 4
    endloop
  endfacet
  facet normal 0 0 1
    outer loop
      vertex 14.3 0 4
      vertex 11.3 0 4
      vertex 13.9875 -2.97314 4
    endloop
  endfacet
  facet normal 0 0 1
    outer loop
      vertex 10.3231 4.59612 4
      vertex 13.0637 5.81633 4
      vertex 11.5689 8.40533 4
    endloop
  endfacet
  facet normal -0 0 1
    outer loop
      vertex 11.0531 -2.3494 4
      vertex 13.9875 -2.97314 4
      vertex 11.3 0 4
    endloop
  endfacet
  facet normal 0 0 1
    outer loop
      vertex 13.9875 -2.97314 4
      vertex 11.0531 -2.3494 4
      vertex 13.0637 -5.81633 4
    endloop
  endfacet
  facet normal 0 0 1
    outer loop
      vertex 13.9875 2.97314 4
      vertex 11.0531 2.3494 4
      vertex 11.3 0 4
    endloop
  endfacet
  facet normal 0 0 1
    outer loop
      vertex 13.0637 5.81633 4
      vertex 10.3231 4.59612 4
      vertex 11.0531 2.3494 4
    endloop
  endfacet
  facet normal 0 0 1
    outer loop
      vertex 9.14189 6.64197 4
      vertex 11.5689 8.40533 4
      vertex 9.56857 10.627 4
    endloop
  endfacet
  facet normal 0 0 1
    outer loop
      vertex 11.5689 8.40533 4
      vertex 9.14189 6.64197 4
      vertex 10.3231 4.59612 4
    endloop
  endfacet
  facet normal 0 0 1
    outer loop
      vertex 9.56857 10.627 4
      vertex 7.56118 8.39754 4
      vertex 9.14189 6.64197 4
    endloop
  endfacet
  facet normal 0 0 1
    outer loop
      vertex 7.15 12.3842 4
      vertex 7.56118 8.39754 4
      vertex 9.56857 10.627 4
    endloop
  endfacet
  facet normal 0 0 1
    outer loop
      vertex 7.15 12.3842 4
      vertex 5.65 9.78609 4
      vertex 7.56118 8.39754 4
    endloop
  endfacet
  facet normal 0 0 1
    outer loop
      vertex 4.41894 13.6001 4
      vertex 5.65 9.78609 4
      vertex 7.15 12.3842 4
    endloop
  endfacet
  facet normal 0 0 1
    outer loop
      vertex 4.41894 13.6001 4
      vertex 3.49189 10.7469 4
      vertex 5.65 9.78609 4
    endloop
  endfacet
  facet normal 0 0 1
    outer loop
      vertex 1.49476 14.2217 4
      vertex 3.49189 10.7469 4
      vertex 4.41894 13.6001 4
    endloop
  endfacet
  facet normal 0 0 1
    outer loop
      vertex 1.49476 14.2217 4
      vertex 1.18117 11.2381 4
      vertex 3.49189 10.7469 4
    endloop
  endfacet
  facet normal 0 0 1
    outer loop
      vertex 1.49476 14.2217 4
      vertex -1.18117 11.2381 4
      vertex 1.18117 11.2381 4
    endloop
  endfacet
  facet normal -0 0 1
    outer loop
      vertex -1.49476 14.2217 4
      vertex -1.18117 11.2381 4
      vertex 1.49476 14.2217 4
    endloop
  endfacet
  facet normal 0 0 1
    outer loop
      vertex -1.49476 14.2217 4
      vertex -3.49189 10.7469 4
      vertex -1.18117 11.2381 4
    endloop
  endfacet
  facet normal -0 0 1
    outer loop
      vertex -4.41894 13.6001 4
      vertex -3.49189 10.7469 4
      vertex -1.49476 14.2217 4
    endloop
  endfacet
  facet normal 0 0 1
    outer loop
      vertex -4.41894 13.6001 4
      vertex -5.65 9.78609 4
      vertex -3.49189 10.7469 4
    endloop
  endfacet
  facet normal -0 0 1
    outer loop
      vertex -7.15 12.3842 4
      vertex -5.65 9.78609 4
      vertex -4.41894 13.6001 4
    endloop
  endfacet
  facet normal 0 0 1
    outer loop
      vertex -7.15 12.3842 4
      vertex -7.56118 8.39754 4
      vertex -5.65 9.78609 4
    endloop
  endfacet
  facet normal -0 0 1
    outer loop
      vertex -9.56857 10.627 4
      vertex -7.56118 8.39754 4
      vertex -7.15 12.3842 4
    endloop
  endfacet
  facet normal 0 0 1
    outer loop
      vertex -7.56118 8.39754 4
      vertex -9.56857 10.627 4
      vertex -9.14189 6.64197 4
    endloop
  endfacet
  facet normal -0 0 1
    outer loop
      vertex -11.5689 8.40533 4
      vertex -9.14189 6.64197 4
      vertex -9.56857 10.627 4
    endloop
  endfacet
  facet normal 0 0 1
    outer loop
      vertex -9.14189 6.64197 4
      vertex -11.5689 8.40533 4
      vertex -10.3231 4.59612 4
    endloop
  endfacet
  facet normal 0 0 1
    outer loop
      vertex -10.3231 4.59612 4
      vertex -13.0637 5.81633 4
      vertex -11.0531 2.3494 4
    endloop
  endfacet
  facet normal -0 0 1
    outer loop
      vertex -13.0637 5.81633 4
      vertex -10.3231 4.59612 4
      vertex -11.5689 8.40533 4
    endloop
  endfacet
  facet normal -0 0 1
    outer loop
      vertex 10.3231 -4.59612 4
      vertex 13.0637 -5.81633 4
      vertex 11.0531 -2.3494 4
    endloop
  endfacet
  facet normal 0 0 1
    outer loop
      vertex 13.0637 -5.81633 4
      vertex 10.3231 -4.59612 4
      vertex 11.5689 -8.40533 4
    endloop
  endfacet
  facet normal -0 0 1
    outer loop
      vertex 9.14189 -6.64197 4
      vertex 11.5689 -8.40533 4
      vertex 10.3231 -4.59612 4
    endloop
  endfacet
  facet normal 0 0 1
    outer loop
      vertex 11.5689 -8.40533 4
      vertex 9.14189 -6.64197 4
      vertex 9.56857 -10.627 4
    endloop
  endfacet
  facet normal -0 0 1
    outer loop
      vertex 7.56118 -8.39754 4
      vertex 9.56857 -10.627 4
      vertex 9.14189 -6.64197 4
    endloop
  endfacet
  facet normal 0 0 1
    outer loop
      vertex 7.56118 -8.39754 4
      vertex 7.15 -12.3842 4
      vertex 9.56857 -10.627 4
    endloop
  endfacet
  facet normal -0 0 1
    outer loop
      vertex 5.65 -9.78609 4
      vertex 7.15 -12.3842 4
      vertex 7.56118 -8.39754 4
    endloop
  endfacet
  facet normal 0 0 1
    outer loop
      vertex 5.65 -9.78609 4
      vertex 4.41894 -13.6001 4
      vertex 7.15 -12.3842 4
    endloop
  endfacet
  facet normal -0 0 1
    outer loop
      vertex 3.49189 -10.7469 4
      vertex 4.41894 -13.6001 4
      vertex 5.65 -9.78609 4
    endloop
  endfacet
  facet normal 0 0 1
    outer loop
      vertex 3.49189 -10.7469 4
      vertex 1.49476 -14.2217 4
      vertex 4.41894 -13.6001 4
    endloop
  endfacet
  facet normal -0 0 1
    outer loop
      vertex 1.18117 -11.2381 4
      vertex 1.49476 -14.2217 4
      vertex 3.49189 -10.7469 4
    endloop
  endfacet
  facet normal -0 0 1
    outer loop
      vertex -1.18117 -11.2381 4
      vertex 1.49476 -14.2217 4
      vertex 1.18117 -11.2381 4
    endloop
  endfacet
  facet normal 0 0 1
    outer loop
      vertex -1.18117 -11.2381 4
      vertex -1.49476 -14.2217 4
      vertex 1.49476 -14.2217 4
    endloop
  endfacet
  facet normal 0 0 1
    outer loop
      vertex -3.49189 -10.7469 4
      vertex -1.49476 -14.2217 4
      vertex -1.18117 -11.2381 4
    endloop
  endfacet
  facet normal 0 0 1
    outer loop
      vertex -3.49189 -10.7469 4
      vertex -4.41894 -13.6001 4
      vertex -1.49476 -14.2217 4
    endloop
  endfacet
  facet normal 0 0 1
    outer loop
      vertex -5.65 -9.78609 4
      vertex -4.41894 -13.6001 4
      vertex -3.49189 -10.7469 4
    endloop
  endfacet
  facet normal 0 0 1
    outer loop
      vertex -5.65 -9.78609 4
      vertex -7.15 -12.3842 4
      vertex -4.41894 -13.6001 4
    endloop
  endfacet
  facet normal 0 0 1
    outer loop
      vertex -7.56118 -8.39754 4
      vertex -7.15 -12.3842 4
      vertex -5.65 -9.78609 4
    endloop
  endfacet
  facet normal 0 0 1
    outer loop
      vertex -9.56857 -10.627 4
      vertex -7.56118 -8.39754 4
      vertex -9.14189 -6.64197 4
    endloop
  endfacet
  facet normal 0 0 1
    outer loop
      vertex -7.56118 -8.39754 4
      vertex -9.56857 -10.627 4
      vertex -7.15 -12.3842 4
    endloop
  endfacet
  facet normal 0 0 1
    outer loop
      vertex -11.5689 -8.40533 4
      vertex -9.14189 -6.64197 4
      vertex -10.3231 -4.59612 4
    endloop
  endfacet
  facet normal 0 0 1
    outer loop
      vertex -13.0637 -5.81633 4
      vertex -10.3231 -4.59612 4
      vertex -11.0531 -2.3494 4
    endloop
  endfacet
  facet normal 0 0 1
    outer loop
      vertex -9.14189 -6.64197 4
      vertex -11.5689 -8.40533 4
      vertex -9.56857 -10.627 4
    endloop
  endfacet
  facet normal 0 0 1
    outer loop
      vertex -13.9875 -2.97314 4
      vertex -11.0531 -2.3494 4
      vertex -11.3 0 4
    endloop
  endfacet
  facet normal -0 0 1
    outer loop
      vertex -13.9875 2.97314 4
      vertex -11.0531 2.3494 4
      vertex -13.0637 5.81633 4
    endloop
  endfacet
  facet normal 0 0 1
    outer loop
      vertex -11.0531 2.3494 4
      vertex -13.9875 2.97314 4
      vertex -11.3 0 4
    endloop
  endfacet
  facet normal 0 0 1
    outer loop
      vertex -10.3231 -4.59612 4
      vertex -13.0637 -5.81633 4
      vertex -11.5689 -8.40533 4
    endloop
  endfacet
  facet normal 0 0 1
    outer loop
      vertex -14.3 0 4
      vertex -11.3 0 4
      vertex -13.9875 2.97314 4
    endloop
  endfacet
  facet normal 0 0 1
    outer loop
      vertex -11.0531 -2.3494 4
      vertex -13.9875 -2.97314 4
      vertex -13.0637 -5.81633 4
    endloop
  endfacet
  facet normal 0 0 1
    outer loop
      vertex -11.3 0 4
      vertex -14.3 0 4
      vertex -13.9875 -2.97314 4
    endloop
  endfacet
  facet normal 0.866025 0.5 0
    outer loop
      vertex 13.0637 5.81633 4
      vertex 11.5689 8.40533 2.4
      vertex 11.5689 8.40533 4
    endloop
  endfacet
  facet normal 0.866025 0.5 0
    outer loop
      vertex 11.5689 8.40533 2.4
      vertex 13.0637 5.81633 4
      vertex 13.0637 5.81633 2.4
    endloop
  endfacet
  facet normal 0.587785 -0.809017 0
    outer loop
      vertex 7.15 -12.3842 2.4
      vertex 9.56857 -10.627 4
      vertex 7.15 -12.3842 4
    endloop
  endfacet
  facet normal 0.587785 -0.809017 0
    outer loop
      vertex 9.56857 -10.627 4
      vertex 7.15 -12.3842 2.4
      vertex 9.56857 -10.627 2.4
    endloop
  endfacet
  facet normal 0.743145 -0.66913 0
    outer loop
      vertex 9.56857 -10.627 4
      vertex 11.5689 -8.40533 2.4
      vertex 11.5689 -8.40533 4
    endloop
  endfacet
  facet normal 0.743145 -0.66913 0
    outer loop
      vertex 11.5689 -8.40533 2.4
      vertex 9.56857 -10.627 4
      vertex 9.56857 -10.627 2.4
    endloop
  endfacet
  facet normal 0.951057 -0.309017 0
    outer loop
      vertex 13.0637 -5.81633 4
      vertex 13.9875 -2.97314 2.4
      vertex 13.9875 -2.97314 4
    endloop
  endfacet
  facet normal 0.951057 -0.309017 0
    outer loop
      vertex 13.9875 -2.97314 2.4
      vertex 13.0637 -5.81633 4
      vertex 13.0637 -5.81633 2.4
    endloop
  endfacet
  facet normal 0.406736 0.913546 -0
    outer loop
      vertex 7.15 12.3842 2.4
      vertex 4.41894 13.6001 4
      vertex 7.15 12.3842 4
    endloop
  endfacet
  facet normal 0.406736 0.913546 0
    outer loop
      vertex 4.41894 13.6001 4
      vertex 7.15 12.3842 2.4
      vertex 4.41894 13.6001 2.4
    endloop
  endfacet
  facet normal 0.743145 0.66913 0
    outer loop
      vertex 11.5689 8.40533 4
      vertex 9.56857 10.627 2.4
      vertex 9.56857 10.627 4
    endloop
  endfacet
  facet normal 0.743145 0.66913 0
    outer loop
      vertex 9.56857 10.627 2.4
      vertex 11.5689 8.40533 4
      vertex 11.5689 8.40533 2.4
    endloop
  endfacet
  facet normal 0.406736 -0.913546 0
    outer loop
      vertex 4.41894 -13.6001 2.4
      vertex 7.15 -12.3842 4
      vertex 4.41894 -13.6001 4
    endloop
  endfacet
  facet normal 0.406736 -0.913546 0
    outer loop
      vertex 7.15 -12.3842 4
      vertex 4.41894 -13.6001 2.4
      vertex 7.15 -12.3842 2.4
    endloop
  endfacet
  facet normal 0.866025 -0.5 0
    outer loop
      vertex 11.5689 -8.40533 4
      vertex 13.0637 -5.81633 2.4
      vertex 13.0637 -5.81633 4
    endloop
  endfacet
  facet normal 0.866025 -0.5 0
    outer loop
      vertex 13.0637 -5.81633 2.4
      vertex 11.5689 -8.40533 4
      vertex 11.5689 -8.40533 2.4
    endloop
  endfacet
  facet normal -0.866025 -0.5 0
    outer loop
      vertex 10.3231 4.59612 0
      vertex 9.14189 6.64197 4
      vertex 9.14189 6.64197 0
    endloop
  endfacet
  facet normal -0.866025 -0.5 0
    outer loop
      vertex 9.14189 6.64197 4
      vertex 10.3231 4.59612 0
      vertex 10.3231 4.59612 4
    endloop
  endfacet
  facet normal -0.743145 -0.66913 0
    outer loop
      vertex 9.14189 6.64197 0
      vertex 7.56118 8.39754 4
      vertex 7.56118 8.39754 0
    endloop
  endfacet
  facet normal -0.743145 -0.66913 0
    outer loop
      vertex 7.56118 8.39754 4
      vertex 9.14189 6.64197 0
      vertex 9.14189 6.64197 4
    endloop
  endfacet
  facet normal -0.406737 -0.913545 0
    outer loop
      vertex 3.49189 10.7469 0
      vertex 5.65 9.78609 4
      vertex 3.49189 10.7469 4
    endloop
  endfacet
  facet normal -0.406737 -0.913545 -0
    outer loop
      vertex 5.65 9.78609 4
      vertex 3.49189 10.7469 0
      vertex 5.65 9.78609 0
    endloop
  endfacet
  facet normal 0.207912 -0.978148 0
    outer loop
      vertex -3.49189 10.7469 0
      vertex -1.18117 11.2381 4
      vertex -3.49189 10.7469 4
    endloop
  endfacet
  facet normal 0.207912 -0.978148 0
    outer loop
      vertex -1.18117 11.2381 4
      vertex -3.49189 10.7469 0
      vertex -1.18117 11.2381 0
    endloop
  endfacet
  facet normal 0.866025 -0.5 0
    outer loop
      vertex -10.3231 4.59612 4
      vertex -9.14189 6.64197 0
      vertex -9.14189 6.64197 4
    endloop
  endfacet
  facet normal 0.866025 -0.5 0
    outer loop
      vertex -9.14189 6.64197 0
      vertex -10.3231 4.59612 4
      vertex -10.3231 4.59612 0
    endloop
  endfacet
  facet normal -0.994522 0.104528 0
    outer loop
      vertex 11.0531 -2.3494 0
      vertex 11.3 0 4
      vertex 11.3 0 0
    endloop
  endfacet
  facet normal -0.994522 0.104528 0
    outer loop
      vertex 11.3 0 4
      vertex 11.0531 -2.3494 0
      vertex 11.0531 -2.3494 4
    endloop
  endfacet
  facet normal -0.207912 0.978148 0
    outer loop
      vertex 3.49189 -10.7469 0
      vertex 1.18117 -11.2381 4
      vertex 3.49189 -10.7469 4
    endloop
  endfacet
  facet normal -0.207912 0.978148 0
    outer loop
      vertex 1.18117 -11.2381 4
      vertex 3.49189 -10.7469 0
      vertex 1.18117 -11.2381 0
    endloop
  endfacet
  facet normal -0.951057 -0.309017 0
    outer loop
      vertex 11.0531 2.3494 0
      vertex 10.3231 4.59612 4
      vertex 10.3231 4.59612 0
    endloop
  endfacet
  facet normal -0.951057 -0.309017 0
    outer loop
      vertex 10.3231 4.59612 4
      vertex 11.0531 2.3494 0
      vertex 11.0531 2.3494 4
    endloop
  endfacet
  facet normal 0 -1 0
    outer loop
      vertex -1.18117 11.2381 0
      vertex 1.18117 11.2381 4
      vertex -1.18117 11.2381 4
    endloop
  endfacet
  facet normal 0 -1 -0
    outer loop
      vertex 1.18117 11.2381 4
      vertex -1.18117 11.2381 0
      vertex 1.18117 11.2381 0
    endloop
  endfacet
  facet normal -0.587785 -0.809017 0
    outer loop
      vertex 5.65 9.78609 0
      vertex 7.56118 8.39754 4
      vertex 5.65 9.78609 4
    endloop
  endfacet
  facet normal -0.587785 -0.809017 -0
    outer loop
      vertex 7.56118 8.39754 4
      vertex 5.65 9.78609 0
      vertex 7.56118 8.39754 0
    endloop
  endfacet
  facet normal 0.994522 -0.104528 0
    outer loop
      vertex -11.3 0 4
      vertex -11.0531 2.3494 0
      vertex -11.0531 2.3494 4
    endloop
  endfacet
  facet normal 0.994522 -0.104528 0
    outer loop
      vertex -11.0531 2.3494 0
      vertex -11.3 0 4
      vertex -11.3 0 0
    endloop
  endfacet
  facet normal 0.743145 -0.66913 0
    outer loop
      vertex -9.14189 6.64197 4
      vertex -7.56118 8.39754 0
      vertex -7.56118 8.39754 4
    endloop
  endfacet
  facet normal 0.743145 -0.66913 0
    outer loop
      vertex -7.56118 8.39754 0
      vertex -9.14189 6.64197 4
      vertex -9.14189 6.64197 0
    endloop
  endfacet
  facet normal 0.406737 -0.913545 0
    outer loop
      vertex -5.65 9.78609 0
      vertex -3.49189 10.7469 4
      vertex -5.65 9.78609 4
    endloop
  endfacet
  facet normal 0.406737 -0.913545 0
    outer loop
      vertex -3.49189 10.7469 4
      vertex -5.65 9.78609 0
      vertex -3.49189 10.7469 0
    endloop
  endfacet
  facet normal 0.587785 -0.809017 0
    outer loop
      vertex -7.56118 8.39754 0
      vertex -5.65 9.78609 4
      vertex -7.56118 8.39754 4
    endloop
  endfacet
  facet normal 0.587785 -0.809017 0
    outer loop
      vertex -5.65 9.78609 4
      vertex -7.56118 8.39754 0
      vertex -5.65 9.78609 0
    endloop
  endfacet
  facet normal -0.994522 -0.104528 0
    outer loop
      vertex 11.3 0 0
      vertex 11.0531 2.3494 4
      vertex 11.0531 2.3494 0
    endloop
  endfacet
  facet normal -0.994522 -0.104528 0
    outer loop
      vertex 11.0531 2.3494 4
      vertex 11.3 0 0
      vertex 11.3 0 4
    endloop
  endfacet
  facet normal -0.951057 0.309017 0
    outer loop
      vertex 10.3231 -4.59612 0
      vertex 11.0531 -2.3494 4
      vertex 11.0531 -2.3494 0
    endloop
  endfacet
  facet normal -0.951057 0.309017 0
    outer loop
      vertex 11.0531 -2.3494 4
      vertex 10.3231 -4.59612 0
      vertex 10.3231 -4.59612 4
    endloop
  endfacet
  facet normal 0.587785 0.809017 -0
    outer loop
      vertex -5.65 -9.78609 0
      vertex -7.56118 -8.39754 4
      vertex -5.65 -9.78609 4
    endloop
  endfacet
  facet normal 0.587785 0.809017 0
    outer loop
      vertex -7.56118 -8.39754 4
      vertex -5.65 -9.78609 0
      vertex -7.56118 -8.39754 0
    endloop
  endfacet
  facet normal 0.866025 0.5 0
    outer loop
      vertex -9.14189 -6.64197 4
      vertex -10.3231 -4.59612 0
      vertex -10.3231 -4.59612 4
    endloop
  endfacet
  facet normal 0.866025 0.5 0
    outer loop
      vertex -10.3231 -4.59612 0
      vertex -9.14189 -6.64197 4
      vertex -9.14189 -6.64197 0
    endloop
  endfacet
  facet normal -0.587785 0.809017 0
    outer loop
      vertex 7.56118 -8.39754 0
      vertex 5.65 -9.78609 4
      vertex 7.56118 -8.39754 4
    endloop
  endfacet
  facet normal -0.587785 0.809017 0
    outer loop
      vertex 5.65 -9.78609 4
      vertex 7.56118 -8.39754 0
      vertex 5.65 -9.78609 0
    endloop
  endfacet
  facet normal -0.207912 -0.978148 0
    outer loop
      vertex 1.18117 11.2381 0
      vertex 3.49189 10.7469 4
      vertex 1.18117 11.2381 4
    endloop
  endfacet
  facet normal -0.207912 -0.978148 -0
    outer loop
      vertex 3.49189 10.7469 4
      vertex 1.18117 11.2381 0
      vertex 3.49189 10.7469 0
    endloop
  endfacet
  facet normal 0.951057 -0.309017 0
    outer loop
      vertex -11.0531 2.3494 4
      vertex -10.3231 4.59612 0
      vertex -10.3231 4.59612 4
    endloop
  endfacet
  facet normal 0.951057 -0.309017 0
    outer loop
      vertex -10.3231 4.59612 0
      vertex -11.0531 2.3494 4
      vertex -11.0531 2.3494 0
    endloop
  endfacet
  facet normal -0.866025 0.5 0
    outer loop
      vertex 9.14189 -6.64197 0
      vertex 10.3231 -4.59612 4
      vertex 10.3231 -4.59612 0
    endloop
  endfacet
  facet normal -0.866025 0.5 0
    outer loop
      vertex 10.3231 -4.59612 4
      vertex 9.14189 -6.64197 0
      vertex 9.14189 -6.64197 4
    endloop
  endfacet
  facet normal 0.994522 0.104528 0
    outer loop
      vertex -11.0531 -2.3494 4
      vertex -11.3 0 0
      vertex -11.3 0 4
    endloop
  endfacet
  facet normal 0.994522 0.104528 0
    outer loop
      vertex -11.3 0 0
      vertex -11.0531 -2.3494 4
      vertex -11.0531 -2.3494 0
    endloop
  endfacet
  facet normal 0.743145 0.66913 0
    outer loop
      vertex -7.56118 -8.39754 4
      vertex -9.14189 -6.64197 0
      vertex -9.14189 -6.64197 4
    endloop
  endfacet
  facet normal 0.743145 0.66913 0
    outer loop
      vertex -9.14189 -6.64197 0
      vertex -7.56118 -8.39754 4
      vertex -7.56118 -8.39754 0
    endloop
  endfacet
  facet normal -0.406737 0.913545 0
    outer loop
      vertex 5.65 -9.78609 0
      vertex 3.49189 -10.7469 4
      vertex 5.65 -9.78609 4
    endloop
  endfacet
  facet normal -0.406737 0.913545 0
    outer loop
      vertex 3.49189 -10.7469 4
      vertex 5.65 -9.78609 0
      vertex 3.49189 -10.7469 0
    endloop
  endfacet
  facet normal 0 1 -0
    outer loop
      vertex 1.18117 -11.2381 0
      vertex -1.18117 -11.2381 4
      vertex 1.18117 -11.2381 4
    endloop
  endfacet
  facet normal 0 1 0
    outer loop
      vertex -1.18117 -11.2381 4
      vertex 1.18117 -11.2381 0
      vertex -1.18117 -11.2381 0
    endloop
  endfacet
  facet normal 0.207912 0.978148 -0
    outer loop
      vertex -1.18117 -11.2381 0
      vertex -3.49189 -10.7469 4
      vertex -1.18117 -11.2381 4
    endloop
  endfacet
  facet normal 0.207912 0.978148 0
    outer loop
      vertex -3.49189 -10.7469 4
      vertex -1.18117 -11.2381 0
      vertex -3.49189 -10.7469 0
    endloop
  endfacet
  facet normal 0.951057 0.309017 0
    outer loop
      vertex -10.3231 -4.59612 4
      vertex -11.0531 -2.3494 0
      vertex -11.0531 -2.3494 4
    endloop
  endfacet
  facet normal 0.951057 0.309017 0
    outer loop
      vertex -11.0531 -2.3494 0
      vertex -10.3231 -4.59612 4
      vertex -10.3231 -4.59612 0
    endloop
  endfacet
  facet normal -0.743145 0.66913 0
    outer loop
      vertex 7.56118 -8.39754 0
      vertex 9.14189 -6.64197 4
      vertex 9.14189 -6.64197 0
    endloop
  endfacet
  facet normal -0.743145 0.66913 0
    outer loop
      vertex 9.14189 -6.64197 4
      vertex 7.56118 -8.39754 0
      vertex 7.56118 -8.39754 4
    endloop
  endfacet
  facet normal 0.406737 0.913545 -0
    outer loop
      vertex -3.49189 -10.7469 0
      vertex -5.65 -9.78609 4
      vertex -3.49189 -10.7469 4
    endloop
  endfacet
  facet normal 0.406737 0.913545 0
    outer loop
      vertex -5.65 -9.78609 4
      vertex -3.49189 -10.7469 0
      vertex -5.65 -9.78609 0
    endloop
  endfacet
  facet normal -0.951057 -0.309017 0
    outer loop
      vertex 31.6 0 0
      vertex 31.0271 1.76336 2.4
      vertex 31.0271 1.76336 0
    endloop
  endfacet
  facet normal -0.951057 -0.309017 0
    outer loop
      vertex 31.0271 1.76336 2.4
      vertex 31.6 0 0
      vertex 31.6 0 2.4
    endloop
  endfacet
  facet normal 0.951057 -0.309017 0
    outer loop
      vertex 25.6 0 2.4
      vertex 26.173 1.76336 0
      vertex 26.173 1.76336 2.4
    endloop
  endfacet
  facet normal 0.951057 -0.309017 0
    outer loop
      vertex 26.173 1.76336 0
      vertex 25.6 0 2.4
      vertex 25.6 0 0
    endloop
  endfacet
  facet normal 0 -1 0
    outer loop
      vertex 27.673 2.85317 0
      vertex 29.5271 2.85317 2.4
      vertex 27.673 2.85317 2.4
    endloop
  endfacet
  facet normal 0 -1 -0
    outer loop
      vertex 29.5271 2.85317 2.4
      vertex 27.673 2.85317 0
      vertex 29.5271 2.85317 0
    endloop
  endfacet
  facet normal -0.587785 -0.809017 0
    outer loop
      vertex 29.5271 2.85317 0
      vertex 31.0271 1.76336 2.4
      vertex 29.5271 2.85317 2.4
    endloop
  endfacet
  facet normal -0.587785 -0.809017 -0
    outer loop
      vertex 31.0271 1.76336 2.4
      vertex 29.5271 2.85317 0
      vertex 31.0271 1.76336 0
    endloop
  endfacet
  facet normal 0.587785 -0.809017 0
    outer loop
      vertex 26.173 1.76336 0
      vertex 27.673 2.85317 2.4
      vertex 26.173 1.76336 2.4
    endloop
  endfacet
  facet normal 0.587785 -0.809017 0
    outer loop
      vertex 27.673 2.85317 2.4
      vertex 26.173 1.76336 0
      vertex 27.673 2.85317 0
    endloop
  endfacet
  facet normal -0.951057 0.309017 0
    outer loop
      vertex 31.0271 -1.76336 0
      vertex 31.6 0 2.4
      vertex 31.6 0 0
    endloop
  endfacet
  facet normal -0.951057 0.309017 0
    outer loop
      vertex 31.6 0 2.4
      vertex 31.0271 -1.76336 0
      vertex 31.0271 -1.76336 2.4
    endloop
  endfacet
  facet normal 0.951057 0.309017 0
    outer loop
      vertex 26.173 -1.76336 2.4
      vertex 25.6 0 0
      vertex 25.6 0 2.4
    endloop
  endfacet
  facet normal 0.951057 0.309017 0
    outer loop
      vertex 25.6 0 0
      vertex 26.173 -1.76336 2.4
      vertex 26.173 -1.76336 0
    endloop
  endfacet
  facet normal 0 1 -0
    outer loop
      vertex 29.5271 -2.85317 0
      vertex 27.673 -2.85317 2.4
      vertex 29.5271 -2.85317 2.4
    endloop
  endfacet
  facet normal 0 1 0
    outer loop
      vertex 27.673 -2.85317 2.4
      vertex 29.5271 -2.85317 0
      vertex 27.673 -2.85317 0
    endloop
  endfacet
  facet normal -0.587785 0.809017 0
    outer loop
      vertex 31.0271 -1.76336 0
      vertex 29.5271 -2.85317 2.4
      vertex 31.0271 -1.76336 2.4
    endloop
  endfacet
  facet normal -0.587785 0.809017 0
    outer loop
      vertex 29.5271 -2.85317 2.4
      vertex 31.0271 -1.76336 0
      vertex 29.5271 -2.85317 0
    endloop
  endfacet
  facet normal 0.587785 0.809017 -0
    outer loop
      vertex 27.673 -2.85317 0
      vertex 26.173 -1.76336 2.4
      vertex 27.673 -2.85317 2.4
    endloop
  endfacet
  facet normal 0.587785 0.809017 0
    outer loop
      vertex 26.173 -1.76336 2.4
      vertex 27.673 -2.85317 0
      vertex 26.173 -1.76336 0
    endloop
  endfacet
  facet normal 0 0 1
    outer loop
      vertex 22.9888 -2.89911 1.6
      vertex 18.0608 -2.1841 1.6
      vertex 22.9888 -4.4231 1.6
    endloop
  endfacet
  facet normal 0 0 1
    outer loop
      vertex 17.7928 -0.535094 1.6
      vertex 18.0608 -2.1841 1.6
      vertex 22.9888 -2.89911 1.6
    endloop
  endfacet
  facet normal -0 0 1
    outer loop
      vertex 16.9088 -0.535094 1.6
      vertex 18.0608 -2.1841 1.6
      vertex 17.7928 -0.535094 1.6
    endloop
  endfacet
  facet normal 0 0 1
    outer loop
      vertex 18.0608 -2.1841 1.6
      vertex 16.9088 -0.535094 1.6
      vertex 16.9088 -5.1051 1.6
    endloop
  endfacet
  facet normal 0 0 1
    outer loop
      vertex 18.0608 -2.1841 1.6
      vertex 16.9088 -5.1051 1.6
      vertex 18.0608 -5.1051 1.6
    endloop
  endfacet
  facet normal 0 0 1
    outer loop
      vertex 21.9007 3.83499 1.6
      vertex 17.9968 2.35599 1.6
      vertex 21.9007 2.35599 1.6
    endloop
  endfacet
  facet normal 0 0 1
    outer loop
      vertex 16.9088 3.83499 1.6
      vertex 17.9968 2.35599 1.6
      vertex 21.9007 3.83499 1.6
    endloop
  endfacet
  facet normal 0 0 1
    outer loop
      vertex 16.9088 2.34799 1.6
      vertex 17.9968 2.35599 1.6
      vertex 16.9088 3.83499 1.6
    endloop
  endfacet
  facet normal 0 0 1
    outer loop
      vertex 17.9968 2.35599 1.6
      vertex 16.9088 2.34799 1.6
      vertex 17.2288 0.937988 1.6
    endloop
  endfacet
  facet normal 0 0 1
    outer loop
      vertex 21.9007 3.83499 1.6
      vertex 22.9888 5.21599 1.6
      vertex 21.9007 5.21599 1.6
    endloop
  endfacet
  facet normal 0 0 1
    outer loop
      vertex 22.9888 5.21599 1.6
      vertex 21.9007 3.83499 1.6
      vertex 22.9888 0.97499 1.6
    endloop
  endfacet
  facet normal -0 0 1
    outer loop
      vertex 21.9007 2.35599 1.6
      vertex 22.9888 0.97499 1.6
      vertex 21.9007 3.83499 1.6
    endloop
  endfacet
  facet normal 0 0 1
    outer loop
      vertex 22.9888 0.97499 1.6
      vertex 21.9007 2.35599 1.6
      vertex 21.9007 0.97499 1.6
    endloop
  endfacet
  facet normal 0 0 1
    outer loop
      vertex 18.3168 0.937988 1.6
      vertex 17.9968 2.35599 1.6
      vertex 17.2288 0.937988 1.6
    endloop
  endfacet
  facet normal 0 -1 0
    outer loop
      vertex 16.9088 -0.535094 1.6
      vertex 17.7928 -0.535094 2.4
      vertex 16.9088 -0.535094 2.4
    endloop
  endfacet
  facet normal 0 -1 -0
    outer loop
      vertex 17.7928 -0.535094 2.4
      vertex 16.9088 -0.535094 1.6
      vertex 17.7928 -0.535094 1.6
    endloop
  endfacet
  facet normal 1 -0 0
    outer loop
      vertex 16.9088 -5.1051 2.4
      vertex 16.9088 -0.535094 1.6
      vertex 16.9088 -0.535094 2.4
    endloop
  endfacet
  facet normal 1 0 0
    outer loop
      vertex 16.9088 -0.535094 1.6
      vertex 16.9088 -5.1051 2.4
      vertex 16.9088 -5.1051 1.6
    endloop
  endfacet
  facet normal 8.27847e-07 1 -0
    outer loop
      vertex 18.0608 -5.1051 1.6
      vertex 16.9088 -5.1051 2.4
      vertex 18.0608 -5.1051 2.4
    endloop
  endfacet
  facet normal 8.27847e-07 1 0
    outer loop
      vertex 16.9088 -5.1051 2.4
      vertex 18.0608 -5.1051 1.6
      vertex 16.9088 -5.1051 1.6
    endloop
  endfacet
  facet normal -1 0 0
    outer loop
      vertex 18.0608 -5.1051 1.6
      vertex 18.0608 -2.1841 2.4
      vertex 18.0608 -2.1841 1.6
    endloop
  endfacet
  facet normal -1 -0 0
    outer loop
      vertex 18.0608 -2.1841 2.4
      vertex 18.0608 -5.1051 1.6
      vertex 18.0608 -5.1051 2.4
    endloop
  endfacet
  facet normal 0.41365 0.910436 -0
    outer loop
      vertex 22.9888 -4.4231 1.6
      vertex 18.0608 -2.1841 2.4
      vertex 22.9888 -4.4231 2.4
    endloop
  endfacet
  facet normal 0.41365 0.910436 0
    outer loop
      vertex 18.0608 -2.1841 2.4
      vertex 22.9888 -4.4231 1.6
      vertex 18.0608 -2.1841 1.6
    endloop
  endfacet
  facet normal -1 0 0
    outer loop
      vertex 22.9888 -4.4231 1.6
      vertex 22.9888 -2.89911 2.4
      vertex 22.9888 -2.89911 1.6
    endloop
  endfacet
  facet normal -1 -0 0
    outer loop
      vertex 22.9888 -2.89911 2.4
      vertex 22.9888 -4.4231 1.6
      vertex 22.9888 -4.4231 2.4
    endloop
  endfacet
  facet normal -0.414122 -0.910221 0
    outer loop
      vertex 17.7928 -0.535094 1.6
      vertex 22.9888 -2.89911 2.4
      vertex 17.7928 -0.535094 2.4
    endloop
  endfacet
  facet normal -0.414122 -0.910221 -0
    outer loop
      vertex 22.9888 -2.89911 2.4
      vertex 17.7928 -0.535094 1.6
      vertex 22.9888 -2.89911 1.6
    endloop
  endfacet
  facet normal 1 -0 0
    outer loop
      vertex 21.9007 3.83499 2.4
      vertex 21.9007 5.21599 1.6
      vertex 21.9007 5.21599 2.4
    endloop
  endfacet
  facet normal 1 0 0
    outer loop
      vertex 21.9007 5.21599 1.6
      vertex 21.9007 3.83499 2.4
      vertex 21.9007 3.83499 1.6
    endloop
  endfacet
  facet normal -1.91042e-07 -1 0
    outer loop
      vertex 16.9088 3.83499 1.6
      vertex 21.9007 3.83499 2.4
      vertex 16.9088 3.83499 2.4
    endloop
  endfacet
  facet normal -1.91042e-07 -1 -0
    outer loop
      vertex 21.9007 3.83499 2.4
      vertex 16.9088 3.83499 1.6
      vertex 21.9007 3.83499 1.6
    endloop
  endfacet
  facet normal 1 -0 0
    outer loop
      vertex 16.9088 2.34799 2.4
      vertex 16.9088 3.83499 1.6
      vertex 16.9088 3.83499 2.4
    endloop
  endfacet
  facet normal 1 0 0
    outer loop
      vertex 16.9088 3.83499 1.6
      vertex 16.9088 2.34799 2.4
      vertex 16.9088 2.34799 1.6
    endloop
  endfacet
  facet normal 0.975202 0.221316 0
    outer loop
      vertex 17.2288 0.937988 2.4
      vertex 16.9088 2.34799 1.6
      vertex 16.9088 2.34799 2.4
    endloop
  endfacet
  facet normal 0.975202 0.221316 0
    outer loop
      vertex 16.9088 2.34799 1.6
      vertex 17.2288 0.937988 2.4
      vertex 17.2288 0.937988 1.6
    endloop
  endfacet
  facet normal 0 1 -0
    outer loop
      vertex 18.3168 0.937988 1.6
      vertex 17.2288 0.937988 2.4
      vertex 18.3168 0.937988 2.4
    endloop
  endfacet
  facet normal 0 1 0
    outer loop
      vertex 17.2288 0.937988 2.4
      vertex 18.3168 0.937988 1.6
      vertex 17.2288 0.937988 1.6
    endloop
  endfacet
  facet normal -0.975471 -0.220129 0
    outer loop
      vertex 18.3168 0.937988 1.6
      vertex 17.9968 2.35599 2.4
      vertex 17.9968 2.35599 1.6
    endloop
  endfacet
  facet normal -0.975471 -0.220129 0
    outer loop
      vertex 17.9968 2.35599 2.4
      vertex 18.3168 0.937988 1.6
      vertex 18.3168 0.937988 2.4
    endloop
  endfacet
  facet normal 2.44283e-07 1 -0
    outer loop
      vertex 21.9007 2.35599 1.6
      vertex 17.9968 2.35599 2.4
      vertex 21.9007 2.35599 2.4
    endloop
  endfacet
  facet normal 2.44283e-07 1 0
    outer loop
      vertex 17.9968 2.35599 2.4
      vertex 21.9007 2.35599 1.6
      vertex 17.9968 2.35599 1.6
    endloop
  endfacet
  facet normal 1 -0 0
    outer loop
      vertex 21.9007 0.97499 2.4
      vertex 21.9007 2.35599 1.6
      vertex 21.9007 2.35599 2.4
    endloop
  endfacet
  facet normal 1 0 0
    outer loop
      vertex 21.9007 2.35599 1.6
      vertex 21.9007 0.97499 2.4
      vertex 21.9007 0.97499 1.6
    endloop
  endfacet
  facet normal 0 1 -0
    outer loop
      vertex 22.9888 0.97499 1.6
      vertex 21.9007 0.97499 2.4
      vertex 22.9888 0.97499 2.4
    endloop
  endfacet
  facet normal 0 1 0
    outer loop
      vertex 21.9007 0.97499 2.4
      vertex 22.9888 0.97499 1.6
      vertex 21.9007 0.97499 1.6
    endloop
  endfacet
  facet normal -1 0 0
    outer loop
      vertex 22.9888 0.97499 1.6
      vertex 22.9888 5.21599 2.4
      vertex 22.9888 5.21599 1.6
    endloop
  endfacet
  facet normal -1 -0 0
    outer loop
      vertex 22.9888 5.21599 2.4
      vertex 22.9888 0.97499 1.6
      vertex 22.9888 0.97499 2.4
    endloop
  endfacet
  facet normal -8.76529e-07 -1 0
    outer loop
      vertex 21.9007 5.21599 1.6
      vertex 22.9888 5.21599 2.4
      vertex 21.9007 5.21599 2.4
    endloop
  endfacet
  facet normal -8.76529e-07 -1 -0
    outer loop
      vertex 22.9888 5.21599 2.4
      vertex 21.9007 5.21599 1.6
      vertex 22.9888 5.21599 1.6
    endloop
  endfacet
endsolid OpenSCAD_Model
