solid OpenSCAD_Model
  facet normal 0 0 -1
    outer loop
      vertex 32.5549 0 0
      vertex 36.9437 0 0
      vertex 36.6919 -1.91234 0
    endloop
  endfacet
  facet normal 0 0 -1
    outer loop
      vertex 31.982 -1.76336 0
      vertex 36.6919 -1.91234 0
      vertex 35.9538 -3.69437 0
    endloop
  endfacet
  facet normal 0 0 -1
    outer loop
      vertex 36.9437 0 0
      vertex 32.5549 0 0
      vertex 36.6919 1.91234 0
    endloop
  endfacet
  facet normal 0 0 -1
    outer loop
      vertex 31.982 -1.76336 0
      vertex 35.9538 -3.69437 0
      vertex 34.7796 -5.22462 0
    endloop
  endfacet
  facet normal 0 0 -1
    outer loop
      vertex 31.982 1.76336 0
      vertex 36.6919 1.91234 0
      vertex 32.5549 0 0
    endloop
  endfacet
  facet normal 0 0 -1
    outer loop
      vertex 31.982 -1.76336 0
      vertex 34.7796 -5.22462 0
      vertex 33.2493 -6.39883 0
    endloop
  endfacet
  facet normal -0 0 -1
    outer loop
      vertex 36.6919 1.91234 0
      vertex 31.982 1.76336 0
      vertex 35.9538 3.69437 0
    endloop
  endfacet
  facet normal -0 0 -1
    outer loop
      vertex 35.9538 3.69437 0
      vertex 31.982 1.76336 0
      vertex 34.7796 5.22462 0
    endloop
  endfacet
  facet normal 0 0 -1
    outer loop
      vertex 36.6919 -1.91234 0
      vertex 31.982 -1.76336 0
      vertex 32.5549 0 0
    endloop
  endfacet
  facet normal 0 0 -1
    outer loop
      vertex 30.482 -2.85317 0
      vertex 33.2493 -6.39883 0
      vertex 31.4673 -7.13697 0
    endloop
  endfacet
  facet normal 0 0 -1
    outer loop
      vertex 33.2493 -6.39883 0
      vertex 30.482 -2.85317 0
      vertex 31.982 -1.76336 0
    endloop
  endfacet
  facet normal 0 0 -1
    outer loop
      vertex 31.4673 -7.13697 0
      vertex 28.6279 -2.85317 0
      vertex 30.482 -2.85317 0
    endloop
  endfacet
  facet normal 0 0 -1
    outer loop
      vertex 31.4673 -7.13697 0
      vertex 27.1279 -1.76336 0
      vertex 28.6279 -2.85317 0
    endloop
  endfacet
  facet normal 0 0 -1
    outer loop
      vertex 11.5201 -2.44867 0
      vertex 26.5549 0 0
      vertex 27.1279 -1.76336 0
    endloop
  endfacet
  facet normal 0 0 -1
    outer loop
      vertex 10.7592 -4.79033 0
      vertex 27.1279 -1.76336 0
      vertex 31.4673 -7.13697 0
    endloop
  endfacet
  facet normal -0 0 -1
    outer loop
      vertex 26.5549 0 0
      vertex 11.5201 -2.44867 0
      vertex 11.7775 0 0
    endloop
  endfacet
  facet normal 0 0 -1
    outer loop
      vertex 27.1279 -1.76336 0
      vertex 10.7592 -4.79033 0
      vertex 11.5201 -2.44867 0
    endloop
  endfacet
  facet normal 0 0 -1
    outer loop
      vertex 31.4673 -7.13697 0
      vertex 9.52817 -6.92262 0
      vertex 10.7592 -4.79033 0
    endloop
  endfacet
  facet normal -0 0 -1
    outer loop
      vertex 31.4673 -7.13697 0
      vertex 7.88066 -8.75236 0
      vertex 9.52817 -6.92262 0
    endloop
  endfacet
  facet normal 0 0 -1
    outer loop
      vertex 4.56649 -14.0542 0
      vertex 7.88066 -8.75236 0
      vertex 31.4673 -7.13697 0
    endloop
  endfacet
  facet normal 0 0 -1
    outer loop
      vertex 7.88066 -8.75236 0
      vertex 4.56649 -14.0542 0
      vertex 5.88873 -10.1996 0
    endloop
  endfacet
  facet normal 0 0 -1
    outer loop
      vertex 4.56649 -14.0542 0
      vertex 3.63944 -11.201 0
      vertex 5.88873 -10.1996 0
    endloop
  endfacet
  facet normal 0 0 -1
    outer loop
      vertex 1.54467 -14.6965 0
      vertex 3.63944 -11.201 0
      vertex 4.56649 -14.0542 0
    endloop
  endfacet
  facet normal 0 0 -1
    outer loop
      vertex 1.54467 -14.6965 0
      vertex 1.23108 -11.7129 0
      vertex 3.63944 -11.201 0
    endloop
  endfacet
  facet normal 0 0 -1
    outer loop
      vertex 1.54467 -14.6965 0
      vertex -1.23108 -11.7129 0
      vertex 1.23108 -11.7129 0
    endloop
  endfacet
  facet normal 0 0 -1
    outer loop
      vertex -1.54467 -14.6965 0
      vertex -1.23108 -11.7129 0
      vertex 1.54467 -14.6965 0
    endloop
  endfacet
  facet normal 0 0 -1
    outer loop
      vertex -1.54467 -14.6965 0
      vertex -3.63944 -11.201 0
      vertex -1.23108 -11.7129 0
    endloop
  endfacet
  facet normal 0 0 -1
    outer loop
      vertex -4.56649 -14.0542 0
      vertex -3.63944 -11.201 0
      vertex -1.54467 -14.6965 0
    endloop
  endfacet
  facet normal 0 0 -1
    outer loop
      vertex -4.56649 -14.0542 0
      vertex -5.88873 -10.1996 0
      vertex -3.63944 -11.201 0
    endloop
  endfacet
  facet normal 0 0 -1
    outer loop
      vertex -7.38873 -12.7977 0
      vertex -5.88873 -10.1996 0
      vertex -4.56649 -14.0542 0
    endloop
  endfacet
  facet normal 0 0 -1
    outer loop
      vertex -7.38873 -12.7977 0
      vertex -7.88066 -8.75236 0
      vertex -5.88873 -10.1996 0
    endloop
  endfacet
  facet normal 0 0 -1
    outer loop
      vertex -9.88805 -10.9818 0
      vertex -7.88066 -8.75236 0
      vertex -7.38873 -12.7977 0
    endloop
  endfacet
  facet normal -0 0 -1
    outer loop
      vertex -7.88066 -8.75236 0
      vertex -9.88805 -10.9818 0
      vertex -9.52817 -6.92262 0
    endloop
  endfacet
  facet normal 0 0 -1
    outer loop
      vertex -11.9552 -8.68598 0
      vertex -9.52817 -6.92262 0
      vertex -9.88805 -10.9818 0
    endloop
  endfacet
  facet normal -0 0 -1
    outer loop
      vertex -9.52817 -6.92262 0
      vertex -11.9552 -8.68598 0
      vertex -10.7592 -4.79033 0
    endloop
  endfacet
  facet normal -0 0 -1
    outer loop
      vertex -10.7592 -4.79033 0
      vertex -13.4999 -6.01054 0
      vertex -11.5201 -2.44867 0
    endloop
  endfacet
  facet normal 0 0 -1
    outer loop
      vertex -13.4999 -6.01054 0
      vertex -10.7592 -4.79033 0
      vertex -11.9552 -8.68598 0
    endloop
  endfacet
  facet normal -0 0 -1
    outer loop
      vertex 34.7796 5.22462 0
      vertex 31.982 1.76336 0
      vertex 33.2493 6.39883 0
    endloop
  endfacet
  facet normal 0 0 -1
    outer loop
      vertex 30.482 2.85317 0
      vertex 33.2493 6.39883 0
      vertex 31.982 1.76336 0
    endloop
  endfacet
  facet normal -0 0 -1
    outer loop
      vertex 33.2493 6.39883 0
      vertex 30.482 2.85317 0
      vertex 31.4673 7.13697 0
    endloop
  endfacet
  facet normal 0 0 -1
    outer loop
      vertex 28.6279 2.85317 0
      vertex 31.4673 7.13697 0
      vertex 30.482 2.85317 0
    endloop
  endfacet
  facet normal 0 0 -1
    outer loop
      vertex 27.1279 1.76336 0
      vertex 31.4673 7.13697 0
      vertex 28.6279 2.85317 0
    endloop
  endfacet
  facet normal 0 0 -1
    outer loop
      vertex 11.5201 2.44867 0
      vertex 26.5549 0 0
      vertex 11.7775 0 0
    endloop
  endfacet
  facet normal 0 0 -1
    outer loop
      vertex 26.5549 0 0
      vertex 11.5201 2.44867 0
      vertex 27.1279 1.76336 0
    endloop
  endfacet
  facet normal 0 0 -1
    outer loop
      vertex 10.7592 4.79033 0
      vertex 27.1279 1.76336 0
      vertex 11.5201 2.44867 0
    endloop
  endfacet
  facet normal 0 0 -1
    outer loop
      vertex 27.1279 1.76336 0
      vertex 10.7592 4.79033 0
      vertex 31.4673 7.13697 0
    endloop
  endfacet
  facet normal 0 0 -1
    outer loop
      vertex 9.52817 6.92262 0
      vertex 31.4673 7.13697 0
      vertex 10.7592 4.79033 0
    endloop
  endfacet
  facet normal 0 0 -1
    outer loop
      vertex 7.88066 8.75236 0
      vertex 31.4673 7.13697 0
      vertex 9.52817 6.92262 0
    endloop
  endfacet
  facet normal 0 0 -1
    outer loop
      vertex 4.56649 14.0542 0
      vertex 7.88066 8.75236 0
      vertex 5.88873 10.1996 0
    endloop
  endfacet
  facet normal 0 0 -1
    outer loop
      vertex 7.88066 8.75236 0
      vertex 4.56649 14.0542 0
      vertex 31.4673 7.13697 0
    endloop
  endfacet
  facet normal 0 0 -1
    outer loop
      vertex 3.63944 11.201 0
      vertex 4.56649 14.0542 0
      vertex 5.88873 10.1996 0
    endloop
  endfacet
  facet normal 0 0 -1
    outer loop
      vertex 3.63944 11.201 0
      vertex 1.54467 14.6965 0
      vertex 4.56649 14.0542 0
    endloop
  endfacet
  facet normal 0 0 -1
    outer loop
      vertex 1.23108 11.7129 0
      vertex 1.54467 14.6965 0
      vertex 3.63944 11.201 0
    endloop
  endfacet
  facet normal 0 0 -1
    outer loop
      vertex -1.23108 11.7129 0
      vertex 1.54467 14.6965 0
      vertex 1.23108 11.7129 0
    endloop
  endfacet
  facet normal 0 0 -1
    outer loop
      vertex -1.23108 11.7129 0
      vertex -1.54467 14.6965 0
      vertex 1.54467 14.6965 0
    endloop
  endfacet
  facet normal 0 0 -1
    outer loop
      vertex -3.63944 11.201 0
      vertex -1.54467 14.6965 0
      vertex -1.23108 11.7129 0
    endloop
  endfacet
  facet normal 0 0 -1
    outer loop
      vertex -3.63944 11.201 0
      vertex -4.56649 14.0542 0
      vertex -1.54467 14.6965 0
    endloop
  endfacet
  facet normal 0 0 -1
    outer loop
      vertex -5.88873 10.1996 0
      vertex -4.56649 14.0542 0
      vertex -3.63944 11.201 0
    endloop
  endfacet
  facet normal 0 0 -1
    outer loop
      vertex -5.88873 10.1996 0
      vertex -7.38873 12.7977 0
      vertex -4.56649 14.0542 0
    endloop
  endfacet
  facet normal 0 0 -1
    outer loop
      vertex -7.88066 8.75236 0
      vertex -7.38873 12.7977 0
      vertex -5.88873 10.1996 0
    endloop
  endfacet
  facet normal 0 0 -1
    outer loop
      vertex -9.88805 10.9818 0
      vertex -7.88066 8.75236 0
      vertex -9.52817 6.92262 0
    endloop
  endfacet
  facet normal 0 0 -1
    outer loop
      vertex -7.88066 8.75236 0
      vertex -9.88805 10.9818 0
      vertex -7.38873 12.7977 0
    endloop
  endfacet
  facet normal 0 0 -1
    outer loop
      vertex -11.9552 8.68598 0
      vertex -9.52817 6.92262 0
      vertex -10.7592 4.79033 0
    endloop
  endfacet
  facet normal 0 0 -1
    outer loop
      vertex -13.4999 6.01054 0
      vertex -10.7592 4.79033 0
      vertex -11.5201 2.44867 0
    endloop
  endfacet
  facet normal 0 0 -1
    outer loop
      vertex -9.52817 6.92262 0
      vertex -11.9552 8.68598 0
      vertex -9.88805 10.9818 0
    endloop
  endfacet
  facet normal 0 0 -1
    outer loop
      vertex -14.4545 3.07241 0
      vertex -11.5201 2.44867 0
      vertex -11.7775 0 0
    endloop
  endfacet
  facet normal 0 0 -1
    outer loop
      vertex -14.4545 -3.07241 0
      vertex -11.5201 -2.44867 0
      vertex -13.4999 -6.01054 0
    endloop
  endfacet
  facet normal -0 0 -1
    outer loop
      vertex -11.5201 -2.44867 0
      vertex -14.4545 -3.07241 0
      vertex -11.7775 0 0
    endloop
  endfacet
  facet normal 0 0 -1
    outer loop
      vertex -10.7592 4.79033 0
      vertex -13.4999 6.01054 0
      vertex -11.9552 8.68598 0
    endloop
  endfacet
  facet normal 0 0 -1
    outer loop
      vertex -14.7775 0 0
      vertex -11.7775 0 0
      vertex -14.4545 -3.07241 0
    endloop
  endfacet
  facet normal 0 0 -1
    outer loop
      vertex -11.5201 2.44867 0
      vertex -14.4545 3.07241 0
      vertex -13.4999 6.01054 0
    endloop
  endfacet
  facet normal 0 0 -1
    outer loop
      vertex -11.7775 0 0
      vertex -14.7775 0 0
      vertex -14.4545 3.07241 0
    endloop
  endfacet
  facet normal -0.951057 -0.309017 0
    outer loop
      vertex -13.4999 -6.01054 0
      vertex -14.4545 -3.07241 4
      vertex -14.4545 -3.07241 0
    endloop
  endfacet
  facet normal -0.951057 -0.309017 0
    outer loop
      vertex -14.4545 -3.07241 4
      vertex -13.4999 -6.01054 0
      vertex -13.4999 -6.01054 4
    endloop
  endfacet
  facet normal -0.994522 0.104528 0
    outer loop
      vertex -14.7775 0 0
      vertex -14.4545 3.07241 4
      vertex -14.4545 3.07241 0
    endloop
  endfacet
  facet normal -0.994522 0.104528 0
    outer loop
      vertex -14.4545 3.07241 4
      vertex -14.7775 0 0
      vertex -14.7775 0 4
    endloop
  endfacet
  facet normal 0.991445 0.130527 0
    outer loop
      vertex 36.9437 0 2.4
      vertex 36.6919 1.91234 0
      vertex 36.6919 1.91234 2.4
    endloop
  endfacet
  facet normal 0.991445 0.130527 0
    outer loop
      vertex 36.6919 1.91234 0
      vertex 36.9437 0 2.4
      vertex 36.9437 0 0
    endloop
  endfacet
  facet normal -0.994522 -0.104528 0
    outer loop
      vertex -14.4545 -3.07241 0
      vertex -14.7775 0 4
      vertex -14.7775 0 0
    endloop
  endfacet
  facet normal -0.994522 -0.104528 0
    outer loop
      vertex -14.7775 0 4
      vertex -14.4545 -3.07241 0
      vertex -14.4545 -3.07241 4
    endloop
  endfacet
  facet normal 0 -1 0
    outer loop
      vertex -1.54467 -14.6965 0
      vertex 1.54467 -14.6965 4
      vertex -1.54467 -14.6965 4
    endloop
  endfacet
  facet normal 0 -1 -0
    outer loop
      vertex 1.54467 -14.6965 4
      vertex -1.54467 -14.6965 0
      vertex 1.54467 -14.6965 0
    endloop
  endfacet
  facet normal 0 1 -0
    outer loop
      vertex 1.54467 14.6965 0
      vertex -1.54467 14.6965 4
      vertex 1.54467 14.6965 4
    endloop
  endfacet
  facet normal 0 1 0
    outer loop
      vertex -1.54467 14.6965 4
      vertex 1.54467 14.6965 0
      vertex -1.54467 14.6965 0
    endloop
  endfacet
  facet normal -0.587785 0.809017 0
    outer loop
      vertex -7.38873 12.7977 0
      vertex -9.88805 10.9818 4
      vertex -7.38873 12.7977 4
    endloop
  endfacet
  facet normal -0.587785 0.809017 0
    outer loop
      vertex -9.88805 10.9818 4
      vertex -7.38873 12.7977 0
      vertex -9.88805 10.9818 0
    endloop
  endfacet
  facet normal 0.382684 0.923879 -0
    outer loop
      vertex 33.2493 6.39883 0
      vertex 31.4673 7.13697 2.4
      vertex 33.2493 6.39883 2.4
    endloop
  endfacet
  facet normal 0.382684 0.923879 0
    outer loop
      vertex 31.4673 7.13697 2.4
      vertex 33.2493 6.39883 0
      vertex 31.4673 7.13697 0
    endloop
  endfacet
  facet normal 0.249037 0.968494 -0
    outer loop
      vertex 31.4673 7.13697 0
      vertex 4.56649 14.0542 2.4
      vertex 31.4673 7.13697 2.4
    endloop
  endfacet
  facet normal 0.249037 0.968494 0
    outer loop
      vertex 4.56649 14.0542 2.4
      vertex 31.4673 7.13697 0
      vertex 4.56649 14.0542 0
    endloop
  endfacet
  facet normal -0.207912 0.978148 0
    outer loop
      vertex -1.54467 14.6965 0
      vertex -4.56649 14.0542 4
      vertex -1.54467 14.6965 4
    endloop
  endfacet
  facet normal -0.207912 0.978148 0
    outer loop
      vertex -4.56649 14.0542 4
      vertex -1.54467 14.6965 0
      vertex -4.56649 14.0542 0
    endloop
  endfacet
  facet normal -0.406737 -0.913545 0
    outer loop
      vertex -7.38873 -12.7977 0
      vertex -4.56649 -14.0542 4
      vertex -7.38873 -12.7977 4
    endloop
  endfacet
  facet normal -0.406737 -0.913545 -0
    outer loop
      vertex -4.56649 -14.0542 4
      vertex -7.38873 -12.7977 0
      vertex -4.56649 -14.0542 0
    endloop
  endfacet
  facet normal -0.866025 0.5 0
    outer loop
      vertex -13.4999 6.01054 0
      vertex -11.9552 8.68598 4
      vertex -11.9552 8.68598 0
    endloop
  endfacet
  facet normal -0.866025 0.5 0
    outer loop
      vertex -11.9552 8.68598 4
      vertex -13.4999 6.01054 0
      vertex -13.4999 6.01054 4
    endloop
  endfacet
  facet normal 0.793354 0.608761 0
    outer loop
      vertex 35.9538 3.69437 2.4
      vertex 34.7796 5.22462 0
      vertex 34.7796 5.22462 2.4
    endloop
  endfacet
  facet normal 0.793354 0.608761 0
    outer loop
      vertex 34.7796 5.22462 0
      vertex 35.9538 3.69437 2.4
      vertex 35.9538 3.69437 0
    endloop
  endfacet
  facet normal 0.92388 0.382683 0
    outer loop
      vertex 36.6919 1.91234 2.4
      vertex 35.9538 3.69437 0
      vertex 35.9538 3.69437 2.4
    endloop
  endfacet
  facet normal 0.92388 0.382683 0
    outer loop
      vertex 35.9538 3.69437 0
      vertex 36.6919 1.91234 2.4
      vertex 36.6919 1.91234 0
    endloop
  endfacet
  facet normal 0.608761 0.793354 -0
    outer loop
      vertex 34.7796 5.22462 0
      vertex 33.2493 6.39883 2.4
      vertex 34.7796 5.22462 2.4
    endloop
  endfacet
  facet normal 0.608761 0.793354 0
    outer loop
      vertex 33.2493 6.39883 2.4
      vertex 34.7796 5.22462 0
      vertex 33.2493 6.39883 0
    endloop
  endfacet
  facet normal 0.207912 0.978148 -0
    outer loop
      vertex 4.56649 14.0542 2.4
      vertex 1.54467 14.6965 4
      vertex 4.56649 14.0542 4
    endloop
  endfacet
  facet normal 0.207912 0.978148 0
    outer loop
      vertex 1.54467 14.6965 0
      vertex 4.56649 14.0542 2.4
      vertex 4.56649 14.0542 0
    endloop
  endfacet
  facet normal 0.207912 0.978148 0
    outer loop
      vertex 4.56649 14.0542 2.4
      vertex 1.54467 14.6965 0
      vertex 1.54467 14.6965 4
    endloop
  endfacet
  facet normal -0.406737 0.913545 0
    outer loop
      vertex -4.56649 14.0542 0
      vertex -7.38873 12.7977 4
      vertex -4.56649 14.0542 4
    endloop
  endfacet
  facet normal -0.406737 0.913545 0
    outer loop
      vertex -7.38873 12.7977 4
      vertex -4.56649 14.0542 0
      vertex -7.38873 12.7977 0
    endloop
  endfacet
  facet normal -0.743145 0.669131 0
    outer loop
      vertex -11.9552 8.68598 0
      vertex -9.88805 10.9818 4
      vertex -9.88805 10.9818 0
    endloop
  endfacet
  facet normal -0.743145 0.669131 0
    outer loop
      vertex -9.88805 10.9818 4
      vertex -11.9552 8.68598 0
      vertex -11.9552 8.68598 4
    endloop
  endfacet
  facet normal -0.951057 0.309017 0
    outer loop
      vertex -14.4545 3.07241 0
      vertex -13.4999 6.01054 4
      vertex -13.4999 6.01054 0
    endloop
  endfacet
  facet normal -0.951057 0.309017 0
    outer loop
      vertex -13.4999 6.01054 4
      vertex -14.4545 3.07241 0
      vertex -14.4545 3.07241 4
    endloop
  endfacet
  facet normal 0 0 1
    outer loop
      vertex 22.5052 0.373992 2.4
      vertex 23.6572 3.06299 2.4
      vertex 22.5052 3.06299 2.4
    endloop
  endfacet
  facet normal 0 0 1
    outer loop
      vertex 23.6572 3.06299 2.4
      vertex 22.5052 0.373992 2.4
      vertex 23.6572 -2.89911 2.4
    endloop
  endfacet
  facet normal -0 0 1
    outer loop
      vertex 21.1732 0.373992 2.4
      vertex 23.6572 -2.89911 2.4
      vertex 22.5052 0.373992 2.4
    endloop
  endfacet
  facet normal 0 0 1
    outer loop
      vertex 21.1732 0.373992 2.4
      vertex 18.4612 -0.535094 2.4
      vertex 23.6572 -2.89911 2.4
    endloop
  endfacet
  facet normal 0 0 1
    outer loop
      vertex 17.5772 2.80299 2.4
      vertex 18.4612 -0.535094 2.4
      vertex 21.1732 0.373992 2.4
    endloop
  endfacet
  facet normal 0 0 1
    outer loop
      vertex 18.4612 -0.535094 2.4
      vertex 17.5772 2.80299 2.4
      vertex 17.5772 -0.535094 2.4
    endloop
  endfacet
  facet normal 0 0 1
    outer loop
      vertex 32.5549 0 2.4
      vertex 36.9437 0 2.4
      vertex 36.6919 1.91234 2.4
    endloop
  endfacet
  facet normal 0 0 1
    outer loop
      vertex 31.982 1.76336 2.4
      vertex 36.6919 1.91234 2.4
      vertex 35.9538 3.69437 2.4
    endloop
  endfacet
  facet normal 0 0 1
    outer loop
      vertex 36.9437 0 2.4
      vertex 32.5549 0 2.4
      vertex 36.6919 -1.91234 2.4
    endloop
  endfacet
  facet normal 0 0 1
    outer loop
      vertex 31.982 1.76336 2.4
      vertex 35.9538 3.69437 2.4
      vertex 34.7796 5.22462 2.4
    endloop
  endfacet
  facet normal -0 0 1
    outer loop
      vertex 31.982 -1.76336 2.4
      vertex 36.6919 -1.91234 2.4
      vertex 32.5549 0 2.4
    endloop
  endfacet
  facet normal 0 0 1
    outer loop
      vertex 31.982 1.76336 2.4
      vertex 34.7796 5.22462 2.4
      vertex 33.2493 6.39883 2.4
    endloop
  endfacet
  facet normal 0 0 1
    outer loop
      vertex 36.6919 -1.91234 2.4
      vertex 31.982 -1.76336 2.4
      vertex 35.9538 -3.69437 2.4
    endloop
  endfacet
  facet normal 0 0 1
    outer loop
      vertex 35.9538 -3.69437 2.4
      vertex 31.982 -1.76336 2.4
      vertex 34.7796 -5.22462 2.4
    endloop
  endfacet
  facet normal 0 0 1
    outer loop
      vertex 36.6919 1.91234 2.4
      vertex 31.982 1.76336 2.4
      vertex 32.5549 0 2.4
    endloop
  endfacet
  facet normal 0 0 1
    outer loop
      vertex 30.482 2.85317 2.4
      vertex 33.2493 6.39883 2.4
      vertex 31.4673 7.13697 2.4
    endloop
  endfacet
  facet normal 0 0 1
    outer loop
      vertex 33.2493 6.39883 2.4
      vertex 30.482 2.85317 2.4
      vertex 31.982 1.76336 2.4
    endloop
  endfacet
  facet normal 0 0 1
    outer loop
      vertex 31.4673 7.13697 2.4
      vertex 28.6279 2.85317 2.4
      vertex 30.482 2.85317 2.4
    endloop
  endfacet
  facet normal -0 0 1
    outer loop
      vertex 23.6572 4.54199 2.4
      vertex 28.6279 2.85317 2.4
      vertex 31.4673 7.13697 2.4
    endloop
  endfacet
  facet normal -0 0 1
    outer loop
      vertex 23.6572 3.06299 2.4
      vertex 27.1279 1.76336 2.4
      vertex 23.6572 4.54199 2.4
    endloop
  endfacet
  facet normal 0 0 1
    outer loop
      vertex 28.6279 2.85317 2.4
      vertex 23.6572 4.54199 2.4
      vertex 27.1279 1.76336 2.4
    endloop
  endfacet
  facet normal 0 0 1
    outer loop
      vertex 31.4673 7.13697 2.4
      vertex 22.5052 5.407 2.4
      vertex 23.6572 4.54199 2.4
    endloop
  endfacet
  facet normal 0 0 1
    outer loop
      vertex 9.88805 10.9818 2.4
      vertex 22.5052 5.407 2.4
      vertex 31.4673 7.13697 2.4
    endloop
  endfacet
  facet normal 0 0 1
    outer loop
      vertex 21.4172 5.407 2.4
      vertex 17.5772 4.54199 2.4
      vertex 21.4172 4.54199 2.4
    endloop
  endfacet
  facet normal -0 0 1
    outer loop
      vertex 14.4545 3.07241 2.4
      vertex 17.5772 2.80299 2.4
      vertex 17.5772 4.54199 2.4
    endloop
  endfacet
  facet normal 0 -0 1
    outer loop
      vertex 14.7775 0 2.4
      vertex 17.5772 2.80299 2.4
      vertex 14.4545 3.07241 2.4
    endloop
  endfacet
  facet normal 0 0 1
    outer loop
      vertex 14.4545 -3.07241 2.4
      vertex 17.5772 -0.535094 2.4
      vertex 14.7775 0 2.4
    endloop
  endfacet
  facet normal 0 0 1
    outer loop
      vertex 17.5772 2.80299 2.4
      vertex 14.7775 0 2.4
      vertex 17.5772 -0.535094 2.4
    endloop
  endfacet
  facet normal 0 0 1
    outer loop
      vertex 17.5772 4.54199 2.4
      vertex 13.4999 6.01054 2.4
      vertex 14.4545 3.07241 2.4
    endloop
  endfacet
  facet normal 0 0 1
    outer loop
      vertex 11.9552 8.68598 2.4
      vertex 17.5772 4.54199 2.4
      vertex 21.4172 5.407 2.4
    endloop
  endfacet
  facet normal 0 0 1
    outer loop
      vertex 22.5052 5.407 2.4
      vertex 9.88805 10.9818 2.4
      vertex 21.4172 5.407 2.4
    endloop
  endfacet
  facet normal 0 0 1
    outer loop
      vertex 17.5772 4.54199 2.4
      vertex 11.9552 8.68598 2.4
      vertex 13.4999 6.01054 2.4
    endloop
  endfacet
  facet normal 0 0 1
    outer loop
      vertex 21.4172 5.407 2.4
      vertex 9.88805 10.9818 2.4
      vertex 11.9552 8.68598 2.4
    endloop
  endfacet
  facet normal 0 0 1
    outer loop
      vertex 31.4673 7.13697 2.4
      vertex 7.38873 12.7977 2.4
      vertex 9.88805 10.9818 2.4
    endloop
  endfacet
  facet normal -0 -0 1
    outer loop
      vertex 7.38873 12.7977 2.4
      vertex 31.4673 7.13697 2.4
      vertex 4.56649 14.0542 2.4
    endloop
  endfacet
  facet normal 0 0 1
    outer loop
      vertex 34.7796 -5.22462 2.4
      vertex 31.982 -1.76336 2.4
      vertex 33.2493 -6.39883 2.4
    endloop
  endfacet
  facet normal -0 0 1
    outer loop
      vertex 30.482 -2.85317 2.4
      vertex 33.2493 -6.39883 2.4
      vertex 31.982 -1.76336 2.4
    endloop
  endfacet
  facet normal 0 0 1
    outer loop
      vertex 33.2493 -6.39883 2.4
      vertex 30.482 -2.85317 2.4
      vertex 31.4673 -7.13697 2.4
    endloop
  endfacet
  facet normal -0 0 1
    outer loop
      vertex 28.6279 -2.85317 2.4
      vertex 31.4673 -7.13697 2.4
      vertex 30.482 -2.85317 2.4
    endloop
  endfacet
  facet normal 0 0 1
    outer loop
      vertex 23.6572 -4.4231 2.4
      vertex 28.6279 -2.85317 2.4
      vertex 27.1279 -1.76336 2.4
    endloop
  endfacet
  facet normal 0 0 1
    outer loop
      vertex 27.1279 1.76336 2.4
      vertex 23.6572 3.06299 2.4
      vertex 26.5549 0 2.4
    endloop
  endfacet
  facet normal 0 0 1
    outer loop
      vertex 23.6572 -2.89911 2.4
      vertex 26.5549 0 2.4
      vertex 23.6572 3.06299 2.4
    endloop
  endfacet
  facet normal 0 0 1
    outer loop
      vertex 26.5549 0 2.4
      vertex 23.6572 -2.89911 2.4
      vertex 27.1279 -1.76336 2.4
    endloop
  endfacet
  facet normal 0 0 1
    outer loop
      vertex 23.6572 -4.4231 2.4
      vertex 27.1279 -1.76336 2.4
      vertex 23.6572 -2.89911 2.4
    endloop
  endfacet
  facet normal 0 0 1
    outer loop
      vertex 28.6279 -2.85317 2.4
      vertex 23.6572 -4.4231 2.4
      vertex 31.4673 -7.13697 2.4
    endloop
  endfacet
  facet normal 0 0 1
    outer loop
      vertex 18.7292 -5.1051 2.4
      vertex 23.6572 -4.4231 2.4
      vertex 18.7292 -2.1841 2.4
    endloop
  endfacet
  facet normal -0 0 1
    outer loop
      vertex 18.7292 -5.1051 2.4
      vertex 31.4673 -7.13697 2.4
      vertex 23.6572 -4.4231 2.4
    endloop
  endfacet
  facet normal 0 0 1
    outer loop
      vertex 11.9552 -8.68598 2.4
      vertex 18.7292 -5.1051 2.4
      vertex 17.5772 -5.1051 2.4
    endloop
  endfacet
  facet normal 0 0 1
    outer loop
      vertex 17.5772 -0.535094 2.4
      vertex 14.4545 -3.07241 2.4
      vertex 17.5772 -5.1051 2.4
    endloop
  endfacet
  facet normal 0 0 1
    outer loop
      vertex 13.4999 -6.01054 2.4
      vertex 17.5772 -5.1051 2.4
      vertex 14.4545 -3.07241 2.4
    endloop
  endfacet
  facet normal 0 0 1
    outer loop
      vertex 11.9552 -8.68598 2.4
      vertex 17.5772 -5.1051 2.4
      vertex 13.4999 -6.01054 2.4
    endloop
  endfacet
  facet normal 0 0 1
    outer loop
      vertex 9.88805 -10.9818 2.4
      vertex 18.7292 -5.1051 2.4
      vertex 11.9552 -8.68598 2.4
    endloop
  endfacet
  facet normal 0 0 1
    outer loop
      vertex 18.7292 -5.1051 2.4
      vertex 9.88805 -10.9818 2.4
      vertex 31.4673 -7.13697 2.4
    endloop
  endfacet
  facet normal 0 0 1
    outer loop
      vertex 7.38873 -12.7977 2.4
      vertex 31.4673 -7.13697 2.4
      vertex 9.88805 -10.9818 2.4
    endloop
  endfacet
  facet normal 0 0 1
    outer loop
      vertex 31.4673 -7.13697 2.4
      vertex 7.38873 -12.7977 2.4
      vertex 4.56649 -14.0542 2.4
    endloop
  endfacet
  facet normal 0 0 1
    outer loop
      vertex 23.6572 4.54199 2.4
      vertex 22.5052 5.407 2.4
      vertex 22.5052 4.54199 2.4
    endloop
  endfacet
  facet normal 0 0 1
    outer loop
      vertex 21.4172 3.06299 2.4
      vertex 18.8692 3.06299 2.4
      vertex 21.4172 1.349 2.4
    endloop
  endfacet
  facet normal 0.92388 -0.382683 0
    outer loop
      vertex 35.9538 -3.69437 2.4
      vertex 36.6919 -1.91234 0
      vertex 36.6919 -1.91234 2.4
    endloop
  endfacet
  facet normal 0.92388 -0.382683 0
    outer loop
      vertex 36.6919 -1.91234 0
      vertex 35.9538 -3.69437 2.4
      vertex 35.9538 -3.69437 0
    endloop
  endfacet
  facet normal 0.207912 -0.978148 0
    outer loop
      vertex 1.54467 -14.6965 4
      vertex 4.56649 -14.0542 2.4
      vertex 4.56649 -14.0542 4
    endloop
  endfacet
  facet normal 0.207912 -0.978148 0
    outer loop
      vertex 1.54467 -14.6965 0
      vertex 4.56649 -14.0542 2.4
      vertex 1.54467 -14.6965 4
    endloop
  endfacet
  facet normal 0.207912 -0.978148 0
    outer loop
      vertex 4.56649 -14.0542 2.4
      vertex 1.54467 -14.6965 0
      vertex 4.56649 -14.0542 0
    endloop
  endfacet
  facet normal 0.382684 -0.923879 0
    outer loop
      vertex 31.4673 -7.13697 0
      vertex 33.2493 -6.39883 2.4
      vertex 31.4673 -7.13697 2.4
    endloop
  endfacet
  facet normal 0.382684 -0.923879 0
    outer loop
      vertex 33.2493 -6.39883 2.4
      vertex 31.4673 -7.13697 0
      vertex 33.2493 -6.39883 0
    endloop
  endfacet
  facet normal 0.608761 -0.793354 0
    outer loop
      vertex 33.2493 -6.39883 0
      vertex 34.7796 -5.22462 2.4
      vertex 33.2493 -6.39883 2.4
    endloop
  endfacet
  facet normal 0.608761 -0.793354 0
    outer loop
      vertex 34.7796 -5.22462 2.4
      vertex 33.2493 -6.39883 0
      vertex 34.7796 -5.22462 0
    endloop
  endfacet
  facet normal 0.991445 -0.130527 0
    outer loop
      vertex 36.6919 -1.91234 2.4
      vertex 36.9437 0 0
      vertex 36.9437 0 2.4
    endloop
  endfacet
  facet normal 0.991445 -0.130527 0
    outer loop
      vertex 36.9437 0 0
      vertex 36.6919 -1.91234 2.4
      vertex 36.6919 -1.91234 0
    endloop
  endfacet
  facet normal -0.207912 -0.978148 0
    outer loop
      vertex -4.56649 -14.0542 0
      vertex -1.54467 -14.6965 4
      vertex -4.56649 -14.0542 4
    endloop
  endfacet
  facet normal -0.207912 -0.978148 -0
    outer loop
      vertex -1.54467 -14.6965 4
      vertex -4.56649 -14.0542 0
      vertex -1.54467 -14.6965 0
    endloop
  endfacet
  facet normal -0.587785 -0.809017 0
    outer loop
      vertex -9.88805 -10.9818 0
      vertex -7.38873 -12.7977 4
      vertex -9.88805 -10.9818 4
    endloop
  endfacet
  facet normal -0.587785 -0.809017 -0
    outer loop
      vertex -7.38873 -12.7977 4
      vertex -9.88805 -10.9818 0
      vertex -7.38873 -12.7977 0
    endloop
  endfacet
  facet normal -0.866025 -0.5 0
    outer loop
      vertex -11.9552 -8.68598 0
      vertex -13.4999 -6.01054 4
      vertex -13.4999 -6.01054 0
    endloop
  endfacet
  facet normal -0.866025 -0.5 0
    outer loop
      vertex -13.4999 -6.01054 4
      vertex -11.9552 -8.68598 0
      vertex -11.9552 -8.68598 4
    endloop
  endfacet
  facet normal 0.249037 -0.968494 0
    outer loop
      vertex 4.56649 -14.0542 0
      vertex 31.4673 -7.13697 2.4
      vertex 4.56649 -14.0542 2.4
    endloop
  endfacet
  facet normal 0.249037 -0.968494 0
    outer loop
      vertex 31.4673 -7.13697 2.4
      vertex 4.56649 -14.0542 0
      vertex 31.4673 -7.13697 0
    endloop
  endfacet
  facet normal 0.793354 -0.608761 0
    outer loop
      vertex 34.7796 -5.22462 2.4
      vertex 35.9538 -3.69437 0
      vertex 35.9538 -3.69437 2.4
    endloop
  endfacet
  facet normal 0.793354 -0.608761 0
    outer loop
      vertex 35.9538 -3.69437 0
      vertex 34.7796 -5.22462 2.4
      vertex 34.7796 -5.22462 0
    endloop
  endfacet
  facet normal -0.743145 -0.669131 0
    outer loop
      vertex -9.88805 -10.9818 0
      vertex -11.9552 -8.68598 4
      vertex -11.9552 -8.68598 0
    endloop
  endfacet
  facet normal -0.743145 -0.669131 0
    outer loop
      vertex -11.9552 -8.68598 4
      vertex -9.88805 -10.9818 0
      vertex -9.88805 -10.9818 4
    endloop
  endfacet
  facet normal 0.951057 0.309017 0
    outer loop
      vertex 14.4545 3.07241 4
      vertex 13.4999 6.01054 2.4
      vertex 13.4999 6.01054 4
    endloop
  endfacet
  facet normal 0.951057 0.309017 0
    outer loop
      vertex 13.4999 6.01054 2.4
      vertex 14.4545 3.07241 4
      vertex 14.4545 3.07241 2.4
    endloop
  endfacet
  facet normal 0.994522 0.104528 0
    outer loop
      vertex 14.7775 0 4
      vertex 14.4545 3.07241 2.4
      vertex 14.4545 3.07241 4
    endloop
  endfacet
  facet normal 0.994522 0.104528 0
    outer loop
      vertex 14.4545 3.07241 2.4
      vertex 14.7775 0 4
      vertex 14.7775 0 2.4
    endloop
  endfacet
  facet normal 0.406737 0.913545 -0
    outer loop
      vertex 7.38873 12.7977 2.4
      vertex 4.56649 14.0542 4
      vertex 7.38873 12.7977 4
    endloop
  endfacet
  facet normal 0.406737 0.913545 0
    outer loop
      vertex 4.56649 14.0542 4
      vertex 7.38873 12.7977 2.4
      vertex 4.56649 14.0542 2.4
    endloop
  endfacet
  facet normal 0.951057 -0.309017 0
    outer loop
      vertex 13.4999 -6.01054 4
      vertex 14.4545 -3.07241 2.4
      vertex 14.4545 -3.07241 4
    endloop
  endfacet
  facet normal 0.951057 -0.309017 0
    outer loop
      vertex 14.4545 -3.07241 2.4
      vertex 13.4999 -6.01054 4
      vertex 13.4999 -6.01054 2.4
    endloop
  endfacet
  facet normal 0.743145 0.669131 0
    outer loop
      vertex 11.9552 8.68598 4
      vertex 9.88805 10.9818 2.4
      vertex 9.88805 10.9818 4
    endloop
  endfacet
  facet normal 0.743145 0.669131 0
    outer loop
      vertex 9.88805 10.9818 2.4
      vertex 11.9552 8.68598 4
      vertex 11.9552 8.68598 2.4
    endloop
  endfacet
  facet normal 0.994522 -0.104528 0
    outer loop
      vertex 14.4545 -3.07241 4
      vertex 14.7775 0 2.4
      vertex 14.7775 0 4
    endloop
  endfacet
  facet normal 0.994522 -0.104528 0
    outer loop
      vertex 14.7775 0 2.4
      vertex 14.4545 -3.07241 4
      vertex 14.4545 -3.07241 2.4
    endloop
  endfacet
  facet normal 0.406737 -0.913545 0
    outer loop
      vertex 4.56649 -14.0542 2.4
      vertex 7.38873 -12.7977 4
      vertex 4.56649 -14.0542 4
    endloop
  endfacet
  facet normal 0.406737 -0.913545 0
    outer loop
      vertex 7.38873 -12.7977 4
      vertex 4.56649 -14.0542 2.4
      vertex 7.38873 -12.7977 2.4
    endloop
  endfacet
  facet normal 0.743145 -0.669131 0
    outer loop
      vertex 9.88805 -10.9818 4
      vertex 11.9552 -8.68598 2.4
      vertex 11.9552 -8.68598 4
    endloop
  endfacet
  facet normal 0.743145 -0.669131 0
    outer loop
      vertex 11.9552 -8.68598 2.4
      vertex 9.88805 -10.9818 4
      vertex 9.88805 -10.9818 2.4
    endloop
  endfacet
  facet normal 0.587785 0.809017 -0
    outer loop
      vertex 9.88805 10.9818 2.4
      vertex 7.38873 12.7977 4
      vertex 9.88805 10.9818 4
    endloop
  endfacet
  facet normal 0.587785 0.809017 0
    outer loop
      vertex 7.38873 12.7977 4
      vertex 9.88805 10.9818 2.4
      vertex 7.38873 12.7977 2.4
    endloop
  endfacet
  facet normal 0.866025 0.5 0
    outer loop
      vertex 13.4999 6.01054 4
      vertex 11.9552 8.68598 2.4
      vertex 11.9552 8.68598 4
    endloop
  endfacet
  facet normal 0.866025 0.5 0
    outer loop
      vertex 11.9552 8.68598 2.4
      vertex 13.4999 6.01054 4
      vertex 13.4999 6.01054 2.4
    endloop
  endfacet
  facet normal 0.587785 -0.809017 0
    outer loop
      vertex 7.38873 -12.7977 2.4
      vertex 9.88805 -10.9818 4
      vertex 7.38873 -12.7977 4
    endloop
  endfacet
  facet normal 0.587785 -0.809017 0
    outer loop
      vertex 9.88805 -10.9818 4
      vertex 7.38873 -12.7977 2.4
      vertex 9.88805 -10.9818 2.4
    endloop
  endfacet
  facet normal 0.866025 -0.5 0
    outer loop
      vertex 11.9552 -8.68598 4
      vertex 13.4999 -6.01054 2.4
      vertex 13.4999 -6.01054 4
    endloop
  endfacet
  facet normal 0.866025 -0.5 0
    outer loop
      vertex 13.4999 -6.01054 2.4
      vertex 11.9552 -8.68598 4
      vertex 11.9552 -8.68598 2.4
    endloop
  endfacet
  facet normal 0 0 1
    outer loop
      vertex 11.7775 0 4
      vertex 14.7775 0 4
      vertex 14.4545 3.07241 4
    endloop
  endfacet
  facet normal 0 0 1
    outer loop
      vertex 11.5201 2.44867 4
      vertex 14.4545 3.07241 4
      vertex 13.4999 6.01054 4
    endloop
  endfacet
  facet normal 0 0 1
    outer loop
      vertex 14.7775 0 4
      vertex 11.7775 0 4
      vertex 14.4545 -3.07241 4
    endloop
  endfacet
  facet normal 0 0 1
    outer loop
      vertex 10.7592 4.79033 4
      vertex 13.4999 6.01054 4
      vertex 11.9552 8.68598 4
    endloop
  endfacet
  facet normal -0 0 1
    outer loop
      vertex 11.5201 -2.44867 4
      vertex 14.4545 -3.07241 4
      vertex 11.7775 0 4
    endloop
  endfacet
  facet normal 0 0 1
    outer loop
      vertex 14.4545 -3.07241 4
      vertex 11.5201 -2.44867 4
      vertex 13.4999 -6.01054 4
    endloop
  endfacet
  facet normal 0 0 1
    outer loop
      vertex 14.4545 3.07241 4
      vertex 11.5201 2.44867 4
      vertex 11.7775 0 4
    endloop
  endfacet
  facet normal 0 0 1
    outer loop
      vertex 13.4999 6.01054 4
      vertex 10.7592 4.79033 4
      vertex 11.5201 2.44867 4
    endloop
  endfacet
  facet normal 0 0 1
    outer loop
      vertex 9.52817 6.92262 4
      vertex 11.9552 8.68598 4
      vertex 9.88805 10.9818 4
    endloop
  endfacet
  facet normal 0 0 1
    outer loop
      vertex 11.9552 8.68598 4
      vertex 9.52817 6.92262 4
      vertex 10.7592 4.79033 4
    endloop
  endfacet
  facet normal 0 0 1
    outer loop
      vertex 9.88805 10.9818 4
      vertex 7.88066 8.75236 4
      vertex 9.52817 6.92262 4
    endloop
  endfacet
  facet normal 0 0 1
    outer loop
      vertex 7.38873 12.7977 4
      vertex 7.88066 8.75236 4
      vertex 9.88805 10.9818 4
    endloop
  endfacet
  facet normal 0 0 1
    outer loop
      vertex 7.38873 12.7977 4
      vertex 5.88873 10.1996 4
      vertex 7.88066 8.75236 4
    endloop
  endfacet
  facet normal 0 0 1
    outer loop
      vertex 4.56649 14.0542 4
      vertex 5.88873 10.1996 4
      vertex 7.38873 12.7977 4
    endloop
  endfacet
  facet normal 0 0 1
    outer loop
      vertex 4.56649 14.0542 4
      vertex 3.63944 11.201 4
      vertex 5.88873 10.1996 4
    endloop
  endfacet
  facet normal 0 0 1
    outer loop
      vertex 1.54467 14.6965 4
      vertex 3.63944 11.201 4
      vertex 4.56649 14.0542 4
    endloop
  endfacet
  facet normal 0 0 1
    outer loop
      vertex 1.54467 14.6965 4
      vertex 1.23108 11.7129 4
      vertex 3.63944 11.201 4
    endloop
  endfacet
  facet normal 0 0 1
    outer loop
      vertex 1.54467 14.6965 4
      vertex -1.23108 11.7129 4
      vertex 1.23108 11.7129 4
    endloop
  endfacet
  facet normal -0 0 1
    outer loop
      vertex -1.54467 14.6965 4
      vertex -1.23108 11.7129 4
      vertex 1.54467 14.6965 4
    endloop
  endfacet
  facet normal 0 0 1
    outer loop
      vertex -1.54467 14.6965 4
      vertex -3.63944 11.201 4
      vertex -1.23108 11.7129 4
    endloop
  endfacet
  facet normal -0 0 1
    outer loop
      vertex -4.56649 14.0542 4
      vertex -3.63944 11.201 4
      vertex -1.54467 14.6965 4
    endloop
  endfacet
  facet normal 0 0 1
    outer loop
      vertex -4.56649 14.0542 4
      vertex -5.88873 10.1996 4
      vertex -3.63944 11.201 4
    endloop
  endfacet
  facet normal -0 0 1
    outer loop
      vertex -7.38873 12.7977 4
      vertex -5.88873 10.1996 4
      vertex -4.56649 14.0542 4
    endloop
  endfacet
  facet normal 0 0 1
    outer loop
      vertex -7.38873 12.7977 4
      vertex -7.88066 8.75236 4
      vertex -5.88873 10.1996 4
    endloop
  endfacet
  facet normal -0 0 1
    outer loop
      vertex -9.88805 10.9818 4
      vertex -7.88066 8.75236 4
      vertex -7.38873 12.7977 4
    endloop
  endfacet
  facet normal 0 0 1
    outer loop
      vertex -7.88066 8.75236 4
      vertex -9.88805 10.9818 4
      vertex -9.52817 6.92262 4
    endloop
  endfacet
  facet normal -0 0 1
    outer loop
      vertex -11.9552 8.68598 4
      vertex -9.52817 6.92262 4
      vertex -9.88805 10.9818 4
    endloop
  endfacet
  facet normal 0 0 1
    outer loop
      vertex -9.52817 6.92262 4
      vertex -11.9552 8.68598 4
      vertex -10.7592 4.79033 4
    endloop
  endfacet
  facet normal 0 0 1
    outer loop
      vertex -10.7592 4.79033 4
      vertex -13.4999 6.01054 4
      vertex -11.5201 2.44867 4
    endloop
  endfacet
  facet normal -0 0 1
    outer loop
      vertex -13.4999 6.01054 4
      vertex -10.7592 4.79033 4
      vertex -11.9552 8.68598 4
    endloop
  endfacet
  facet normal -0 0 1
    outer loop
      vertex 10.7592 -4.79033 4
      vertex 13.4999 -6.01054 4
      vertex 11.5201 -2.44867 4
    endloop
  endfacet
  facet normal 0 0 1
    outer loop
      vertex 13.4999 -6.01054 4
      vertex 10.7592 -4.79033 4
      vertex 11.9552 -8.68598 4
    endloop
  endfacet
  facet normal -0 0 1
    outer loop
      vertex 9.52817 -6.92262 4
      vertex 11.9552 -8.68598 4
      vertex 10.7592 -4.79033 4
    endloop
  endfacet
  facet normal 0 0 1
    outer loop
      vertex 11.9552 -8.68598 4
      vertex 9.52817 -6.92262 4
      vertex 9.88805 -10.9818 4
    endloop
  endfacet
  facet normal -0 0 1
    outer loop
      vertex 7.88066 -8.75236 4
      vertex 9.88805 -10.9818 4
      vertex 9.52817 -6.92262 4
    endloop
  endfacet
  facet normal 0 0 1
    outer loop
      vertex 7.88066 -8.75236 4
      vertex 7.38873 -12.7977 4
      vertex 9.88805 -10.9818 4
    endloop
  endfacet
  facet normal -0 0 1
    outer loop
      vertex 5.88873 -10.1996 4
      vertex 7.38873 -12.7977 4
      vertex 7.88066 -8.75236 4
    endloop
  endfacet
  facet normal 0 0 1
    outer loop
      vertex 5.88873 -10.1996 4
      vertex 4.56649 -14.0542 4
      vertex 7.38873 -12.7977 4
    endloop
  endfacet
  facet normal -0 0 1
    outer loop
      vertex 3.63944 -11.201 4
      vertex 4.56649 -14.0542 4
      vertex 5.88873 -10.1996 4
    endloop
  endfacet
  facet normal 0 0 1
    outer loop
      vertex 3.63944 -11.201 4
      vertex 1.54467 -14.6965 4
      vertex 4.56649 -14.0542 4
    endloop
  endfacet
  facet normal -0 0 1
    outer loop
      vertex 1.23108 -11.7129 4
      vertex 1.54467 -14.6965 4
      vertex 3.63944 -11.201 4
    endloop
  endfacet
  facet normal -0 0 1
    outer loop
      vertex -1.23108 -11.7129 4
      vertex 1.54467 -14.6965 4
      vertex 1.23108 -11.7129 4
    endloop
  endfacet
  facet normal 0 0 1
    outer loop
      vertex -1.23108 -11.7129 4
      vertex -1.54467 -14.6965 4
      vertex 1.54467 -14.6965 4
    endloop
  endfacet
  facet normal 0 0 1
    outer loop
      vertex -3.63944 -11.201 4
      vertex -1.54467 -14.6965 4
      vertex -1.23108 -11.7129 4
    endloop
  endfacet
  facet normal 0 0 1
    outer loop
      vertex -3.63944 -11.201 4
      vertex -4.56649 -14.0542 4
      vertex -1.54467 -14.6965 4
    endloop
  endfacet
  facet normal 0 0 1
    outer loop
      vertex -5.88873 -10.1996 4
      vertex -4.56649 -14.0542 4
      vertex -3.63944 -11.201 4
    endloop
  endfacet
  facet normal 0 0 1
    outer loop
      vertex -5.88873 -10.1996 4
      vertex -7.38873 -12.7977 4
      vertex -4.56649 -14.0542 4
    endloop
  endfacet
  facet normal 0 0 1
    outer loop
      vertex -7.88066 -8.75236 4
      vertex -7.38873 -12.7977 4
      vertex -5.88873 -10.1996 4
    endloop
  endfacet
  facet normal 0 0 1
    outer loop
      vertex -9.88805 -10.9818 4
      vertex -7.88066 -8.75236 4
      vertex -9.52817 -6.92262 4
    endloop
  endfacet
  facet normal 0 0 1
    outer loop
      vertex -7.88066 -8.75236 4
      vertex -9.88805 -10.9818 4
      vertex -7.38873 -12.7977 4
    endloop
  endfacet
  facet normal 0 0 1
    outer loop
      vertex -11.9552 -8.68598 4
      vertex -9.52817 -6.92262 4
      vertex -10.7592 -4.79033 4
    endloop
  endfacet
  facet normal 0 0 1
    outer loop
      vertex -13.4999 -6.01054 4
      vertex -10.7592 -4.79033 4
      vertex -11.5201 -2.44867 4
    endloop
  endfacet
  facet normal 0 0 1
    outer loop
      vertex -9.52817 -6.92262 4
      vertex -11.9552 -8.68598 4
      vertex -9.88805 -10.9818 4
    endloop
  endfacet
  facet normal 0 0 1
    outer loop
      vertex -14.4545 -3.07241 4
      vertex -11.5201 -2.44867 4
      vertex -11.7775 0 4
    endloop
  endfacet
  facet normal -0 0 1
    outer loop
      vertex -14.4545 3.07241 4
      vertex -11.5201 2.44867 4
      vertex -13.4999 6.01054 4
    endloop
  endfacet
  facet normal 0 0 1
    outer loop
      vertex -11.5201 2.44867 4
      vertex -14.4545 3.07241 4
      vertex -11.7775 0 4
    endloop
  endfacet
  facet normal 0 0 1
    outer loop
      vertex -10.7592 -4.79033 4
      vertex -13.4999 -6.01054 4
      vertex -11.9552 -8.68598 4
    endloop
  endfacet
  facet normal 0 0 1
    outer loop
      vertex -14.7775 0 4
      vertex -11.7775 0 4
      vertex -14.4545 3.07241 4
    endloop
  endfacet
  facet normal 0 0 1
    outer loop
      vertex -11.5201 -2.44867 4
      vertex -14.4545 -3.07241 4
      vertex -13.4999 -6.01054 4
    endloop
  endfacet
  facet normal 0 0 1
    outer loop
      vertex -11.7775 0 4
      vertex -14.7775 0 4
      vertex -14.4545 -3.07241 4
    endloop
  endfacet
  facet normal -0.866025 -0.5 0
    outer loop
      vertex 10.7592 4.79033 0
      vertex 9.52817 6.92262 4
      vertex 9.52817 6.92262 0
    endloop
  endfacet
  facet normal -0.866025 -0.5 0
    outer loop
      vertex 9.52817 6.92262 4
      vertex 10.7592 4.79033 0
      vertex 10.7592 4.79033 4
    endloop
  endfacet
  facet normal 0.994522 -0.104528 0
    outer loop
      vertex -11.7775 0 4
      vertex -11.5201 2.44867 0
      vertex -11.5201 2.44867 4
    endloop
  endfacet
  facet normal 0.994522 -0.104528 0
    outer loop
      vertex -11.5201 2.44867 0
      vertex -11.7775 0 4
      vertex -11.7775 0 0
    endloop
  endfacet
  facet normal 0.994522 0.104528 0
    outer loop
      vertex -11.5201 -2.44867 4
      vertex -11.7775 0 0
      vertex -11.7775 0 4
    endloop
  endfacet
  facet normal 0.994522 0.104528 0
    outer loop
      vertex -11.7775 0 0
      vertex -11.5201 -2.44867 4
      vertex -11.5201 -2.44867 0
    endloop
  endfacet
  facet normal -0.743145 -0.669131 0
    outer loop
      vertex 9.52817 6.92262 0
      vertex 7.88066 8.75236 4
      vertex 7.88066 8.75236 0
    endloop
  endfacet
  facet normal -0.743145 -0.669131 0
    outer loop
      vertex 7.88066 8.75236 4
      vertex 9.52817 6.92262 0
      vertex 9.52817 6.92262 4
    endloop
  endfacet
  facet normal -0.406737 -0.913545 0
    outer loop
      vertex 3.63944 11.201 0
      vertex 5.88873 10.1996 4
      vertex 3.63944 11.201 4
    endloop
  endfacet
  facet normal -0.406737 -0.913545 -0
    outer loop
      vertex 5.88873 10.1996 4
      vertex 3.63944 11.201 0
      vertex 5.88873 10.1996 0
    endloop
  endfacet
  facet normal 0.406737 -0.913545 0
    outer loop
      vertex -5.88873 10.1996 0
      vertex -3.63944 11.201 4
      vertex -5.88873 10.1996 4
    endloop
  endfacet
  facet normal 0.406737 -0.913545 0
    outer loop
      vertex -3.63944 11.201 4
      vertex -5.88873 10.1996 0
      vertex -3.63944 11.201 0
    endloop
  endfacet
  facet normal 0.951056 -0.309017 0
    outer loop
      vertex -11.5201 2.44867 4
      vertex -10.7592 4.79033 0
      vertex -10.7592 4.79033 4
    endloop
  endfacet
  facet normal 0.951056 -0.309017 0
    outer loop
      vertex -10.7592 4.79033 0
      vertex -11.5201 2.44867 4
      vertex -11.5201 2.44867 0
    endloop
  endfacet
  facet normal -0.994522 0.104528 0
    outer loop
      vertex 11.5201 -2.44867 0
      vertex 11.7775 0 4
      vertex 11.7775 0 0
    endloop
  endfacet
  facet normal -0.994522 0.104528 0
    outer loop
      vertex 11.7775 0 4
      vertex 11.5201 -2.44867 0
      vertex 11.5201 -2.44867 4
    endloop
  endfacet
  facet normal -0.951056 -0.309017 0
    outer loop
      vertex 11.5201 2.44867 0
      vertex 10.7592 4.79033 4
      vertex 10.7592 4.79033 0
    endloop
  endfacet
  facet normal -0.951056 -0.309017 0
    outer loop
      vertex 10.7592 4.79033 4
      vertex 11.5201 2.44867 0
      vertex 11.5201 2.44867 4
    endloop
  endfacet
  facet normal 0 -1 0
    outer loop
      vertex -1.23108 11.7129 0
      vertex 1.23108 11.7129 4
      vertex -1.23108 11.7129 4
    endloop
  endfacet
  facet normal 0 -1 -0
    outer loop
      vertex 1.23108 11.7129 4
      vertex -1.23108 11.7129 0
      vertex 1.23108 11.7129 0
    endloop
  endfacet
  facet normal -0.587785 -0.809017 0
    outer loop
      vertex 5.88873 10.1996 0
      vertex 7.88066 8.75236 4
      vertex 5.88873 10.1996 4
    endloop
  endfacet
  facet normal -0.587785 -0.809017 -0
    outer loop
      vertex 7.88066 8.75236 4
      vertex 5.88873 10.1996 0
      vertex 7.88066 8.75236 0
    endloop
  endfacet
  facet normal 0.866025 -0.5 0
    outer loop
      vertex -10.7592 4.79033 4
      vertex -9.52817 6.92262 0
      vertex -9.52817 6.92262 4
    endloop
  endfacet
  facet normal 0.866025 -0.5 0
    outer loop
      vertex -9.52817 6.92262 0
      vertex -10.7592 4.79033 4
      vertex -10.7592 4.79033 0
    endloop
  endfacet
  facet normal 0.587785 -0.809017 0
    outer loop
      vertex -7.88066 8.75236 0
      vertex -5.88873 10.1996 4
      vertex -7.88066 8.75236 4
    endloop
  endfacet
  facet normal 0.587785 -0.809017 0
    outer loop
      vertex -5.88873 10.1996 4
      vertex -7.88066 8.75236 0
      vertex -5.88873 10.1996 0
    endloop
  endfacet
  facet normal 0.207911 -0.978148 0
    outer loop
      vertex -3.63944 11.201 0
      vertex -1.23108 11.7129 4
      vertex -3.63944 11.201 4
    endloop
  endfacet
  facet normal 0.207911 -0.978148 0
    outer loop
      vertex -1.23108 11.7129 4
      vertex -3.63944 11.201 0
      vertex -1.23108 11.7129 0
    endloop
  endfacet
  facet normal 0.743145 -0.669131 0
    outer loop
      vertex -9.52817 6.92262 4
      vertex -7.88066 8.75236 0
      vertex -7.88066 8.75236 4
    endloop
  endfacet
  facet normal 0.743145 -0.669131 0
    outer loop
      vertex -7.88066 8.75236 0
      vertex -9.52817 6.92262 4
      vertex -9.52817 6.92262 0
    endloop
  endfacet
  facet normal -0.994522 -0.104528 0
    outer loop
      vertex 11.7775 0 0
      vertex 11.5201 2.44867 4
      vertex 11.5201 2.44867 0
    endloop
  endfacet
  facet normal -0.994522 -0.104528 0
    outer loop
      vertex 11.5201 2.44867 4
      vertex 11.7775 0 0
      vertex 11.7775 0 4
    endloop
  endfacet
  facet normal -0.951056 0.309017 0
    outer loop
      vertex 10.7592 -4.79033 0
      vertex 11.5201 -2.44867 4
      vertex 11.5201 -2.44867 0
    endloop
  endfacet
  facet normal -0.951056 0.309017 0
    outer loop
      vertex 11.5201 -2.44867 4
      vertex 10.7592 -4.79033 0
      vertex 10.7592 -4.79033 4
    endloop
  endfacet
  facet normal -0.587785 0.809017 0
    outer loop
      vertex 7.88066 -8.75236 0
      vertex 5.88873 -10.1996 4
      vertex 7.88066 -8.75236 4
    endloop
  endfacet
  facet normal -0.587785 0.809017 0
    outer loop
      vertex 5.88873 -10.1996 4
      vertex 7.88066 -8.75236 0
      vertex 5.88873 -10.1996 0
    endloop
  endfacet
  facet normal -0.207911 -0.978148 0
    outer loop
      vertex 1.23108 11.7129 0
      vertex 3.63944 11.201 4
      vertex 1.23108 11.7129 4
    endloop
  endfacet
  facet normal -0.207911 -0.978148 -0
    outer loop
      vertex 3.63944 11.201 4
      vertex 1.23108 11.7129 0
      vertex 3.63944 11.201 0
    endloop
  endfacet
  facet normal -0.866025 0.5 0
    outer loop
      vertex 9.52817 -6.92262 0
      vertex 10.7592 -4.79033 4
      vertex 10.7592 -4.79033 0
    endloop
  endfacet
  facet normal -0.866025 0.5 0
    outer loop
      vertex 10.7592 -4.79033 4
      vertex 9.52817 -6.92262 0
      vertex 9.52817 -6.92262 4
    endloop
  endfacet
  facet normal -0.207911 0.978148 0
    outer loop
      vertex 3.63944 -11.201 0
      vertex 1.23108 -11.7129 4
      vertex 3.63944 -11.201 4
    endloop
  endfacet
  facet normal -0.207911 0.978148 0
    outer loop
      vertex 1.23108 -11.7129 4
      vertex 3.63944 -11.201 0
      vertex 1.23108 -11.7129 0
    endloop
  endfacet
  facet normal -0.406737 0.913545 0
    outer loop
      vertex 5.88873 -10.1996 0
      vertex 3.63944 -11.201 4
      vertex 5.88873 -10.1996 4
    endloop
  endfacet
  facet normal -0.406737 0.913545 0
    outer loop
      vertex 3.63944 -11.201 4
      vertex 5.88873 -10.1996 0
      vertex 3.63944 -11.201 0
    endloop
  endfacet
  facet normal 0.207911 0.978148 -0
    outer loop
      vertex -1.23108 -11.7129 0
      vertex -3.63944 -11.201 4
      vertex -1.23108 -11.7129 4
    endloop
  endfacet
  facet normal 0.207911 0.978148 0
    outer loop
      vertex -3.63944 -11.201 4
      vertex -1.23108 -11.7129 0
      vertex -3.63944 -11.201 0
    endloop
  endfacet
  facet normal 0 1 -0
    outer loop
      vertex 1.23108 -11.7129 0
      vertex -1.23108 -11.7129 4
      vertex 1.23108 -11.7129 4
    endloop
  endfacet
  facet normal 0 1 0
    outer loop
      vertex -1.23108 -11.7129 4
      vertex 1.23108 -11.7129 0
      vertex -1.23108 -11.7129 0
    endloop
  endfacet
  facet normal 0.866025 0.5 0
    outer loop
      vertex -9.52817 -6.92262 4
      vertex -10.7592 -4.79033 0
      vertex -10.7592 -4.79033 4
    endloop
  endfacet
  facet normal 0.866025 0.5 0
    outer loop
      vertex -10.7592 -4.79033 0
      vertex -9.52817 -6.92262 4
      vertex -9.52817 -6.92262 0
    endloop
  endfacet
  facet normal 0.951056 0.309017 0
    outer loop
      vertex -10.7592 -4.79033 4
      vertex -11.5201 -2.44867 0
      vertex -11.5201 -2.44867 4
    endloop
  endfacet
  facet normal 0.951056 0.309017 0
    outer loop
      vertex -11.5201 -2.44867 0
      vertex -10.7592 -4.79033 4
      vertex -10.7592 -4.79033 0
    endloop
  endfacet
  facet normal 0.743145 0.669131 0
    outer loop
      vertex -7.88066 -8.75236 4
      vertex -9.52817 -6.92262 0
      vertex -9.52817 -6.92262 4
    endloop
  endfacet
  facet normal 0.743145 0.669131 0
    outer loop
      vertex -9.52817 -6.92262 0
      vertex -7.88066 -8.75236 4
      vertex -7.88066 -8.75236 0
    endloop
  endfacet
  facet normal -0.743145 0.669131 0
    outer loop
      vertex 7.88066 -8.75236 0
      vertex 9.52817 -6.92262 4
      vertex 9.52817 -6.92262 0
    endloop
  endfacet
  facet normal -0.743145 0.669131 0
    outer loop
      vertex 9.52817 -6.92262 4
      vertex 7.88066 -8.75236 0
      vertex 7.88066 -8.75236 4
    endloop
  endfacet
  facet normal 0.406737 0.913545 -0
    outer loop
      vertex -3.63944 -11.201 0
      vertex -5.88873 -10.1996 4
      vertex -3.63944 -11.201 4
    endloop
  endfacet
  facet normal 0.406737 0.913545 0
    outer loop
      vertex -5.88873 -10.1996 4
      vertex -3.63944 -11.201 0
      vertex -5.88873 -10.1996 0
    endloop
  endfacet
  facet normal 0.587785 0.809017 -0
    outer loop
      vertex -5.88873 -10.1996 0
      vertex -7.88066 -8.75236 4
      vertex -5.88873 -10.1996 4
    endloop
  endfacet
  facet normal 0.587785 0.809017 0
    outer loop
      vertex -7.88066 -8.75236 4
      vertex -5.88873 -10.1996 0
      vertex -7.88066 -8.75236 0
    endloop
  endfacet
  facet normal -0.951057 -0.309017 0
    outer loop
      vertex 32.5549 0 0
      vertex 31.982 1.76336 2.4
      vertex 31.982 1.76336 0
    endloop
  endfacet
  facet normal -0.951057 -0.309017 0
    outer loop
      vertex 31.982 1.76336 2.4
      vertex 32.5549 0 0
      vertex 32.5549 0 2.4
    endloop
  endfacet
  facet normal 0.951057 -0.309017 0
    outer loop
      vertex 26.5549 0 2.4
      vertex 27.1279 1.76336 0
      vertex 27.1279 1.76336 2.4
    endloop
  endfacet
  facet normal 0.951057 -0.309017 0
    outer loop
      vertex 27.1279 1.76336 0
      vertex 26.5549 0 2.4
      vertex 26.5549 0 0
    endloop
  endfacet
  facet normal 0 1 -0
    outer loop
      vertex 30.482 -2.85317 0
      vertex 28.6279 -2.85317 2.4
      vertex 30.482 -2.85317 2.4
    endloop
  endfacet
  facet normal 0 1 0
    outer loop
      vertex 28.6279 -2.85317 2.4
      vertex 30.482 -2.85317 0
      vertex 28.6279 -2.85317 0
    endloop
  endfacet
  facet normal 0 -1 0
    outer loop
      vertex 28.6279 2.85317 0
      vertex 30.482 2.85317 2.4
      vertex 28.6279 2.85317 2.4
    endloop
  endfacet
  facet normal 0 -1 -0
    outer loop
      vertex 30.482 2.85317 2.4
      vertex 28.6279 2.85317 0
      vertex 30.482 2.85317 0
    endloop
  endfacet
  facet normal -0.587785 -0.809017 0
    outer loop
      vertex 30.482 2.85317 0
      vertex 31.982 1.76336 2.4
      vertex 30.482 2.85317 2.4
    endloop
  endfacet
  facet normal -0.587785 -0.809017 -0
    outer loop
      vertex 31.982 1.76336 2.4
      vertex 30.482 2.85317 0
      vertex 31.982 1.76336 0
    endloop
  endfacet
  facet normal 0.587785 -0.809017 0
    outer loop
      vertex 27.1279 1.76336 0
      vertex 28.6279 2.85317 2.4
      vertex 27.1279 1.76336 2.4
    endloop
  endfacet
  facet normal 0.587785 -0.809017 0
    outer loop
      vertex 28.6279 2.85317 2.4
      vertex 27.1279 1.76336 0
      vertex 28.6279 2.85317 0
    endloop
  endfacet
  facet normal -0.587785 0.809017 0
    outer loop
      vertex 31.982 -1.76336 0
      vertex 30.482 -2.85317 2.4
      vertex 31.982 -1.76336 2.4
    endloop
  endfacet
  facet normal -0.587785 0.809017 0
    outer loop
      vertex 30.482 -2.85317 2.4
      vertex 31.982 -1.76336 0
      vertex 30.482 -2.85317 0
    endloop
  endfacet
  facet normal -0.951057 0.309017 0
    outer loop
      vertex 31.982 -1.76336 0
      vertex 32.5549 0 2.4
      vertex 32.5549 0 0
    endloop
  endfacet
  facet normal -0.951057 0.309017 0
    outer loop
      vertex 32.5549 0 2.4
      vertex 31.982 -1.76336 0
      vertex 31.982 -1.76336 2.4
    endloop
  endfacet
  facet normal 0.587785 0.809017 -0
    outer loop
      vertex 28.6279 -2.85317 0
      vertex 27.1279 -1.76336 2.4
      vertex 28.6279 -2.85317 2.4
    endloop
  endfacet
  facet normal 0.587785 0.809017 0
    outer loop
      vertex 27.1279 -1.76336 2.4
      vertex 28.6279 -2.85317 0
      vertex 27.1279 -1.76336 0
    endloop
  endfacet
  facet normal 0.951057 0.309017 0
    outer loop
      vertex 27.1279 -1.76336 2.4
      vertex 26.5549 0 0
      vertex 26.5549 0 2.4
    endloop
  endfacet
  facet normal 0.951057 0.309017 0
    outer loop
      vertex 26.5549 0 0
      vertex 27.1279 -1.76336 2.4
      vertex 27.1279 -1.76336 0
    endloop
  endfacet
  facet normal 0 0 1
    outer loop
      vertex 23.6572 -2.89911 1.6
      vertex 18.7292 -2.1841 1.6
      vertex 23.6572 -4.4231 1.6
    endloop
  endfacet
  facet normal 0 0 1
    outer loop
      vertex 18.4612 -0.535094 1.6
      vertex 18.7292 -2.1841 1.6
      vertex 23.6572 -2.89911 1.6
    endloop
  endfacet
  facet normal -0 0 1
    outer loop
      vertex 17.5772 -0.535094 1.6
      vertex 18.7292 -2.1841 1.6
      vertex 18.4612 -0.535094 1.6
    endloop
  endfacet
  facet normal 0 0 1
    outer loop
      vertex 18.7292 -2.1841 1.6
      vertex 17.5772 -0.535094 1.6
      vertex 17.5772 -5.1051 1.6
    endloop
  endfacet
  facet normal 0 0 1
    outer loop
      vertex 18.7292 -2.1841 1.6
      vertex 17.5772 -5.1051 1.6
      vertex 18.7292 -5.1051 1.6
    endloop
  endfacet
  facet normal 0 0 1
    outer loop
      vertex 21.4172 4.54199 1.6
      vertex 18.8692 3.06299 1.6
      vertex 21.4172 3.06299 1.6
    endloop
  endfacet
  facet normal 0 -0 1
    outer loop
      vertex 18.8692 3.06299 1.6
      vertex 21.4172 4.54199 1.6
      vertex 17.5772 4.54199 1.6
    endloop
  endfacet
  facet normal 0 0 1
    outer loop
      vertex 21.4172 4.54199 1.6
      vertex 22.5052 4.54199 1.6
      vertex 22.5052 5.407 1.6
    endloop
  endfacet
  facet normal 0 0 1
    outer loop
      vertex 22.5052 4.54199 1.6
      vertex 21.4172 4.54199 1.6
      vertex 22.5052 3.06299 1.6
    endloop
  endfacet
  facet normal 0 0 1
    outer loop
      vertex 21.4172 4.54199 1.6
      vertex 22.5052 5.407 1.6
      vertex 21.4172 5.407 1.6
    endloop
  endfacet
  facet normal 0 0 1
    outer loop
      vertex 22.5052 3.06299 1.6
      vertex 21.4172 4.54199 1.6
      vertex 21.4172 3.06299 1.6
    endloop
  endfacet
  facet normal 0 0 1
    outer loop
      vertex 21.4172 1.349 1.6
      vertex 22.5052 3.06299 1.6
      vertex 21.4172 3.06299 1.6
    endloop
  endfacet
  facet normal 0 0 1
    outer loop
      vertex 22.5052 3.06299 1.6
      vertex 21.4172 1.349 1.6
      vertex 22.5052 0.373992 1.6
    endloop
  endfacet
  facet normal 0 0 1
    outer loop
      vertex 21.4172 1.349 1.6
      vertex 21.1732 0.373992 1.6
      vertex 22.5052 0.373992 1.6
    endloop
  endfacet
  facet normal 0 0 1
    outer loop
      vertex 18.8692 3.06299 1.6
      vertex 21.1732 0.373992 1.6
      vertex 21.4172 1.349 1.6
    endloop
  endfacet
  facet normal 0 0 1
    outer loop
      vertex 17.5772 2.80299 1.6
      vertex 18.8692 3.06299 1.6
      vertex 17.5772 4.54199 1.6
    endloop
  endfacet
  facet normal 0 0 1
    outer loop
      vertex 18.8692 3.06299 1.6
      vertex 17.5772 2.80299 1.6
      vertex 21.1732 0.373992 1.6
    endloop
  endfacet
  facet normal 0 0 1
    outer loop
      vertex 22.5052 4.54199 1.6
      vertex 23.6572 3.06299 1.6
      vertex 23.6572 4.54199 1.6
    endloop
  endfacet
  facet normal 0 0 1
    outer loop
      vertex 23.6572 3.06299 1.6
      vertex 22.5052 4.54199 1.6
      vertex 22.5052 3.06299 1.6
    endloop
  endfacet
  facet normal 0 -1 0
    outer loop
      vertex 17.5772 -0.535094 1.6
      vertex 18.4612 -0.535094 2.4
      vertex 17.5772 -0.535094 2.4
    endloop
  endfacet
  facet normal 0 -1 -0
    outer loop
      vertex 18.4612 -0.535094 2.4
      vertex 17.5772 -0.535094 1.6
      vertex 18.4612 -0.535094 1.6
    endloop
  endfacet
  facet normal 1 -0 0
    outer loop
      vertex 17.5772 -5.1051 2.4
      vertex 17.5772 -0.535094 1.6
      vertex 17.5772 -0.535094 2.4
    endloop
  endfacet
  facet normal 1 0 0
    outer loop
      vertex 17.5772 -0.535094 1.6
      vertex 17.5772 -5.1051 2.4
      vertex 17.5772 -5.1051 1.6
    endloop
  endfacet
  facet normal 8.27847e-07 1 -0
    outer loop
      vertex 18.7292 -5.1051 1.6
      vertex 17.5772 -5.1051 2.4
      vertex 18.7292 -5.1051 2.4
    endloop
  endfacet
  facet normal 8.27847e-07 1 0
    outer loop
      vertex 17.5772 -5.1051 2.4
      vertex 18.7292 -5.1051 1.6
      vertex 17.5772 -5.1051 1.6
    endloop
  endfacet
  facet normal -1 0 0
    outer loop
      vertex 18.7292 -5.1051 1.6
      vertex 18.7292 -2.1841 2.4
      vertex 18.7292 -2.1841 1.6
    endloop
  endfacet
  facet normal -1 -0 0
    outer loop
      vertex 18.7292 -2.1841 2.4
      vertex 18.7292 -5.1051 1.6
      vertex 18.7292 -5.1051 2.4
    endloop
  endfacet
  facet normal 0.41365 0.910436 -0
    outer loop
      vertex 23.6572 -4.4231 1.6
      vertex 18.7292 -2.1841 2.4
      vertex 23.6572 -4.4231 2.4
    endloop
  endfacet
  facet normal 0.41365 0.910436 0
    outer loop
      vertex 18.7292 -2.1841 2.4
      vertex 23.6572 -4.4231 1.6
      vertex 18.7292 -2.1841 1.6
    endloop
  endfacet
  facet normal -1 0 0
    outer loop
      vertex 23.6572 -4.4231 1.6
      vertex 23.6572 -2.89911 2.4
      vertex 23.6572 -2.89911 1.6
    endloop
  endfacet
  facet normal -1 -0 0
    outer loop
      vertex 23.6572 -2.89911 2.4
      vertex 23.6572 -4.4231 1.6
      vertex 23.6572 -4.4231 2.4
    endloop
  endfacet
  facet normal -0.414122 -0.910221 0
    outer loop
      vertex 18.4612 -0.535094 1.6
      vertex 23.6572 -2.89911 2.4
      vertex 18.4612 -0.535094 2.4
    endloop
  endfacet
  facet normal -0.414122 -0.910221 -0
    outer loop
      vertex 23.6572 -2.89911 2.4
      vertex 18.4612 -0.535094 1.6
      vertex 23.6572 -2.89911 1.6
    endloop
  endfacet
  facet normal -1 0 0
    outer loop
      vertex 22.5052 4.54199 1.6
      vertex 22.5052 5.407 2.4
      vertex 22.5052 5.407 1.6
    endloop
  endfacet
  facet normal -1 -0 0
    outer loop
      vertex 22.5052 5.407 2.4
      vertex 22.5052 4.54199 1.6
      vertex 22.5052 4.54199 2.4
    endloop
  endfacet
  facet normal 0 -1 0
    outer loop
      vertex 21.4172 5.407 1.6
      vertex 22.5052 5.407 2.4
      vertex 21.4172 5.407 2.4
    endloop
  endfacet
  facet normal 0 -1 -0
    outer loop
      vertex 22.5052 5.407 2.4
      vertex 21.4172 5.407 1.6
      vertex 22.5052 5.407 1.6
    endloop
  endfacet
  facet normal 1 -0 0
    outer loop
      vertex 21.4172 4.54199 2.4
      vertex 21.4172 5.407 1.6
      vertex 21.4172 5.407 2.4
    endloop
  endfacet
  facet normal 1 0 0
    outer loop
      vertex 21.4172 5.407 1.6
      vertex 21.4172 4.54199 2.4
      vertex 21.4172 4.54199 1.6
    endloop
  endfacet
  facet normal 0 -1 0
    outer loop
      vertex 17.5772 4.54199 1.6
      vertex 21.4172 4.54199 2.4
      vertex 17.5772 4.54199 2.4
    endloop
  endfacet
  facet normal 0 -1 -0
    outer loop
      vertex 21.4172 4.54199 2.4
      vertex 17.5772 4.54199 1.6
      vertex 21.4172 4.54199 1.6
    endloop
  endfacet
  facet normal 1 -0 0
    outer loop
      vertex 17.5772 2.80299 2.4
      vertex 17.5772 4.54199 1.6
      vertex 17.5772 4.54199 2.4
    endloop
  endfacet
  facet normal 1 0 0
    outer loop
      vertex 17.5772 4.54199 1.6
      vertex 17.5772 2.80299 2.4
      vertex 17.5772 2.80299 1.6
    endloop
  endfacet
  facet normal 0.559745 0.828665 -0
    outer loop
      vertex 21.1732 0.373992 1.6
      vertex 17.5772 2.80299 2.4
      vertex 21.1732 0.373992 2.4
    endloop
  endfacet
  facet normal 0.559745 0.828665 0
    outer loop
      vertex 17.5772 2.80299 2.4
      vertex 21.1732 0.373992 1.6
      vertex 17.5772 2.80299 1.6
    endloop
  endfacet
  facet normal 0 1 -0
    outer loop
      vertex 22.5052 0.373992 1.6
      vertex 21.1732 0.373992 2.4
      vertex 22.5052 0.373992 2.4
    endloop
  endfacet
  facet normal 0 1 0
    outer loop
      vertex 21.1732 0.373992 2.4
      vertex 22.5052 0.373992 1.6
      vertex 21.1732 0.373992 1.6
    endloop
  endfacet
  facet normal -1 0 0
    outer loop
      vertex 22.5052 0.373992 1.6
      vertex 22.5052 3.06299 2.4
      vertex 22.5052 3.06299 1.6
    endloop
  endfacet
  facet normal -1 -0 0
    outer loop
      vertex 22.5052 3.06299 2.4
      vertex 22.5052 0.373992 1.6
      vertex 22.5052 0.373992 2.4
    endloop
  endfacet
  facet normal 0 1 -0
    outer loop
      vertex 23.6572 3.06299 1.6
      vertex 22.5052 3.06299 2.4
      vertex 23.6572 3.06299 2.4
    endloop
  endfacet
  facet normal 0 1 0
    outer loop
      vertex 22.5052 3.06299 2.4
      vertex 23.6572 3.06299 1.6
      vertex 22.5052 3.06299 1.6
    endloop
  endfacet
  facet normal -1 0 0
    outer loop
      vertex 23.6572 3.06299 1.6
      vertex 23.6572 4.54199 2.4
      vertex 23.6572 4.54199 1.6
    endloop
  endfacet
  facet normal -1 -0 0
    outer loop
      vertex 23.6572 4.54199 2.4
      vertex 23.6572 3.06299 1.6
      vertex 23.6572 3.06299 2.4
    endloop
  endfacet
  facet normal -8.27836e-07 -1 0
    outer loop
      vertex 22.5052 4.54199 1.6
      vertex 23.6572 4.54199 2.4
      vertex 22.5052 4.54199 2.4
    endloop
  endfacet
  facet normal -8.27836e-07 -1 -0
    outer loop
      vertex 23.6572 4.54199 2.4
      vertex 22.5052 4.54199 1.6
      vertex 23.6572 4.54199 1.6
    endloop
  endfacet
  facet normal -0.558152 -0.829739 0
    outer loop
      vertex 18.8692 3.06299 1.6
      vertex 21.4172 1.349 2.4
      vertex 18.8692 3.06299 2.4
    endloop
  endfacet
  facet normal -0.558152 -0.829739 -0
    outer loop
      vertex 21.4172 1.349 2.4
      vertex 18.8692 3.06299 1.6
      vertex 21.4172 1.349 1.6
    endloop
  endfacet
  facet normal 0 1 -0
    outer loop
      vertex 21.4172 3.06299 1.6
      vertex 18.8692 3.06299 2.4
      vertex 21.4172 3.06299 2.4
    endloop
  endfacet
  facet normal 0 1 0
    outer loop
      vertex 18.8692 3.06299 2.4
      vertex 21.4172 3.06299 1.6
      vertex 18.8692 3.06299 1.6
    endloop
  endfacet
  facet normal 1 -0 0
    outer loop
      vertex 21.4172 1.349 2.4
      vertex 21.4172 3.06299 1.6
      vertex 21.4172 3.06299 2.4
    endloop
  endfacet
  facet normal 1 0 0
    outer loop
      vertex 21.4172 3.06299 1.6
      vertex 21.4172 1.349 2.4
      vertex 21.4172 1.349 1.6
    endloop
  endfacet
endsolid OpenSCAD_Model
