solid OpenSCAD_Model
  facet normal 0 0 -1
    outer loop
      vertex 32.8732 0 0
      vertex 37.3416 0 0
      vertex 37.0871 -1.93294 0
    endloop
  endfacet
  facet normal 0 0 -1
    outer loop
      vertex 32.3003 -1.76336 0
      vertex 37.0871 -1.93294 0
      vertex 36.341 -3.73415 0
    endloop
  endfacet
  facet normal 0 0 -1
    outer loop
      vertex 37.3416 0 0
      vertex 32.8732 0 0
      vertex 37.0871 1.93294 0
    endloop
  endfacet
  facet normal 0 0 -1
    outer loop
      vertex 32.3003 -1.76336 0
      vertex 36.341 -3.73415 0
      vertex 35.1541 -5.28089 0
    endloop
  endfacet
  facet normal 0 0 -1
    outer loop
      vertex 32.3003 1.76336 0
      vertex 37.0871 1.93294 0
      vertex 32.8732 0 0
    endloop
  endfacet
  facet normal 0 0 -1
    outer loop
      vertex 32.3003 -1.76336 0
      vertex 35.1541 -5.28089 0
      vertex 33.6074 -6.46775 0
    endloop
  endfacet
  facet normal -0 0 -1
    outer loop
      vertex 37.0871 1.93294 0
      vertex 32.3003 1.76336 0
      vertex 36.341 3.73415 0
    endloop
  endfacet
  facet normal -0 0 -1
    outer loop
      vertex 36.341 3.73415 0
      vertex 32.3003 1.76336 0
      vertex 35.1541 5.28089 0
    endloop
  endfacet
  facet normal 0 0 -1
    outer loop
      vertex 37.0871 -1.93294 0
      vertex 32.3003 -1.76336 0
      vertex 32.8732 0 0
    endloop
  endfacet
  facet normal 0 0 -1
    outer loop
      vertex 30.8003 -2.85317 0
      vertex 33.6074 -6.46775 0
      vertex 31.8062 -7.21383 0
    endloop
  endfacet
  facet normal 0 0 -1
    outer loop
      vertex 33.6074 -6.46775 0
      vertex 30.8003 -2.85317 0
      vertex 32.3003 -1.76336 0
    endloop
  endfacet
  facet normal 0 0 -1
    outer loop
      vertex 31.8062 -7.21383 0
      vertex 28.9462 -2.85317 0
      vertex 30.8003 -2.85317 0
    endloop
  endfacet
  facet normal 0 0 -1
    outer loop
      vertex 31.8062 -7.21383 0
      vertex 27.4462 -1.76336 0
      vertex 28.9462 -2.85317 0
    endloop
  endfacet
  facet normal 0 0 -1
    outer loop
      vertex 11.6758 -2.48176 0
      vertex 26.8732 0 0
      vertex 27.4462 -1.76336 0
    endloop
  endfacet
  facet normal 0 0 -1
    outer loop
      vertex 10.9046 -4.85506 0
      vertex 27.4462 -1.76336 0
      vertex 31.8062 -7.21383 0
    endloop
  endfacet
  facet normal -0 0 -1
    outer loop
      vertex 26.8732 0 0
      vertex 11.6758 -2.48176 0
      vertex 11.9366 0 0
    endloop
  endfacet
  facet normal 0 0 -1
    outer loop
      vertex 27.4462 -1.76336 0
      vertex 10.9046 -4.85506 0
      vertex 11.6758 -2.48176 0
    endloop
  endfacet
  facet normal 0 0 -1
    outer loop
      vertex 31.8062 -7.21383 0
      vertex 9.65693 -7.01617 0
      vertex 10.9046 -4.85506 0
    endloop
  endfacet
  facet normal -0 0 -1
    outer loop
      vertex 31.8062 -7.21383 0
      vertex 7.98716 -8.87064 0
      vertex 9.65693 -7.01617 0
    endloop
  endfacet
  facet normal 0 0 -1
    outer loop
      vertex 4.61567 -14.2056 0
      vertex 7.98716 -8.87064 0
      vertex 31.8062 -7.21383 0
    endloop
  endfacet
  facet normal 0 0 -1
    outer loop
      vertex 7.98716 -8.87064 0
      vertex 4.61567 -14.2056 0
      vertex 5.96831 -10.3374 0
    endloop
  endfacet
  facet normal 0 0 -1
    outer loop
      vertex 4.61567 -14.2056 0
      vertex 3.68862 -11.3524 0
      vertex 5.96831 -10.3374 0
    endloop
  endfacet
  facet normal 0 0 -1
    outer loop
      vertex 1.5613 -14.8548 0
      vertex 3.68862 -11.3524 0
      vertex 4.61567 -14.2056 0
    endloop
  endfacet
  facet normal 0 0 -1
    outer loop
      vertex 1.5613 -14.8548 0
      vertex 1.24772 -11.8712 0
      vertex 3.68862 -11.3524 0
    endloop
  endfacet
  facet normal 0 0 -1
    outer loop
      vertex 1.5613 -14.8548 0
      vertex -1.24772 -11.8712 0
      vertex 1.24772 -11.8712 0
    endloop
  endfacet
  facet normal 0 0 -1
    outer loop
      vertex -1.5613 -14.8548 0
      vertex -1.24772 -11.8712 0
      vertex 1.5613 -14.8548 0
    endloop
  endfacet
  facet normal 0 0 -1
    outer loop
      vertex -1.5613 -14.8548 0
      vertex -3.68862 -11.3524 0
      vertex -1.24772 -11.8712 0
    endloop
  endfacet
  facet normal 0 0 -1
    outer loop
      vertex -4.61567 -14.2056 0
      vertex -3.68862 -11.3524 0
      vertex -1.5613 -14.8548 0
    endloop
  endfacet
  facet normal 0 0 -1
    outer loop
      vertex -4.61567 -14.2056 0
      vertex -5.96831 -10.3374 0
      vertex -3.68862 -11.3524 0
    endloop
  endfacet
  facet normal 0 0 -1
    outer loop
      vertex -7.46831 -12.9355 0
      vertex -5.96831 -10.3374 0
      vertex -4.61567 -14.2056 0
    endloop
  endfacet
  facet normal 0 0 -1
    outer loop
      vertex -7.46831 -12.9355 0
      vertex -7.98716 -8.87064 0
      vertex -5.96831 -10.3374 0
    endloop
  endfacet
  facet normal 0 0 -1
    outer loop
      vertex -9.99455 -11.1001 0
      vertex -7.98716 -8.87064 0
      vertex -7.46831 -12.9355 0
    endloop
  endfacet
  facet normal -0 0 -1
    outer loop
      vertex -7.98716 -8.87064 0
      vertex -9.99455 -11.1001 0
      vertex -9.65693 -7.01617 0
    endloop
  endfacet
  facet normal 0 0 -1
    outer loop
      vertex -12.084 -8.77952 0
      vertex -9.65693 -7.01617 0
      vertex -9.99455 -11.1001 0
    endloop
  endfacet
  facet normal -0 0 -1
    outer loop
      vertex -9.65693 -7.01617 0
      vertex -12.084 -8.77952 0
      vertex -10.9046 -4.85506 0
    endloop
  endfacet
  facet normal -0 0 -1
    outer loop
      vertex -10.9046 -4.85506 0
      vertex -13.6453 -6.07527 0
      vertex -11.6758 -2.48176 0
    endloop
  endfacet
  facet normal 0 0 -1
    outer loop
      vertex -13.6453 -6.07527 0
      vertex -10.9046 -4.85506 0
      vertex -12.084 -8.77952 0
    endloop
  endfacet
  facet normal -0 0 -1
    outer loop
      vertex 35.1541 5.28089 0
      vertex 32.3003 1.76336 0
      vertex 33.6074 6.46775 0
    endloop
  endfacet
  facet normal 0 0 -1
    outer loop
      vertex 30.8003 2.85317 0
      vertex 33.6074 6.46775 0
      vertex 32.3003 1.76336 0
    endloop
  endfacet
  facet normal -0 0 -1
    outer loop
      vertex 33.6074 6.46775 0
      vertex 30.8003 2.85317 0
      vertex 31.8062 7.21383 0
    endloop
  endfacet
  facet normal 0 0 -1
    outer loop
      vertex 28.9462 2.85317 0
      vertex 31.8062 7.21383 0
      vertex 30.8003 2.85317 0
    endloop
  endfacet
  facet normal 0 0 -1
    outer loop
      vertex 27.4462 1.76336 0
      vertex 31.8062 7.21383 0
      vertex 28.9462 2.85317 0
    endloop
  endfacet
  facet normal 0 0 -1
    outer loop
      vertex 11.6758 2.48176 0
      vertex 26.8732 0 0
      vertex 11.9366 0 0
    endloop
  endfacet
  facet normal 0 0 -1
    outer loop
      vertex 26.8732 0 0
      vertex 11.6758 2.48176 0
      vertex 27.4462 1.76336 0
    endloop
  endfacet
  facet normal 0 0 -1
    outer loop
      vertex 10.9046 4.85506 0
      vertex 27.4462 1.76336 0
      vertex 11.6758 2.48176 0
    endloop
  endfacet
  facet normal 0 0 -1
    outer loop
      vertex 27.4462 1.76336 0
      vertex 10.9046 4.85506 0
      vertex 31.8062 7.21383 0
    endloop
  endfacet
  facet normal 0 0 -1
    outer loop
      vertex 9.65693 7.01617 0
      vertex 31.8062 7.21383 0
      vertex 10.9046 4.85506 0
    endloop
  endfacet
  facet normal 0 0 -1
    outer loop
      vertex 7.98716 8.87064 0
      vertex 31.8062 7.21383 0
      vertex 9.65693 7.01617 0
    endloop
  endfacet
  facet normal 0 0 -1
    outer loop
      vertex 4.61567 14.2056 0
      vertex 7.98716 8.87064 0
      vertex 5.96831 10.3374 0
    endloop
  endfacet
  facet normal 0 0 -1
    outer loop
      vertex 7.98716 8.87064 0
      vertex 4.61567 14.2056 0
      vertex 31.8062 7.21383 0
    endloop
  endfacet
  facet normal 0 0 -1
    outer loop
      vertex 3.68862 11.3524 0
      vertex 4.61567 14.2056 0
      vertex 5.96831 10.3374 0
    endloop
  endfacet
  facet normal 0 0 -1
    outer loop
      vertex 3.68862 11.3524 0
      vertex 1.5613 14.8548 0
      vertex 4.61567 14.2056 0
    endloop
  endfacet
  facet normal 0 0 -1
    outer loop
      vertex 1.24772 11.8712 0
      vertex 1.5613 14.8548 0
      vertex 3.68862 11.3524 0
    endloop
  endfacet
  facet normal 0 0 -1
    outer loop
      vertex -1.24772 11.8712 0
      vertex 1.5613 14.8548 0
      vertex 1.24772 11.8712 0
    endloop
  endfacet
  facet normal 0 0 -1
    outer loop
      vertex -1.24772 11.8712 0
      vertex -1.5613 14.8548 0
      vertex 1.5613 14.8548 0
    endloop
  endfacet
  facet normal 0 0 -1
    outer loop
      vertex -3.68862 11.3524 0
      vertex -1.5613 14.8548 0
      vertex -1.24772 11.8712 0
    endloop
  endfacet
  facet normal 0 0 -1
    outer loop
      vertex -3.68862 11.3524 0
      vertex -4.61567 14.2056 0
      vertex -1.5613 14.8548 0
    endloop
  endfacet
  facet normal 0 0 -1
    outer loop
      vertex -5.96831 10.3374 0
      vertex -4.61567 14.2056 0
      vertex -3.68862 11.3524 0
    endloop
  endfacet
  facet normal 0 0 -1
    outer loop
      vertex -5.96831 10.3374 0
      vertex -7.46831 12.9355 0
      vertex -4.61567 14.2056 0
    endloop
  endfacet
  facet normal 0 0 -1
    outer loop
      vertex -7.98716 8.87064 0
      vertex -7.46831 12.9355 0
      vertex -5.96831 10.3374 0
    endloop
  endfacet
  facet normal 0 0 -1
    outer loop
      vertex -9.99455 11.1001 0
      vertex -7.98716 8.87064 0
      vertex -9.65693 7.01617 0
    endloop
  endfacet
  facet normal 0 0 -1
    outer loop
      vertex -7.98716 8.87064 0
      vertex -9.99455 11.1001 0
      vertex -7.46831 12.9355 0
    endloop
  endfacet
  facet normal 0 0 -1
    outer loop
      vertex -12.084 8.77952 0
      vertex -9.65693 7.01617 0
      vertex -10.9046 4.85506 0
    endloop
  endfacet
  facet normal 0 0 -1
    outer loop
      vertex -13.6453 6.07527 0
      vertex -10.9046 4.85506 0
      vertex -11.6758 2.48176 0
    endloop
  endfacet
  facet normal 0 0 -1
    outer loop
      vertex -9.65693 7.01617 0
      vertex -12.084 8.77952 0
      vertex -9.99455 11.1001 0
    endloop
  endfacet
  facet normal 0 0 -1
    outer loop
      vertex -14.6102 3.1055 0
      vertex -11.6758 2.48176 0
      vertex -11.9366 0 0
    endloop
  endfacet
  facet normal 0 0 -1
    outer loop
      vertex -14.6102 -3.1055 0
      vertex -11.6758 -2.48176 0
      vertex -13.6453 -6.07527 0
    endloop
  endfacet
  facet normal -0 0 -1
    outer loop
      vertex -11.6758 -2.48176 0
      vertex -14.6102 -3.1055 0
      vertex -11.9366 0 0
    endloop
  endfacet
  facet normal 0 0 -1
    outer loop
      vertex -10.9046 4.85506 0
      vertex -13.6453 6.07527 0
      vertex -12.084 8.77952 0
    endloop
  endfacet
  facet normal 0 0 -1
    outer loop
      vertex -14.9366 0 0
      vertex -11.9366 0 0
      vertex -14.6102 -3.1055 0
    endloop
  endfacet
  facet normal 0 0 -1
    outer loop
      vertex -11.6758 2.48176 0
      vertex -14.6102 3.1055 0
      vertex -13.6453 6.07527 0
    endloop
  endfacet
  facet normal 0 0 -1
    outer loop
      vertex -11.9366 0 0
      vertex -14.9366 0 0
      vertex -14.6102 3.1055 0
    endloop
  endfacet
  facet normal -0.951057 -0.309017 0
    outer loop
      vertex -13.6453 -6.07527 0
      vertex -14.6102 -3.1055 4
      vertex -14.6102 -3.1055 0
    endloop
  endfacet
  facet normal -0.951057 -0.309017 0
    outer loop
      vertex -14.6102 -3.1055 4
      vertex -13.6453 -6.07527 0
      vertex -13.6453 -6.07527 4
    endloop
  endfacet
  facet normal -0.994522 0.104529 0
    outer loop
      vertex -14.9366 0 0
      vertex -14.6102 3.1055 4
      vertex -14.6102 3.1055 0
    endloop
  endfacet
  facet normal -0.994522 0.104529 0
    outer loop
      vertex -14.6102 3.1055 4
      vertex -14.9366 0 0
      vertex -14.9366 0 4
    endloop
  endfacet
  facet normal 0.991445 0.130527 0
    outer loop
      vertex 37.3416 0 2.4
      vertex 37.0871 1.93294 0
      vertex 37.0871 1.93294 2.4
    endloop
  endfacet
  facet normal 0.991445 0.130527 0
    outer loop
      vertex 37.0871 1.93294 0
      vertex 37.3416 0 2.4
      vertex 37.3416 0 0
    endloop
  endfacet
  facet normal -0.994522 -0.104529 0
    outer loop
      vertex -14.6102 -3.1055 0
      vertex -14.9366 0 4
      vertex -14.9366 0 0
    endloop
  endfacet
  facet normal -0.994522 -0.104529 0
    outer loop
      vertex -14.9366 0 4
      vertex -14.6102 -3.1055 0
      vertex -14.6102 -3.1055 4
    endloop
  endfacet
  facet normal 0 1 -0
    outer loop
      vertex 1.5613 14.8548 0
      vertex -1.5613 14.8548 4
      vertex 1.5613 14.8548 4
    endloop
  endfacet
  facet normal 0 1 0
    outer loop
      vertex -1.5613 14.8548 4
      vertex 1.5613 14.8548 0
      vertex -1.5613 14.8548 0
    endloop
  endfacet
  facet normal -0.587785 0.809017 0
    outer loop
      vertex -7.46831 12.9355 0
      vertex -9.99455 11.1001 4
      vertex -7.46831 12.9355 4
    endloop
  endfacet
  facet normal -0.587785 0.809017 0
    outer loop
      vertex -9.99455 11.1001 4
      vertex -7.46831 12.9355 0
      vertex -9.99455 11.1001 0
    endloop
  endfacet
  facet normal 0.382684 0.923879 -0
    outer loop
      vertex 33.6074 6.46775 0
      vertex 31.8062 7.21383 2.4
      vertex 33.6074 6.46775 2.4
    endloop
  endfacet
  facet normal 0.382684 0.923879 0
    outer loop
      vertex 31.8062 7.21383 2.4
      vertex 33.6074 6.46775 0
      vertex 31.8062 7.21383 0
    endloop
  endfacet
  facet normal 0.249037 0.968494 -0
    outer loop
      vertex 31.8062 7.21383 0
      vertex 4.61567 14.2056 2.4
      vertex 31.8062 7.21383 2.4
    endloop
  endfacet
  facet normal 0.249037 0.968494 0
    outer loop
      vertex 4.61567 14.2056 2.4
      vertex 31.8062 7.21383 0
      vertex 4.61567 14.2056 0
    endloop
  endfacet
  facet normal -0.207911 0.978148 0
    outer loop
      vertex -1.5613 14.8548 0
      vertex -4.61567 14.2056 4
      vertex -1.5613 14.8548 4
    endloop
  endfacet
  facet normal -0.207911 0.978148 0
    outer loop
      vertex -4.61567 14.2056 4
      vertex -1.5613 14.8548 0
      vertex -4.61567 14.2056 0
    endloop
  endfacet
  facet normal -0.406737 -0.913545 0
    outer loop
      vertex -7.46831 -12.9355 0
      vertex -4.61567 -14.2056 4
      vertex -7.46831 -12.9355 4
    endloop
  endfacet
  facet normal -0.406737 -0.913545 -0
    outer loop
      vertex -4.61567 -14.2056 4
      vertex -7.46831 -12.9355 0
      vertex -4.61567 -14.2056 0
    endloop
  endfacet
  facet normal -0.866025 0.5 0
    outer loop
      vertex -13.6453 6.07527 0
      vertex -12.084 8.77952 4
      vertex -12.084 8.77952 0
    endloop
  endfacet
  facet normal -0.866025 0.5 0
    outer loop
      vertex -12.084 8.77952 4
      vertex -13.6453 6.07527 0
      vertex -13.6453 6.07527 4
    endloop
  endfacet
  facet normal 0.793353 0.608762 0
    outer loop
      vertex 36.341 3.73415 2.4
      vertex 35.1541 5.28089 0
      vertex 35.1541 5.28089 2.4
    endloop
  endfacet
  facet normal 0.793353 0.608762 0
    outer loop
      vertex 35.1541 5.28089 0
      vertex 36.341 3.73415 2.4
      vertex 36.341 3.73415 0
    endloop
  endfacet
  facet normal 0.92388 0.382683 0
    outer loop
      vertex 37.0871 1.93294 2.4
      vertex 36.341 3.73415 0
      vertex 36.341 3.73415 2.4
    endloop
  endfacet
  facet normal 0.92388 0.382683 0
    outer loop
      vertex 36.341 3.73415 0
      vertex 37.0871 1.93294 2.4
      vertex 37.0871 1.93294 0
    endloop
  endfacet
  facet normal 0.608761 0.793353 -0
    outer loop
      vertex 35.1541 5.28089 0
      vertex 33.6074 6.46775 2.4
      vertex 35.1541 5.28089 2.4
    endloop
  endfacet
  facet normal 0.608761 0.793353 0
    outer loop
      vertex 33.6074 6.46775 2.4
      vertex 35.1541 5.28089 0
      vertex 33.6074 6.46775 0
    endloop
  endfacet
  facet normal 0.207911 0.978148 -0
    outer loop
      vertex 4.61567 14.2056 2.4
      vertex 1.5613 14.8548 4
      vertex 4.61567 14.2056 4
    endloop
  endfacet
  facet normal 0.207911 0.978148 0
    outer loop
      vertex 1.5613 14.8548 0
      vertex 4.61567 14.2056 2.4
      vertex 4.61567 14.2056 0
    endloop
  endfacet
  facet normal 0.207911 0.978148 0
    outer loop
      vertex 4.61567 14.2056 2.4
      vertex 1.5613 14.8548 0
      vertex 1.5613 14.8548 4
    endloop
  endfacet
  facet normal -0.406737 0.913545 0
    outer loop
      vertex -4.61567 14.2056 0
      vertex -7.46831 12.9355 4
      vertex -4.61567 14.2056 4
    endloop
  endfacet
  facet normal -0.406737 0.913545 0
    outer loop
      vertex -7.46831 12.9355 4
      vertex -4.61567 14.2056 0
      vertex -7.46831 12.9355 0
    endloop
  endfacet
  facet normal -0.743145 0.669131 0
    outer loop
      vertex -12.084 8.77952 0
      vertex -9.99455 11.1001 4
      vertex -9.99455 11.1001 0
    endloop
  endfacet
  facet normal -0.743145 0.669131 0
    outer loop
      vertex -9.99455 11.1001 4
      vertex -12.084 8.77952 0
      vertex -12.084 8.77952 4
    endloop
  endfacet
  facet normal -0.951057 0.309017 0
    outer loop
      vertex -14.6102 3.1055 0
      vertex -13.6453 6.07527 4
      vertex -13.6453 6.07527 0
    endloop
  endfacet
  facet normal -0.951057 0.309017 0
    outer loop
      vertex -13.6453 6.07527 4
      vertex -14.6102 3.1055 0
      vertex -14.6102 3.1055 4
    endloop
  endfacet
  facet normal 0 0 1
    outer loop
      vertex 22.8575 2.42099 2.4
      vertex 20.8095 2.42099 2.4
      vertex 22.8415 2.15266 2.4
    endloop
  endfacet
  facet normal 0 0 1
    outer loop
      vertex 22.7935 1.87298 2.4
      vertex 21.0742 1.16821 2.4
      vertex 21.1935 0.881988 2.4
    endloop
  endfacet
  facet normal 0 0 1
    outer loop
      vertex 22.7935 1.87298 2.4
      vertex 20.9775 1.44154 2.4
      vertex 21.0742 1.16821 2.4
    endloop
  endfacet
  facet normal 0 0 1
    outer loop
      vertex 20.84 2.77344 2.4
      vertex 21.0835 3.31699 2.4
      vertex 20.9313 3.0721 2.4
    endloop
  endfacet
  facet normal 0 0 1
    outer loop
      vertex 22.7935 1.87298 2.4
      vertex 20.9035 1.702 2.4
      vertex 20.9775 1.44154 2.4
    endloop
  endfacet
  facet normal 0 0 1
    outer loop
      vertex 22.7935 1.87298 2.4
      vertex 20.8513 1.95166 2.4
      vertex 20.9035 1.702 2.4
    endloop
  endfacet
  facet normal -0 -0 1
    outer loop
      vertex 20.82 2.19133 2.4
      vertex 22.8415 2.15266 2.4
      vertex 20.8095 2.42099 2.4
    endloop
  endfacet
  facet normal 0 0 1
    outer loop
      vertex 22.8415 2.15266 2.4
      vertex 20.8513 1.95166 2.4
      vertex 22.7935 1.87298 2.4
    endloop
  endfacet
  facet normal 0 -0 1
    outer loop
      vertex 20.8513 1.95166 2.4
      vertex 22.8415 2.15266 2.4
      vertex 20.82 2.19133 2.4
    endloop
  endfacet
  facet normal 0 0 1
    outer loop
      vertex 19.7835 3.54866 2.4
      vertex 18.8895 2.129 2.4
      vertex 19.7215 2.864 2.4
    endloop
  endfacet
  facet normal 0 0 1
    outer loop
      vertex 19.7215 2.864 2.4
      vertex 18.8895 2.129 2.4
      vertex 19.7245 2.73555 2.4
    endloop
  endfacet
  facet normal 0 0 1
    outer loop
      vertex 19.7245 2.73555 2.4
      vertex 18.8895 2.129 2.4
      vertex 19.7335 2.61021 2.4
    endloop
  endfacet
  facet normal 0 0 1
    outer loop
      vertex 19.7335 2.61021 2.4
      vertex 18.8895 2.129 2.4
      vertex 19.7485 2.48799 2.4
    endloop
  endfacet
  facet normal 0 0 1
    outer loop
      vertex 19.7485 2.48799 2.4
      vertex 18.8895 2.129 2.4
      vertex 19.769 2.3681 2.4
    endloop
  endfacet
  facet normal 0 0 1
    outer loop
      vertex 19.769 2.3681 2.4
      vertex 18.8895 2.129 2.4
      vertex 19.7943 2.24844 2.4
    endloop
  endfacet
  facet normal 0 0 1
    outer loop
      vertex 19.7943 2.24844 2.4
      vertex 18.8895 2.129 2.4
      vertex 19.8245 2.129 2.4
    endloop
  endfacet
  facet normal 0 0 1
    outer loop
      vertex 21.8335 3.644 2.4
      vertex 20.84 2.77344 2.4
      vertex 22.7348 3.0721 2.4
    endloop
  endfacet
  facet normal 0 0 1
    outer loop
      vertex 22.7348 3.0721 2.4
      vertex 20.84 2.77344 2.4
      vertex 22.8268 2.77344 2.4
    endloop
  endfacet
  facet normal 0 0 1
    outer loop
      vertex 20.84 2.77344 2.4
      vertex 21.8335 3.644 2.4
      vertex 21.0835 3.31699 2.4
    endloop
  endfacet
  facet normal 0 0 1
    outer loop
      vertex 22.8268 2.77344 2.4
      vertex 20.84 2.77344 2.4
      vertex 22.8575 2.42099 2.4
    endloop
  endfacet
  facet normal -0 0 1
    outer loop
      vertex 20.8095 2.42099 2.4
      vertex 22.8575 2.42099 2.4
      vertex 20.84 2.77344 2.4
    endloop
  endfacet
  facet normal 0 0 1
    outer loop
      vertex 21.8335 3.644 2.4
      vertex 22.7348 3.0721 2.4
      vertex 22.5815 3.31699 2.4
    endloop
  endfacet
  facet normal 0 0 1
    outer loop
      vertex 22.7935 1.87298 2.4
      vertex 21.1935 0.881988 2.4
      vertex 22.7135 1.58198 2.4
    endloop
  endfacet
  facet normal 0 0 1
    outer loop
      vertex 22.1264 3.60767 2.4
      vertex 22.5815 3.31699 2.4
      vertex 22.3757 3.49866 2.4
    endloop
  endfacet
  facet normal 0 0 1
    outer loop
      vertex 22.7135 1.58198 2.4
      vertex 21.1935 0.881988 2.4
      vertex 22.6015 1.28021 2.4
    endloop
  endfacet
  facet normal 0 0 1
    outer loop
      vertex 22.5815 3.31699 2.4
      vertex 22.1264 3.60767 2.4
      vertex 21.8335 3.644 2.4
    endloop
  endfacet
  facet normal -0 0 1
    outer loop
      vertex 23.6354 0.975875 2.4
      vertex 26.8732 0 2.4
      vertex 23.7477 1.31088 2.4
    endloop
  endfacet
  facet normal -0 0 1
    outer loop
      vertex 23.4975 0.641997 2.4
      vertex 26.8732 0 2.4
      vertex 23.6354 0.975875 2.4
    endloop
  endfacet
  facet normal 0 0 1
    outer loop
      vertex 26.8732 0 2.4
      vertex 23.4975 0.641997 2.4
      vertex 23.8175 -2.89911 2.4
    endloop
  endfacet
  facet normal -0 0 1
    outer loop
      vertex 22.2815 0.641997 2.4
      vertex 23.8175 -2.89911 2.4
      vertex 23.4975 0.641997 2.4
    endloop
  endfacet
  facet normal -0 0 1
    outer loop
      vertex 21.5386 3.60767 2.4
      vertex 21.0835 3.31699 2.4
      vertex 21.8335 3.644 2.4
    endloop
  endfacet
  facet normal 0 0 1
    outer loop
      vertex 21.0835 3.31699 2.4
      vertex 21.5386 3.60767 2.4
      vertex 21.2886 3.49866 2.4
    endloop
  endfacet
  facet normal 0 0 1
    outer loop
      vertex 22.6015 1.28021 2.4
      vertex 21.1935 0.881988 2.4
      vertex 22.4575 0.966887 2.4
    endloop
  endfacet
  facet normal 0 0 1
    outer loop
      vertex 22.4575 0.966887 2.4
      vertex 21.1935 0.881988 2.4
      vertex 22.2815 0.641997 2.4
    endloop
  endfacet
  facet normal 0 0 1
    outer loop
      vertex 21.1935 0.881988 2.4
      vertex 23.8175 -2.89911 2.4
      vertex 22.2815 0.641997 2.4
    endloop
  endfacet
  facet normal 0 0 1
    outer loop
      vertex 21.1935 0.881988 2.4
      vertex 18.6215 -0.535094 2.4
      vertex 23.8175 -2.89911 2.4
    endloop
  endfacet
  facet normal 0 0 1
    outer loop
      vertex 17.7375 0.881989 2.4
      vertex 18.6215 -0.535094 2.4
      vertex 21.1935 0.881988 2.4
    endloop
  endfacet
  facet normal 0 0 1
    outer loop
      vertex 18.6215 -0.535094 2.4
      vertex 17.7375 0.881989 2.4
      vertex 17.7375 -0.535094 2.4
    endloop
  endfacet
  facet normal 0 0 1
    outer loop
      vertex 32.8732 0 2.4
      vertex 37.3416 0 2.4
      vertex 37.0871 1.93294 2.4
    endloop
  endfacet
  facet normal 0 0 1
    outer loop
      vertex 32.3003 1.76336 2.4
      vertex 37.0871 1.93294 2.4
      vertex 36.341 3.73415 2.4
    endloop
  endfacet
  facet normal 0 0 1
    outer loop
      vertex 37.3416 0 2.4
      vertex 32.8732 0 2.4
      vertex 37.0871 -1.93294 2.4
    endloop
  endfacet
  facet normal 0 0 1
    outer loop
      vertex 32.3003 1.76336 2.4
      vertex 36.341 3.73415 2.4
      vertex 35.1541 5.28089 2.4
    endloop
  endfacet
  facet normal -0 0 1
    outer loop
      vertex 32.3003 -1.76336 2.4
      vertex 37.0871 -1.93294 2.4
      vertex 32.8732 0 2.4
    endloop
  endfacet
  facet normal 0 0 1
    outer loop
      vertex 32.3003 1.76336 2.4
      vertex 35.1541 5.28089 2.4
      vertex 33.6074 6.46775 2.4
    endloop
  endfacet
  facet normal 0 0 1
    outer loop
      vertex 37.0871 -1.93294 2.4
      vertex 32.3003 -1.76336 2.4
      vertex 36.341 -3.73415 2.4
    endloop
  endfacet
  facet normal 0 0 1
    outer loop
      vertex 36.341 -3.73415 2.4
      vertex 32.3003 -1.76336 2.4
      vertex 35.1541 -5.28089 2.4
    endloop
  endfacet
  facet normal 0 0 1
    outer loop
      vertex 37.0871 1.93294 2.4
      vertex 32.3003 1.76336 2.4
      vertex 32.8732 0 2.4
    endloop
  endfacet
  facet normal 0 0 1
    outer loop
      vertex 30.8003 2.85317 2.4
      vertex 33.6074 6.46775 2.4
      vertex 31.8062 7.21383 2.4
    endloop
  endfacet
  facet normal 0 0 1
    outer loop
      vertex 33.6074 6.46775 2.4
      vertex 30.8003 2.85317 2.4
      vertex 32.3003 1.76336 2.4
    endloop
  endfacet
  facet normal 0 0 1
    outer loop
      vertex 31.8062 7.21383 2.4
      vertex 28.9462 2.85317 2.4
      vertex 30.8003 2.85317 2.4
    endloop
  endfacet
  facet normal -0 0 1
    outer loop
      vertex 23.3855 4.53499 2.4
      vertex 28.9462 2.85317 2.4
      vertex 31.8062 7.21383 2.4
    endloop
  endfacet
  facet normal -0 0 1
    outer loop
      vertex 23.9332 2.32611 2.4
      vertex 27.4462 1.76336 2.4
      vertex 23.9455 2.66899 2.4
    endloop
  endfacet
  facet normal 0 0 1
    outer loop
      vertex 28.9462 2.85317 2.4
      vertex 23.6966 4.02899 2.4
      vertex 27.4462 1.76336 2.4
    endloop
  endfacet
  facet normal 0 0 1
    outer loop
      vertex 27.4462 1.76336 2.4
      vertex 23.8833 3.407 2.4
      vertex 23.9455 2.66899 2.4
    endloop
  endfacet
  facet normal 0 0 1
    outer loop
      vertex 27.4462 1.76336 2.4
      vertex 23.6966 4.02899 2.4
      vertex 23.8833 3.407 2.4
    endloop
  endfacet
  facet normal 0 0 1
    outer loop
      vertex 28.9462 2.85317 2.4
      vertex 23.3855 4.53499 2.4
      vertex 23.6966 4.02899 2.4
    endloop
  endfacet
  facet normal 0 0 1
    outer loop
      vertex 31.8062 7.21383 2.4
      vertex 22.9644 4.90887 2.4
      vertex 23.3855 4.53499 2.4
    endloop
  endfacet
  facet normal 0 0 1
    outer loop
      vertex 31.8062 7.21383 2.4
      vertex 22.4477 5.13321 2.4
      vertex 22.9644 4.90887 2.4
    endloop
  endfacet
  facet normal 0 0 1
    outer loop
      vertex 31.8062 7.21383 2.4
      vertex 21.8355 5.20799 2.4
      vertex 22.4477 5.13321 2.4
    endloop
  endfacet
  facet normal 0 0 1
    outer loop
      vertex 9.99455 11.1001 2.4
      vertex 21.8355 5.20799 2.4
      vertex 31.8062 7.21383 2.4
    endloop
  endfacet
  facet normal 0 0 1
    outer loop
      vertex 18.8895 2.129 2.4
      vertex 19.7835 3.54866 2.4
      vertex 18.8895 4.769 2.4
    endloop
  endfacet
  facet normal 0 0 1
    outer loop
      vertex 19.9695 4.12399 2.4
      vertex 18.8895 4.769 2.4
      vertex 19.7835 3.54866 2.4
    endloop
  endfacet
  facet normal 0 0 1
    outer loop
      vertex 20.2795 4.59 2.4
      vertex 18.8895 4.769 2.4
      vertex 19.9695 4.12399 2.4
    endloop
  endfacet
  facet normal 0 0 1
    outer loop
      vertex 20.7004 4.93332 2.4
      vertex 18.8895 4.769 2.4
      vertex 20.2795 4.59 2.4
    endloop
  endfacet
  facet normal 0 0 1
    outer loop
      vertex 21.2191 5.13933 2.4
      vertex 18.8895 4.769 2.4
      vertex 20.7004 4.93332 2.4
    endloop
  endfacet
  facet normal -0 -0 1
    outer loop
      vertex 12.084 8.77952 2.4
      vertex 21.8355 5.20799 2.4
      vertex 9.99455 11.1001 2.4
    endloop
  endfacet
  facet normal 0 0 1
    outer loop
      vertex 21.2191 5.13933 2.4
      vertex 12.084 8.77952 2.4
      vertex 18.8895 4.769 2.4
    endloop
  endfacet
  facet normal -0 0 1
    outer loop
      vertex 14.6102 3.1055 2.4
      vertex 17.7375 0.881989 2.4
      vertex 17.7375 4.769 2.4
    endloop
  endfacet
  facet normal 0 -0 1
    outer loop
      vertex 14.9366 0 2.4
      vertex 17.7375 0.881989 2.4
      vertex 14.6102 3.1055 2.4
    endloop
  endfacet
  facet normal 0 0 1
    outer loop
      vertex 14.6102 -3.1055 2.4
      vertex 17.7375 -0.535094 2.4
      vertex 14.9366 0 2.4
    endloop
  endfacet
  facet normal 0 0 1
    outer loop
      vertex 17.7375 0.881989 2.4
      vertex 14.9366 0 2.4
      vertex 17.7375 -0.535094 2.4
    endloop
  endfacet
  facet normal 0 0 1
    outer loop
      vertex 17.7375 4.769 2.4
      vertex 13.6453 6.07527 2.4
      vertex 14.6102 3.1055 2.4
    endloop
  endfacet
  facet normal 0 0 1
    outer loop
      vertex 18.8895 4.769 2.4
      vertex 12.084 8.77952 2.4
      vertex 17.7375 4.769 2.4
    endloop
  endfacet
  facet normal 0 0 1
    outer loop
      vertex 17.7375 4.769 2.4
      vertex 12.084 8.77952 2.4
      vertex 13.6453 6.07527 2.4
    endloop
  endfacet
  facet normal 0 0 1
    outer loop
      vertex 21.8355 5.20799 2.4
      vertex 12.084 8.77952 2.4
      vertex 21.2191 5.13933 2.4
    endloop
  endfacet
  facet normal 0 0 1
    outer loop
      vertex 31.8062 7.21383 2.4
      vertex 7.46831 12.9355 2.4
      vertex 9.99455 11.1001 2.4
    endloop
  endfacet
  facet normal -0 -0 1
    outer loop
      vertex 7.46831 12.9355 2.4
      vertex 31.8062 7.21383 2.4
      vertex 4.61567 14.2056 2.4
    endloop
  endfacet
  facet normal 0 0 1
    outer loop
      vertex 35.1541 -5.28089 2.4
      vertex 32.3003 -1.76336 2.4
      vertex 33.6074 -6.46775 2.4
    endloop
  endfacet
  facet normal -0 0 1
    outer loop
      vertex 30.8003 -2.85317 2.4
      vertex 33.6074 -6.46775 2.4
      vertex 32.3003 -1.76336 2.4
    endloop
  endfacet
  facet normal 0 0 1
    outer loop
      vertex 33.6074 -6.46775 2.4
      vertex 30.8003 -2.85317 2.4
      vertex 31.8062 -7.21383 2.4
    endloop
  endfacet
  facet normal -0 0 1
    outer loop
      vertex 28.9462 -2.85317 2.4
      vertex 31.8062 -7.21383 2.4
      vertex 30.8003 -2.85317 2.4
    endloop
  endfacet
  facet normal 0 0 1
    outer loop
      vertex 23.8175 -4.4231 2.4
      vertex 28.9462 -2.85317 2.4
      vertex 27.4462 -1.76336 2.4
    endloop
  endfacet
  facet normal -0 0 1
    outer loop
      vertex 23.8962 1.98544 2.4
      vertex 27.4462 1.76336 2.4
      vertex 23.9332 2.32611 2.4
    endloop
  endfacet
  facet normal 0 0 1
    outer loop
      vertex 23.8345 1.64699 2.4
      vertex 27.4462 1.76336 2.4
      vertex 23.8962 1.98544 2.4
    endloop
  endfacet
  facet normal 0 0 1
    outer loop
      vertex 27.4462 1.76336 2.4
      vertex 23.8345 1.64699 2.4
      vertex 26.8732 0 2.4
    endloop
  endfacet
  facet normal -0 0 1
    outer loop
      vertex 23.7477 1.31088 2.4
      vertex 26.8732 0 2.4
      vertex 23.8345 1.64699 2.4
    endloop
  endfacet
  facet normal 0 0 1
    outer loop
      vertex 26.8732 0 2.4
      vertex 23.8175 -2.89911 2.4
      vertex 27.4462 -1.76336 2.4
    endloop
  endfacet
  facet normal 0 0 1
    outer loop
      vertex 23.8175 -4.4231 2.4
      vertex 27.4462 -1.76336 2.4
      vertex 23.8175 -2.89911 2.4
    endloop
  endfacet
  facet normal 0 0 1
    outer loop
      vertex 28.9462 -2.85317 2.4
      vertex 23.8175 -4.4231 2.4
      vertex 31.8062 -7.21383 2.4
    endloop
  endfacet
  facet normal 0 0 1
    outer loop
      vertex 18.8895 -5.1051 2.4
      vertex 23.8175 -4.4231 2.4
      vertex 18.8895 -2.1841 2.4
    endloop
  endfacet
  facet normal -0 0 1
    outer loop
      vertex 18.8895 -5.1051 2.4
      vertex 31.8062 -7.21383 2.4
      vertex 23.8175 -4.4231 2.4
    endloop
  endfacet
  facet normal 0 0 1
    outer loop
      vertex 12.084 -8.77952 2.4
      vertex 18.8895 -5.1051 2.4
      vertex 17.7375 -5.1051 2.4
    endloop
  endfacet
  facet normal 0 0 1
    outer loop
      vertex 17.7375 -0.535094 2.4
      vertex 14.6102 -3.1055 2.4
      vertex 17.7375 -5.1051 2.4
    endloop
  endfacet
  facet normal 0 0 1
    outer loop
      vertex 13.6453 -6.07527 2.4
      vertex 17.7375 -5.1051 2.4
      vertex 14.6102 -3.1055 2.4
    endloop
  endfacet
  facet normal 0 0 1
    outer loop
      vertex 12.084 -8.77952 2.4
      vertex 17.7375 -5.1051 2.4
      vertex 13.6453 -6.07527 2.4
    endloop
  endfacet
  facet normal 0 0 1
    outer loop
      vertex 18.8895 -5.1051 2.4
      vertex 12.084 -8.77952 2.4
      vertex 31.8062 -7.21383 2.4
    endloop
  endfacet
  facet normal 0 0 1
    outer loop
      vertex 9.99455 -11.1001 2.4
      vertex 31.8062 -7.21383 2.4
      vertex 12.084 -8.77952 2.4
    endloop
  endfacet
  facet normal 0 0 1
    outer loop
      vertex 7.46831 -12.9355 2.4
      vertex 31.8062 -7.21383 2.4
      vertex 9.99455 -11.1001 2.4
    endloop
  endfacet
  facet normal 0 0 1
    outer loop
      vertex 31.8062 -7.21383 2.4
      vertex 7.46831 -12.9355 2.4
      vertex 4.61567 -14.2056 2.4
    endloop
  endfacet
  facet normal 0.793353 -0.608762 0
    outer loop
      vertex 35.1541 -5.28089 2.4
      vertex 36.341 -3.73415 0
      vertex 36.341 -3.73415 2.4
    endloop
  endfacet
  facet normal 0.793353 -0.608762 0
    outer loop
      vertex 36.341 -3.73415 0
      vertex 35.1541 -5.28089 2.4
      vertex 35.1541 -5.28089 0
    endloop
  endfacet
  facet normal 0.207911 -0.978148 0
    outer loop
      vertex 1.5613 -14.8548 4
      vertex 4.61567 -14.2056 2.4
      vertex 4.61567 -14.2056 4
    endloop
  endfacet
  facet normal 0.207911 -0.978148 0
    outer loop
      vertex 1.5613 -14.8548 0
      vertex 4.61567 -14.2056 2.4
      vertex 1.5613 -14.8548 4
    endloop
  endfacet
  facet normal 0.207911 -0.978148 0
    outer loop
      vertex 4.61567 -14.2056 2.4
      vertex 1.5613 -14.8548 0
      vertex 4.61567 -14.2056 0
    endloop
  endfacet
  facet normal 0.382684 -0.923879 0
    outer loop
      vertex 31.8062 -7.21383 0
      vertex 33.6074 -6.46775 2.4
      vertex 31.8062 -7.21383 2.4
    endloop
  endfacet
  facet normal 0.382684 -0.923879 0
    outer loop
      vertex 33.6074 -6.46775 2.4
      vertex 31.8062 -7.21383 0
      vertex 33.6074 -6.46775 0
    endloop
  endfacet
  facet normal 0.608761 -0.793353 0
    outer loop
      vertex 33.6074 -6.46775 0
      vertex 35.1541 -5.28089 2.4
      vertex 33.6074 -6.46775 2.4
    endloop
  endfacet
  facet normal 0.608761 -0.793353 0
    outer loop
      vertex 35.1541 -5.28089 2.4
      vertex 33.6074 -6.46775 0
      vertex 35.1541 -5.28089 0
    endloop
  endfacet
  facet normal 0.991445 -0.130527 0
    outer loop
      vertex 37.0871 -1.93294 2.4
      vertex 37.3416 0 0
      vertex 37.3416 0 2.4
    endloop
  endfacet
  facet normal 0.991445 -0.130527 0
    outer loop
      vertex 37.3416 0 0
      vertex 37.0871 -1.93294 2.4
      vertex 37.0871 -1.93294 0
    endloop
  endfacet
  facet normal -0.207911 -0.978148 0
    outer loop
      vertex -4.61567 -14.2056 0
      vertex -1.5613 -14.8548 4
      vertex -4.61567 -14.2056 4
    endloop
  endfacet
  facet normal -0.207911 -0.978148 -0
    outer loop
      vertex -1.5613 -14.8548 4
      vertex -4.61567 -14.2056 0
      vertex -1.5613 -14.8548 0
    endloop
  endfacet
  facet normal -0.587785 -0.809017 0
    outer loop
      vertex -9.99455 -11.1001 0
      vertex -7.46831 -12.9355 4
      vertex -9.99455 -11.1001 4
    endloop
  endfacet
  facet normal -0.587785 -0.809017 -0
    outer loop
      vertex -7.46831 -12.9355 4
      vertex -9.99455 -11.1001 0
      vertex -7.46831 -12.9355 0
    endloop
  endfacet
  facet normal -0.866025 -0.5 0
    outer loop
      vertex -12.084 -8.77952 0
      vertex -13.6453 -6.07527 4
      vertex -13.6453 -6.07527 0
    endloop
  endfacet
  facet normal -0.866025 -0.5 0
    outer loop
      vertex -13.6453 -6.07527 4
      vertex -12.084 -8.77952 0
      vertex -12.084 -8.77952 4
    endloop
  endfacet
  facet normal 0.249037 -0.968494 0
    outer loop
      vertex 4.61567 -14.2056 0
      vertex 31.8062 -7.21383 2.4
      vertex 4.61567 -14.2056 2.4
    endloop
  endfacet
  facet normal 0.249037 -0.968494 0
    outer loop
      vertex 31.8062 -7.21383 2.4
      vertex 4.61567 -14.2056 0
      vertex 31.8062 -7.21383 0
    endloop
  endfacet
  facet normal 0 -1 0
    outer loop
      vertex -1.5613 -14.8548 0
      vertex 1.5613 -14.8548 4
      vertex -1.5613 -14.8548 4
    endloop
  endfacet
  facet normal 0 -1 -0
    outer loop
      vertex 1.5613 -14.8548 4
      vertex -1.5613 -14.8548 0
      vertex 1.5613 -14.8548 0
    endloop
  endfacet
  facet normal -0.743145 -0.669131 0
    outer loop
      vertex -9.99455 -11.1001 0
      vertex -12.084 -8.77952 4
      vertex -12.084 -8.77952 0
    endloop
  endfacet
  facet normal -0.743145 -0.669131 0
    outer loop
      vertex -12.084 -8.77952 4
      vertex -9.99455 -11.1001 0
      vertex -9.99455 -11.1001 4
    endloop
  endfacet
  facet normal 0.92388 -0.382683 0
    outer loop
      vertex 36.341 -3.73415 2.4
      vertex 37.0871 -1.93294 0
      vertex 37.0871 -1.93294 2.4
    endloop
  endfacet
  facet normal 0.92388 -0.382683 0
    outer loop
      vertex 37.0871 -1.93294 0
      vertex 36.341 -3.73415 2.4
      vertex 36.341 -3.73415 0
    endloop
  endfacet
  facet normal 0.951057 0.309017 0
    outer loop
      vertex 14.6102 3.1055 4
      vertex 13.6453 6.07527 2.4
      vertex 13.6453 6.07527 4
    endloop
  endfacet
  facet normal 0.951057 0.309017 0
    outer loop
      vertex 13.6453 6.07527 2.4
      vertex 14.6102 3.1055 4
      vertex 14.6102 3.1055 2.4
    endloop
  endfacet
  facet normal 0.994522 0.104529 0
    outer loop
      vertex 14.9366 0 4
      vertex 14.6102 3.1055 2.4
      vertex 14.6102 3.1055 4
    endloop
  endfacet
  facet normal 0.994522 0.104529 0
    outer loop
      vertex 14.6102 3.1055 2.4
      vertex 14.9366 0 4
      vertex 14.9366 0 2.4
    endloop
  endfacet
  facet normal 0.406737 0.913545 -0
    outer loop
      vertex 7.46831 12.9355 2.4
      vertex 4.61567 14.2056 4
      vertex 7.46831 12.9355 4
    endloop
  endfacet
  facet normal 0.406737 0.913545 0
    outer loop
      vertex 4.61567 14.2056 4
      vertex 7.46831 12.9355 2.4
      vertex 4.61567 14.2056 2.4
    endloop
  endfacet
  facet normal 0.951057 -0.309017 0
    outer loop
      vertex 13.6453 -6.07527 4
      vertex 14.6102 -3.1055 2.4
      vertex 14.6102 -3.1055 4
    endloop
  endfacet
  facet normal 0.951057 -0.309017 0
    outer loop
      vertex 14.6102 -3.1055 2.4
      vertex 13.6453 -6.07527 4
      vertex 13.6453 -6.07527 2.4
    endloop
  endfacet
  facet normal 0 0 1
    outer loop
      vertex 11.9366 0 4
      vertex 14.9366 0 4
      vertex 14.6102 3.1055 4
    endloop
  endfacet
  facet normal 0 0 1
    outer loop
      vertex 11.6758 2.48176 4
      vertex 14.6102 3.1055 4
      vertex 13.6453 6.07527 4
    endloop
  endfacet
  facet normal 0 0 1
    outer loop
      vertex 14.9366 0 4
      vertex 11.9366 0 4
      vertex 14.6102 -3.1055 4
    endloop
  endfacet
  facet normal 0 0 1
    outer loop
      vertex 10.9046 4.85506 4
      vertex 13.6453 6.07527 4
      vertex 12.084 8.77952 4
    endloop
  endfacet
  facet normal -0 0 1
    outer loop
      vertex 11.6758 -2.48176 4
      vertex 14.6102 -3.1055 4
      vertex 11.9366 0 4
    endloop
  endfacet
  facet normal 0 0 1
    outer loop
      vertex 14.6102 -3.1055 4
      vertex 11.6758 -2.48176 4
      vertex 13.6453 -6.07527 4
    endloop
  endfacet
  facet normal 0 0 1
    outer loop
      vertex 14.6102 3.1055 4
      vertex 11.6758 2.48176 4
      vertex 11.9366 0 4
    endloop
  endfacet
  facet normal 0 0 1
    outer loop
      vertex 13.6453 6.07527 4
      vertex 10.9046 4.85506 4
      vertex 11.6758 2.48176 4
    endloop
  endfacet
  facet normal 0 0 1
    outer loop
      vertex 9.65693 7.01617 4
      vertex 12.084 8.77952 4
      vertex 9.99455 11.1001 4
    endloop
  endfacet
  facet normal 0 0 1
    outer loop
      vertex 12.084 8.77952 4
      vertex 9.65693 7.01617 4
      vertex 10.9046 4.85506 4
    endloop
  endfacet
  facet normal 0 0 1
    outer loop
      vertex 9.99455 11.1001 4
      vertex 7.98716 8.87064 4
      vertex 9.65693 7.01617 4
    endloop
  endfacet
  facet normal 0 0 1
    outer loop
      vertex 7.46831 12.9355 4
      vertex 7.98716 8.87064 4
      vertex 9.99455 11.1001 4
    endloop
  endfacet
  facet normal 0 0 1
    outer loop
      vertex 7.46831 12.9355 4
      vertex 5.96831 10.3374 4
      vertex 7.98716 8.87064 4
    endloop
  endfacet
  facet normal 0 0 1
    outer loop
      vertex 4.61567 14.2056 4
      vertex 5.96831 10.3374 4
      vertex 7.46831 12.9355 4
    endloop
  endfacet
  facet normal 0 0 1
    outer loop
      vertex 4.61567 14.2056 4
      vertex 3.68862 11.3524 4
      vertex 5.96831 10.3374 4
    endloop
  endfacet
  facet normal 0 0 1
    outer loop
      vertex 1.5613 14.8548 4
      vertex 3.68862 11.3524 4
      vertex 4.61567 14.2056 4
    endloop
  endfacet
  facet normal 0 0 1
    outer loop
      vertex 1.5613 14.8548 4
      vertex 1.24772 11.8712 4
      vertex 3.68862 11.3524 4
    endloop
  endfacet
  facet normal 0 0 1
    outer loop
      vertex 1.5613 14.8548 4
      vertex -1.24772 11.8712 4
      vertex 1.24772 11.8712 4
    endloop
  endfacet
  facet normal -0 0 1
    outer loop
      vertex -1.5613 14.8548 4
      vertex -1.24772 11.8712 4
      vertex 1.5613 14.8548 4
    endloop
  endfacet
  facet normal 0 0 1
    outer loop
      vertex -1.5613 14.8548 4
      vertex -3.68862 11.3524 4
      vertex -1.24772 11.8712 4
    endloop
  endfacet
  facet normal -0 0 1
    outer loop
      vertex -4.61567 14.2056 4
      vertex -3.68862 11.3524 4
      vertex -1.5613 14.8548 4
    endloop
  endfacet
  facet normal 0 0 1
    outer loop
      vertex -4.61567 14.2056 4
      vertex -5.96831 10.3374 4
      vertex -3.68862 11.3524 4
    endloop
  endfacet
  facet normal -0 0 1
    outer loop
      vertex -7.46831 12.9355 4
      vertex -5.96831 10.3374 4
      vertex -4.61567 14.2056 4
    endloop
  endfacet
  facet normal 0 0 1
    outer loop
      vertex -7.46831 12.9355 4
      vertex -7.98716 8.87064 4
      vertex -5.96831 10.3374 4
    endloop
  endfacet
  facet normal -0 0 1
    outer loop
      vertex -9.99455 11.1001 4
      vertex -7.98716 8.87064 4
      vertex -7.46831 12.9355 4
    endloop
  endfacet
  facet normal 0 0 1
    outer loop
      vertex -7.98716 8.87064 4
      vertex -9.99455 11.1001 4
      vertex -9.65693 7.01617 4
    endloop
  endfacet
  facet normal -0 0 1
    outer loop
      vertex -12.084 8.77952 4
      vertex -9.65693 7.01617 4
      vertex -9.99455 11.1001 4
    endloop
  endfacet
  facet normal 0 0 1
    outer loop
      vertex -9.65693 7.01617 4
      vertex -12.084 8.77952 4
      vertex -10.9046 4.85506 4
    endloop
  endfacet
  facet normal 0 0 1
    outer loop
      vertex -10.9046 4.85506 4
      vertex -13.6453 6.07527 4
      vertex -11.6758 2.48176 4
    endloop
  endfacet
  facet normal -0 0 1
    outer loop
      vertex -13.6453 6.07527 4
      vertex -10.9046 4.85506 4
      vertex -12.084 8.77952 4
    endloop
  endfacet
  facet normal -0 0 1
    outer loop
      vertex 10.9046 -4.85506 4
      vertex 13.6453 -6.07527 4
      vertex 11.6758 -2.48176 4
    endloop
  endfacet
  facet normal 0 0 1
    outer loop
      vertex 13.6453 -6.07527 4
      vertex 10.9046 -4.85506 4
      vertex 12.084 -8.77952 4
    endloop
  endfacet
  facet normal -0 0 1
    outer loop
      vertex 9.65693 -7.01617 4
      vertex 12.084 -8.77952 4
      vertex 10.9046 -4.85506 4
    endloop
  endfacet
  facet normal 0 0 1
    outer loop
      vertex 12.084 -8.77952 4
      vertex 9.65693 -7.01617 4
      vertex 9.99455 -11.1001 4
    endloop
  endfacet
  facet normal -0 0 1
    outer loop
      vertex 7.98716 -8.87064 4
      vertex 9.99455 -11.1001 4
      vertex 9.65693 -7.01617 4
    endloop
  endfacet
  facet normal 0 0 1
    outer loop
      vertex 7.98716 -8.87064 4
      vertex 7.46831 -12.9355 4
      vertex 9.99455 -11.1001 4
    endloop
  endfacet
  facet normal -0 0 1
    outer loop
      vertex 5.96831 -10.3374 4
      vertex 7.46831 -12.9355 4
      vertex 7.98716 -8.87064 4
    endloop
  endfacet
  facet normal 0 0 1
    outer loop
      vertex 5.96831 -10.3374 4
      vertex 4.61567 -14.2056 4
      vertex 7.46831 -12.9355 4
    endloop
  endfacet
  facet normal -0 0 1
    outer loop
      vertex 3.68862 -11.3524 4
      vertex 4.61567 -14.2056 4
      vertex 5.96831 -10.3374 4
    endloop
  endfacet
  facet normal 0 0 1
    outer loop
      vertex 3.68862 -11.3524 4
      vertex 1.5613 -14.8548 4
      vertex 4.61567 -14.2056 4
    endloop
  endfacet
  facet normal -0 0 1
    outer loop
      vertex 1.24772 -11.8712 4
      vertex 1.5613 -14.8548 4
      vertex 3.68862 -11.3524 4
    endloop
  endfacet
  facet normal -0 0 1
    outer loop
      vertex -1.24772 -11.8712 4
      vertex 1.5613 -14.8548 4
      vertex 1.24772 -11.8712 4
    endloop
  endfacet
  facet normal 0 0 1
    outer loop
      vertex -1.24772 -11.8712 4
      vertex -1.5613 -14.8548 4
      vertex 1.5613 -14.8548 4
    endloop
  endfacet
  facet normal 0 0 1
    outer loop
      vertex -3.68862 -11.3524 4
      vertex -1.5613 -14.8548 4
      vertex -1.24772 -11.8712 4
    endloop
  endfacet
  facet normal 0 0 1
    outer loop
      vertex -3.68862 -11.3524 4
      vertex -4.61567 -14.2056 4
      vertex -1.5613 -14.8548 4
    endloop
  endfacet
  facet normal 0 0 1
    outer loop
      vertex -5.96831 -10.3374 4
      vertex -4.61567 -14.2056 4
      vertex -3.68862 -11.3524 4
    endloop
  endfacet
  facet normal 0 0 1
    outer loop
      vertex -5.96831 -10.3374 4
      vertex -7.46831 -12.9355 4
      vertex -4.61567 -14.2056 4
    endloop
  endfacet
  facet normal 0 0 1
    outer loop
      vertex -7.98716 -8.87064 4
      vertex -7.46831 -12.9355 4
      vertex -5.96831 -10.3374 4
    endloop
  endfacet
  facet normal 0 0 1
    outer loop
      vertex -9.99455 -11.1001 4
      vertex -7.98716 -8.87064 4
      vertex -9.65693 -7.01617 4
    endloop
  endfacet
  facet normal 0 0 1
    outer loop
      vertex -7.98716 -8.87064 4
      vertex -9.99455 -11.1001 4
      vertex -7.46831 -12.9355 4
    endloop
  endfacet
  facet normal 0 0 1
    outer loop
      vertex -12.084 -8.77952 4
      vertex -9.65693 -7.01617 4
      vertex -10.9046 -4.85506 4
    endloop
  endfacet
  facet normal 0 0 1
    outer loop
      vertex -13.6453 -6.07527 4
      vertex -10.9046 -4.85506 4
      vertex -11.6758 -2.48176 4
    endloop
  endfacet
  facet normal 0 0 1
    outer loop
      vertex -9.65693 -7.01617 4
      vertex -12.084 -8.77952 4
      vertex -9.99455 -11.1001 4
    endloop
  endfacet
  facet normal 0 0 1
    outer loop
      vertex -14.6102 -3.1055 4
      vertex -11.6758 -2.48176 4
      vertex -11.9366 0 4
    endloop
  endfacet
  facet normal -0 0 1
    outer loop
      vertex -14.6102 3.1055 4
      vertex -11.6758 2.48176 4
      vertex -13.6453 6.07527 4
    endloop
  endfacet
  facet normal 0 0 1
    outer loop
      vertex -11.6758 2.48176 4
      vertex -14.6102 3.1055 4
      vertex -11.9366 0 4
    endloop
  endfacet
  facet normal 0 0 1
    outer loop
      vertex -10.9046 -4.85506 4
      vertex -13.6453 -6.07527 4
      vertex -12.084 -8.77952 4
    endloop
  endfacet
  facet normal 0 0 1
    outer loop
      vertex -14.9366 0 4
      vertex -11.9366 0 4
      vertex -14.6102 3.1055 4
    endloop
  endfacet
  facet normal 0 0 1
    outer loop
      vertex -11.6758 -2.48176 4
      vertex -14.6102 -3.1055 4
      vertex -13.6453 -6.07527 4
    endloop
  endfacet
  facet normal 0 0 1
    outer loop
      vertex -11.9366 0 4
      vertex -14.9366 0 4
      vertex -14.6102 -3.1055 4
    endloop
  endfacet
  facet normal 0.743145 0.669131 0
    outer loop
      vertex 12.084 8.77952 4
      vertex 9.99455 11.1001 2.4
      vertex 9.99455 11.1001 4
    endloop
  endfacet
  facet normal 0.743145 0.669131 0
    outer loop
      vertex 9.99455 11.1001 2.4
      vertex 12.084 8.77952 4
      vertex 12.084 8.77952 2.4
    endloop
  endfacet
  facet normal 0.994522 -0.104529 0
    outer loop
      vertex 14.6102 -3.1055 4
      vertex 14.9366 0 2.4
      vertex 14.9366 0 4
    endloop
  endfacet
  facet normal 0.994522 -0.104529 0
    outer loop
      vertex 14.9366 0 2.4
      vertex 14.6102 -3.1055 4
      vertex 14.6102 -3.1055 2.4
    endloop
  endfacet
  facet normal 0.406737 -0.913545 0
    outer loop
      vertex 4.61567 -14.2056 2.4
      vertex 7.46831 -12.9355 4
      vertex 4.61567 -14.2056 4
    endloop
  endfacet
  facet normal 0.406737 -0.913545 0
    outer loop
      vertex 7.46831 -12.9355 4
      vertex 4.61567 -14.2056 2.4
      vertex 7.46831 -12.9355 2.4
    endloop
  endfacet
  facet normal 0.743145 -0.669131 0
    outer loop
      vertex 9.99455 -11.1001 4
      vertex 12.084 -8.77952 2.4
      vertex 12.084 -8.77952 4
    endloop
  endfacet
  facet normal 0.743145 -0.669131 0
    outer loop
      vertex 12.084 -8.77952 2.4
      vertex 9.99455 -11.1001 4
      vertex 9.99455 -11.1001 2.4
    endloop
  endfacet
  facet normal 0.587785 0.809017 -0
    outer loop
      vertex 9.99455 11.1001 2.4
      vertex 7.46831 12.9355 4
      vertex 9.99455 11.1001 4
    endloop
  endfacet
  facet normal 0.587785 0.809017 0
    outer loop
      vertex 7.46831 12.9355 4
      vertex 9.99455 11.1001 2.4
      vertex 7.46831 12.9355 2.4
    endloop
  endfacet
  facet normal 0.866025 0.5 0
    outer loop
      vertex 13.6453 6.07527 4
      vertex 12.084 8.77952 2.4
      vertex 12.084 8.77952 4
    endloop
  endfacet
  facet normal 0.866025 0.5 0
    outer loop
      vertex 12.084 8.77952 2.4
      vertex 13.6453 6.07527 4
      vertex 13.6453 6.07527 2.4
    endloop
  endfacet
  facet normal 0.587785 -0.809017 0
    outer loop
      vertex 7.46831 -12.9355 2.4
      vertex 9.99455 -11.1001 4
      vertex 7.46831 -12.9355 4
    endloop
  endfacet
  facet normal 0.587785 -0.809017 0
    outer loop
      vertex 9.99455 -11.1001 4
      vertex 7.46831 -12.9355 2.4
      vertex 9.99455 -11.1001 2.4
    endloop
  endfacet
  facet normal 0.866025 -0.5 0
    outer loop
      vertex 12.084 -8.77952 4
      vertex 13.6453 -6.07527 2.4
      vertex 13.6453 -6.07527 4
    endloop
  endfacet
  facet normal 0.866025 -0.5 0
    outer loop
      vertex 13.6453 -6.07527 2.4
      vertex 12.084 -8.77952 4
      vertex 12.084 -8.77952 2.4
    endloop
  endfacet
  facet normal -0.994522 -0.104529 0
    outer loop
      vertex 11.9366 0 0
      vertex 11.6758 2.48176 4
      vertex 11.6758 2.48176 0
    endloop
  endfacet
  facet normal -0.994522 -0.104529 0
    outer loop
      vertex 11.6758 2.48176 4
      vertex 11.9366 0 0
      vertex 11.9366 0 4
    endloop
  endfacet
  facet normal 0.994522 -0.104529 0
    outer loop
      vertex -11.9366 0 4
      vertex -11.6758 2.48176 0
      vertex -11.6758 2.48176 4
    endloop
  endfacet
  facet normal 0.994522 -0.104529 0
    outer loop
      vertex -11.6758 2.48176 0
      vertex -11.9366 0 4
      vertex -11.9366 0 0
    endloop
  endfacet
  facet normal 0 -1 0
    outer loop
      vertex -1.24772 11.8712 0
      vertex 1.24772 11.8712 4
      vertex -1.24772 11.8712 4
    endloop
  endfacet
  facet normal 0 -1 -0
    outer loop
      vertex 1.24772 11.8712 4
      vertex -1.24772 11.8712 0
      vertex 1.24772 11.8712 0
    endloop
  endfacet
  facet normal -0.587785 -0.809017 0
    outer loop
      vertex 5.96831 10.3374 0
      vertex 7.98716 8.87064 4
      vertex 5.96831 10.3374 4
    endloop
  endfacet
  facet normal -0.587785 -0.809017 -0
    outer loop
      vertex 7.98716 8.87064 4
      vertex 5.96831 10.3374 0
      vertex 7.98716 8.87064 0
    endloop
  endfacet
  facet normal -0.406737 -0.913545 0
    outer loop
      vertex 3.68862 11.3524 0
      vertex 5.96831 10.3374 4
      vertex 3.68862 11.3524 4
    endloop
  endfacet
  facet normal -0.406737 -0.913545 -0
    outer loop
      vertex 5.96831 10.3374 4
      vertex 3.68862 11.3524 0
      vertex 5.96831 10.3374 0
    endloop
  endfacet
  facet normal 0.743145 -0.669131 0
    outer loop
      vertex -9.65693 7.01617 4
      vertex -7.98716 8.87064 0
      vertex -7.98716 8.87064 4
    endloop
  endfacet
  facet normal 0.743145 -0.669131 0
    outer loop
      vertex -7.98716 8.87064 0
      vertex -9.65693 7.01617 4
      vertex -9.65693 7.01617 0
    endloop
  endfacet
  facet normal 0.406737 -0.913545 0
    outer loop
      vertex -5.96831 10.3374 0
      vertex -3.68862 11.3524 4
      vertex -5.96831 10.3374 4
    endloop
  endfacet
  facet normal 0.406737 -0.913545 0
    outer loop
      vertex -3.68862 11.3524 4
      vertex -5.96831 10.3374 0
      vertex -3.68862 11.3524 0
    endloop
  endfacet
  facet normal -0.866026 -0.5 0
    outer loop
      vertex 10.9046 4.85506 0
      vertex 9.65693 7.01617 4
      vertex 9.65693 7.01617 0
    endloop
  endfacet
  facet normal -0.866026 -0.5 0
    outer loop
      vertex 9.65693 7.01617 4
      vertex 10.9046 4.85506 0
      vertex 10.9046 4.85506 4
    endloop
  endfacet
  facet normal -0.951056 -0.309017 0
    outer loop
      vertex 11.6758 2.48176 0
      vertex 10.9046 4.85506 4
      vertex 10.9046 4.85506 0
    endloop
  endfacet
  facet normal -0.951056 -0.309017 0
    outer loop
      vertex 10.9046 4.85506 4
      vertex 11.6758 2.48176 0
      vertex 11.6758 2.48176 4
    endloop
  endfacet
  facet normal -0.743145 -0.669131 0
    outer loop
      vertex 9.65693 7.01617 0
      vertex 7.98716 8.87064 4
      vertex 7.98716 8.87064 0
    endloop
  endfacet
  facet normal -0.743145 -0.669131 0
    outer loop
      vertex 7.98716 8.87064 4
      vertex 9.65693 7.01617 0
      vertex 9.65693 7.01617 4
    endloop
  endfacet
  facet normal -0.207911 -0.978148 0
    outer loop
      vertex 1.24772 11.8712 0
      vertex 3.68862 11.3524 4
      vertex 1.24772 11.8712 4
    endloop
  endfacet
  facet normal -0.207911 -0.978148 -0
    outer loop
      vertex 3.68862 11.3524 4
      vertex 1.24772 11.8712 0
      vertex 3.68862 11.3524 0
    endloop
  endfacet
  facet normal 0.866026 -0.5 0
    outer loop
      vertex -10.9046 4.85506 4
      vertex -9.65693 7.01617 0
      vertex -9.65693 7.01617 4
    endloop
  endfacet
  facet normal 0.866026 -0.5 0
    outer loop
      vertex -9.65693 7.01617 0
      vertex -10.9046 4.85506 4
      vertex -10.9046 4.85506 0
    endloop
  endfacet
  facet normal 0.951056 -0.309017 0
    outer loop
      vertex -11.6758 2.48176 4
      vertex -10.9046 4.85506 0
      vertex -10.9046 4.85506 4
    endloop
  endfacet
  facet normal 0.951056 -0.309017 0
    outer loop
      vertex -10.9046 4.85506 0
      vertex -11.6758 2.48176 4
      vertex -11.6758 2.48176 0
    endloop
  endfacet
  facet normal 0.587785 -0.809017 0
    outer loop
      vertex -7.98716 8.87064 0
      vertex -5.96831 10.3374 4
      vertex -7.98716 8.87064 4
    endloop
  endfacet
  facet normal 0.587785 -0.809017 0
    outer loop
      vertex -5.96831 10.3374 4
      vertex -7.98716 8.87064 0
      vertex -5.96831 10.3374 0
    endloop
  endfacet
  facet normal 0.207911 -0.978148 0
    outer loop
      vertex -3.68862 11.3524 0
      vertex -1.24772 11.8712 4
      vertex -3.68862 11.3524 4
    endloop
  endfacet
  facet normal 0.207911 -0.978148 0
    outer loop
      vertex -1.24772 11.8712 4
      vertex -3.68862 11.3524 0
      vertex -1.24772 11.8712 0
    endloop
  endfacet
  facet normal -0.994522 0.104529 0
    outer loop
      vertex 11.6758 -2.48176 0
      vertex 11.9366 0 4
      vertex 11.9366 0 0
    endloop
  endfacet
  facet normal -0.994522 0.104529 0
    outer loop
      vertex 11.9366 0 4
      vertex 11.6758 -2.48176 0
      vertex 11.6758 -2.48176 4
    endloop
  endfacet
  facet normal 0.207911 0.978148 -0
    outer loop
      vertex -1.24772 -11.8712 0
      vertex -3.68862 -11.3524 4
      vertex -1.24772 -11.8712 4
    endloop
  endfacet
  facet normal 0.207911 0.978148 0
    outer loop
      vertex -3.68862 -11.3524 4
      vertex -1.24772 -11.8712 0
      vertex -3.68862 -11.3524 0
    endloop
  endfacet
  facet normal 0.994522 0.104529 0
    outer loop
      vertex -11.6758 -2.48176 4
      vertex -11.9366 0 0
      vertex -11.9366 0 4
    endloop
  endfacet
  facet normal 0.994522 0.104529 0
    outer loop
      vertex -11.9366 0 0
      vertex -11.6758 -2.48176 4
      vertex -11.6758 -2.48176 0
    endloop
  endfacet
  facet normal -0.207911 0.978148 0
    outer loop
      vertex 3.68862 -11.3524 0
      vertex 1.24772 -11.8712 4
      vertex 3.68862 -11.3524 4
    endloop
  endfacet
  facet normal -0.207911 0.978148 0
    outer loop
      vertex 1.24772 -11.8712 4
      vertex 3.68862 -11.3524 0
      vertex 1.24772 -11.8712 0
    endloop
  endfacet
  facet normal -0.743145 0.669131 0
    outer loop
      vertex 7.98716 -8.87064 0
      vertex 9.65693 -7.01617 4
      vertex 9.65693 -7.01617 0
    endloop
  endfacet
  facet normal -0.743145 0.669131 0
    outer loop
      vertex 9.65693 -7.01617 4
      vertex 7.98716 -8.87064 0
      vertex 7.98716 -8.87064 4
    endloop
  endfacet
  facet normal -0.951056 0.309017 0
    outer loop
      vertex 10.9046 -4.85506 0
      vertex 11.6758 -2.48176 4
      vertex 11.6758 -2.48176 0
    endloop
  endfacet
  facet normal -0.951056 0.309017 0
    outer loop
      vertex 11.6758 -2.48176 4
      vertex 10.9046 -4.85506 0
      vertex 10.9046 -4.85506 4
    endloop
  endfacet
  facet normal -0.866026 0.5 0
    outer loop
      vertex 9.65693 -7.01617 0
      vertex 10.9046 -4.85506 4
      vertex 10.9046 -4.85506 0
    endloop
  endfacet
  facet normal -0.866026 0.5 0
    outer loop
      vertex 10.9046 -4.85506 4
      vertex 9.65693 -7.01617 0
      vertex 9.65693 -7.01617 4
    endloop
  endfacet
  facet normal 0.866026 0.5 0
    outer loop
      vertex -9.65693 -7.01617 4
      vertex -10.9046 -4.85506 0
      vertex -10.9046 -4.85506 4
    endloop
  endfacet
  facet normal 0.866026 0.5 0
    outer loop
      vertex -10.9046 -4.85506 0
      vertex -9.65693 -7.01617 4
      vertex -9.65693 -7.01617 0
    endloop
  endfacet
  facet normal 0.951056 0.309017 0
    outer loop
      vertex -10.9046 -4.85506 4
      vertex -11.6758 -2.48176 0
      vertex -11.6758 -2.48176 4
    endloop
  endfacet
  facet normal 0.951056 0.309017 0
    outer loop
      vertex -11.6758 -2.48176 0
      vertex -10.9046 -4.85506 4
      vertex -10.9046 -4.85506 0
    endloop
  endfacet
  facet normal -0.587785 0.809017 0
    outer loop
      vertex 7.98716 -8.87064 0
      vertex 5.96831 -10.3374 4
      vertex 7.98716 -8.87064 4
    endloop
  endfacet
  facet normal -0.587785 0.809017 0
    outer loop
      vertex 5.96831 -10.3374 4
      vertex 7.98716 -8.87064 0
      vertex 5.96831 -10.3374 0
    endloop
  endfacet
  facet normal -0.406737 0.913545 0
    outer loop
      vertex 5.96831 -10.3374 0
      vertex 3.68862 -11.3524 4
      vertex 5.96831 -10.3374 4
    endloop
  endfacet
  facet normal -0.406737 0.913545 0
    outer loop
      vertex 3.68862 -11.3524 4
      vertex 5.96831 -10.3374 0
      vertex 3.68862 -11.3524 0
    endloop
  endfacet
  facet normal 0 1 -0
    outer loop
      vertex 1.24772 -11.8712 0
      vertex -1.24772 -11.8712 4
      vertex 1.24772 -11.8712 4
    endloop
  endfacet
  facet normal 0 1 0
    outer loop
      vertex -1.24772 -11.8712 4
      vertex 1.24772 -11.8712 0
      vertex -1.24772 -11.8712 0
    endloop
  endfacet
  facet normal 0.406737 0.913545 -0
    outer loop
      vertex -3.68862 -11.3524 0
      vertex -5.96831 -10.3374 4
      vertex -3.68862 -11.3524 4
    endloop
  endfacet
  facet normal 0.406737 0.913545 0
    outer loop
      vertex -5.96831 -10.3374 4
      vertex -3.68862 -11.3524 0
      vertex -5.96831 -10.3374 0
    endloop
  endfacet
  facet normal 0.743145 0.669131 0
    outer loop
      vertex -7.98716 -8.87064 4
      vertex -9.65693 -7.01617 0
      vertex -9.65693 -7.01617 4
    endloop
  endfacet
  facet normal 0.743145 0.669131 0
    outer loop
      vertex -9.65693 -7.01617 0
      vertex -7.98716 -8.87064 4
      vertex -7.98716 -8.87064 0
    endloop
  endfacet
  facet normal 0.587785 0.809017 -0
    outer loop
      vertex -5.96831 -10.3374 0
      vertex -7.98716 -8.87064 4
      vertex -5.96831 -10.3374 4
    endloop
  endfacet
  facet normal 0.587785 0.809017 0
    outer loop
      vertex -7.98716 -8.87064 4
      vertex -5.96831 -10.3374 0
      vertex -7.98716 -8.87064 0
    endloop
  endfacet
  facet normal -0.951057 -0.309017 0
    outer loop
      vertex 32.8732 0 0
      vertex 32.3003 1.76336 2.4
      vertex 32.3003 1.76336 0
    endloop
  endfacet
  facet normal -0.951057 -0.309017 0
    outer loop
      vertex 32.3003 1.76336 2.4
      vertex 32.8732 0 0
      vertex 32.8732 0 2.4
    endloop
  endfacet
  facet normal 0.951057 0.309017 0
    outer loop
      vertex 27.4462 -1.76336 2.4
      vertex 26.8732 0 0
      vertex 26.8732 0 2.4
    endloop
  endfacet
  facet normal 0.951057 0.309017 0
    outer loop
      vertex 26.8732 0 0
      vertex 27.4462 -1.76336 2.4
      vertex 27.4462 -1.76336 0
    endloop
  endfacet
  facet normal 0 -1 0
    outer loop
      vertex 28.9462 2.85317 0
      vertex 30.8003 2.85317 2.4
      vertex 28.9462 2.85317 2.4
    endloop
  endfacet
  facet normal 0 -1 -0
    outer loop
      vertex 30.8003 2.85317 2.4
      vertex 28.9462 2.85317 0
      vertex 30.8003 2.85317 0
    endloop
  endfacet
  facet normal -0.587785 -0.809017 0
    outer loop
      vertex 30.8003 2.85317 0
      vertex 32.3003 1.76336 2.4
      vertex 30.8003 2.85317 2.4
    endloop
  endfacet
  facet normal -0.587785 -0.809017 -0
    outer loop
      vertex 32.3003 1.76336 2.4
      vertex 30.8003 2.85317 0
      vertex 32.3003 1.76336 0
    endloop
  endfacet
  facet normal 0.587785 -0.809017 0
    outer loop
      vertex 27.4462 1.76336 0
      vertex 28.9462 2.85317 2.4
      vertex 27.4462 1.76336 2.4
    endloop
  endfacet
  facet normal 0.587785 -0.809017 0
    outer loop
      vertex 28.9462 2.85317 2.4
      vertex 27.4462 1.76336 0
      vertex 28.9462 2.85317 0
    endloop
  endfacet
  facet normal -0.587785 0.809017 0
    outer loop
      vertex 32.3003 -1.76336 0
      vertex 30.8003 -2.85317 2.4
      vertex 32.3003 -1.76336 2.4
    endloop
  endfacet
  facet normal -0.587785 0.809017 0
    outer loop
      vertex 30.8003 -2.85317 2.4
      vertex 32.3003 -1.76336 0
      vertex 30.8003 -2.85317 0
    endloop
  endfacet
  facet normal 0.587785 0.809017 -0
    outer loop
      vertex 28.9462 -2.85317 0
      vertex 27.4462 -1.76336 2.4
      vertex 28.9462 -2.85317 2.4
    endloop
  endfacet
  facet normal 0.587785 0.809017 0
    outer loop
      vertex 27.4462 -1.76336 2.4
      vertex 28.9462 -2.85317 0
      vertex 27.4462 -1.76336 0
    endloop
  endfacet
  facet normal 0.951057 -0.309017 0
    outer loop
      vertex 26.8732 0 2.4
      vertex 27.4462 1.76336 0
      vertex 27.4462 1.76336 2.4
    endloop
  endfacet
  facet normal 0.951057 -0.309017 0
    outer loop
      vertex 27.4462 1.76336 0
      vertex 26.8732 0 2.4
      vertex 26.8732 0 0
    endloop
  endfacet
  facet normal -0.951057 0.309017 0
    outer loop
      vertex 32.3003 -1.76336 0
      vertex 32.8732 0 2.4
      vertex 32.8732 0 0
    endloop
  endfacet
  facet normal -0.951057 0.309017 0
    outer loop
      vertex 32.8732 0 2.4
      vertex 32.3003 -1.76336 0
      vertex 32.3003 -1.76336 2.4
    endloop
  endfacet
  facet normal 0 1 -0
    outer loop
      vertex 30.8003 -2.85317 0
      vertex 28.9462 -2.85317 2.4
      vertex 30.8003 -2.85317 2.4
    endloop
  endfacet
  facet normal 0 1 0
    outer loop
      vertex 28.9462 -2.85317 2.4
      vertex 30.8003 -2.85317 0
      vertex 28.9462 -2.85317 0
    endloop
  endfacet
  facet normal 0 0 1
    outer loop
      vertex 23.8175 -2.89911 1.6
      vertex 18.8895 -2.1841 1.6
      vertex 23.8175 -4.4231 1.6
    endloop
  endfacet
  facet normal 0 0 1
    outer loop
      vertex 18.6215 -0.535094 1.6
      vertex 18.8895 -2.1841 1.6
      vertex 23.8175 -2.89911 1.6
    endloop
  endfacet
  facet normal -0 0 1
    outer loop
      vertex 17.7375 -0.535094 1.6
      vertex 18.8895 -2.1841 1.6
      vertex 18.6215 -0.535094 1.6
    endloop
  endfacet
  facet normal 0 0 1
    outer loop
      vertex 18.8895 -2.1841 1.6
      vertex 17.7375 -0.535094 1.6
      vertex 17.7375 -5.1051 1.6
    endloop
  endfacet
  facet normal 0 0 1
    outer loop
      vertex 18.8895 -2.1841 1.6
      vertex 17.7375 -5.1051 1.6
      vertex 18.8895 -5.1051 1.6
    endloop
  endfacet
  facet normal 0 0 1
    outer loop
      vertex 18.8895 4.769 1.6
      vertex 17.7375 4.769 1.6
      vertex 18.8895 2.129 1.6
    endloop
  endfacet
  facet normal 0 0 1
    outer loop
      vertex 23.9455 2.66899 1.6
      vertex 22.8268 2.77344 1.6
      vertex 22.8575 2.42099 1.6
    endloop
  endfacet
  facet normal 0 0 1
    outer loop
      vertex 23.3855 4.53499 1.6
      vertex 22.7348 3.0721 1.6
      vertex 22.8268 2.77344 1.6
    endloop
  endfacet
  facet normal 0 0 1
    outer loop
      vertex 23.3855 4.53499 1.6
      vertex 22.5815 3.31699 1.6
      vertex 22.7348 3.0721 1.6
    endloop
  endfacet
  facet normal 0 0 1
    outer loop
      vertex 22.1264 3.60767 1.6
      vertex 22.9644 4.90887 1.6
      vertex 22.4477 5.13321 1.6
    endloop
  endfacet
  facet normal 0 0 1
    outer loop
      vertex 23.3855 4.53499 1.6
      vertex 22.3757 3.49866 1.6
      vertex 22.5815 3.31699 1.6
    endloop
  endfacet
  facet normal 0 0 1
    outer loop
      vertex 22.9644 4.90887 1.6
      vertex 22.1264 3.60767 1.6
      vertex 22.3757 3.49866 1.6
    endloop
  endfacet
  facet normal 0 0 1
    outer loop
      vertex 21.8335 3.644 1.6
      vertex 22.4477 5.13321 1.6
      vertex 21.8355 5.20799 1.6
    endloop
  endfacet
  facet normal 0 0 1
    outer loop
      vertex 22.4477 5.13321 1.6
      vertex 21.8335 3.644 1.6
      vertex 22.1264 3.60767 1.6
    endloop
  endfacet
  facet normal -0 0 1
    outer loop
      vertex 21.2191 5.13933 1.6
      vertex 21.8335 3.644 1.6
      vertex 21.8355 5.20799 1.6
    endloop
  endfacet
  facet normal 0 0 1
    outer loop
      vertex 21.8335 3.644 1.6
      vertex 21.2191 5.13933 1.6
      vertex 21.5386 3.60767 1.6
    endloop
  endfacet
  facet normal -0 0 1
    outer loop
      vertex 20.7004 4.93332 1.6
      vertex 21.5386 3.60767 1.6
      vertex 21.2191 5.13933 1.6
    endloop
  endfacet
  facet normal 0 0 1
    outer loop
      vertex 21.5386 3.60767 1.6
      vertex 20.7004 4.93332 1.6
      vertex 21.2886 3.49866 1.6
    endloop
  endfacet
  facet normal -0 0 1
    outer loop
      vertex 20.2795 4.59 1.6
      vertex 21.2886 3.49866 1.6
      vertex 20.7004 4.93332 1.6
    endloop
  endfacet
  facet normal -0 0 1
    outer loop
      vertex 19.9695 4.12399 1.6
      vertex 21.2886 3.49866 1.6
      vertex 20.2795 4.59 1.6
    endloop
  endfacet
  facet normal -0 0 1
    outer loop
      vertex 19.7835 3.54866 1.6
      vertex 21.0835 3.31699 1.6
      vertex 19.9695 4.12399 1.6
    endloop
  endfacet
  facet normal 0 0 1
    outer loop
      vertex 21.2886 3.49866 1.6
      vertex 19.9695 4.12399 1.6
      vertex 21.0835 3.31699 1.6
    endloop
  endfacet
  facet normal -0 0 1
    outer loop
      vertex 22.8575 2.42099 1.6
      vertex 23.9332 2.32611 1.6
      vertex 23.9455 2.66899 1.6
    endloop
  endfacet
  facet normal -0 0 1
    outer loop
      vertex 22.8268 2.77344 1.6
      vertex 23.9455 2.66899 1.6
      vertex 23.8833 3.407 1.6
    endloop
  endfacet
  facet normal 0 0 1
    outer loop
      vertex 22.8415 2.15266 1.6
      vertex 23.9332 2.32611 1.6
      vertex 22.8575 2.42099 1.6
    endloop
  endfacet
  facet normal 0 0 1
    outer loop
      vertex 23.9332 2.32611 1.6
      vertex 22.8415 2.15266 1.6
      vertex 23.8962 1.98544 1.6
    endloop
  endfacet
  facet normal 0 0 1
    outer loop
      vertex 22.8268 2.77344 1.6
      vertex 23.8833 3.407 1.6
      vertex 23.6966 4.02899 1.6
    endloop
  endfacet
  facet normal 0 0 1
    outer loop
      vertex 22.7935 1.87298 1.6
      vertex 23.8962 1.98544 1.6
      vertex 22.8415 2.15266 1.6
    endloop
  endfacet
  facet normal 0 0 1
    outer loop
      vertex 23.8962 1.98544 1.6
      vertex 22.7935 1.87298 1.6
      vertex 23.8345 1.64699 1.6
    endloop
  endfacet
  facet normal 0 0 1
    outer loop
      vertex 22.8268 2.77344 1.6
      vertex 23.6966 4.02899 1.6
      vertex 23.3855 4.53499 1.6
    endloop
  endfacet
  facet normal 0 0 1
    outer loop
      vertex 22.3757 3.49866 1.6
      vertex 23.3855 4.53499 1.6
      vertex 22.9644 4.90887 1.6
    endloop
  endfacet
  facet normal 0 0 1
    outer loop
      vertex 23.8345 1.64699 1.6
      vertex 22.7935 1.87298 1.6
      vertex 23.7477 1.31088 1.6
    endloop
  endfacet
  facet normal -0 0 1
    outer loop
      vertex 22.7135 1.58198 1.6
      vertex 23.7477 1.31088 1.6
      vertex 22.7935 1.87298 1.6
    endloop
  endfacet
  facet normal 0 0 1
    outer loop
      vertex 23.7477 1.31088 1.6
      vertex 22.7135 1.58198 1.6
      vertex 23.6354 0.975875 1.6
    endloop
  endfacet
  facet normal -0 0 1
    outer loop
      vertex 22.6015 1.28021 1.6
      vertex 23.6354 0.975875 1.6
      vertex 22.7135 1.58198 1.6
    endloop
  endfacet
  facet normal 0 0 1
    outer loop
      vertex 23.6354 0.975875 1.6
      vertex 22.6015 1.28021 1.6
      vertex 23.4975 0.641997 1.6
    endloop
  endfacet
  facet normal -0 0 1
    outer loop
      vertex 22.4575 0.966887 1.6
      vertex 23.4975 0.641997 1.6
      vertex 22.6015 1.28021 1.6
    endloop
  endfacet
  facet normal 0 0 1
    outer loop
      vertex 23.4975 0.641997 1.6
      vertex 22.4575 0.966887 1.6
      vertex 22.2815 0.641997 1.6
    endloop
  endfacet
  facet normal 0 0 1
    outer loop
      vertex 21.0835 3.31699 1.6
      vertex 19.7835 3.54866 1.6
      vertex 20.9313 3.0721 1.6
    endloop
  endfacet
  facet normal 0 0 1
    outer loop
      vertex 19.7215 2.864 1.6
      vertex 20.9313 3.0721 1.6
      vertex 19.7835 3.54866 1.6
    endloop
  endfacet
  facet normal 0 0 1
    outer loop
      vertex 20.9313 3.0721 1.6
      vertex 19.7215 2.864 1.6
      vertex 20.84 2.77344 1.6
    endloop
  endfacet
  facet normal 0 -0 1
    outer loop
      vertex 19.7245 2.73555 1.6
      vertex 20.84 2.77344 1.6
      vertex 19.7215 2.864 1.6
    endloop
  endfacet
  facet normal 0 -0 1
    outer loop
      vertex 19.7335 2.61021 1.6
      vertex 20.84 2.77344 1.6
      vertex 19.7245 2.73555 1.6
    endloop
  endfacet
  facet normal 0 0 1
    outer loop
      vertex 20.84 2.77344 1.6
      vertex 19.7335 2.61021 1.6
      vertex 20.8095 2.42099 1.6
    endloop
  endfacet
  facet normal -0 -0 1
    outer loop
      vertex 19.7485 2.48799 1.6
      vertex 20.8095 2.42099 1.6
      vertex 19.7335 2.61021 1.6
    endloop
  endfacet
  facet normal 0 -0 1
    outer loop
      vertex 19.769 2.3681 1.6
      vertex 20.8095 2.42099 1.6
      vertex 19.7485 2.48799 1.6
    endloop
  endfacet
  facet normal 0 0 1
    outer loop
      vertex 17.7375 0.881989 1.6
      vertex 21.0742 1.16821 1.6
      vertex 19.8245 2.129 1.6
    endloop
  endfacet
  facet normal 0 0 1
    outer loop
      vertex 17.7375 0.881989 1.6
      vertex 19.8245 2.129 1.6
      vertex 18.8895 2.129 1.6
    endloop
  endfacet
  facet normal 0 0 1
    outer loop
      vertex 21.0742 1.16821 1.6
      vertex 17.7375 0.881989 1.6
      vertex 21.1935 0.881988 1.6
    endloop
  endfacet
  facet normal 0 0 1
    outer loop
      vertex 17.7375 0.881989 1.6
      vertex 18.8895 2.129 1.6
      vertex 17.7375 4.769 1.6
    endloop
  endfacet
  facet normal 0 0 1
    outer loop
      vertex 20.9775 1.44154 1.6
      vertex 19.8245 2.129 1.6
      vertex 21.0742 1.16821 1.6
    endloop
  endfacet
  facet normal 0 -0 1
    outer loop
      vertex 19.7943 2.24844 1.6
      vertex 20.8095 2.42099 1.6
      vertex 19.769 2.3681 1.6
    endloop
  endfacet
  facet normal 0 -0 1
    outer loop
      vertex 19.8245 2.129 1.6
      vertex 20.8095 2.42099 1.6
      vertex 19.7943 2.24844 1.6
    endloop
  endfacet
  facet normal 0 0 1
    outer loop
      vertex 20.9035 1.702 1.6
      vertex 19.8245 2.129 1.6
      vertex 20.9775 1.44154 1.6
    endloop
  endfacet
  facet normal 0 0 1
    outer loop
      vertex 20.8513 1.95166 1.6
      vertex 19.8245 2.129 1.6
      vertex 20.9035 1.702 1.6
    endloop
  endfacet
  facet normal 0 0 1
    outer loop
      vertex 20.82 2.19133 1.6
      vertex 19.8245 2.129 1.6
      vertex 20.8513 1.95166 1.6
    endloop
  endfacet
  facet normal 0 0 1
    outer loop
      vertex 20.8095 2.42099 1.6
      vertex 19.8245 2.129 1.6
      vertex 20.82 2.19133 1.6
    endloop
  endfacet
  facet normal 0 -1 0
    outer loop
      vertex 17.7375 -0.535094 1.6
      vertex 18.6215 -0.535094 2.4
      vertex 17.7375 -0.535094 2.4
    endloop
  endfacet
  facet normal 0 -1 -0
    outer loop
      vertex 18.6215 -0.535094 2.4
      vertex 17.7375 -0.535094 1.6
      vertex 18.6215 -0.535094 1.6
    endloop
  endfacet
  facet normal 1 -0 0
    outer loop
      vertex 17.7375 -5.1051 2.4
      vertex 17.7375 -0.535094 1.6
      vertex 17.7375 -0.535094 2.4
    endloop
  endfacet
  facet normal 1 0 0
    outer loop
      vertex 17.7375 -0.535094 1.6
      vertex 17.7375 -5.1051 2.4
      vertex 17.7375 -5.1051 1.6
    endloop
  endfacet
  facet normal 0 1 -0
    outer loop
      vertex 18.8895 -5.1051 1.6
      vertex 17.7375 -5.1051 2.4
      vertex 18.8895 -5.1051 2.4
    endloop
  endfacet
  facet normal 0 1 0
    outer loop
      vertex 17.7375 -5.1051 2.4
      vertex 18.8895 -5.1051 1.6
      vertex 17.7375 -5.1051 1.6
    endloop
  endfacet
  facet normal -1 0 0
    outer loop
      vertex 18.8895 -5.1051 1.6
      vertex 18.8895 -2.1841 2.4
      vertex 18.8895 -2.1841 1.6
    endloop
  endfacet
  facet normal -1 -0 0
    outer loop
      vertex 18.8895 -2.1841 2.4
      vertex 18.8895 -5.1051 1.6
      vertex 18.8895 -5.1051 2.4
    endloop
  endfacet
  facet normal 0.41365 0.910436 -0
    outer loop
      vertex 23.8175 -4.4231 1.6
      vertex 18.8895 -2.1841 2.4
      vertex 23.8175 -4.4231 2.4
    endloop
  endfacet
  facet normal 0.41365 0.910436 0
    outer loop
      vertex 18.8895 -2.1841 2.4
      vertex 23.8175 -4.4231 1.6
      vertex 18.8895 -2.1841 1.6
    endloop
  endfacet
  facet normal -1 0 0
    outer loop
      vertex 23.8175 -4.4231 1.6
      vertex 23.8175 -2.89911 2.4
      vertex 23.8175 -2.89911 1.6
    endloop
  endfacet
  facet normal -1 -0 0
    outer loop
      vertex 23.8175 -2.89911 2.4
      vertex 23.8175 -4.4231 1.6
      vertex 23.8175 -4.4231 2.4
    endloop
  endfacet
  facet normal -0.414122 -0.910221 0
    outer loop
      vertex 18.6215 -0.535094 1.6
      vertex 23.8175 -2.89911 2.4
      vertex 18.6215 -0.535094 2.4
    endloop
  endfacet
  facet normal -0.414122 -0.910221 -0
    outer loop
      vertex 23.8175 -2.89911 2.4
      vertex 18.6215 -0.535094 1.6
      vertex 23.8175 -2.89911 1.6
    endloop
  endfacet
  facet normal -0.9578 -0.287436 0
    outer loop
      vertex 23.8833 3.407 1.6
      vertex 23.6966 4.02899 2.4
      vertex 23.6966 4.02899 1.6
    endloop
  endfacet
  facet normal -0.9578 -0.287436 0
    outer loop
      vertex 23.6966 4.02899 2.4
      vertex 23.8833 3.407 1.6
      vertex 23.8833 3.407 2.4
    endloop
  endfacet
  facet normal -0.851862 -0.523766 0
    outer loop
      vertex 23.6966 4.02899 1.6
      vertex 23.3855 4.53499 2.4
      vertex 23.3855 4.53499 1.6
    endloop
  endfacet
  facet normal -0.851862 -0.523766 0
    outer loop
      vertex 23.3855 4.53499 2.4
      vertex 23.6966 4.02899 1.6
      vertex 23.6966 4.02899 2.4
    endloop
  endfacet
  facet normal -0.663932 -0.747793 0
    outer loop
      vertex 22.9644 4.90887 1.6
      vertex 23.3855 4.53499 2.4
      vertex 22.9644 4.90887 2.4
    endloop
  endfacet
  facet normal -0.663932 -0.747793 -0
    outer loop
      vertex 23.3855 4.53499 2.4
      vertex 22.9644 4.90887 1.6
      vertex 23.3855 4.53499 1.6
    endloop
  endfacet
  facet normal -0.398278 -0.917265 0
    outer loop
      vertex 22.4477 5.13321 1.6
      vertex 22.9644 4.90887 2.4
      vertex 22.4477 5.13321 2.4
    endloop
  endfacet
  facet normal -0.398278 -0.917265 -0
    outer loop
      vertex 22.9644 4.90887 2.4
      vertex 22.4477 5.13321 1.6
      vertex 22.9644 4.90887 1.6
    endloop
  endfacet
  facet normal -0.121248 -0.992622 0
    outer loop
      vertex 21.8355 5.20799 1.6
      vertex 22.4477 5.13321 2.4
      vertex 21.8355 5.20799 2.4
    endloop
  endfacet
  facet normal -0.121248 -0.992622 -0
    outer loop
      vertex 22.4477 5.13321 2.4
      vertex 21.8355 5.20799 1.6
      vertex 22.4477 5.13321 1.6
    endloop
  endfacet
  facet normal 0.110704 -0.993853 0
    outer loop
      vertex 21.2191 5.13933 1.6
      vertex 21.8355 5.20799 2.4
      vertex 21.2191 5.13933 2.4
    endloop
  endfacet
  facet normal 0.110704 -0.993853 0
    outer loop
      vertex 21.8355 5.20799 2.4
      vertex 21.2191 5.13933 1.6
      vertex 21.8355 5.20799 1.6
    endloop
  endfacet
  facet normal 0.36915 -0.92937 0
    outer loop
      vertex 20.7004 4.93332 1.6
      vertex 21.2191 5.13933 2.4
      vertex 20.7004 4.93332 2.4
    endloop
  endfacet
  facet normal 0.36915 -0.92937 0
    outer loop
      vertex 21.2191 5.13933 2.4
      vertex 20.7004 4.93332 1.6
      vertex 21.2191 5.13933 1.6
    endloop
  endfacet
  facet normal 0.632081 -0.774903 0
    outer loop
      vertex 20.2795 4.59 1.6
      vertex 20.7004 4.93332 2.4
      vertex 20.2795 4.59 2.4
    endloop
  endfacet
  facet normal 0.632081 -0.774903 0
    outer loop
      vertex 20.7004 4.93332 2.4
      vertex 20.2795 4.59 1.6
      vertex 20.7004 4.93332 1.6
    endloop
  endfacet
  facet normal 0.832604 -0.553869 0
    outer loop
      vertex 19.9695 4.12399 2.4
      vertex 20.2795 4.59 1.6
      vertex 20.2795 4.59 2.4
    endloop
  endfacet
  facet normal 0.832604 -0.553869 0
    outer loop
      vertex 20.2795 4.59 1.6
      vertex 19.9695 4.12399 2.4
      vertex 19.9695 4.12399 1.6
    endloop
  endfacet
  facet normal 0.951509 -0.307622 0
    outer loop
      vertex 19.7835 3.54866 2.4
      vertex 19.9695 4.12399 1.6
      vertex 19.9695 4.12399 2.4
    endloop
  endfacet
  facet normal 0.951509 -0.307622 0
    outer loop
      vertex 19.9695 4.12399 1.6
      vertex 19.7835 3.54866 2.4
      vertex 19.7835 3.54866 1.6
    endloop
  endfacet
  facet normal 0.995925 -0.0901815 0
    outer loop
      vertex 19.7215 2.864 2.4
      vertex 19.7835 3.54866 1.6
      vertex 19.7835 3.54866 2.4
    endloop
  endfacet
  facet normal 0.995925 -0.0901815 0
    outer loop
      vertex 19.7835 3.54866 1.6
      vertex 19.7215 2.864 2.4
      vertex 19.7215 2.864 1.6
    endloop
  endfacet
  facet normal 0.999726 0.0233958 0
    outer loop
      vertex 19.7245 2.73555 2.4
      vertex 19.7215 2.864 1.6
      vertex 19.7215 2.864 2.4
    endloop
  endfacet
  facet normal 0.999726 0.0233958 0
    outer loop
      vertex 19.7215 2.864 1.6
      vertex 19.7245 2.73555 2.4
      vertex 19.7245 2.73555 1.6
    endloop
  endfacet
  facet normal 0.997439 0.0715232 0
    outer loop
      vertex 19.7335 2.61021 2.4
      vertex 19.7245 2.73555 1.6
      vertex 19.7245 2.73555 2.4
    endloop
  endfacet
  facet normal 0.997439 0.0715232 0
    outer loop
      vertex 19.7245 2.73555 1.6
      vertex 19.7335 2.61021 2.4
      vertex 19.7335 2.61021 1.6
    endloop
  endfacet
  facet normal 0.992539 0.12193 0
    outer loop
      vertex 19.7485 2.48799 2.4
      vertex 19.7335 2.61021 1.6
      vertex 19.7335 2.61021 2.4
    endloop
  endfacet
  facet normal 0.992539 0.12193 0
    outer loop
      vertex 19.7335 2.61021 1.6
      vertex 19.7485 2.48799 2.4
      vertex 19.7485 2.48799 1.6
    endloop
  endfacet
  facet normal 0.985787 0.167999 0
    outer loop
      vertex 19.769 2.3681 2.4
      vertex 19.7485 2.48799 1.6
      vertex 19.7485 2.48799 2.4
    endloop
  endfacet
  facet normal 0.985787 0.167999 0
    outer loop
      vertex 19.7485 2.48799 1.6
      vertex 19.769 2.3681 2.4
      vertex 19.769 2.3681 1.6
    endloop
  endfacet
  facet normal 0.978296 0.207211 0
    outer loop
      vertex 19.7943 2.24844 2.4
      vertex 19.769 2.3681 1.6
      vertex 19.769 2.3681 2.4
    endloop
  endfacet
  facet normal 0.978296 0.207211 0
    outer loop
      vertex 19.769 2.3681 1.6
      vertex 19.7943 2.24844 2.4
      vertex 19.7943 2.24844 1.6
    endloop
  endfacet
  facet normal 0.969469 0.245216 0
    outer loop
      vertex 19.8245 2.129 2.4
      vertex 19.7943 2.24844 1.6
      vertex 19.7943 2.24844 2.4
    endloop
  endfacet
  facet normal 0.969469 0.245216 0
    outer loop
      vertex 19.7943 2.24844 1.6
      vertex 19.8245 2.129 2.4
      vertex 19.8245 2.129 1.6
    endloop
  endfacet
  facet normal 0 -1 0
    outer loop
      vertex 18.8895 2.129 1.6
      vertex 19.8245 2.129 2.4
      vertex 18.8895 2.129 2.4
    endloop
  endfacet
  facet normal 0 -1 -0
    outer loop
      vertex 19.8245 2.129 2.4
      vertex 18.8895 2.129 1.6
      vertex 19.8245 2.129 1.6
    endloop
  endfacet
  facet normal -1 0 0
    outer loop
      vertex 18.8895 2.129 1.6
      vertex 18.8895 4.769 2.4
      vertex 18.8895 4.769 1.6
    endloop
  endfacet
  facet normal -1 -0 0
    outer loop
      vertex 18.8895 4.769 2.4
      vertex 18.8895 2.129 1.6
      vertex 18.8895 2.129 2.4
    endloop
  endfacet
  facet normal 0 -1 0
    outer loop
      vertex 17.7375 4.769 1.6
      vertex 18.8895 4.769 2.4
      vertex 17.7375 4.769 2.4
    endloop
  endfacet
  facet normal 0 -1 -0
    outer loop
      vertex 18.8895 4.769 2.4
      vertex 17.7375 4.769 1.6
      vertex 18.8895 4.769 1.6
    endloop
  endfacet
  facet normal 1 -0 0
    outer loop
      vertex 17.7375 0.881989 2.4
      vertex 17.7375 4.769 1.6
      vertex 17.7375 4.769 2.4
    endloop
  endfacet
  facet normal 1 0 0
    outer loop
      vertex 17.7375 4.769 1.6
      vertex 17.7375 0.881989 2.4
      vertex 17.7375 0.881989 1.6
    endloop
  endfacet
  facet normal 2.75949e-07 1 -0
    outer loop
      vertex 21.1935 0.881988 1.6
      vertex 17.7375 0.881989 2.4
      vertex 21.1935 0.881988 2.4
    endloop
  endfacet
  facet normal 2.75949e-07 1 0
    outer loop
      vertex 17.7375 0.881989 2.4
      vertex 21.1935 0.881988 1.6
      vertex 17.7375 0.881989 1.6
    endloop
  endfacet
  facet normal -0.922987 -0.384831 0
    outer loop
      vertex 21.1935 0.881988 1.6
      vertex 21.0742 1.16821 2.4
      vertex 21.0742 1.16821 1.6
    endloop
  endfacet
  facet normal -0.922987 -0.384831 0
    outer loop
      vertex 21.0742 1.16821 2.4
      vertex 21.1935 0.881988 1.6
      vertex 21.1935 0.881988 2.4
    endloop
  endfacet
  facet normal -0.942779 -0.333417 0
    outer loop
      vertex 21.0742 1.16821 1.6
      vertex 20.9775 1.44154 2.4
      vertex 20.9775 1.44154 1.6
    endloop
  endfacet
  facet normal -0.942779 -0.333417 0
    outer loop
      vertex 20.9775 1.44154 2.4
      vertex 21.0742 1.16821 1.6
      vertex 21.0742 1.16821 2.4
    endloop
  endfacet
  facet normal -0.961952 -0.273217 0
    outer loop
      vertex 20.9775 1.44154 1.6
      vertex 20.9035 1.702 2.4
      vertex 20.9035 1.702 1.6
    endloop
  endfacet
  facet normal -0.961952 -0.273217 0
    outer loop
      vertex 20.9035 1.702 2.4
      vertex 20.9775 1.44154 1.6
      vertex 20.9775 1.44154 2.4
    endloop
  endfacet
  facet normal -0.97881 -0.204771 0
    outer loop
      vertex 20.9035 1.702 1.6
      vertex 20.8513 1.95166 2.4
      vertex 20.8513 1.95166 1.6
    endloop
  endfacet
  facet normal -0.97881 -0.204771 0
    outer loop
      vertex 20.8513 1.95166 2.4
      vertex 20.9035 1.702 1.6
      vertex 20.9035 1.702 2.4
    endloop
  endfacet
  facet normal -0.991566 -0.129604 0
    outer loop
      vertex 20.8513 1.95166 1.6
      vertex 20.82 2.19133 2.4
      vertex 20.82 2.19133 1.6
    endloop
  endfacet
  facet normal -0.991566 -0.129604 0
    outer loop
      vertex 20.82 2.19133 2.4
      vertex 20.8513 1.95166 1.6
      vertex 20.8513 1.95166 2.4
    endloop
  endfacet
  facet normal -0.998966 -0.0454649 0
    outer loop
      vertex 20.82 2.19133 1.6
      vertex 20.8095 2.42099 2.4
      vertex 20.8095 2.42099 1.6
    endloop
  endfacet
  facet normal -0.998966 -0.0454649 0
    outer loop
      vertex 20.8095 2.42099 2.4
      vertex 20.82 2.19133 1.6
      vertex 20.82 2.19133 2.4
    endloop
  endfacet
  facet normal -0.996291 0.0860507 0
    outer loop
      vertex 20.8095 2.42099 1.6
      vertex 20.84 2.77344 2.4
      vertex 20.84 2.77344 1.6
    endloop
  endfacet
  facet normal -0.996291 0.0860507 0
    outer loop
      vertex 20.84 2.77344 2.4
      vertex 20.8095 2.42099 1.6
      vertex 20.8095 2.42099 2.4
    endloop
  endfacet
  facet normal -0.956292 0.292413 0
    outer loop
      vertex 20.84 2.77344 1.6
      vertex 20.9313 3.0721 2.4
      vertex 20.9313 3.0721 1.6
    endloop
  endfacet
  facet normal -0.956292 0.292413 0
    outer loop
      vertex 20.9313 3.0721 2.4
      vertex 20.84 2.77344 1.6
      vertex 20.84 2.77344 2.4
    endloop
  endfacet
  facet normal -0.849295 0.527919 0
    outer loop
      vertex 20.9313 3.0721 1.6
      vertex 21.0835 3.31699 2.4
      vertex 21.0835 3.31699 1.6
    endloop
  endfacet
  facet normal -0.849295 0.527919 0
    outer loop
      vertex 21.0835 3.31699 2.4
      vertex 20.9313 3.0721 1.6
      vertex 20.9313 3.0721 2.4
    endloop
  endfacet
  facet normal -0.663042 0.748582 0
    outer loop
      vertex 21.2886 3.49866 1.6
      vertex 21.0835 3.31699 2.4
      vertex 21.2886 3.49866 2.4
    endloop
  endfacet
  facet normal -0.663042 0.748582 0
    outer loop
      vertex 21.0835 3.31699 2.4
      vertex 21.2886 3.49866 1.6
      vertex 21.0835 3.31699 1.6
    endloop
  endfacet
  facet normal -0.399692 0.91665 0
    outer loop
      vertex 21.5386 3.60767 1.6
      vertex 21.2886 3.49866 2.4
      vertex 21.5386 3.60767 2.4
    endloop
  endfacet
  facet normal -0.399692 0.91665 0
    outer loop
      vertex 21.2886 3.49866 2.4
      vertex 21.5386 3.60767 1.6
      vertex 21.2886 3.49866 1.6
    endloop
  endfacet
  facet normal -0.122277 0.992496 0
    outer loop
      vertex 21.8335 3.644 1.6
      vertex 21.5386 3.60767 2.4
      vertex 21.8335 3.644 2.4
    endloop
  endfacet
  facet normal -0.122277 0.992496 0
    outer loop
      vertex 21.5386 3.60767 2.4
      vertex 21.8335 3.644 1.6
      vertex 21.5386 3.60767 1.6
    endloop
  endfacet
  facet normal 0.123102 0.992394 -0
    outer loop
      vertex 22.1264 3.60767 1.6
      vertex 21.8335 3.644 2.4
      vertex 22.1264 3.60767 2.4
    endloop
  endfacet
  facet normal 0.123102 0.992394 0
    outer loop
      vertex 21.8335 3.644 2.4
      vertex 22.1264 3.60767 1.6
      vertex 21.8335 3.644 1.6
    endloop
  endfacet
  facet normal 0.400595 0.916255 -0
    outer loop
      vertex 22.3757 3.49866 1.6
      vertex 22.1264 3.60767 2.4
      vertex 22.3757 3.49866 2.4
    endloop
  endfacet
  facet normal 0.400595 0.916255 0
    outer loop
      vertex 22.1264 3.60767 2.4
      vertex 22.3757 3.49866 1.6
      vertex 22.1264 3.60767 1.6
    endloop
  endfacet
  facet normal 0.661828 0.749656 -0
    outer loop
      vertex 22.5815 3.31699 1.6
      vertex 22.3757 3.49866 2.4
      vertex 22.5815 3.31699 2.4
    endloop
  endfacet
  facet normal 0.661828 0.749656 0
    outer loop
      vertex 22.3757 3.49866 2.4
      vertex 22.5815 3.31699 1.6
      vertex 22.3757 3.49866 1.6
    endloop
  endfacet
  facet normal 0.847562 0.530697 0
    outer loop
      vertex 22.7348 3.0721 2.4
      vertex 22.5815 3.31699 1.6
      vertex 22.5815 3.31699 2.4
    endloop
  endfacet
  facet normal 0.847562 0.530697 0
    outer loop
      vertex 22.5815 3.31699 1.6
      vertex 22.7348 3.0721 2.4
      vertex 22.7348 3.0721 1.6
    endloop
  endfacet
  facet normal 0.955689 0.294377 0
    outer loop
      vertex 22.8268 2.77344 2.4
      vertex 22.7348 3.0721 1.6
      vertex 22.7348 3.0721 2.4
    endloop
  endfacet
  facet normal 0.955689 0.294377 0
    outer loop
      vertex 22.7348 3.0721 1.6
      vertex 22.8268 2.77344 2.4
      vertex 22.8268 2.77344 1.6
    endloop
  endfacet
  facet normal 0.996235 0.0866929 0
    outer loop
      vertex 22.8575 2.42099 2.4
      vertex 22.8268 2.77344 1.6
      vertex 22.8268 2.77344 2.4
    endloop
  endfacet
  facet normal 0.996235 0.0866929 0
    outer loop
      vertex 22.8268 2.77344 1.6
      vertex 22.8575 2.42099 2.4
      vertex 22.8575 2.42099 1.6
    endloop
  endfacet
  facet normal 0.998225 -0.0595473 0
    outer loop
      vertex 22.8415 2.15266 2.4
      vertex 22.8575 2.42099 1.6
      vertex 22.8575 2.42099 2.4
    endloop
  endfacet
  facet normal 0.998225 -0.0595473 0
    outer loop
      vertex 22.8575 2.42099 1.6
      vertex 22.8415 2.15266 2.4
      vertex 22.8415 2.15266 1.6
    endloop
  endfacet
  facet normal 0.985596 -0.169115 0
    outer loop
      vertex 22.7935 1.87298 2.4
      vertex 22.8415 2.15266 1.6
      vertex 22.8415 2.15266 2.4
    endloop
  endfacet
  facet normal 0.985596 -0.169115 0
    outer loop
      vertex 22.8415 2.15266 1.6
      vertex 22.7935 1.87298 2.4
      vertex 22.7935 1.87298 1.6
    endloop
  endfacet
  facet normal 0.964225 -0.265085 0
    outer loop
      vertex 22.7135 1.58198 2.4
      vertex 22.7935 1.87298 1.6
      vertex 22.7935 1.87298 2.4
    endloop
  endfacet
  facet normal 0.964225 -0.265085 0
    outer loop
      vertex 22.7935 1.87298 1.6
      vertex 22.7135 1.58198 2.4
      vertex 22.7135 1.58198 1.6
    endloop
  endfacet
  facet normal 0.937514 -0.347947 0
    outer loop
      vertex 22.6015 1.28021 2.4
      vertex 22.7135 1.58198 1.6
      vertex 22.7135 1.58198 2.4
    endloop
  endfacet
  facet normal 0.937514 -0.347947 0
    outer loop
      vertex 22.7135 1.58198 1.6
      vertex 22.6015 1.28021 2.4
      vertex 22.6015 1.28021 1.6
    endloop
  endfacet
  facet normal 0.908636 -0.41759 0
    outer loop
      vertex 22.4575 0.966887 2.4
      vertex 22.6015 1.28021 1.6
      vertex 22.6015 1.28021 2.4
    endloop
  endfacet
  facet normal 0.908636 -0.41759 0
    outer loop
      vertex 22.6015 1.28021 1.6
      vertex 22.4575 0.966887 2.4
      vertex 22.4575 0.966887 1.6
    endloop
  endfacet
  facet normal 0.87926 -0.476342 0
    outer loop
      vertex 22.2815 0.641997 2.4
      vertex 22.4575 0.966887 1.6
      vertex 22.4575 0.966887 2.4
    endloop
  endfacet
  facet normal 0.87926 -0.476342 0
    outer loop
      vertex 22.4575 0.966887 1.6
      vertex 22.2815 0.641997 2.4
      vertex 22.2815 0.641997 1.6
    endloop
  endfacet
  facet normal 0 1 -0
    outer loop
      vertex 23.4975 0.641997 1.6
      vertex 22.2815 0.641997 2.4
      vertex 23.4975 0.641997 2.4
    endloop
  endfacet
  facet normal 0 1 0
    outer loop
      vertex 22.2815 0.641997 2.4
      vertex 23.4975 0.641997 1.6
      vertex 22.2815 0.641997 1.6
    endloop
  endfacet
  facet normal -0.924273 0.381731 0
    outer loop
      vertex 23.4975 0.641997 1.6
      vertex 23.6354 0.975875 2.4
      vertex 23.6354 0.975875 1.6
    endloop
  endfacet
  facet normal -0.924273 0.381731 0
    outer loop
      vertex 23.6354 0.975875 2.4
      vertex 23.4975 0.641997 1.6
      vertex 23.4975 0.641997 2.4
    endloop
  endfacet
  facet normal -0.948116 0.317924 0
    outer loop
      vertex 23.6354 0.975875 1.6
      vertex 23.7477 1.31088 2.4
      vertex 23.7477 1.31088 1.6
    endloop
  endfacet
  facet normal -0.948116 0.317924 0
    outer loop
      vertex 23.7477 1.31088 2.4
      vertex 23.6354 0.975875 1.6
      vertex 23.6354 0.975875 2.4
    endloop
  endfacet
  facet normal -0.96825 0.249986 0
    outer loop
      vertex 23.7477 1.31088 1.6
      vertex 23.8345 1.64699 2.4
      vertex 23.8345 1.64699 1.6
    endloop
  endfacet
  facet normal -0.96825 0.249986 0
    outer loop
      vertex 23.8345 1.64699 2.4
      vertex 23.7477 1.31088 1.6
      vertex 23.7477 1.31088 2.4
    endloop
  endfacet
  facet normal -0.983807 0.179233 0
    outer loop
      vertex 23.8345 1.64699 1.6
      vertex 23.8962 1.98544 2.4
      vertex 23.8962 1.98544 1.6
    endloop
  endfacet
  facet normal -0.983807 0.179233 0
    outer loop
      vertex 23.8962 1.98544 2.4
      vertex 23.8345 1.64699 1.6
      vertex 23.8345 1.64699 2.4
    endloop
  endfacet
  facet normal -0.994153 0.107983 0
    outer loop
      vertex 23.8962 1.98544 1.6
      vertex 23.9332 2.32611 2.4
      vertex 23.9332 2.32611 1.6
    endloop
  endfacet
  facet normal -0.994153 0.107983 0
    outer loop
      vertex 23.9332 2.32611 2.4
      vertex 23.8962 1.98544 1.6
      vertex 23.8962 1.98544 2.4
    endloop
  endfacet
  facet normal -0.999354 0.0359342 0
    outer loop
      vertex 23.9332 2.32611 1.6
      vertex 23.9455 2.66899 2.4
      vertex 23.9455 2.66899 1.6
    endloop
  endfacet
  facet normal -0.999354 0.0359342 0
    outer loop
      vertex 23.9455 2.66899 2.4
      vertex 23.9332 2.32611 1.6
      vertex 23.9332 2.32611 2.4
    endloop
  endfacet
  facet normal -0.996464 -0.0840173 0
    outer loop
      vertex 23.9455 2.66899 1.6
      vertex 23.8833 3.407 2.4
      vertex 23.8833 3.407 1.6
    endloop
  endfacet
  facet normal -0.996464 -0.0840173 0
    outer loop
      vertex 23.8833 3.407 2.4
      vertex 23.9455 2.66899 1.6
      vertex 23.9455 2.66899 2.4
    endloop
  endfacet
endsolid OpenSCAD_Model
