<?xml version="1.0" encoding="UTF-8" standalone="no"?>
<!-- Created with Inkscape (http://www.inkscape.org/) -->

<svg
   xmlns:dc="http://purl.org/dc/elements/1.1/"
   xmlns:cc="http://creativecommons.org/ns#"
   xmlns:rdf="http://www.w3.org/1999/02/22-rdf-syntax-ns#"
   xmlns:svg="http://www.w3.org/2000/svg"
   xmlns="http://www.w3.org/2000/svg"
   xmlns:sodipodi="http://sodipodi.sourceforge.net/DTD/sodipodi-0.dtd"
   xmlns:inkscape="http://www.inkscape.org/namespaces/inkscape"
   width="50.025803mm"
   height="50mm"
   viewBox="0 0 177.25677 177.16536"
   id="svg4895"
   version="1.1"
   inkscape:version="0.91 r13725"
   sodipodi:docname="mgtow_straight_arrow_5cm.svg">
  <defs
     id="defs4897" />
  <sodipodi:namedview
     id="base"
     pagecolor="#ffffff"
     bordercolor="#666666"
     borderopacity="1.0"
     inkscape:pageopacity="0.0"
     inkscape:pageshadow="2"
     inkscape:zoom="0.7"
     inkscape:cx="-417.35819"
     inkscape:cy="142.39095"
     inkscape:document-units="mm"
     inkscape:current-layer="layer1"
     showgrid="false"
     fit-margin-top="0"
     fit-margin-left="0"
     fit-margin-right="0"
     fit-margin-bottom="0"
     inkscape:window-width="1920"
     inkscape:window-height="999"
     inkscape:window-x="0"
     inkscape:window-y="26"
     inkscape:window-maximized="1" />
  <metadata
     id="metadata4900">
    <rdf:RDF>
      <cc:Work
         rdf:about="">
        <dc:format>image/svg+xml</dc:format>
        <dc:type
           rdf:resource="http://purl.org/dc/dcmitype/StillImage" />
        <dc:title></dc:title>
        <cc:license
           rdf:resource="http://creativecommons.org/licenses/by-sa/3.0/" />
      </cc:Work>
      <cc:License
         rdf:about="http://creativecommons.org/licenses/by-sa/3.0/">
        <cc:permits
           rdf:resource="http://creativecommons.org/ns#Reproduction" />
        <cc:permits
           rdf:resource="http://creativecommons.org/ns#Distribution" />
        <cc:requires
           rdf:resource="http://creativecommons.org/ns#Notice" />
        <cc:requires
           rdf:resource="http://creativecommons.org/ns#Attribution" />
        <cc:permits
           rdf:resource="http://creativecommons.org/ns#DerivativeWorks" />
        <cc:requires
           rdf:resource="http://creativecommons.org/ns#ShareAlike" />
      </cc:License>
    </rdf:RDF>
  </metadata>
  <g
     inkscape:label="Vrstva 1"
     inkscape:groupmode="layer"
     id="layer1"
     transform="translate(-169.61929,-391.18635)">
    <path
       sodipodi:nodetypes="ccccccccc"
       inkscape:connector-curvature="0"
       id="bg_1_5_mm"
       d="m 169.68774,541.28681 c -0.26062,12.93154 10.07637,24.93533 22.89274,26.63745 43.19979,0.6481 90.43953,0.41247 129.10362,0.23782 12.97177,-0.65293 24.27442,-11.9129 24.9615,-24.88593 -0.34757,-45.452 0.71002,-85.80263 -0.0532,-127.53376 -0.89565,-12.91117 -12.28096,-23.93872 -25.20125,-24.47641 -41.91339,-0.1186 -83.82818,-0.0744 -125.74072,-0.0571 -12.95795,0.20932 -24.61557,11.01664 -25.80302,23.92374 -0.34562,42.24515 -0.20906,87.68739 -0.15962,126.15417 z"
       style="color:#000000;font-style:normal;font-variant:normal;font-weight:normal;font-stretch:normal;font-size:medium;line-height:normal;font-family:sans-serif;text-indent:0;text-align:start;text-decoration:none;text-decoration-line:none;text-decoration-style:solid;text-decoration-color:#000000;letter-spacing:normal;word-spacing:normal;text-transform:none;direction:ltr;block-progression:tb;writing-mode:lr-tb;baseline-shift:baseline;text-anchor:start;white-space:normal;clip-rule:nonzero;display:inline;overflow:visible;visibility:visible;opacity:1;isolation:auto;mix-blend-mode:normal;color-interpolation:sRGB;color-interpolation-filters:linearRGB;solid-color:#000000;solid-opacity:1;fill:#ffcc00;fill-opacity:1;fill-rule:nonzero;stroke:none;stroke-width:56.69291306;stroke-linecap:round;stroke-linejoin:miter;stroke-miterlimit:4;stroke-dasharray:0.16993565, 0.3398713;stroke-dashoffset:0;stroke-opacity:1;color-rendering:auto;image-rendering:auto;shape-rendering:auto;text-rendering:auto;enable-background:accumulate"
       inkscape:label="#path7192" />
    <path
       inkscape:connector-curvature="0"
       style="color:#000000;font-style:normal;font-variant:normal;font-weight:normal;font-stretch:normal;font-size:medium;line-height:normal;font-family:sans-serif;text-indent:0;text-align:start;text-decoration:none;text-decoration-line:none;text-decoration-style:solid;text-decoration-color:#000000;letter-spacing:normal;word-spacing:normal;text-transform:none;direction:ltr;block-progression:tb;writing-mode:lr-tb;baseline-shift:baseline;text-anchor:start;white-space:normal;clip-rule:nonzero;display:inline;overflow:visible;visibility:visible;opacity:1;isolation:auto;mix-blend-mode:normal;color-interpolation:sRGB;color-interpolation-filters:linearRGB;solid-color:#000000;solid-opacity:1;fill:#000000;fill-opacity:1;fill-rule:nonzero;stroke:none;stroke-width:21.25984192;stroke-linecap:round;stroke-linejoin:miter;stroke-miterlimit:4;stroke-dasharray:0.16993565, 0.3398713;stroke-dashoffset:0;stroke-opacity:1;color-rendering:auto;image-rendering:auto;shape-rendering:auto;text-rendering:auto;enable-background:accumulate"
       d="m 320.30286,398.80744 c -0.30976,-0.003 -0.62027,0.002 -0.93164,0.0156 -41.3346,0.0381 -82.66722,-0.0747 -124.00097,0.082 -4.67682,0.18811 -9.0216,2.31966 -12.27344,5.55762 -3.68542,3.66968 -5.96704,8.75998 -5.73828,14.05371 -0.006,40.91941 -0.0177,81.84168 0.004,122.75684 -0.25444,10.04396 8.53136,19.14999 18.57519,19.25879 41.70167,0.0194 83.40123,0.0637 125.10352,-0.0263 9.93106,-0.41185 18.38055,-9.56401 18.0166,-19.49122 -0.0321,-41.40726 0.0893,-82.82378 -0.0283,-124.23242 -0.41189,-9.6652 -9.12397,-17.87952 -18.72658,-17.97463 z m -123.46777,9.16211 c 0.40485,-0.002 0.81102,0.0221 1.2168,0.0723 40.92024,0.0478 81.84413,-0.0827 122.75878,0.0469 5.60449,0.41194 9.79116,6.01779 9.06739,11.50782 -0.0412,40.88373 0.0474,81.77355 -0.0693,122.64941 -0.38237,5.60548 -5.97737,9.81815 -11.46777,9.1084 -40.90472,-0.0279 -81.83547,0.0688 -122.72461,-0.0469 -5.1347,-0.44801 -9.2689,-5.13613 -9.05762,-10.29297 0.0276,-41.29206 -0.0697,-82.58918 0.0488,-123.87891 0.1621,-2.27465 1.17851,-4.31375 2.69532,-5.88769 1.93977,-2.01284 4.69826,-3.26567 7.53222,-3.27832 z"
       id="fg_border_3_mm"
       inkscape:label="#path5459" />
    <path
       inkscape:connector-curvature="0"
       style="color:#000000;font-style:normal;font-variant:normal;font-weight:normal;font-stretch:normal;font-size:medium;line-height:normal;font-family:sans-serif;text-indent:0;text-align:start;text-decoration:none;text-decoration-line:none;text-decoration-style:solid;text-decoration-color:#000000;letter-spacing:normal;word-spacing:normal;text-transform:none;direction:ltr;block-progression:tb;writing-mode:lr-tb;baseline-shift:baseline;text-anchor:start;white-space:normal;clip-rule:nonzero;display:inline;overflow:visible;visibility:visible;opacity:1;isolation:auto;mix-blend-mode:normal;color-interpolation:sRGB;color-interpolation-filters:linearRGB;solid-color:#000000;solid-opacity:1;fill:#000000;fill-opacity:1;fill-rule:nonzero;stroke:none;stroke-width:21.25984192;stroke-linecap:round;stroke-linejoin:miter;stroke-miterlimit:4;stroke-dasharray:0.16993565, 0.3398713;stroke-dashoffset:0;stroke-opacity:1;color-rendering:auto;image-rendering:auto;shape-rendering:auto;text-rendering:auto;enable-background:accumulate"
       d="m 196.84222,440.12812 100.93794,100.93793 11.93479,-11.93478 -38.88794,-38.88793 1e-5,-38.82215 8.43855,0 -16.87771,-29.19884 -16.87831,29.19944 8.43915,-5e-4 0,21.94384 -45.17169,-45.1717 -11.93479,11.93479 z"
       id="fg_arrow_3_mm"
       inkscape:label="#fg_border_2_5_mm" />
  </g>
</svg>
