solid OpenSCAD_Model
  facet normal -0.000431419 1 0
    outer loop
      vertex -0.424307 22.818 1.5
      vertex -22.8039 22.8084 3
      vertex -0.424307 22.818 3
    endloop
  endfacet
  facet normal -0.000431419 1 0
    outer loop
      vertex -22.8039 22.8084 3
      vertex -0.424307 22.818 1.5
      vertex -22.8039 22.8084 1.5
    endloop
  endfacet
  facet normal 1 -0.000120557 0
    outer loop
      vertex 22.8155 -22.8246 3
      vertex 22.821 22.7877 1.5
      vertex 22.821 22.7877 3
    endloop
  endfacet
  facet normal 1 -0.000120557 0
    outer loop
      vertex 22.821 22.7877 1.5
      vertex 22.8155 -22.8246 3
      vertex 22.8155 -22.8246 1.5
    endloop
  endfacet
  facet normal -0.038818 -0.999246 0
    outer loop
      vertex -22.8249 -22.8336 1.5
      vertex -22.7813 -22.8353 3
      vertex -22.8249 -22.8336 3
    endloop
  endfacet
  facet normal -0.038818 -0.999246 -0
    outer loop
      vertex -22.7813 -22.8353 3
      vertex -22.8249 -22.8336 1.5
      vertex -22.7813 -22.8353 1.5
    endloop
  endfacet
  facet normal 0.00130604 0.999999 -0
    outer loop
      vertex 22.821 22.7877 1.5
      vertex -0.424307 22.818 3
      vertex 22.821 22.7877 3
    endloop
  endfacet
  facet normal 0.00130604 0.999999 0
    outer loop
      vertex -0.424307 22.818 3
      vertex 22.821 22.7877 1.5
      vertex -0.424307 22.818 1.5
    endloop
  endfacet
  facet normal 0 0 -1
    outer loop
      vertex -24.9462 -25 0
      vertex 24.9929 25 0
      vertex 24.991 -24.9847 0
    endloop
  endfacet
  facet normal 0 0 -1
    outer loop
      vertex -24.9462 -25 0
      vertex -24.9605 24.9825 0
      vertex 24.9929 25 0
    endloop
  endfacet
  facet normal 0 -0 -1
    outer loop
      vertex -24.9605 24.9825 0
      vertex -24.9462 -25 0
      vertex -24.9929 -24.9986 0
    endloop
  endfacet
  facet normal 0.000235842 -1 0
    outer loop
      vertex -22.7813 -22.8353 1.5
      vertex 22.8155 -22.8246 3
      vertex -22.7813 -22.8353 3
    endloop
  endfacet
  facet normal 0.000235842 -1 0
    outer loop
      vertex 22.8155 -22.8246 3
      vertex -22.7813 -22.8353 1.5
      vertex 22.8155 -22.8246 1.5
    endloop
  endfacet
  facet normal -0.99999 -0.00450101 0
    outer loop
      vertex -22.8249 -22.8336 1.5
      vertex -22.8251 -22.7713 3
      vertex -22.8251 -22.7713 1.5
    endloop
  endfacet
  facet normal -0.99999 -0.00450101 0
    outer loop
      vertex -22.8251 -22.7713 3
      vertex -22.8249 -22.8336 1.5
      vertex -22.8249 -22.8336 3
    endloop
  endfacet
  facet normal -1 0.000465584 0
    outer loop
      vertex -22.8251 -22.7713 1.5
      vertex -22.8039 22.8084 3
      vertex -22.8039 22.8084 1.5
    endloop
  endfacet
  facet normal -1 0.000465584 0
    outer loop
      vertex -22.8039 22.8084 3
      vertex -22.8251 -22.7713 1.5
      vertex -22.8251 -22.7713 3
    endloop
  endfacet
  facet normal 0 0 1
    outer loop
      vertex 22.821 22.7877 3
      vertex 20.2212 20.2179 3
      vertex 22.8155 -22.8246 3
    endloop
  endfacet
  facet normal 0 0 1
    outer loop
      vertex -0.424307 22.818 3
      vertex 20.2212 20.2179 3
      vertex 22.821 22.7877 3
    endloop
  endfacet
  facet normal 0 0 1
    outer loop
      vertex -0.424307 22.818 3
      vertex -20.2242 20.2077 3
      vertex 20.2212 20.2179 3
    endloop
  endfacet
  facet normal 0 0 1
    outer loop
      vertex -22.8251 -22.7713 3
      vertex -20.2306 -20.228 3
      vertex -20.2242 20.2077 3
    endloop
  endfacet
  facet normal -0 0 1
    outer loop
      vertex -22.8039 22.8084 3
      vertex -20.2242 20.2077 3
      vertex -0.424307 22.818 3
    endloop
  endfacet
  facet normal 0 0 1
    outer loop
      vertex -22.8251 -22.7713 3
      vertex -20.2242 20.2077 3
      vertex -22.8039 22.8084 3
    endloop
  endfacet
  facet normal 0 0 1
    outer loop
      vertex -20.2306 -20.228 3
      vertex -22.8251 -22.7713 3
      vertex -22.7813 -22.8353 3
    endloop
  endfacet
  facet normal 0 0 1
    outer loop
      vertex -22.7813 -22.8353 3
      vertex -22.8251 -22.7713 3
      vertex -22.8249 -22.8336 3
    endloop
  endfacet
  facet normal -0 0 1
    outer loop
      vertex 20.2035 -20.228 3
      vertex 22.8155 -22.8246 3
      vertex 20.2212 20.2179 3
    endloop
  endfacet
  facet normal 0 0 1
    outer loop
      vertex -22.7813 -22.8353 3
      vertex 20.2035 -20.228 3
      vertex -20.2306 -20.228 3
    endloop
  endfacet
  facet normal 0 0 1
    outer loop
      vertex 20.2035 -20.228 3
      vertex -22.7813 -22.8353 3
      vertex 22.8155 -22.8246 3
    endloop
  endfacet
  facet normal -1 0.000436117 0
    outer loop
      vertex 20.2035 -20.228 1.5
      vertex 20.2212 20.2179 3
      vertex 20.2212 20.2179 1.5
    endloop
  endfacet
  facet normal -1 0.000436117 0
    outer loop
      vertex 20.2212 20.2179 3
      vertex 20.2035 -20.228 1.5
      vertex 20.2035 -20.228 3
    endloop
  endfacet
  facet normal 0.000251921 -1 0
    outer loop
      vertex -20.2242 20.2077 1.5
      vertex 20.2212 20.2179 3
      vertex -20.2242 20.2077 3
    endloop
  endfacet
  facet normal 0.000251921 -1 0
    outer loop
      vertex 20.2212 20.2179 3
      vertex -20.2242 20.2077 1.5
      vertex 20.2212 20.2179 1.5
    endloop
  endfacet
  facet normal 0 1 -0
    outer loop
      vertex 20.2035 -20.228 1.5
      vertex -20.2306 -20.228 3
      vertex 20.2035 -20.228 3
    endloop
  endfacet
  facet normal 0 1 0
    outer loop
      vertex -20.2306 -20.228 3
      vertex 20.2035 -20.228 1.5
      vertex -20.2306 -20.228 1.5
    endloop
  endfacet
  facet normal 1 -0.000156981 0
    outer loop
      vertex -20.2306 -20.228 3
      vertex -20.2242 20.2077 1.5
      vertex -20.2242 20.2077 3
    endloop
  endfacet
  facet normal 1 -0.000156981 0
    outer loop
      vertex -20.2242 20.2077 1.5
      vertex -20.2306 -20.228 3
      vertex -20.2306 -20.228 1.5
    endloop
  endfacet
  facet normal 0 0 1
    outer loop
      vertex -1.21462 7.96005 3
      vertex 3.54803 7.9601 3
      vertex 1.1667 16.1993 3
    endloop
  endfacet
  facet normal 0 0 1
    outer loop
      vertex 1.1667 16.1993 3
      vertex 3.54803 7.9601 3
      vertex 5.92918 7.9601 3
    endloop
  endfacet
  facet normal 0 0 1
    outer loop
      vertex 3.54803 -2.99456 3
      vertex 11.1535 -17.3355 3
      vertex 14.5212 -13.9678 3
    endloop
  endfacet
  facet normal 0 -0 1
    outer loop
      vertex -1.21461 1.76804 3
      vertex 3.54803 7.9601 3
      vertex -1.21462 7.96005 3
    endloop
  endfacet
  facet normal 0 0 1
    outer loop
      vertex -1.21461 1.76804 3
      vertex 11.1535 -17.3355 3
      vertex 3.54803 -2.99456 3
    endloop
  endfacet
  facet normal -0 0 1
    outer loop
      vertex -17.3287 11.1467 3
      vertex -1.21461 1.76804 3
      vertex -13.961 14.5144 3
    endloop
  endfacet
  facet normal 0 0 1
    outer loop
      vertex -1.21461 1.76804 3
      vertex -17.3287 11.1467 3
      vertex 11.1535 -17.3355 3
    endloop
  endfacet
  facet normal 0 0 1
    outer loop
      vertex 3.54803 7.9601 3
      vertex -1.21461 1.76804 3
      vertex 3.54803 -2.99456 3
    endloop
  endfacet
  facet normal 0 -0 1
    outer loop
      vertex -1.21462 7.96005 3
      vertex 1.1667 16.1993 3
      vertex -3.59594 7.95993 3
    endloop
  endfacet
  facet normal 0 -1 0
    outer loop
      vertex 3.54803 7.9601 1.5
      vertex 5.92918 7.9601 3
      vertex 3.54803 7.9601 3
    endloop
  endfacet
  facet normal 0 -1 -0
    outer loop
      vertex 5.92918 7.9601 3
      vertex 3.54803 7.9601 1.5
      vertex 5.92918 7.9601 1.5
    endloop
  endfacet
  facet normal 1 -0 0
    outer loop
      vertex 3.54803 -2.99456 3
      vertex 3.54803 7.9601 1.5
      vertex 3.54803 7.9601 3
    endloop
  endfacet
  facet normal 1 0 0
    outer loop
      vertex 3.54803 7.9601 1.5
      vertex 3.54803 -2.99456 3
      vertex 3.54803 -2.99456 1.5
    endloop
  endfacet
  facet normal 0.707107 0.707107 0
    outer loop
      vertex 14.5212 -13.9678 3
      vertex 3.54803 -2.99456 1.5
      vertex 3.54803 -2.99456 3
    endloop
  endfacet
  facet normal 0.707107 0.707107 0
    outer loop
      vertex 3.54803 -2.99456 1.5
      vertex 14.5212 -13.9678 3
      vertex 14.5212 -13.9678 1.5
    endloop
  endfacet
  facet normal 0.707107 -0.707107 0
    outer loop
      vertex 11.1535 -17.3355 3
      vertex 14.5212 -13.9678 1.5
      vertex 14.5212 -13.9678 3
    endloop
  endfacet
  facet normal 0.707107 -0.707107 0
    outer loop
      vertex 14.5212 -13.9678 1.5
      vertex 11.1535 -17.3355 3
      vertex 11.1535 -17.3355 1.5
    endloop
  endfacet
  facet normal -0.707107 -0.707107 0
    outer loop
      vertex 11.1535 -17.3355 1.5
      vertex -17.3287 11.1467 3
      vertex -17.3287 11.1467 1.5
    endloop
  endfacet
  facet normal -0.707107 -0.707107 0
    outer loop
      vertex -17.3287 11.1467 3
      vertex 11.1535 -17.3355 1.5
      vertex 11.1535 -17.3355 3
    endloop
  endfacet
  facet normal -0.707107 0.707107 0
    outer loop
      vertex -17.3287 11.1467 1.5
      vertex -13.961 14.5144 3
      vertex -13.961 14.5144 1.5
    endloop
  endfacet
  facet normal -0.707107 0.707107 0
    outer loop
      vertex -13.961 14.5144 3
      vertex -17.3287 11.1467 1.5
      vertex -17.3287 11.1467 3
    endloop
  endfacet
  facet normal 0.707107 0.707107 -0
    outer loop
      vertex -1.21461 1.76804 1.5
      vertex -13.961 14.5144 3
      vertex -1.21461 1.76804 3
    endloop
  endfacet
  facet normal 0.707107 0.707107 0
    outer loop
      vertex -13.961 14.5144 3
      vertex -1.21461 1.76804 1.5
      vertex -13.961 14.5144 1.5
    endloop
  endfacet
  facet normal -1 -7.70084e-07 0
    outer loop
      vertex -1.21461 1.76804 1.5
      vertex -1.21462 7.96005 3
      vertex -1.21462 7.96005 1.5
    endloop
  endfacet
  facet normal -1 -7.70084e-07 0
    outer loop
      vertex -1.21462 7.96005 3
      vertex -1.21461 1.76804 1.5
      vertex -1.21461 1.76804 3
    endloop
  endfacet
  facet normal 5.04607e-05 -1 0
    outer loop
      vertex -3.59594 7.95993 1.5
      vertex -1.21462 7.96005 3
      vertex -3.59594 7.95993 3
    endloop
  endfacet
  facet normal 5.04607e-05 -1 0
    outer loop
      vertex -1.21462 7.96005 3
      vertex -3.59594 7.95993 1.5
      vertex -1.21462 7.96005 1.5
    endloop
  endfacet
  facet normal -0.865769 0.500444 0
    outer loop
      vertex -3.59594 7.95993 1.5
      vertex 1.1667 16.1993 3
      vertex 1.1667 16.1993 1.5
    endloop
  endfacet
  facet normal -0.865769 0.500444 0
    outer loop
      vertex 1.1667 16.1993 3
      vertex -3.59594 7.95993 1.5
      vertex -3.59594 7.95993 3
    endloop
  endfacet
  facet normal 0.865771 0.50044 0
    outer loop
      vertex 5.92918 7.9601 3
      vertex 1.1667 16.1993 1.5
      vertex 1.1667 16.1993 3
    endloop
  endfacet
  facet normal 0.865771 0.50044 0
    outer loop
      vertex 1.1667 16.1993 1.5
      vertex 5.92918 7.9601 3
      vertex 5.92918 7.9601 1.5
    endloop
  endfacet
  facet normal -1 0.00064817 0
    outer loop
      vertex -24.9929 -24.9986 0
      vertex -24.9605 24.9825 1.5
      vertex -24.9605 24.9825 0
    endloop
  endfacet
  facet normal -1 0.00064817 0
    outer loop
      vertex -24.9605 24.9825 1.5
      vertex -24.9929 -24.9986 0
      vertex -24.9929 -24.9986 1.5
    endloop
  endfacet
  facet normal 0.000305712 -1 0
    outer loop
      vertex -24.9462 -25 0
      vertex 24.991 -24.9847 1.5
      vertex -24.9462 -25 1.5
    endloop
  endfacet
  facet normal 0.000305712 -1 0
    outer loop
      vertex 24.991 -24.9847 1.5
      vertex -24.9462 -25 0
      vertex 24.991 -24.9847 0
    endloop
  endfacet
  facet normal 1 -3.95705e-05 0
    outer loop
      vertex 24.991 -24.9847 1.5
      vertex 24.9929 25 0
      vertex 24.9929 25 1.5
    endloop
  endfacet
  facet normal 1 -3.95705e-05 0
    outer loop
      vertex 24.9929 25 0
      vertex 24.991 -24.9847 1.5
      vertex 24.991 -24.9847 0
    endloop
  endfacet
  facet normal -0.000349752 1 0
    outer loop
      vertex 24.9929 25 0
      vertex -24.9605 24.9825 1.5
      vertex 24.9929 25 1.5
    endloop
  endfacet
  facet normal -0.000349752 1 0
    outer loop
      vertex -24.9605 24.9825 1.5
      vertex 24.9929 25 0
      vertex -24.9605 24.9825 0
    endloop
  endfacet
  facet normal -0.0289255 -0.999582 0
    outer loop
      vertex -24.9929 -24.9986 0
      vertex -24.9462 -25 1.5
      vertex -24.9929 -24.9986 1.5
    endloop
  endfacet
  facet normal -0.0289255 -0.999582 -0
    outer loop
      vertex -24.9462 -25 1.5
      vertex -24.9929 -24.9986 0
      vertex -24.9462 -25 0
    endloop
  endfacet
  facet normal 0 0 1
    outer loop
      vertex 24.9929 25 1.5
      vertex 22.821 22.7877 1.5
      vertex 24.991 -24.9847 1.5
    endloop
  endfacet
  facet normal 0 0 1
    outer loop
      vertex 24.9929 25 1.5
      vertex -0.424307 22.818 1.5
      vertex 22.821 22.7877 1.5
    endloop
  endfacet
  facet normal -0 0 1
    outer loop
      vertex -24.9605 24.9825 1.5
      vertex -0.424307 22.818 1.5
      vertex 24.9929 25 1.5
    endloop
  endfacet
  facet normal 0 0 1
    outer loop
      vertex -24.9605 24.9825 1.5
      vertex -22.8251 -22.7713 1.5
      vertex -22.8039 22.8084 1.5
    endloop
  endfacet
  facet normal 0 0 1
    outer loop
      vertex -0.424307 22.818 1.5
      vertex -24.9605 24.9825 1.5
      vertex -22.8039 22.8084 1.5
    endloop
  endfacet
  facet normal 0 0 1
    outer loop
      vertex -22.8251 -22.7713 1.5
      vertex -24.9605 24.9825 1.5
      vertex -24.9929 -24.9986 1.5
    endloop
  endfacet
  facet normal 0 0 1
    outer loop
      vertex -22.8251 -22.7713 1.5
      vertex -24.9929 -24.9986 1.5
      vertex -24.9462 -25 1.5
    endloop
  endfacet
  facet normal -0 0 1
    outer loop
      vertex 22.8155 -22.8246 1.5
      vertex 24.991 -24.9847 1.5
      vertex 22.821 22.7877 1.5
    endloop
  endfacet
  facet normal -0 0 1
    outer loop
      vertex -22.7813 -22.8353 1.5
      vertex 24.991 -24.9847 1.5
      vertex 22.8155 -22.8246 1.5
    endloop
  endfacet
  facet normal 0 0 1
    outer loop
      vertex -24.9462 -25 1.5
      vertex -22.7813 -22.8353 1.5
      vertex -22.8249 -22.8336 1.5
    endloop
  endfacet
  facet normal 0 0 1
    outer loop
      vertex -22.7813 -22.8353 1.5
      vertex -24.9462 -25 1.5
      vertex 24.991 -24.9847 1.5
    endloop
  endfacet
  facet normal 0 0 1
    outer loop
      vertex -24.9462 -25 1.5
      vertex -22.8249 -22.8336 1.5
      vertex -22.8251 -22.7713 1.5
    endloop
  endfacet
  facet normal 0 0 1
    outer loop
      vertex 20.2212 20.2179 1.5
      vertex 14.5212 -13.9678 1.5
      vertex 20.2035 -20.228 1.5
    endloop
  endfacet
  facet normal 0 0 1
    outer loop
      vertex 20.2212 20.2179 1.5
      vertex 5.92918 7.9601 1.5
      vertex 14.5212 -13.9678 1.5
    endloop
  endfacet
  facet normal 0 0 1
    outer loop
      vertex 20.2212 20.2179 1.5
      vertex 1.1667 16.1993 1.5
      vertex 5.92918 7.9601 1.5
    endloop
  endfacet
  facet normal 0 0 1
    outer loop
      vertex 1.1667 16.1993 1.5
      vertex -13.961 14.5144 1.5
      vertex -3.59594 7.95993 1.5
    endloop
  endfacet
  facet normal -0 0 1
    outer loop
      vertex -20.2242 20.2077 1.5
      vertex 1.1667 16.1993 1.5
      vertex 20.2212 20.2179 1.5
    endloop
  endfacet
  facet normal 0 0 1
    outer loop
      vertex -13.961 14.5144 1.5
      vertex -20.2242 20.2077 1.5
      vertex -17.3287 11.1467 1.5
    endloop
  endfacet
  facet normal 0 0 1
    outer loop
      vertex 1.1667 16.1993 1.5
      vertex -20.2242 20.2077 1.5
      vertex -13.961 14.5144 1.5
    endloop
  endfacet
  facet normal -0 0 1
    outer loop
      vertex 11.1535 -17.3355 1.5
      vertex 20.2035 -20.228 1.5
      vertex 14.5212 -13.9678 1.5
    endloop
  endfacet
  facet normal 0 0 1
    outer loop
      vertex 11.1535 -17.3355 1.5
      vertex -20.2306 -20.228 1.5
      vertex 20.2035 -20.228 1.5
    endloop
  endfacet
  facet normal 0 0 1
    outer loop
      vertex -17.3287 11.1467 1.5
      vertex -20.2306 -20.228 1.5
      vertex 11.1535 -17.3355 1.5
    endloop
  endfacet
  facet normal 0 0 1
    outer loop
      vertex -20.2306 -20.228 1.5
      vertex -17.3287 11.1467 1.5
      vertex -20.2242 20.2077 1.5
    endloop
  endfacet
  facet normal 0 0 1
    outer loop
      vertex 3.54803 -2.99456 1.5
      vertex 5.92918 7.9601 1.5
      vertex 3.54803 7.9601 1.5
    endloop
  endfacet
  facet normal 0 0 1
    outer loop
      vertex 5.92918 7.9601 1.5
      vertex 3.54803 -2.99456 1.5
      vertex 14.5212 -13.9678 1.5
    endloop
  endfacet
  facet normal -0 0 1
    outer loop
      vertex -3.59594 7.95993 1.5
      vertex -1.21461 1.76804 1.5
      vertex -1.21462 7.96005 1.5
    endloop
  endfacet
  facet normal 0 0 1
    outer loop
      vertex -1.21461 1.76804 1.5
      vertex -3.59594 7.95993 1.5
      vertex -13.961 14.5144 1.5
    endloop
  endfacet
endsolid OpenSCAD_Model
