<?xml version="1.0" encoding="UTF-8" standalone="no"?>
<!-- Created with Inkscape (http://www.inkscape.org/) -->

<svg
   xmlns:dc="http://purl.org/dc/elements/1.1/"
   xmlns:cc="http://creativecommons.org/ns#"
   xmlns:rdf="http://www.w3.org/1999/02/22-rdf-syntax-ns#"
   xmlns:svg="http://www.w3.org/2000/svg"
   xmlns="http://www.w3.org/2000/svg"
   xmlns:sodipodi="http://sodipodi.sourceforge.net/DTD/sodipodi-0.dtd"
   xmlns:inkscape="http://www.inkscape.org/namespaces/inkscape"
   width="50.025795mm"
   height="50mm"
   viewBox="0 0 177.25674 177.16536"
   id="svg5501"
   version="1.1"
   inkscape:version="0.91 r13725"
   sodipodi:docname="mgtow_round_5cm.svg">
  <defs
     id="defs5503" />
  <sodipodi:namedview
     id="base"
     pagecolor="#ffffff"
     bordercolor="#666666"
     borderopacity="1.0"
     inkscape:pageopacity="0.0"
     inkscape:pageshadow="2"
     inkscape:zoom="0.7"
     inkscape:cx="-281.35346"
     inkscape:cy="156.76059"
     inkscape:document-units="mm"
     inkscape:current-layer="layer1"
     showgrid="false"
     fit-margin-top="0"
     fit-margin-left="0"
     fit-margin-right="0"
     fit-margin-bottom="0"
     inkscape:window-width="1920"
     inkscape:window-height="999"
     inkscape:window-x="0"
     inkscape:window-y="26"
     inkscape:window-maximized="1" />
  <metadata
     id="metadata5506">
    <rdf:RDF>
      <cc:Work
         rdf:about="">
        <dc:format>image/svg+xml</dc:format>
        <dc:type
           rdf:resource="http://purl.org/dc/dcmitype/StillImage" />
        <dc:title></dc:title>
        <cc:license
           rdf:resource="http://creativecommons.org/licenses/by-sa/3.0/" />
      </cc:Work>
      <cc:License
         rdf:about="http://creativecommons.org/licenses/by-sa/3.0/">
        <cc:permits
           rdf:resource="http://creativecommons.org/ns#Reproduction" />
        <cc:permits
           rdf:resource="http://creativecommons.org/ns#Distribution" />
        <cc:requires
           rdf:resource="http://creativecommons.org/ns#Notice" />
        <cc:requires
           rdf:resource="http://creativecommons.org/ns#Attribution" />
        <cc:permits
           rdf:resource="http://creativecommons.org/ns#DerivativeWorks" />
        <cc:requires
           rdf:resource="http://creativecommons.org/ns#ShareAlike" />
      </cc:License>
    </rdf:RDF>
  </metadata>
  <g
     inkscape:label="Vrstva 1"
     inkscape:groupmode="layer"
     id="layer1"
     transform="translate(-283.90498,-382.61489)">
    <path
       style="color:#000000;font-style:normal;font-variant:normal;font-weight:normal;font-stretch:normal;font-size:medium;line-height:normal;font-family:sans-serif;text-indent:0;text-align:start;text-decoration:none;text-decoration-line:none;text-decoration-style:solid;text-decoration-color:#000000;letter-spacing:normal;word-spacing:normal;text-transform:none;direction:ltr;block-progression:tb;writing-mode:lr-tb;baseline-shift:baseline;text-anchor:start;white-space:normal;clip-rule:nonzero;display:inline;overflow:visible;visibility:visible;opacity:1;isolation:auto;mix-blend-mode:normal;color-interpolation:sRGB;color-interpolation-filters:linearRGB;solid-color:#000000;solid-opacity:1;fill:#ffcc00;fill-opacity:1;fill-rule:nonzero;stroke:none;stroke-width:56.69291306;stroke-linecap:round;stroke-linejoin:miter;stroke-miterlimit:4;stroke-dasharray:0.16993565, 0.3398713;stroke-dashoffset:0;stroke-opacity:1;color-rendering:auto;image-rendering:auto;shape-rendering:auto;text-rendering:auto;enable-background:accumulate"
       d="m 283.97339,532.71535 c -0.26065,12.93152 10.07634,24.9353 22.89272,26.63743 43.19981,0.64812 90.43953,0.41248 129.10363,0.23784 12.97177,-0.65293 24.27441,-11.91292 24.96151,-24.88593 -0.3476,-45.45202 0.71001,-85.80265 -0.0532,-127.53377 -0.89567,-12.91118 -12.28098,-23.93872 -25.20125,-24.4764 -41.9134,-0.11861 -83.8282,-0.0744 -125.74074,-0.0571 -12.95795,0.20932 -24.61556,11.01664 -25.80302,23.92374 -0.34562,42.24515 -0.20905,87.68738 -0.1596,126.15418 z"
       id="bg_1_5_mm"
       inkscape:connector-curvature="0"
       sodipodi:nodetypes="ccccccccc"
       inkscape:label="#rect4159" />
    <path
       inkscape:connector-curvature="0"
       style="color:#000000;font-style:normal;font-variant:normal;font-weight:normal;font-stretch:normal;font-size:medium;line-height:normal;font-family:sans-serif;text-indent:0;text-align:start;text-decoration:none;text-decoration-line:none;text-decoration-style:solid;text-decoration-color:#000000;letter-spacing:normal;word-spacing:normal;text-transform:none;direction:ltr;block-progression:tb;writing-mode:lr-tb;baseline-shift:baseline;text-anchor:start;white-space:normal;clip-rule:nonzero;display:inline;overflow:visible;visibility:visible;opacity:1;isolation:auto;mix-blend-mode:normal;color-interpolation:sRGB;color-interpolation-filters:linearRGB;solid-color:#000000;solid-opacity:1;fill:#000000;fill-opacity:1;fill-rule:nonzero;stroke:none;stroke-width:21.25984192;stroke-linecap:round;stroke-linejoin:miter;stroke-miterlimit:4;stroke-dasharray:0.16993565, 0.3398713;stroke-dashoffset:0;stroke-opacity:1;color-rendering:auto;image-rendering:auto;shape-rendering:auto;text-rendering:auto;enable-background:accumulate"
       d="m 434.5885,390.23596 c -0.30976,-0.003 -0.62028,0.002 -0.93164,0.0156 -41.33462,0.038 -82.66723,-0.0747 -124.00098,0.082 -4.67682,0.18812 -9.0216,2.31966 -12.27344,5.55762 -3.68542,3.66968 -5.96704,8.75998 -5.73828,14.05371 -0.006,40.91941 -0.0177,81.84167 0.004,122.75684 -0.25446,10.04395 8.53137,19.14902 18.57519,19.25781 41.70167,0.0194 83.40126,0.0647 125.10352,-0.0254 9.93105,-0.41185 18.38056,-9.564 18.0166,-19.49121 -0.0321,-41.40724 0.0893,-82.82376 -0.0283,-124.23243 -0.41188,-9.66515 -9.12399,-17.87951 -18.72657,-17.9746 z m -123.46778,9.16211 c 0.40485,-0.002 0.81102,0.0221 1.2168,0.0723 40.92024,0.0478 81.84413,-0.0828 122.75879,0.0469 5.60449,0.41195 9.79115,6.01779 9.06738,11.50782 -0.0412,40.88372 0.0475,81.77357 -0.0693,122.64941 -0.38238,5.60548 -5.97737,9.81815 -11.46778,9.1084 -40.90472,-0.0279 -81.83548,0.0688 -122.72461,-0.0468 -5.13472,-0.44804 -9.2689,-5.13612 -9.05762,-10.29297 0.0275,-41.29206 -0.0697,-82.58917 0.0488,-123.87891 0.1621,-2.27465 1.1785,-4.31375 2.69532,-5.88769 1.93977,-2.01283 4.69826,-3.26567 7.53222,-3.27832 z"
       id="fg_border_3_mm"
       inkscape:label="#path6095" />
    <path
       inkscape:connector-curvature="0"
       style="color:#000000;font-style:normal;font-variant:normal;font-weight:normal;font-stretch:normal;font-size:medium;line-height:normal;font-family:sans-serif;text-indent:0;text-align:start;text-decoration:none;text-decoration-line:none;text-decoration-style:solid;text-decoration-color:#000000;letter-spacing:normal;word-spacing:normal;text-transform:none;direction:ltr;block-progression:tb;writing-mode:lr-tb;baseline-shift:baseline;text-anchor:start;white-space:normal;clip-rule:nonzero;display:inline;overflow:visible;visibility:visible;opacity:1;isolation:auto;mix-blend-mode:normal;color-interpolation:sRGB;color-interpolation-filters:linearRGB;solid-color:#000000;solid-opacity:1;fill:#000000;fill-opacity:1;fill-rule:nonzero;stroke:none;stroke-width:21.25984192;stroke-linecap:round;stroke-linejoin:miter;stroke-miterlimit:4;stroke-dasharray:0.16993565, 0.3398713;stroke-dashoffset:0;stroke-opacity:1;color-rendering:auto;image-rendering:auto;shape-rendering:auto;text-rendering:auto;enable-background:accumulate"
       d="m 311.12786,431.55664 100.93794,100.93794 11.93478,-11.93479 -32.65142,-32.65141 c -2.09952,-5.95674 -3.66969,-10.92862 -3.50161,-16.46027 0.1342,-4.41638 1.30172,-9.56771 4.92559,-16.27308 l 6.43327,4.57094 3.15236,-33.579 -30.67066,14.02798 7.26816,5.1642 c -4.63959,8.1633 -7.04009,15.57679 -7.75558,22.40075 l -48.13805,-48.13804 -11.93478,11.93478 z"
       id="fg_arrow_3_mm"
       inkscape:label="#rect4163" />
    <g
       transform="matrix(0.61240837,-0.61240837,0.61240837,0.61240837,-238.63658,809.18737)"
       id="g6972" />
  </g>
</svg>
