solid OpenSCAD_Model
  facet normal 0 0 -1
    outer loop
      vertex 24.2804 -20.536 0
      vertex 24.9482 -17.9199 0
      vertex 24.7399 -19.2654 0
    endloop
  endfacet
  facet normal -0 0 -1
    outer loop
      vertex 24.9482 -17.9199 0
      vertex 17.9035 -24.9433 0
      vertex 24.9347 -8.54063 0
    endloop
  endfacet
  facet normal 0 0 -1
    outer loop
      vertex -25.0126 0.0433731 0
      vertex 24.9347 -8.54063 0
      vertex 0.165532 -24.9968 0
    endloop
  endfacet
  facet normal 0 0 -1
    outer loop
      vertex 23.5992 -21.7025 0
      vertex 24.9482 -17.9199 0
      vertex 24.2804 -20.536 0
    endloop
  endfacet
  facet normal 0 0 -1
    outer loop
      vertex 24.9347 -8.54063 0
      vertex 17.8208 24.9807 0
      vertex 24.9331 18.0729 0
    endloop
  endfacet
  facet normal 0 0 -1
    outer loop
      vertex 24.9482 -17.9199 0
      vertex 23.5992 -21.7025 0
      vertex 17.9035 -24.9433 0
    endloop
  endfacet
  facet normal -0 -0 -1
    outer loop
      vertex 23.5331 21.8199 0
      vertex 24.9331 18.0729 0
      vertex 17.8208 24.9807 0
    endloop
  endfacet
  facet normal 0 0 -1
    outer loop
      vertex 17.9035 -24.9433 0
      vertex 23.5992 -21.7025 0
      vertex 22.7259 -22.7355 0
    endloop
  endfacet
  facet normal 0 0 -1
    outer loop
      vertex 24.9347 -8.54063 0
      vertex 17.9035 -24.9433 0
      vertex 0.165532 -24.9968 0
    endloop
  endfacet
  facet normal 0 0 -1
    outer loop
      vertex 17.9035 -24.9433 0
      vertex 22.7259 -22.7355 0
      vertex 21.6901 -23.6055 0
    endloop
  endfacet
  facet normal 0 0 -1
    outer loop
      vertex 24.9331 18.0729 0
      vertex 24.228 20.6682 0
      vertex 24.7045 19.4097 0
    endloop
  endfacet
  facet normal 0 0 -1
    outer loop
      vertex 17.9035 -24.9433 0
      vertex 21.6901 -23.6055 0
      vertex 20.5214 -24.283 0
    endloop
  endfacet
  facet normal 0 0 -1
    outer loop
      vertex 23.5331 21.8199 0
      vertex 17.8208 24.9807 0
      vertex 22.6496 22.8363 0
    endloop
  endfacet
  facet normal 0 0 -1
    outer loop
      vertex 17.9035 -24.9433 0
      vertex 20.5214 -24.283 0
      vertex 19.2493 -24.7388 0
    endloop
  endfacet
  facet normal 0 0 -1
    outer loop
      vertex 22.6496 22.8363 0
      vertex 17.8208 24.9807 0
      vertex 21.6069 23.6891 0
    endloop
  endfacet
  facet normal 0 0 -1
    outer loop
      vertex 21.6069 23.6891 0
      vertex 17.8208 24.9807 0
      vertex 20.4349 24.3498 0
    endloop
  endfacet
  facet normal 0 0 -1
    outer loop
      vertex 20.4349 24.3498 0
      vertex 17.8208 24.9807 0
      vertex 19.1629 24.7898 0
    endloop
  endfacet
  facet normal 0 0 -1
    outer loop
      vertex 24.9331 18.0729 0
      vertex 23.5331 21.8199 0
      vertex 24.228 20.6682 0
    endloop
  endfacet
  facet normal 0 0 -1
    outer loop
      vertex 24.9347 -8.54063 0
      vertex -25.0126 0.0433731 0
      vertex 17.8208 24.9807 0
    endloop
  endfacet
  facet normal 0 0 -1
    outer loop
      vertex -24.9933 -17.3585 0
      vertex 0.165532 -24.9968 0
      vertex -18.5324 -24.8762 0
    endloop
  endfacet
  facet normal -0 0 -1
    outer loop
      vertex 17.8208 24.9807 0
      vertex -25.0126 0.0433731 0
      vertex -17.666 24.9968 0
    endloop
  endfacet
  facet normal 0 0 -1
    outer loop
      vertex -21.0782 -24.0121 0
      vertex -18.5324 -24.8762 0
      vertex -19.8516 -24.5649 0
    endloop
  endfacet
  facet normal 0 -0 -1
    outer loop
      vertex -24.9482 18.245 0
      vertex -17.666 24.9968 0
      vertex -25.0126 0.0433731 0
    endloop
  endfacet
  facet normal 0 0 -1
    outer loop
      vertex -22.1856 -23.2487 0
      vertex -18.5324 -24.8762 0
      vertex -21.0782 -24.0121 0
    endloop
  endfacet
  facet normal 0 -0 -1
    outer loop
      vertex -21.4889 23.795 0
      vertex -17.666 24.9968 0
      vertex -24.9482 18.245 0
    endloop
  endfacet
  facet normal 0 0 -1
    outer loop
      vertex -18.5324 -24.8762 0
      vertex -22.1856 -23.2487 0
      vertex -24.9933 -17.3585 0
    endloop
  endfacet
  facet normal 0 0 -1
    outer loop
      vertex -17.666 24.9968 0
      vertex -20.2996 24.4292 0
      vertex -19.0152 24.8391 0
    endloop
  endfacet
  facet normal 0 0 -1
    outer loop
      vertex -24.9933 -17.3585 0
      vertex -22.1856 -23.2487 0
      vertex -23.1468 -22.3058 0
    endloop
  endfacet
  facet normal 0 0 -1
    outer loop
      vertex -17.666 24.9968 0
      vertex -21.4889 23.795 0
      vertex -20.2996 24.4292 0
    endloop
  endfacet
  facet normal 0 0 -1
    outer loop
      vertex -24.9933 -17.3585 0
      vertex -23.1468 -22.3058 0
      vertex -23.9351 -21.2143 0
    endloop
  endfacet
  facet normal 0 0 -1
    outer loop
      vertex -21.4889 23.795 0
      vertex -24.9482 18.245 0
      vertex -22.5528 22.9648 0
    endloop
  endfacet
  facet normal 0 0 -1
    outer loop
      vertex -24.9933 -17.3585 0
      vertex -23.9351 -21.2143 0
      vertex -24.5235 -20.0053 0
    endloop
  endfacet
  facet normal 0 0 -1
    outer loop
      vertex -22.5528 22.9648 0
      vertex -24.9482 18.245 0
      vertex -23.4611 21.9665 0
    endloop
  endfacet
  facet normal 0 0 -1
    outer loop
      vertex -24.9933 -17.3585 0
      vertex -24.5235 -20.0053 0
      vertex -24.8851 -18.7097 0
    endloop
  endfacet
  facet normal 0 0 -1
    outer loop
      vertex -23.4611 21.9665 0
      vertex -24.9482 18.245 0
      vertex -24.1833 20.8284 0
    endloop
  endfacet
  facet normal 0 0 -1
    outer loop
      vertex 0.165532 -24.9968 0
      vertex -24.9933 -17.3585 0
      vertex -25.0126 0.0433731 0
    endloop
  endfacet
  facet normal 0 0 -1
    outer loop
      vertex -24.1833 20.8284 0
      vertex -24.9482 18.245 0
      vertex -24.6891 19.5785 0
    endloop
  endfacet
  facet normal 0 0 -1
    outer loop
      vertex 24.9347 -8.54063 0
      vertex 25.0126 9.2843 0
      vertex 24.9846 0.470277 0
    endloop
  endfacet
  facet normal -0 0 -1
    outer loop
      vertex 25.0126 9.2843 0
      vertex 24.9347 -8.54063 0
      vertex 24.9331 18.0729 0
    endloop
  endfacet
  facet normal 0 0 1
    outer loop
      vertex 22.6494 18.7795 3
      vertex 20.1247 18.13 3
      vertex 20.2295 17.5648 3
    endloop
  endfacet
  facet normal 0 0 1
    outer loop
      vertex 21.1289 21.3288 3
      vertex 19.9131 18.663 3
      vertex 20.1247 18.13 3
    endloop
  endfacet
  facet normal 0 0 1
    outer loop
      vertex 21.1289 21.3288 3
      vertex 19.6062 19.1465 3
      vertex 19.9131 18.663 3
    endloop
  endfacet
  facet normal 0 0 1
    outer loop
      vertex 18.7528 19.8943 3
      vertex 20.3462 21.9547 3
      vertex 19.4664 22.432 3
    endloop
  endfacet
  facet normal 0 0 1
    outer loop
      vertex 21.1289 21.3288 3
      vertex 19.2156 19.5628 3
      vertex 19.6062 19.1465 3
    endloop
  endfacet
  facet normal 0 0 1
    outer loop
      vertex 20.3462 21.9547 3
      vertex 18.7528 19.8943 3
      vertex 19.2156 19.5628 3
    endloop
  endfacet
  facet normal 0 0 1
    outer loop
      vertex 18.2294 20.1236 3
      vertex 19.4664 22.432 3
      vertex 18.5141 22.7385 3
    endloop
  endfacet
  facet normal 0 0 1
    outer loop
      vertex 19.4664 22.432 3
      vertex 18.2294 20.1236 3
      vertex 18.7528 19.8943 3
    endloop
  endfacet
  facet normal 0 0 1
    outer loop
      vertex 18.5141 22.7385 3
      vertex 17.657 20.2329 3
      vertex 18.2294 20.1236 3
    endloop
  endfacet
  facet normal 0 0 1
    outer loop
      vertex 17.5137 22.8523 3
      vertex 17.657 20.2329 3
      vertex 18.5141 22.7385 3
    endloop
  endfacet
  facet normal -0 0 1
    outer loop
      vertex 17.2507 22.8479 3
      vertex 17.657 20.2329 3
      vertex 17.5137 22.8523 3
    endloop
  endfacet
  facet normal 0 0 1
    outer loop
      vertex 17.2507 22.8479 3
      vertex -16.9883 20.2462 3
      vertex 17.657 20.2329 3
    endloop
  endfacet
  facet normal -0 0 1
    outer loop
      vertex -17.7451 22.8248 3
      vertex -16.9883 20.2462 3
      vertex 17.2507 22.8479 3
    endloop
  endfacet
  facet normal 0 0 1
    outer loop
      vertex -16.9883 20.2462 3
      vertex -17.7451 22.8248 3
      vertex -17.3317 20.2666 3
    endloop
  endfacet
  facet normal 0 0 1
    outer loop
      vertex -17.7451 22.8248 3
      vertex -17.9243 20.2004 3
      vertex -17.3317 20.2666 3
    endloop
  endfacet
  facet normal -0 0 1
    outer loop
      vertex -18.7141 22.6858 3
      vertex -17.9243 20.2004 3
      vertex -17.7451 22.8248 3
    endloop
  endfacet
  facet normal 0 0 1
    outer loop
      vertex -17.9243 20.2004 3
      vertex -18.7141 22.6858 3
      vertex -18.4892 20.0157 3
    endloop
  endfacet
  facet normal -0 0 1
    outer loop
      vertex -19.6278 22.3633 3
      vertex -18.4892 20.0157 3
      vertex -18.7141 22.6858 3
    endloop
  endfacet
  facet normal 0 0 1
    outer loop
      vertex -18.4892 20.0157 3
      vertex -19.6278 22.3633 3
      vertex -19.0068 19.7251 3
    endloop
  endfacet
  facet normal -0 0 1
    outer loop
      vertex -20.4662 21.8794 3
      vertex -19.0068 19.7251 3
      vertex -19.6278 22.3633 3
    endloop
  endfacet
  facet normal -0 0 1
    outer loop
      vertex -21.2089 21.2563 3
      vertex -19.0068 19.7251 3
      vertex -20.4662 21.8794 3
    endloop
  endfacet
  facet normal 0 0 1
    outer loop
      vertex -19.0068 19.7251 3
      vertex -21.2089 21.2563 3
      vertex -19.4575 19.3414 3
    endloop
  endfacet
  facet normal -0 0 1
    outer loop
      vertex -21.9099 20.4097 3
      vertex -19.4575 19.3414 3
      vertex -21.2089 21.2563 3
    endloop
  endfacet
  facet normal -0 0 1
    outer loop
      vertex -22.4329 19.445 3
      vertex -19.9812 18.5847 3
      vertex -21.9099 20.4097 3
    endloop
  endfacet
  facet normal 0 0 1
    outer loop
      vertex -19.4575 19.3414 3
      vertex -21.9099 20.4097 3
      vertex -19.9812 18.5847 3
    endloop
  endfacet
  facet normal -0 0 1
    outer loop
      vertex 20.216 16.9852 3
      vertex 22.8067 -17.2816 3
      vertex 22.7987 17.7795 3
    endloop
  endfacet
  facet normal 0 0 1
    outer loop
      vertex 20.2295 17.5648 3
      vertex 22.7987 17.7795 3
      vertex 22.6494 18.7795 3
    endloop
  endfacet
  facet normal 0 0 1
    outer loop
      vertex 20.1964 -17.6292 3
      vertex 22.8067 -17.2816 3
      vertex 20.216 16.9852 3
    endloop
  endfacet
  facet normal 0 0 1
    outer loop
      vertex 20.1247 18.13 3
      vertex 22.6494 18.7795 3
      vertex 22.305 19.7191 3
    endloop
  endfacet
  facet normal 0 0 1
    outer loop
      vertex 22.8067 -17.2816 3
      vertex 20.1964 -17.6292 3
      vertex 22.7327 -18.3176 3
    endloop
  endfacet
  facet normal 0 0 1
    outer loop
      vertex 20.1247 18.13 3
      vertex 22.305 19.7191 3
      vertex 21.79 20.5762 3
    endloop
  endfacet
  facet normal -0 0 1
    outer loop
      vertex 20.0899 -18.2021 3
      vertex 22.7327 -18.3176 3
      vertex 20.1964 -17.6292 3
    endloop
  endfacet
  facet normal 0 0 1
    outer loop
      vertex 20.1247 18.13 3
      vertex 21.79 20.5762 3
      vertex 21.1289 21.3288 3
    endloop
  endfacet
  facet normal 0 0 1
    outer loop
      vertex 22.7327 -18.3176 3
      vertex 20.0899 -18.2021 3
      vertex 22.4497 -19.3068 3
    endloop
  endfacet
  facet normal 0 0 1
    outer loop
      vertex 19.2156 19.5628 3
      vertex 21.1289 21.3288 3
      vertex 20.3462 21.9547 3
    endloop
  endfacet
  facet normal 0 0 1
    outer loop
      vertex 22.7987 17.7795 3
      vertex 20.2295 17.5648 3
      vertex 20.216 16.9852 3
    endloop
  endfacet
  facet normal -0 0 1
    outer loop
      vertex 19.8631 -18.7264 3
      vertex 22.4497 -19.3068 3
      vertex 20.0899 -18.2021 3
    endloop
  endfacet
  facet normal 0 0 1
    outer loop
      vertex 22.4497 -19.3068 3
      vertex 19.8631 -18.7264 3
      vertex 21.982 -20.2227 3
    endloop
  endfacet
  facet normal -0 0 1
    outer loop
      vertex 19.5335 -19.1906 3
      vertex 21.982 -20.2227 3
      vertex 19.8631 -18.7264 3
    endloop
  endfacet
  facet normal 0 0 1
    outer loop
      vertex 21.982 -20.2227 3
      vertex 19.5335 -19.1906 3
      vertex 21.3539 -21.0391 3
    endloop
  endfacet
  facet normal -0 0 1
    outer loop
      vertex 19.1188 -19.5829 3
      vertex 21.3539 -21.0391 3
      vertex 19.5335 -19.1906 3
    endloop
  endfacet
  facet normal 0 0 1
    outer loop
      vertex 21.3539 -21.0391 3
      vertex 19.1188 -19.5829 3
      vertex 20.5896 -21.7296 3
    endloop
  endfacet
  facet normal -0 0 1
    outer loop
      vertex 18.6365 -19.8916 3
      vertex 20.5896 -21.7296 3
      vertex 19.1188 -19.5829 3
    endloop
  endfacet
  facet normal 0 0 1
    outer loop
      vertex 20.5896 -21.7296 3
      vertex 18.6365 -19.8916 3
      vertex 19.7134 -22.2679 3
    endloop
  endfacet
  facet normal -0 0 1
    outer loop
      vertex 18.1042 -20.1051 3
      vertex 19.7134 -22.2679 3
      vertex 18.6365 -19.8916 3
    endloop
  endfacet
  facet normal 0 0 1
    outer loop
      vertex 19.7134 -22.2679 3
      vertex 18.1042 -20.1051 3
      vertex 18.7494 -22.6277 3
    endloop
  endfacet
  facet normal -0 0 1
    outer loop
      vertex 17.5395 -20.2117 3
      vertex 18.7494 -22.6277 3
      vertex 18.1042 -20.1051 3
    endloop
  endfacet
  facet normal 0 0 1
    outer loop
      vertex 18.7494 -22.6277 3
      vertex 17.5395 -20.2117 3
      vertex 17.722 -22.7825 3
    endloop
  endfacet
  facet normal 0 0 1
    outer loop
      vertex 16.96 -20.1998 3
      vertex 17.722 -22.7825 3
      vertex 17.5395 -20.2117 3
    endloop
  endfacet
  facet normal 0 0 1
    outer loop
      vertex 16.96 -20.1998 3
      vertex -17.585 -22.7899 3
      vertex 17.722 -22.7825 3
    endloop
  endfacet
  facet normal 0 0 1
    outer loop
      vertex -17.6756 -20.1866 3
      vertex -17.585 -22.7899 3
      vertex 16.96 -20.1998 3
    endloop
  endfacet
  facet normal 0 0 1
    outer loop
      vertex -18.627 -22.6638 3
      vertex -17.6756 -20.1866 3
      vertex -18.204 -20.0851 3
    endloop
  endfacet
  facet normal 0 0 1
    outer loop
      vertex -17.6756 -20.1866 3
      vertex -18.627 -22.6638 3
      vertex -17.585 -22.7899 3
    endloop
  endfacet
  facet normal 0 0 1
    outer loop
      vertex -19.61 -22.3263 3
      vertex -18.204 -20.0851 3
      vertex -18.6948 -19.884 3
    endloop
  endfacet
  facet normal 0 0 1
    outer loop
      vertex -20.5083 -21.8041 3
      vertex -18.6948 -19.884 3
      vertex -19.137 -19.5956 3
    endloop
  endfacet
  facet normal 0 0 1
    outer loop
      vertex -21.296 -21.1238 3
      vertex -19.137 -19.5956 3
      vertex -19.5196 -19.2325 3
    endloop
  endfacet
  facet normal 0 0 1
    outer loop
      vertex -18.204 -20.0851 3
      vertex -19.61 -22.3263 3
      vertex -18.627 -22.6638 3
    endloop
  endfacet
  facet normal 0 0 1
    outer loop
      vertex -21.9475 -20.312 3
      vertex -19.5196 -19.2325 3
      vertex -19.8314 -18.807 3
    endloop
  endfacet
  facet normal 0 0 1
    outer loop
      vertex -22.4371 -19.3955 3
      vertex -19.8314 -18.807 3
      vertex -20.0614 -18.3318 3
    endloop
  endfacet
  facet normal 0 0 1
    outer loop
      vertex -22.7389 -18.4008 3
      vertex -20.0614 -18.3318 3
      vertex -20.1986 -17.8191 3
    endloop
  endfacet
  facet normal 0 0 1
    outer loop
      vertex -18.6948 -19.884 3
      vertex -20.5083 -21.8041 3
      vertex -19.61 -22.3263 3
    endloop
  endfacet
  facet normal -0 0 1
    outer loop
      vertex -22.8273 -17.3547 3
      vertex -20.1986 -17.8191 3
      vertex -20.2319 -17.2817 3
    endloop
  endfacet
  facet normal 0 0 1
    outer loop
      vertex -20.2181 17.6797 3
      vertex -22.8284 17.29 3
      vertex -20.2319 -17.2817 3
    endloop
  endfacet
  facet normal 0 0 1
    outer loop
      vertex -19.9812 18.5847 3
      vertex -22.4329 19.445 3
      vertex -20.1402 18.1477 3
    endloop
  endfacet
  facet normal 0 -0 1
    outer loop
      vertex -22.8273 -17.3547 3
      vertex -20.2319 -17.2817 3
      vertex -22.8284 17.29 3
    endloop
  endfacet
  facet normal -0 0 1
    outer loop
      vertex -22.7489 18.3944 3
      vertex -20.1402 18.1477 3
      vertex -22.4329 19.445 3
    endloop
  endfacet
  facet normal 0 0 1
    outer loop
      vertex -20.1986 -17.8191 3
      vertex -22.8273 -17.3547 3
      vertex -22.7389 -18.4008 3
    endloop
  endfacet
  facet normal 0 0 1
    outer loop
      vertex -20.1402 18.1477 3
      vertex -22.7489 18.3944 3
      vertex -20.2181 17.6797 3
    endloop
  endfacet
  facet normal 0 0 1
    outer loop
      vertex -19.137 -19.5956 3
      vertex -21.296 -21.1238 3
      vertex -20.5083 -21.8041 3
    endloop
  endfacet
  facet normal 0 0 1
    outer loop
      vertex -19.8314 -18.807 3
      vertex -22.4371 -19.3955 3
      vertex -21.9475 -20.312 3
    endloop
  endfacet
  facet normal 0 0 1
    outer loop
      vertex -20.2181 17.6797 3
      vertex -22.7489 18.3944 3
      vertex -22.8284 17.29 3
    endloop
  endfacet
  facet normal 0 0 1
    outer loop
      vertex -19.5196 -19.2325 3
      vertex -21.9475 -20.312 3
      vertex -21.296 -21.1238 3
    endloop
  endfacet
  facet normal 0 0 1
    outer loop
      vertex -20.0614 -18.3318 3
      vertex -22.7389 -18.4008 3
      vertex -22.4371 -19.3955 3
    endloop
  endfacet
  facet normal 0.306421 0.951896 -0
    outer loop
      vertex 19.4664 22.432 1.5
      vertex 18.5141 22.7385 3
      vertex 19.4664 22.432 3
    endloop
  endfacet
  facet normal 0.306421 0.951896 0
    outer loop
      vertex 18.5141 22.7385 3
      vertex 19.4664 22.432 1.5
      vertex 18.5141 22.7385 1.5
    endloop
  endfacet
  facet normal 0.476856 0.878981 -0
    outer loop
      vertex 20.3462 21.9547 1.5
      vertex 19.4664 22.432 3
      vertex 20.3462 21.9547 3
    endloop
  endfacet
  facet normal 0.476856 0.878981 0
    outer loop
      vertex 19.4664 22.432 3
      vertex 20.3462 21.9547 1.5
      vertex 19.4664 22.432 1.5
    endloop
  endfacet
  facet normal 0.624564 0.780974 -0
    outer loop
      vertex 21.1289 21.3288 1.5
      vertex 20.3462 21.9547 3
      vertex 21.1289 21.3288 3
    endloop
  endfacet
  facet normal 0.624564 0.780974 0
    outer loop
      vertex 20.3462 21.9547 3
      vertex 21.1289 21.3288 1.5
      vertex 20.3462 21.9547 1.5
    endloop
  endfacet
  facet normal 0.751274 0.65999 0
    outer loop
      vertex 21.79 20.5762 3
      vertex 21.1289 21.3288 1.5
      vertex 21.1289 21.3288 3
    endloop
  endfacet
  facet normal 0.751274 0.65999 0
    outer loop
      vertex 21.1289 21.3288 1.5
      vertex 21.79 20.5762 3
      vertex 21.79 20.5762 1.5
    endloop
  endfacet
  facet normal 0.857158 0.515053 0
    outer loop
      vertex 22.305 19.7191 3
      vertex 21.79 20.5762 1.5
      vertex 21.79 20.5762 3
    endloop
  endfacet
  facet normal 0.857158 0.515053 0
    outer loop
      vertex 21.79 20.5762 1.5
      vertex 22.305 19.7191 3
      vertex 22.305 19.7191 1.5
    endloop
  endfacet
  facet normal 0.938908 0.344168 0
    outer loop
      vertex 22.6494 18.7795 3
      vertex 22.305 19.7191 1.5
      vertex 22.305 19.7191 3
    endloop
  endfacet
  facet normal 0.938908 0.344168 0
    outer loop
      vertex 22.305 19.7191 1.5
      vertex 22.6494 18.7795 3
      vertex 22.6494 18.7795 1.5
    endloop
  endfacet
  facet normal 0.989037 0.14767 0
    outer loop
      vertex 22.7987 17.7795 3
      vertex 22.6494 18.7795 1.5
      vertex 22.6494 18.7795 3
    endloop
  endfacet
  facet normal 0.989037 0.14767 0
    outer loop
      vertex 22.6494 18.7795 1.5
      vertex 22.7987 17.7795 3
      vertex 22.7987 17.7795 1.5
    endloop
  endfacet
  facet normal 1 0.00022783 0
    outer loop
      vertex 22.8067 -17.2816 3
      vertex 22.7987 17.7795 1.5
      vertex 22.7987 17.7795 3
    endloop
  endfacet
  facet normal 1 0.00022783 0
    outer loop
      vertex 22.7987 17.7795 1.5
      vertex 22.8067 -17.2816 3
      vertex 22.8067 -17.2816 1.5
    endloop
  endfacet
  facet normal 0.997456 -0.071282 0
    outer loop
      vertex 22.7327 -18.3176 3
      vertex 22.8067 -17.2816 1.5
      vertex 22.8067 -17.2816 3
    endloop
  endfacet
  facet normal 0.997456 -0.071282 0
    outer loop
      vertex 22.8067 -17.2816 1.5
      vertex 22.7327 -18.3176 3
      vertex 22.7327 -18.3176 1.5
    endloop
  endfacet
  facet normal 0.96143 -0.275049 0
    outer loop
      vertex 22.4497 -19.3068 3
      vertex 22.7327 -18.3176 1.5
      vertex 22.7327 -18.3176 3
    endloop
  endfacet
  facet normal 0.96143 -0.275049 0
    outer loop
      vertex 22.7327 -18.3176 1.5
      vertex 22.4497 -19.3068 3
      vertex 22.4497 -19.3068 1.5
    endloop
  endfacet
  facet normal 0.890624 -0.454741 0
    outer loop
      vertex 21.982 -20.2227 3
      vertex 22.4497 -19.3068 1.5
      vertex 22.4497 -19.3068 3
    endloop
  endfacet
  facet normal 0.890624 -0.454741 0
    outer loop
      vertex 22.4497 -19.3068 1.5
      vertex 21.982 -20.2227 3
      vertex 21.982 -20.2227 1.5
    endloop
  endfacet
  facet normal 0.792575 -0.609774 0
    outer loop
      vertex 21.3539 -21.0391 3
      vertex 21.982 -20.2227 1.5
      vertex 21.982 -20.2227 3
    endloop
  endfacet
  facet normal 0.792575 -0.609774 0
    outer loop
      vertex 21.982 -20.2227 1.5
      vertex 21.3539 -21.0391 3
      vertex 21.3539 -21.0391 1.5
    endloop
  endfacet
  facet normal 0.670385 -0.742013 0
    outer loop
      vertex 20.5896 -21.7296 1.5
      vertex 21.3539 -21.0391 3
      vertex 20.5896 -21.7296 3
    endloop
  endfacet
  facet normal 0.670385 -0.742013 0
    outer loop
      vertex 21.3539 -21.0391 3
      vertex 20.5896 -21.7296 1.5
      vertex 21.3539 -21.0391 1.5
    endloop
  endfacet
  facet normal 0.523442 -0.852062 0
    outer loop
      vertex 19.7134 -22.2679 1.5
      vertex 20.5896 -21.7296 3
      vertex 19.7134 -22.2679 3
    endloop
  endfacet
  facet normal 0.523442 -0.852062 0
    outer loop
      vertex 20.5896 -21.7296 3
      vertex 19.7134 -22.2679 1.5
      vertex 20.5896 -21.7296 1.5
    endloop
  endfacet
  facet normal 0.349638 -0.936885 0
    outer loop
      vertex 18.7494 -22.6277 1.5
      vertex 19.7134 -22.2679 3
      vertex 18.7494 -22.6277 3
    endloop
  endfacet
  facet normal 0.349638 -0.936885 0
    outer loop
      vertex 19.7134 -22.2679 3
      vertex 18.7494 -22.6277 1.5
      vertex 19.7134 -22.2679 1.5
    endloop
  endfacet
  facet normal 0.149013 -0.988835 0
    outer loop
      vertex 17.722 -22.7825 1.5
      vertex 18.7494 -22.6277 3
      vertex 17.722 -22.7825 3
    endloop
  endfacet
  facet normal 0.149013 -0.988835 0
    outer loop
      vertex 18.7494 -22.6277 3
      vertex 17.722 -22.7825 1.5
      vertex 18.7494 -22.6277 1.5
    endloop
  endfacet
  facet normal 0.000210253 -1 0
    outer loop
      vertex -17.585 -22.7899 1.5
      vertex 17.722 -22.7825 3
      vertex -17.585 -22.7899 3
    endloop
  endfacet
  facet normal 0.000210253 -1 0
    outer loop
      vertex 17.722 -22.7825 3
      vertex -17.585 -22.7899 1.5
      vertex 17.722 -22.7825 1.5
    endloop
  endfacet
  facet normal -0.120135 -0.992758 0
    outer loop
      vertex -18.627 -22.6638 1.5
      vertex -17.585 -22.7899 3
      vertex -18.627 -22.6638 3
    endloop
  endfacet
  facet normal -0.120135 -0.992758 -0
    outer loop
      vertex -17.585 -22.7899 3
      vertex -18.627 -22.6638 1.5
      vertex -17.585 -22.7899 1.5
    endloop
  endfacet
  facet normal -0.32472 -0.94581 0
    outer loop
      vertex -19.61 -22.3263 1.5
      vertex -18.627 -22.6638 3
      vertex -19.61 -22.3263 3
    endloop
  endfacet
  facet normal -0.32472 -0.94581 -0
    outer loop
      vertex -18.627 -22.6638 3
      vertex -19.61 -22.3263 1.5
      vertex -18.627 -22.6638 1.5
    endloop
  endfacet
  facet normal -0.502622 -0.864507 0
    outer loop
      vertex -20.5083 -21.8041 1.5
      vertex -19.61 -22.3263 3
      vertex -20.5083 -21.8041 3
    endloop
  endfacet
  facet normal -0.502622 -0.864507 -0
    outer loop
      vertex -19.61 -22.3263 3
      vertex -20.5083 -21.8041 1.5
      vertex -19.61 -22.3263 1.5
    endloop
  endfacet
  facet normal -0.653614 -0.756828 0
    outer loop
      vertex -21.296 -21.1238 1.5
      vertex -20.5083 -21.8041 3
      vertex -21.296 -21.1238 3
    endloop
  endfacet
  facet normal -0.653614 -0.756828 -0
    outer loop
      vertex -20.5083 -21.8041 3
      vertex -21.296 -21.1238 1.5
      vertex -20.5083 -21.8041 1.5
    endloop
  endfacet
  facet normal -0.77988 -0.625929 0
    outer loop
      vertex -21.296 -21.1238 1.5
      vertex -21.9475 -20.312 3
      vertex -21.9475 -20.312 1.5
    endloop
  endfacet
  facet normal -0.77988 -0.625929 0
    outer loop
      vertex -21.9475 -20.312 3
      vertex -21.296 -21.1238 1.5
      vertex -21.296 -21.1238 3
    endloop
  endfacet
  facet normal -0.882064 -0.471129 0
    outer loop
      vertex -21.9475 -20.312 1.5
      vertex -22.4371 -19.3955 3
      vertex -22.4371 -19.3955 1.5
    endloop
  endfacet
  facet normal -0.882064 -0.471129 0
    outer loop
      vertex -22.4371 -19.3955 3
      vertex -21.9475 -20.312 1.5
      vertex -21.9475 -20.312 3
    endloop
  endfacet
  facet normal -0.956913 -0.290373 0
    outer loop
      vertex -22.4371 -19.3955 1.5
      vertex -22.7389 -18.4008 3
      vertex -22.7389 -18.4008 1.5
    endloop
  endfacet
  facet normal -0.956913 -0.290373 0
    outer loop
      vertex -22.7389 -18.4008 3
      vertex -22.4371 -19.3955 1.5
      vertex -22.4371 -19.3955 3
    endloop
  endfacet
  facet normal -0.996451 -0.0841794 0
    outer loop
      vertex -22.7389 -18.4008 1.5
      vertex -22.8273 -17.3547 3
      vertex -22.8273 -17.3547 1.5
    endloop
  endfacet
  facet normal -0.996451 -0.0841794 0
    outer loop
      vertex -22.8273 -17.3547 3
      vertex -22.7389 -18.4008 1.5
      vertex -22.7389 -18.4008 3
    endloop
  endfacet
  facet normal -1 -3.25372e-05 0
    outer loop
      vertex -22.8273 -17.3547 1.5
      vertex -22.8284 17.29 3
      vertex -22.8284 17.29 1.5
    endloop
  endfacet
  facet normal -1 -3.25372e-05 0
    outer loop
      vertex -22.8284 17.29 3
      vertex -22.8273 -17.3547 1.5
      vertex -22.8273 -17.3547 3
    endloop
  endfacet
  facet normal -0.997417 0.0718353 0
    outer loop
      vertex -22.8284 17.29 1.5
      vertex -22.7489 18.3944 3
      vertex -22.7489 18.3944 1.5
    endloop
  endfacet
  facet normal -0.997417 0.0718353 0
    outer loop
      vertex -22.7489 18.3944 3
      vertex -22.8284 17.29 1.5
      vertex -22.8284 17.29 3
    endloop
  endfacet
  facet normal -0.957637 0.287978 0
    outer loop
      vertex -22.7489 18.3944 1.5
      vertex -22.4329 19.445 3
      vertex -22.4329 19.445 1.5
    endloop
  endfacet
  facet normal -0.957637 0.287978 0
    outer loop
      vertex -22.4329 19.445 3
      vertex -22.7489 18.3944 1.5
      vertex -22.7489 18.3944 3
    endloop
  endfacet
  facet normal -0.879092 0.476652 0
    outer loop
      vertex -22.4329 19.445 1.5
      vertex -21.9099 20.4097 3
      vertex -21.9099 20.4097 1.5
    endloop
  endfacet
  facet normal -0.879092 0.476652 0
    outer loop
      vertex -21.9099 20.4097 3
      vertex -22.4329 19.445 1.5
      vertex -22.4329 19.445 3
    endloop
  endfacet
  facet normal -0.770252 0.63774 0
    outer loop
      vertex -21.9099 20.4097 1.5
      vertex -21.2089 21.2563 3
      vertex -21.2089 21.2563 1.5
    endloop
  endfacet
  facet normal -0.770252 0.63774 0
    outer loop
      vertex -21.2089 21.2563 3
      vertex -21.9099 20.4097 1.5
      vertex -21.9099 20.4097 3
    endloop
  endfacet
  facet normal -0.642701 0.766117 0
    outer loop
      vertex -20.4662 21.8794 1.5
      vertex -21.2089 21.2563 3
      vertex -20.4662 21.8794 3
    endloop
  endfacet
  facet normal -0.642701 0.766117 0
    outer loop
      vertex -21.2089 21.2563 3
      vertex -20.4662 21.8794 1.5
      vertex -21.2089 21.2563 1.5
    endloop
  endfacet
  facet normal -0.499912 0.866076 0
    outer loop
      vertex -19.6278 22.3633 1.5
      vertex -20.4662 21.8794 3
      vertex -19.6278 22.3633 3
    endloop
  endfacet
  facet normal -0.499912 0.866076 0
    outer loop
      vertex -20.4662 21.8794 3
      vertex -19.6278 22.3633 1.5
      vertex -20.4662 21.8794 1.5
    endloop
  endfacet
  facet normal -0.332827 0.942988 0
    outer loop
      vertex -18.7141 22.6858 1.5
      vertex -19.6278 22.3633 3
      vertex -18.7141 22.6858 3
    endloop
  endfacet
  facet normal -0.332827 0.942988 0
    outer loop
      vertex -19.6278 22.3633 3
      vertex -18.7141 22.6858 1.5
      vertex -19.6278 22.3633 1.5
    endloop
  endfacet
  facet normal -0.141959 0.989873 0
    outer loop
      vertex -17.7451 22.8248 1.5
      vertex -18.7141 22.6858 3
      vertex -17.7451 22.8248 3
    endloop
  endfacet
  facet normal -0.141959 0.989873 0
    outer loop
      vertex -18.7141 22.6858 3
      vertex -17.7451 22.8248 1.5
      vertex -18.7141 22.6858 1.5
    endloop
  endfacet
  facet normal -0.000661275 1 0
    outer loop
      vertex 17.2507 22.8479 1.5
      vertex -17.7451 22.8248 3
      vertex 17.2507 22.8479 3
    endloop
  endfacet
  facet normal -0.000661275 1 0
    outer loop
      vertex -17.7451 22.8248 3
      vertex 17.2507 22.8479 1.5
      vertex -17.7451 22.8248 1.5
    endloop
  endfacet
  facet normal -0.016753 0.99986 0
    outer loop
      vertex 17.5137 22.8523 1.5
      vertex 17.2507 22.8479 3
      vertex 17.5137 22.8523 3
    endloop
  endfacet
  facet normal -0.016753 0.99986 0
    outer loop
      vertex 17.2507 22.8479 3
      vertex 17.5137 22.8523 1.5
      vertex 17.2507 22.8479 1.5
    endloop
  endfacet
  facet normal 0.113025 0.993592 -0
    outer loop
      vertex 18.5141 22.7385 1.5
      vertex 17.5137 22.8523 3
      vertex 18.5141 22.7385 3
    endloop
  endfacet
  facet normal 0.113025 0.993592 0
    outer loop
      vertex 17.5137 22.8523 3
      vertex 18.5141 22.7385 1.5
      vertex 17.5137 22.8523 1.5
    endloop
  endfacet
  facet normal -0.000382073 -1 0
    outer loop
      vertex -16.9883 20.2462 1.5
      vertex 17.657 20.2329 3
      vertex -16.9883 20.2462 3
    endloop
  endfacet
  facet normal -0.000382073 -1 -0
    outer loop
      vertex 17.657 20.2329 3
      vertex -16.9883 20.2462 1.5
      vertex 17.657 20.2329 1.5
    endloop
  endfacet
  facet normal -0.187679 -0.98223 0
    outer loop
      vertex 17.657 20.2329 1.5
      vertex 18.2294 20.1236 3
      vertex 17.657 20.2329 3
    endloop
  endfacet
  facet normal -0.187679 -0.98223 -0
    outer loop
      vertex 18.2294 20.1236 3
      vertex 17.657 20.2329 1.5
      vertex 18.2294 20.1236 1.5
    endloop
  endfacet
  facet normal -0.401193 -0.915993 0
    outer loop
      vertex 18.2294 20.1236 1.5
      vertex 18.7528 19.8943 3
      vertex 18.2294 20.1236 3
    endloop
  endfacet
  facet normal -0.401193 -0.915993 -0
    outer loop
      vertex 18.7528 19.8943 3
      vertex 18.2294 20.1236 1.5
      vertex 18.7528 19.8943 1.5
    endloop
  endfacet
  facet normal -0.582381 -0.812916 0
    outer loop
      vertex 18.7528 19.8943 1.5
      vertex 19.2156 19.5628 3
      vertex 18.7528 19.8943 3
    endloop
  endfacet
  facet normal -0.582381 -0.812916 -0
    outer loop
      vertex 19.2156 19.5628 3
      vertex 18.7528 19.8943 1.5
      vertex 19.2156 19.5628 1.5
    endloop
  endfacet
  facet normal -0.729234 -0.684264 0
    outer loop
      vertex 19.6062 19.1465 1.5
      vertex 19.2156 19.5628 3
      vertex 19.2156 19.5628 1.5
    endloop
  endfacet
  facet normal -0.729234 -0.684264 0
    outer loop
      vertex 19.2156 19.5628 3
      vertex 19.6062 19.1465 1.5
      vertex 19.6062 19.1465 3
    endloop
  endfacet
  facet normal -0.844263 -0.53593 0
    outer loop
      vertex 19.9131 18.663 1.5
      vertex 19.6062 19.1465 3
      vertex 19.6062 19.1465 1.5
    endloop
  endfacet
  facet normal -0.844263 -0.53593 0
    outer loop
      vertex 19.6062 19.1465 3
      vertex 19.9131 18.663 1.5
      vertex 19.9131 18.663 3
    endloop
  endfacet
  facet normal -0.929439 -0.368975 0
    outer loop
      vertex 20.1247 18.13 1.5
      vertex 19.9131 18.663 3
      vertex 19.9131 18.663 1.5
    endloop
  endfacet
  facet normal -0.929439 -0.368975 0
    outer loop
      vertex 19.9131 18.663 3
      vertex 20.1247 18.13 1.5
      vertex 20.1247 18.13 3
    endloop
  endfacet
  facet normal -0.983234 -0.182348 0
    outer loop
      vertex 20.2295 17.5648 1.5
      vertex 20.1247 18.13 3
      vertex 20.1247 18.13 1.5
    endloop
  endfacet
  facet normal -0.983234 -0.182348 0
    outer loop
      vertex 20.1247 18.13 3
      vertex 20.2295 17.5648 1.5
      vertex 20.2295 17.5648 3
    endloop
  endfacet
  facet normal -0.999726 0.0233866 0
    outer loop
      vertex 20.216 16.9852 1.5
      vertex 20.2295 17.5648 3
      vertex 20.2295 17.5648 1.5
    endloop
  endfacet
  facet normal -0.999726 0.0233866 0
    outer loop
      vertex 20.2295 17.5648 3
      vertex 20.216 16.9852 1.5
      vertex 20.216 16.9852 3
    endloop
  endfacet
  facet normal -1 0.000565079 0
    outer loop
      vertex 20.1964 -17.6292 1.5
      vertex 20.216 16.9852 3
      vertex 20.216 16.9852 1.5
    endloop
  endfacet
  facet normal -1 0.000565079 0
    outer loop
      vertex 20.216 16.9852 3
      vertex 20.1964 -17.6292 1.5
      vertex 20.1964 -17.6292 3
    endloop
  endfacet
  facet normal -0.983156 0.182767 0
    outer loop
      vertex 20.0899 -18.2021 1.5
      vertex 20.1964 -17.6292 3
      vertex 20.1964 -17.6292 1.5
    endloop
  endfacet
  facet normal -0.983156 0.182767 0
    outer loop
      vertex 20.1964 -17.6292 3
      vertex 20.0899 -18.2021 1.5
      vertex 20.0899 -18.2021 3
    endloop
  endfacet
  facet normal -0.917805 0.39703 0
    outer loop
      vertex 19.8631 -18.7264 1.5
      vertex 20.0899 -18.2021 3
      vertex 20.0899 -18.2021 1.5
    endloop
  endfacet
  facet normal -0.917805 0.39703 0
    outer loop
      vertex 20.0899 -18.2021 3
      vertex 19.8631 -18.7264 1.5
      vertex 19.8631 -18.7264 3
    endloop
  endfacet
  facet normal -0.815363 0.57895 0
    outer loop
      vertex 19.5335 -19.1906 1.5
      vertex 19.8631 -18.7264 3
      vertex 19.8631 -18.7264 1.5
    endloop
  endfacet
  facet normal -0.815363 0.57895 0
    outer loop
      vertex 19.8631 -18.7264 3
      vertex 19.5335 -19.1906 1.5
      vertex 19.5335 -19.1906 3
    endloop
  endfacet
  facet normal -0.687165 0.726501 0
    outer loop
      vertex 19.5335 -19.1906 1.5
      vertex 19.1188 -19.5829 3
      vertex 19.5335 -19.1906 3
    endloop
  endfacet
  facet normal -0.687165 0.726501 0
    outer loop
      vertex 19.1188 -19.5829 3
      vertex 19.5335 -19.1906 1.5
      vertex 19.1188 -19.5829 1.5
    endloop
  endfacet
  facet normal -0.539127 0.842225 0
    outer loop
      vertex 19.1188 -19.5829 1.5
      vertex 18.6365 -19.8916 3
      vertex 19.1188 -19.5829 3
    endloop
  endfacet
  facet normal -0.539127 0.842225 0
    outer loop
      vertex 18.6365 -19.8916 3
      vertex 19.1188 -19.5829 1.5
      vertex 18.6365 -19.8916 1.5
    endloop
  endfacet
  facet normal -0.372286 0.928118 0
    outer loop
      vertex 18.6365 -19.8916 1.5
      vertex 18.1042 -20.1051 3
      vertex 18.6365 -19.8916 3
    endloop
  endfacet
  facet normal -0.372286 0.928118 0
    outer loop
      vertex 18.1042 -20.1051 3
      vertex 18.6365 -19.8916 1.5
      vertex 18.1042 -20.1051 1.5
    endloop
  endfacet
  facet normal -0.18554 0.982637 0
    outer loop
      vertex 18.1042 -20.1051 1.5
      vertex 17.5395 -20.2117 3
      vertex 18.1042 -20.1051 3
    endloop
  endfacet
  facet normal -0.18554 0.982637 0
    outer loop
      vertex 17.5395 -20.2117 3
      vertex 18.1042 -20.1051 1.5
      vertex 17.5395 -20.2117 1.5
    endloop
  endfacet
  facet normal 0.0206021 0.999788 -0
    outer loop
      vertex 17.5395 -20.2117 1.5
      vertex 16.96 -20.1998 3
      vertex 17.5395 -20.2117 3
    endloop
  endfacet
  facet normal 0.0206021 0.999788 0
    outer loop
      vertex 16.96 -20.1998 3
      vertex 17.5395 -20.2117 1.5
      vertex 16.96 -20.1998 1.5
    endloop
  endfacet
  facet normal 0.000382234 1 -0
    outer loop
      vertex 16.96 -20.1998 1.5
      vertex -17.6756 -20.1866 3
      vertex 16.96 -20.1998 3
    endloop
  endfacet
  facet normal 0.000382234 1 0
    outer loop
      vertex -17.6756 -20.1866 3
      vertex 16.96 -20.1998 1.5
      vertex -17.6756 -20.1866 1.5
    endloop
  endfacet
  facet normal 0.188529 0.982068 -0
    outer loop
      vertex -17.6756 -20.1866 1.5
      vertex -18.204 -20.0851 3
      vertex -17.6756 -20.1866 3
    endloop
  endfacet
  facet normal 0.188529 0.982068 0
    outer loop
      vertex -18.204 -20.0851 3
      vertex -17.6756 -20.1866 1.5
      vertex -18.204 -20.0851 1.5
    endloop
  endfacet
  facet normal 0.37921 0.92531 -0
    outer loop
      vertex -18.204 -20.0851 1.5
      vertex -18.6948 -19.884 3
      vertex -18.204 -20.0851 3
    endloop
  endfacet
  facet normal 0.37921 0.92531 0
    outer loop
      vertex -18.6948 -19.884 3
      vertex -18.204 -20.0851 1.5
      vertex -18.6948 -19.884 1.5
    endloop
  endfacet
  facet normal 0.546244 0.837626 -0
    outer loop
      vertex -18.6948 -19.884 1.5
      vertex -19.137 -19.5956 3
      vertex -18.6948 -19.884 3
    endloop
  endfacet
  facet normal 0.546244 0.837626 0
    outer loop
      vertex -19.137 -19.5956 3
      vertex -18.6948 -19.884 1.5
      vertex -19.137 -19.5956 1.5
    endloop
  endfacet
  facet normal 0.688474 0.725261 -0
    outer loop
      vertex -19.137 -19.5956 1.5
      vertex -19.5196 -19.2325 3
      vertex -19.137 -19.5956 3
    endloop
  endfacet
  facet normal 0.688474 0.725261 0
    outer loop
      vertex -19.5196 -19.2325 3
      vertex -19.137 -19.5956 1.5
      vertex -19.5196 -19.2325 1.5
    endloop
  endfacet
  facet normal 0.806551 0.591164 0
    outer loop
      vertex -19.5196 -19.2325 3
      vertex -19.8314 -18.807 1.5
      vertex -19.8314 -18.807 3
    endloop
  endfacet
  facet normal 0.806551 0.591164 0
    outer loop
      vertex -19.8314 -18.807 1.5
      vertex -19.5196 -19.2325 3
      vertex -19.5196 -19.2325 1.5
    endloop
  endfacet
  facet normal 0.900104 0.435675 0
    outer loop
      vertex -19.8314 -18.807 3
      vertex -20.0614 -18.3318 1.5
      vertex -20.0614 -18.3318 3
    endloop
  endfacet
  facet normal 0.900104 0.435675 0
    outer loop
      vertex -20.0614 -18.3318 1.5
      vertex -19.8314 -18.807 3
      vertex -19.8314 -18.807 1.5
    endloop
  endfacet
  facet normal 0.966001 0.258537 0
    outer loop
      vertex -20.0614 -18.3318 3
      vertex -20.1986 -17.8191 1.5
      vertex -20.1986 -17.8191 3
    endloop
  endfacet
  facet normal 0.966001 0.258537 0
    outer loop
      vertex -20.1986 -17.8191 1.5
      vertex -20.0614 -18.3318 3
      vertex -20.0614 -18.3318 1.5
    endloop
  endfacet
  facet normal 0.998088 0.0618054 0
    outer loop
      vertex -20.1986 -17.8191 3
      vertex -20.2319 -17.2817 1.5
      vertex -20.2319 -17.2817 3
    endloop
  endfacet
  facet normal 0.998088 0.0618054 0
    outer loop
      vertex -20.2319 -17.2817 1.5
      vertex -20.1986 -17.8191 3
      vertex -20.1986 -17.8191 1.5
    endloop
  endfacet
  facet normal 1 -0.000393893 0
    outer loop
      vertex -20.2319 -17.2817 3
      vertex -20.2181 17.6797 1.5
      vertex -20.2181 17.6797 3
    endloop
  endfacet
  facet normal 1 -0.000393893 0
    outer loop
      vertex -20.2181 17.6797 1.5
      vertex -20.2319 -17.2817 3
      vertex -20.2319 -17.2817 1.5
    endloop
  endfacet
  facet normal 0.986407 -0.164318 0
    outer loop
      vertex -20.2181 17.6797 3
      vertex -20.1402 18.1477 1.5
      vertex -20.1402 18.1477 3
    endloop
  endfacet
  facet normal 0.986407 -0.164318 0
    outer loop
      vertex -20.1402 18.1477 1.5
      vertex -20.2181 17.6797 3
      vertex -20.2181 17.6797 1.5
    endloop
  endfacet
  facet normal 0.939721 -0.341941 0
    outer loop
      vertex -20.1402 18.1477 3
      vertex -19.9812 18.5847 1.5
      vertex -19.9812 18.5847 3
    endloop
  endfacet
  facet normal 0.939721 -0.341941 0
    outer loop
      vertex -19.9812 18.5847 1.5
      vertex -20.1402 18.1477 3
      vertex -20.1402 18.1477 1.5
    endloop
  endfacet
  facet normal 0.822258 -0.569115 0
    outer loop
      vertex -19.9812 18.5847 3
      vertex -19.4575 19.3414 1.5
      vertex -19.4575 19.3414 3
    endloop
  endfacet
  facet normal 0.822258 -0.569115 0
    outer loop
      vertex -19.4575 19.3414 1.5
      vertex -19.9812 18.5847 3
      vertex -19.9812 18.5847 1.5
    endloop
  endfacet
  facet normal 0.648316 -0.761372 0
    outer loop
      vertex -19.4575 19.3414 1.5
      vertex -19.0068 19.7251 3
      vertex -19.4575 19.3414 3
    endloop
  endfacet
  facet normal 0.648316 -0.761372 0
    outer loop
      vertex -19.0068 19.7251 3
      vertex -19.4575 19.3414 1.5
      vertex -19.0068 19.7251 1.5
    endloop
  endfacet
  facet normal 0.489516 -0.871994 0
    outer loop
      vertex -19.0068 19.7251 1.5
      vertex -18.4892 20.0157 3
      vertex -19.0068 19.7251 3
    endloop
  endfacet
  facet normal 0.489516 -0.871994 0
    outer loop
      vertex -18.4892 20.0157 3
      vertex -19.0068 19.7251 1.5
      vertex -18.4892 20.0157 1.5
    endloop
  endfacet
  facet normal 0.310807 -0.950473 0
    outer loop
      vertex -18.4892 20.0157 1.5
      vertex -17.9243 20.2004 3
      vertex -18.4892 20.0157 3
    endloop
  endfacet
  facet normal 0.310807 -0.950473 0
    outer loop
      vertex -17.9243 20.2004 3
      vertex -18.4892 20.0157 1.5
      vertex -17.9243 20.2004 1.5
    endloop
  endfacet
  facet normal 0.111022 -0.993818 0
    outer loop
      vertex -17.9243 20.2004 1.5
      vertex -17.3317 20.2666 3
      vertex -17.9243 20.2004 3
    endloop
  endfacet
  facet normal 0.111022 -0.993818 0
    outer loop
      vertex -17.3317 20.2666 3
      vertex -17.9243 20.2004 1.5
      vertex -17.3317 20.2666 1.5
    endloop
  endfacet
  facet normal -0.0593132 -0.998239 0
    outer loop
      vertex -17.3317 20.2666 1.5
      vertex -16.9883 20.2462 3
      vertex -17.3317 20.2666 3
    endloop
  endfacet
  facet normal -0.0593132 -0.998239 -0
    outer loop
      vertex -16.9883 20.2462 3
      vertex -17.3317 20.2666 1.5
      vertex -16.9883 20.2462 1.5
    endloop
  endfacet
  facet normal 0 0 1
    outer loop
      vertex -1.21297 8.00354 3
      vertex 3.55046 8.00357 3
      vertex 1.16874 16.2441 3
    endloop
  endfacet
  facet normal 0 0 1
    outer loop
      vertex 1.16874 16.2441 3
      vertex 3.55046 8.00357 3
      vertex 5.93201 8.00357 3
    endloop
  endfacet
  facet normal 0 0 1
    outer loop
      vertex 3.55046 -2.9529 3
      vertex 11.1572 -17.2962 3
      vertex 14.5255 -13.9279 3
    endloop
  endfacet
  facet normal 0 0 1
    outer loop
      vertex -1.21297 1.8105 3
      vertex 3.55046 8.00357 3
      vertex -1.21297 8.00354 3
    endloop
  endfacet
  facet normal 0 0 1
    outer loop
      vertex 3.55046 8.00357 3
      vertex -1.21297 1.8105 3
      vertex 3.55046 -2.9529 3
    endloop
  endfacet
  facet normal 0 0 1
    outer loop
      vertex -1.21297 1.8105 3
      vertex 11.1572 -17.2962 3
      vertex 3.55046 -2.9529 3
    endloop
  endfacet
  facet normal -0 0 1
    outer loop
      vertex -17.3297 11.1907 3
      vertex -1.21297 1.8105 3
      vertex -13.9614 14.559 3
    endloop
  endfacet
  facet normal 0 0 1
    outer loop
      vertex -1.21297 1.8105 3
      vertex -17.3297 11.1907 3
      vertex 11.1572 -17.2962 3
    endloop
  endfacet
  facet normal 0 0 1
    outer loop
      vertex 1.16874 16.2441 3
      vertex -3.59469 8.0034 3
      vertex -1.21297 8.00354 3
    endloop
  endfacet
  facet normal 0 -1 0
    outer loop
      vertex 3.55046 8.00357 1.5
      vertex 5.93201 8.00357 3
      vertex 3.55046 8.00357 3
    endloop
  endfacet
  facet normal 0 -1 -0
    outer loop
      vertex 5.93201 8.00357 3
      vertex 3.55046 8.00357 1.5
      vertex 5.93201 8.00357 1.5
    endloop
  endfacet
  facet normal 1 -4.35211e-07 0
    outer loop
      vertex 3.55046 -2.9529 3
      vertex 3.55046 8.00357 1.5
      vertex 3.55046 8.00357 3
    endloop
  endfacet
  facet normal 1 -4.35211e-07 0
    outer loop
      vertex 3.55046 8.00357 1.5
      vertex 3.55046 -2.9529 3
      vertex 3.55046 -2.9529 1.5
    endloop
  endfacet
  facet normal 0.707107 0.707107 -0
    outer loop
      vertex 14.5255 -13.9279 1.5
      vertex 3.55046 -2.9529 3
      vertex 14.5255 -13.9279 3
    endloop
  endfacet
  facet normal 0.707107 0.707107 0
    outer loop
      vertex 3.55046 -2.9529 3
      vertex 14.5255 -13.9279 1.5
      vertex 3.55046 -2.9529 1.5
    endloop
  endfacet
  facet normal 0.707107 -0.707107 0
    outer loop
      vertex 11.1572 -17.2962 1.5
      vertex 14.5255 -13.9279 3
      vertex 11.1572 -17.2962 3
    endloop
  endfacet
  facet normal 0.707107 -0.707107 0
    outer loop
      vertex 14.5255 -13.9279 3
      vertex 11.1572 -17.2962 1.5
      vertex 14.5255 -13.9279 1.5
    endloop
  endfacet
  facet normal -0.707107 -0.707107 0
    outer loop
      vertex -17.3297 11.1907 1.5
      vertex 11.1572 -17.2962 3
      vertex -17.3297 11.1907 3
    endloop
  endfacet
  facet normal -0.707107 -0.707107 -0
    outer loop
      vertex 11.1572 -17.2962 3
      vertex -17.3297 11.1907 1.5
      vertex 11.1572 -17.2962 1.5
    endloop
  endfacet
  facet normal -0.707107 0.707107 0
    outer loop
      vertex -17.3297 11.1907 1.5
      vertex -13.9614 14.559 3
      vertex -13.9614 14.559 1.5
    endloop
  endfacet
  facet normal -0.707107 0.707107 0
    outer loop
      vertex -13.9614 14.559 3
      vertex -17.3297 11.1907 1.5
      vertex -17.3297 11.1907 3
    endloop
  endfacet
  facet normal 0.707107 0.707107 0
    outer loop
      vertex -1.21297 1.8105 3
      vertex -13.9614 14.559 1.5
      vertex -13.9614 14.559 3
    endloop
  endfacet
  facet normal 0.707107 0.707107 0
    outer loop
      vertex -13.9614 14.559 1.5
      vertex -1.21297 1.8105 3
      vertex -1.21297 1.8105 1.5
    endloop
  endfacet
  facet normal -1 0 0
    outer loop
      vertex -1.21297 1.8105 1.5
      vertex -1.21297 8.00354 3
      vertex -1.21297 8.00354 1.5
    endloop
  endfacet
  facet normal -1 -0 0
    outer loop
      vertex -1.21297 8.00354 3
      vertex -1.21297 1.8105 1.5
      vertex -1.21297 1.8105 3
    endloop
  endfacet
  facet normal 5.96618e-05 -1 0
    outer loop
      vertex -3.59469 8.0034 1.5
      vertex -1.21297 8.00354 3
      vertex -3.59469 8.0034 3
    endloop
  endfacet
  facet normal 5.96618e-05 -1 0
    outer loop
      vertex -1.21297 8.00354 3
      vertex -3.59469 8.0034 1.5
      vertex -1.21297 8.00354 1.5
    endloop
  endfacet
  facet normal -0.865769 0.500444 0
    outer loop
      vertex -3.59469 8.0034 1.5
      vertex 1.16874 16.2441 3
      vertex 1.16874 16.2441 1.5
    endloop
  endfacet
  facet normal -0.865769 0.500444 0
    outer loop
      vertex 1.16874 16.2441 3
      vertex -3.59469 8.0034 1.5
      vertex -3.59469 8.0034 3
    endloop
  endfacet
  facet normal 0.865772 0.500439 0
    outer loop
      vertex 5.93201 8.00357 3
      vertex 1.16874 16.2441 1.5
      vertex 1.16874 16.2441 3
    endloop
  endfacet
  facet normal 0.865772 0.500439 0
    outer loop
      vertex 1.16874 16.2441 1.5
      vertex 5.93201 8.00357 3
      vertex 5.93201 8.00357 1.5
    endloop
  endfacet
  facet normal 0 0 1
    outer loop
      vertex 22.7987 17.7795 1.5
      vertex 24.9846 0.470277 1.5
      vertex 25.0126 9.2843 1.5
    endloop
  endfacet
  facet normal -0 0 1
    outer loop
      vertex 22.7987 17.7795 1.5
      vertex 25.0126 9.2843 1.5
      vertex 24.9331 18.0729 1.5
    endloop
  endfacet
  facet normal -0 0 1
    outer loop
      vertex 22.8067 -17.2816 1.5
      vertex 24.9482 -17.9199 1.5
      vertex 24.9347 -8.54063 1.5
    endloop
  endfacet
  facet normal 0 -0 1
    outer loop
      vertex 22.8067 -17.2816 1.5
      vertex 24.9846 0.470277 1.5
      vertex 22.7987 17.7795 1.5
    endloop
  endfacet
  facet normal -0 0 1
    outer loop
      vertex 22.6494 18.7795 1.5
      vertex 24.9331 18.0729 1.5
      vertex 24.7045 19.4097 1.5
    endloop
  endfacet
  facet normal 0 0 1
    outer loop
      vertex 22.7327 -18.3176 1.5
      vertex 24.9482 -17.9199 1.5
      vertex 22.8067 -17.2816 1.5
    endloop
  endfacet
  facet normal -0 0 1
    outer loop
      vertex 22.305 19.7191 1.5
      vertex 24.7045 19.4097 1.5
      vertex 24.228 20.6682 1.5
    endloop
  endfacet
  facet normal 0 0 1
    outer loop
      vertex 24.9482 -17.9199 1.5
      vertex 22.7327 -18.3176 1.5
      vertex 24.7399 -19.2654 1.5
    endloop
  endfacet
  facet normal 0 0 1
    outer loop
      vertex 22.305 19.7191 1.5
      vertex 24.228 20.6682 1.5
      vertex 23.5331 21.8199 1.5
    endloop
  endfacet
  facet normal 0 0 1
    outer loop
      vertex 22.4497 -19.3068 1.5
      vertex 24.7399 -19.2654 1.5
      vertex 22.7327 -18.3176 1.5
    endloop
  endfacet
  facet normal 0 0 1
    outer loop
      vertex 24.7399 -19.2654 1.5
      vertex 22.4497 -19.3068 1.5
      vertex 24.2804 -20.536 1.5
    endloop
  endfacet
  facet normal -0 0 1
    outer loop
      vertex 21.982 -20.2227 1.5
      vertex 24.2804 -20.536 1.5
      vertex 22.4497 -19.3068 1.5
    endloop
  endfacet
  facet normal 0 0 1
    outer loop
      vertex 24.2804 -20.536 1.5
      vertex 21.982 -20.2227 1.5
      vertex 23.5992 -21.7025 1.5
    endloop
  endfacet
  facet normal -0 0 1
    outer loop
      vertex 21.3539 -21.0391 1.5
      vertex 23.5992 -21.7025 1.5
      vertex 21.982 -20.2227 1.5
    endloop
  endfacet
  facet normal 0 0 1
    outer loop
      vertex 23.5992 -21.7025 1.5
      vertex 21.3539 -21.0391 1.5
      vertex 22.7259 -22.7355 1.5
    endloop
  endfacet
  facet normal -0 0 1
    outer loop
      vertex 20.5896 -21.7296 1.5
      vertex 22.7259 -22.7355 1.5
      vertex 21.3539 -21.0391 1.5
    endloop
  endfacet
  facet normal 0 0 1
    outer loop
      vertex 22.7259 -22.7355 1.5
      vertex 20.5896 -21.7296 1.5
      vertex 21.6901 -23.6055 1.5
    endloop
  endfacet
  facet normal -0 0 1
    outer loop
      vertex 19.7134 -22.2679 1.5
      vertex 21.6901 -23.6055 1.5
      vertex 20.5896 -21.7296 1.5
    endloop
  endfacet
  facet normal 0 0 1
    outer loop
      vertex 21.6901 -23.6055 1.5
      vertex 19.7134 -22.2679 1.5
      vertex 20.5214 -24.283 1.5
    endloop
  endfacet
  facet normal -0 0 1
    outer loop
      vertex 18.7494 -22.6277 1.5
      vertex 20.5214 -24.283 1.5
      vertex 19.7134 -22.2679 1.5
    endloop
  endfacet
  facet normal 0 0 1
    outer loop
      vertex 20.5214 -24.283 1.5
      vertex 18.7494 -22.6277 1.5
      vertex 19.2493 -24.7388 1.5
    endloop
  endfacet
  facet normal 0 0 1
    outer loop
      vertex 18.7494 -22.6277 1.5
      vertex 17.9035 -24.9433 1.5
      vertex 19.2493 -24.7388 1.5
    endloop
  endfacet
  facet normal -0 0 1
    outer loop
      vertex 17.722 -22.7825 1.5
      vertex 17.9035 -24.9433 1.5
      vertex 18.7494 -22.6277 1.5
    endloop
  endfacet
  facet normal 0 0 1
    outer loop
      vertex 17.722 -22.7825 1.5
      vertex 0.165532 -24.9968 1.5
      vertex 17.9035 -24.9433 1.5
    endloop
  endfacet
  facet normal -0 0 1
    outer loop
      vertex -17.585 -22.7899 1.5
      vertex 0.165532 -24.9968 1.5
      vertex 17.722 -22.7825 1.5
    endloop
  endfacet
  facet normal 0 0 1
    outer loop
      vertex -17.585 -22.7899 1.5
      vertex -18.5324 -24.8762 1.5
      vertex 0.165532 -24.9968 1.5
    endloop
  endfacet
  facet normal 0 0 1
    outer loop
      vertex -18.627 -22.6638 1.5
      vertex -18.5324 -24.8762 1.5
      vertex -17.585 -22.7899 1.5
    endloop
  endfacet
  facet normal 0 0 1
    outer loop
      vertex -19.8516 -24.5649 1.5
      vertex -18.627 -22.6638 1.5
      vertex -19.61 -22.3263 1.5
    endloop
  endfacet
  facet normal 0 0 1
    outer loop
      vertex -18.627 -22.6638 1.5
      vertex -19.8516 -24.5649 1.5
      vertex -18.5324 -24.8762 1.5
    endloop
  endfacet
  facet normal 0 0 1
    outer loop
      vertex -21.0782 -24.0121 1.5
      vertex -19.61 -22.3263 1.5
      vertex -20.5083 -21.8041 1.5
    endloop
  endfacet
  facet normal 0 0 1
    outer loop
      vertex -19.61 -22.3263 1.5
      vertex -21.0782 -24.0121 1.5
      vertex -19.8516 -24.5649 1.5
    endloop
  endfacet
  facet normal 0 0 1
    outer loop
      vertex -22.1856 -23.2487 1.5
      vertex -20.5083 -21.8041 1.5
      vertex -21.296 -21.1238 1.5
    endloop
  endfacet
  facet normal 0 0 1
    outer loop
      vertex -23.1468 -22.3058 1.5
      vertex -21.296 -21.1238 1.5
      vertex -21.9475 -20.312 1.5
    endloop
  endfacet
  facet normal 0 0 1
    outer loop
      vertex -20.5083 -21.8041 1.5
      vertex -22.1856 -23.2487 1.5
      vertex -21.0782 -24.0121 1.5
    endloop
  endfacet
  facet normal 0 0 1
    outer loop
      vertex -23.9351 -21.2143 1.5
      vertex -21.9475 -20.312 1.5
      vertex -22.4371 -19.3955 1.5
    endloop
  endfacet
  facet normal 0 0 1
    outer loop
      vertex -24.5235 -20.0053 1.5
      vertex -22.4371 -19.3955 1.5
      vertex -22.7389 -18.4008 1.5
    endloop
  endfacet
  facet normal 0 0 1
    outer loop
      vertex -21.296 -21.1238 1.5
      vertex -23.1468 -22.3058 1.5
      vertex -22.1856 -23.2487 1.5
    endloop
  endfacet
  facet normal 0 0 1
    outer loop
      vertex -24.8851 -18.7097 1.5
      vertex -22.7389 -18.4008 1.5
      vertex -22.8273 -17.3547 1.5
    endloop
  endfacet
  facet normal -0 0 1
    outer loop
      vertex -25.0126 0.0433731 1.5
      vertex -22.8273 -17.3547 1.5
      vertex -22.8284 17.29 1.5
    endloop
  endfacet
  facet normal 0 0 1
    outer loop
      vertex 24.9846 0.470277 1.5
      vertex 22.8067 -17.2816 1.5
      vertex 24.9347 -8.54063 1.5
    endloop
  endfacet
  facet normal 0 0 1
    outer loop
      vertex 21.79 20.5762 1.5
      vertex 23.5331 21.8199 1.5
      vertex 22.6496 22.8363 1.5
    endloop
  endfacet
  facet normal 0 0 1
    outer loop
      vertex 24.9331 18.0729 1.5
      vertex 22.6494 18.7795 1.5
      vertex 22.7987 17.7795 1.5
    endloop
  endfacet
  facet normal 0 0 1
    outer loop
      vertex 24.7045 19.4097 1.5
      vertex 22.305 19.7191 1.5
      vertex 22.6494 18.7795 1.5
    endloop
  endfacet
  facet normal 0 0 1
    outer loop
      vertex 23.5331 21.8199 1.5
      vertex 21.79 20.5762 1.5
      vertex 22.305 19.7191 1.5
    endloop
  endfacet
  facet normal 0 0 1
    outer loop
      vertex 21.1289 21.3288 1.5
      vertex 22.6496 22.8363 1.5
      vertex 21.6069 23.6891 1.5
    endloop
  endfacet
  facet normal 0 0 1
    outer loop
      vertex 22.6496 22.8363 1.5
      vertex 21.1289 21.3288 1.5
      vertex 21.79 20.5762 1.5
    endloop
  endfacet
  facet normal 0 0 1
    outer loop
      vertex 20.3462 21.9547 1.5
      vertex 21.6069 23.6891 1.5
      vertex 20.4349 24.3498 1.5
    endloop
  endfacet
  facet normal 0 0 1
    outer loop
      vertex 21.6069 23.6891 1.5
      vertex 20.3462 21.9547 1.5
      vertex 21.1289 21.3288 1.5
    endloop
  endfacet
  facet normal 0 0 1
    outer loop
      vertex 20.4349 24.3498 1.5
      vertex 19.4664 22.432 1.5
      vertex 20.3462 21.9547 1.5
    endloop
  endfacet
  facet normal 0 0 1
    outer loop
      vertex 19.1629 24.7898 1.5
      vertex 19.4664 22.432 1.5
      vertex 20.4349 24.3498 1.5
    endloop
  endfacet
  facet normal 0 0 1
    outer loop
      vertex 19.1629 24.7898 1.5
      vertex 18.5141 22.7385 1.5
      vertex 19.4664 22.432 1.5
    endloop
  endfacet
  facet normal 0 0 1
    outer loop
      vertex 17.8208 24.9807 1.5
      vertex 18.5141 22.7385 1.5
      vertex 19.1629 24.7898 1.5
    endloop
  endfacet
  facet normal 0 0 1
    outer loop
      vertex 17.8208 24.9807 1.5
      vertex 17.5137 22.8523 1.5
      vertex 18.5141 22.7385 1.5
    endloop
  endfacet
  facet normal 0 0 1
    outer loop
      vertex 17.8208 24.9807 1.5
      vertex 17.2507 22.8479 1.5
      vertex 17.5137 22.8523 1.5
    endloop
  endfacet
  facet normal 0 0 1
    outer loop
      vertex -17.666 24.9968 1.5
      vertex 17.2507 22.8479 1.5
      vertex 17.8208 24.9807 1.5
    endloop
  endfacet
  facet normal 0 0 1
    outer loop
      vertex -17.666 24.9968 1.5
      vertex -17.7451 22.8248 1.5
      vertex 17.2507 22.8479 1.5
    endloop
  endfacet
  facet normal -0 0 1
    outer loop
      vertex -19.0152 24.8391 1.5
      vertex -17.7451 22.8248 1.5
      vertex -17.666 24.9968 1.5
    endloop
  endfacet
  facet normal 0 0 1
    outer loop
      vertex -17.7451 22.8248 1.5
      vertex -19.0152 24.8391 1.5
      vertex -18.7141 22.6858 1.5
    endloop
  endfacet
  facet normal -0 0 1
    outer loop
      vertex -20.2996 24.4292 1.5
      vertex -18.7141 22.6858 1.5
      vertex -19.0152 24.8391 1.5
    endloop
  endfacet
  facet normal 0 0 1
    outer loop
      vertex -18.7141 22.6858 1.5
      vertex -20.2996 24.4292 1.5
      vertex -19.6278 22.3633 1.5
    endloop
  endfacet
  facet normal -0 0 1
    outer loop
      vertex -21.4889 23.795 1.5
      vertex -19.6278 22.3633 1.5
      vertex -20.2996 24.4292 1.5
    endloop
  endfacet
  facet normal 0 0 1
    outer loop
      vertex -19.6278 22.3633 1.5
      vertex -21.4889 23.795 1.5
      vertex -20.4662 21.8794 1.5
    endloop
  endfacet
  facet normal -0 0 1
    outer loop
      vertex -22.5528 22.9648 1.5
      vertex -20.4662 21.8794 1.5
      vertex -21.4889 23.795 1.5
    endloop
  endfacet
  facet normal 0 0 1
    outer loop
      vertex -20.4662 21.8794 1.5
      vertex -22.5528 22.9648 1.5
      vertex -21.2089 21.2563 1.5
    endloop
  endfacet
  facet normal -0 0 1
    outer loop
      vertex -23.4611 21.9665 1.5
      vertex -21.2089 21.2563 1.5
      vertex -22.5528 22.9648 1.5
    endloop
  endfacet
  facet normal 0 0 1
    outer loop
      vertex -21.2089 21.2563 1.5
      vertex -23.4611 21.9665 1.5
      vertex -21.9099 20.4097 1.5
    endloop
  endfacet
  facet normal -0 0 1
    outer loop
      vertex -24.1833 20.8284 1.5
      vertex -21.9099 20.4097 1.5
      vertex -23.4611 21.9665 1.5
    endloop
  endfacet
  facet normal 0 0 1
    outer loop
      vertex -21.9099 20.4097 1.5
      vertex -24.1833 20.8284 1.5
      vertex -22.4329 19.445 1.5
    endloop
  endfacet
  facet normal -0 0 1
    outer loop
      vertex -24.6891 19.5785 1.5
      vertex -22.4329 19.445 1.5
      vertex -24.1833 20.8284 1.5
    endloop
  endfacet
  facet normal 0 0 1
    outer loop
      vertex -22.4329 19.445 1.5
      vertex -24.6891 19.5785 1.5
      vertex -22.7489 18.3944 1.5
    endloop
  endfacet
  facet normal 0 -0 1
    outer loop
      vertex -24.9933 -17.3585 1.5
      vertex -22.8273 -17.3547 1.5
      vertex -25.0126 0.0433731 1.5
    endloop
  endfacet
  facet normal 0 0 1
    outer loop
      vertex -24.9482 18.245 1.5
      vertex -22.7489 18.3944 1.5
      vertex -24.6891 19.5785 1.5
    endloop
  endfacet
  facet normal 0 -0 1
    outer loop
      vertex -24.8851 -18.7097 1.5
      vertex -22.8273 -17.3547 1.5
      vertex -24.9933 -17.3585 1.5
    endloop
  endfacet
  facet normal 0 0 1
    outer loop
      vertex -22.7489 18.3944 1.5
      vertex -24.9482 18.245 1.5
      vertex -22.8284 17.29 1.5
    endloop
  endfacet
  facet normal 0 0 1
    outer loop
      vertex -21.9475 -20.312 1.5
      vertex -23.9351 -21.2143 1.5
      vertex -23.1468 -22.3058 1.5
    endloop
  endfacet
  facet normal 0 0 1
    outer loop
      vertex -22.8284 17.29 1.5
      vertex -24.9482 18.245 1.5
      vertex -25.0126 0.0433731 1.5
    endloop
  endfacet
  facet normal 0 0 1
    outer loop
      vertex -22.4371 -19.3955 1.5
      vertex -24.5235 -20.0053 1.5
      vertex -23.9351 -21.2143 1.5
    endloop
  endfacet
  facet normal 0 0 1
    outer loop
      vertex -22.7389 -18.4008 1.5
      vertex -24.8851 -18.7097 1.5
      vertex -24.5235 -20.0053 1.5
    endloop
  endfacet
  facet normal 0 0 1
    outer loop
      vertex 20.1247 18.13 1.5
      vertex 20.216 16.9852 1.5
      vertex 20.2295 17.5648 1.5
    endloop
  endfacet
  facet normal 0 0 1
    outer loop
      vertex 17.657 20.2329 1.5
      vertex 20.216 16.9852 1.5
      vertex 20.1247 18.13 1.5
    endloop
  endfacet
  facet normal 0 0 1
    outer loop
      vertex 20.216 16.9852 1.5
      vertex 14.5255 -13.9279 1.5
      vertex 20.1964 -17.6292 1.5
    endloop
  endfacet
  facet normal 0 0 1
    outer loop
      vertex 17.657 20.2329 1.5
      vertex 20.1247 18.13 1.5
      vertex 19.9131 18.663 1.5
    endloop
  endfacet
  facet normal 0 -0 1
    outer loop
      vertex 16.96 -20.1998 1.5
      vertex 20.1964 -17.6292 1.5
      vertex 14.5255 -13.9279 1.5
    endloop
  endfacet
  facet normal 0 0 1
    outer loop
      vertex 17.657 20.2329 1.5
      vertex 19.9131 18.663 1.5
      vertex 19.6062 19.1465 1.5
    endloop
  endfacet
  facet normal 0 -0 1
    outer loop
      vertex 19.1188 -19.5829 1.5
      vertex 20.1964 -17.6292 1.5
      vertex 16.96 -20.1998 1.5
    endloop
  endfacet
  facet normal 0 0 1
    outer loop
      vertex 17.657 20.2329 1.5
      vertex 19.6062 19.1465 1.5
      vertex 19.2156 19.5628 1.5
    endloop
  endfacet
  facet normal 0 -0 1
    outer loop
      vertex 19.5335 -19.1906 1.5
      vertex 20.1964 -17.6292 1.5
      vertex 19.1188 -19.5829 1.5
    endloop
  endfacet
  facet normal 0 0 1
    outer loop
      vertex 17.657 20.2329 1.5
      vertex 19.2156 19.5628 1.5
      vertex 18.7528 19.8943 1.5
    endloop
  endfacet
  facet normal 0 0 1
    outer loop
      vertex 20.0899 -18.2021 1.5
      vertex 19.5335 -19.1906 1.5
      vertex 19.8631 -18.7264 1.5
    endloop
  endfacet
  facet normal 0 0 1
    outer loop
      vertex 17.657 20.2329 1.5
      vertex 18.7528 19.8943 1.5
      vertex 18.2294 20.1236 1.5
    endloop
  endfacet
  facet normal 0 0 1
    outer loop
      vertex 20.1964 -17.6292 1.5
      vertex 19.5335 -19.1906 1.5
      vertex 20.0899 -18.2021 1.5
    endloop
  endfacet
  facet normal 0 0 1
    outer loop
      vertex 20.216 16.9852 1.5
      vertex 17.657 20.2329 1.5
      vertex 5.93201 8.00357 1.5
    endloop
  endfacet
  facet normal 0 0 1
    outer loop
      vertex 19.1188 -19.5829 1.5
      vertex 16.96 -20.1998 1.5
      vertex 18.6365 -19.8916 1.5
    endloop
  endfacet
  facet normal 0 0 1
    outer loop
      vertex 18.6365 -19.8916 1.5
      vertex 16.96 -20.1998 1.5
      vertex 18.1042 -20.1051 1.5
    endloop
  endfacet
  facet normal 0 0 1
    outer loop
      vertex 18.1042 -20.1051 1.5
      vertex 16.96 -20.1998 1.5
      vertex 17.5395 -20.2117 1.5
    endloop
  endfacet
  facet normal 0 0 1
    outer loop
      vertex 20.216 16.9852 1.5
      vertex 5.93201 8.00357 1.5
      vertex 14.5255 -13.9279 1.5
    endloop
  endfacet
  facet normal 0 0 1
    outer loop
      vertex 17.657 20.2329 1.5
      vertex 1.16874 16.2441 1.5
      vertex 5.93201 8.00357 1.5
    endloop
  endfacet
  facet normal 0 0 1
    outer loop
      vertex 1.16874 16.2441 1.5
      vertex -13.9614 14.559 1.5
      vertex -3.59469 8.0034 1.5
    endloop
  endfacet
  facet normal 0 0 1
    outer loop
      vertex -16.9883 20.2462 1.5
      vertex 1.16874 16.2441 1.5
      vertex 17.657 20.2329 1.5
    endloop
  endfacet
  facet normal 0 0 1
    outer loop
      vertex 1.16874 16.2441 1.5
      vertex -16.9883 20.2462 1.5
      vertex -13.9614 14.559 1.5
    endloop
  endfacet
  facet normal -0 0 1
    outer loop
      vertex -20.2181 17.6797 1.5
      vertex -13.9614 14.559 1.5
      vertex -16.9883 20.2462 1.5
    endloop
  endfacet
  facet normal 0 0 1
    outer loop
      vertex -20.2181 17.6797 1.5
      vertex -16.9883 20.2462 1.5
      vertex -17.3317 20.2666 1.5
    endloop
  endfacet
  facet normal -0 0 1
    outer loop
      vertex 11.1572 -17.2962 1.5
      vertex 16.96 -20.1998 1.5
      vertex 14.5255 -13.9279 1.5
    endloop
  endfacet
  facet normal 0 0 1
    outer loop
      vertex 11.1572 -17.2962 1.5
      vertex -17.6756 -20.1866 1.5
      vertex 16.96 -20.1998 1.5
    endloop
  endfacet
  facet normal -0 0 1
    outer loop
      vertex -20.2319 -17.2817 1.5
      vertex 11.1572 -17.2962 1.5
      vertex -17.3297 11.1907 1.5
    endloop
  endfacet
  facet normal 0 0 1
    outer loop
      vertex -13.9614 14.559 1.5
      vertex -20.2181 17.6797 1.5
      vertex -17.3297 11.1907 1.5
    endloop
  endfacet
  facet normal 0 0 1
    outer loop
      vertex -20.2181 17.6797 1.5
      vertex -17.3317 20.2666 1.5
      vertex -17.9243 20.2004 1.5
    endloop
  endfacet
  facet normal 0 0 1
    outer loop
      vertex 11.1572 -17.2962 1.5
      vertex -20.2319 -17.2817 1.5
      vertex -17.6756 -20.1866 1.5
    endloop
  endfacet
  facet normal 0 0 1
    outer loop
      vertex -20.2181 17.6797 1.5
      vertex -17.9243 20.2004 1.5
      vertex -18.4892 20.0157 1.5
    endloop
  endfacet
  facet normal -0 -0 1
    outer loop
      vertex -18.6948 -19.884 1.5
      vertex -17.6756 -20.1866 1.5
      vertex -20.2319 -17.2817 1.5
    endloop
  endfacet
  facet normal 0 0 1
    outer loop
      vertex -20.2181 17.6797 1.5
      vertex -18.4892 20.0157 1.5
      vertex -19.0068 19.7251 1.5
    endloop
  endfacet
  facet normal 0 0 1
    outer loop
      vertex -17.6756 -20.1866 1.5
      vertex -18.6948 -19.884 1.5
      vertex -18.204 -20.0851 1.5
    endloop
  endfacet
  facet normal 0 0 1
    outer loop
      vertex -20.2181 17.6797 1.5
      vertex -19.0068 19.7251 1.5
      vertex -19.4575 19.3414 1.5
    endloop
  endfacet
  facet normal 0 0 1
    outer loop
      vertex -18.6948 -19.884 1.5
      vertex -20.2319 -17.2817 1.5
      vertex -19.137 -19.5956 1.5
    endloop
  endfacet
  facet normal 0 0 1
    outer loop
      vertex -19.137 -19.5956 1.5
      vertex -20.2319 -17.2817 1.5
      vertex -19.5196 -19.2325 1.5
    endloop
  endfacet
  facet normal 0 0 1
    outer loop
      vertex -20.2181 17.6797 1.5
      vertex -19.4575 19.3414 1.5
      vertex -19.9812 18.5847 1.5
    endloop
  endfacet
  facet normal 0 0 1
    outer loop
      vertex -19.5196 -19.2325 1.5
      vertex -20.2319 -17.2817 1.5
      vertex -19.8314 -18.807 1.5
    endloop
  endfacet
  facet normal 0 0 1
    outer loop
      vertex -20.2181 17.6797 1.5
      vertex -19.9812 18.5847 1.5
      vertex -20.1402 18.1477 1.5
    endloop
  endfacet
  facet normal 0 0 1
    outer loop
      vertex -19.8314 -18.807 1.5
      vertex -20.2319 -17.2817 1.5
      vertex -20.0614 -18.3318 1.5
    endloop
  endfacet
  facet normal 0 0 1
    outer loop
      vertex -17.3297 11.1907 1.5
      vertex -20.2181 17.6797 1.5
      vertex -20.2319 -17.2817 1.5
    endloop
  endfacet
  facet normal 0 0 1
    outer loop
      vertex -20.0614 -18.3318 1.5
      vertex -20.2319 -17.2817 1.5
      vertex -20.1986 -17.8191 1.5
    endloop
  endfacet
  facet normal 0 0 1
    outer loop
      vertex 3.55046 -2.9529 1.5
      vertex 5.93201 8.00357 1.5
      vertex 3.55046 8.00357 1.5
    endloop
  endfacet
  facet normal 0 0 1
    outer loop
      vertex 5.93201 8.00357 1.5
      vertex 3.55046 -2.9529 1.5
      vertex 14.5255 -13.9279 1.5
    endloop
  endfacet
  facet normal -0 0 1
    outer loop
      vertex -3.59469 8.0034 1.5
      vertex -1.21297 1.8105 1.5
      vertex -1.21297 8.00354 1.5
    endloop
  endfacet
  facet normal 0 0 1
    outer loop
      vertex -1.21297 1.8105 1.5
      vertex -3.59469 8.0034 1.5
      vertex -13.9614 14.559 1.5
    endloop
  endfacet
  facet normal 0.140839 0.990032 -0
    outer loop
      vertex 19.1629 24.7898 0
      vertex 17.8208 24.9807 1.5
      vertex 19.1629 24.7898 1.5
    endloop
  endfacet
  facet normal 0.140839 0.990032 0
    outer loop
      vertex 17.8208 24.9807 1.5
      vertex 19.1629 24.7898 0
      vertex 17.8208 24.9807 0
    endloop
  endfacet
  facet normal 0.326934 0.945047 -0
    outer loop
      vertex 20.4349 24.3498 0
      vertex 19.1629 24.7898 1.5
      vertex 20.4349 24.3498 1.5
    endloop
  endfacet
  facet normal 0.326934 0.945047 0
    outer loop
      vertex 19.1629 24.7898 1.5
      vertex 20.4349 24.3498 0
      vertex 19.1629 24.7898 0
    endloop
  endfacet
  facet normal 0.491016 0.87115 -0
    outer loop
      vertex 21.6069 23.6891 0
      vertex 20.4349 24.3498 1.5
      vertex 21.6069 23.6891 1.5
    endloop
  endfacet
  facet normal 0.491016 0.87115 0
    outer loop
      vertex 20.4349 24.3498 1.5
      vertex 21.6069 23.6891 0
      vertex 20.4349 24.3498 0
    endloop
  endfacet
  facet normal 0.633119 0.774055 -0
    outer loop
      vertex 22.6496 22.8363 0
      vertex 21.6069 23.6891 1.5
      vertex 22.6496 22.8363 1.5
    endloop
  endfacet
  facet normal 0.633119 0.774055 0
    outer loop
      vertex 21.6069 23.6891 1.5
      vertex 22.6496 22.8363 0
      vertex 21.6069 23.6891 0
    endloop
  endfacet
  facet normal 0.754732 0.656033 0
    outer loop
      vertex 23.5331 21.8199 1.5
      vertex 22.6496 22.8363 0
      vertex 22.6496 22.8363 1.5
    endloop
  endfacet
  facet normal 0.754732 0.656033 0
    outer loop
      vertex 22.6496 22.8363 0
      vertex 23.5331 21.8199 1.5
      vertex 23.5331 21.8199 0
    endloop
  endfacet
  facet normal 0.856234 0.516588 0
    outer loop
      vertex 24.228 20.6682 1.5
      vertex 23.5331 21.8199 0
      vertex 23.5331 21.8199 1.5
    endloop
  endfacet
  facet normal 0.856234 0.516588 0
    outer loop
      vertex 23.5331 21.8199 0
      vertex 24.228 20.6682 1.5
      vertex 24.228 20.6682 0
    endloop
  endfacet
  facet normal 0.935195 0.354133 0
    outer loop
      vertex 24.7045 19.4097 1.5
      vertex 24.228 20.6682 0
      vertex 24.228 20.6682 1.5
    endloop
  endfacet
  facet normal 0.935195 0.354133 0
    outer loop
      vertex 24.228 20.6682 0
      vertex 24.7045 19.4097 1.5
      vertex 24.7045 19.4097 0
    endloop
  endfacet
  facet normal 0.985689 0.168575 0
    outer loop
      vertex 24.9331 18.0729 1.5
      vertex 24.7045 19.4097 0
      vertex 24.7045 19.4097 1.5
    endloop
  endfacet
  facet normal 0.985689 0.168575 0
    outer loop
      vertex 24.7045 19.4097 0
      vertex 24.9331 18.0729 1.5
      vertex 24.9331 18.0729 0
    endloop
  endfacet
  facet normal 0.999959 0.0090372 0
    outer loop
      vertex 25.0126 9.2843 1.5
      vertex 24.9331 18.0729 0
      vertex 24.9331 18.0729 1.5
    endloop
  endfacet
  facet normal 0.999959 0.0090372 0
    outer loop
      vertex 24.9331 18.0729 0
      vertex 25.0126 9.2843 1.5
      vertex 25.0126 9.2843 0
    endloop
  endfacet
  facet normal 0.999995 -0.00316829 0
    outer loop
      vertex 24.9846 0.470277 1.5
      vertex 25.0126 9.2843 0
      vertex 25.0126 9.2843 1.5
    endloop
  endfacet
  facet normal 0.999995 -0.00316829 0
    outer loop
      vertex 25.0126 9.2843 0
      vertex 24.9846 0.470277 1.5
      vertex 24.9846 0.470277 0
    endloop
  endfacet
  facet normal 0.999985 -0.00553998 0
    outer loop
      vertex 24.9347 -8.54063 1.5
      vertex 24.9846 0.470277 0
      vertex 24.9846 0.470277 1.5
    endloop
  endfacet
  facet normal 0.999985 -0.00553998 0
    outer loop
      vertex 24.9846 0.470277 0
      vertex 24.9347 -8.54063 1.5
      vertex 24.9347 -8.54063 0
    endloop
  endfacet
  facet normal 0.999999 0.00143265 0
    outer loop
      vertex 24.9482 -17.9199 1.5
      vertex 24.9347 -8.54063 0
      vertex 24.9347 -8.54063 1.5
    endloop
  endfacet
  facet normal 0.999999 0.00143265 0
    outer loop
      vertex 24.9347 -8.54063 0
      vertex 24.9482 -17.9199 1.5
      vertex 24.9482 -17.9199 0
    endloop
  endfacet
  facet normal 0.988235 -0.152943 0
    outer loop
      vertex 24.7399 -19.2654 1.5
      vertex 24.9482 -17.9199 0
      vertex 24.9482 -17.9199 1.5
    endloop
  endfacet
  facet normal 0.988235 -0.152943 0
    outer loop
      vertex 24.9482 -17.9199 0
      vertex 24.7399 -19.2654 1.5
      vertex 24.7399 -19.2654 0
    endloop
  endfacet
  facet normal 0.940402 -0.340066 0
    outer loop
      vertex 24.2804 -20.536 1.5
      vertex 24.7399 -19.2654 0
      vertex 24.7399 -19.2654 1.5
    endloop
  endfacet
  facet normal 0.940402 -0.340066 0
    outer loop
      vertex 24.7399 -19.2654 0
      vertex 24.2804 -20.536 1.5
      vertex 24.2804 -20.536 0
    endloop
  endfacet
  facet normal 0.863545 -0.504273 0
    outer loop
      vertex 23.5992 -21.7025 1.5
      vertex 24.2804 -20.536 0
      vertex 24.2804 -20.536 1.5
    endloop
  endfacet
  facet normal 0.863545 -0.504273 0
    outer loop
      vertex 24.2804 -20.536 0
      vertex 23.5992 -21.7025 1.5
      vertex 23.5992 -21.7025 0
    endloop
  endfacet
  facet normal 0.763654 -0.645626 0
    outer loop
      vertex 22.7259 -22.7355 1.5
      vertex 23.5992 -21.7025 0
      vertex 23.5992 -21.7025 1.5
    endloop
  endfacet
  facet normal 0.763654 -0.645626 0
    outer loop
      vertex 23.5992 -21.7025 0
      vertex 22.7259 -22.7355 1.5
      vertex 22.7259 -22.7355 0
    endloop
  endfacet
  facet normal 0.643139 -0.76575 0
    outer loop
      vertex 21.6901 -23.6055 0
      vertex 22.7259 -22.7355 1.5
      vertex 21.6901 -23.6055 1.5
    endloop
  endfacet
  facet normal 0.643139 -0.76575 0
    outer loop
      vertex 22.7259 -22.7355 1.5
      vertex 21.6901 -23.6055 0
      vertex 22.7259 -22.7355 0
    endloop
  endfacet
  facet normal 0.501552 -0.865128 0
    outer loop
      vertex 20.5214 -24.283 0
      vertex 21.6901 -23.6055 1.5
      vertex 20.5214 -24.283 1.5
    endloop
  endfacet
  facet normal 0.501552 -0.865128 0
    outer loop
      vertex 21.6901 -23.6055 1.5
      vertex 20.5214 -24.283 0
      vertex 21.6901 -23.6055 0
    endloop
  endfacet
  facet normal 0.337278 -0.941405 0
    outer loop
      vertex 19.2493 -24.7388 0
      vertex 20.5214 -24.283 1.5
      vertex 19.2493 -24.7388 1.5
    endloop
  endfacet
  facet normal 0.337278 -0.941405 0
    outer loop
      vertex 20.5214 -24.283 1.5
      vertex 19.2493 -24.7388 0
      vertex 20.5214 -24.283 0
    endloop
  endfacet
  facet normal 0.15024 -0.98865 0
    outer loop
      vertex 17.9035 -24.9433 0
      vertex 19.2493 -24.7388 1.5
      vertex 17.9035 -24.9433 1.5
    endloop
  endfacet
  facet normal 0.15024 -0.98865 0
    outer loop
      vertex 19.2493 -24.7388 1.5
      vertex 17.9035 -24.9433 0
      vertex 19.2493 -24.7388 0
    endloop
  endfacet
  facet normal 0.00301694 -0.999995 0
    outer loop
      vertex 0.165532 -24.9968 0
      vertex 17.9035 -24.9433 1.5
      vertex 0.165532 -24.9968 1.5
    endloop
  endfacet
  facet normal 0.00301694 -0.999995 0
    outer loop
      vertex 17.9035 -24.9433 1.5
      vertex 0.165532 -24.9968 0
      vertex 17.9035 -24.9433 0
    endloop
  endfacet
  facet normal -0.00645128 -0.999979 0
    outer loop
      vertex -18.5324 -24.8762 0
      vertex 0.165532 -24.9968 1.5
      vertex -18.5324 -24.8762 1.5
    endloop
  endfacet
  facet normal -0.00645128 -0.999979 -0
    outer loop
      vertex 0.165532 -24.9968 1.5
      vertex -18.5324 -24.8762 0
      vertex 0.165532 -24.9968 0
    endloop
  endfacet
  facet normal -0.229651 -0.973273 0
    outer loop
      vertex -19.8516 -24.5649 0
      vertex -18.5324 -24.8762 1.5
      vertex -19.8516 -24.5649 1.5
    endloop
  endfacet
  facet normal -0.229651 -0.973273 -0
    outer loop
      vertex -18.5324 -24.8762 1.5
      vertex -19.8516 -24.5649 0
      vertex -18.5324 -24.8762 0
    endloop
  endfacet
  facet normal -0.410871 -0.911694 0
    outer loop
      vertex -21.0782 -24.0121 0
      vertex -19.8516 -24.5649 1.5
      vertex -21.0782 -24.0121 1.5
    endloop
  endfacet
  facet normal -0.410871 -0.911694 -0
    outer loop
      vertex -19.8516 -24.5649 1.5
      vertex -21.0782 -24.0121 0
      vertex -19.8516 -24.5649 0
    endloop
  endfacet
  facet normal -0.567568 -0.823327 0
    outer loop
      vertex -22.1856 -23.2487 0
      vertex -21.0782 -24.0121 1.5
      vertex -22.1856 -23.2487 1.5
    endloop
  endfacet
  facet normal -0.567568 -0.823327 -0
    outer loop
      vertex -21.0782 -24.0121 1.5
      vertex -22.1856 -23.2487 0
      vertex -21.0782 -24.0121 0
    endloop
  endfacet
  facet normal -0.700283 -0.713865 0
    outer loop
      vertex -23.1468 -22.3058 0
      vertex -22.1856 -23.2487 1.5
      vertex -23.1468 -22.3058 1.5
    endloop
  endfacet
  facet normal -0.700283 -0.713865 -0
    outer loop
      vertex -22.1856 -23.2487 1.5
      vertex -23.1468 -22.3058 0
      vertex -22.1856 -23.2487 0
    endloop
  endfacet
  facet normal -0.810704 -0.585456 0
    outer loop
      vertex -23.1468 -22.3058 0
      vertex -23.9351 -21.2143 1.5
      vertex -23.9351 -21.2143 0
    endloop
  endfacet
  facet normal -0.810704 -0.585456 0
    outer loop
      vertex -23.9351 -21.2143 1.5
      vertex -23.1468 -22.3058 0
      vertex -23.1468 -22.3058 1.5
    endloop
  endfacet
  facet normal -0.899177 -0.437586 0
    outer loop
      vertex -23.9351 -21.2143 0
      vertex -24.5235 -20.0053 1.5
      vertex -24.5235 -20.0053 0
    endloop
  endfacet
  facet normal -0.899177 -0.437586 0
    outer loop
      vertex -24.5235 -20.0053 1.5
      vertex -23.9351 -21.2143 0
      vertex -23.9351 -21.2143 1.5
    endloop
  endfacet
  facet normal -0.963172 -0.268884 0
    outer loop
      vertex -24.5235 -20.0053 0
      vertex -24.8851 -18.7097 1.5
      vertex -24.8851 -18.7097 0
    endloop
  endfacet
  facet normal -0.963172 -0.268884 0
    outer loop
      vertex -24.8851 -18.7097 1.5
      vertex -24.5235 -20.0053 0
      vertex -24.5235 -20.0053 1.5
    endloop
  endfacet
  facet normal -0.996813 -0.0797684 0
    outer loop
      vertex -24.8851 -18.7097 0
      vertex -24.9933 -17.3585 1.5
      vertex -24.9933 -17.3585 0
    endloop
  endfacet
  facet normal -0.996813 -0.0797684 0
    outer loop
      vertex -24.9933 -17.3585 1.5
      vertex -24.8851 -18.7097 0
      vertex -24.8851 -18.7097 1.5
    endloop
  endfacet
  facet normal -0.999999 -0.00110844 0
    outer loop
      vertex -24.9933 -17.3585 0
      vertex -25.0126 0.0433731 1.5
      vertex -25.0126 0.0433731 0
    endloop
  endfacet
  facet normal -0.999999 -0.00110844 0
    outer loop
      vertex -25.0126 0.0433731 1.5
      vertex -24.9933 -17.3585 0
      vertex -24.9933 -17.3585 1.5
    endloop
  endfacet
  facet normal -0.999994 0.00353465 0
    outer loop
      vertex -25.0126 0.0433731 0
      vertex -24.9482 18.245 1.5
      vertex -24.9482 18.245 0
    endloop
  endfacet
  facet normal -0.999994 0.00353465 0
    outer loop
      vertex -24.9482 18.245 1.5
      vertex -25.0126 0.0433731 0
      vertex -25.0126 0.0433731 1.5
    endloop
  endfacet
  facet normal -0.981639 0.190748 0
    outer loop
      vertex -24.9482 18.245 0
      vertex -24.6891 19.5785 1.5
      vertex -24.6891 19.5785 0
    endloop
  endfacet
  facet normal -0.981639 0.190748 0
    outer loop
      vertex -24.6891 19.5785 1.5
      vertex -24.9482 18.245 0
      vertex -24.9482 18.245 1.5
    endloop
  endfacet
  facet normal -0.926967 0.375144 0
    outer loop
      vertex -24.6891 19.5785 0
      vertex -24.1833 20.8284 1.5
      vertex -24.1833 20.8284 0
    endloop
  endfacet
  facet normal -0.926967 0.375144 0
    outer loop
      vertex -24.1833 20.8284 1.5
      vertex -24.6891 19.5785 0
      vertex -24.6891 19.5785 1.5
    endloop
  endfacet
  facet normal -0.844352 0.535789 0
    outer loop
      vertex -24.1833 20.8284 0
      vertex -23.4611 21.9665 1.5
      vertex -23.4611 21.9665 0
    endloop
  endfacet
  facet normal -0.844352 0.535789 0
    outer loop
      vertex -23.4611 21.9665 1.5
      vertex -24.1833 20.8284 0
      vertex -24.1833 20.8284 1.5
    endloop
  endfacet
  facet normal -0.739663 0.672977 0
    outer loop
      vertex -23.4611 21.9665 0
      vertex -22.5528 22.9648 1.5
      vertex -22.5528 22.9648 0
    endloop
  endfacet
  facet normal -0.739663 0.672977 0
    outer loop
      vertex -22.5528 22.9648 1.5
      vertex -23.4611 21.9665 0
      vertex -23.4611 21.9665 1.5
    endloop
  endfacet
  facet normal -0.615203 0.788368 0
    outer loop
      vertex -21.4889 23.795 0
      vertex -22.5528 22.9648 1.5
      vertex -21.4889 23.795 1.5
    endloop
  endfacet
  facet normal -0.615203 0.788368 0
    outer loop
      vertex -22.5528 22.9648 1.5
      vertex -21.4889 23.795 0
      vertex -22.5528 22.9648 0
    endloop
  endfacet
  facet normal -0.470502 0.882399 0
    outer loop
      vertex -20.2996 24.4292 0
      vertex -21.4889 23.795 1.5
      vertex -20.2996 24.4292 1.5
    endloop
  endfacet
  facet normal -0.470502 0.882399 0
    outer loop
      vertex -21.4889 23.795 1.5
      vertex -20.2996 24.4292 0
      vertex -21.4889 23.795 0
    endloop
  endfacet
  facet normal -0.304079 0.952647 0
    outer loop
      vertex -19.0152 24.8391 0
      vertex -20.2996 24.4292 1.5
      vertex -19.0152 24.8391 1.5
    endloop
  endfacet
  facet normal -0.304079 0.952647 0
    outer loop
      vertex -20.2996 24.4292 1.5
      vertex -19.0152 24.8391 0
      vertex -20.2996 24.4292 0
    endloop
  endfacet
  facet normal -0.116077 0.99324 0
    outer loop
      vertex -17.666 24.9968 0
      vertex -19.0152 24.8391 1.5
      vertex -17.666 24.9968 1.5
    endloop
  endfacet
  facet normal -0.116077 0.99324 0
    outer loop
      vertex -19.0152 24.8391 1.5
      vertex -17.666 24.9968 0
      vertex -19.0152 24.8391 0
    endloop
  endfacet
  facet normal 0.000454064 1 -0
    outer loop
      vertex 17.8208 24.9807 0
      vertex -17.666 24.9968 1.5
      vertex 17.8208 24.9807 1.5
    endloop
  endfacet
  facet normal 0.000454064 1 0
    outer loop
      vertex -17.666 24.9968 1.5
      vertex 17.8208 24.9807 0
      vertex -17.666 24.9968 0
    endloop
  endfacet
endsolid OpenSCAD_Model
