solid OpenSCAD_Model
  facet normal 0.994522 0.104529 0
    outer loop
      vertex 18.5 0 8
      vertex 18.0957 3.84637 2
      vertex 18.0957 3.84637 8
    endloop
  endfacet
  facet normal 0.994522 0.104529 0
    outer loop
      vertex 18.0957 3.84637 2
      vertex 18.5 0 8
      vertex 18.5 0 2
    endloop
  endfacet
  facet normal -0.994522 0.104529 0
    outer loop
      vertex -18.5 0 2
      vertex -18.0957 3.84637 8
      vertex -18.0957 3.84637 2
    endloop
  endfacet
  facet normal -0.994522 0.104529 0
    outer loop
      vertex -18.0957 3.84637 8
      vertex -18.5 0 2
      vertex -18.5 0 8
    endloop
  endfacet
  facet normal 0 1 -0
    outer loop
      vertex 1.93378 18.3987 2
      vertex -1.93378 18.3987 8
      vertex 1.93378 18.3987 8
    endloop
  endfacet
  facet normal 0 1 0
    outer loop
      vertex -1.93378 18.3987 8
      vertex 1.93378 18.3987 2
      vertex -1.93378 18.3987 2
    endloop
  endfacet
  facet normal 0 -1 0
    outer loop
      vertex -1.93378 -18.3987 2
      vertex 1.93378 -18.3987 8
      vertex -1.93378 -18.3987 8
    endloop
  endfacet
  facet normal 0 -1 -0
    outer loop
      vertex 1.93378 -18.3987 8
      vertex -1.93378 -18.3987 2
      vertex 1.93378 -18.3987 2
    endloop
  endfacet
  facet normal 0.587785 0.809017 -0
    outer loop
      vertex 12.3789 13.7482 2
      vertex 9.25 16.0215 8
      vertex 12.3789 13.7482 8
    endloop
  endfacet
  facet normal 0.587785 0.809017 0
    outer loop
      vertex 9.25 16.0215 8
      vertex 12.3789 13.7482 2
      vertex 9.25 16.0215 2
    endloop
  endfacet
  facet normal 0.406737 0.913545 -0
    outer loop
      vertex 9.25 16.0215 2
      vertex 5.71681 17.5945 8
      vertex 9.25 16.0215 8
    endloop
  endfacet
  facet normal 0.406737 0.913545 0
    outer loop
      vertex 5.71681 17.5945 8
      vertex 9.25 16.0215 2
      vertex 5.71681 17.5945 2
    endloop
  endfacet
  facet normal -0.587785 0.809017 0
    outer loop
      vertex -9.25 16.0215 2
      vertex -12.3789 13.7482 8
      vertex -9.25 16.0215 8
    endloop
  endfacet
  facet normal -0.587785 0.809017 0
    outer loop
      vertex -12.3789 13.7482 8
      vertex -9.25 16.0215 2
      vertex -12.3789 13.7482 2
    endloop
  endfacet
  facet normal -0.207912 0.978148 0
    outer loop
      vertex -1.93378 18.3987 2
      vertex -5.71681 17.5945 8
      vertex -1.93378 18.3987 8
    endloop
  endfacet
  facet normal -0.207912 0.978148 0
    outer loop
      vertex -5.71681 17.5945 8
      vertex -1.93378 18.3987 2
      vertex -5.71681 17.5945 2
    endloop
  endfacet
  facet normal 0.951057 -0.309017 0
    outer loop
      vertex 16.9006 -7.52463 8
      vertex 18.0957 -3.84637 2
      vertex 18.0957 -3.84637 8
    endloop
  endfacet
  facet normal 0.951057 -0.309017 0
    outer loop
      vertex 18.0957 -3.84637 2
      vertex 16.9006 -7.52463 8
      vertex 16.9006 -7.52463 2
    endloop
  endfacet
  facet normal 0.866025 0.5 0
    outer loop
      vertex 16.9006 7.52463 8
      vertex 14.9668 10.874 2
      vertex 14.9668 10.874 8
    endloop
  endfacet
  facet normal 0.866025 0.5 0
    outer loop
      vertex 14.9668 10.874 2
      vertex 16.9006 7.52463 8
      vertex 16.9006 7.52463 2
    endloop
  endfacet
  facet normal 0.951057 0.309017 0
    outer loop
      vertex 18.0957 3.84637 8
      vertex 16.9006 7.52463 2
      vertex 16.9006 7.52463 8
    endloop
  endfacet
  facet normal 0.951057 0.309017 0
    outer loop
      vertex 16.9006 7.52463 2
      vertex 18.0957 3.84637 8
      vertex 18.0957 3.84637 2
    endloop
  endfacet
  facet normal 0.743145 0.669131 0
    outer loop
      vertex 14.9668 10.874 8
      vertex 12.3789 13.7482 2
      vertex 12.3789 13.7482 8
    endloop
  endfacet
  facet normal 0.743145 0.669131 0
    outer loop
      vertex 12.3789 13.7482 2
      vertex 14.9668 10.874 8
      vertex 14.9668 10.874 2
    endloop
  endfacet
  facet normal 0.207912 0.978148 -0
    outer loop
      vertex 5.71681 17.5945 2
      vertex 1.93378 18.3987 8
      vertex 5.71681 17.5945 8
    endloop
  endfacet
  facet normal 0.207912 0.978148 0
    outer loop
      vertex 1.93378 18.3987 8
      vertex 5.71681 17.5945 2
      vertex 1.93378 18.3987 2
    endloop
  endfacet
  facet normal -0.866025 0.5 0
    outer loop
      vertex -16.9006 7.52463 2
      vertex -14.9668 10.874 8
      vertex -14.9668 10.874 2
    endloop
  endfacet
  facet normal -0.866025 0.5 0
    outer loop
      vertex -14.9668 10.874 8
      vertex -16.9006 7.52463 2
      vertex -16.9006 7.52463 8
    endloop
  endfacet
  facet normal -0.743145 0.669131 0
    outer loop
      vertex -14.9668 10.874 2
      vertex -12.3789 13.7482 8
      vertex -12.3789 13.7482 2
    endloop
  endfacet
  facet normal -0.743145 0.669131 0
    outer loop
      vertex -12.3789 13.7482 8
      vertex -14.9668 10.874 2
      vertex -14.9668 10.874 8
    endloop
  endfacet
  facet normal -0.951057 0.309017 0
    outer loop
      vertex -18.0957 3.84637 2
      vertex -16.9006 7.52463 8
      vertex -16.9006 7.52463 2
    endloop
  endfacet
  facet normal -0.951057 0.309017 0
    outer loop
      vertex -16.9006 7.52463 8
      vertex -18.0957 3.84637 2
      vertex -18.0957 3.84637 8
    endloop
  endfacet
  facet normal 0 0 1
    outer loop
      vertex 17 0 8
      vertex 18.5 0 8
      vertex 18.0957 3.84637 8
    endloop
  endfacet
  facet normal 0 0 1
    outer loop
      vertex 18.5 0 8
      vertex 17 0 8
      vertex 18.0957 -3.84637 8
    endloop
  endfacet
  facet normal 0 0 1
    outer loop
      vertex 16.6285 3.5345 8
      vertex 18.0957 3.84637 8
      vertex 16.9006 7.52463 8
    endloop
  endfacet
  facet normal 0 0 1
    outer loop
      vertex 18.0957 3.84637 8
      vertex 16.6285 3.5345 8
      vertex 17 0 8
    endloop
  endfacet
  facet normal 0 0 1
    outer loop
      vertex 16.9006 7.52463 8
      vertex 15.5303 6.91452 8
      vertex 16.6285 3.5345 8
    endloop
  endfacet
  facet normal 0 0 1
    outer loop
      vertex 14.9668 10.874 8
      vertex 15.5303 6.91452 8
      vertex 16.9006 7.52463 8
    endloop
  endfacet
  facet normal 0 0 1
    outer loop
      vertex 14.9668 10.874 8
      vertex 13.7533 9.99235 8
      vertex 15.5303 6.91452 8
    endloop
  endfacet
  facet normal 0 0 1
    outer loop
      vertex 12.3789 13.7482 8
      vertex 13.7533 9.99235 8
      vertex 14.9668 10.874 8
    endloop
  endfacet
  facet normal 0 0 1
    outer loop
      vertex 12.3789 13.7482 8
      vertex 11.3752 12.6335 8
      vertex 13.7533 9.99235 8
    endloop
  endfacet
  facet normal 0 0 1
    outer loop
      vertex 9.25 16.0215 8
      vertex 11.3752 12.6335 8
      vertex 12.3789 13.7482 8
    endloop
  endfacet
  facet normal 0 0 1
    outer loop
      vertex 9.25 16.0215 8
      vertex 8.5 14.7224 8
      vertex 11.3752 12.6335 8
    endloop
  endfacet
  facet normal 0 0 1
    outer loop
      vertex 5.71681 17.5945 8
      vertex 8.5 14.7224 8
      vertex 9.25 16.0215 8
    endloop
  endfacet
  facet normal 0 0 1
    outer loop
      vertex 5.71681 17.5945 8
      vertex 5.25329 16.168 8
      vertex 8.5 14.7224 8
    endloop
  endfacet
  facet normal 0 0 1
    outer loop
      vertex 1.93378 18.3987 8
      vertex 5.25329 16.168 8
      vertex 5.71681 17.5945 8
    endloop
  endfacet
  facet normal 0 0 1
    outer loop
      vertex 1.93378 18.3987 8
      vertex 1.77698 16.9069 8
      vertex 5.25329 16.168 8
    endloop
  endfacet
  facet normal 0 0 1
    outer loop
      vertex 1.93378 18.3987 8
      vertex -1.77698 16.9069 8
      vertex 1.77698 16.9069 8
    endloop
  endfacet
  facet normal -0 0 1
    outer loop
      vertex -1.93378 18.3987 8
      vertex -1.77698 16.9069 8
      vertex 1.93378 18.3987 8
    endloop
  endfacet
  facet normal 0 0 1
    outer loop
      vertex -1.93378 18.3987 8
      vertex -5.25329 16.168 8
      vertex -1.77698 16.9069 8
    endloop
  endfacet
  facet normal -0 0 1
    outer loop
      vertex -5.71681 17.5945 8
      vertex -5.25329 16.168 8
      vertex -1.93378 18.3987 8
    endloop
  endfacet
  facet normal 0 0 1
    outer loop
      vertex -5.71681 17.5945 8
      vertex -8.5 14.7224 8
      vertex -5.25329 16.168 8
    endloop
  endfacet
  facet normal -0 0 1
    outer loop
      vertex -9.25 16.0215 8
      vertex -8.5 14.7224 8
      vertex -5.71681 17.5945 8
    endloop
  endfacet
  facet normal 0 0 1
    outer loop
      vertex -9.25 16.0215 8
      vertex -11.3752 12.6335 8
      vertex -8.5 14.7224 8
    endloop
  endfacet
  facet normal -0 0 1
    outer loop
      vertex -12.3789 13.7482 8
      vertex -11.3752 12.6335 8
      vertex -9.25 16.0215 8
    endloop
  endfacet
  facet normal 0 0 1
    outer loop
      vertex -12.3789 13.7482 8
      vertex -13.7533 9.99235 8
      vertex -11.3752 12.6335 8
    endloop
  endfacet
  facet normal -0 0 1
    outer loop
      vertex -14.9668 10.874 8
      vertex -13.7533 9.99235 8
      vertex -12.3789 13.7482 8
    endloop
  endfacet
  facet normal 0 0 1
    outer loop
      vertex -14.9668 10.874 8
      vertex -15.5303 6.91452 8
      vertex -13.7533 9.99235 8
    endloop
  endfacet
  facet normal -0 0 1
    outer loop
      vertex -16.9006 7.52463 8
      vertex -15.5303 6.91452 8
      vertex -14.9668 10.874 8
    endloop
  endfacet
  facet normal 0 0 1
    outer loop
      vertex -15.5303 6.91452 8
      vertex -16.9006 7.52463 8
      vertex -16.6285 3.5345 8
    endloop
  endfacet
  facet normal -0 0 1
    outer loop
      vertex -18.0957 3.84637 8
      vertex -16.6285 3.5345 8
      vertex -16.9006 7.52463 8
    endloop
  endfacet
  facet normal 0 0 1
    outer loop
      vertex -16.6285 3.5345 8
      vertex -18.0957 3.84637 8
      vertex -17 0 8
    endloop
  endfacet
  facet normal -0 0 1
    outer loop
      vertex 16.6285 -3.5345 8
      vertex 18.0957 -3.84637 8
      vertex 17 0 8
    endloop
  endfacet
  facet normal 0 0 1
    outer loop
      vertex 18.0957 -3.84637 8
      vertex 16.6285 -3.5345 8
      vertex 16.9006 -7.52463 8
    endloop
  endfacet
  facet normal -0 0 1
    outer loop
      vertex 15.5303 -6.91452 8
      vertex 16.9006 -7.52463 8
      vertex 16.6285 -3.5345 8
    endloop
  endfacet
  facet normal 0 0 1
    outer loop
      vertex 15.5303 -6.91452 8
      vertex 14.9668 -10.874 8
      vertex 16.9006 -7.52463 8
    endloop
  endfacet
  facet normal -0 0 1
    outer loop
      vertex 13.7533 -9.99235 8
      vertex 14.9668 -10.874 8
      vertex 15.5303 -6.91452 8
    endloop
  endfacet
  facet normal 0 0 1
    outer loop
      vertex 13.7533 -9.99235 8
      vertex 12.3789 -13.7482 8
      vertex 14.9668 -10.874 8
    endloop
  endfacet
  facet normal -0 0 1
    outer loop
      vertex 11.3752 -12.6335 8
      vertex 12.3789 -13.7482 8
      vertex 13.7533 -9.99235 8
    endloop
  endfacet
  facet normal 0 0 1
    outer loop
      vertex 11.3752 -12.6335 8
      vertex 9.25 -16.0215 8
      vertex 12.3789 -13.7482 8
    endloop
  endfacet
  facet normal -0 0 1
    outer loop
      vertex 8.5 -14.7224 8
      vertex 9.25 -16.0215 8
      vertex 11.3752 -12.6335 8
    endloop
  endfacet
  facet normal 0 0 1
    outer loop
      vertex 8.5 -14.7224 8
      vertex 5.71681 -17.5945 8
      vertex 9.25 -16.0215 8
    endloop
  endfacet
  facet normal -0 0 1
    outer loop
      vertex 5.25329 -16.168 8
      vertex 5.71681 -17.5945 8
      vertex 8.5 -14.7224 8
    endloop
  endfacet
  facet normal 0 0 1
    outer loop
      vertex 5.25329 -16.168 8
      vertex 1.93378 -18.3987 8
      vertex 5.71681 -17.5945 8
    endloop
  endfacet
  facet normal -0 0 1
    outer loop
      vertex 1.77698 -16.9069 8
      vertex 1.93378 -18.3987 8
      vertex 5.25329 -16.168 8
    endloop
  endfacet
  facet normal -0 0 1
    outer loop
      vertex -1.77698 -16.9069 8
      vertex 1.93378 -18.3987 8
      vertex 1.77698 -16.9069 8
    endloop
  endfacet
  facet normal 0 0 1
    outer loop
      vertex -1.77698 -16.9069 8
      vertex -1.93378 -18.3987 8
      vertex 1.93378 -18.3987 8
    endloop
  endfacet
  facet normal 0 0 1
    outer loop
      vertex -5.25329 -16.168 8
      vertex -1.93378 -18.3987 8
      vertex -1.77698 -16.9069 8
    endloop
  endfacet
  facet normal 0 0 1
    outer loop
      vertex -5.25329 -16.168 8
      vertex -5.71681 -17.5945 8
      vertex -1.93378 -18.3987 8
    endloop
  endfacet
  facet normal 0 0 1
    outer loop
      vertex -8.5 -14.7224 8
      vertex -5.71681 -17.5945 8
      vertex -5.25329 -16.168 8
    endloop
  endfacet
  facet normal 0 0 1
    outer loop
      vertex -8.5 -14.7224 8
      vertex -9.25 -16.0215 8
      vertex -5.71681 -17.5945 8
    endloop
  endfacet
  facet normal 0 0 1
    outer loop
      vertex -11.3752 -12.6335 8
      vertex -9.25 -16.0215 8
      vertex -8.5 -14.7224 8
    endloop
  endfacet
  facet normal 0 0 1
    outer loop
      vertex -11.3752 -12.6335 8
      vertex -12.3789 -13.7482 8
      vertex -9.25 -16.0215 8
    endloop
  endfacet
  facet normal 0 0 1
    outer loop
      vertex -13.7533 -9.99235 8
      vertex -12.3789 -13.7482 8
      vertex -11.3752 -12.6335 8
    endloop
  endfacet
  facet normal 0 0 1
    outer loop
      vertex -13.7533 -9.99235 8
      vertex -14.9668 -10.874 8
      vertex -12.3789 -13.7482 8
    endloop
  endfacet
  facet normal 0 0 1
    outer loop
      vertex -15.5303 -6.91452 8
      vertex -14.9668 -10.874 8
      vertex -13.7533 -9.99235 8
    endloop
  endfacet
  facet normal 0 0 1
    outer loop
      vertex -16.9006 -7.52463 8
      vertex -15.5303 -6.91452 8
      vertex -16.6285 -3.5345 8
    endloop
  endfacet
  facet normal 0 0 1
    outer loop
      vertex -15.5303 -6.91452 8
      vertex -16.9006 -7.52463 8
      vertex -14.9668 -10.874 8
    endloop
  endfacet
  facet normal 0 0 1
    outer loop
      vertex -18.0957 -3.84637 8
      vertex -16.6285 -3.5345 8
      vertex -17 0 8
    endloop
  endfacet
  facet normal 0 0 1
    outer loop
      vertex -18.5 0 8
      vertex -17 0 8
      vertex -18.0957 3.84637 8
    endloop
  endfacet
  facet normal 0 0 1
    outer loop
      vertex -16.6285 -3.5345 8
      vertex -18.0957 -3.84637 8
      vertex -16.9006 -7.52463 8
    endloop
  endfacet
  facet normal 0 0 1
    outer loop
      vertex -17 0 8
      vertex -18.5 0 8
      vertex -18.0957 -3.84637 8
    endloop
  endfacet
  facet normal -0.406737 0.913545 0
    outer loop
      vertex -5.71681 17.5945 2
      vertex -9.25 16.0215 8
      vertex -5.71681 17.5945 8
    endloop
  endfacet
  facet normal -0.406737 0.913545 0
    outer loop
      vertex -9.25 16.0215 8
      vertex -5.71681 17.5945 2
      vertex -9.25 16.0215 2
    endloop
  endfacet
  facet normal 0.994522 -0.104529 0
    outer loop
      vertex 18.0957 -3.84637 8
      vertex 18.5 0 2
      vertex 18.5 0 8
    endloop
  endfacet
  facet normal 0.994522 -0.104529 0
    outer loop
      vertex 18.5 0 2
      vertex 18.0957 -3.84637 8
      vertex 18.0957 -3.84637 2
    endloop
  endfacet
  facet normal 0 0 1
    outer loop
      vertex 18.5 0 2
      vertex 22.5 0 2
      vertex 22.0083 4.67801 2
    endloop
  endfacet
  facet normal 0 0 1
    outer loop
      vertex 18.0957 3.84637 2
      vertex 22.0083 4.67801 2
      vertex 20.5548 9.15157 2
    endloop
  endfacet
  facet normal 0 0 1
    outer loop
      vertex 22.5 0 2
      vertex 18.5 0 2
      vertex 22.0083 -4.67801 2
    endloop
  endfacet
  facet normal -0 0 1
    outer loop
      vertex 18.0957 -3.84637 2
      vertex 22.0083 -4.67801 2
      vertex 18.5 0 2
    endloop
  endfacet
  facet normal 0 0 1
    outer loop
      vertex 16.9006 7.52463 2
      vertex 20.5548 9.15157 2
      vertex 18.2029 13.2252 2
    endloop
  endfacet
  facet normal 0 0 1
    outer loop
      vertex 22.0083 4.67801 2
      vertex 18.0957 3.84637 2
      vertex 18.5 0 2
    endloop
  endfacet
  facet normal 0 0 1
    outer loop
      vertex 20.5548 9.15157 2
      vertex 16.9006 7.52463 2
      vertex 18.0957 3.84637 2
    endloop
  endfacet
  facet normal 0 0 1
    outer loop
      vertex 14.9668 10.874 2
      vertex 18.2029 13.2252 2
      vertex 15.0554 16.7208 2
    endloop
  endfacet
  facet normal 0 0 1
    outer loop
      vertex 18.2029 13.2252 2
      vertex 14.9668 10.874 2
      vertex 16.9006 7.52463 2
    endloop
  endfacet
  facet normal 0 0 1
    outer loop
      vertex 15.0554 16.7208 2
      vertex 12.3789 13.7482 2
      vertex 14.9668 10.874 2
    endloop
  endfacet
  facet normal 0 0 1
    outer loop
      vertex 11.25 19.4856 2
      vertex 12.3789 13.7482 2
      vertex 15.0554 16.7208 2
    endloop
  endfacet
  facet normal 0 0 1
    outer loop
      vertex 11.25 19.4856 2
      vertex 9.25 16.0215 2
      vertex 12.3789 13.7482 2
    endloop
  endfacet
  facet normal 0 0 1
    outer loop
      vertex 6.95288 21.3988 2
      vertex 9.25 16.0215 2
      vertex 11.25 19.4856 2
    endloop
  endfacet
  facet normal 0 0 1
    outer loop
      vertex 6.95288 21.3988 2
      vertex 5.71681 17.5945 2
      vertex 9.25 16.0215 2
    endloop
  endfacet
  facet normal 0 0 1
    outer loop
      vertex 2.35189 22.3767 2
      vertex 5.71681 17.5945 2
      vertex 6.95288 21.3988 2
    endloop
  endfacet
  facet normal 0 0 1
    outer loop
      vertex 2.35189 22.3767 2
      vertex 1.93378 18.3987 2
      vertex 5.71681 17.5945 2
    endloop
  endfacet
  facet normal 0 0 1
    outer loop
      vertex 2.35189 22.3767 2
      vertex -1.93378 18.3987 2
      vertex 1.93378 18.3987 2
    endloop
  endfacet
  facet normal -0 0 1
    outer loop
      vertex -2.35189 22.3767 2
      vertex -1.93378 18.3987 2
      vertex 2.35189 22.3767 2
    endloop
  endfacet
  facet normal 0 0 1
    outer loop
      vertex -2.35189 22.3767 2
      vertex -5.71681 17.5945 2
      vertex -1.93378 18.3987 2
    endloop
  endfacet
  facet normal -0 0 1
    outer loop
      vertex -6.95288 21.3988 2
      vertex -5.71681 17.5945 2
      vertex -2.35189 22.3767 2
    endloop
  endfacet
  facet normal 0 0 1
    outer loop
      vertex -6.95288 21.3988 2
      vertex -9.25 16.0215 2
      vertex -5.71681 17.5945 2
    endloop
  endfacet
  facet normal -0 0 1
    outer loop
      vertex -11.25 19.4856 2
      vertex -9.25 16.0215 2
      vertex -6.95288 21.3988 2
    endloop
  endfacet
  facet normal 0 0 1
    outer loop
      vertex -11.25 19.4856 2
      vertex -12.3789 13.7482 2
      vertex -9.25 16.0215 2
    endloop
  endfacet
  facet normal -0 0 1
    outer loop
      vertex -15.0554 16.7208 2
      vertex -12.3789 13.7482 2
      vertex -11.25 19.4856 2
    endloop
  endfacet
  facet normal 0 0 1
    outer loop
      vertex -12.3789 13.7482 2
      vertex -15.0554 16.7208 2
      vertex -14.9668 10.874 2
    endloop
  endfacet
  facet normal -0 0 1
    outer loop
      vertex -18.2029 13.2252 2
      vertex -14.9668 10.874 2
      vertex -15.0554 16.7208 2
    endloop
  endfacet
  facet normal 0 0 1
    outer loop
      vertex -14.9668 10.874 2
      vertex -18.2029 13.2252 2
      vertex -16.9006 7.52463 2
    endloop
  endfacet
  facet normal -0 0 1
    outer loop
      vertex -20.5548 9.15157 2
      vertex -16.9006 7.52463 2
      vertex -18.2029 13.2252 2
    endloop
  endfacet
  facet normal 0 0 1
    outer loop
      vertex -16.9006 7.52463 2
      vertex -20.5548 9.15157 2
      vertex -18.0957 3.84637 2
    endloop
  endfacet
  facet normal -0 0 1
    outer loop
      vertex -22.0083 4.67801 2
      vertex -18.0957 3.84637 2
      vertex -20.5548 9.15157 2
    endloop
  endfacet
  facet normal 0 0 1
    outer loop
      vertex 22.0083 -4.67801 2
      vertex 18.0957 -3.84637 2
      vertex 20.5548 -9.15157 2
    endloop
  endfacet
  facet normal -0 0 1
    outer loop
      vertex 16.9006 -7.52463 2
      vertex 20.5548 -9.15157 2
      vertex 18.0957 -3.84637 2
    endloop
  endfacet
  facet normal 0 0 1
    outer loop
      vertex 20.5548 -9.15157 2
      vertex 16.9006 -7.52463 2
      vertex 18.2029 -13.2252 2
    endloop
  endfacet
  facet normal -0 0 1
    outer loop
      vertex 14.9668 -10.874 2
      vertex 18.2029 -13.2252 2
      vertex 16.9006 -7.52463 2
    endloop
  endfacet
  facet normal 0 0 1
    outer loop
      vertex 18.2029 -13.2252 2
      vertex 14.9668 -10.874 2
      vertex 15.0554 -16.7208 2
    endloop
  endfacet
  facet normal -0 0 1
    outer loop
      vertex 12.3789 -13.7482 2
      vertex 15.0554 -16.7208 2
      vertex 14.9668 -10.874 2
    endloop
  endfacet
  facet normal 0 0 1
    outer loop
      vertex 12.3789 -13.7482 2
      vertex 11.25 -19.4856 2
      vertex 15.0554 -16.7208 2
    endloop
  endfacet
  facet normal -0 0 1
    outer loop
      vertex 9.25 -16.0215 2
      vertex 11.25 -19.4856 2
      vertex 12.3789 -13.7482 2
    endloop
  endfacet
  facet normal 0 0 1
    outer loop
      vertex 9.25 -16.0215 2
      vertex 6.95288 -21.3988 2
      vertex 11.25 -19.4856 2
    endloop
  endfacet
  facet normal -0 0 1
    outer loop
      vertex 5.71681 -17.5945 2
      vertex 6.95288 -21.3988 2
      vertex 9.25 -16.0215 2
    endloop
  endfacet
  facet normal 0 0 1
    outer loop
      vertex 5.71681 -17.5945 2
      vertex 2.35189 -22.3767 2
      vertex 6.95288 -21.3988 2
    endloop
  endfacet
  facet normal -0 0 1
    outer loop
      vertex 1.93378 -18.3987 2
      vertex 2.35189 -22.3767 2
      vertex 5.71681 -17.5945 2
    endloop
  endfacet
  facet normal -0 0 1
    outer loop
      vertex -1.93378 -18.3987 2
      vertex 2.35189 -22.3767 2
      vertex 1.93378 -18.3987 2
    endloop
  endfacet
  facet normal 0 0 1
    outer loop
      vertex -1.93378 -18.3987 2
      vertex -2.35189 -22.3767 2
      vertex 2.35189 -22.3767 2
    endloop
  endfacet
  facet normal 0 0 1
    outer loop
      vertex -5.71681 -17.5945 2
      vertex -2.35189 -22.3767 2
      vertex -1.93378 -18.3987 2
    endloop
  endfacet
  facet normal 0 0 1
    outer loop
      vertex -5.71681 -17.5945 2
      vertex -6.95288 -21.3988 2
      vertex -2.35189 -22.3767 2
    endloop
  endfacet
  facet normal 0 0 1
    outer loop
      vertex -9.25 -16.0215 2
      vertex -6.95288 -21.3988 2
      vertex -5.71681 -17.5945 2
    endloop
  endfacet
  facet normal 0 0 1
    outer loop
      vertex -9.25 -16.0215 2
      vertex -11.25 -19.4856 2
      vertex -6.95288 -21.3988 2
    endloop
  endfacet
  facet normal 0 0 1
    outer loop
      vertex -12.3789 -13.7482 2
      vertex -11.25 -19.4856 2
      vertex -9.25 -16.0215 2
    endloop
  endfacet
  facet normal 0 0 1
    outer loop
      vertex -15.0554 -16.7208 2
      vertex -12.3789 -13.7482 2
      vertex -14.9668 -10.874 2
    endloop
  endfacet
  facet normal 0 0 1
    outer loop
      vertex -12.3789 -13.7482 2
      vertex -15.0554 -16.7208 2
      vertex -11.25 -19.4856 2
    endloop
  endfacet
  facet normal 0 0 1
    outer loop
      vertex -18.2029 -13.2252 2
      vertex -14.9668 -10.874 2
      vertex -16.9006 -7.52463 2
    endloop
  endfacet
  facet normal 0 0 1
    outer loop
      vertex -20.5548 -9.15157 2
      vertex -16.9006 -7.52463 2
      vertex -18.0957 -3.84637 2
    endloop
  endfacet
  facet normal 0 0 1
    outer loop
      vertex -14.9668 -10.874 2
      vertex -18.2029 -13.2252 2
      vertex -15.0554 -16.7208 2
    endloop
  endfacet
  facet normal 0 0 1
    outer loop
      vertex -22.0083 -4.67801 2
      vertex -18.0957 -3.84637 2
      vertex -18.5 0 2
    endloop
  endfacet
  facet normal 0 0 1
    outer loop
      vertex -18.0957 3.84637 2
      vertex -22.0083 4.67801 2
      vertex -18.5 0 2
    endloop
  endfacet
  facet normal 0 0 1
    outer loop
      vertex -16.9006 -7.52463 2
      vertex -20.5548 -9.15157 2
      vertex -18.2029 -13.2252 2
    endloop
  endfacet
  facet normal 0 0 1
    outer loop
      vertex -22.5 0 2
      vertex -18.5 0 2
      vertex -22.0083 4.67801 2
    endloop
  endfacet
  facet normal 0 0 1
    outer loop
      vertex -18.0957 -3.84637 2
      vertex -22.0083 -4.67801 2
      vertex -20.5548 -9.15157 2
    endloop
  endfacet
  facet normal 0 0 1
    outer loop
      vertex -18.5 0 2
      vertex -22.5 0 2
      vertex -22.0083 -4.67801 2
    endloop
  endfacet
  facet normal 0.207912 -0.978148 0
    outer loop
      vertex 1.93378 -18.3987 2
      vertex 5.71681 -17.5945 8
      vertex 1.93378 -18.3987 8
    endloop
  endfacet
  facet normal 0.207912 -0.978148 0
    outer loop
      vertex 5.71681 -17.5945 8
      vertex 1.93378 -18.3987 2
      vertex 5.71681 -17.5945 2
    endloop
  endfacet
  facet normal 0.866025 -0.5 0
    outer loop
      vertex 14.9668 -10.874 8
      vertex 16.9006 -7.52463 2
      vertex 16.9006 -7.52463 8
    endloop
  endfacet
  facet normal 0.866025 -0.5 0
    outer loop
      vertex 16.9006 -7.52463 2
      vertex 14.9668 -10.874 8
      vertex 14.9668 -10.874 2
    endloop
  endfacet
  facet normal -0.587785 -0.809017 0
    outer loop
      vertex -12.3789 -13.7482 2
      vertex -9.25 -16.0215 8
      vertex -12.3789 -13.7482 8
    endloop
  endfacet
  facet normal -0.587785 -0.809017 -0
    outer loop
      vertex -9.25 -16.0215 8
      vertex -12.3789 -13.7482 2
      vertex -9.25 -16.0215 2
    endloop
  endfacet
  facet normal -0.866025 -0.5 0
    outer loop
      vertex -14.9668 -10.874 2
      vertex -16.9006 -7.52463 8
      vertex -16.9006 -7.52463 2
    endloop
  endfacet
  facet normal -0.866025 -0.5 0
    outer loop
      vertex -16.9006 -7.52463 8
      vertex -14.9668 -10.874 2
      vertex -14.9668 -10.874 8
    endloop
  endfacet
  facet normal -0.743145 -0.669131 0
    outer loop
      vertex -12.3789 -13.7482 2
      vertex -14.9668 -10.874 8
      vertex -14.9668 -10.874 2
    endloop
  endfacet
  facet normal -0.743145 -0.669131 0
    outer loop
      vertex -14.9668 -10.874 8
      vertex -12.3789 -13.7482 2
      vertex -12.3789 -13.7482 8
    endloop
  endfacet
  facet normal 0.587785 -0.809017 0
    outer loop
      vertex 9.25 -16.0215 2
      vertex 12.3789 -13.7482 8
      vertex 9.25 -16.0215 8
    endloop
  endfacet
  facet normal 0.587785 -0.809017 0
    outer loop
      vertex 12.3789 -13.7482 8
      vertex 9.25 -16.0215 2
      vertex 12.3789 -13.7482 2
    endloop
  endfacet
  facet normal 0.406737 -0.913545 0
    outer loop
      vertex 5.71681 -17.5945 2
      vertex 9.25 -16.0215 8
      vertex 5.71681 -17.5945 8
    endloop
  endfacet
  facet normal 0.406737 -0.913545 0
    outer loop
      vertex 9.25 -16.0215 8
      vertex 5.71681 -17.5945 2
      vertex 9.25 -16.0215 2
    endloop
  endfacet
  facet normal -0.207912 -0.978148 0
    outer loop
      vertex -5.71681 -17.5945 2
      vertex -1.93378 -18.3987 8
      vertex -5.71681 -17.5945 8
    endloop
  endfacet
  facet normal -0.207912 -0.978148 -0
    outer loop
      vertex -1.93378 -18.3987 8
      vertex -5.71681 -17.5945 2
      vertex -1.93378 -18.3987 2
    endloop
  endfacet
  facet normal -0.951057 -0.309017 0
    outer loop
      vertex -16.9006 -7.52463 2
      vertex -18.0957 -3.84637 8
      vertex -18.0957 -3.84637 2
    endloop
  endfacet
  facet normal -0.951057 -0.309017 0
    outer loop
      vertex -18.0957 -3.84637 8
      vertex -16.9006 -7.52463 2
      vertex -16.9006 -7.52463 8
    endloop
  endfacet
  facet normal -0.994522 -0.104529 0
    outer loop
      vertex -18.0957 -3.84637 2
      vertex -18.5 0 8
      vertex -18.5 0 2
    endloop
  endfacet
  facet normal -0.994522 -0.104529 0
    outer loop
      vertex -18.5 0 8
      vertex -18.0957 -3.84637 2
      vertex -18.0957 -3.84637 8
    endloop
  endfacet
  facet normal 0.743145 -0.669131 0
    outer loop
      vertex 12.3789 -13.7482 8
      vertex 14.9668 -10.874 2
      vertex 14.9668 -10.874 8
    endloop
  endfacet
  facet normal 0.743145 -0.669131 0
    outer loop
      vertex 14.9668 -10.874 2
      vertex 12.3789 -13.7482 8
      vertex 12.3789 -13.7482 2
    endloop
  endfacet
  facet normal -0.406737 -0.913545 0
    outer loop
      vertex -9.25 -16.0215 2
      vertex -5.71681 -17.5945 8
      vertex -9.25 -16.0215 8
    endloop
  endfacet
  facet normal -0.406737 -0.913545 -0
    outer loop
      vertex -5.71681 -17.5945 8
      vertex -9.25 -16.0215 2
      vertex -5.71681 -17.5945 2
    endloop
  endfacet
  facet normal 0.994522 0.104529 0
    outer loop
      vertex 22.5 0 2
      vertex 22.0083 4.67801 0
      vertex 22.0083 4.67801 2
    endloop
  endfacet
  facet normal 0.994522 0.104529 0
    outer loop
      vertex 22.0083 4.67801 0
      vertex 22.5 0 2
      vertex 22.5 0 0
    endloop
  endfacet
  facet normal -0.994522 0.104529 0
    outer loop
      vertex -22.5 0 0
      vertex -22.0083 4.67801 2
      vertex -22.0083 4.67801 0
    endloop
  endfacet
  facet normal -0.994522 0.104529 0
    outer loop
      vertex -22.0083 4.67801 2
      vertex -22.5 0 0
      vertex -22.5 0 2
    endloop
  endfacet
  facet normal 0 1 -0
    outer loop
      vertex 2.35189 22.3767 0
      vertex -2.35189 22.3767 2
      vertex 2.35189 22.3767 2
    endloop
  endfacet
  facet normal 0 1 0
    outer loop
      vertex -2.35189 22.3767 2
      vertex 2.35189 22.3767 0
      vertex -2.35189 22.3767 0
    endloop
  endfacet
  facet normal 0.743145 0.66913 0
    outer loop
      vertex 18.2029 13.2252 2
      vertex 15.0554 16.7208 0
      vertex 15.0554 16.7208 2
    endloop
  endfacet
  facet normal 0.743145 0.66913 0
    outer loop
      vertex 15.0554 16.7208 0
      vertex 18.2029 13.2252 2
      vertex 18.2029 13.2252 0
    endloop
  endfacet
  facet normal 0.951057 0.309017 0
    outer loop
      vertex 22.0083 4.67801 2
      vertex 20.5548 9.15157 0
      vertex 20.5548 9.15157 2
    endloop
  endfacet
  facet normal 0.951057 0.309017 0
    outer loop
      vertex 20.5548 9.15157 0
      vertex 22.0083 4.67801 2
      vertex 22.0083 4.67801 0
    endloop
  endfacet
  facet normal -0.587785 0.809017 0
    outer loop
      vertex -11.25 19.4856 0
      vertex -15.0554 16.7208 2
      vertex -11.25 19.4856 2
    endloop
  endfacet
  facet normal -0.587785 0.809017 0
    outer loop
      vertex -15.0554 16.7208 2
      vertex -11.25 19.4856 0
      vertex -15.0554 16.7208 0
    endloop
  endfacet
  facet normal -0.207912 0.978148 0
    outer loop
      vertex -2.35189 22.3767 0
      vertex -6.95288 21.3988 2
      vertex -2.35189 22.3767 2
    endloop
  endfacet
  facet normal -0.207912 0.978148 0
    outer loop
      vertex -6.95288 21.3988 2
      vertex -2.35189 22.3767 0
      vertex -6.95288 21.3988 0
    endloop
  endfacet
  facet normal 0.866025 0.5 0
    outer loop
      vertex 20.5548 9.15157 2
      vertex 18.2029 13.2252 0
      vertex 18.2029 13.2252 2
    endloop
  endfacet
  facet normal 0.866025 0.5 0
    outer loop
      vertex 18.2029 13.2252 0
      vertex 20.5548 9.15157 2
      vertex 20.5548 9.15157 0
    endloop
  endfacet
  facet normal 0.406737 0.913545 -0
    outer loop
      vertex 11.25 19.4856 0
      vertex 6.95288 21.3988 2
      vertex 11.25 19.4856 2
    endloop
  endfacet
  facet normal 0.406737 0.913545 0
    outer loop
      vertex 6.95288 21.3988 2
      vertex 11.25 19.4856 0
      vertex 6.95288 21.3988 0
    endloop
  endfacet
  facet normal 0.207912 0.978148 -0
    outer loop
      vertex 6.95288 21.3988 0
      vertex 2.35189 22.3767 2
      vertex 6.95288 21.3988 2
    endloop
  endfacet
  facet normal 0.207912 0.978148 0
    outer loop
      vertex 2.35189 22.3767 2
      vertex 6.95288 21.3988 0
      vertex 2.35189 22.3767 0
    endloop
  endfacet
  facet normal 0.587785 0.809017 -0
    outer loop
      vertex 15.0554 16.7208 0
      vertex 11.25 19.4856 2
      vertex 15.0554 16.7208 2
    endloop
  endfacet
  facet normal 0.587785 0.809017 0
    outer loop
      vertex 11.25 19.4856 2
      vertex 15.0554 16.7208 0
      vertex 11.25 19.4856 0
    endloop
  endfacet
  facet normal -0.866025 0.5 0
    outer loop
      vertex -20.5548 9.15157 0
      vertex -18.2029 13.2252 2
      vertex -18.2029 13.2252 0
    endloop
  endfacet
  facet normal -0.866025 0.5 0
    outer loop
      vertex -18.2029 13.2252 2
      vertex -20.5548 9.15157 0
      vertex -20.5548 9.15157 2
    endloop
  endfacet
  facet normal -0.743145 0.66913 0
    outer loop
      vertex -18.2029 13.2252 0
      vertex -15.0554 16.7208 2
      vertex -15.0554 16.7208 0
    endloop
  endfacet
  facet normal -0.743145 0.66913 0
    outer loop
      vertex -15.0554 16.7208 2
      vertex -18.2029 13.2252 0
      vertex -18.2029 13.2252 2
    endloop
  endfacet
  facet normal -0.951057 0.309017 0
    outer loop
      vertex -22.0083 4.67801 0
      vertex -20.5548 9.15157 2
      vertex -20.5548 9.15157 0
    endloop
  endfacet
  facet normal -0.951057 0.309017 0
    outer loop
      vertex -20.5548 9.15157 2
      vertex -22.0083 4.67801 0
      vertex -22.0083 4.67801 2
    endloop
  endfacet
  facet normal -0.406737 0.913545 0
    outer loop
      vertex -6.95288 21.3988 0
      vertex -11.25 19.4856 2
      vertex -6.95288 21.3988 2
    endloop
  endfacet
  facet normal -0.406737 0.913545 0
    outer loop
      vertex -11.25 19.4856 2
      vertex -6.95288 21.3988 0
      vertex -11.25 19.4856 0
    endloop
  endfacet
  facet normal 0.994522 -0.104529 0
    outer loop
      vertex 22.0083 -4.67801 2
      vertex 22.5 0 0
      vertex 22.5 0 2
    endloop
  endfacet
  facet normal 0.994522 -0.104529 0
    outer loop
      vertex 22.5 0 0
      vertex 22.0083 -4.67801 2
      vertex 22.0083 -4.67801 0
    endloop
  endfacet
  facet normal -0.207912 -0.978148 0
    outer loop
      vertex -6.95288 -21.3988 0
      vertex -2.35189 -22.3767 2
      vertex -6.95288 -21.3988 2
    endloop
  endfacet
  facet normal -0.207912 -0.978148 -0
    outer loop
      vertex -2.35189 -22.3767 2
      vertex -6.95288 -21.3988 0
      vertex -2.35189 -22.3767 0
    endloop
  endfacet
  facet normal 0.207912 -0.978148 0
    outer loop
      vertex 2.35189 -22.3767 0
      vertex 6.95288 -21.3988 2
      vertex 2.35189 -22.3767 2
    endloop
  endfacet
  facet normal 0.207912 -0.978148 0
    outer loop
      vertex 6.95288 -21.3988 2
      vertex 2.35189 -22.3767 0
      vertex 6.95288 -21.3988 0
    endloop
  endfacet
  facet normal 0.743145 -0.66913 0
    outer loop
      vertex 15.0554 -16.7208 2
      vertex 18.2029 -13.2252 0
      vertex 18.2029 -13.2252 2
    endloop
  endfacet
  facet normal 0.743145 -0.66913 0
    outer loop
      vertex 18.2029 -13.2252 0
      vertex 15.0554 -16.7208 2
      vertex 15.0554 -16.7208 0
    endloop
  endfacet
  facet normal 0.951057 -0.309017 0
    outer loop
      vertex 20.5548 -9.15157 2
      vertex 22.0083 -4.67801 0
      vertex 22.0083 -4.67801 2
    endloop
  endfacet
  facet normal 0.951057 -0.309017 0
    outer loop
      vertex 22.0083 -4.67801 0
      vertex 20.5548 -9.15157 2
      vertex 20.5548 -9.15157 0
    endloop
  endfacet
  facet normal 0.866025 -0.5 0
    outer loop
      vertex 18.2029 -13.2252 2
      vertex 20.5548 -9.15157 0
      vertex 20.5548 -9.15157 2
    endloop
  endfacet
  facet normal 0.866025 -0.5 0
    outer loop
      vertex 20.5548 -9.15157 0
      vertex 18.2029 -13.2252 2
      vertex 18.2029 -13.2252 0
    endloop
  endfacet
  facet normal -0.406737 -0.913545 0
    outer loop
      vertex -11.25 -19.4856 0
      vertex -6.95288 -21.3988 2
      vertex -11.25 -19.4856 2
    endloop
  endfacet
  facet normal -0.406737 -0.913545 -0
    outer loop
      vertex -6.95288 -21.3988 2
      vertex -11.25 -19.4856 0
      vertex -6.95288 -21.3988 0
    endloop
  endfacet
  facet normal -0.866025 -0.5 0
    outer loop
      vertex -18.2029 -13.2252 0
      vertex -20.5548 -9.15157 2
      vertex -20.5548 -9.15157 0
    endloop
  endfacet
  facet normal -0.866025 -0.5 0
    outer loop
      vertex -20.5548 -9.15157 2
      vertex -18.2029 -13.2252 0
      vertex -18.2029 -13.2252 2
    endloop
  endfacet
  facet normal -0.994522 -0.104529 0
    outer loop
      vertex -22.0083 -4.67801 0
      vertex -22.5 0 2
      vertex -22.5 0 0
    endloop
  endfacet
  facet normal -0.994522 -0.104529 0
    outer loop
      vertex -22.5 0 2
      vertex -22.0083 -4.67801 0
      vertex -22.0083 -4.67801 2
    endloop
  endfacet
  facet normal -0.951057 -0.309017 0
    outer loop
      vertex -20.5548 -9.15157 0
      vertex -22.0083 -4.67801 2
      vertex -22.0083 -4.67801 0
    endloop
  endfacet
  facet normal -0.951057 -0.309017 0
    outer loop
      vertex -22.0083 -4.67801 2
      vertex -20.5548 -9.15157 0
      vertex -20.5548 -9.15157 2
    endloop
  endfacet
  facet normal 0.587785 -0.809017 0
    outer loop
      vertex 11.25 -19.4856 0
      vertex 15.0554 -16.7208 2
      vertex 11.25 -19.4856 2
    endloop
  endfacet
  facet normal 0.587785 -0.809017 0
    outer loop
      vertex 15.0554 -16.7208 2
      vertex 11.25 -19.4856 0
      vertex 15.0554 -16.7208 0
    endloop
  endfacet
  facet normal 0.406737 -0.913545 0
    outer loop
      vertex 6.95288 -21.3988 0
      vertex 11.25 -19.4856 2
      vertex 6.95288 -21.3988 2
    endloop
  endfacet
  facet normal 0.406737 -0.913545 0
    outer loop
      vertex 11.25 -19.4856 2
      vertex 6.95288 -21.3988 0
      vertex 11.25 -19.4856 0
    endloop
  endfacet
  facet normal 0 -1 0
    outer loop
      vertex -2.35189 -22.3767 0
      vertex 2.35189 -22.3767 2
      vertex -2.35189 -22.3767 2
    endloop
  endfacet
  facet normal 0 -1 -0
    outer loop
      vertex 2.35189 -22.3767 2
      vertex -2.35189 -22.3767 0
      vertex 2.35189 -22.3767 0
    endloop
  endfacet
  facet normal -0.587785 -0.809017 0
    outer loop
      vertex -15.0554 -16.7208 0
      vertex -11.25 -19.4856 2
      vertex -15.0554 -16.7208 2
    endloop
  endfacet
  facet normal -0.587785 -0.809017 -0
    outer loop
      vertex -11.25 -19.4856 2
      vertex -15.0554 -16.7208 0
      vertex -11.25 -19.4856 0
    endloop
  endfacet
  facet normal -0.743145 -0.66913 0
    outer loop
      vertex -15.0554 -16.7208 0
      vertex -18.2029 -13.2252 2
      vertex -18.2029 -13.2252 0
    endloop
  endfacet
  facet normal -0.743145 -0.66913 0
    outer loop
      vertex -18.2029 -13.2252 2
      vertex -15.0554 -16.7208 0
      vertex -15.0554 -16.7208 2
    endloop
  endfacet
  facet normal 0 0 -1
    outer loop
      vertex 17 0 0
      vertex 22.5 0 0
      vertex 22.0083 -4.67801 0
    endloop
  endfacet
  facet normal 0 0 -1
    outer loop
      vertex 16.6285 -3.5345 0
      vertex 22.0083 -4.67801 0
      vertex 20.5548 -9.15157 0
    endloop
  endfacet
  facet normal 0 0 -1
    outer loop
      vertex 22.5 0 0
      vertex 17 0 0
      vertex 22.0083 4.67801 0
    endloop
  endfacet
  facet normal 0 0 -1
    outer loop
      vertex 15.5303 -6.91452 0
      vertex 20.5548 -9.15157 0
      vertex 18.2029 -13.2252 0
    endloop
  endfacet
  facet normal 0 0 -1
    outer loop
      vertex 16.6285 3.5345 0
      vertex 22.0083 4.67801 0
      vertex 17 0 0
    endloop
  endfacet
  facet normal -0 0 -1
    outer loop
      vertex 22.0083 4.67801 0
      vertex 16.6285 3.5345 0
      vertex 20.5548 9.15157 0
    endloop
  endfacet
  facet normal 0 0 -1
    outer loop
      vertex 22.0083 -4.67801 0
      vertex 16.6285 -3.5345 0
      vertex 17 0 0
    endloop
  endfacet
  facet normal 0 0 -1
    outer loop
      vertex 20.5548 -9.15157 0
      vertex 15.5303 -6.91452 0
      vertex 16.6285 -3.5345 0
    endloop
  endfacet
  facet normal 0 0 -1
    outer loop
      vertex 13.7533 -9.99235 0
      vertex 18.2029 -13.2252 0
      vertex 15.0554 -16.7208 0
    endloop
  endfacet
  facet normal 0 0 -1
    outer loop
      vertex 18.2029 -13.2252 0
      vertex 13.7533 -9.99235 0
      vertex 15.5303 -6.91452 0
    endloop
  endfacet
  facet normal 0 0 -1
    outer loop
      vertex 15.0554 -16.7208 0
      vertex 11.3752 -12.6335 0
      vertex 13.7533 -9.99235 0
    endloop
  endfacet
  facet normal 0 0 -1
    outer loop
      vertex 11.25 -19.4856 0
      vertex 11.3752 -12.6335 0
      vertex 15.0554 -16.7208 0
    endloop
  endfacet
  facet normal 0 0 -1
    outer loop
      vertex 11.25 -19.4856 0
      vertex 8.5 -14.7224 0
      vertex 11.3752 -12.6335 0
    endloop
  endfacet
  facet normal 0 0 -1
    outer loop
      vertex 6.95288 -21.3988 0
      vertex 8.5 -14.7224 0
      vertex 11.25 -19.4856 0
    endloop
  endfacet
  facet normal 0 0 -1
    outer loop
      vertex 6.95288 -21.3988 0
      vertex 5.25329 -16.168 0
      vertex 8.5 -14.7224 0
    endloop
  endfacet
  facet normal 0 0 -1
    outer loop
      vertex 2.35189 -22.3767 0
      vertex 5.25329 -16.168 0
      vertex 6.95288 -21.3988 0
    endloop
  endfacet
  facet normal 0 0 -1
    outer loop
      vertex 2.35189 -22.3767 0
      vertex 1.77698 -16.9069 0
      vertex 5.25329 -16.168 0
    endloop
  endfacet
  facet normal 0 0 -1
    outer loop
      vertex 2.35189 -22.3767 0
      vertex -1.77698 -16.9069 0
      vertex 1.77698 -16.9069 0
    endloop
  endfacet
  facet normal 0 0 -1
    outer loop
      vertex -2.35189 -22.3767 0
      vertex -1.77698 -16.9069 0
      vertex 2.35189 -22.3767 0
    endloop
  endfacet
  facet normal 0 0 -1
    outer loop
      vertex -2.35189 -22.3767 0
      vertex -5.25329 -16.168 0
      vertex -1.77698 -16.9069 0
    endloop
  endfacet
  facet normal 0 0 -1
    outer loop
      vertex -6.95288 -21.3988 0
      vertex -5.25329 -16.168 0
      vertex -2.35189 -22.3767 0
    endloop
  endfacet
  facet normal 0 0 -1
    outer loop
      vertex -6.95288 -21.3988 0
      vertex -8.5 -14.7224 0
      vertex -5.25329 -16.168 0
    endloop
  endfacet
  facet normal 0 0 -1
    outer loop
      vertex -11.25 -19.4856 0
      vertex -8.5 -14.7224 0
      vertex -6.95288 -21.3988 0
    endloop
  endfacet
  facet normal 0 0 -1
    outer loop
      vertex -11.25 -19.4856 0
      vertex -11.3752 -12.6335 0
      vertex -8.5 -14.7224 0
    endloop
  endfacet
  facet normal 0 0 -1
    outer loop
      vertex -15.0554 -16.7208 0
      vertex -11.3752 -12.6335 0
      vertex -11.25 -19.4856 0
    endloop
  endfacet
  facet normal -0 0 -1
    outer loop
      vertex -11.3752 -12.6335 0
      vertex -15.0554 -16.7208 0
      vertex -13.7533 -9.99235 0
    endloop
  endfacet
  facet normal 0 0 -1
    outer loop
      vertex -18.2029 -13.2252 0
      vertex -13.7533 -9.99235 0
      vertex -15.0554 -16.7208 0
    endloop
  endfacet
  facet normal -0 0 -1
    outer loop
      vertex -13.7533 -9.99235 0
      vertex -18.2029 -13.2252 0
      vertex -15.5303 -6.91452 0
    endloop
  endfacet
  facet normal -0 0 -1
    outer loop
      vertex -15.5303 -6.91452 0
      vertex -20.5548 -9.15157 0
      vertex -16.6285 -3.5345 0
    endloop
  endfacet
  facet normal 0 0 -1
    outer loop
      vertex -20.5548 -9.15157 0
      vertex -15.5303 -6.91452 0
      vertex -18.2029 -13.2252 0
    endloop
  endfacet
  facet normal 0 0 -1
    outer loop
      vertex 15.5303 6.91452 0
      vertex 20.5548 9.15157 0
      vertex 16.6285 3.5345 0
    endloop
  endfacet
  facet normal -0 0 -1
    outer loop
      vertex 20.5548 9.15157 0
      vertex 15.5303 6.91452 0
      vertex 18.2029 13.2252 0
    endloop
  endfacet
  facet normal 0 0 -1
    outer loop
      vertex 13.7533 9.99235 0
      vertex 18.2029 13.2252 0
      vertex 15.5303 6.91452 0
    endloop
  endfacet
  facet normal -0 0 -1
    outer loop
      vertex 18.2029 13.2252 0
      vertex 13.7533 9.99235 0
      vertex 15.0554 16.7208 0
    endloop
  endfacet
  facet normal 0 0 -1
    outer loop
      vertex 11.3752 12.6335 0
      vertex 15.0554 16.7208 0
      vertex 13.7533 9.99235 0
    endloop
  endfacet
  facet normal 0 0 -1
    outer loop
      vertex 11.3752 12.6335 0
      vertex 11.25 19.4856 0
      vertex 15.0554 16.7208 0
    endloop
  endfacet
  facet normal 0 0 -1
    outer loop
      vertex 8.5 14.7224 0
      vertex 11.25 19.4856 0
      vertex 11.3752 12.6335 0
    endloop
  endfacet
  facet normal 0 0 -1
    outer loop
      vertex 8.5 14.7224 0
      vertex 6.95288 21.3988 0
      vertex 11.25 19.4856 0
    endloop
  endfacet
  facet normal 0 0 -1
    outer loop
      vertex 5.25329 16.168 0
      vertex 6.95288 21.3988 0
      vertex 8.5 14.7224 0
    endloop
  endfacet
  facet normal 0 0 -1
    outer loop
      vertex 5.25329 16.168 0
      vertex 2.35189 22.3767 0
      vertex 6.95288 21.3988 0
    endloop
  endfacet
  facet normal 0 0 -1
    outer loop
      vertex 1.77698 16.9069 0
      vertex 2.35189 22.3767 0
      vertex 5.25329 16.168 0
    endloop
  endfacet
  facet normal 0 0 -1
    outer loop
      vertex -1.77698 16.9069 0
      vertex 2.35189 22.3767 0
      vertex 1.77698 16.9069 0
    endloop
  endfacet
  facet normal 0 0 -1
    outer loop
      vertex -1.77698 16.9069 0
      vertex -2.35189 22.3767 0
      vertex 2.35189 22.3767 0
    endloop
  endfacet
  facet normal 0 0 -1
    outer loop
      vertex -5.25329 16.168 0
      vertex -2.35189 22.3767 0
      vertex -1.77698 16.9069 0
    endloop
  endfacet
  facet normal 0 0 -1
    outer loop
      vertex -5.25329 16.168 0
      vertex -6.95288 21.3988 0
      vertex -2.35189 22.3767 0
    endloop
  endfacet
  facet normal 0 0 -1
    outer loop
      vertex -8.5 14.7224 0
      vertex -6.95288 21.3988 0
      vertex -5.25329 16.168 0
    endloop
  endfacet
  facet normal 0 0 -1
    outer loop
      vertex -8.5 14.7224 0
      vertex -11.25 19.4856 0
      vertex -6.95288 21.3988 0
    endloop
  endfacet
  facet normal 0 0 -1
    outer loop
      vertex -11.3752 12.6335 0
      vertex -11.25 19.4856 0
      vertex -8.5 14.7224 0
    endloop
  endfacet
  facet normal 0 0 -1
    outer loop
      vertex -15.0554 16.7208 0
      vertex -11.3752 12.6335 0
      vertex -13.7533 9.99235 0
    endloop
  endfacet
  facet normal 0 0 -1
    outer loop
      vertex -11.3752 12.6335 0
      vertex -15.0554 16.7208 0
      vertex -11.25 19.4856 0
    endloop
  endfacet
  facet normal 0 0 -1
    outer loop
      vertex -18.2029 13.2252 0
      vertex -13.7533 9.99235 0
      vertex -15.5303 6.91452 0
    endloop
  endfacet
  facet normal 0 0 -1
    outer loop
      vertex -20.5548 9.15157 0
      vertex -15.5303 6.91452 0
      vertex -16.6285 3.5345 0
    endloop
  endfacet
  facet normal 0 0 -1
    outer loop
      vertex -13.7533 9.99235 0
      vertex -18.2029 13.2252 0
      vertex -15.0554 16.7208 0
    endloop
  endfacet
  facet normal 0 0 -1
    outer loop
      vertex -22.0083 4.67801 0
      vertex -16.6285 3.5345 0
      vertex -17 0 0
    endloop
  endfacet
  facet normal 0 0 -1
    outer loop
      vertex -22.0083 -4.67801 0
      vertex -16.6285 -3.5345 0
      vertex -20.5548 -9.15157 0
    endloop
  endfacet
  facet normal -0 0 -1
    outer loop
      vertex -16.6285 -3.5345 0
      vertex -22.0083 -4.67801 0
      vertex -17 0 0
    endloop
  endfacet
  facet normal 0 0 -1
    outer loop
      vertex -15.5303 6.91452 0
      vertex -20.5548 9.15157 0
      vertex -18.2029 13.2252 0
    endloop
  endfacet
  facet normal 0 0 -1
    outer loop
      vertex -22.5 0 0
      vertex -17 0 0
      vertex -22.0083 -4.67801 0
    endloop
  endfacet
  facet normal 0 0 -1
    outer loop
      vertex -16.6285 3.5345 0
      vertex -22.0083 4.67801 0
      vertex -20.5548 9.15157 0
    endloop
  endfacet
  facet normal 0 0 -1
    outer loop
      vertex -17 0 0
      vertex -22.5 0 0
      vertex -22.0083 4.67801 0
    endloop
  endfacet
  facet normal -0.994522 -0.104528 0
    outer loop
      vertex 17 0 0
      vertex 16.6285 3.5345 8
      vertex 16.6285 3.5345 0
    endloop
  endfacet
  facet normal -0.994522 -0.104528 0
    outer loop
      vertex 16.6285 3.5345 8
      vertex 17 0 0
      vertex 17 0 8
    endloop
  endfacet
  facet normal 0.994522 -0.104528 0
    outer loop
      vertex -17 0 8
      vertex -16.6285 3.5345 0
      vertex -16.6285 3.5345 8
    endloop
  endfacet
  facet normal 0.994522 -0.104528 0
    outer loop
      vertex -16.6285 3.5345 0
      vertex -17 0 8
      vertex -17 0 0
    endloop
  endfacet
  facet normal 0 -1 0
    outer loop
      vertex -1.77698 16.9069 0
      vertex 1.77698 16.9069 8
      vertex -1.77698 16.9069 8
    endloop
  endfacet
  facet normal 0 -1 -0
    outer loop
      vertex 1.77698 16.9069 8
      vertex -1.77698 16.9069 0
      vertex 1.77698 16.9069 0
    endloop
  endfacet
  facet normal 0 1 -0
    outer loop
      vertex 1.77698 -16.9069 0
      vertex -1.77698 -16.9069 8
      vertex 1.77698 -16.9069 8
    endloop
  endfacet
  facet normal 0 1 0
    outer loop
      vertex -1.77698 -16.9069 8
      vertex 1.77698 -16.9069 0
      vertex -1.77698 -16.9069 0
    endloop
  endfacet
  facet normal -0.743145 -0.66913 0
    outer loop
      vertex 13.7533 9.99235 0
      vertex 11.3752 12.6335 8
      vertex 11.3752 12.6335 0
    endloop
  endfacet
  facet normal -0.743145 -0.66913 0
    outer loop
      vertex 11.3752 12.6335 8
      vertex 13.7533 9.99235 0
      vertex 13.7533 9.99235 8
    endloop
  endfacet
  facet normal -0.951056 -0.309017 0
    outer loop
      vertex 16.6285 3.5345 0
      vertex 15.5303 6.91452 8
      vertex 15.5303 6.91452 0
    endloop
  endfacet
  facet normal -0.951056 -0.309017 0
    outer loop
      vertex 15.5303 6.91452 8
      vertex 16.6285 3.5345 0
      vertex 16.6285 3.5345 8
    endloop
  endfacet
  facet normal 0.587785 -0.809017 0
    outer loop
      vertex -11.3752 12.6335 0
      vertex -8.5 14.7224 8
      vertex -11.3752 12.6335 8
    endloop
  endfacet
  facet normal 0.587785 -0.809017 0
    outer loop
      vertex -8.5 14.7224 8
      vertex -11.3752 12.6335 0
      vertex -8.5 14.7224 0
    endloop
  endfacet
  facet normal 0.207911 -0.978148 0
    outer loop
      vertex -5.25329 16.168 0
      vertex -1.77698 16.9069 8
      vertex -5.25329 16.168 8
    endloop
  endfacet
  facet normal 0.207911 -0.978148 0
    outer loop
      vertex -1.77698 16.9069 8
      vertex -5.25329 16.168 0
      vertex -1.77698 16.9069 0
    endloop
  endfacet
  facet normal -0.866025 -0.5 0
    outer loop
      vertex 15.5303 6.91452 0
      vertex 13.7533 9.99235 8
      vertex 13.7533 9.99235 0
    endloop
  endfacet
  facet normal -0.866025 -0.5 0
    outer loop
      vertex 13.7533 9.99235 8
      vertex 15.5303 6.91452 0
      vertex 15.5303 6.91452 8
    endloop
  endfacet
  facet normal -0.406737 -0.913545 0
    outer loop
      vertex 5.25329 16.168 0
      vertex 8.5 14.7224 8
      vertex 5.25329 16.168 8
    endloop
  endfacet
  facet normal -0.406737 -0.913545 -0
    outer loop
      vertex 8.5 14.7224 8
      vertex 5.25329 16.168 0
      vertex 8.5 14.7224 0
    endloop
  endfacet
  facet normal -0.207911 -0.978148 0
    outer loop
      vertex 1.77698 16.9069 0
      vertex 5.25329 16.168 8
      vertex 1.77698 16.9069 8
    endloop
  endfacet
  facet normal -0.207911 -0.978148 -0
    outer loop
      vertex 5.25329 16.168 8
      vertex 1.77698 16.9069 0
      vertex 5.25329 16.168 0
    endloop
  endfacet
  facet normal -0.587785 -0.809017 0
    outer loop
      vertex 8.5 14.7224 0
      vertex 11.3752 12.6335 8
      vertex 8.5 14.7224 8
    endloop
  endfacet
  facet normal -0.587785 -0.809017 -0
    outer loop
      vertex 11.3752 12.6335 8
      vertex 8.5 14.7224 0
      vertex 11.3752 12.6335 0
    endloop
  endfacet
  facet normal 0.866025 -0.5 0
    outer loop
      vertex -15.5303 6.91452 8
      vertex -13.7533 9.99235 0
      vertex -13.7533 9.99235 8
    endloop
  endfacet
  facet normal 0.866025 -0.5 0
    outer loop
      vertex -13.7533 9.99235 0
      vertex -15.5303 6.91452 8
      vertex -15.5303 6.91452 0
    endloop
  endfacet
  facet normal 0.743145 -0.66913 0
    outer loop
      vertex -13.7533 9.99235 8
      vertex -11.3752 12.6335 0
      vertex -11.3752 12.6335 8
    endloop
  endfacet
  facet normal 0.743145 -0.66913 0
    outer loop
      vertex -11.3752 12.6335 0
      vertex -13.7533 9.99235 8
      vertex -13.7533 9.99235 0
    endloop
  endfacet
  facet normal 0.951056 -0.309017 0
    outer loop
      vertex -16.6285 3.5345 8
      vertex -15.5303 6.91452 0
      vertex -15.5303 6.91452 8
    endloop
  endfacet
  facet normal 0.951056 -0.309017 0
    outer loop
      vertex -15.5303 6.91452 0
      vertex -16.6285 3.5345 8
      vertex -16.6285 3.5345 0
    endloop
  endfacet
  facet normal 0.406737 -0.913545 0
    outer loop
      vertex -8.5 14.7224 0
      vertex -5.25329 16.168 8
      vertex -8.5 14.7224 8
    endloop
  endfacet
  facet normal 0.406737 -0.913545 0
    outer loop
      vertex -5.25329 16.168 8
      vertex -8.5 14.7224 0
      vertex -5.25329 16.168 0
    endloop
  endfacet
  facet normal -0.994522 0.104528 0
    outer loop
      vertex 16.6285 -3.5345 0
      vertex 17 0 8
      vertex 17 0 0
    endloop
  endfacet
  facet normal -0.994522 0.104528 0
    outer loop
      vertex 17 0 8
      vertex 16.6285 -3.5345 0
      vertex 16.6285 -3.5345 8
    endloop
  endfacet
  facet normal -0.743145 0.66913 0
    outer loop
      vertex 11.3752 -12.6335 0
      vertex 13.7533 -9.99235 8
      vertex 13.7533 -9.99235 0
    endloop
  endfacet
  facet normal -0.743145 0.66913 0
    outer loop
      vertex 13.7533 -9.99235 8
      vertex 11.3752 -12.6335 0
      vertex 11.3752 -12.6335 8
    endloop
  endfacet
  facet normal -0.951056 0.309017 0
    outer loop
      vertex 15.5303 -6.91452 0
      vertex 16.6285 -3.5345 8
      vertex 16.6285 -3.5345 0
    endloop
  endfacet
  facet normal -0.951056 0.309017 0
    outer loop
      vertex 16.6285 -3.5345 8
      vertex 15.5303 -6.91452 0
      vertex 15.5303 -6.91452 8
    endloop
  endfacet
  facet normal -0.866025 0.5 0
    outer loop
      vertex 13.7533 -9.99235 0
      vertex 15.5303 -6.91452 8
      vertex 15.5303 -6.91452 0
    endloop
  endfacet
  facet normal -0.866025 0.5 0
    outer loop
      vertex 15.5303 -6.91452 8
      vertex 13.7533 -9.99235 0
      vertex 13.7533 -9.99235 8
    endloop
  endfacet
  facet normal 0.587785 0.809017 -0
    outer loop
      vertex -8.5 -14.7224 0
      vertex -11.3752 -12.6335 8
      vertex -8.5 -14.7224 8
    endloop
  endfacet
  facet normal 0.587785 0.809017 0
    outer loop
      vertex -11.3752 -12.6335 8
      vertex -8.5 -14.7224 0
      vertex -11.3752 -12.6335 0
    endloop
  endfacet
  facet normal 0.866025 0.5 0
    outer loop
      vertex -13.7533 -9.99235 8
      vertex -15.5303 -6.91452 0
      vertex -15.5303 -6.91452 8
    endloop
  endfacet
  facet normal 0.866025 0.5 0
    outer loop
      vertex -15.5303 -6.91452 0
      vertex -13.7533 -9.99235 8
      vertex -13.7533 -9.99235 0
    endloop
  endfacet
  facet normal -0.587785 0.809017 0
    outer loop
      vertex 11.3752 -12.6335 0
      vertex 8.5 -14.7224 8
      vertex 11.3752 -12.6335 8
    endloop
  endfacet
  facet normal -0.587785 0.809017 0
    outer loop
      vertex 8.5 -14.7224 8
      vertex 11.3752 -12.6335 0
      vertex 8.5 -14.7224 0
    endloop
  endfacet
  facet normal 0.207911 0.978148 -0
    outer loop
      vertex -1.77698 -16.9069 0
      vertex -5.25329 -16.168 8
      vertex -1.77698 -16.9069 8
    endloop
  endfacet
  facet normal 0.207911 0.978148 0
    outer loop
      vertex -5.25329 -16.168 8
      vertex -1.77698 -16.9069 0
      vertex -5.25329 -16.168 0
    endloop
  endfacet
  facet normal 0.406737 0.913545 -0
    outer loop
      vertex -5.25329 -16.168 0
      vertex -8.5 -14.7224 8
      vertex -5.25329 -16.168 8
    endloop
  endfacet
  facet normal 0.406737 0.913545 0
    outer loop
      vertex -8.5 -14.7224 8
      vertex -5.25329 -16.168 0
      vertex -8.5 -14.7224 0
    endloop
  endfacet
  facet normal 0.743145 0.66913 0
    outer loop
      vertex -11.3752 -12.6335 8
      vertex -13.7533 -9.99235 0
      vertex -13.7533 -9.99235 8
    endloop
  endfacet
  facet normal 0.743145 0.66913 0
    outer loop
      vertex -13.7533 -9.99235 0
      vertex -11.3752 -12.6335 8
      vertex -11.3752 -12.6335 0
    endloop
  endfacet
  facet normal 0.951056 0.309017 0
    outer loop
      vertex -15.5303 -6.91452 8
      vertex -16.6285 -3.5345 0
      vertex -16.6285 -3.5345 8
    endloop
  endfacet
  facet normal 0.951056 0.309017 0
    outer loop
      vertex -16.6285 -3.5345 0
      vertex -15.5303 -6.91452 8
      vertex -15.5303 -6.91452 0
    endloop
  endfacet
  facet normal 0.994522 0.104528 0
    outer loop
      vertex -16.6285 -3.5345 8
      vertex -17 0 0
      vertex -17 0 8
    endloop
  endfacet
  facet normal 0.994522 0.104528 0
    outer loop
      vertex -17 0 0
      vertex -16.6285 -3.5345 8
      vertex -16.6285 -3.5345 0
    endloop
  endfacet
  facet normal -0.406737 0.913545 0
    outer loop
      vertex 8.5 -14.7224 0
      vertex 5.25329 -16.168 8
      vertex 8.5 -14.7224 8
    endloop
  endfacet
  facet normal -0.406737 0.913545 0
    outer loop
      vertex 5.25329 -16.168 8
      vertex 8.5 -14.7224 0
      vertex 5.25329 -16.168 0
    endloop
  endfacet
  facet normal -0.207911 0.978148 0
    outer loop
      vertex 5.25329 -16.168 0
      vertex 1.77698 -16.9069 8
      vertex 5.25329 -16.168 8
    endloop
  endfacet
  facet normal -0.207911 0.978148 0
    outer loop
      vertex 1.77698 -16.9069 8
      vertex 5.25329 -16.168 0
      vertex 1.77698 -16.9069 0
    endloop
  endfacet
endsolid OpenSCAD_Model
