solid OpenSCAD_Model
  facet normal 0.994522 0.104529 0
    outer loop
      vertex 18.5 0 35
      vertex 18.0957 3.84637 30
      vertex 18.0957 3.84637 35
    endloop
  endfacet
  facet normal 0.994522 0.104529 0
    outer loop
      vertex 18.0957 3.84637 30
      vertex 18.5 0 35
      vertex 18.5 0 30
    endloop
  endfacet
  facet normal -0.994522 0.104529 0
    outer loop
      vertex -18.5 0 30
      vertex -18.0957 3.84637 35
      vertex -18.0957 3.84637 30
    endloop
  endfacet
  facet normal -0.994522 0.104529 0
    outer loop
      vertex -18.0957 3.84637 35
      vertex -18.5 0 30
      vertex -18.5 0 35
    endloop
  endfacet
  facet normal 0 1 -0
    outer loop
      vertex 1.93378 18.3987 30
      vertex -1.93378 18.3987 35
      vertex 1.93378 18.3987 35
    endloop
  endfacet
  facet normal 0 1 0
    outer loop
      vertex -1.93378 18.3987 35
      vertex 1.93378 18.3987 30
      vertex -1.93378 18.3987 30
    endloop
  endfacet
  facet normal 0.587785 0.809017 -0
    outer loop
      vertex 12.3789 13.7482 30
      vertex 9.25 16.0215 35
      vertex 12.3789 13.7482 35
    endloop
  endfacet
  facet normal 0.587785 0.809017 0
    outer loop
      vertex 9.25 16.0215 35
      vertex 12.3789 13.7482 30
      vertex 9.25 16.0215 30
    endloop
  endfacet
  facet normal 0.406737 0.913545 -0
    outer loop
      vertex 9.25 16.0215 30
      vertex 5.71681 17.5945 35
      vertex 9.25 16.0215 35
    endloop
  endfacet
  facet normal 0.406737 0.913545 0
    outer loop
      vertex 5.71681 17.5945 35
      vertex 9.25 16.0215 30
      vertex 5.71681 17.5945 30
    endloop
  endfacet
  facet normal -0.587785 0.809017 0
    outer loop
      vertex -9.25 16.0215 30
      vertex -12.3789 13.7482 35
      vertex -9.25 16.0215 35
    endloop
  endfacet
  facet normal -0.587785 0.809017 0
    outer loop
      vertex -12.3789 13.7482 35
      vertex -9.25 16.0215 30
      vertex -12.3789 13.7482 30
    endloop
  endfacet
  facet normal -0.207912 0.978148 0
    outer loop
      vertex -1.93378 18.3987 30
      vertex -5.71681 17.5945 35
      vertex -1.93378 18.3987 35
    endloop
  endfacet
  facet normal -0.207912 0.978148 0
    outer loop
      vertex -5.71681 17.5945 35
      vertex -1.93378 18.3987 30
      vertex -5.71681 17.5945 30
    endloop
  endfacet
  facet normal 0.866025 0.5 0
    outer loop
      vertex 16.9006 7.52463 35
      vertex 14.9668 10.874 30
      vertex 14.9668 10.874 35
    endloop
  endfacet
  facet normal 0.866025 0.5 0
    outer loop
      vertex 14.9668 10.874 30
      vertex 16.9006 7.52463 35
      vertex 16.9006 7.52463 30
    endloop
  endfacet
  facet normal 0.951057 0.309017 0
    outer loop
      vertex 18.0957 3.84637 35
      vertex 16.9006 7.52463 30
      vertex 16.9006 7.52463 35
    endloop
  endfacet
  facet normal 0.951057 0.309017 0
    outer loop
      vertex 16.9006 7.52463 30
      vertex 18.0957 3.84637 35
      vertex 18.0957 3.84637 30
    endloop
  endfacet
  facet normal 0.743145 0.669131 0
    outer loop
      vertex 14.9668 10.874 35
      vertex 12.3789 13.7482 30
      vertex 12.3789 13.7482 35
    endloop
  endfacet
  facet normal 0.743145 0.669131 0
    outer loop
      vertex 12.3789 13.7482 30
      vertex 14.9668 10.874 35
      vertex 14.9668 10.874 30
    endloop
  endfacet
  facet normal 0.207912 0.978148 -0
    outer loop
      vertex 5.71681 17.5945 30
      vertex 1.93378 18.3987 35
      vertex 5.71681 17.5945 35
    endloop
  endfacet
  facet normal 0.207912 0.978148 0
    outer loop
      vertex 1.93378 18.3987 35
      vertex 5.71681 17.5945 30
      vertex 1.93378 18.3987 30
    endloop
  endfacet
  facet normal -0.866025 0.5 0
    outer loop
      vertex -16.9006 7.52463 30
      vertex -14.9668 10.874 35
      vertex -14.9668 10.874 30
    endloop
  endfacet
  facet normal -0.866025 0.5 0
    outer loop
      vertex -14.9668 10.874 35
      vertex -16.9006 7.52463 30
      vertex -16.9006 7.52463 35
    endloop
  endfacet
  facet normal -0.743145 0.669131 0
    outer loop
      vertex -14.9668 10.874 30
      vertex -12.3789 13.7482 35
      vertex -12.3789 13.7482 30
    endloop
  endfacet
  facet normal -0.743145 0.669131 0
    outer loop
      vertex -12.3789 13.7482 35
      vertex -14.9668 10.874 30
      vertex -14.9668 10.874 35
    endloop
  endfacet
  facet normal -0.951057 0.309017 0
    outer loop
      vertex -18.0957 3.84637 30
      vertex -16.9006 7.52463 35
      vertex -16.9006 7.52463 30
    endloop
  endfacet
  facet normal -0.951057 0.309017 0
    outer loop
      vertex -16.9006 7.52463 35
      vertex -18.0957 3.84637 30
      vertex -18.0957 3.84637 35
    endloop
  endfacet
  facet normal 0 0 1
    outer loop
      vertex 17 0 35
      vertex 18.5 0 35
      vertex 18.0957 3.84637 35
    endloop
  endfacet
  facet normal 0 0 1
    outer loop
      vertex 18.5 0 35
      vertex 17 0 35
      vertex 18.0957 -3.84637 35
    endloop
  endfacet
  facet normal 0 0 1
    outer loop
      vertex 16.6285 3.5345 35
      vertex 18.0957 3.84637 35
      vertex 16.9006 7.52463 35
    endloop
  endfacet
  facet normal 0 0 1
    outer loop
      vertex 18.0957 3.84637 35
      vertex 16.6285 3.5345 35
      vertex 17 0 35
    endloop
  endfacet
  facet normal 0 0 1
    outer loop
      vertex 16.9006 7.52463 35
      vertex 15.5303 6.91452 35
      vertex 16.6285 3.5345 35
    endloop
  endfacet
  facet normal 0 0 1
    outer loop
      vertex 14.9668 10.874 35
      vertex 15.5303 6.91452 35
      vertex 16.9006 7.52463 35
    endloop
  endfacet
  facet normal 0 0 1
    outer loop
      vertex 14.9668 10.874 35
      vertex 13.7533 9.99235 35
      vertex 15.5303 6.91452 35
    endloop
  endfacet
  facet normal 0 0 1
    outer loop
      vertex 12.3789 13.7482 35
      vertex 13.7533 9.99235 35
      vertex 14.9668 10.874 35
    endloop
  endfacet
  facet normal 0 0 1
    outer loop
      vertex 12.3789 13.7482 35
      vertex 11.3752 12.6335 35
      vertex 13.7533 9.99235 35
    endloop
  endfacet
  facet normal 0 0 1
    outer loop
      vertex 9.25 16.0215 35
      vertex 11.3752 12.6335 35
      vertex 12.3789 13.7482 35
    endloop
  endfacet
  facet normal 0 0 1
    outer loop
      vertex 9.25 16.0215 35
      vertex 8.5 14.7224 35
      vertex 11.3752 12.6335 35
    endloop
  endfacet
  facet normal 0 0 1
    outer loop
      vertex 5.71681 17.5945 35
      vertex 8.5 14.7224 35
      vertex 9.25 16.0215 35
    endloop
  endfacet
  facet normal 0 0 1
    outer loop
      vertex 5.71681 17.5945 35
      vertex 5.25329 16.168 35
      vertex 8.5 14.7224 35
    endloop
  endfacet
  facet normal 0 0 1
    outer loop
      vertex 1.93378 18.3987 35
      vertex 5.25329 16.168 35
      vertex 5.71681 17.5945 35
    endloop
  endfacet
  facet normal 0 0 1
    outer loop
      vertex 1.93378 18.3987 35
      vertex 1.77698 16.9069 35
      vertex 5.25329 16.168 35
    endloop
  endfacet
  facet normal 0 0 1
    outer loop
      vertex 1.93378 18.3987 35
      vertex -1.77698 16.9069 35
      vertex 1.77698 16.9069 35
    endloop
  endfacet
  facet normal -0 0 1
    outer loop
      vertex -1.93378 18.3987 35
      vertex -1.77698 16.9069 35
      vertex 1.93378 18.3987 35
    endloop
  endfacet
  facet normal 0 0 1
    outer loop
      vertex -1.93378 18.3987 35
      vertex -5.25329 16.168 35
      vertex -1.77698 16.9069 35
    endloop
  endfacet
  facet normal -0 0 1
    outer loop
      vertex -5.71681 17.5945 35
      vertex -5.25329 16.168 35
      vertex -1.93378 18.3987 35
    endloop
  endfacet
  facet normal 0 0 1
    outer loop
      vertex -5.71681 17.5945 35
      vertex -8.5 14.7224 35
      vertex -5.25329 16.168 35
    endloop
  endfacet
  facet normal -0 0 1
    outer loop
      vertex -9.25 16.0215 35
      vertex -8.5 14.7224 35
      vertex -5.71681 17.5945 35
    endloop
  endfacet
  facet normal 0 0 1
    outer loop
      vertex -9.25 16.0215 35
      vertex -11.3752 12.6335 35
      vertex -8.5 14.7224 35
    endloop
  endfacet
  facet normal -0 0 1
    outer loop
      vertex -12.3789 13.7482 35
      vertex -11.3752 12.6335 35
      vertex -9.25 16.0215 35
    endloop
  endfacet
  facet normal 0 0 1
    outer loop
      vertex -12.3789 13.7482 35
      vertex -13.7533 9.99235 35
      vertex -11.3752 12.6335 35
    endloop
  endfacet
  facet normal -0 0 1
    outer loop
      vertex -14.9668 10.874 35
      vertex -13.7533 9.99235 35
      vertex -12.3789 13.7482 35
    endloop
  endfacet
  facet normal 0 0 1
    outer loop
      vertex -14.9668 10.874 35
      vertex -15.5303 6.91452 35
      vertex -13.7533 9.99235 35
    endloop
  endfacet
  facet normal -0 0 1
    outer loop
      vertex -16.9006 7.52463 35
      vertex -15.5303 6.91452 35
      vertex -14.9668 10.874 35
    endloop
  endfacet
  facet normal 0 0 1
    outer loop
      vertex -15.5303 6.91452 35
      vertex -16.9006 7.52463 35
      vertex -16.6285 3.5345 35
    endloop
  endfacet
  facet normal -0 0 1
    outer loop
      vertex -18.0957 3.84637 35
      vertex -16.6285 3.5345 35
      vertex -16.9006 7.52463 35
    endloop
  endfacet
  facet normal 0 0 1
    outer loop
      vertex -16.6285 3.5345 35
      vertex -18.0957 3.84637 35
      vertex -17 0 35
    endloop
  endfacet
  facet normal -0 0 1
    outer loop
      vertex 16.6285 -3.5345 35
      vertex 18.0957 -3.84637 35
      vertex 17 0 35
    endloop
  endfacet
  facet normal 0 0 1
    outer loop
      vertex 18.0957 -3.84637 35
      vertex 16.6285 -3.5345 35
      vertex 16.9006 -7.52463 35
    endloop
  endfacet
  facet normal -0 0 1
    outer loop
      vertex 15.5303 -6.91452 35
      vertex 16.9006 -7.52463 35
      vertex 16.6285 -3.5345 35
    endloop
  endfacet
  facet normal 0 0 1
    outer loop
      vertex 15.5303 -6.91452 35
      vertex 14.9668 -10.874 35
      vertex 16.9006 -7.52463 35
    endloop
  endfacet
  facet normal -0 0 1
    outer loop
      vertex 13.7533 -9.99235 35
      vertex 14.9668 -10.874 35
      vertex 15.5303 -6.91452 35
    endloop
  endfacet
  facet normal 0 0 1
    outer loop
      vertex 13.7533 -9.99235 35
      vertex 12.3789 -13.7482 35
      vertex 14.9668 -10.874 35
    endloop
  endfacet
  facet normal -0 0 1
    outer loop
      vertex 11.3752 -12.6335 35
      vertex 12.3789 -13.7482 35
      vertex 13.7533 -9.99235 35
    endloop
  endfacet
  facet normal 0 0 1
    outer loop
      vertex 11.3752 -12.6335 35
      vertex 9.25 -16.0215 35
      vertex 12.3789 -13.7482 35
    endloop
  endfacet
  facet normal -0 0 1
    outer loop
      vertex 8.5 -14.7224 35
      vertex 9.25 -16.0215 35
      vertex 11.3752 -12.6335 35
    endloop
  endfacet
  facet normal 0 0 1
    outer loop
      vertex 8.5 -14.7224 35
      vertex 5.71681 -17.5945 35
      vertex 9.25 -16.0215 35
    endloop
  endfacet
  facet normal -0 0 1
    outer loop
      vertex 5.25329 -16.168 35
      vertex 5.71681 -17.5945 35
      vertex 8.5 -14.7224 35
    endloop
  endfacet
  facet normal 0 0 1
    outer loop
      vertex 5.25329 -16.168 35
      vertex 1.93378 -18.3987 35
      vertex 5.71681 -17.5945 35
    endloop
  endfacet
  facet normal -0 0 1
    outer loop
      vertex 1.77698 -16.9069 35
      vertex 1.93378 -18.3987 35
      vertex 5.25329 -16.168 35
    endloop
  endfacet
  facet normal -0 0 1
    outer loop
      vertex -1.77698 -16.9069 35
      vertex 1.93378 -18.3987 35
      vertex 1.77698 -16.9069 35
    endloop
  endfacet
  facet normal 0 0 1
    outer loop
      vertex -1.77698 -16.9069 35
      vertex -1.93378 -18.3987 35
      vertex 1.93378 -18.3987 35
    endloop
  endfacet
  facet normal 0 0 1
    outer loop
      vertex -5.25329 -16.168 35
      vertex -1.93378 -18.3987 35
      vertex -1.77698 -16.9069 35
    endloop
  endfacet
  facet normal 0 0 1
    outer loop
      vertex -5.25329 -16.168 35
      vertex -5.71681 -17.5945 35
      vertex -1.93378 -18.3987 35
    endloop
  endfacet
  facet normal 0 0 1
    outer loop
      vertex -8.5 -14.7224 35
      vertex -5.71681 -17.5945 35
      vertex -5.25329 -16.168 35
    endloop
  endfacet
  facet normal 0 0 1
    outer loop
      vertex -8.5 -14.7224 35
      vertex -9.25 -16.0215 35
      vertex -5.71681 -17.5945 35
    endloop
  endfacet
  facet normal 0 0 1
    outer loop
      vertex -11.3752 -12.6335 35
      vertex -9.25 -16.0215 35
      vertex -8.5 -14.7224 35
    endloop
  endfacet
  facet normal 0 0 1
    outer loop
      vertex -11.3752 -12.6335 35
      vertex -12.3789 -13.7482 35
      vertex -9.25 -16.0215 35
    endloop
  endfacet
  facet normal 0 0 1
    outer loop
      vertex -13.7533 -9.99235 35
      vertex -12.3789 -13.7482 35
      vertex -11.3752 -12.6335 35
    endloop
  endfacet
  facet normal 0 0 1
    outer loop
      vertex -13.7533 -9.99235 35
      vertex -14.9668 -10.874 35
      vertex -12.3789 -13.7482 35
    endloop
  endfacet
  facet normal 0 0 1
    outer loop
      vertex -15.5303 -6.91452 35
      vertex -14.9668 -10.874 35
      vertex -13.7533 -9.99235 35
    endloop
  endfacet
  facet normal 0 0 1
    outer loop
      vertex -16.9006 -7.52463 35
      vertex -15.5303 -6.91452 35
      vertex -16.6285 -3.5345 35
    endloop
  endfacet
  facet normal 0 0 1
    outer loop
      vertex -15.5303 -6.91452 35
      vertex -16.9006 -7.52463 35
      vertex -14.9668 -10.874 35
    endloop
  endfacet
  facet normal 0 0 1
    outer loop
      vertex -18.0957 -3.84637 35
      vertex -16.6285 -3.5345 35
      vertex -17 0 35
    endloop
  endfacet
  facet normal 0 0 1
    outer loop
      vertex -18.5 0 35
      vertex -17 0 35
      vertex -18.0957 3.84637 35
    endloop
  endfacet
  facet normal 0 0 1
    outer loop
      vertex -16.6285 -3.5345 35
      vertex -18.0957 -3.84637 35
      vertex -16.9006 -7.52463 35
    endloop
  endfacet
  facet normal 0 0 1
    outer loop
      vertex -17 0 35
      vertex -18.5 0 35
      vertex -18.0957 -3.84637 35
    endloop
  endfacet
  facet normal -0.406737 0.913545 0
    outer loop
      vertex -5.71681 17.5945 30
      vertex -9.25 16.0215 35
      vertex -5.71681 17.5945 35
    endloop
  endfacet
  facet normal -0.406737 0.913545 0
    outer loop
      vertex -9.25 16.0215 35
      vertex -5.71681 17.5945 30
      vertex -9.25 16.0215 30
    endloop
  endfacet
  facet normal 0.994522 -0.104529 0
    outer loop
      vertex 18.0957 -3.84637 35
      vertex 18.5 0 30
      vertex 18.5 0 35
    endloop
  endfacet
  facet normal 0.994522 -0.104529 0
    outer loop
      vertex 18.5 0 30
      vertex 18.0957 -3.84637 35
      vertex 18.0957 -3.84637 30
    endloop
  endfacet
  facet normal -0.207912 -0.978148 0
    outer loop
      vertex -5.71681 -17.5945 30
      vertex -1.93378 -18.3987 35
      vertex -5.71681 -17.5945 35
    endloop
  endfacet
  facet normal -0.207912 -0.978148 -0
    outer loop
      vertex -1.93378 -18.3987 35
      vertex -5.71681 -17.5945 30
      vertex -1.93378 -18.3987 30
    endloop
  endfacet
  facet normal 0.207912 -0.978148 0
    outer loop
      vertex 1.93378 -18.3987 30
      vertex 5.71681 -17.5945 35
      vertex 1.93378 -18.3987 35
    endloop
  endfacet
  facet normal 0.207912 -0.978148 0
    outer loop
      vertex 5.71681 -17.5945 35
      vertex 1.93378 -18.3987 30
      vertex 5.71681 -17.5945 30
    endloop
  endfacet
  facet normal 0.743145 -0.669131 0
    outer loop
      vertex 12.3789 -13.7482 35
      vertex 14.9668 -10.874 30
      vertex 14.9668 -10.874 35
    endloop
  endfacet
  facet normal 0.743145 -0.669131 0
    outer loop
      vertex 14.9668 -10.874 30
      vertex 12.3789 -13.7482 35
      vertex 12.3789 -13.7482 30
    endloop
  endfacet
  facet normal 0.951057 -0.309017 0
    outer loop
      vertex 16.9006 -7.52463 35
      vertex 18.0957 -3.84637 30
      vertex 18.0957 -3.84637 35
    endloop
  endfacet
  facet normal 0.951057 -0.309017 0
    outer loop
      vertex 18.0957 -3.84637 30
      vertex 16.9006 -7.52463 35
      vertex 16.9006 -7.52463 30
    endloop
  endfacet
  facet normal 0.866025 -0.5 0
    outer loop
      vertex 14.9668 -10.874 35
      vertex 16.9006 -7.52463 30
      vertex 16.9006 -7.52463 35
    endloop
  endfacet
  facet normal 0.866025 -0.5 0
    outer loop
      vertex 16.9006 -7.52463 30
      vertex 14.9668 -10.874 35
      vertex 14.9668 -10.874 30
    endloop
  endfacet
  facet normal -0.406737 -0.913545 0
    outer loop
      vertex -9.25 -16.0215 30
      vertex -5.71681 -17.5945 35
      vertex -9.25 -16.0215 35
    endloop
  endfacet
  facet normal -0.406737 -0.913545 -0
    outer loop
      vertex -5.71681 -17.5945 35
      vertex -9.25 -16.0215 30
      vertex -5.71681 -17.5945 30
    endloop
  endfacet
  facet normal -0.866025 -0.5 0
    outer loop
      vertex -14.9668 -10.874 30
      vertex -16.9006 -7.52463 35
      vertex -16.9006 -7.52463 30
    endloop
  endfacet
  facet normal -0.866025 -0.5 0
    outer loop
      vertex -16.9006 -7.52463 35
      vertex -14.9668 -10.874 30
      vertex -14.9668 -10.874 35
    endloop
  endfacet
  facet normal -0.994522 -0.104529 0
    outer loop
      vertex -18.0957 -3.84637 30
      vertex -18.5 0 35
      vertex -18.5 0 30
    endloop
  endfacet
  facet normal -0.994522 -0.104529 0
    outer loop
      vertex -18.5 0 35
      vertex -18.0957 -3.84637 30
      vertex -18.0957 -3.84637 35
    endloop
  endfacet
  facet normal -0.951057 -0.309017 0
    outer loop
      vertex -16.9006 -7.52463 30
      vertex -18.0957 -3.84637 35
      vertex -18.0957 -3.84637 30
    endloop
  endfacet
  facet normal -0.951057 -0.309017 0
    outer loop
      vertex -18.0957 -3.84637 35
      vertex -16.9006 -7.52463 30
      vertex -16.9006 -7.52463 35
    endloop
  endfacet
  facet normal 0.587785 -0.809017 0
    outer loop
      vertex 9.25 -16.0215 30
      vertex 12.3789 -13.7482 35
      vertex 9.25 -16.0215 35
    endloop
  endfacet
  facet normal 0.587785 -0.809017 0
    outer loop
      vertex 12.3789 -13.7482 35
      vertex 9.25 -16.0215 30
      vertex 12.3789 -13.7482 30
    endloop
  endfacet
  facet normal 0.406737 -0.913545 0
    outer loop
      vertex 5.71681 -17.5945 30
      vertex 9.25 -16.0215 35
      vertex 5.71681 -17.5945 35
    endloop
  endfacet
  facet normal 0.406737 -0.913545 0
    outer loop
      vertex 9.25 -16.0215 35
      vertex 5.71681 -17.5945 30
      vertex 9.25 -16.0215 30
    endloop
  endfacet
  facet normal 0 -1 0
    outer loop
      vertex -1.93378 -18.3987 30
      vertex 1.93378 -18.3987 35
      vertex -1.93378 -18.3987 35
    endloop
  endfacet
  facet normal 0 -1 -0
    outer loop
      vertex 1.93378 -18.3987 35
      vertex -1.93378 -18.3987 30
      vertex 1.93378 -18.3987 30
    endloop
  endfacet
  facet normal -0.587785 -0.809017 0
    outer loop
      vertex -12.3789 -13.7482 30
      vertex -9.25 -16.0215 35
      vertex -12.3789 -13.7482 35
    endloop
  endfacet
  facet normal -0.587785 -0.809017 -0
    outer loop
      vertex -9.25 -16.0215 35
      vertex -12.3789 -13.7482 30
      vertex -9.25 -16.0215 30
    endloop
  endfacet
  facet normal -0.743145 -0.669131 0
    outer loop
      vertex -12.3789 -13.7482 30
      vertex -14.9668 -10.874 35
      vertex -14.9668 -10.874 30
    endloop
  endfacet
  facet normal -0.743145 -0.669131 0
    outer loop
      vertex -14.9668 -10.874 35
      vertex -12.3789 -13.7482 30
      vertex -12.3789 -13.7482 35
    endloop
  endfacet
  facet normal 0 0 1
    outer loop
      vertex 18.5 0 30
      vertex 20 0 30
      vertex 19.563 4.15823 30
    endloop
  endfacet
  facet normal 0 0 1
    outer loop
      vertex 20 0 30
      vertex 18.5 0 30
      vertex 19.563 -4.15823 30
    endloop
  endfacet
  facet normal 0 0 1
    outer loop
      vertex 18.0957 3.84637 30
      vertex 19.563 4.15823 30
      vertex 18.2709 8.13473 30
    endloop
  endfacet
  facet normal 0 0 1
    outer loop
      vertex 19.563 4.15823 30
      vertex 18.0957 3.84637 30
      vertex 18.5 0 30
    endloop
  endfacet
  facet normal 0 0 1
    outer loop
      vertex 18.2709 8.13473 30
      vertex 16.9006 7.52463 30
      vertex 18.0957 3.84637 30
    endloop
  endfacet
  facet normal 0 0 1
    outer loop
      vertex 16.1803 11.7557 30
      vertex 16.9006 7.52463 30
      vertex 18.2709 8.13473 30
    endloop
  endfacet
  facet normal 0 0 1
    outer loop
      vertex 16.1803 11.7557 30
      vertex 14.9668 10.874 30
      vertex 16.9006 7.52463 30
    endloop
  endfacet
  facet normal 0 0 1
    outer loop
      vertex 13.3826 14.8629 30
      vertex 14.9668 10.874 30
      vertex 16.1803 11.7557 30
    endloop
  endfacet
  facet normal 0 0 1
    outer loop
      vertex 13.3826 14.8629 30
      vertex 12.3789 13.7482 30
      vertex 14.9668 10.874 30
    endloop
  endfacet
  facet normal 0 0 1
    outer loop
      vertex 10 17.3205 30
      vertex 12.3789 13.7482 30
      vertex 13.3826 14.8629 30
    endloop
  endfacet
  facet normal 0 0 1
    outer loop
      vertex 10 17.3205 30
      vertex 9.25 16.0215 30
      vertex 12.3789 13.7482 30
    endloop
  endfacet
  facet normal 0 0 1
    outer loop
      vertex 6.18034 19.0211 30
      vertex 9.25 16.0215 30
      vertex 10 17.3205 30
    endloop
  endfacet
  facet normal 0 0 1
    outer loop
      vertex 6.18034 19.0211 30
      vertex 5.71681 17.5945 30
      vertex 9.25 16.0215 30
    endloop
  endfacet
  facet normal 0 0 1
    outer loop
      vertex 2.09057 19.8904 30
      vertex 5.71681 17.5945 30
      vertex 6.18034 19.0211 30
    endloop
  endfacet
  facet normal 0 0 1
    outer loop
      vertex 2.09057 19.8904 30
      vertex 1.93378 18.3987 30
      vertex 5.71681 17.5945 30
    endloop
  endfacet
  facet normal 0 0 1
    outer loop
      vertex 2.09057 19.8904 30
      vertex -1.93378 18.3987 30
      vertex 1.93378 18.3987 30
    endloop
  endfacet
  facet normal -0 0 1
    outer loop
      vertex -2.09057 19.8904 30
      vertex -1.93378 18.3987 30
      vertex 2.09057 19.8904 30
    endloop
  endfacet
  facet normal 0 0 1
    outer loop
      vertex -2.09057 19.8904 30
      vertex -5.71681 17.5945 30
      vertex -1.93378 18.3987 30
    endloop
  endfacet
  facet normal -0 0 1
    outer loop
      vertex -6.18034 19.0211 30
      vertex -5.71681 17.5945 30
      vertex -2.09057 19.8904 30
    endloop
  endfacet
  facet normal 0 0 1
    outer loop
      vertex -6.18034 19.0211 30
      vertex -9.25 16.0215 30
      vertex -5.71681 17.5945 30
    endloop
  endfacet
  facet normal -0 0 1
    outer loop
      vertex -10 17.3205 30
      vertex -9.25 16.0215 30
      vertex -6.18034 19.0211 30
    endloop
  endfacet
  facet normal 0 0 1
    outer loop
      vertex -10 17.3205 30
      vertex -12.3789 13.7482 30
      vertex -9.25 16.0215 30
    endloop
  endfacet
  facet normal -0 0 1
    outer loop
      vertex -13.3826 14.8629 30
      vertex -12.3789 13.7482 30
      vertex -10 17.3205 30
    endloop
  endfacet
  facet normal 0 0 1
    outer loop
      vertex -13.3826 14.8629 30
      vertex -14.9668 10.874 30
      vertex -12.3789 13.7482 30
    endloop
  endfacet
  facet normal -0 0 1
    outer loop
      vertex -16.1803 11.7557 30
      vertex -14.9668 10.874 30
      vertex -13.3826 14.8629 30
    endloop
  endfacet
  facet normal 0 0 1
    outer loop
      vertex -16.1803 11.7557 30
      vertex -16.9006 7.52463 30
      vertex -14.9668 10.874 30
    endloop
  endfacet
  facet normal -0 0 1
    outer loop
      vertex -18.2709 8.13473 30
      vertex -16.9006 7.52463 30
      vertex -16.1803 11.7557 30
    endloop
  endfacet
  facet normal 0 0 1
    outer loop
      vertex -16.9006 7.52463 30
      vertex -18.2709 8.13473 30
      vertex -18.0957 3.84637 30
    endloop
  endfacet
  facet normal -0 0 1
    outer loop
      vertex -19.563 4.15823 30
      vertex -18.0957 3.84637 30
      vertex -18.2709 8.13473 30
    endloop
  endfacet
  facet normal 0 0 1
    outer loop
      vertex -18.0957 3.84637 30
      vertex -19.563 4.15823 30
      vertex -18.5 0 30
    endloop
  endfacet
  facet normal -0 0 1
    outer loop
      vertex 18.0957 -3.84637 30
      vertex 19.563 -4.15823 30
      vertex 18.5 0 30
    endloop
  endfacet
  facet normal 0 0 1
    outer loop
      vertex 19.563 -4.15823 30
      vertex 18.0957 -3.84637 30
      vertex 18.2709 -8.13473 30
    endloop
  endfacet
  facet normal -0 0 1
    outer loop
      vertex 16.9006 -7.52463 30
      vertex 18.2709 -8.13473 30
      vertex 18.0957 -3.84637 30
    endloop
  endfacet
  facet normal 0 0 1
    outer loop
      vertex 16.9006 -7.52463 30
      vertex 16.1803 -11.7557 30
      vertex 18.2709 -8.13473 30
    endloop
  endfacet
  facet normal -0 0 1
    outer loop
      vertex 14.9668 -10.874 30
      vertex 16.1803 -11.7557 30
      vertex 16.9006 -7.52463 30
    endloop
  endfacet
  facet normal 0 0 1
    outer loop
      vertex 14.9668 -10.874 30
      vertex 13.3826 -14.8629 30
      vertex 16.1803 -11.7557 30
    endloop
  endfacet
  facet normal -0 0 1
    outer loop
      vertex 12.3789 -13.7482 30
      vertex 13.3826 -14.8629 30
      vertex 14.9668 -10.874 30
    endloop
  endfacet
  facet normal 0 0 1
    outer loop
      vertex 12.3789 -13.7482 30
      vertex 10 -17.3205 30
      vertex 13.3826 -14.8629 30
    endloop
  endfacet
  facet normal -0 0 1
    outer loop
      vertex 9.25 -16.0215 30
      vertex 10 -17.3205 30
      vertex 12.3789 -13.7482 30
    endloop
  endfacet
  facet normal 0 0 1
    outer loop
      vertex 9.25 -16.0215 30
      vertex 6.18034 -19.0211 30
      vertex 10 -17.3205 30
    endloop
  endfacet
  facet normal -0 0 1
    outer loop
      vertex 5.71681 -17.5945 30
      vertex 6.18034 -19.0211 30
      vertex 9.25 -16.0215 30
    endloop
  endfacet
  facet normal 0 0 1
    outer loop
      vertex 5.71681 -17.5945 30
      vertex 2.09057 -19.8904 30
      vertex 6.18034 -19.0211 30
    endloop
  endfacet
  facet normal -0 0 1
    outer loop
      vertex 1.93378 -18.3987 30
      vertex 2.09057 -19.8904 30
      vertex 5.71681 -17.5945 30
    endloop
  endfacet
  facet normal -0 0 1
    outer loop
      vertex -1.93378 -18.3987 30
      vertex 2.09057 -19.8904 30
      vertex 1.93378 -18.3987 30
    endloop
  endfacet
  facet normal 0 0 1
    outer loop
      vertex -1.93378 -18.3987 30
      vertex -2.09057 -19.8904 30
      vertex 2.09057 -19.8904 30
    endloop
  endfacet
  facet normal 0 0 1
    outer loop
      vertex -5.71681 -17.5945 30
      vertex -2.09057 -19.8904 30
      vertex -1.93378 -18.3987 30
    endloop
  endfacet
  facet normal 0 0 1
    outer loop
      vertex -5.71681 -17.5945 30
      vertex -6.18034 -19.0211 30
      vertex -2.09057 -19.8904 30
    endloop
  endfacet
  facet normal 0 0 1
    outer loop
      vertex -9.25 -16.0215 30
      vertex -6.18034 -19.0211 30
      vertex -5.71681 -17.5945 30
    endloop
  endfacet
  facet normal 0 0 1
    outer loop
      vertex -9.25 -16.0215 30
      vertex -10 -17.3205 30
      vertex -6.18034 -19.0211 30
    endloop
  endfacet
  facet normal 0 0 1
    outer loop
      vertex -12.3789 -13.7482 30
      vertex -10 -17.3205 30
      vertex -9.25 -16.0215 30
    endloop
  endfacet
  facet normal 0 0 1
    outer loop
      vertex -12.3789 -13.7482 30
      vertex -13.3826 -14.8629 30
      vertex -10 -17.3205 30
    endloop
  endfacet
  facet normal 0 0 1
    outer loop
      vertex -14.9668 -10.874 30
      vertex -13.3826 -14.8629 30
      vertex -12.3789 -13.7482 30
    endloop
  endfacet
  facet normal 0 0 1
    outer loop
      vertex -14.9668 -10.874 30
      vertex -16.1803 -11.7557 30
      vertex -13.3826 -14.8629 30
    endloop
  endfacet
  facet normal 0 0 1
    outer loop
      vertex -16.9006 -7.52463 30
      vertex -16.1803 -11.7557 30
      vertex -14.9668 -10.874 30
    endloop
  endfacet
  facet normal 0 0 1
    outer loop
      vertex -18.2709 -8.13473 30
      vertex -16.9006 -7.52463 30
      vertex -18.0957 -3.84637 30
    endloop
  endfacet
  facet normal 0 0 1
    outer loop
      vertex -16.9006 -7.52463 30
      vertex -18.2709 -8.13473 30
      vertex -16.1803 -11.7557 30
    endloop
  endfacet
  facet normal 0 0 1
    outer loop
      vertex -19.563 -4.15823 30
      vertex -18.0957 -3.84637 30
      vertex -18.5 0 30
    endloop
  endfacet
  facet normal 0 0 1
    outer loop
      vertex -20 0 30
      vertex -18.5 0 30
      vertex -19.563 4.15823 30
    endloop
  endfacet
  facet normal 0 0 1
    outer loop
      vertex -18.0957 -3.84637 30
      vertex -19.563 -4.15823 30
      vertex -18.2709 -8.13473 30
    endloop
  endfacet
  facet normal 0 0 1
    outer loop
      vertex -18.5 0 30
      vertex -20 0 30
      vertex -19.563 -4.15823 30
    endloop
  endfacet
  facet normal 0.866026 0.5 0
    outer loop
      vertex 18.2709 8.13473 30
      vertex 16.1803 11.7557 0
      vertex 16.1803 11.7557 30
    endloop
  endfacet
  facet normal 0.866026 0.5 0
    outer loop
      vertex 16.1803 11.7557 0
      vertex 18.2709 8.13473 30
      vertex 18.2709 8.13473 0
    endloop
  endfacet
  facet normal -0.951057 0.309017 0
    outer loop
      vertex -19.563 4.15823 0
      vertex -18.2709 8.13473 30
      vertex -18.2709 8.13473 0
    endloop
  endfacet
  facet normal -0.951057 0.309017 0
    outer loop
      vertex -18.2709 8.13473 30
      vertex -19.563 4.15823 0
      vertex -19.563 4.15823 30
    endloop
  endfacet
  facet normal 0.743145 0.669131 0
    outer loop
      vertex 16.1803 11.7557 30
      vertex 13.3826 14.8629 0
      vertex 13.3826 14.8629 30
    endloop
  endfacet
  facet normal 0.743145 0.669131 0
    outer loop
      vertex 13.3826 14.8629 0
      vertex 16.1803 11.7557 30
      vertex 16.1803 11.7557 0
    endloop
  endfacet
  facet normal 0.406737 0.913545 -0
    outer loop
      vertex 10 17.3205 0
      vertex 6.18034 19.0211 30
      vertex 10 17.3205 30
    endloop
  endfacet
  facet normal 0.406737 0.913545 0
    outer loop
      vertex 6.18034 19.0211 30
      vertex 10 17.3205 0
      vertex 6.18034 19.0211 0
    endloop
  endfacet
  facet normal -0.406737 0.913545 0
    outer loop
      vertex -6.18034 19.0211 0
      vertex -10 17.3205 30
      vertex -6.18034 19.0211 30
    endloop
  endfacet
  facet normal -0.406737 0.913545 0
    outer loop
      vertex -10 17.3205 30
      vertex -6.18034 19.0211 0
      vertex -10 17.3205 0
    endloop
  endfacet
  facet normal 0.994522 -0.104529 0
    outer loop
      vertex 19.563 -4.15823 30
      vertex 20 0 0
      vertex 20 0 30
    endloop
  endfacet
  facet normal 0.994522 -0.104529 0
    outer loop
      vertex 20 0 0
      vertex 19.563 -4.15823 30
      vertex 19.563 -4.15823 0
    endloop
  endfacet
  facet normal 0.587785 0.809017 -0
    outer loop
      vertex 13.3826 14.8629 0
      vertex 10 17.3205 30
      vertex 13.3826 14.8629 30
    endloop
  endfacet
  facet normal 0.587785 0.809017 0
    outer loop
      vertex 10 17.3205 30
      vertex 13.3826 14.8629 0
      vertex 10 17.3205 0
    endloop
  endfacet
  facet normal 0 1 -0
    outer loop
      vertex 2.09057 19.8904 0
      vertex -2.09057 19.8904 30
      vertex 2.09057 19.8904 30
    endloop
  endfacet
  facet normal 0 1 0
    outer loop
      vertex -2.09057 19.8904 30
      vertex 2.09057 19.8904 0
      vertex -2.09057 19.8904 0
    endloop
  endfacet
  facet normal -0.994522 0.104529 0
    outer loop
      vertex -20 0 0
      vertex -19.563 4.15823 30
      vertex -19.563 4.15823 0
    endloop
  endfacet
  facet normal -0.994522 0.104529 0
    outer loop
      vertex -19.563 4.15823 30
      vertex -20 0 0
      vertex -20 0 30
    endloop
  endfacet
  facet normal -0.866026 0.5 0
    outer loop
      vertex -18.2709 8.13473 0
      vertex -16.1803 11.7557 30
      vertex -16.1803 11.7557 0
    endloop
  endfacet
  facet normal -0.866026 0.5 0
    outer loop
      vertex -16.1803 11.7557 30
      vertex -18.2709 8.13473 0
      vertex -18.2709 8.13473 30
    endloop
  endfacet
  facet normal -0.587785 0.809017 0
    outer loop
      vertex -10 17.3205 0
      vertex -13.3826 14.8629 30
      vertex -10 17.3205 30
    endloop
  endfacet
  facet normal -0.587785 0.809017 0
    outer loop
      vertex -13.3826 14.8629 30
      vertex -10 17.3205 0
      vertex -13.3826 14.8629 0
    endloop
  endfacet
  facet normal -0.207912 0.978148 0
    outer loop
      vertex -2.09057 19.8904 0
      vertex -6.18034 19.0211 30
      vertex -2.09057 19.8904 30
    endloop
  endfacet
  facet normal -0.207912 0.978148 0
    outer loop
      vertex -6.18034 19.0211 30
      vertex -2.09057 19.8904 0
      vertex -6.18034 19.0211 0
    endloop
  endfacet
  facet normal -0.743145 0.669131 0
    outer loop
      vertex -16.1803 11.7557 0
      vertex -13.3826 14.8629 30
      vertex -13.3826 14.8629 0
    endloop
  endfacet
  facet normal -0.743145 0.669131 0
    outer loop
      vertex -13.3826 14.8629 30
      vertex -16.1803 11.7557 0
      vertex -16.1803 11.7557 30
    endloop
  endfacet
  facet normal 0.994522 0.104529 0
    outer loop
      vertex 20 0 30
      vertex 19.563 4.15823 0
      vertex 19.563 4.15823 30
    endloop
  endfacet
  facet normal 0.994522 0.104529 0
    outer loop
      vertex 19.563 4.15823 0
      vertex 20 0 30
      vertex 20 0 0
    endloop
  endfacet
  facet normal -0.207912 -0.978148 0
    outer loop
      vertex -6.18034 -19.0211 0
      vertex -2.09057 -19.8904 30
      vertex -6.18034 -19.0211 30
    endloop
  endfacet
  facet normal -0.207912 -0.978148 -0
    outer loop
      vertex -2.09057 -19.8904 30
      vertex -6.18034 -19.0211 0
      vertex -2.09057 -19.8904 0
    endloop
  endfacet
  facet normal 0.587785 -0.809017 0
    outer loop
      vertex 10 -17.3205 0
      vertex 13.3826 -14.8629 30
      vertex 10 -17.3205 30
    endloop
  endfacet
  facet normal 0.587785 -0.809017 0
    outer loop
      vertex 13.3826 -14.8629 30
      vertex 10 -17.3205 0
      vertex 13.3826 -14.8629 0
    endloop
  endfacet
  facet normal 0.951057 0.309017 0
    outer loop
      vertex 19.563 4.15823 30
      vertex 18.2709 8.13473 0
      vertex 18.2709 8.13473 30
    endloop
  endfacet
  facet normal 0.951057 0.309017 0
    outer loop
      vertex 18.2709 8.13473 0
      vertex 19.563 4.15823 30
      vertex 19.563 4.15823 0
    endloop
  endfacet
  facet normal 0.207912 0.978148 -0
    outer loop
      vertex 6.18034 19.0211 0
      vertex 2.09057 19.8904 30
      vertex 6.18034 19.0211 30
    endloop
  endfacet
  facet normal 0.207912 0.978148 0
    outer loop
      vertex 2.09057 19.8904 30
      vertex 6.18034 19.0211 0
      vertex 2.09057 19.8904 0
    endloop
  endfacet
  facet normal 0.951057 -0.309017 0
    outer loop
      vertex 18.2709 -8.13473 30
      vertex 19.563 -4.15823 0
      vertex 19.563 -4.15823 30
    endloop
  endfacet
  facet normal 0.951057 -0.309017 0
    outer loop
      vertex 19.563 -4.15823 0
      vertex 18.2709 -8.13473 30
      vertex 18.2709 -8.13473 0
    endloop
  endfacet
  facet normal 0.866026 -0.5 0
    outer loop
      vertex 16.1803 -11.7557 30
      vertex 18.2709 -8.13473 0
      vertex 18.2709 -8.13473 30
    endloop
  endfacet
  facet normal 0.866026 -0.5 0
    outer loop
      vertex 18.2709 -8.13473 0
      vertex 16.1803 -11.7557 30
      vertex 16.1803 -11.7557 0
    endloop
  endfacet
  facet normal -0.994522 -0.104529 0
    outer loop
      vertex -19.563 -4.15823 0
      vertex -20 0 30
      vertex -20 0 0
    endloop
  endfacet
  facet normal -0.994522 -0.104529 0
    outer loop
      vertex -20 0 30
      vertex -19.563 -4.15823 0
      vertex -19.563 -4.15823 30
    endloop
  endfacet
  facet normal -0.866026 -0.5 0
    outer loop
      vertex -16.1803 -11.7557 0
      vertex -18.2709 -8.13473 30
      vertex -18.2709 -8.13473 0
    endloop
  endfacet
  facet normal -0.866026 -0.5 0
    outer loop
      vertex -18.2709 -8.13473 30
      vertex -16.1803 -11.7557 0
      vertex -16.1803 -11.7557 30
    endloop
  endfacet
  facet normal 0.207912 -0.978148 0
    outer loop
      vertex 2.09057 -19.8904 0
      vertex 6.18034 -19.0211 30
      vertex 2.09057 -19.8904 30
    endloop
  endfacet
  facet normal 0.207912 -0.978148 0
    outer loop
      vertex 6.18034 -19.0211 30
      vertex 2.09057 -19.8904 0
      vertex 6.18034 -19.0211 0
    endloop
  endfacet
  facet normal 0.406737 -0.913545 0
    outer loop
      vertex 6.18034 -19.0211 0
      vertex 10 -17.3205 30
      vertex 6.18034 -19.0211 30
    endloop
  endfacet
  facet normal 0.406737 -0.913545 0
    outer loop
      vertex 10 -17.3205 30
      vertex 6.18034 -19.0211 0
      vertex 10 -17.3205 0
    endloop
  endfacet
  facet normal 0.743145 -0.669131 0
    outer loop
      vertex 13.3826 -14.8629 30
      vertex 16.1803 -11.7557 0
      vertex 16.1803 -11.7557 30
    endloop
  endfacet
  facet normal 0.743145 -0.669131 0
    outer loop
      vertex 16.1803 -11.7557 0
      vertex 13.3826 -14.8629 30
      vertex 13.3826 -14.8629 0
    endloop
  endfacet
  facet normal -0.406737 -0.913545 0
    outer loop
      vertex -10 -17.3205 0
      vertex -6.18034 -19.0211 30
      vertex -10 -17.3205 30
    endloop
  endfacet
  facet normal -0.406737 -0.913545 -0
    outer loop
      vertex -6.18034 -19.0211 30
      vertex -10 -17.3205 0
      vertex -6.18034 -19.0211 0
    endloop
  endfacet
  facet normal 0 -1 0
    outer loop
      vertex -2.09057 -19.8904 0
      vertex 2.09057 -19.8904 30
      vertex -2.09057 -19.8904 30
    endloop
  endfacet
  facet normal 0 -1 -0
    outer loop
      vertex 2.09057 -19.8904 30
      vertex -2.09057 -19.8904 0
      vertex 2.09057 -19.8904 0
    endloop
  endfacet
  facet normal 0 0 -1
    outer loop
      vertex 18.6 0 0
      vertex 20 0 0
      vertex 19.563 -4.15823 0
    endloop
  endfacet
  facet normal 0 0 -1
    outer loop
      vertex 20 0 0
      vertex 18.6 0 0
      vertex 19.563 4.15823 0
    endloop
  endfacet
  facet normal 0 0 -1
    outer loop
      vertex 18.1935 -3.86716 0
      vertex 19.563 -4.15823 0
      vertex 18.2709 -8.13473 0
    endloop
  endfacet
  facet normal 0 0 -1
    outer loop
      vertex 19.563 -4.15823 0
      vertex 18.1935 -3.86716 0
      vertex 18.6 0 0
    endloop
  endfacet
  facet normal 0 0 -1
    outer loop
      vertex 18.2709 -8.13473 0
      vertex 16.9919 -7.5653 0
      vertex 18.1935 -3.86716 0
    endloop
  endfacet
  facet normal 0 0 -1
    outer loop
      vertex 16.1803 -11.7557 0
      vertex 16.9919 -7.5653 0
      vertex 18.2709 -8.13473 0
    endloop
  endfacet
  facet normal 0 0 -1
    outer loop
      vertex 16.1803 -11.7557 0
      vertex 15.0477 -10.9328 0
      vertex 16.9919 -7.5653 0
    endloop
  endfacet
  facet normal 0 0 -1
    outer loop
      vertex 13.3826 -14.8629 0
      vertex 15.0477 -10.9328 0
      vertex 16.1803 -11.7557 0
    endloop
  endfacet
  facet normal 0 0 -1
    outer loop
      vertex 13.3826 -14.8629 0
      vertex 12.4458 -13.8225 0
      vertex 15.0477 -10.9328 0
    endloop
  endfacet
  facet normal 0 0 -1
    outer loop
      vertex 10 -17.3205 0
      vertex 12.4458 -13.8225 0
      vertex 13.3826 -14.8629 0
    endloop
  endfacet
  facet normal 0 0 -1
    outer loop
      vertex 10 -17.3205 0
      vertex 9.3 -16.1081 0
      vertex 12.4458 -13.8225 0
    endloop
  endfacet
  facet normal 0 0 -1
    outer loop
      vertex 6.18034 -19.0211 0
      vertex 9.3 -16.1081 0
      vertex 10 -17.3205 0
    endloop
  endfacet
  facet normal 0 0 -1
    outer loop
      vertex 6.18034 -19.0211 0
      vertex 5.74772 -17.6897 0
      vertex 9.3 -16.1081 0
    endloop
  endfacet
  facet normal 0 0 -1
    outer loop
      vertex 2.09057 -19.8904 0
      vertex 5.74772 -17.6897 0
      vertex 6.18034 -19.0211 0
    endloop
  endfacet
  facet normal 0 0 -1
    outer loop
      vertex 2.09057 -19.8904 0
      vertex 1.94423 -18.4981 0
      vertex 5.74772 -17.6897 0
    endloop
  endfacet
  facet normal 0 0 -1
    outer loop
      vertex 2.09057 -19.8904 0
      vertex -1.94423 -18.4981 0
      vertex 1.94423 -18.4981 0
    endloop
  endfacet
  facet normal 0 0 -1
    outer loop
      vertex -2.09057 -19.8904 0
      vertex -1.94423 -18.4981 0
      vertex 2.09057 -19.8904 0
    endloop
  endfacet
  facet normal 0 0 -1
    outer loop
      vertex -2.09057 -19.8904 0
      vertex -5.74772 -17.6897 0
      vertex -1.94423 -18.4981 0
    endloop
  endfacet
  facet normal 0 0 -1
    outer loop
      vertex -6.18034 -19.0211 0
      vertex -5.74772 -17.6897 0
      vertex -2.09057 -19.8904 0
    endloop
  endfacet
  facet normal 0 0 -1
    outer loop
      vertex -6.18034 -19.0211 0
      vertex -9.3 -16.1081 0
      vertex -5.74772 -17.6897 0
    endloop
  endfacet
  facet normal 0 0 -1
    outer loop
      vertex -10 -17.3205 0
      vertex -9.3 -16.1081 0
      vertex -6.18034 -19.0211 0
    endloop
  endfacet
  facet normal 0 0 -1
    outer loop
      vertex -10 -17.3205 0
      vertex -12.4458 -13.8225 0
      vertex -9.3 -16.1081 0
    endloop
  endfacet
  facet normal 0 0 -1
    outer loop
      vertex -13.3826 -14.8629 0
      vertex -12.4458 -13.8225 0
      vertex -10 -17.3205 0
    endloop
  endfacet
  facet normal 0 0 -1
    outer loop
      vertex -13.3826 -14.8629 0
      vertex -15.0477 -10.9328 0
      vertex -12.4458 -13.8225 0
    endloop
  endfacet
  facet normal 0 0 -1
    outer loop
      vertex -16.1803 -11.7557 0
      vertex -15.0477 -10.9328 0
      vertex -13.3826 -14.8629 0
    endloop
  endfacet
  facet normal 0 0 -1
    outer loop
      vertex -16.1803 -11.7557 0
      vertex -16.9919 -7.5653 0
      vertex -15.0477 -10.9328 0
    endloop
  endfacet
  facet normal 0 0 -1
    outer loop
      vertex -18.2709 -8.13473 0
      vertex -16.9919 -7.5653 0
      vertex -16.1803 -11.7557 0
    endloop
  endfacet
  facet normal -0 0 -1
    outer loop
      vertex -16.9919 -7.5653 0
      vertex -18.2709 -8.13473 0
      vertex -18.1935 -3.86716 0
    endloop
  endfacet
  facet normal 0 0 -1
    outer loop
      vertex -19.563 -4.15823 0
      vertex -18.1935 -3.86716 0
      vertex -18.2709 -8.13473 0
    endloop
  endfacet
  facet normal -0 0 -1
    outer loop
      vertex -18.1935 -3.86716 0
      vertex -19.563 -4.15823 0
      vertex -18.6 0 0
    endloop
  endfacet
  facet normal 0 0 -1
    outer loop
      vertex 18.1935 3.86716 0
      vertex 19.563 4.15823 0
      vertex 18.6 0 0
    endloop
  endfacet
  facet normal -0 0 -1
    outer loop
      vertex 19.563 4.15823 0
      vertex 18.1935 3.86716 0
      vertex 18.2709 8.13473 0
    endloop
  endfacet
  facet normal 0 0 -1
    outer loop
      vertex 16.9919 7.5653 0
      vertex 18.2709 8.13473 0
      vertex 18.1935 3.86716 0
    endloop
  endfacet
  facet normal 0 0 -1
    outer loop
      vertex 16.9919 7.5653 0
      vertex 16.1803 11.7557 0
      vertex 18.2709 8.13473 0
    endloop
  endfacet
  facet normal 0 0 -1
    outer loop
      vertex 15.0477 10.9328 0
      vertex 16.1803 11.7557 0
      vertex 16.9919 7.5653 0
    endloop
  endfacet
  facet normal 0 0 -1
    outer loop
      vertex 15.0477 10.9328 0
      vertex 13.3826 14.8629 0
      vertex 16.1803 11.7557 0
    endloop
  endfacet
  facet normal 0 0 -1
    outer loop
      vertex 12.4458 13.8225 0
      vertex 13.3826 14.8629 0
      vertex 15.0477 10.9328 0
    endloop
  endfacet
  facet normal 0 0 -1
    outer loop
      vertex 12.4458 13.8225 0
      vertex 10 17.3205 0
      vertex 13.3826 14.8629 0
    endloop
  endfacet
  facet normal 0 0 -1
    outer loop
      vertex 9.3 16.1081 0
      vertex 10 17.3205 0
      vertex 12.4458 13.8225 0
    endloop
  endfacet
  facet normal 0 0 -1
    outer loop
      vertex 9.3 16.1081 0
      vertex 6.18034 19.0211 0
      vertex 10 17.3205 0
    endloop
  endfacet
  facet normal 0 0 -1
    outer loop
      vertex 5.74772 17.6897 0
      vertex 6.18034 19.0211 0
      vertex 9.3 16.1081 0
    endloop
  endfacet
  facet normal 0 0 -1
    outer loop
      vertex 5.74772 17.6897 0
      vertex 2.09057 19.8904 0
      vertex 6.18034 19.0211 0
    endloop
  endfacet
  facet normal 0 0 -1
    outer loop
      vertex 1.94423 18.4981 0
      vertex 2.09057 19.8904 0
      vertex 5.74772 17.6897 0
    endloop
  endfacet
  facet normal 0 0 -1
    outer loop
      vertex -1.94423 18.4981 0
      vertex 2.09057 19.8904 0
      vertex 1.94423 18.4981 0
    endloop
  endfacet
  facet normal 0 0 -1
    outer loop
      vertex -1.94423 18.4981 0
      vertex -2.09057 19.8904 0
      vertex 2.09057 19.8904 0
    endloop
  endfacet
  facet normal 0 0 -1
    outer loop
      vertex -5.74772 17.6897 0
      vertex -2.09057 19.8904 0
      vertex -1.94423 18.4981 0
    endloop
  endfacet
  facet normal 0 0 -1
    outer loop
      vertex -5.74772 17.6897 0
      vertex -6.18034 19.0211 0
      vertex -2.09057 19.8904 0
    endloop
  endfacet
  facet normal 0 0 -1
    outer loop
      vertex -9.3 16.1081 0
      vertex -6.18034 19.0211 0
      vertex -5.74772 17.6897 0
    endloop
  endfacet
  facet normal 0 0 -1
    outer loop
      vertex -9.3 16.1081 0
      vertex -10 17.3205 0
      vertex -6.18034 19.0211 0
    endloop
  endfacet
  facet normal 0 0 -1
    outer loop
      vertex -12.4458 13.8225 0
      vertex -10 17.3205 0
      vertex -9.3 16.1081 0
    endloop
  endfacet
  facet normal 0 0 -1
    outer loop
      vertex -12.4458 13.8225 0
      vertex -13.3826 14.8629 0
      vertex -10 17.3205 0
    endloop
  endfacet
  facet normal 0 0 -1
    outer loop
      vertex -15.0477 10.9328 0
      vertex -13.3826 14.8629 0
      vertex -12.4458 13.8225 0
    endloop
  endfacet
  facet normal 0 0 -1
    outer loop
      vertex -15.0477 10.9328 0
      vertex -16.1803 11.7557 0
      vertex -13.3826 14.8629 0
    endloop
  endfacet
  facet normal 0 0 -1
    outer loop
      vertex -16.9919 7.5653 0
      vertex -16.1803 11.7557 0
      vertex -15.0477 10.9328 0
    endloop
  endfacet
  facet normal 0 0 -1
    outer loop
      vertex -18.2709 8.13473 0
      vertex -16.9919 7.5653 0
      vertex -18.1935 3.86716 0
    endloop
  endfacet
  facet normal 0 0 -1
    outer loop
      vertex -16.9919 7.5653 0
      vertex -18.2709 8.13473 0
      vertex -16.1803 11.7557 0
    endloop
  endfacet
  facet normal 0 0 -1
    outer loop
      vertex -19.563 4.15823 0
      vertex -18.1935 3.86716 0
      vertex -18.6 0 0
    endloop
  endfacet
  facet normal 0 0 -1
    outer loop
      vertex -20 0 0
      vertex -18.6 0 0
      vertex -19.563 -4.15823 0
    endloop
  endfacet
  facet normal 0 0 -1
    outer loop
      vertex -18.1935 3.86716 0
      vertex -19.563 4.15823 0
      vertex -18.2709 8.13473 0
    endloop
  endfacet
  facet normal 0 0 -1
    outer loop
      vertex -18.6 0 0
      vertex -20 0 0
      vertex -19.563 4.15823 0
    endloop
  endfacet
  facet normal -0.951057 -0.309017 0
    outer loop
      vertex -18.2709 -8.13473 0
      vertex -19.563 -4.15823 30
      vertex -19.563 -4.15823 0
    endloop
  endfacet
  facet normal -0.951057 -0.309017 0
    outer loop
      vertex -19.563 -4.15823 30
      vertex -18.2709 -8.13473 0
      vertex -18.2709 -8.13473 30
    endloop
  endfacet
  facet normal -0.743145 -0.669131 0
    outer loop
      vertex -13.3826 -14.8629 0
      vertex -16.1803 -11.7557 30
      vertex -16.1803 -11.7557 0
    endloop
  endfacet
  facet normal -0.743145 -0.669131 0
    outer loop
      vertex -16.1803 -11.7557 30
      vertex -13.3826 -14.8629 0
      vertex -13.3826 -14.8629 30
    endloop
  endfacet
  facet normal -0.587785 -0.809017 0
    outer loop
      vertex -13.3826 -14.8629 0
      vertex -10 -17.3205 30
      vertex -13.3826 -14.8629 30
    endloop
  endfacet
  facet normal -0.587785 -0.809017 -0
    outer loop
      vertex -10 -17.3205 30
      vertex -13.3826 -14.8629 0
      vertex -10 -17.3205 0
    endloop
  endfacet
  facet normal -0.994522 -0.104528 0
    outer loop
      vertex 17 0 6
      vertex 16.6285 3.5345 35
      vertex 16.6285 3.5345 6
    endloop
  endfacet
  facet normal -0.994522 -0.104528 0
    outer loop
      vertex 16.6285 3.5345 35
      vertex 17 0 6
      vertex 17 0 35
    endloop
  endfacet
  facet normal 0.994522 -0.104528 0
    outer loop
      vertex -17 0 35
      vertex -16.6285 3.5345 6
      vertex -16.6285 3.5345 35
    endloop
  endfacet
  facet normal 0.994522 -0.104528 0
    outer loop
      vertex -16.6285 3.5345 6
      vertex -17 0 35
      vertex -17 0 6
    endloop
  endfacet
  facet normal 0 -1 0
    outer loop
      vertex -1.77698 16.9069 6
      vertex 1.77698 16.9069 35
      vertex -1.77698 16.9069 35
    endloop
  endfacet
  facet normal 0 -1 -0
    outer loop
      vertex 1.77698 16.9069 35
      vertex -1.77698 16.9069 6
      vertex 1.77698 16.9069 6
    endloop
  endfacet
  facet normal -0.743145 -0.66913 0
    outer loop
      vertex 13.7533 9.99235 6
      vertex 11.3752 12.6335 35
      vertex 11.3752 12.6335 6
    endloop
  endfacet
  facet normal -0.743145 -0.66913 0
    outer loop
      vertex 11.3752 12.6335 35
      vertex 13.7533 9.99235 6
      vertex 13.7533 9.99235 35
    endloop
  endfacet
  facet normal -0.951056 -0.309017 0
    outer loop
      vertex 16.6285 3.5345 6
      vertex 15.5303 6.91452 35
      vertex 15.5303 6.91452 6
    endloop
  endfacet
  facet normal -0.951056 -0.309017 0
    outer loop
      vertex 15.5303 6.91452 35
      vertex 16.6285 3.5345 6
      vertex 16.6285 3.5345 35
    endloop
  endfacet
  facet normal 0.587785 -0.809017 0
    outer loop
      vertex -11.3752 12.6335 6
      vertex -8.5 14.7224 35
      vertex -11.3752 12.6335 35
    endloop
  endfacet
  facet normal 0.587785 -0.809017 0
    outer loop
      vertex -8.5 14.7224 35
      vertex -11.3752 12.6335 6
      vertex -8.5 14.7224 6
    endloop
  endfacet
  facet normal 0.207911 -0.978148 0
    outer loop
      vertex -5.25329 16.168 6
      vertex -1.77698 16.9069 35
      vertex -5.25329 16.168 35
    endloop
  endfacet
  facet normal 0.207911 -0.978148 0
    outer loop
      vertex -1.77698 16.9069 35
      vertex -5.25329 16.168 6
      vertex -1.77698 16.9069 6
    endloop
  endfacet
  facet normal -0.866025 -0.5 0
    outer loop
      vertex 15.5303 6.91452 6
      vertex 13.7533 9.99235 35
      vertex 13.7533 9.99235 6
    endloop
  endfacet
  facet normal -0.866025 -0.5 0
    outer loop
      vertex 13.7533 9.99235 35
      vertex 15.5303 6.91452 6
      vertex 15.5303 6.91452 35
    endloop
  endfacet
  facet normal -0.406737 -0.913545 0
    outer loop
      vertex 5.25329 16.168 6
      vertex 8.5 14.7224 35
      vertex 5.25329 16.168 35
    endloop
  endfacet
  facet normal -0.406737 -0.913545 -0
    outer loop
      vertex 8.5 14.7224 35
      vertex 5.25329 16.168 6
      vertex 8.5 14.7224 6
    endloop
  endfacet
  facet normal -0.207911 -0.978148 0
    outer loop
      vertex 1.77698 16.9069 6
      vertex 5.25329 16.168 35
      vertex 1.77698 16.9069 35
    endloop
  endfacet
  facet normal -0.207911 -0.978148 -0
    outer loop
      vertex 5.25329 16.168 35
      vertex 1.77698 16.9069 6
      vertex 5.25329 16.168 6
    endloop
  endfacet
  facet normal -0.587785 -0.809017 0
    outer loop
      vertex 8.5 14.7224 6
      vertex 11.3752 12.6335 35
      vertex 8.5 14.7224 35
    endloop
  endfacet
  facet normal -0.587785 -0.809017 -0
    outer loop
      vertex 11.3752 12.6335 35
      vertex 8.5 14.7224 6
      vertex 11.3752 12.6335 6
    endloop
  endfacet
  facet normal 0.866025 -0.5 0
    outer loop
      vertex -15.5303 6.91452 35
      vertex -13.7533 9.99235 6
      vertex -13.7533 9.99235 35
    endloop
  endfacet
  facet normal 0.866025 -0.5 0
    outer loop
      vertex -13.7533 9.99235 6
      vertex -15.5303 6.91452 35
      vertex -15.5303 6.91452 6
    endloop
  endfacet
  facet normal 0.743145 -0.66913 0
    outer loop
      vertex -13.7533 9.99235 35
      vertex -11.3752 12.6335 6
      vertex -11.3752 12.6335 35
    endloop
  endfacet
  facet normal 0.743145 -0.66913 0
    outer loop
      vertex -11.3752 12.6335 6
      vertex -13.7533 9.99235 35
      vertex -13.7533 9.99235 6
    endloop
  endfacet
  facet normal 0.951056 -0.309017 0
    outer loop
      vertex -16.6285 3.5345 35
      vertex -15.5303 6.91452 6
      vertex -15.5303 6.91452 35
    endloop
  endfacet
  facet normal 0.951056 -0.309017 0
    outer loop
      vertex -15.5303 6.91452 6
      vertex -16.6285 3.5345 35
      vertex -16.6285 3.5345 6
    endloop
  endfacet
  facet normal 0.406737 -0.913545 0
    outer loop
      vertex -8.5 14.7224 6
      vertex -5.25329 16.168 35
      vertex -8.5 14.7224 35
    endloop
  endfacet
  facet normal 0.406737 -0.913545 0
    outer loop
      vertex -5.25329 16.168 35
      vertex -8.5 14.7224 6
      vertex -5.25329 16.168 6
    endloop
  endfacet
  facet normal -0.994522 0.104528 0
    outer loop
      vertex 16.6285 -3.5345 6
      vertex 17 0 35
      vertex 17 0 6
    endloop
  endfacet
  facet normal -0.994522 0.104528 0
    outer loop
      vertex 17 0 35
      vertex 16.6285 -3.5345 6
      vertex 16.6285 -3.5345 35
    endloop
  endfacet
  facet normal 0.207911 0.978148 -0
    outer loop
      vertex -1.77698 -16.9069 6
      vertex -5.25329 -16.168 35
      vertex -1.77698 -16.9069 35
    endloop
  endfacet
  facet normal 0.207911 0.978148 0
    outer loop
      vertex -5.25329 -16.168 35
      vertex -1.77698 -16.9069 6
      vertex -5.25329 -16.168 6
    endloop
  endfacet
  facet normal -0.743145 0.66913 0
    outer loop
      vertex 11.3752 -12.6335 6
      vertex 13.7533 -9.99235 35
      vertex 13.7533 -9.99235 6
    endloop
  endfacet
  facet normal -0.743145 0.66913 0
    outer loop
      vertex 13.7533 -9.99235 35
      vertex 11.3752 -12.6335 6
      vertex 11.3752 -12.6335 35
    endloop
  endfacet
  facet normal -0.951056 0.309017 0
    outer loop
      vertex 15.5303 -6.91452 6
      vertex 16.6285 -3.5345 35
      vertex 16.6285 -3.5345 6
    endloop
  endfacet
  facet normal -0.951056 0.309017 0
    outer loop
      vertex 16.6285 -3.5345 35
      vertex 15.5303 -6.91452 6
      vertex 15.5303 -6.91452 35
    endloop
  endfacet
  facet normal -0.866025 0.5 0
    outer loop
      vertex 13.7533 -9.99235 6
      vertex 15.5303 -6.91452 35
      vertex 15.5303 -6.91452 6
    endloop
  endfacet
  facet normal -0.866025 0.5 0
    outer loop
      vertex 15.5303 -6.91452 35
      vertex 13.7533 -9.99235 6
      vertex 13.7533 -9.99235 35
    endloop
  endfacet
  facet normal 0.866025 0.5 0
    outer loop
      vertex -13.7533 -9.99235 35
      vertex -15.5303 -6.91452 6
      vertex -15.5303 -6.91452 35
    endloop
  endfacet
  facet normal 0.866025 0.5 0
    outer loop
      vertex -15.5303 -6.91452 6
      vertex -13.7533 -9.99235 35
      vertex -13.7533 -9.99235 6
    endloop
  endfacet
  facet normal 0.994522 0.104528 0
    outer loop
      vertex -16.6285 -3.5345 35
      vertex -17 0 6
      vertex -17 0 35
    endloop
  endfacet
  facet normal 0.994522 0.104528 0
    outer loop
      vertex -17 0 6
      vertex -16.6285 -3.5345 35
      vertex -16.6285 -3.5345 6
    endloop
  endfacet
  facet normal 0.951056 0.309017 0
    outer loop
      vertex -15.5303 -6.91452 35
      vertex -16.6285 -3.5345 6
      vertex -16.6285 -3.5345 35
    endloop
  endfacet
  facet normal 0.951056 0.309017 0
    outer loop
      vertex -16.6285 -3.5345 6
      vertex -15.5303 -6.91452 35
      vertex -15.5303 -6.91452 6
    endloop
  endfacet
  facet normal -0.207911 0.978148 0
    outer loop
      vertex 5.25329 -16.168 6
      vertex 1.77698 -16.9069 35
      vertex 5.25329 -16.168 35
    endloop
  endfacet
  facet normal -0.207911 0.978148 0
    outer loop
      vertex 1.77698 -16.9069 35
      vertex 5.25329 -16.168 6
      vertex 1.77698 -16.9069 6
    endloop
  endfacet
  facet normal -0.587785 0.809017 0
    outer loop
      vertex 11.3752 -12.6335 6
      vertex 8.5 -14.7224 35
      vertex 11.3752 -12.6335 35
    endloop
  endfacet
  facet normal -0.587785 0.809017 0
    outer loop
      vertex 8.5 -14.7224 35
      vertex 11.3752 -12.6335 6
      vertex 8.5 -14.7224 6
    endloop
  endfacet
  facet normal 0 1 -0
    outer loop
      vertex 1.77698 -16.9069 6
      vertex -1.77698 -16.9069 35
      vertex 1.77698 -16.9069 35
    endloop
  endfacet
  facet normal 0 1 0
    outer loop
      vertex -1.77698 -16.9069 35
      vertex 1.77698 -16.9069 6
      vertex -1.77698 -16.9069 6
    endloop
  endfacet
  facet normal 0.587785 0.809017 -0
    outer loop
      vertex -8.5 -14.7224 6
      vertex -11.3752 -12.6335 35
      vertex -8.5 -14.7224 35
    endloop
  endfacet
  facet normal 0.587785 0.809017 0
    outer loop
      vertex -11.3752 -12.6335 35
      vertex -8.5 -14.7224 6
      vertex -11.3752 -12.6335 6
    endloop
  endfacet
  facet normal 0.406737 0.913545 -0
    outer loop
      vertex -5.25329 -16.168 6
      vertex -8.5 -14.7224 35
      vertex -5.25329 -16.168 35
    endloop
  endfacet
  facet normal 0.406737 0.913545 0
    outer loop
      vertex -8.5 -14.7224 35
      vertex -5.25329 -16.168 6
      vertex -8.5 -14.7224 6
    endloop
  endfacet
  facet normal 0.743145 0.66913 0
    outer loop
      vertex -11.3752 -12.6335 35
      vertex -13.7533 -9.99235 6
      vertex -13.7533 -9.99235 35
    endloop
  endfacet
  facet normal 0.743145 0.66913 0
    outer loop
      vertex -13.7533 -9.99235 6
      vertex -11.3752 -12.6335 35
      vertex -11.3752 -12.6335 6
    endloop
  endfacet
  facet normal -0.406737 0.913545 0
    outer loop
      vertex 8.5 -14.7224 6
      vertex 5.25329 -16.168 35
      vertex 8.5 -14.7224 35
    endloop
  endfacet
  facet normal -0.406737 0.913545 0
    outer loop
      vertex 5.25329 -16.168 35
      vertex 8.5 -14.7224 6
      vertex 5.25329 -16.168 6
    endloop
  endfacet
  facet normal -0.994522 -0.104528 0
    outer loop
      vertex 18.6 0 0
      vertex 18.1935 3.86716 6
      vertex 18.1935 3.86716 0
    endloop
  endfacet
  facet normal -0.994522 -0.104528 0
    outer loop
      vertex 18.1935 3.86716 6
      vertex 18.6 0 0
      vertex 18.6 0 6
    endloop
  endfacet
  facet normal 0.994522 -0.104528 0
    outer loop
      vertex -18.6 0 6
      vertex -18.1935 3.86716 0
      vertex -18.1935 3.86716 6
    endloop
  endfacet
  facet normal 0.994522 -0.104528 0
    outer loop
      vertex -18.1935 3.86716 0
      vertex -18.6 0 6
      vertex -18.6 0 0
    endloop
  endfacet
  facet normal 0 -1 0
    outer loop
      vertex -1.94423 18.4981 0
      vertex 1.94423 18.4981 6
      vertex -1.94423 18.4981 6
    endloop
  endfacet
  facet normal 0 -1 -0
    outer loop
      vertex 1.94423 18.4981 6
      vertex -1.94423 18.4981 0
      vertex 1.94423 18.4981 0
    endloop
  endfacet
  facet normal 0 1 -0
    outer loop
      vertex 1.94423 -18.4981 0
      vertex -1.94423 -18.4981 6
      vertex 1.94423 -18.4981 6
    endloop
  endfacet
  facet normal 0 1 0
    outer loop
      vertex -1.94423 -18.4981 6
      vertex 1.94423 -18.4981 0
      vertex -1.94423 -18.4981 0
    endloop
  endfacet
  facet normal -0.743145 -0.669131 0
    outer loop
      vertex 15.0477 10.9328 0
      vertex 12.4458 13.8225 6
      vertex 12.4458 13.8225 0
    endloop
  endfacet
  facet normal -0.743145 -0.669131 0
    outer loop
      vertex 12.4458 13.8225 6
      vertex 15.0477 10.9328 0
      vertex 15.0477 10.9328 6
    endloop
  endfacet
  facet normal -0.951056 -0.309017 0
    outer loop
      vertex 18.1935 3.86716 0
      vertex 16.9919 7.5653 6
      vertex 16.9919 7.5653 0
    endloop
  endfacet
  facet normal -0.951056 -0.309017 0
    outer loop
      vertex 16.9919 7.5653 6
      vertex 18.1935 3.86716 0
      vertex 18.1935 3.86716 6
    endloop
  endfacet
  facet normal 0.587785 -0.809017 0
    outer loop
      vertex -12.4458 13.8225 0
      vertex -9.3 16.1081 6
      vertex -12.4458 13.8225 6
    endloop
  endfacet
  facet normal 0.587785 -0.809017 0
    outer loop
      vertex -9.3 16.1081 6
      vertex -12.4458 13.8225 0
      vertex -9.3 16.1081 0
    endloop
  endfacet
  facet normal 0.406737 -0.913545 0
    outer loop
      vertex -9.3 16.1081 0
      vertex -5.74772 17.6897 6
      vertex -9.3 16.1081 6
    endloop
  endfacet
  facet normal 0.406737 -0.913545 0
    outer loop
      vertex -5.74772 17.6897 6
      vertex -9.3 16.1081 0
      vertex -5.74772 17.6897 0
    endloop
  endfacet
  facet normal -0.866025 0.5 0
    outer loop
      vertex 15.0477 -10.9328 0
      vertex 16.9919 -7.5653 6
      vertex 16.9919 -7.5653 0
    endloop
  endfacet
  facet normal -0.866025 0.5 0
    outer loop
      vertex 16.9919 -7.5653 6
      vertex 15.0477 -10.9328 0
      vertex 15.0477 -10.9328 6
    endloop
  endfacet
  facet normal -0.866025 -0.5 0
    outer loop
      vertex 16.9919 7.5653 0
      vertex 15.0477 10.9328 6
      vertex 15.0477 10.9328 0
    endloop
  endfacet
  facet normal -0.866025 -0.5 0
    outer loop
      vertex 15.0477 10.9328 6
      vertex 16.9919 7.5653 0
      vertex 16.9919 7.5653 6
    endloop
  endfacet
  facet normal -0.406737 -0.913545 0
    outer loop
      vertex 5.74772 17.6897 0
      vertex 9.3 16.1081 6
      vertex 5.74772 17.6897 6
    endloop
  endfacet
  facet normal -0.406737 -0.913545 -0
    outer loop
      vertex 9.3 16.1081 6
      vertex 5.74772 17.6897 0
      vertex 9.3 16.1081 0
    endloop
  endfacet
  facet normal -0.207912 -0.978148 0
    outer loop
      vertex 1.94423 18.4981 0
      vertex 5.74772 17.6897 6
      vertex 1.94423 18.4981 6
    endloop
  endfacet
  facet normal -0.207912 -0.978148 -0
    outer loop
      vertex 5.74772 17.6897 6
      vertex 1.94423 18.4981 0
      vertex 5.74772 17.6897 0
    endloop
  endfacet
  facet normal -0.587785 -0.809017 0
    outer loop
      vertex 9.3 16.1081 0
      vertex 12.4458 13.8225 6
      vertex 9.3 16.1081 6
    endloop
  endfacet
  facet normal -0.587785 -0.809017 -0
    outer loop
      vertex 12.4458 13.8225 6
      vertex 9.3 16.1081 0
      vertex 12.4458 13.8225 0
    endloop
  endfacet
  facet normal 0.866025 -0.5 0
    outer loop
      vertex -16.9919 7.5653 6
      vertex -15.0477 10.9328 0
      vertex -15.0477 10.9328 6
    endloop
  endfacet
  facet normal 0.866025 -0.5 0
    outer loop
      vertex -15.0477 10.9328 0
      vertex -16.9919 7.5653 6
      vertex -16.9919 7.5653 0
    endloop
  endfacet
  facet normal 0.743145 -0.669131 0
    outer loop
      vertex -15.0477 10.9328 6
      vertex -12.4458 13.8225 0
      vertex -12.4458 13.8225 6
    endloop
  endfacet
  facet normal 0.743145 -0.669131 0
    outer loop
      vertex -12.4458 13.8225 0
      vertex -15.0477 10.9328 6
      vertex -15.0477 10.9328 0
    endloop
  endfacet
  facet normal 0.951056 -0.309017 0
    outer loop
      vertex -18.1935 3.86716 6
      vertex -16.9919 7.5653 0
      vertex -16.9919 7.5653 6
    endloop
  endfacet
  facet normal 0.951056 -0.309017 0
    outer loop
      vertex -16.9919 7.5653 0
      vertex -18.1935 3.86716 6
      vertex -18.1935 3.86716 0
    endloop
  endfacet
  facet normal 0 0 -1
    outer loop
      vertex 17 0 6
      vertex 18.6 0 6
      vertex 18.1935 -3.86716 6
    endloop
  endfacet
  facet normal 0 0 -1
    outer loop
      vertex 18.6 0 6
      vertex 17 0 6
      vertex 18.1935 3.86716 6
    endloop
  endfacet
  facet normal 0 0 -1
    outer loop
      vertex 16.6285 -3.5345 6
      vertex 18.1935 -3.86716 6
      vertex 16.9919 -7.5653 6
    endloop
  endfacet
  facet normal 0 0 -1
    outer loop
      vertex 18.1935 -3.86716 6
      vertex 16.6285 -3.5345 6
      vertex 17 0 6
    endloop
  endfacet
  facet normal 0 0 -1
    outer loop
      vertex 16.9919 -7.5653 6
      vertex 15.5303 -6.91452 6
      vertex 16.6285 -3.5345 6
    endloop
  endfacet
  facet normal 0 0 -1
    outer loop
      vertex 15.0477 -10.9328 6
      vertex 15.5303 -6.91452 6
      vertex 16.9919 -7.5653 6
    endloop
  endfacet
  facet normal 0 0 -1
    outer loop
      vertex 15.0477 -10.9328 6
      vertex 13.7533 -9.99235 6
      vertex 15.5303 -6.91452 6
    endloop
  endfacet
  facet normal 0 0 -1
    outer loop
      vertex 12.4458 -13.8225 6
      vertex 13.7533 -9.99235 6
      vertex 15.0477 -10.9328 6
    endloop
  endfacet
  facet normal 0 0 -1
    outer loop
      vertex 12.4458 -13.8225 6
      vertex 11.3752 -12.6335 6
      vertex 13.7533 -9.99235 6
    endloop
  endfacet
  facet normal 0 0 -1
    outer loop
      vertex 9.3 -16.1081 6
      vertex 11.3752 -12.6335 6
      vertex 12.4458 -13.8225 6
    endloop
  endfacet
  facet normal 0 0 -1
    outer loop
      vertex 9.3 -16.1081 6
      vertex 8.5 -14.7224 6
      vertex 11.3752 -12.6335 6
    endloop
  endfacet
  facet normal 0 0 -1
    outer loop
      vertex 5.74772 -17.6897 6
      vertex 8.5 -14.7224 6
      vertex 9.3 -16.1081 6
    endloop
  endfacet
  facet normal 0 0 -1
    outer loop
      vertex 5.74772 -17.6897 6
      vertex 5.25329 -16.168 6
      vertex 8.5 -14.7224 6
    endloop
  endfacet
  facet normal 0 0 -1
    outer loop
      vertex 1.94423 -18.4981 6
      vertex 5.25329 -16.168 6
      vertex 5.74772 -17.6897 6
    endloop
  endfacet
  facet normal 0 0 -1
    outer loop
      vertex 1.94423 -18.4981 6
      vertex 1.77698 -16.9069 6
      vertex 5.25329 -16.168 6
    endloop
  endfacet
  facet normal 0 0 -1
    outer loop
      vertex 1.94423 -18.4981 6
      vertex -1.77698 -16.9069 6
      vertex 1.77698 -16.9069 6
    endloop
  endfacet
  facet normal 0 0 -1
    outer loop
      vertex -1.94423 -18.4981 6
      vertex -1.77698 -16.9069 6
      vertex 1.94423 -18.4981 6
    endloop
  endfacet
  facet normal 0 0 -1
    outer loop
      vertex -1.94423 -18.4981 6
      vertex -5.25329 -16.168 6
      vertex -1.77698 -16.9069 6
    endloop
  endfacet
  facet normal 0 0 -1
    outer loop
      vertex -5.74772 -17.6897 6
      vertex -5.25329 -16.168 6
      vertex -1.94423 -18.4981 6
    endloop
  endfacet
  facet normal 0 0 -1
    outer loop
      vertex -5.74772 -17.6897 6
      vertex -8.5 -14.7224 6
      vertex -5.25329 -16.168 6
    endloop
  endfacet
  facet normal 0 0 -1
    outer loop
      vertex -9.3 -16.1081 6
      vertex -8.5 -14.7224 6
      vertex -5.74772 -17.6897 6
    endloop
  endfacet
  facet normal 0 0 -1
    outer loop
      vertex -9.3 -16.1081 6
      vertex -11.3752 -12.6335 6
      vertex -8.5 -14.7224 6
    endloop
  endfacet
  facet normal 0 0 -1
    outer loop
      vertex -12.4458 -13.8225 6
      vertex -11.3752 -12.6335 6
      vertex -9.3 -16.1081 6
    endloop
  endfacet
  facet normal 0 0 -1
    outer loop
      vertex -12.4458 -13.8225 6
      vertex -13.7533 -9.99235 6
      vertex -11.3752 -12.6335 6
    endloop
  endfacet
  facet normal 0 0 -1
    outer loop
      vertex -15.0477 -10.9328 6
      vertex -13.7533 -9.99235 6
      vertex -12.4458 -13.8225 6
    endloop
  endfacet
  facet normal 0 0 -1
    outer loop
      vertex -15.0477 -10.9328 6
      vertex -15.5303 -6.91452 6
      vertex -13.7533 -9.99235 6
    endloop
  endfacet
  facet normal 0 0 -1
    outer loop
      vertex -16.9919 -7.5653 6
      vertex -15.5303 -6.91452 6
      vertex -15.0477 -10.9328 6
    endloop
  endfacet
  facet normal -0 0 -1
    outer loop
      vertex -15.5303 -6.91452 6
      vertex -16.9919 -7.5653 6
      vertex -16.6285 -3.5345 6
    endloop
  endfacet
  facet normal 0 0 -1
    outer loop
      vertex -18.1935 -3.86716 6
      vertex -16.6285 -3.5345 6
      vertex -16.9919 -7.5653 6
    endloop
  endfacet
  facet normal -0 0 -1
    outer loop
      vertex -16.6285 -3.5345 6
      vertex -18.1935 -3.86716 6
      vertex -17 0 6
    endloop
  endfacet
  facet normal 0 0 -1
    outer loop
      vertex 16.6285 3.5345 6
      vertex 18.1935 3.86716 6
      vertex 17 0 6
    endloop
  endfacet
  facet normal -0 0 -1
    outer loop
      vertex 18.1935 3.86716 6
      vertex 16.6285 3.5345 6
      vertex 16.9919 7.5653 6
    endloop
  endfacet
  facet normal 0 0 -1
    outer loop
      vertex 15.5303 6.91452 6
      vertex 16.9919 7.5653 6
      vertex 16.6285 3.5345 6
    endloop
  endfacet
  facet normal 0 0 -1
    outer loop
      vertex 15.5303 6.91452 6
      vertex 15.0477 10.9328 6
      vertex 16.9919 7.5653 6
    endloop
  endfacet
  facet normal 0 0 -1
    outer loop
      vertex 13.7533 9.99235 6
      vertex 15.0477 10.9328 6
      vertex 15.5303 6.91452 6
    endloop
  endfacet
  facet normal 0 0 -1
    outer loop
      vertex 13.7533 9.99235 6
      vertex 12.4458 13.8225 6
      vertex 15.0477 10.9328 6
    endloop
  endfacet
  facet normal 0 0 -1
    outer loop
      vertex 11.3752 12.6335 6
      vertex 12.4458 13.8225 6
      vertex 13.7533 9.99235 6
    endloop
  endfacet
  facet normal 0 0 -1
    outer loop
      vertex 11.3752 12.6335 6
      vertex 9.3 16.1081 6
      vertex 12.4458 13.8225 6
    endloop
  endfacet
  facet normal 0 0 -1
    outer loop
      vertex 8.5 14.7224 6
      vertex 9.3 16.1081 6
      vertex 11.3752 12.6335 6
    endloop
  endfacet
  facet normal 0 0 -1
    outer loop
      vertex 8.5 14.7224 6
      vertex 5.74772 17.6897 6
      vertex 9.3 16.1081 6
    endloop
  endfacet
  facet normal 0 0 -1
    outer loop
      vertex 5.25329 16.168 6
      vertex 5.74772 17.6897 6
      vertex 8.5 14.7224 6
    endloop
  endfacet
  facet normal 0 0 -1
    outer loop
      vertex 5.25329 16.168 6
      vertex 1.94423 18.4981 6
      vertex 5.74772 17.6897 6
    endloop
  endfacet
  facet normal 0 0 -1
    outer loop
      vertex 1.77698 16.9069 6
      vertex 1.94423 18.4981 6
      vertex 5.25329 16.168 6
    endloop
  endfacet
  facet normal 0 0 -1
    outer loop
      vertex -1.77698 16.9069 6
      vertex 1.94423 18.4981 6
      vertex 1.77698 16.9069 6
    endloop
  endfacet
  facet normal 0 0 -1
    outer loop
      vertex -1.77698 16.9069 6
      vertex -1.94423 18.4981 6
      vertex 1.94423 18.4981 6
    endloop
  endfacet
  facet normal 0 0 -1
    outer loop
      vertex -5.25329 16.168 6
      vertex -1.94423 18.4981 6
      vertex -1.77698 16.9069 6
    endloop
  endfacet
  facet normal 0 0 -1
    outer loop
      vertex -5.25329 16.168 6
      vertex -5.74772 17.6897 6
      vertex -1.94423 18.4981 6
    endloop
  endfacet
  facet normal 0 0 -1
    outer loop
      vertex -8.5 14.7224 6
      vertex -5.74772 17.6897 6
      vertex -5.25329 16.168 6
    endloop
  endfacet
  facet normal 0 0 -1
    outer loop
      vertex -8.5 14.7224 6
      vertex -9.3 16.1081 6
      vertex -5.74772 17.6897 6
    endloop
  endfacet
  facet normal 0 0 -1
    outer loop
      vertex -11.3752 12.6335 6
      vertex -9.3 16.1081 6
      vertex -8.5 14.7224 6
    endloop
  endfacet
  facet normal 0 0 -1
    outer loop
      vertex -11.3752 12.6335 6
      vertex -12.4458 13.8225 6
      vertex -9.3 16.1081 6
    endloop
  endfacet
  facet normal 0 0 -1
    outer loop
      vertex -13.7533 9.99235 6
      vertex -12.4458 13.8225 6
      vertex -11.3752 12.6335 6
    endloop
  endfacet
  facet normal 0 0 -1
    outer loop
      vertex -13.7533 9.99235 6
      vertex -15.0477 10.9328 6
      vertex -12.4458 13.8225 6
    endloop
  endfacet
  facet normal 0 0 -1
    outer loop
      vertex -15.5303 6.91452 6
      vertex -15.0477 10.9328 6
      vertex -13.7533 9.99235 6
    endloop
  endfacet
  facet normal 0 0 -1
    outer loop
      vertex -16.9919 7.5653 6
      vertex -15.5303 6.91452 6
      vertex -16.6285 3.5345 6
    endloop
  endfacet
  facet normal 0 0 -1
    outer loop
      vertex -15.5303 6.91452 6
      vertex -16.9919 7.5653 6
      vertex -15.0477 10.9328 6
    endloop
  endfacet
  facet normal 0 0 -1
    outer loop
      vertex -18.1935 3.86716 6
      vertex -16.6285 3.5345 6
      vertex -17 0 6
    endloop
  endfacet
  facet normal 0 0 -1
    outer loop
      vertex -18.6 0 6
      vertex -17 0 6
      vertex -18.1935 -3.86716 6
    endloop
  endfacet
  facet normal 0 0 -1
    outer loop
      vertex -16.6285 3.5345 6
      vertex -18.1935 3.86716 6
      vertex -16.9919 7.5653 6
    endloop
  endfacet
  facet normal 0 0 -1
    outer loop
      vertex -17 0 6
      vertex -18.6 0 6
      vertex -18.1935 3.86716 6
    endloop
  endfacet
  facet normal 0.207912 -0.978148 0
    outer loop
      vertex -5.74772 17.6897 0
      vertex -1.94423 18.4981 6
      vertex -5.74772 17.6897 6
    endloop
  endfacet
  facet normal 0.207912 -0.978148 0
    outer loop
      vertex -1.94423 18.4981 6
      vertex -5.74772 17.6897 0
      vertex -1.94423 18.4981 0
    endloop
  endfacet
  facet normal -0.994522 0.104528 0
    outer loop
      vertex 18.1935 -3.86716 0
      vertex 18.6 0 6
      vertex 18.6 0 0
    endloop
  endfacet
  facet normal -0.994522 0.104528 0
    outer loop
      vertex 18.6 0 6
      vertex 18.1935 -3.86716 0
      vertex 18.1935 -3.86716 6
    endloop
  endfacet
  facet normal -0.587785 0.809017 0
    outer loop
      vertex 12.4458 -13.8225 0
      vertex 9.3 -16.1081 6
      vertex 12.4458 -13.8225 6
    endloop
  endfacet
  facet normal -0.587785 0.809017 0
    outer loop
      vertex 9.3 -16.1081 6
      vertex 12.4458 -13.8225 0
      vertex 9.3 -16.1081 0
    endloop
  endfacet
  facet normal -0.743145 0.669131 0
    outer loop
      vertex 12.4458 -13.8225 0
      vertex 15.0477 -10.9328 6
      vertex 15.0477 -10.9328 0
    endloop
  endfacet
  facet normal -0.743145 0.669131 0
    outer loop
      vertex 15.0477 -10.9328 6
      vertex 12.4458 -13.8225 0
      vertex 12.4458 -13.8225 6
    endloop
  endfacet
  facet normal -0.951056 0.309017 0
    outer loop
      vertex 16.9919 -7.5653 0
      vertex 18.1935 -3.86716 6
      vertex 18.1935 -3.86716 0
    endloop
  endfacet
  facet normal -0.951056 0.309017 0
    outer loop
      vertex 18.1935 -3.86716 6
      vertex 16.9919 -7.5653 0
      vertex 16.9919 -7.5653 6
    endloop
  endfacet
  facet normal 0.587785 0.809017 -0
    outer loop
      vertex -9.3 -16.1081 0
      vertex -12.4458 -13.8225 6
      vertex -9.3 -16.1081 6
    endloop
  endfacet
  facet normal 0.587785 0.809017 0
    outer loop
      vertex -12.4458 -13.8225 6
      vertex -9.3 -16.1081 0
      vertex -12.4458 -13.8225 0
    endloop
  endfacet
  facet normal 0.866025 0.5 0
    outer loop
      vertex -15.0477 -10.9328 6
      vertex -16.9919 -7.5653 0
      vertex -16.9919 -7.5653 6
    endloop
  endfacet
  facet normal 0.866025 0.5 0
    outer loop
      vertex -16.9919 -7.5653 0
      vertex -15.0477 -10.9328 6
      vertex -15.0477 -10.9328 0
    endloop
  endfacet
  facet normal 0.207912 0.978148 -0
    outer loop
      vertex -1.94423 -18.4981 0
      vertex -5.74772 -17.6897 6
      vertex -1.94423 -18.4981 6
    endloop
  endfacet
  facet normal 0.207912 0.978148 0
    outer loop
      vertex -5.74772 -17.6897 6
      vertex -1.94423 -18.4981 0
      vertex -5.74772 -17.6897 0
    endloop
  endfacet
  facet normal 0.406737 0.913545 -0
    outer loop
      vertex -5.74772 -17.6897 0
      vertex -9.3 -16.1081 6
      vertex -5.74772 -17.6897 6
    endloop
  endfacet
  facet normal 0.406737 0.913545 0
    outer loop
      vertex -9.3 -16.1081 6
      vertex -5.74772 -17.6897 0
      vertex -9.3 -16.1081 0
    endloop
  endfacet
  facet normal 0.743145 0.669131 0
    outer loop
      vertex -12.4458 -13.8225 6
      vertex -15.0477 -10.9328 0
      vertex -15.0477 -10.9328 6
    endloop
  endfacet
  facet normal 0.743145 0.669131 0
    outer loop
      vertex -15.0477 -10.9328 0
      vertex -12.4458 -13.8225 6
      vertex -12.4458 -13.8225 0
    endloop
  endfacet
  facet normal 0.951056 0.309017 0
    outer loop
      vertex -16.9919 -7.5653 6
      vertex -18.1935 -3.86716 0
      vertex -18.1935 -3.86716 6
    endloop
  endfacet
  facet normal 0.951056 0.309017 0
    outer loop
      vertex -18.1935 -3.86716 0
      vertex -16.9919 -7.5653 6
      vertex -16.9919 -7.5653 0
    endloop
  endfacet
  facet normal 0.994522 0.104528 0
    outer loop
      vertex -18.1935 -3.86716 6
      vertex -18.6 0 0
      vertex -18.6 0 6
    endloop
  endfacet
  facet normal 0.994522 0.104528 0
    outer loop
      vertex -18.6 0 0
      vertex -18.1935 -3.86716 6
      vertex -18.1935 -3.86716 0
    endloop
  endfacet
  facet normal -0.406737 0.913545 0
    outer loop
      vertex 9.3 -16.1081 0
      vertex 5.74772 -17.6897 6
      vertex 9.3 -16.1081 6
    endloop
  endfacet
  facet normal -0.406737 0.913545 0
    outer loop
      vertex 5.74772 -17.6897 6
      vertex 9.3 -16.1081 0
      vertex 5.74772 -17.6897 0
    endloop
  endfacet
  facet normal -0.207912 0.978148 0
    outer loop
      vertex 5.74772 -17.6897 0
      vertex 1.94423 -18.4981 6
      vertex 5.74772 -17.6897 6
    endloop
  endfacet
  facet normal -0.207912 0.978148 0
    outer loop
      vertex 1.94423 -18.4981 6
      vertex 5.74772 -17.6897 0
      vertex 1.94423 -18.4981 0
    endloop
  endfacet
endsolid OpenSCAD_Model
